%TF.GenerationSoftware,KiCad,Pcbnew,(5.1.6)-1*%
%TF.CreationDate,2020-11-19T21:10:57+01:00*%
%TF.ProjectId,rs485_transceiver,72733438-355f-4747-9261-6e7363656976,rev?*%
%TF.SameCoordinates,Original*%
%TF.FileFunction,Copper,L1,Top*%
%TF.FilePolarity,Positive*%
%FSLAX46Y46*%
G04 Gerber Fmt 4.6, Leading zero omitted, Abs format (unit mm)*
G04 Created by KiCad (PCBNEW (5.1.6)-1) date 2020-11-19 21:10:57*
%MOMM*%
%LPD*%
G01*
G04 APERTURE LIST*
%TA.AperFunction,SMDPad,CuDef*%
%ADD10C,0.100000*%
%TD*%
%TA.AperFunction,ComponentPad*%
%ADD11O,1.700000X1.700000*%
%TD*%
%TA.AperFunction,ComponentPad*%
%ADD12R,1.700000X1.700000*%
%TD*%
%TA.AperFunction,ComponentPad*%
%ADD13C,2.600000*%
%TD*%
%TA.AperFunction,ComponentPad*%
%ADD14R,2.600000X2.600000*%
%TD*%
%TA.AperFunction,Conductor*%
%ADD15C,0.250000*%
%TD*%
%TA.AperFunction,Conductor*%
%ADD16C,0.254000*%
%TD*%
G04 APERTURE END LIST*
%TO.P,U3,8*%
%TO.N,/VDD*%
%TA.AperFunction,SMDPad,CuDef*%
G36*
G01*
X180000000Y-116755000D02*
X180000000Y-117055000D01*
G75*
G02*
X179850000Y-117205000I-150000J0D01*
G01*
X178200000Y-117205000D01*
G75*
G02*
X178050000Y-117055000I0J150000D01*
G01*
X178050000Y-116755000D01*
G75*
G02*
X178200000Y-116605000I150000J0D01*
G01*
X179850000Y-116605000D01*
G75*
G02*
X180000000Y-116755000I0J-150000D01*
G01*
G37*
%TD.AperFunction*%
%TO.P,U3,7*%
%TO.N,/RS485_B*%
%TA.AperFunction,SMDPad,CuDef*%
G36*
G01*
X180000000Y-115485000D02*
X180000000Y-115785000D01*
G75*
G02*
X179850000Y-115935000I-150000J0D01*
G01*
X178200000Y-115935000D01*
G75*
G02*
X178050000Y-115785000I0J150000D01*
G01*
X178050000Y-115485000D01*
G75*
G02*
X178200000Y-115335000I150000J0D01*
G01*
X179850000Y-115335000D01*
G75*
G02*
X180000000Y-115485000I0J-150000D01*
G01*
G37*
%TD.AperFunction*%
%TO.P,U3,6*%
%TO.N,/RS485_A*%
%TA.AperFunction,SMDPad,CuDef*%
G36*
G01*
X180000000Y-114215000D02*
X180000000Y-114515000D01*
G75*
G02*
X179850000Y-114665000I-150000J0D01*
G01*
X178200000Y-114665000D01*
G75*
G02*
X178050000Y-114515000I0J150000D01*
G01*
X178050000Y-114215000D01*
G75*
G02*
X178200000Y-114065000I150000J0D01*
G01*
X179850000Y-114065000D01*
G75*
G02*
X180000000Y-114215000I0J-150000D01*
G01*
G37*
%TD.AperFunction*%
%TO.P,U3,5*%
%TO.N,/GND*%
%TA.AperFunction,SMDPad,CuDef*%
G36*
G01*
X180000000Y-112945000D02*
X180000000Y-113245000D01*
G75*
G02*
X179850000Y-113395000I-150000J0D01*
G01*
X178200000Y-113395000D01*
G75*
G02*
X178050000Y-113245000I0J150000D01*
G01*
X178050000Y-112945000D01*
G75*
G02*
X178200000Y-112795000I150000J0D01*
G01*
X179850000Y-112795000D01*
G75*
G02*
X180000000Y-112945000I0J-150000D01*
G01*
G37*
%TD.AperFunction*%
%TO.P,U3,4*%
%TO.N,/TX_(in)*%
%TA.AperFunction,SMDPad,CuDef*%
G36*
G01*
X184950000Y-112945000D02*
X184950000Y-113245000D01*
G75*
G02*
X184800000Y-113395000I-150000J0D01*
G01*
X183150000Y-113395000D01*
G75*
G02*
X183000000Y-113245000I0J150000D01*
G01*
X183000000Y-112945000D01*
G75*
G02*
X183150000Y-112795000I150000J0D01*
G01*
X184800000Y-112795000D01*
G75*
G02*
X184950000Y-112945000I0J-150000D01*
G01*
G37*
%TD.AperFunction*%
%TO.P,U3,3*%
%TO.N,/Driver_ENABLE*%
%TA.AperFunction,SMDPad,CuDef*%
G36*
G01*
X184950000Y-114215000D02*
X184950000Y-114515000D01*
G75*
G02*
X184800000Y-114665000I-150000J0D01*
G01*
X183150000Y-114665000D01*
G75*
G02*
X183000000Y-114515000I0J150000D01*
G01*
X183000000Y-114215000D01*
G75*
G02*
X183150000Y-114065000I150000J0D01*
G01*
X184800000Y-114065000D01*
G75*
G02*
X184950000Y-114215000I0J-150000D01*
G01*
G37*
%TD.AperFunction*%
%TO.P,U3,2*%
%TO.N,/~Receiver_ENABLE*%
%TA.AperFunction,SMDPad,CuDef*%
G36*
G01*
X184950000Y-115485000D02*
X184950000Y-115785000D01*
G75*
G02*
X184800000Y-115935000I-150000J0D01*
G01*
X183150000Y-115935000D01*
G75*
G02*
X183000000Y-115785000I0J150000D01*
G01*
X183000000Y-115485000D01*
G75*
G02*
X183150000Y-115335000I150000J0D01*
G01*
X184800000Y-115335000D01*
G75*
G02*
X184950000Y-115485000I0J-150000D01*
G01*
G37*
%TD.AperFunction*%
%TO.P,U3,1*%
%TO.N,/RX_(out)*%
%TA.AperFunction,SMDPad,CuDef*%
G36*
G01*
X184950000Y-116755000D02*
X184950000Y-117055000D01*
G75*
G02*
X184800000Y-117205000I-150000J0D01*
G01*
X183150000Y-117205000D01*
G75*
G02*
X183000000Y-117055000I0J150000D01*
G01*
X183000000Y-116755000D01*
G75*
G02*
X183150000Y-116605000I150000J0D01*
G01*
X184800000Y-116605000D01*
G75*
G02*
X184950000Y-116755000I0J-150000D01*
G01*
G37*
%TD.AperFunction*%
%TD*%
%TO.P,R19,2*%
%TO.N,Net-(JP14-Pad1)*%
%TA.AperFunction,SMDPad,CuDef*%
G36*
G01*
X175756250Y-116650000D02*
X175243750Y-116650000D01*
G75*
G02*
X175025000Y-116431250I0J218750D01*
G01*
X175025000Y-115993750D01*
G75*
G02*
X175243750Y-115775000I218750J0D01*
G01*
X175756250Y-115775000D01*
G75*
G02*
X175975000Y-115993750I0J-218750D01*
G01*
X175975000Y-116431250D01*
G75*
G02*
X175756250Y-116650000I-218750J0D01*
G01*
G37*
%TD.AperFunction*%
%TO.P,R19,1*%
%TO.N,/RS485_B*%
%TA.AperFunction,SMDPad,CuDef*%
G36*
G01*
X175756250Y-118225000D02*
X175243750Y-118225000D01*
G75*
G02*
X175025000Y-118006250I0J218750D01*
G01*
X175025000Y-117568750D01*
G75*
G02*
X175243750Y-117350000I218750J0D01*
G01*
X175756250Y-117350000D01*
G75*
G02*
X175975000Y-117568750I0J-218750D01*
G01*
X175975000Y-118006250D01*
G75*
G02*
X175756250Y-118225000I-218750J0D01*
G01*
G37*
%TD.AperFunction*%
%TD*%
%TA.AperFunction,SMDPad,CuDef*%
D10*
%TO.P,JP14,2*%
%TO.N,/RS485_A*%
G36*
X174750602Y-112350000D02*
G01*
X174750602Y-112325466D01*
X174755412Y-112276635D01*
X174764984Y-112228510D01*
X174779228Y-112181555D01*
X174798005Y-112136222D01*
X174821136Y-112092949D01*
X174848396Y-112052150D01*
X174879524Y-112014221D01*
X174914221Y-111979524D01*
X174952150Y-111948396D01*
X174992949Y-111921136D01*
X175036222Y-111898005D01*
X175081555Y-111879228D01*
X175128510Y-111864984D01*
X175176635Y-111855412D01*
X175225466Y-111850602D01*
X175250000Y-111850602D01*
X175250000Y-111850000D01*
X175750000Y-111850000D01*
X175750000Y-111850602D01*
X175774534Y-111850602D01*
X175823365Y-111855412D01*
X175871490Y-111864984D01*
X175918445Y-111879228D01*
X175963778Y-111898005D01*
X176007051Y-111921136D01*
X176047850Y-111948396D01*
X176085779Y-111979524D01*
X176120476Y-112014221D01*
X176151604Y-112052150D01*
X176178864Y-112092949D01*
X176201995Y-112136222D01*
X176220772Y-112181555D01*
X176235016Y-112228510D01*
X176244588Y-112276635D01*
X176249398Y-112325466D01*
X176249398Y-112350000D01*
X176250000Y-112350000D01*
X176250000Y-112850000D01*
X174750000Y-112850000D01*
X174750000Y-112350000D01*
X174750602Y-112350000D01*
G37*
%TD.AperFunction*%
%TA.AperFunction,SMDPad,CuDef*%
%TO.P,JP14,1*%
%TO.N,Net-(JP14-Pad1)*%
G36*
X176250000Y-113150000D02*
G01*
X176250000Y-113650000D01*
X176249398Y-113650000D01*
X176249398Y-113674534D01*
X176244588Y-113723365D01*
X176235016Y-113771490D01*
X176220772Y-113818445D01*
X176201995Y-113863778D01*
X176178864Y-113907051D01*
X176151604Y-113947850D01*
X176120476Y-113985779D01*
X176085779Y-114020476D01*
X176047850Y-114051604D01*
X176007051Y-114078864D01*
X175963778Y-114101995D01*
X175918445Y-114120772D01*
X175871490Y-114135016D01*
X175823365Y-114144588D01*
X175774534Y-114149398D01*
X175750000Y-114149398D01*
X175750000Y-114150000D01*
X175250000Y-114150000D01*
X175250000Y-114149398D01*
X175225466Y-114149398D01*
X175176635Y-114144588D01*
X175128510Y-114135016D01*
X175081555Y-114120772D01*
X175036222Y-114101995D01*
X174992949Y-114078864D01*
X174952150Y-114051604D01*
X174914221Y-114020476D01*
X174879524Y-113985779D01*
X174848396Y-113947850D01*
X174821136Y-113907051D01*
X174798005Y-113863778D01*
X174779228Y-113818445D01*
X174764984Y-113771490D01*
X174755412Y-113723365D01*
X174750602Y-113674534D01*
X174750602Y-113650000D01*
X174750000Y-113650000D01*
X174750000Y-113150000D01*
X176250000Y-113150000D01*
G37*
%TD.AperFunction*%
%TD*%
%TA.AperFunction,SMDPad,CuDef*%
%TO.P,JP8,2*%
%TO.N,/Driver_ENABLE*%
G36*
X186250602Y-114350000D02*
G01*
X186250602Y-114325466D01*
X186255412Y-114276635D01*
X186264984Y-114228510D01*
X186279228Y-114181555D01*
X186298005Y-114136222D01*
X186321136Y-114092949D01*
X186348396Y-114052150D01*
X186379524Y-114014221D01*
X186414221Y-113979524D01*
X186452150Y-113948396D01*
X186492949Y-113921136D01*
X186536222Y-113898005D01*
X186581555Y-113879228D01*
X186628510Y-113864984D01*
X186676635Y-113855412D01*
X186725466Y-113850602D01*
X186750000Y-113850602D01*
X186750000Y-113850000D01*
X187250000Y-113850000D01*
X187250000Y-113850602D01*
X187274534Y-113850602D01*
X187323365Y-113855412D01*
X187371490Y-113864984D01*
X187418445Y-113879228D01*
X187463778Y-113898005D01*
X187507051Y-113921136D01*
X187547850Y-113948396D01*
X187585779Y-113979524D01*
X187620476Y-114014221D01*
X187651604Y-114052150D01*
X187678864Y-114092949D01*
X187701995Y-114136222D01*
X187720772Y-114181555D01*
X187735016Y-114228510D01*
X187744588Y-114276635D01*
X187749398Y-114325466D01*
X187749398Y-114350000D01*
X187750000Y-114350000D01*
X187750000Y-114850000D01*
X186250000Y-114850000D01*
X186250000Y-114350000D01*
X186250602Y-114350000D01*
G37*
%TD.AperFunction*%
%TA.AperFunction,SMDPad,CuDef*%
%TO.P,JP8,1*%
%TO.N,/~Receiver_ENABLE*%
G36*
X187750000Y-115150000D02*
G01*
X187750000Y-115650000D01*
X187749398Y-115650000D01*
X187749398Y-115674534D01*
X187744588Y-115723365D01*
X187735016Y-115771490D01*
X187720772Y-115818445D01*
X187701995Y-115863778D01*
X187678864Y-115907051D01*
X187651604Y-115947850D01*
X187620476Y-115985779D01*
X187585779Y-116020476D01*
X187547850Y-116051604D01*
X187507051Y-116078864D01*
X187463778Y-116101995D01*
X187418445Y-116120772D01*
X187371490Y-116135016D01*
X187323365Y-116144588D01*
X187274534Y-116149398D01*
X187250000Y-116149398D01*
X187250000Y-116150000D01*
X186750000Y-116150000D01*
X186750000Y-116149398D01*
X186725466Y-116149398D01*
X186676635Y-116144588D01*
X186628510Y-116135016D01*
X186581555Y-116120772D01*
X186536222Y-116101995D01*
X186492949Y-116078864D01*
X186452150Y-116051604D01*
X186414221Y-116020476D01*
X186379524Y-115985779D01*
X186348396Y-115947850D01*
X186321136Y-115907051D01*
X186298005Y-115863778D01*
X186279228Y-115818445D01*
X186264984Y-115771490D01*
X186255412Y-115723365D01*
X186250602Y-115674534D01*
X186250602Y-115650000D01*
X186250000Y-115650000D01*
X186250000Y-115150000D01*
X187750000Y-115150000D01*
G37*
%TD.AperFunction*%
%TD*%
D11*
%TO.P,J2,6*%
%TO.N,/VDD*%
X194200000Y-121350000D03*
%TO.P,J2,5*%
%TO.N,/RX_(out)*%
X194200000Y-118810000D03*
%TO.P,J2,4*%
%TO.N,/~Receiver_ENABLE*%
X194200000Y-116270000D03*
%TO.P,J2,3*%
%TO.N,/Driver_ENABLE*%
X194200000Y-113730000D03*
%TO.P,J2,2*%
%TO.N,/TX_(in)*%
X194200000Y-111190000D03*
D12*
%TO.P,J2,1*%
%TO.N,/GND*%
X194200000Y-108650000D03*
%TD*%
D13*
%TO.P,J1,2*%
%TO.N,/RS485_B*%
X169000000Y-117500000D03*
D14*
%TO.P,J1,1*%
%TO.N,/RS485_A*%
X169000000Y-112500000D03*
%TD*%
%TO.P,C17,2*%
%TO.N,/VDD*%
%TA.AperFunction,SMDPad,CuDef*%
G36*
G01*
X179245000Y-118553750D02*
X179245000Y-119066250D01*
G75*
G02*
X179026250Y-119285000I-218750J0D01*
G01*
X178588750Y-119285000D01*
G75*
G02*
X178370000Y-119066250I0J218750D01*
G01*
X178370000Y-118553750D01*
G75*
G02*
X178588750Y-118335000I218750J0D01*
G01*
X179026250Y-118335000D01*
G75*
G02*
X179245000Y-118553750I0J-218750D01*
G01*
G37*
%TD.AperFunction*%
%TO.P,C17,1*%
%TO.N,/GND*%
%TA.AperFunction,SMDPad,CuDef*%
G36*
G01*
X180820000Y-118553750D02*
X180820000Y-119066250D01*
G75*
G02*
X180601250Y-119285000I-218750J0D01*
G01*
X180163750Y-119285000D01*
G75*
G02*
X179945000Y-119066250I0J218750D01*
G01*
X179945000Y-118553750D01*
G75*
G02*
X180163750Y-118335000I218750J0D01*
G01*
X180601250Y-118335000D01*
G75*
G02*
X180820000Y-118553750I0J-218750D01*
G01*
G37*
%TD.AperFunction*%
%TD*%
D15*
%TO.N,/VDD*%
X191025000Y-121350000D02*
X179550000Y-121350000D01*
X178807500Y-120607500D02*
X178807500Y-118810000D01*
X179550000Y-121350000D02*
X178807500Y-120607500D01*
X178807500Y-117122500D02*
X179025000Y-116905000D01*
X178807500Y-118810000D02*
X178807500Y-117122500D01*
%TO.N,/RS485_B*%
X175212500Y-117500000D02*
X175500000Y-117787500D01*
X169000000Y-117500000D02*
X175212500Y-117500000D01*
X175500000Y-117787500D02*
X176812500Y-117787500D01*
X176812500Y-117787500D02*
X177200000Y-117400000D01*
X177200000Y-117400000D02*
X177200000Y-116100000D01*
X177665000Y-115635000D02*
X179025000Y-115635000D01*
X177200000Y-116100000D02*
X177665000Y-115635000D01*
%TO.N,/RS485_A*%
X175350000Y-112500000D02*
X175500000Y-112350000D01*
X169000000Y-112500000D02*
X175350000Y-112500000D01*
X175500000Y-112350000D02*
X176750000Y-112350000D01*
X176750000Y-112350000D02*
X177200000Y-112800000D01*
X177200000Y-112800000D02*
X177200000Y-113900000D01*
X177665000Y-114365000D02*
X179025000Y-114365000D01*
X177200000Y-113900000D02*
X177665000Y-114365000D01*
%TO.N,/Driver_ENABLE*%
X186985000Y-114365000D02*
X187000000Y-114350000D01*
X183975000Y-114365000D02*
X186985000Y-114365000D01*
X187000000Y-114350000D02*
X188550000Y-114350000D01*
X189170000Y-113730000D02*
X191025000Y-113730000D01*
X188550000Y-114350000D02*
X189170000Y-113730000D01*
X191025000Y-113730000D02*
X194200000Y-113730000D01*
%TO.N,/~Receiver_ENABLE*%
X186985000Y-115635000D02*
X187000000Y-115650000D01*
X183975000Y-115635000D02*
X186985000Y-115635000D01*
X187000000Y-115650000D02*
X188550000Y-115650000D01*
X189170000Y-116270000D02*
X191025000Y-116270000D01*
X188550000Y-115650000D02*
X189170000Y-116270000D01*
X191025000Y-116270000D02*
X194200000Y-116270000D01*
%TO.N,/RX_(out)*%
X183975000Y-116905000D02*
X185605000Y-116905000D01*
X187510000Y-118810000D02*
X191025000Y-118810000D01*
X185605000Y-116905000D02*
X187510000Y-118810000D01*
X191025000Y-118810000D02*
X194200000Y-118810000D01*
%TO.N,/TX_(in)*%
X194200000Y-111190000D02*
X187610000Y-111190000D01*
X185705000Y-113095000D02*
X183975000Y-113095000D01*
X187610000Y-111190000D02*
X185705000Y-113095000D01*
%TO.N,Net-(JP14-Pad1)*%
X175500000Y-113650000D02*
X175500000Y-116212500D01*
%TD*%
D16*
%TO.N,/GND*%
G36*
X204840000Y-123340000D02*
G01*
X164160000Y-123340000D01*
X164160000Y-111200000D01*
X167061928Y-111200000D01*
X167061928Y-113800000D01*
X167074188Y-113924482D01*
X167110498Y-114044180D01*
X167169463Y-114154494D01*
X167248815Y-114251185D01*
X167345506Y-114330537D01*
X167455820Y-114389502D01*
X167575518Y-114425812D01*
X167700000Y-114438072D01*
X170300000Y-114438072D01*
X170424482Y-114425812D01*
X170544180Y-114389502D01*
X170654494Y-114330537D01*
X170751185Y-114251185D01*
X170830537Y-114154494D01*
X170889502Y-114044180D01*
X170925812Y-113924482D01*
X170938072Y-113800000D01*
X170938072Y-113260000D01*
X174111928Y-113260000D01*
X174111928Y-113650000D01*
X174114336Y-113674450D01*
X174114336Y-113699009D01*
X174126596Y-113823490D01*
X174145718Y-113919623D01*
X174182027Y-114039319D01*
X174219536Y-114129875D01*
X174278502Y-114240192D01*
X174332958Y-114321691D01*
X174412310Y-114418382D01*
X174481618Y-114487690D01*
X174578309Y-114567042D01*
X174659808Y-114621498D01*
X174740000Y-114664362D01*
X174740001Y-115304082D01*
X174637885Y-115387885D01*
X174531329Y-115517725D01*
X174452150Y-115665858D01*
X174403392Y-115826592D01*
X174386928Y-115993750D01*
X174386928Y-116431250D01*
X174403392Y-116598408D01*
X174446343Y-116740000D01*
X170779627Y-116740000D01*
X170714775Y-116583434D01*
X170503013Y-116266509D01*
X170233491Y-115996987D01*
X169916566Y-115785225D01*
X169564419Y-115639361D01*
X169190581Y-115565000D01*
X168809419Y-115565000D01*
X168435581Y-115639361D01*
X168083434Y-115785225D01*
X167766509Y-115996987D01*
X167496987Y-116266509D01*
X167285225Y-116583434D01*
X167139361Y-116935581D01*
X167065000Y-117309419D01*
X167065000Y-117690581D01*
X167139361Y-118064419D01*
X167285225Y-118416566D01*
X167496987Y-118733491D01*
X167766509Y-119003013D01*
X168083434Y-119214775D01*
X168435581Y-119360639D01*
X168809419Y-119435000D01*
X169190581Y-119435000D01*
X169564419Y-119360639D01*
X169916566Y-119214775D01*
X170233491Y-119003013D01*
X170503013Y-118733491D01*
X170714775Y-118416566D01*
X170779627Y-118260000D01*
X174429659Y-118260000D01*
X174452150Y-118334142D01*
X174531329Y-118482275D01*
X174637885Y-118612115D01*
X174767725Y-118718671D01*
X174915858Y-118797850D01*
X175076592Y-118846608D01*
X175243750Y-118863072D01*
X175756250Y-118863072D01*
X175923408Y-118846608D01*
X176084142Y-118797850D01*
X176232275Y-118718671D01*
X176362115Y-118612115D01*
X176415143Y-118547500D01*
X176775178Y-118547500D01*
X176812500Y-118551176D01*
X176849822Y-118547500D01*
X176849833Y-118547500D01*
X176961486Y-118536503D01*
X177104747Y-118493046D01*
X177236776Y-118422474D01*
X177352501Y-118327501D01*
X177376304Y-118298497D01*
X177710998Y-117963803D01*
X177740001Y-117940001D01*
X177834974Y-117824276D01*
X177866198Y-117765862D01*
X177898418Y-117783084D01*
X178046255Y-117827929D01*
X178047501Y-117828052D01*
X178047501Y-117894857D01*
X177982885Y-117947885D01*
X177876329Y-118077725D01*
X177797150Y-118225858D01*
X177748392Y-118386592D01*
X177731928Y-118553750D01*
X177731928Y-119066250D01*
X177748392Y-119233408D01*
X177797150Y-119394142D01*
X177876329Y-119542275D01*
X177982885Y-119672115D01*
X178047500Y-119725143D01*
X178047500Y-120570177D01*
X178043824Y-120607500D01*
X178047500Y-120644822D01*
X178047500Y-120644832D01*
X178058497Y-120756485D01*
X178101954Y-120899746D01*
X178172526Y-121031776D01*
X178193845Y-121057753D01*
X178267499Y-121147501D01*
X178296502Y-121171303D01*
X178986201Y-121861002D01*
X179009999Y-121890001D01*
X179038997Y-121913799D01*
X179125724Y-121984974D01*
X179257753Y-122055546D01*
X179401014Y-122099003D01*
X179550000Y-122113677D01*
X179587333Y-122110000D01*
X191062333Y-122110000D01*
X191173986Y-122099003D01*
X191317247Y-122055546D01*
X191449276Y-121984974D01*
X191565001Y-121890001D01*
X191659974Y-121774276D01*
X191730546Y-121642247D01*
X191774003Y-121498986D01*
X191788677Y-121350000D01*
X191774003Y-121201014D01*
X191730546Y-121057753D01*
X191659974Y-120925724D01*
X191565001Y-120809999D01*
X191449276Y-120715026D01*
X191317247Y-120644454D01*
X191173986Y-120600997D01*
X191062333Y-120590000D01*
X179864802Y-120590000D01*
X179567500Y-120292699D01*
X179567500Y-119796657D01*
X179590506Y-119815537D01*
X179700820Y-119874502D01*
X179820518Y-119910812D01*
X179945000Y-119923072D01*
X180096750Y-119920000D01*
X180255500Y-119761250D01*
X180255500Y-118937000D01*
X180509500Y-118937000D01*
X180509500Y-119761250D01*
X180668250Y-119920000D01*
X180820000Y-119923072D01*
X180944482Y-119910812D01*
X181064180Y-119874502D01*
X181174494Y-119815537D01*
X181271185Y-119736185D01*
X181350537Y-119639494D01*
X181409502Y-119529180D01*
X181445812Y-119409482D01*
X181458072Y-119285000D01*
X181455000Y-119095750D01*
X181296250Y-118937000D01*
X180509500Y-118937000D01*
X180255500Y-118937000D01*
X180235500Y-118937000D01*
X180235500Y-118683000D01*
X180255500Y-118683000D01*
X180255500Y-117858750D01*
X180509500Y-117858750D01*
X180509500Y-118683000D01*
X181296250Y-118683000D01*
X181455000Y-118524250D01*
X181458072Y-118335000D01*
X181445812Y-118210518D01*
X181409502Y-118090820D01*
X181350537Y-117980506D01*
X181271185Y-117883815D01*
X181174494Y-117804463D01*
X181064180Y-117745498D01*
X180944482Y-117709188D01*
X180820000Y-117696928D01*
X180668250Y-117700000D01*
X180509500Y-117858750D01*
X180255500Y-117858750D01*
X180169993Y-117773243D01*
X180287829Y-117710258D01*
X180407251Y-117612251D01*
X180505258Y-117492829D01*
X180578084Y-117356582D01*
X180622929Y-117208745D01*
X180638072Y-117055000D01*
X180638072Y-116755000D01*
X180622929Y-116601255D01*
X180578084Y-116453418D01*
X180505258Y-116317171D01*
X180466546Y-116270000D01*
X180505258Y-116222829D01*
X180578084Y-116086582D01*
X180622929Y-115938745D01*
X180638072Y-115785000D01*
X180638072Y-115485000D01*
X180622929Y-115331255D01*
X180578084Y-115183418D01*
X180505258Y-115047171D01*
X180466546Y-115000000D01*
X180505258Y-114952829D01*
X180578084Y-114816582D01*
X180622929Y-114668745D01*
X180638072Y-114515000D01*
X180638072Y-114215000D01*
X180622929Y-114061255D01*
X180578084Y-113913418D01*
X180506270Y-113779064D01*
X180530537Y-113749494D01*
X180589502Y-113639180D01*
X180625812Y-113519482D01*
X180638072Y-113395000D01*
X180635000Y-113380750D01*
X180476250Y-113222000D01*
X179152000Y-113222000D01*
X179152000Y-113242000D01*
X178898000Y-113242000D01*
X178898000Y-113222000D01*
X178878000Y-113222000D01*
X178878000Y-112968000D01*
X178898000Y-112968000D01*
X178898000Y-112318750D01*
X179152000Y-112318750D01*
X179152000Y-112968000D01*
X180476250Y-112968000D01*
X180499250Y-112945000D01*
X182361928Y-112945000D01*
X182361928Y-113245000D01*
X182377071Y-113398745D01*
X182421916Y-113546582D01*
X182494742Y-113682829D01*
X182533454Y-113730000D01*
X182494742Y-113777171D01*
X182421916Y-113913418D01*
X182377071Y-114061255D01*
X182361928Y-114215000D01*
X182361928Y-114515000D01*
X182377071Y-114668745D01*
X182421916Y-114816582D01*
X182494742Y-114952829D01*
X182533454Y-115000000D01*
X182494742Y-115047171D01*
X182421916Y-115183418D01*
X182377071Y-115331255D01*
X182361928Y-115485000D01*
X182361928Y-115785000D01*
X182377071Y-115938745D01*
X182421916Y-116086582D01*
X182494742Y-116222829D01*
X182533454Y-116270000D01*
X182494742Y-116317171D01*
X182421916Y-116453418D01*
X182377071Y-116601255D01*
X182361928Y-116755000D01*
X182361928Y-117055000D01*
X182377071Y-117208745D01*
X182421916Y-117356582D01*
X182494742Y-117492829D01*
X182592749Y-117612251D01*
X182712171Y-117710258D01*
X182848418Y-117783084D01*
X182996255Y-117827929D01*
X183150000Y-117843072D01*
X184800000Y-117843072D01*
X184953745Y-117827929D01*
X185101582Y-117783084D01*
X185237829Y-117710258D01*
X185291451Y-117666252D01*
X186946201Y-119321003D01*
X186969999Y-119350001D01*
X187085724Y-119444974D01*
X187217753Y-119515546D01*
X187361014Y-119559003D01*
X187472667Y-119570000D01*
X187472677Y-119570000D01*
X187510000Y-119573676D01*
X187547323Y-119570000D01*
X192921822Y-119570000D01*
X193046525Y-119756632D01*
X193253368Y-119963475D01*
X193427760Y-120080000D01*
X193253368Y-120196525D01*
X193046525Y-120403368D01*
X192884010Y-120646589D01*
X192772068Y-120916842D01*
X192715000Y-121203740D01*
X192715000Y-121496260D01*
X192772068Y-121783158D01*
X192884010Y-122053411D01*
X193046525Y-122296632D01*
X193253368Y-122503475D01*
X193496589Y-122665990D01*
X193766842Y-122777932D01*
X194053740Y-122835000D01*
X194346260Y-122835000D01*
X194633158Y-122777932D01*
X194903411Y-122665990D01*
X195146632Y-122503475D01*
X195353475Y-122296632D01*
X195515990Y-122053411D01*
X195627932Y-121783158D01*
X195685000Y-121496260D01*
X195685000Y-121203740D01*
X195627932Y-120916842D01*
X195515990Y-120646589D01*
X195353475Y-120403368D01*
X195146632Y-120196525D01*
X194972240Y-120080000D01*
X195146632Y-119963475D01*
X195353475Y-119756632D01*
X195515990Y-119513411D01*
X195627932Y-119243158D01*
X195685000Y-118956260D01*
X195685000Y-118663740D01*
X195627932Y-118376842D01*
X195515990Y-118106589D01*
X195353475Y-117863368D01*
X195146632Y-117656525D01*
X194972240Y-117540000D01*
X195146632Y-117423475D01*
X195353475Y-117216632D01*
X195515990Y-116973411D01*
X195627932Y-116703158D01*
X195685000Y-116416260D01*
X195685000Y-116123740D01*
X195627932Y-115836842D01*
X195515990Y-115566589D01*
X195353475Y-115323368D01*
X195146632Y-115116525D01*
X194972240Y-115000000D01*
X195146632Y-114883475D01*
X195353475Y-114676632D01*
X195515990Y-114433411D01*
X195627932Y-114163158D01*
X195685000Y-113876260D01*
X195685000Y-113583740D01*
X195627932Y-113296842D01*
X195515990Y-113026589D01*
X195353475Y-112783368D01*
X195146632Y-112576525D01*
X194972240Y-112460000D01*
X195146632Y-112343475D01*
X195353475Y-112136632D01*
X195515990Y-111893411D01*
X195627932Y-111623158D01*
X195685000Y-111336260D01*
X195685000Y-111043740D01*
X195627932Y-110756842D01*
X195515990Y-110486589D01*
X195353475Y-110243368D01*
X195221620Y-110111513D01*
X195294180Y-110089502D01*
X195404494Y-110030537D01*
X195501185Y-109951185D01*
X195580537Y-109854494D01*
X195639502Y-109744180D01*
X195675812Y-109624482D01*
X195688072Y-109500000D01*
X195685000Y-108935750D01*
X195526250Y-108777000D01*
X194327000Y-108777000D01*
X194327000Y-108797000D01*
X194073000Y-108797000D01*
X194073000Y-108777000D01*
X192873750Y-108777000D01*
X192715000Y-108935750D01*
X192711928Y-109500000D01*
X192724188Y-109624482D01*
X192760498Y-109744180D01*
X192819463Y-109854494D01*
X192898815Y-109951185D01*
X192995506Y-110030537D01*
X193105820Y-110089502D01*
X193178380Y-110111513D01*
X193046525Y-110243368D01*
X192921822Y-110430000D01*
X187647323Y-110430000D01*
X187610000Y-110426324D01*
X187572677Y-110430000D01*
X187572667Y-110430000D01*
X187461014Y-110440997D01*
X187317753Y-110484454D01*
X187185724Y-110555026D01*
X187069999Y-110649999D01*
X187046201Y-110678997D01*
X185390199Y-112335000D01*
X185292976Y-112335000D01*
X185237829Y-112289742D01*
X185101582Y-112216916D01*
X184953745Y-112172071D01*
X184800000Y-112156928D01*
X183150000Y-112156928D01*
X182996255Y-112172071D01*
X182848418Y-112216916D01*
X182712171Y-112289742D01*
X182592749Y-112387749D01*
X182494742Y-112507171D01*
X182421916Y-112643418D01*
X182377071Y-112791255D01*
X182361928Y-112945000D01*
X180499250Y-112945000D01*
X180635000Y-112809250D01*
X180638072Y-112795000D01*
X180625812Y-112670518D01*
X180589502Y-112550820D01*
X180530537Y-112440506D01*
X180451185Y-112343815D01*
X180354494Y-112264463D01*
X180244180Y-112205498D01*
X180124482Y-112169188D01*
X180000000Y-112156928D01*
X179310750Y-112160000D01*
X179152000Y-112318750D01*
X178898000Y-112318750D01*
X178739250Y-112160000D01*
X178050000Y-112156928D01*
X177925518Y-112169188D01*
X177805820Y-112205498D01*
X177725745Y-112248300D01*
X177710998Y-112236197D01*
X177313804Y-111839003D01*
X177290001Y-111809999D01*
X177174276Y-111715026D01*
X177042247Y-111644454D01*
X176898986Y-111600997D01*
X176787333Y-111590000D01*
X176787322Y-111590000D01*
X176750000Y-111586324D01*
X176712678Y-111590000D01*
X176594569Y-111590000D01*
X176587690Y-111581618D01*
X176518382Y-111512310D01*
X176421691Y-111432958D01*
X176340192Y-111378502D01*
X176229875Y-111319536D01*
X176139319Y-111282027D01*
X176019623Y-111245718D01*
X175923490Y-111226596D01*
X175799009Y-111214336D01*
X175774450Y-111214336D01*
X175750000Y-111211928D01*
X175250000Y-111211928D01*
X175225550Y-111214336D01*
X175200991Y-111214336D01*
X175076510Y-111226596D01*
X174980377Y-111245718D01*
X174860681Y-111282027D01*
X174770125Y-111319536D01*
X174659808Y-111378502D01*
X174578309Y-111432958D01*
X174481618Y-111512310D01*
X174412310Y-111581618D01*
X174332958Y-111678309D01*
X174291737Y-111740000D01*
X170938072Y-111740000D01*
X170938072Y-111200000D01*
X170925812Y-111075518D01*
X170889502Y-110955820D01*
X170830537Y-110845506D01*
X170751185Y-110748815D01*
X170654494Y-110669463D01*
X170544180Y-110610498D01*
X170424482Y-110574188D01*
X170300000Y-110561928D01*
X167700000Y-110561928D01*
X167575518Y-110574188D01*
X167455820Y-110610498D01*
X167345506Y-110669463D01*
X167248815Y-110748815D01*
X167169463Y-110845506D01*
X167110498Y-110955820D01*
X167074188Y-111075518D01*
X167061928Y-111200000D01*
X164160000Y-111200000D01*
X164160000Y-107800000D01*
X192711928Y-107800000D01*
X192715000Y-108364250D01*
X192873750Y-108523000D01*
X194073000Y-108523000D01*
X194073000Y-107323750D01*
X194327000Y-107323750D01*
X194327000Y-108523000D01*
X195526250Y-108523000D01*
X195685000Y-108364250D01*
X195688072Y-107800000D01*
X195675812Y-107675518D01*
X195639502Y-107555820D01*
X195580537Y-107445506D01*
X195501185Y-107348815D01*
X195404494Y-107269463D01*
X195294180Y-107210498D01*
X195174482Y-107174188D01*
X195050000Y-107161928D01*
X194485750Y-107165000D01*
X194327000Y-107323750D01*
X194073000Y-107323750D01*
X193914250Y-107165000D01*
X193350000Y-107161928D01*
X193225518Y-107174188D01*
X193105820Y-107210498D01*
X192995506Y-107269463D01*
X192898815Y-107348815D01*
X192819463Y-107445506D01*
X192760498Y-107555820D01*
X192724188Y-107675518D01*
X192711928Y-107800000D01*
X164160000Y-107800000D01*
X164160000Y-106660000D01*
X204840001Y-106660000D01*
X204840000Y-123340000D01*
G37*
X204840000Y-123340000D02*
X164160000Y-123340000D01*
X164160000Y-111200000D01*
X167061928Y-111200000D01*
X167061928Y-113800000D01*
X167074188Y-113924482D01*
X167110498Y-114044180D01*
X167169463Y-114154494D01*
X167248815Y-114251185D01*
X167345506Y-114330537D01*
X167455820Y-114389502D01*
X167575518Y-114425812D01*
X167700000Y-114438072D01*
X170300000Y-114438072D01*
X170424482Y-114425812D01*
X170544180Y-114389502D01*
X170654494Y-114330537D01*
X170751185Y-114251185D01*
X170830537Y-114154494D01*
X170889502Y-114044180D01*
X170925812Y-113924482D01*
X170938072Y-113800000D01*
X170938072Y-113260000D01*
X174111928Y-113260000D01*
X174111928Y-113650000D01*
X174114336Y-113674450D01*
X174114336Y-113699009D01*
X174126596Y-113823490D01*
X174145718Y-113919623D01*
X174182027Y-114039319D01*
X174219536Y-114129875D01*
X174278502Y-114240192D01*
X174332958Y-114321691D01*
X174412310Y-114418382D01*
X174481618Y-114487690D01*
X174578309Y-114567042D01*
X174659808Y-114621498D01*
X174740000Y-114664362D01*
X174740001Y-115304082D01*
X174637885Y-115387885D01*
X174531329Y-115517725D01*
X174452150Y-115665858D01*
X174403392Y-115826592D01*
X174386928Y-115993750D01*
X174386928Y-116431250D01*
X174403392Y-116598408D01*
X174446343Y-116740000D01*
X170779627Y-116740000D01*
X170714775Y-116583434D01*
X170503013Y-116266509D01*
X170233491Y-115996987D01*
X169916566Y-115785225D01*
X169564419Y-115639361D01*
X169190581Y-115565000D01*
X168809419Y-115565000D01*
X168435581Y-115639361D01*
X168083434Y-115785225D01*
X167766509Y-115996987D01*
X167496987Y-116266509D01*
X167285225Y-116583434D01*
X167139361Y-116935581D01*
X167065000Y-117309419D01*
X167065000Y-117690581D01*
X167139361Y-118064419D01*
X167285225Y-118416566D01*
X167496987Y-118733491D01*
X167766509Y-119003013D01*
X168083434Y-119214775D01*
X168435581Y-119360639D01*
X168809419Y-119435000D01*
X169190581Y-119435000D01*
X169564419Y-119360639D01*
X169916566Y-119214775D01*
X170233491Y-119003013D01*
X170503013Y-118733491D01*
X170714775Y-118416566D01*
X170779627Y-118260000D01*
X174429659Y-118260000D01*
X174452150Y-118334142D01*
X174531329Y-118482275D01*
X174637885Y-118612115D01*
X174767725Y-118718671D01*
X174915858Y-118797850D01*
X175076592Y-118846608D01*
X175243750Y-118863072D01*
X175756250Y-118863072D01*
X175923408Y-118846608D01*
X176084142Y-118797850D01*
X176232275Y-118718671D01*
X176362115Y-118612115D01*
X176415143Y-118547500D01*
X176775178Y-118547500D01*
X176812500Y-118551176D01*
X176849822Y-118547500D01*
X176849833Y-118547500D01*
X176961486Y-118536503D01*
X177104747Y-118493046D01*
X177236776Y-118422474D01*
X177352501Y-118327501D01*
X177376304Y-118298497D01*
X177710998Y-117963803D01*
X177740001Y-117940001D01*
X177834974Y-117824276D01*
X177866198Y-117765862D01*
X177898418Y-117783084D01*
X178046255Y-117827929D01*
X178047501Y-117828052D01*
X178047501Y-117894857D01*
X177982885Y-117947885D01*
X177876329Y-118077725D01*
X177797150Y-118225858D01*
X177748392Y-118386592D01*
X177731928Y-118553750D01*
X177731928Y-119066250D01*
X177748392Y-119233408D01*
X177797150Y-119394142D01*
X177876329Y-119542275D01*
X177982885Y-119672115D01*
X178047500Y-119725143D01*
X178047500Y-120570177D01*
X178043824Y-120607500D01*
X178047500Y-120644822D01*
X178047500Y-120644832D01*
X178058497Y-120756485D01*
X178101954Y-120899746D01*
X178172526Y-121031776D01*
X178193845Y-121057753D01*
X178267499Y-121147501D01*
X178296502Y-121171303D01*
X178986201Y-121861002D01*
X179009999Y-121890001D01*
X179038997Y-121913799D01*
X179125724Y-121984974D01*
X179257753Y-122055546D01*
X179401014Y-122099003D01*
X179550000Y-122113677D01*
X179587333Y-122110000D01*
X191062333Y-122110000D01*
X191173986Y-122099003D01*
X191317247Y-122055546D01*
X191449276Y-121984974D01*
X191565001Y-121890001D01*
X191659974Y-121774276D01*
X191730546Y-121642247D01*
X191774003Y-121498986D01*
X191788677Y-121350000D01*
X191774003Y-121201014D01*
X191730546Y-121057753D01*
X191659974Y-120925724D01*
X191565001Y-120809999D01*
X191449276Y-120715026D01*
X191317247Y-120644454D01*
X191173986Y-120600997D01*
X191062333Y-120590000D01*
X179864802Y-120590000D01*
X179567500Y-120292699D01*
X179567500Y-119796657D01*
X179590506Y-119815537D01*
X179700820Y-119874502D01*
X179820518Y-119910812D01*
X179945000Y-119923072D01*
X180096750Y-119920000D01*
X180255500Y-119761250D01*
X180255500Y-118937000D01*
X180509500Y-118937000D01*
X180509500Y-119761250D01*
X180668250Y-119920000D01*
X180820000Y-119923072D01*
X180944482Y-119910812D01*
X181064180Y-119874502D01*
X181174494Y-119815537D01*
X181271185Y-119736185D01*
X181350537Y-119639494D01*
X181409502Y-119529180D01*
X181445812Y-119409482D01*
X181458072Y-119285000D01*
X181455000Y-119095750D01*
X181296250Y-118937000D01*
X180509500Y-118937000D01*
X180255500Y-118937000D01*
X180235500Y-118937000D01*
X180235500Y-118683000D01*
X180255500Y-118683000D01*
X180255500Y-117858750D01*
X180509500Y-117858750D01*
X180509500Y-118683000D01*
X181296250Y-118683000D01*
X181455000Y-118524250D01*
X181458072Y-118335000D01*
X181445812Y-118210518D01*
X181409502Y-118090820D01*
X181350537Y-117980506D01*
X181271185Y-117883815D01*
X181174494Y-117804463D01*
X181064180Y-117745498D01*
X180944482Y-117709188D01*
X180820000Y-117696928D01*
X180668250Y-117700000D01*
X180509500Y-117858750D01*
X180255500Y-117858750D01*
X180169993Y-117773243D01*
X180287829Y-117710258D01*
X180407251Y-117612251D01*
X180505258Y-117492829D01*
X180578084Y-117356582D01*
X180622929Y-117208745D01*
X180638072Y-117055000D01*
X180638072Y-116755000D01*
X180622929Y-116601255D01*
X180578084Y-116453418D01*
X180505258Y-116317171D01*
X180466546Y-116270000D01*
X180505258Y-116222829D01*
X180578084Y-116086582D01*
X180622929Y-115938745D01*
X180638072Y-115785000D01*
X180638072Y-115485000D01*
X180622929Y-115331255D01*
X180578084Y-115183418D01*
X180505258Y-115047171D01*
X180466546Y-115000000D01*
X180505258Y-114952829D01*
X180578084Y-114816582D01*
X180622929Y-114668745D01*
X180638072Y-114515000D01*
X180638072Y-114215000D01*
X180622929Y-114061255D01*
X180578084Y-113913418D01*
X180506270Y-113779064D01*
X180530537Y-113749494D01*
X180589502Y-113639180D01*
X180625812Y-113519482D01*
X180638072Y-113395000D01*
X180635000Y-113380750D01*
X180476250Y-113222000D01*
X179152000Y-113222000D01*
X179152000Y-113242000D01*
X178898000Y-113242000D01*
X178898000Y-113222000D01*
X178878000Y-113222000D01*
X178878000Y-112968000D01*
X178898000Y-112968000D01*
X178898000Y-112318750D01*
X179152000Y-112318750D01*
X179152000Y-112968000D01*
X180476250Y-112968000D01*
X180499250Y-112945000D01*
X182361928Y-112945000D01*
X182361928Y-113245000D01*
X182377071Y-113398745D01*
X182421916Y-113546582D01*
X182494742Y-113682829D01*
X182533454Y-113730000D01*
X182494742Y-113777171D01*
X182421916Y-113913418D01*
X182377071Y-114061255D01*
X182361928Y-114215000D01*
X182361928Y-114515000D01*
X182377071Y-114668745D01*
X182421916Y-114816582D01*
X182494742Y-114952829D01*
X182533454Y-115000000D01*
X182494742Y-115047171D01*
X182421916Y-115183418D01*
X182377071Y-115331255D01*
X182361928Y-115485000D01*
X182361928Y-115785000D01*
X182377071Y-115938745D01*
X182421916Y-116086582D01*
X182494742Y-116222829D01*
X182533454Y-116270000D01*
X182494742Y-116317171D01*
X182421916Y-116453418D01*
X182377071Y-116601255D01*
X182361928Y-116755000D01*
X182361928Y-117055000D01*
X182377071Y-117208745D01*
X182421916Y-117356582D01*
X182494742Y-117492829D01*
X182592749Y-117612251D01*
X182712171Y-117710258D01*
X182848418Y-117783084D01*
X182996255Y-117827929D01*
X183150000Y-117843072D01*
X184800000Y-117843072D01*
X184953745Y-117827929D01*
X185101582Y-117783084D01*
X185237829Y-117710258D01*
X185291451Y-117666252D01*
X186946201Y-119321003D01*
X186969999Y-119350001D01*
X187085724Y-119444974D01*
X187217753Y-119515546D01*
X187361014Y-119559003D01*
X187472667Y-119570000D01*
X187472677Y-119570000D01*
X187510000Y-119573676D01*
X187547323Y-119570000D01*
X192921822Y-119570000D01*
X193046525Y-119756632D01*
X193253368Y-119963475D01*
X193427760Y-120080000D01*
X193253368Y-120196525D01*
X193046525Y-120403368D01*
X192884010Y-120646589D01*
X192772068Y-120916842D01*
X192715000Y-121203740D01*
X192715000Y-121496260D01*
X192772068Y-121783158D01*
X192884010Y-122053411D01*
X193046525Y-122296632D01*
X193253368Y-122503475D01*
X193496589Y-122665990D01*
X193766842Y-122777932D01*
X194053740Y-122835000D01*
X194346260Y-122835000D01*
X194633158Y-122777932D01*
X194903411Y-122665990D01*
X195146632Y-122503475D01*
X195353475Y-122296632D01*
X195515990Y-122053411D01*
X195627932Y-121783158D01*
X195685000Y-121496260D01*
X195685000Y-121203740D01*
X195627932Y-120916842D01*
X195515990Y-120646589D01*
X195353475Y-120403368D01*
X195146632Y-120196525D01*
X194972240Y-120080000D01*
X195146632Y-119963475D01*
X195353475Y-119756632D01*
X195515990Y-119513411D01*
X195627932Y-119243158D01*
X195685000Y-118956260D01*
X195685000Y-118663740D01*
X195627932Y-118376842D01*
X195515990Y-118106589D01*
X195353475Y-117863368D01*
X195146632Y-117656525D01*
X194972240Y-117540000D01*
X195146632Y-117423475D01*
X195353475Y-117216632D01*
X195515990Y-116973411D01*
X195627932Y-116703158D01*
X195685000Y-116416260D01*
X195685000Y-116123740D01*
X195627932Y-115836842D01*
X195515990Y-115566589D01*
X195353475Y-115323368D01*
X195146632Y-115116525D01*
X194972240Y-115000000D01*
X195146632Y-114883475D01*
X195353475Y-114676632D01*
X195515990Y-114433411D01*
X195627932Y-114163158D01*
X195685000Y-113876260D01*
X195685000Y-113583740D01*
X195627932Y-113296842D01*
X195515990Y-113026589D01*
X195353475Y-112783368D01*
X195146632Y-112576525D01*
X194972240Y-112460000D01*
X195146632Y-112343475D01*
X195353475Y-112136632D01*
X195515990Y-111893411D01*
X195627932Y-111623158D01*
X195685000Y-111336260D01*
X195685000Y-111043740D01*
X195627932Y-110756842D01*
X195515990Y-110486589D01*
X195353475Y-110243368D01*
X195221620Y-110111513D01*
X195294180Y-110089502D01*
X195404494Y-110030537D01*
X195501185Y-109951185D01*
X195580537Y-109854494D01*
X195639502Y-109744180D01*
X195675812Y-109624482D01*
X195688072Y-109500000D01*
X195685000Y-108935750D01*
X195526250Y-108777000D01*
X194327000Y-108777000D01*
X194327000Y-108797000D01*
X194073000Y-108797000D01*
X194073000Y-108777000D01*
X192873750Y-108777000D01*
X192715000Y-108935750D01*
X192711928Y-109500000D01*
X192724188Y-109624482D01*
X192760498Y-109744180D01*
X192819463Y-109854494D01*
X192898815Y-109951185D01*
X192995506Y-110030537D01*
X193105820Y-110089502D01*
X193178380Y-110111513D01*
X193046525Y-110243368D01*
X192921822Y-110430000D01*
X187647323Y-110430000D01*
X187610000Y-110426324D01*
X187572677Y-110430000D01*
X187572667Y-110430000D01*
X187461014Y-110440997D01*
X187317753Y-110484454D01*
X187185724Y-110555026D01*
X187069999Y-110649999D01*
X187046201Y-110678997D01*
X185390199Y-112335000D01*
X185292976Y-112335000D01*
X185237829Y-112289742D01*
X185101582Y-112216916D01*
X184953745Y-112172071D01*
X184800000Y-112156928D01*
X183150000Y-112156928D01*
X182996255Y-112172071D01*
X182848418Y-112216916D01*
X182712171Y-112289742D01*
X182592749Y-112387749D01*
X182494742Y-112507171D01*
X182421916Y-112643418D01*
X182377071Y-112791255D01*
X182361928Y-112945000D01*
X180499250Y-112945000D01*
X180635000Y-112809250D01*
X180638072Y-112795000D01*
X180625812Y-112670518D01*
X180589502Y-112550820D01*
X180530537Y-112440506D01*
X180451185Y-112343815D01*
X180354494Y-112264463D01*
X180244180Y-112205498D01*
X180124482Y-112169188D01*
X180000000Y-112156928D01*
X179310750Y-112160000D01*
X179152000Y-112318750D01*
X178898000Y-112318750D01*
X178739250Y-112160000D01*
X178050000Y-112156928D01*
X177925518Y-112169188D01*
X177805820Y-112205498D01*
X177725745Y-112248300D01*
X177710998Y-112236197D01*
X177313804Y-111839003D01*
X177290001Y-111809999D01*
X177174276Y-111715026D01*
X177042247Y-111644454D01*
X176898986Y-111600997D01*
X176787333Y-111590000D01*
X176787322Y-111590000D01*
X176750000Y-111586324D01*
X176712678Y-111590000D01*
X176594569Y-111590000D01*
X176587690Y-111581618D01*
X176518382Y-111512310D01*
X176421691Y-111432958D01*
X176340192Y-111378502D01*
X176229875Y-111319536D01*
X176139319Y-111282027D01*
X176019623Y-111245718D01*
X175923490Y-111226596D01*
X175799009Y-111214336D01*
X175774450Y-111214336D01*
X175750000Y-111211928D01*
X175250000Y-111211928D01*
X175225550Y-111214336D01*
X175200991Y-111214336D01*
X175076510Y-111226596D01*
X174980377Y-111245718D01*
X174860681Y-111282027D01*
X174770125Y-111319536D01*
X174659808Y-111378502D01*
X174578309Y-111432958D01*
X174481618Y-111512310D01*
X174412310Y-111581618D01*
X174332958Y-111678309D01*
X174291737Y-111740000D01*
X170938072Y-111740000D01*
X170938072Y-111200000D01*
X170925812Y-111075518D01*
X170889502Y-110955820D01*
X170830537Y-110845506D01*
X170751185Y-110748815D01*
X170654494Y-110669463D01*
X170544180Y-110610498D01*
X170424482Y-110574188D01*
X170300000Y-110561928D01*
X167700000Y-110561928D01*
X167575518Y-110574188D01*
X167455820Y-110610498D01*
X167345506Y-110669463D01*
X167248815Y-110748815D01*
X167169463Y-110845506D01*
X167110498Y-110955820D01*
X167074188Y-111075518D01*
X167061928Y-111200000D01*
X164160000Y-111200000D01*
X164160000Y-107800000D01*
X192711928Y-107800000D01*
X192715000Y-108364250D01*
X192873750Y-108523000D01*
X194073000Y-108523000D01*
X194073000Y-107323750D01*
X194327000Y-107323750D01*
X194327000Y-108523000D01*
X195526250Y-108523000D01*
X195685000Y-108364250D01*
X195688072Y-107800000D01*
X195675812Y-107675518D01*
X195639502Y-107555820D01*
X195580537Y-107445506D01*
X195501185Y-107348815D01*
X195404494Y-107269463D01*
X195294180Y-107210498D01*
X195174482Y-107174188D01*
X195050000Y-107161928D01*
X194485750Y-107165000D01*
X194327000Y-107323750D01*
X194073000Y-107323750D01*
X193914250Y-107165000D01*
X193350000Y-107161928D01*
X193225518Y-107174188D01*
X193105820Y-107210498D01*
X192995506Y-107269463D01*
X192898815Y-107348815D01*
X192819463Y-107445506D01*
X192760498Y-107555820D01*
X192724188Y-107675518D01*
X192711928Y-107800000D01*
X164160000Y-107800000D01*
X164160000Y-106660000D01*
X204840001Y-106660000D01*
X204840000Y-123340000D01*
%TD*%
M02*
