M48
; DRILL file {KiCad (5.1.6)-1} date 12/29/20 13:13:17
; FORMAT={-:-/ absolute / inch / decimal}
; #@! TF.CreationDate,2020-12-29T13:13:17+01:00
; #@! TF.GenerationSoftware,Kicad,Pcbnew,(5.1.6)-1
; #@! TF.FileFunction,Plated,1,2,PTH
FMAT,2
INCH
T1C0.0394
%
G90
G05
T1
X4.6764Y-2.8927
X4.7764Y-2.8927
X4.8764Y-2.8927
X4.9764Y-2.8927
X5.0764Y-2.8927
X5.1764Y-2.8927
X5.2764Y-2.8927
X5.3764Y-2.8927
X5.4764Y-2.8927
X5.5764Y-2.8927
X5.6764Y-2.8927
X5.7764Y-2.8927
X5.8764Y-2.8927
X5.9764Y-2.8927
X6.0764Y-2.8927
X6.1764Y-2.8927
X6.2764Y-2.8927
X6.3764Y-2.8927
X6.4764Y-2.8927
X6.5764Y-2.8927
X6.6764Y-2.8927
X6.7764Y-2.8927
X6.8764Y-2.8927
T0
M30
