%TF.GenerationSoftware,KiCad,Pcbnew,(5.1.6)-1*%
%TF.CreationDate,2020-12-29T13:13:14+01:00*%
%TF.ProjectId,powertip_lcd_adapter,706f7765-7274-4697-905f-6c63645f6164,rev?*%
%TF.SameCoordinates,Original*%
%TF.FileFunction,Legend,Top*%
%TF.FilePolarity,Positive*%
%FSLAX46Y46*%
G04 Gerber Fmt 4.6, Leading zero omitted, Abs format (unit mm)*
G04 Created by KiCad (PCBNEW (5.1.6)-1) date 2020-12-29 13:13:14*
%MOMM*%
%LPD*%
G01*
G04 APERTURE LIST*
%ADD10C,0.120000*%
%ADD11C,0.150000*%
%ADD12O,1.800000X1.800000*%
%ADD13R,1.800000X1.800000*%
%ADD14C,1.100000*%
%ADD15R,2.400000X3.200000*%
%ADD16R,0.400000X1.200000*%
G04 APERTURE END LIST*
D10*
%TO.C,LCD1*%
X119120000Y-84575000D02*
X120120000Y-84575000D01*
X120120000Y-84575000D02*
X120120000Y-79575000D01*
X120120000Y-79575000D02*
X122120000Y-79575000D01*
X122120000Y-79575000D02*
X122120000Y-78075000D01*
X122120000Y-78075000D02*
X127120000Y-78075000D01*
X127120000Y-78075000D02*
X127120000Y-76575000D01*
X171320000Y-79575000D02*
X172820000Y-79575000D01*
X172820000Y-84575000D02*
X174320000Y-84575000D01*
X172820000Y-79575000D02*
X172820000Y-84575000D01*
X171320000Y-77575000D02*
X171320000Y-79575000D01*
X166320000Y-76575000D02*
X166320000Y-77575000D01*
X166320000Y-77575000D02*
X171320000Y-77575000D01*
X119120000Y-116375000D02*
X122120000Y-116375000D01*
X122120000Y-116375000D02*
X122120000Y-111375000D01*
X122120000Y-111375000D02*
X120120000Y-111375000D01*
X120120000Y-111375000D02*
X120120000Y-108375000D01*
X120120000Y-108375000D02*
X119120000Y-108375000D01*
X171320000Y-116375000D02*
X171320000Y-111375000D01*
X174320000Y-108375000D02*
X173320000Y-108375000D01*
X173320000Y-111375000D02*
X173320000Y-108375000D01*
X173320000Y-111375000D02*
X171320000Y-111375000D01*
X171320000Y-116375000D02*
X174320000Y-116375000D01*
X119120000Y-76575000D02*
X127120000Y-76575000D01*
X119120000Y-108375000D02*
X119120000Y-116375000D01*
X119120000Y-76575000D02*
X119120000Y-84575000D01*
X166320000Y-76575000D02*
X174320000Y-76575000D01*
X174320000Y-76575000D02*
X174320000Y-84575000D01*
X174320000Y-108375000D02*
X174320000Y-116375000D01*
%TO.C,J1*%
X138670000Y-80925000D02*
X138270000Y-80925000D01*
X138470000Y-81325000D02*
X138670000Y-80925000D01*
X138270000Y-80925000D02*
X138470000Y-81325000D01*
X158045000Y-83515000D02*
X158045000Y-84115000D01*
X157935000Y-83515000D02*
X158045000Y-83515000D01*
X135395000Y-83515000D02*
X135395000Y-84115000D01*
X135505000Y-83515000D02*
X135395000Y-83515000D01*
%TO.C,LCD1*%
D11*
X145553333Y-74727380D02*
X145077142Y-74727380D01*
X145077142Y-73727380D01*
X146458095Y-74632142D02*
X146410476Y-74679761D01*
X146267619Y-74727380D01*
X146172380Y-74727380D01*
X146029523Y-74679761D01*
X145934285Y-74584523D01*
X145886666Y-74489285D01*
X145839047Y-74298809D01*
X145839047Y-74155952D01*
X145886666Y-73965476D01*
X145934285Y-73870238D01*
X146029523Y-73775000D01*
X146172380Y-73727380D01*
X146267619Y-73727380D01*
X146410476Y-73775000D01*
X146458095Y-73822619D01*
X146886666Y-74727380D02*
X146886666Y-73727380D01*
X147124761Y-73727380D01*
X147267619Y-73775000D01*
X147362857Y-73870238D01*
X147410476Y-73965476D01*
X147458095Y-74155952D01*
X147458095Y-74298809D01*
X147410476Y-74489285D01*
X147362857Y-74584523D01*
X147267619Y-74679761D01*
X147124761Y-74727380D01*
X146886666Y-74727380D01*
X148410476Y-74727380D02*
X147839047Y-74727380D01*
X148124761Y-74727380D02*
X148124761Y-73727380D01*
X148029523Y-73870238D01*
X147934285Y-73965476D01*
X147839047Y-74013095D01*
%TO.C,J1*%
X146386666Y-77827380D02*
X146386666Y-78541666D01*
X146339047Y-78684523D01*
X146243809Y-78779761D01*
X146100952Y-78827380D01*
X146005714Y-78827380D01*
X147386666Y-78827380D02*
X146815238Y-78827380D01*
X147100952Y-78827380D02*
X147100952Y-77827380D01*
X147005714Y-77970238D01*
X146910476Y-78065476D01*
X146815238Y-78113095D01*
%TD*%
%LPC*%
D12*
%TO.C,J2*%
X118780000Y-73475000D03*
X121320000Y-73475000D03*
X123860000Y-73475000D03*
X126400000Y-73475000D03*
X128940000Y-73475000D03*
X131480000Y-73475000D03*
X134020000Y-73475000D03*
X136560000Y-73475000D03*
X139100000Y-73475000D03*
X141640000Y-73475000D03*
X144180000Y-73475000D03*
X146720000Y-73475000D03*
X149260000Y-73475000D03*
X151800000Y-73475000D03*
X154340000Y-73475000D03*
X156880000Y-73475000D03*
X159420000Y-73475000D03*
X161960000Y-73475000D03*
X164500000Y-73475000D03*
X167040000Y-73475000D03*
X169580000Y-73475000D03*
X172120000Y-73475000D03*
D13*
X174660000Y-73475000D03*
%TD*%
%TO.C,LCD1*%
G36*
G01*
X123608000Y-116781000D02*
X123608000Y-115969000D01*
G75*
G02*
X124014000Y-115563000I406000J0D01*
G01*
X124826000Y-115563000D01*
G75*
G02*
X125232000Y-115969000I0J-406000D01*
G01*
X125232000Y-116781000D01*
G75*
G02*
X124826000Y-117187000I-406000J0D01*
G01*
X124014000Y-117187000D01*
G75*
G02*
X123608000Y-116781000I0J406000D01*
G01*
G37*
G36*
G01*
X168208000Y-116781000D02*
X168208000Y-115969000D01*
G75*
G02*
X168614000Y-115563000I406000J0D01*
G01*
X169426000Y-115563000D01*
G75*
G02*
X169832000Y-115969000I0J-406000D01*
G01*
X169832000Y-116781000D01*
G75*
G02*
X169426000Y-117187000I-406000J0D01*
G01*
X168614000Y-117187000D01*
G75*
G02*
X168208000Y-116781000I0J406000D01*
G01*
G37*
D14*
X120120000Y-113975000D03*
X173320000Y-113975000D03*
X173320000Y-78075000D03*
X120120000Y-78075000D03*
%TD*%
D15*
%TO.C,J1*%
X156640000Y-81825000D03*
X136800000Y-81825000D03*
D16*
X154970000Y-80125000D03*
X154470000Y-80125000D03*
X153970000Y-80125000D03*
X153470000Y-80125000D03*
X152970000Y-80125000D03*
X152470000Y-80125000D03*
X151970000Y-80125000D03*
X151470000Y-80125000D03*
X150970000Y-80125000D03*
X150470000Y-80125000D03*
X149970000Y-80125000D03*
X149470000Y-80125000D03*
X148970000Y-80125000D03*
X148470000Y-80125000D03*
X147970000Y-80125000D03*
X147470000Y-80125000D03*
X146970000Y-80125000D03*
X146470000Y-80125000D03*
X145970000Y-80125000D03*
X145470000Y-80125000D03*
X144970000Y-80125000D03*
X144470000Y-80125000D03*
X143970000Y-80125000D03*
X143470000Y-80125000D03*
X142970000Y-80125000D03*
X142470000Y-80125000D03*
X141970000Y-80125000D03*
X141470000Y-80125000D03*
X140970000Y-80125000D03*
X140470000Y-80125000D03*
X139970000Y-80125000D03*
X139470000Y-80125000D03*
X138970000Y-80125000D03*
X138470000Y-80125000D03*
%TD*%
M02*
