%TF.GenerationSoftware,KiCad,Pcbnew,(5.1.6)-1*%
%TF.CreationDate,2020-12-29T13:13:14+01:00*%
%TF.ProjectId,powertip_lcd_adapter,706f7765-7274-4697-905f-6c63645f6164,rev?*%
%TF.SameCoordinates,Original*%
%TF.FileFunction,Soldermask,Top*%
%TF.FilePolarity,Negative*%
%FSLAX46Y46*%
G04 Gerber Fmt 4.6, Leading zero omitted, Abs format (unit mm)*
G04 Created by KiCad (PCBNEW (5.1.6)-1) date 2020-12-29 13:13:14*
%MOMM*%
%LPD*%
G01*
G04 APERTURE LIST*
%ADD10O,1.800000X1.800000*%
%ADD11R,1.800000X1.800000*%
%ADD12C,1.100000*%
%ADD13R,2.400000X3.200000*%
%ADD14R,0.400000X1.200000*%
G04 APERTURE END LIST*
D10*
%TO.C,J2*%
X118780000Y-73475000D03*
X121320000Y-73475000D03*
X123860000Y-73475000D03*
X126400000Y-73475000D03*
X128940000Y-73475000D03*
X131480000Y-73475000D03*
X134020000Y-73475000D03*
X136560000Y-73475000D03*
X139100000Y-73475000D03*
X141640000Y-73475000D03*
X144180000Y-73475000D03*
X146720000Y-73475000D03*
X149260000Y-73475000D03*
X151800000Y-73475000D03*
X154340000Y-73475000D03*
X156880000Y-73475000D03*
X159420000Y-73475000D03*
X161960000Y-73475000D03*
X164500000Y-73475000D03*
X167040000Y-73475000D03*
X169580000Y-73475000D03*
X172120000Y-73475000D03*
D11*
X174660000Y-73475000D03*
%TD*%
%TO.C,LCD1*%
G36*
G01*
X123608000Y-116781000D02*
X123608000Y-115969000D01*
G75*
G02*
X124014000Y-115563000I406000J0D01*
G01*
X124826000Y-115563000D01*
G75*
G02*
X125232000Y-115969000I0J-406000D01*
G01*
X125232000Y-116781000D01*
G75*
G02*
X124826000Y-117187000I-406000J0D01*
G01*
X124014000Y-117187000D01*
G75*
G02*
X123608000Y-116781000I0J406000D01*
G01*
G37*
G36*
G01*
X168208000Y-116781000D02*
X168208000Y-115969000D01*
G75*
G02*
X168614000Y-115563000I406000J0D01*
G01*
X169426000Y-115563000D01*
G75*
G02*
X169832000Y-115969000I0J-406000D01*
G01*
X169832000Y-116781000D01*
G75*
G02*
X169426000Y-117187000I-406000J0D01*
G01*
X168614000Y-117187000D01*
G75*
G02*
X168208000Y-116781000I0J406000D01*
G01*
G37*
D12*
X120120000Y-113975000D03*
X173320000Y-113975000D03*
X173320000Y-78075000D03*
X120120000Y-78075000D03*
%TD*%
D13*
%TO.C,J1*%
X156640000Y-81825000D03*
X136800000Y-81825000D03*
D14*
X154970000Y-80125000D03*
X154470000Y-80125000D03*
X153970000Y-80125000D03*
X153470000Y-80125000D03*
X152970000Y-80125000D03*
X152470000Y-80125000D03*
X151970000Y-80125000D03*
X151470000Y-80125000D03*
X150970000Y-80125000D03*
X150470000Y-80125000D03*
X149970000Y-80125000D03*
X149470000Y-80125000D03*
X148970000Y-80125000D03*
X148470000Y-80125000D03*
X147970000Y-80125000D03*
X147470000Y-80125000D03*
X146970000Y-80125000D03*
X146470000Y-80125000D03*
X145970000Y-80125000D03*
X145470000Y-80125000D03*
X144970000Y-80125000D03*
X144470000Y-80125000D03*
X143970000Y-80125000D03*
X143470000Y-80125000D03*
X142970000Y-80125000D03*
X142470000Y-80125000D03*
X141970000Y-80125000D03*
X141470000Y-80125000D03*
X140970000Y-80125000D03*
X140470000Y-80125000D03*
X139970000Y-80125000D03*
X139470000Y-80125000D03*
X138970000Y-80125000D03*
X138470000Y-80125000D03*
%TD*%
M02*
