%TF.GenerationSoftware,KiCad,Pcbnew,(5.1.6)-1*%
%TF.CreationDate,2021-01-14T17:27:39+01:00*%
%TF.ProjectId,pi_dual_output_pro_1,70695f64-7561-46c5-9f6f-75747075745f,rev?*%
%TF.SameCoordinates,Original*%
%TF.FileFunction,Soldermask,Top*%
%TF.FilePolarity,Negative*%
%FSLAX46Y46*%
G04 Gerber Fmt 4.6, Leading zero omitted, Abs format (unit mm)*
G04 Created by KiCad (PCBNEW (5.1.6)-1) date 2021-01-14 17:27:39*
%MOMM*%
%LPD*%
G01*
G04 APERTURE LIST*
%ADD10R,2.100000X1.880000*%
%ADD11R,2.100000X2.100000*%
%ADD12C,2.100000*%
%ADD13C,1.600000*%
%ADD14R,2.600000X2.400000*%
%ADD15C,2.700000*%
%ADD16R,2.700000X2.700000*%
%ADD17R,1.000000X1.300000*%
%ADD18R,1.900000X2.600000*%
%ADD19C,1.700000*%
%ADD20R,0.700000X2.100000*%
%ADD21R,1.700000X1.700000*%
G04 APERTURE END LIST*
%TO.C,R6*%
G36*
G01*
X168100000Y-139581250D02*
X168100000Y-138618750D01*
G75*
G02*
X168368750Y-138350000I268750J0D01*
G01*
X168906250Y-138350000D01*
G75*
G02*
X169175000Y-138618750I0J-268750D01*
G01*
X169175000Y-139581250D01*
G75*
G02*
X168906250Y-139850000I-268750J0D01*
G01*
X168368750Y-139850000D01*
G75*
G02*
X168100000Y-139581250I0J268750D01*
G01*
G37*
G36*
G01*
X166225000Y-139581250D02*
X166225000Y-138618750D01*
G75*
G02*
X166493750Y-138350000I268750J0D01*
G01*
X167031250Y-138350000D01*
G75*
G02*
X167300000Y-138618750I0J-268750D01*
G01*
X167300000Y-139581250D01*
G75*
G02*
X167031250Y-139850000I-268750J0D01*
G01*
X166493750Y-139850000D01*
G75*
G02*
X166225000Y-139581250I0J268750D01*
G01*
G37*
%TD*%
D10*
%TO.C,U2*%
X152035000Y-151670000D03*
X161565000Y-149130000D03*
X152035000Y-149130000D03*
X161565000Y-151670000D03*
%TD*%
D11*
%TO.C,DB1*%
X114700000Y-132400000D03*
D12*
X114700000Y-137400000D03*
X114700000Y-142400000D03*
X114700000Y-147400000D03*
%TD*%
D13*
%TO.C,T1*%
X162600000Y-134900000D03*
X162600000Y-137400000D03*
X162600000Y-139900000D03*
X162600000Y-142400000D03*
X162600000Y-144900000D03*
X154000000Y-144900000D03*
X154000000Y-142400000D03*
X154000000Y-139900000D03*
X154000000Y-137400000D03*
X154000000Y-134900000D03*
%TD*%
D14*
%TO.C,D4*%
X167450000Y-134900000D03*
X171750000Y-134900000D03*
%TD*%
D12*
%TO.C,C8*%
X178600000Y-139900000D03*
D11*
X178600000Y-134900000D03*
%TD*%
D15*
%TO.C,J3*%
X196250000Y-131100000D03*
D16*
X196250000Y-136100000D03*
%TD*%
D15*
%TO.C,J2*%
X196250000Y-143100000D03*
D16*
X196250000Y-148100000D03*
%TD*%
D15*
%TO.C,J1*%
X108000000Y-142400000D03*
D16*
X108000000Y-137400000D03*
%TD*%
D17*
%TO.C,D3*%
X168950000Y-148700000D03*
X165650000Y-148700000D03*
%TD*%
D14*
%TO.C,D5*%
X167450000Y-142400000D03*
X171750000Y-142400000D03*
%TD*%
D18*
%TO.C,D2*%
X148800000Y-145900000D03*
X148800000Y-141900000D03*
%TD*%
%TO.C,R4*%
G36*
G01*
X141945000Y-150625000D02*
X143255000Y-150625000D01*
G75*
G02*
X143525000Y-150895000I0J-270000D01*
G01*
X143525000Y-151705000D01*
G75*
G02*
X143255000Y-151975000I-270000J0D01*
G01*
X141945000Y-151975000D01*
G75*
G02*
X141675000Y-151705000I0J270000D01*
G01*
X141675000Y-150895000D01*
G75*
G02*
X141945000Y-150625000I270000J0D01*
G01*
G37*
G36*
G01*
X141945000Y-147825000D02*
X143255000Y-147825000D01*
G75*
G02*
X143525000Y-148095000I0J-270000D01*
G01*
X143525000Y-148905000D01*
G75*
G02*
X143255000Y-149175000I-270000J0D01*
G01*
X141945000Y-149175000D01*
G75*
G02*
X141675000Y-148905000I0J270000D01*
G01*
X141675000Y-148095000D01*
G75*
G02*
X141945000Y-147825000I270000J0D01*
G01*
G37*
%TD*%
%TO.C,R3*%
G36*
G01*
X140855000Y-149175000D02*
X139545000Y-149175000D01*
G75*
G02*
X139275000Y-148905000I0J270000D01*
G01*
X139275000Y-148095000D01*
G75*
G02*
X139545000Y-147825000I270000J0D01*
G01*
X140855000Y-147825000D01*
G75*
G02*
X141125000Y-148095000I0J-270000D01*
G01*
X141125000Y-148905000D01*
G75*
G02*
X140855000Y-149175000I-270000J0D01*
G01*
G37*
G36*
G01*
X140855000Y-151975000D02*
X139545000Y-151975000D01*
G75*
G02*
X139275000Y-151705000I0J270000D01*
G01*
X139275000Y-150895000D01*
G75*
G02*
X139545000Y-150625000I270000J0D01*
G01*
X140855000Y-150625000D01*
G75*
G02*
X141125000Y-150895000I0J-270000D01*
G01*
X141125000Y-151705000D01*
G75*
G02*
X140855000Y-151975000I-270000J0D01*
G01*
G37*
%TD*%
%TO.C,R7*%
G36*
G01*
X168100000Y-132081250D02*
X168100000Y-131118750D01*
G75*
G02*
X168368750Y-130850000I268750J0D01*
G01*
X168906250Y-130850000D01*
G75*
G02*
X169175000Y-131118750I0J-268750D01*
G01*
X169175000Y-132081250D01*
G75*
G02*
X168906250Y-132350000I-268750J0D01*
G01*
X168368750Y-132350000D01*
G75*
G02*
X168100000Y-132081250I0J268750D01*
G01*
G37*
G36*
G01*
X166225000Y-132081250D02*
X166225000Y-131118750D01*
G75*
G02*
X166493750Y-130850000I268750J0D01*
G01*
X167031250Y-130850000D01*
G75*
G02*
X167300000Y-131118750I0J-268750D01*
G01*
X167300000Y-132081250D01*
G75*
G02*
X167031250Y-132350000I-268750J0D01*
G01*
X166493750Y-132350000D01*
G75*
G02*
X166225000Y-132081250I0J268750D01*
G01*
G37*
%TD*%
%TO.C,R5*%
G36*
G01*
X164381250Y-150000000D02*
X163418750Y-150000000D01*
G75*
G02*
X163150000Y-149731250I0J268750D01*
G01*
X163150000Y-149193750D01*
G75*
G02*
X163418750Y-148925000I268750J0D01*
G01*
X164381250Y-148925000D01*
G75*
G02*
X164650000Y-149193750I0J-268750D01*
G01*
X164650000Y-149731250D01*
G75*
G02*
X164381250Y-150000000I-268750J0D01*
G01*
G37*
G36*
G01*
X164381250Y-151875000D02*
X163418750Y-151875000D01*
G75*
G02*
X163150000Y-151606250I0J268750D01*
G01*
X163150000Y-151068750D01*
G75*
G02*
X163418750Y-150800000I268750J0D01*
G01*
X164381250Y-150800000D01*
G75*
G02*
X164650000Y-151068750I0J-268750D01*
G01*
X164650000Y-151606250D01*
G75*
G02*
X164381250Y-151875000I-268750J0D01*
G01*
G37*
%TD*%
%TO.C,R2*%
G36*
G01*
X131100000Y-149118750D02*
X131100000Y-150081250D01*
G75*
G02*
X130831250Y-150350000I-268750J0D01*
G01*
X130293750Y-150350000D01*
G75*
G02*
X130025000Y-150081250I0J268750D01*
G01*
X130025000Y-149118750D01*
G75*
G02*
X130293750Y-148850000I268750J0D01*
G01*
X130831250Y-148850000D01*
G75*
G02*
X131100000Y-149118750I0J-268750D01*
G01*
G37*
G36*
G01*
X132975000Y-149118750D02*
X132975000Y-150081250D01*
G75*
G02*
X132706250Y-150350000I-268750J0D01*
G01*
X132168750Y-150350000D01*
G75*
G02*
X131900000Y-150081250I0J268750D01*
G01*
X131900000Y-149118750D01*
G75*
G02*
X132168750Y-148850000I268750J0D01*
G01*
X132706250Y-148850000D01*
G75*
G02*
X132975000Y-149118750I0J-268750D01*
G01*
G37*
%TD*%
D12*
%TO.C,L4*%
X186700000Y-130700000D03*
X182700000Y-130700000D03*
%TD*%
%TO.C,L3*%
X185600000Y-144700000D03*
X181600000Y-144700000D03*
%TD*%
D19*
%TO.C,C4*%
X155800000Y-130700000D03*
X160800000Y-130700000D03*
%TD*%
D18*
%TO.C,D1*%
X148800000Y-138800000D03*
X148800000Y-134800000D03*
%TD*%
D20*
%TO.C,U1*%
X142295000Y-141350000D03*
X143565000Y-141350000D03*
X144835000Y-141350000D03*
X146105000Y-141350000D03*
X146105000Y-146250000D03*
X143565000Y-146250000D03*
X142295000Y-146250000D03*
%TD*%
D15*
%TO.C,L2*%
X134000000Y-143900000D03*
X129000000Y-143900000D03*
%TD*%
%TO.C,L1*%
X134000000Y-134600000D03*
X129000000Y-134600000D03*
%TD*%
D19*
%TO.C,C10*%
X188600000Y-136900000D03*
D21*
X188600000Y-134900000D03*
%TD*%
D19*
%TO.C,C9*%
X188700000Y-150100000D03*
D21*
X188700000Y-148100000D03*
%TD*%
D19*
%TO.C,C7*%
X176700000Y-147200000D03*
D21*
X176700000Y-144700000D03*
%TD*%
%TO.C,C6*%
G36*
G01*
X171400000Y-131518750D02*
X171400000Y-132081250D01*
G75*
G02*
X171156250Y-132325000I-243750J0D01*
G01*
X170668750Y-132325000D01*
G75*
G02*
X170425000Y-132081250I0J243750D01*
G01*
X170425000Y-131518750D01*
G75*
G02*
X170668750Y-131275000I243750J0D01*
G01*
X171156250Y-131275000D01*
G75*
G02*
X171400000Y-131518750I0J-243750D01*
G01*
G37*
G36*
G01*
X172975000Y-131518750D02*
X172975000Y-132081250D01*
G75*
G02*
X172731250Y-132325000I-243750J0D01*
G01*
X172243750Y-132325000D01*
G75*
G02*
X172000000Y-132081250I0J243750D01*
G01*
X172000000Y-131518750D01*
G75*
G02*
X172243750Y-131275000I243750J0D01*
G01*
X172731250Y-131275000D01*
G75*
G02*
X172975000Y-131518750I0J-243750D01*
G01*
G37*
%TD*%
%TO.C,C5*%
G36*
G01*
X171400000Y-139018750D02*
X171400000Y-139581250D01*
G75*
G02*
X171156250Y-139825000I-243750J0D01*
G01*
X170668750Y-139825000D01*
G75*
G02*
X170425000Y-139581250I0J243750D01*
G01*
X170425000Y-139018750D01*
G75*
G02*
X170668750Y-138775000I243750J0D01*
G01*
X171156250Y-138775000D01*
G75*
G02*
X171400000Y-139018750I0J-243750D01*
G01*
G37*
G36*
G01*
X172975000Y-139018750D02*
X172975000Y-139581250D01*
G75*
G02*
X172731250Y-139825000I-243750J0D01*
G01*
X172243750Y-139825000D01*
G75*
G02*
X172000000Y-139581250I0J243750D01*
G01*
X172000000Y-139018750D01*
G75*
G02*
X172243750Y-138775000I243750J0D01*
G01*
X172731250Y-138775000D01*
G75*
G02*
X172975000Y-139018750I0J-243750D01*
G01*
G37*
%TD*%
%TO.C,C3*%
G36*
G01*
X140881250Y-142400000D02*
X139918750Y-142400000D01*
G75*
G02*
X139650000Y-142131250I0J268750D01*
G01*
X139650000Y-141593750D01*
G75*
G02*
X139918750Y-141325000I268750J0D01*
G01*
X140881250Y-141325000D01*
G75*
G02*
X141150000Y-141593750I0J-268750D01*
G01*
X141150000Y-142131250D01*
G75*
G02*
X140881250Y-142400000I-268750J0D01*
G01*
G37*
G36*
G01*
X140881250Y-144275000D02*
X139918750Y-144275000D01*
G75*
G02*
X139650000Y-144006250I0J268750D01*
G01*
X139650000Y-143468750D01*
G75*
G02*
X139918750Y-143200000I268750J0D01*
G01*
X140881250Y-143200000D01*
G75*
G02*
X141150000Y-143468750I0J-268750D01*
G01*
X141150000Y-144006250D01*
G75*
G02*
X140881250Y-144275000I-268750J0D01*
G01*
G37*
%TD*%
D12*
%TO.C,C2*%
X141700000Y-137200000D03*
D11*
X141700000Y-132200000D03*
%TD*%
D12*
%TO.C,C1*%
X122300000Y-141700000D03*
D11*
X122300000Y-136700000D03*
%TD*%
M02*
