M48
; DRILL file {KiCad (5.1.6)-1} date 01/14/21 17:27:43
; FORMAT={-:-/ absolute / inch / decimal}
; #@! TF.CreationDate,2021-01-14T17:27:43+01:00
; #@! TF.GenerationSoftware,Kicad,Pcbnew,(5.1.6)-1
; #@! TF.FileFunction,Plated,1,2,PTH
FMAT,2
INCH
T1C0.0157
T2C0.0315
T3C0.0394
T4C0.0512
%
G90
G05
T1
X5.5197Y-5.7874
X5.7402Y-5.8701
X6.7126Y-5.8504
T2
X7.4252Y-5.311
X7.4252Y-5.3898
X7.4291Y-5.8307
X7.4291Y-5.9094
X6.1339Y-5.1457
X6.3307Y-5.1457
X6.9567Y-5.6969
X6.9567Y-5.7953
T3
X5.5787Y-5.2047
X5.5787Y-5.4016
X7.1496Y-5.6969
X7.3071Y-5.6969
X7.0315Y-5.311
X7.0315Y-5.5079
X4.815Y-5.3819
X4.815Y-5.5787
X7.1929Y-5.1457
X7.3504Y-5.1457
X6.063Y-5.311
X6.063Y-5.4094
X6.063Y-5.5079
X6.063Y-5.6063
X6.063Y-5.7047
X6.4016Y-5.311
X6.4016Y-5.4094
X6.4016Y-5.5079
X6.4016Y-5.6063
X6.4016Y-5.7047
X4.5157Y-5.2126
X4.5157Y-5.4094
X4.5157Y-5.6063
X4.5157Y-5.8031
T4
X7.7264Y-5.6339
X7.7264Y-5.8307
X7.7264Y-5.1614
X7.7264Y-5.3583
X5.0787Y-5.2992
X5.2756Y-5.2992
X5.0787Y-5.6654
X5.2756Y-5.6654
X4.252Y-5.4094
X4.252Y-5.6063
T0
M30
