%TF.GenerationSoftware,KiCad,Pcbnew,(5.1.6)-1*%
%TF.CreationDate,2020-11-10T11:45:45+01:00*%
%TF.ProjectId,stm32f373rct6_evaluation_board,73746d33-3266-4333-9733-726374365f65,rev?*%
%TF.SameCoordinates,Original*%
%TF.FileFunction,Copper,L2,Bot*%
%TF.FilePolarity,Positive*%
%FSLAX46Y46*%
G04 Gerber Fmt 4.6, Leading zero omitted, Abs format (unit mm)*
G04 Created by KiCad (PCBNEW (5.1.6)-1) date 2020-11-10 11:45:45*
%MOMM*%
%LPD*%
G01*
G04 APERTURE LIST*
%TA.AperFunction,ComponentPad*%
%ADD10O,1.700000X1.700000*%
%TD*%
%TA.AperFunction,ComponentPad*%
%ADD11R,1.700000X1.700000*%
%TD*%
%TA.AperFunction,ComponentPad*%
%ADD12O,1.600000X1.600000*%
%TD*%
%TA.AperFunction,ComponentPad*%
%ADD13R,1.600000X1.600000*%
%TD*%
%TA.AperFunction,ViaPad*%
%ADD14C,0.600000*%
%TD*%
%TA.AperFunction,ViaPad*%
%ADD15C,0.800000*%
%TD*%
%TA.AperFunction,Conductor*%
%ADD16C,0.500000*%
%TD*%
%TA.AperFunction,Conductor*%
%ADD17C,0.350000*%
%TD*%
%TA.AperFunction,Conductor*%
%ADD18C,0.200000*%
%TD*%
%TA.AperFunction,Conductor*%
%ADD19C,0.254000*%
%TD*%
G04 APERTURE END LIST*
D10*
%TO.P,J7,8*%
%TO.N,GND*%
X121000000Y-86000000D03*
%TO.P,J7,7*%
%TO.N,VDD*%
X121000000Y-88540000D03*
%TO.P,J7,6*%
%TO.N,GND*%
X118460000Y-86000000D03*
%TO.P,J7,5*%
%TO.N,VDD*%
X118460000Y-88540000D03*
%TO.P,J7,4*%
%TO.N,GND*%
X115920000Y-86000000D03*
%TO.P,J7,3*%
%TO.N,+5V*%
X115920000Y-88540000D03*
%TO.P,J7,2*%
%TO.N,GND*%
X113380000Y-86000000D03*
D11*
%TO.P,J7,1*%
%TO.N,+5V*%
X113380000Y-88540000D03*
%TD*%
D10*
%TO.P,J5,16*%
%TO.N,GND*%
X166780000Y-86000000D03*
%TO.P,J5,15*%
%TO.N,/A11*%
X166780000Y-88540000D03*
%TO.P,J5,14*%
%TO.N,GND*%
X164240000Y-86000000D03*
%TO.P,J5,13*%
%TO.N,/A10*%
X164240000Y-88540000D03*
%TO.P,J5,12*%
%TO.N,GND*%
X161700000Y-86000000D03*
%TO.P,J5,11*%
%TO.N,/A9*%
X161700000Y-88540000D03*
%TO.P,J5,10*%
%TO.N,GND*%
X159160000Y-86000000D03*
%TO.P,J5,9*%
%TO.N,/A8*%
X159160000Y-88540000D03*
%TO.P,J5,8*%
%TO.N,GND*%
X156620000Y-86000000D03*
%TO.P,J5,7*%
%TO.N,/C9*%
X156620000Y-88540000D03*
%TO.P,J5,6*%
%TO.N,GND*%
X154080000Y-86000000D03*
%TO.P,J5,5*%
%TO.N,/C8*%
X154080000Y-88540000D03*
%TO.P,J5,4*%
%TO.N,GND*%
X151540000Y-86000000D03*
%TO.P,J5,3*%
%TO.N,/C7*%
X151540000Y-88540000D03*
%TO.P,J5,2*%
%TO.N,GND*%
X149000000Y-86000000D03*
D11*
%TO.P,J5,1*%
%TO.N,/C6*%
X149000000Y-88540000D03*
%TD*%
D10*
%TO.P,J1,4*%
%TO.N,/ISOLATED RS485/GND_BUS*%
X95800000Y-103000000D03*
%TO.P,J1,3*%
%TO.N,/ISOLATED RS485/RS485_A*%
X95800000Y-105540000D03*
%TO.P,J1,2*%
%TO.N,/ISOLATED RS485/RS485_B*%
X95800000Y-108080000D03*
D11*
%TO.P,J1,1*%
%TO.N,/ISOLATED RS485/VDD_BUS*%
X95800000Y-110620000D03*
%TD*%
D10*
%TO.P,J3,8*%
%TO.N,/SD_8*%
X168000000Y-116870000D03*
%TO.P,J3,7*%
%TO.N,/SD_7*%
X168000000Y-114330000D03*
%TO.P,J3,6*%
%TO.N,/SD_6*%
X168000000Y-111790000D03*
%TO.P,J3,5*%
%TO.N,/SD_5*%
X168000000Y-109250000D03*
%TO.P,J3,4*%
%TO.N,/SD_4*%
X168000000Y-106710000D03*
%TO.P,J3,3*%
%TO.N,/SD_3*%
X168000000Y-104170000D03*
%TO.P,J3,2*%
%TO.N,/SD_2*%
X168000000Y-101630000D03*
D11*
%TO.P,J3,1*%
%TO.N,/SD_1*%
X168000000Y-99090000D03*
%TD*%
D10*
%TO.P,J4,16*%
%TO.N,GNDA*%
X174290000Y-116870000D03*
%TO.P,J4,15*%
%TO.N,/SD_8*%
X171750000Y-116870000D03*
%TO.P,J4,14*%
%TO.N,GNDA*%
X174290000Y-114330000D03*
%TO.P,J4,13*%
%TO.N,/SD_7*%
X171750000Y-114330000D03*
%TO.P,J4,12*%
%TO.N,GNDA*%
X174290000Y-111790000D03*
%TO.P,J4,11*%
%TO.N,/SD_6*%
X171750000Y-111790000D03*
%TO.P,J4,10*%
%TO.N,GNDA*%
X174290000Y-109250000D03*
%TO.P,J4,9*%
%TO.N,/SD_5*%
X171750000Y-109250000D03*
%TO.P,J4,8*%
%TO.N,GNDA*%
X174290000Y-106710000D03*
%TO.P,J4,7*%
%TO.N,/SD_4*%
X171750000Y-106710000D03*
%TO.P,J4,6*%
%TO.N,GNDA*%
X174290000Y-104170000D03*
%TO.P,J4,5*%
%TO.N,/SD_3*%
X171750000Y-104170000D03*
%TO.P,J4,4*%
%TO.N,GNDA*%
X174290000Y-101630000D03*
%TO.P,J4,3*%
%TO.N,/SD_2*%
X171750000Y-101630000D03*
%TO.P,J4,2*%
%TO.N,GNDA*%
X174290000Y-99090000D03*
D11*
%TO.P,J4,1*%
%TO.N,/SD_1*%
X171750000Y-99090000D03*
%TD*%
D10*
%TO.P,J6,16*%
%TO.N,GND*%
X143910000Y-86000000D03*
%TO.P,J6,15*%
%TO.N,GPIO_A12*%
X143910000Y-88540000D03*
%TO.P,J6,14*%
%TO.N,GND*%
X141370000Y-86000000D03*
%TO.P,J6,13*%
%TO.N,/F6*%
X141370000Y-88540000D03*
%TO.P,J6,12*%
%TO.N,GND*%
X138830000Y-86000000D03*
%TO.P,J6,11*%
%TO.N,/F7*%
X138830000Y-88540000D03*
%TO.P,J6,10*%
%TO.N,GND*%
X136290000Y-86000000D03*
%TO.P,J6,9*%
%TO.N,/A15*%
X136290000Y-88540000D03*
%TO.P,J6,8*%
%TO.N,GND*%
X133750000Y-86000000D03*
%TO.P,J6,7*%
%TO.N,/C10*%
X133750000Y-88540000D03*
%TO.P,J6,6*%
%TO.N,GND*%
X131210000Y-86000000D03*
%TO.P,J6,5*%
%TO.N,/D2*%
X131210000Y-88540000D03*
%TO.P,J6,4*%
%TO.N,GND*%
X128670000Y-86000000D03*
%TO.P,J6,3*%
%TO.N,/B3*%
X128670000Y-88540000D03*
%TO.P,J6,2*%
%TO.N,GND*%
X126130000Y-86000000D03*
D11*
%TO.P,J6,1*%
%TO.N,/B4*%
X126130000Y-88540000D03*
%TD*%
D10*
%TO.P,J2,6*%
%TO.N,/uC_SWD_DIO*%
X95800000Y-93660000D03*
%TO.P,J2,5*%
%TO.N,GND*%
X98340000Y-93660000D03*
%TO.P,J2,4*%
%TO.N,/uC_SWD_CLK*%
X95800000Y-96200000D03*
%TO.P,J2,3*%
%TO.N,+5V*%
X98340000Y-96200000D03*
%TO.P,J2,2*%
%TO.N,/uC_reset*%
X95800000Y-98740000D03*
D11*
%TO.P,J2,1*%
%TO.N,VDD*%
X98340000Y-98740000D03*
%TD*%
D12*
%TO.P,U5,4*%
%TO.N,/ISOLATED RS485/TX_(in)_iso*%
X114100000Y-105140000D03*
%TO.P,U5,2*%
%TO.N,/ISOLATED RS485/TX_(in)*%
X121720000Y-102600000D03*
%TO.P,U5,3*%
%TO.N,/ISOLATED RS485/GND_BUS*%
X114100000Y-102600000D03*
D13*
%TO.P,U5,1*%
%TO.N,Net-(R11-Pad1)*%
X121720000Y-105140000D03*
%TD*%
D12*
%TO.P,U4,4*%
%TO.N,/ISOLATED RS485/RX_(out)*%
X121720000Y-108460000D03*
%TO.P,U4,2*%
%TO.N,/ISOLATED RS485/RX_(out)_iso*%
X114100000Y-111000000D03*
%TO.P,U4,3*%
%TO.N,GND*%
X121720000Y-111000000D03*
D13*
%TO.P,U4,1*%
%TO.N,Net-(R8-Pad2)*%
X114100000Y-108460000D03*
%TD*%
D14*
%TO.N,GND*%
X104550000Y-120300000D03*
X108650000Y-120350000D03*
X132900000Y-103400000D03*
X140600000Y-117350000D03*
X151000000Y-118400000D03*
X152600000Y-118400000D03*
X154200000Y-118400000D03*
X153750000Y-104350000D03*
X146550000Y-129700000D03*
X123250000Y-129700000D03*
X147300000Y-118900000D03*
X93500000Y-118500000D03*
X93500000Y-117250000D03*
X93500000Y-119750000D03*
X125500000Y-121200000D03*
X116350000Y-121300000D03*
X112750000Y-120350000D03*
X138550000Y-107050000D03*
D15*
X105700000Y-101350000D03*
D14*
X108700000Y-89000000D03*
X103700000Y-89000000D03*
D15*
%TO.N,Net-(BT1-Pad1)*%
X131250000Y-123200000D03*
X125700000Y-123200000D03*
D14*
%TO.N,GNDA*%
X156500000Y-112250000D03*
X156750000Y-99750000D03*
X151750000Y-96750000D03*
X158375000Y-104800000D03*
D15*
X115200000Y-96150000D03*
D14*
X149350000Y-111700000D03*
%TO.N,VDDA*%
X153350000Y-108850000D03*
X154950000Y-108850000D03*
X150700000Y-110500000D03*
D15*
X115200000Y-95150000D03*
D14*
X155200000Y-98950000D03*
D15*
%TO.N,+5V*%
X102850000Y-96200000D03*
X105700000Y-91750000D03*
D14*
X105000000Y-89400000D03*
%TO.N,/uC_reset*%
X140700000Y-95500000D03*
X136300000Y-95500000D03*
%TO.N,/uC_SWD_CLK*%
X140600000Y-97200000D03*
X136300000Y-96700000D03*
%TO.N,/uC_SWD_DIO*%
X144000000Y-96300000D03*
X136900000Y-96100000D03*
%TO.N,/ISOLATED RS485/RX_(out)*%
X139100000Y-100700000D03*
X136450000Y-99250000D03*
%TO.N,/ISOLATED RS485/TX_(in)*%
X139300000Y-101500000D03*
X135650000Y-99350000D03*
%TO.N,/STM32F373RCT6/GPIO_PB5*%
X124500000Y-118100000D03*
X125100000Y-114350000D03*
%TO.N,Net-(R12-Pad2)*%
X139950000Y-105200000D03*
X137600000Y-104550000D03*
%TO.N,/STM32F373RCT6/C0*%
X146600000Y-110550000D03*
X148550000Y-120250000D03*
%TO.N,/STM32F373RCT6/C1*%
X146700000Y-111350000D03*
X148900000Y-119450000D03*
%TO.N,/STM32F373RCT6/C2*%
X147300000Y-111900000D03*
X149500000Y-118900000D03*
%TO.N,/STM32F373RCT6/C3*%
X148100000Y-111900000D03*
X150100000Y-119450000D03*
%TD*%
D16*
%TO.N,Net-(BT1-Pad1)*%
X125700000Y-123200000D02*
X131250000Y-123200000D01*
D17*
%TO.N,GNDA*%
X134322180Y-109400010D02*
X148450010Y-109400010D01*
X148450010Y-109400010D02*
X148750000Y-109700000D01*
X129799990Y-104877820D02*
X134322180Y-109400010D01*
X129799990Y-97377820D02*
X129799990Y-104877820D01*
X115200000Y-96150000D02*
X115450010Y-96150000D01*
X128122180Y-95700010D02*
X129799990Y-97377820D01*
X115450010Y-96150000D02*
X115900000Y-95700010D01*
X115900000Y-95700010D02*
X128122180Y-95700010D01*
X148750000Y-111100000D02*
X149350000Y-111700000D01*
X148750000Y-109700000D02*
X148750000Y-111100000D01*
%TO.N,VDDA*%
X134550000Y-108850000D02*
X153350000Y-108850000D01*
X115200000Y-95150000D02*
X128350000Y-95150000D01*
X130350000Y-104650000D02*
X134550000Y-108850000D01*
X130350000Y-97150000D02*
X130350000Y-104650000D01*
X128350000Y-95150000D02*
X130350000Y-97150000D01*
D18*
%TO.N,+5V*%
X105000000Y-89600000D02*
X105000000Y-89400000D01*
D17*
X105700000Y-91750000D02*
X112450000Y-91750000D01*
X113380000Y-90820000D02*
X113380000Y-88540000D01*
X112450000Y-91750000D02*
X113380000Y-90820000D01*
X115920000Y-88540000D02*
X113380000Y-88540000D01*
X102850000Y-96200000D02*
X102850000Y-92450000D01*
X103550000Y-91750000D02*
X105700000Y-91750000D01*
X102850000Y-92450000D02*
X103550000Y-91750000D01*
X105700000Y-90100000D02*
X105700000Y-91750000D01*
X105000000Y-89400000D02*
X105700000Y-90100000D01*
D18*
%TO.N,/uC_reset*%
X140700000Y-95500000D02*
X136300000Y-95500000D01*
%TO.N,/uC_SWD_CLK*%
X140600000Y-97200000D02*
X140100000Y-96700000D01*
X140100000Y-96700000D02*
X136300000Y-96700000D01*
%TO.N,/uC_SWD_DIO*%
X144000000Y-96300000D02*
X143800000Y-96100000D01*
X143800000Y-96100000D02*
X136900000Y-96100000D01*
%TO.N,/ISOLATED RS485/RX_(out)*%
X139100000Y-100700000D02*
X137900000Y-100700000D01*
X137900000Y-100700000D02*
X137600000Y-100400000D01*
X137600000Y-100400000D02*
X136450000Y-99250000D01*
%TO.N,/ISOLATED RS485/TX_(in)*%
X139300000Y-101500000D02*
X139050000Y-101500000D01*
X139050000Y-101500000D02*
X138650000Y-101100000D01*
X138650000Y-101100000D02*
X137734302Y-101100000D01*
X137734302Y-101100000D02*
X136484303Y-99850001D01*
X136484303Y-99850001D02*
X136150001Y-99850001D01*
X136150001Y-99850001D02*
X135650000Y-99350000D01*
%TO.N,/STM32F373RCT6/GPIO_PB5*%
X124500000Y-118100000D02*
X124500000Y-114950000D01*
X124500000Y-114950000D02*
X125100000Y-114350000D01*
%TO.N,Net-(R12-Pad2)*%
X139950000Y-105200000D02*
X138400000Y-105200000D01*
X138400000Y-105200000D02*
X137950000Y-104750000D01*
X137950000Y-104750000D02*
X137750000Y-104550000D01*
X137750000Y-104550000D02*
X137600000Y-104550000D01*
%TO.N,/STM32F373RCT6/C0*%
X146600000Y-110550000D02*
X146099999Y-111050001D01*
X146099999Y-111050001D02*
X146099999Y-112153699D01*
X146099999Y-112153699D02*
X147254169Y-113307869D01*
X147254169Y-113307869D02*
X147810775Y-113307869D01*
X147810775Y-113307869D02*
X148899970Y-114397064D01*
X148899970Y-114397064D02*
X148899970Y-117884331D01*
X148899970Y-117884331D02*
X148250000Y-118534301D01*
X148250000Y-118534301D02*
X148250000Y-119950000D01*
X148250000Y-119950000D02*
X148550000Y-120250000D01*
%TO.N,/STM32F373RCT6/C1*%
X146700000Y-111350000D02*
X146700000Y-112188002D01*
X146700000Y-112188002D02*
X147419857Y-112907859D01*
X147419857Y-112907859D02*
X147976463Y-112907859D01*
X147976463Y-112907859D02*
X149299980Y-114231376D01*
X149299980Y-114231376D02*
X149299980Y-118050020D01*
X149299980Y-118050020D02*
X148900000Y-118450000D01*
X148900000Y-118450000D02*
X148900000Y-119450000D01*
%TO.N,/STM32F373RCT6/C2*%
X147300000Y-111900000D02*
X147300000Y-112050000D01*
X147300000Y-112050000D02*
X147757849Y-112507849D01*
X147757849Y-112507849D02*
X148142151Y-112507849D01*
X148142151Y-112507849D02*
X149699990Y-114065688D01*
X149699990Y-114065688D02*
X149699990Y-118700010D01*
X149699990Y-118700010D02*
X149500000Y-118900000D01*
%TO.N,/STM32F373RCT6/C3*%
X148100000Y-111900000D02*
X150100000Y-113900000D01*
X150100000Y-113900000D02*
X150100000Y-119450000D01*
%TD*%
D19*
%TO.N,VDDA*%
G36*
X155623000Y-98802606D02*
G01*
X155623000Y-110697394D01*
X155447394Y-110873000D01*
X150402606Y-110873000D01*
X150227000Y-110697394D01*
X150227000Y-107802606D01*
X150402606Y-107627000D01*
X154350000Y-107627000D01*
X154374776Y-107624560D01*
X154398601Y-107617333D01*
X154420557Y-107605597D01*
X154439803Y-107589803D01*
X154689803Y-107339803D01*
X154705597Y-107320557D01*
X154717333Y-107298601D01*
X154724560Y-107274776D01*
X154727000Y-107250000D01*
X154727000Y-98802606D01*
X154902606Y-98627000D01*
X155447394Y-98627000D01*
X155623000Y-98802606D01*
G37*
X155623000Y-98802606D02*
X155623000Y-110697394D01*
X155447394Y-110873000D01*
X150402606Y-110873000D01*
X150227000Y-110697394D01*
X150227000Y-107802606D01*
X150402606Y-107627000D01*
X154350000Y-107627000D01*
X154374776Y-107624560D01*
X154398601Y-107617333D01*
X154420557Y-107605597D01*
X154439803Y-107589803D01*
X154689803Y-107339803D01*
X154705597Y-107320557D01*
X154717333Y-107298601D01*
X154724560Y-107274776D01*
X154727000Y-107250000D01*
X154727000Y-98802606D01*
X154902606Y-98627000D01*
X155447394Y-98627000D01*
X155623000Y-98802606D01*
%TO.N,GNDA*%
G36*
X184340001Y-118623000D02*
G01*
X155252606Y-118623000D01*
X155132793Y-118503187D01*
X155135000Y-118492089D01*
X155135000Y-118307911D01*
X155099068Y-118127271D01*
X155077000Y-118073994D01*
X155077000Y-112500000D01*
X155074560Y-112475224D01*
X155067333Y-112451399D01*
X155055597Y-112429443D01*
X155039803Y-112410197D01*
X154789803Y-112160197D01*
X154770557Y-112144403D01*
X154748601Y-112132667D01*
X154724776Y-112125440D01*
X154700000Y-112123000D01*
X149362447Y-112123000D01*
X149031932Y-111792485D01*
X148999068Y-111627271D01*
X148928586Y-111457111D01*
X148826262Y-111303972D01*
X148696028Y-111173738D01*
X148542889Y-111071414D01*
X148372729Y-111000932D01*
X148192089Y-110965000D01*
X148007911Y-110965000D01*
X147827271Y-111000932D01*
X147700000Y-111053649D01*
X147627000Y-111023412D01*
X147627000Y-109660000D01*
X149465000Y-109660000D01*
X149465000Y-110750000D01*
X149477201Y-110873882D01*
X149513336Y-110993004D01*
X149572017Y-111102787D01*
X149650987Y-111199013D01*
X149673000Y-111221026D01*
X149673000Y-111250000D01*
X149675440Y-111274776D01*
X149682667Y-111298601D01*
X149694403Y-111320557D01*
X149710197Y-111339803D01*
X149960197Y-111589803D01*
X149979443Y-111605597D01*
X150001399Y-111617333D01*
X150025224Y-111624560D01*
X150050000Y-111627000D01*
X150268773Y-111627000D01*
X150350000Y-111635000D01*
X155500000Y-111635000D01*
X155581227Y-111627000D01*
X155950000Y-111627000D01*
X155974776Y-111624560D01*
X155998601Y-111617333D01*
X156020557Y-111605597D01*
X156039803Y-111589803D01*
X156289803Y-111339803D01*
X156305597Y-111320557D01*
X156317333Y-111298601D01*
X156324560Y-111274776D01*
X156327000Y-111250000D01*
X156327000Y-111011084D01*
X156336664Y-110993004D01*
X156372799Y-110873882D01*
X156385000Y-110750000D01*
X156385000Y-98750000D01*
X156372799Y-98626118D01*
X156336664Y-98506996D01*
X156327000Y-98488916D01*
X156327000Y-98240000D01*
X166511928Y-98240000D01*
X166511928Y-99940000D01*
X166524188Y-100064482D01*
X166560498Y-100184180D01*
X166619463Y-100294494D01*
X166698815Y-100391185D01*
X166795506Y-100470537D01*
X166905820Y-100529502D01*
X166978380Y-100551513D01*
X166846525Y-100683368D01*
X166684010Y-100926589D01*
X166572068Y-101196842D01*
X166515000Y-101483740D01*
X166515000Y-101776260D01*
X166572068Y-102063158D01*
X166684010Y-102333411D01*
X166846525Y-102576632D01*
X167053368Y-102783475D01*
X167227760Y-102900000D01*
X167053368Y-103016525D01*
X166846525Y-103223368D01*
X166684010Y-103466589D01*
X166572068Y-103736842D01*
X166515000Y-104023740D01*
X166515000Y-104316260D01*
X166572068Y-104603158D01*
X166684010Y-104873411D01*
X166846525Y-105116632D01*
X167053368Y-105323475D01*
X167227760Y-105440000D01*
X167053368Y-105556525D01*
X166846525Y-105763368D01*
X166684010Y-106006589D01*
X166572068Y-106276842D01*
X166515000Y-106563740D01*
X166515000Y-106856260D01*
X166572068Y-107143158D01*
X166684010Y-107413411D01*
X166846525Y-107656632D01*
X167053368Y-107863475D01*
X167227760Y-107980000D01*
X167053368Y-108096525D01*
X166846525Y-108303368D01*
X166684010Y-108546589D01*
X166572068Y-108816842D01*
X166515000Y-109103740D01*
X166515000Y-109396260D01*
X166572068Y-109683158D01*
X166684010Y-109953411D01*
X166846525Y-110196632D01*
X167053368Y-110403475D01*
X167227760Y-110520000D01*
X167053368Y-110636525D01*
X166846525Y-110843368D01*
X166684010Y-111086589D01*
X166572068Y-111356842D01*
X166515000Y-111643740D01*
X166515000Y-111936260D01*
X166572068Y-112223158D01*
X166684010Y-112493411D01*
X166846525Y-112736632D01*
X167053368Y-112943475D01*
X167227760Y-113060000D01*
X167053368Y-113176525D01*
X166846525Y-113383368D01*
X166684010Y-113626589D01*
X166572068Y-113896842D01*
X166515000Y-114183740D01*
X166515000Y-114476260D01*
X166572068Y-114763158D01*
X166684010Y-115033411D01*
X166846525Y-115276632D01*
X167053368Y-115483475D01*
X167227760Y-115600000D01*
X167053368Y-115716525D01*
X166846525Y-115923368D01*
X166684010Y-116166589D01*
X166572068Y-116436842D01*
X166515000Y-116723740D01*
X166515000Y-117016260D01*
X166572068Y-117303158D01*
X166684010Y-117573411D01*
X166846525Y-117816632D01*
X167053368Y-118023475D01*
X167296589Y-118185990D01*
X167566842Y-118297932D01*
X167853740Y-118355000D01*
X168146260Y-118355000D01*
X168433158Y-118297932D01*
X168703411Y-118185990D01*
X168946632Y-118023475D01*
X169153475Y-117816632D01*
X169315990Y-117573411D01*
X169427932Y-117303158D01*
X169485000Y-117016260D01*
X169485000Y-116723740D01*
X169427932Y-116436842D01*
X169315990Y-116166589D01*
X169153475Y-115923368D01*
X168946632Y-115716525D01*
X168772240Y-115600000D01*
X168946632Y-115483475D01*
X169153475Y-115276632D01*
X169315990Y-115033411D01*
X169427932Y-114763158D01*
X169485000Y-114476260D01*
X169485000Y-114183740D01*
X169427932Y-113896842D01*
X169315990Y-113626589D01*
X169153475Y-113383368D01*
X168946632Y-113176525D01*
X168772240Y-113060000D01*
X168946632Y-112943475D01*
X169153475Y-112736632D01*
X169315990Y-112493411D01*
X169427932Y-112223158D01*
X169485000Y-111936260D01*
X169485000Y-111643740D01*
X169427932Y-111356842D01*
X169315990Y-111086589D01*
X169153475Y-110843368D01*
X168946632Y-110636525D01*
X168772240Y-110520000D01*
X168946632Y-110403475D01*
X169153475Y-110196632D01*
X169315990Y-109953411D01*
X169427932Y-109683158D01*
X169485000Y-109396260D01*
X169485000Y-109103740D01*
X169427932Y-108816842D01*
X169315990Y-108546589D01*
X169153475Y-108303368D01*
X168946632Y-108096525D01*
X168772240Y-107980000D01*
X168946632Y-107863475D01*
X169153475Y-107656632D01*
X169315990Y-107413411D01*
X169427932Y-107143158D01*
X169485000Y-106856260D01*
X169485000Y-106563740D01*
X169427932Y-106276842D01*
X169315990Y-106006589D01*
X169153475Y-105763368D01*
X168946632Y-105556525D01*
X168772240Y-105440000D01*
X168946632Y-105323475D01*
X169153475Y-105116632D01*
X169315990Y-104873411D01*
X169427932Y-104603158D01*
X169485000Y-104316260D01*
X169485000Y-104023740D01*
X169427932Y-103736842D01*
X169315990Y-103466589D01*
X169153475Y-103223368D01*
X168946632Y-103016525D01*
X168772240Y-102900000D01*
X168946632Y-102783475D01*
X169153475Y-102576632D01*
X169315990Y-102333411D01*
X169427932Y-102063158D01*
X169485000Y-101776260D01*
X169485000Y-101483740D01*
X169427932Y-101196842D01*
X169315990Y-100926589D01*
X169153475Y-100683368D01*
X169021620Y-100551513D01*
X169094180Y-100529502D01*
X169204494Y-100470537D01*
X169301185Y-100391185D01*
X169380537Y-100294494D01*
X169439502Y-100184180D01*
X169475812Y-100064482D01*
X169488072Y-99940000D01*
X169488072Y-98240000D01*
X170261928Y-98240000D01*
X170261928Y-99940000D01*
X170274188Y-100064482D01*
X170310498Y-100184180D01*
X170369463Y-100294494D01*
X170448815Y-100391185D01*
X170545506Y-100470537D01*
X170655820Y-100529502D01*
X170728380Y-100551513D01*
X170596525Y-100683368D01*
X170434010Y-100926589D01*
X170322068Y-101196842D01*
X170265000Y-101483740D01*
X170265000Y-101776260D01*
X170322068Y-102063158D01*
X170434010Y-102333411D01*
X170596525Y-102576632D01*
X170803368Y-102783475D01*
X170977760Y-102900000D01*
X170803368Y-103016525D01*
X170596525Y-103223368D01*
X170434010Y-103466589D01*
X170322068Y-103736842D01*
X170265000Y-104023740D01*
X170265000Y-104316260D01*
X170322068Y-104603158D01*
X170434010Y-104873411D01*
X170596525Y-105116632D01*
X170803368Y-105323475D01*
X170977760Y-105440000D01*
X170803368Y-105556525D01*
X170596525Y-105763368D01*
X170434010Y-106006589D01*
X170322068Y-106276842D01*
X170265000Y-106563740D01*
X170265000Y-106856260D01*
X170322068Y-107143158D01*
X170434010Y-107413411D01*
X170596525Y-107656632D01*
X170803368Y-107863475D01*
X170977760Y-107980000D01*
X170803368Y-108096525D01*
X170596525Y-108303368D01*
X170434010Y-108546589D01*
X170322068Y-108816842D01*
X170265000Y-109103740D01*
X170265000Y-109396260D01*
X170322068Y-109683158D01*
X170434010Y-109953411D01*
X170596525Y-110196632D01*
X170803368Y-110403475D01*
X170977760Y-110520000D01*
X170803368Y-110636525D01*
X170596525Y-110843368D01*
X170434010Y-111086589D01*
X170322068Y-111356842D01*
X170265000Y-111643740D01*
X170265000Y-111936260D01*
X170322068Y-112223158D01*
X170434010Y-112493411D01*
X170596525Y-112736632D01*
X170803368Y-112943475D01*
X170977760Y-113060000D01*
X170803368Y-113176525D01*
X170596525Y-113383368D01*
X170434010Y-113626589D01*
X170322068Y-113896842D01*
X170265000Y-114183740D01*
X170265000Y-114476260D01*
X170322068Y-114763158D01*
X170434010Y-115033411D01*
X170596525Y-115276632D01*
X170803368Y-115483475D01*
X170977760Y-115600000D01*
X170803368Y-115716525D01*
X170596525Y-115923368D01*
X170434010Y-116166589D01*
X170322068Y-116436842D01*
X170265000Y-116723740D01*
X170265000Y-117016260D01*
X170322068Y-117303158D01*
X170434010Y-117573411D01*
X170596525Y-117816632D01*
X170803368Y-118023475D01*
X171046589Y-118185990D01*
X171316842Y-118297932D01*
X171603740Y-118355000D01*
X171896260Y-118355000D01*
X172183158Y-118297932D01*
X172453411Y-118185990D01*
X172696632Y-118023475D01*
X172903475Y-117816632D01*
X173065990Y-117573411D01*
X173160412Y-117345455D01*
X173224761Y-117486961D01*
X173365592Y-117682924D01*
X173541948Y-117847647D01*
X173747051Y-117974799D01*
X173973019Y-118059495D01*
X174163000Y-117999187D01*
X174163000Y-116997000D01*
X174417000Y-116997000D01*
X174417000Y-117999187D01*
X174606981Y-118059495D01*
X174832949Y-117974799D01*
X175038052Y-117847647D01*
X175214408Y-117682924D01*
X175355239Y-117486961D01*
X175455134Y-117267288D01*
X175479489Y-117186980D01*
X175418627Y-116997000D01*
X174417000Y-116997000D01*
X174163000Y-116997000D01*
X174143000Y-116997000D01*
X174143000Y-116743000D01*
X174163000Y-116743000D01*
X174163000Y-115740813D01*
X174417000Y-115740813D01*
X174417000Y-116743000D01*
X175418627Y-116743000D01*
X175479489Y-116553020D01*
X175455134Y-116472712D01*
X175355239Y-116253039D01*
X175214408Y-116057076D01*
X175038052Y-115892353D01*
X174832949Y-115765201D01*
X174606981Y-115680505D01*
X174417000Y-115740813D01*
X174163000Y-115740813D01*
X173973019Y-115680505D01*
X173747051Y-115765201D01*
X173541948Y-115892353D01*
X173365592Y-116057076D01*
X173224761Y-116253039D01*
X173160412Y-116394545D01*
X173065990Y-116166589D01*
X172903475Y-115923368D01*
X172696632Y-115716525D01*
X172522240Y-115600000D01*
X172696632Y-115483475D01*
X172903475Y-115276632D01*
X173065990Y-115033411D01*
X173160412Y-114805455D01*
X173224761Y-114946961D01*
X173365592Y-115142924D01*
X173541948Y-115307647D01*
X173747051Y-115434799D01*
X173973019Y-115519495D01*
X174163000Y-115459187D01*
X174163000Y-114457000D01*
X174417000Y-114457000D01*
X174417000Y-115459187D01*
X174606981Y-115519495D01*
X174832949Y-115434799D01*
X175038052Y-115307647D01*
X175214408Y-115142924D01*
X175355239Y-114946961D01*
X175455134Y-114727288D01*
X175479489Y-114646980D01*
X175418627Y-114457000D01*
X174417000Y-114457000D01*
X174163000Y-114457000D01*
X174143000Y-114457000D01*
X174143000Y-114203000D01*
X174163000Y-114203000D01*
X174163000Y-113200813D01*
X174417000Y-113200813D01*
X174417000Y-114203000D01*
X175418627Y-114203000D01*
X175479489Y-114013020D01*
X175455134Y-113932712D01*
X175355239Y-113713039D01*
X175214408Y-113517076D01*
X175038052Y-113352353D01*
X174832949Y-113225201D01*
X174606981Y-113140505D01*
X174417000Y-113200813D01*
X174163000Y-113200813D01*
X173973019Y-113140505D01*
X173747051Y-113225201D01*
X173541948Y-113352353D01*
X173365592Y-113517076D01*
X173224761Y-113713039D01*
X173160412Y-113854545D01*
X173065990Y-113626589D01*
X172903475Y-113383368D01*
X172696632Y-113176525D01*
X172522240Y-113060000D01*
X172696632Y-112943475D01*
X172903475Y-112736632D01*
X173065990Y-112493411D01*
X173160412Y-112265455D01*
X173224761Y-112406961D01*
X173365592Y-112602924D01*
X173541948Y-112767647D01*
X173747051Y-112894799D01*
X173973019Y-112979495D01*
X174163000Y-112919187D01*
X174163000Y-111917000D01*
X174417000Y-111917000D01*
X174417000Y-112919187D01*
X174606981Y-112979495D01*
X174832949Y-112894799D01*
X175038052Y-112767647D01*
X175214408Y-112602924D01*
X175355239Y-112406961D01*
X175455134Y-112187288D01*
X175479489Y-112106980D01*
X175418627Y-111917000D01*
X174417000Y-111917000D01*
X174163000Y-111917000D01*
X174143000Y-111917000D01*
X174143000Y-111663000D01*
X174163000Y-111663000D01*
X174163000Y-110660813D01*
X174417000Y-110660813D01*
X174417000Y-111663000D01*
X175418627Y-111663000D01*
X175479489Y-111473020D01*
X175455134Y-111392712D01*
X175355239Y-111173039D01*
X175214408Y-110977076D01*
X175038052Y-110812353D01*
X174832949Y-110685201D01*
X174606981Y-110600505D01*
X174417000Y-110660813D01*
X174163000Y-110660813D01*
X173973019Y-110600505D01*
X173747051Y-110685201D01*
X173541948Y-110812353D01*
X173365592Y-110977076D01*
X173224761Y-111173039D01*
X173160412Y-111314545D01*
X173065990Y-111086589D01*
X172903475Y-110843368D01*
X172696632Y-110636525D01*
X172522240Y-110520000D01*
X172696632Y-110403475D01*
X172903475Y-110196632D01*
X173065990Y-109953411D01*
X173160412Y-109725455D01*
X173224761Y-109866961D01*
X173365592Y-110062924D01*
X173541948Y-110227647D01*
X173747051Y-110354799D01*
X173973019Y-110439495D01*
X174163000Y-110379187D01*
X174163000Y-109377000D01*
X174417000Y-109377000D01*
X174417000Y-110379187D01*
X174606981Y-110439495D01*
X174832949Y-110354799D01*
X175038052Y-110227647D01*
X175214408Y-110062924D01*
X175355239Y-109866961D01*
X175455134Y-109647288D01*
X175479489Y-109566980D01*
X175418627Y-109377000D01*
X174417000Y-109377000D01*
X174163000Y-109377000D01*
X174143000Y-109377000D01*
X174143000Y-109123000D01*
X174163000Y-109123000D01*
X174163000Y-108120813D01*
X174417000Y-108120813D01*
X174417000Y-109123000D01*
X175418627Y-109123000D01*
X175479489Y-108933020D01*
X175455134Y-108852712D01*
X175355239Y-108633039D01*
X175214408Y-108437076D01*
X175038052Y-108272353D01*
X174832949Y-108145201D01*
X174606981Y-108060505D01*
X174417000Y-108120813D01*
X174163000Y-108120813D01*
X173973019Y-108060505D01*
X173747051Y-108145201D01*
X173541948Y-108272353D01*
X173365592Y-108437076D01*
X173224761Y-108633039D01*
X173160412Y-108774545D01*
X173065990Y-108546589D01*
X172903475Y-108303368D01*
X172696632Y-108096525D01*
X172522240Y-107980000D01*
X172696632Y-107863475D01*
X172903475Y-107656632D01*
X173065990Y-107413411D01*
X173160412Y-107185455D01*
X173224761Y-107326961D01*
X173365592Y-107522924D01*
X173541948Y-107687647D01*
X173747051Y-107814799D01*
X173973019Y-107899495D01*
X174163000Y-107839187D01*
X174163000Y-106837000D01*
X174417000Y-106837000D01*
X174417000Y-107839187D01*
X174606981Y-107899495D01*
X174832949Y-107814799D01*
X175038052Y-107687647D01*
X175214408Y-107522924D01*
X175355239Y-107326961D01*
X175455134Y-107107288D01*
X175479489Y-107026980D01*
X175418627Y-106837000D01*
X174417000Y-106837000D01*
X174163000Y-106837000D01*
X174143000Y-106837000D01*
X174143000Y-106583000D01*
X174163000Y-106583000D01*
X174163000Y-105580813D01*
X174417000Y-105580813D01*
X174417000Y-106583000D01*
X175418627Y-106583000D01*
X175479489Y-106393020D01*
X175455134Y-106312712D01*
X175355239Y-106093039D01*
X175214408Y-105897076D01*
X175038052Y-105732353D01*
X174832949Y-105605201D01*
X174606981Y-105520505D01*
X174417000Y-105580813D01*
X174163000Y-105580813D01*
X173973019Y-105520505D01*
X173747051Y-105605201D01*
X173541948Y-105732353D01*
X173365592Y-105897076D01*
X173224761Y-106093039D01*
X173160412Y-106234545D01*
X173065990Y-106006589D01*
X172903475Y-105763368D01*
X172696632Y-105556525D01*
X172522240Y-105440000D01*
X172696632Y-105323475D01*
X172903475Y-105116632D01*
X173065990Y-104873411D01*
X173160412Y-104645455D01*
X173224761Y-104786961D01*
X173365592Y-104982924D01*
X173541948Y-105147647D01*
X173747051Y-105274799D01*
X173973019Y-105359495D01*
X174163000Y-105299187D01*
X174163000Y-104297000D01*
X174417000Y-104297000D01*
X174417000Y-105299187D01*
X174606981Y-105359495D01*
X174832949Y-105274799D01*
X175038052Y-105147647D01*
X175214408Y-104982924D01*
X175355239Y-104786961D01*
X175455134Y-104567288D01*
X175479489Y-104486980D01*
X175418627Y-104297000D01*
X174417000Y-104297000D01*
X174163000Y-104297000D01*
X174143000Y-104297000D01*
X174143000Y-104043000D01*
X174163000Y-104043000D01*
X174163000Y-103040813D01*
X174417000Y-103040813D01*
X174417000Y-104043000D01*
X175418627Y-104043000D01*
X175479489Y-103853020D01*
X175455134Y-103772712D01*
X175355239Y-103553039D01*
X175214408Y-103357076D01*
X175038052Y-103192353D01*
X174832949Y-103065201D01*
X174606981Y-102980505D01*
X174417000Y-103040813D01*
X174163000Y-103040813D01*
X173973019Y-102980505D01*
X173747051Y-103065201D01*
X173541948Y-103192353D01*
X173365592Y-103357076D01*
X173224761Y-103553039D01*
X173160412Y-103694545D01*
X173065990Y-103466589D01*
X172903475Y-103223368D01*
X172696632Y-103016525D01*
X172522240Y-102900000D01*
X172696632Y-102783475D01*
X172903475Y-102576632D01*
X173065990Y-102333411D01*
X173160412Y-102105455D01*
X173224761Y-102246961D01*
X173365592Y-102442924D01*
X173541948Y-102607647D01*
X173747051Y-102734799D01*
X173973019Y-102819495D01*
X174163000Y-102759187D01*
X174163000Y-101757000D01*
X174417000Y-101757000D01*
X174417000Y-102759187D01*
X174606981Y-102819495D01*
X174832949Y-102734799D01*
X175038052Y-102607647D01*
X175214408Y-102442924D01*
X175355239Y-102246961D01*
X175455134Y-102027288D01*
X175479489Y-101946980D01*
X175418627Y-101757000D01*
X174417000Y-101757000D01*
X174163000Y-101757000D01*
X174143000Y-101757000D01*
X174143000Y-101503000D01*
X174163000Y-101503000D01*
X174163000Y-100500813D01*
X174417000Y-100500813D01*
X174417000Y-101503000D01*
X175418627Y-101503000D01*
X175479489Y-101313020D01*
X175455134Y-101232712D01*
X175355239Y-101013039D01*
X175214408Y-100817076D01*
X175038052Y-100652353D01*
X174832949Y-100525201D01*
X174606981Y-100440505D01*
X174417000Y-100500813D01*
X174163000Y-100500813D01*
X173973019Y-100440505D01*
X173747051Y-100525201D01*
X173541948Y-100652353D01*
X173365592Y-100817076D01*
X173224761Y-101013039D01*
X173160412Y-101154545D01*
X173065990Y-100926589D01*
X172903475Y-100683368D01*
X172771620Y-100551513D01*
X172844180Y-100529502D01*
X172954494Y-100470537D01*
X173051185Y-100391185D01*
X173130537Y-100294494D01*
X173189502Y-100184180D01*
X173225812Y-100064482D01*
X173238072Y-99940000D01*
X173238072Y-99725483D01*
X173365592Y-99902924D01*
X173541948Y-100067647D01*
X173747051Y-100194799D01*
X173973019Y-100279495D01*
X174163000Y-100219187D01*
X174163000Y-99217000D01*
X174417000Y-99217000D01*
X174417000Y-100219187D01*
X174606981Y-100279495D01*
X174832949Y-100194799D01*
X175038052Y-100067647D01*
X175214408Y-99902924D01*
X175355239Y-99706961D01*
X175455134Y-99487288D01*
X175479489Y-99406980D01*
X175418627Y-99217000D01*
X174417000Y-99217000D01*
X174163000Y-99217000D01*
X174143000Y-99217000D01*
X174143000Y-98963000D01*
X174163000Y-98963000D01*
X174163000Y-97960813D01*
X174417000Y-97960813D01*
X174417000Y-98963000D01*
X175418627Y-98963000D01*
X175479489Y-98773020D01*
X175455134Y-98692712D01*
X175355239Y-98473039D01*
X175214408Y-98277076D01*
X175038052Y-98112353D01*
X174832949Y-97985201D01*
X174606981Y-97900505D01*
X174417000Y-97960813D01*
X174163000Y-97960813D01*
X173973019Y-97900505D01*
X173747051Y-97985201D01*
X173541948Y-98112353D01*
X173365592Y-98277076D01*
X173238072Y-98454517D01*
X173238072Y-98240000D01*
X173225812Y-98115518D01*
X173189502Y-97995820D01*
X173130537Y-97885506D01*
X173051185Y-97788815D01*
X172954494Y-97709463D01*
X172844180Y-97650498D01*
X172724482Y-97614188D01*
X172600000Y-97601928D01*
X170900000Y-97601928D01*
X170775518Y-97614188D01*
X170655820Y-97650498D01*
X170545506Y-97709463D01*
X170448815Y-97788815D01*
X170369463Y-97885506D01*
X170310498Y-97995820D01*
X170274188Y-98115518D01*
X170261928Y-98240000D01*
X169488072Y-98240000D01*
X169475812Y-98115518D01*
X169439502Y-97995820D01*
X169380537Y-97885506D01*
X169301185Y-97788815D01*
X169204494Y-97709463D01*
X169094180Y-97650498D01*
X168974482Y-97614188D01*
X168850000Y-97601928D01*
X167150000Y-97601928D01*
X167025518Y-97614188D01*
X166905820Y-97650498D01*
X166795506Y-97709463D01*
X166698815Y-97788815D01*
X166619463Y-97885506D01*
X166560498Y-97995820D01*
X166524188Y-98115518D01*
X166511928Y-98240000D01*
X156327000Y-98240000D01*
X156327000Y-97500000D01*
X156324560Y-97475224D01*
X156317333Y-97451399D01*
X156305597Y-97429443D01*
X156289803Y-97410197D01*
X156039803Y-97160197D01*
X156020557Y-97144403D01*
X155998601Y-97132667D01*
X155974776Y-97125440D01*
X155950000Y-97123000D01*
X151302606Y-97123000D01*
X151127000Y-96947394D01*
X151127000Y-95302606D01*
X151302606Y-95127000D01*
X184340000Y-95127000D01*
X184340001Y-118623000D01*
G37*
X184340001Y-118623000D02*
X155252606Y-118623000D01*
X155132793Y-118503187D01*
X155135000Y-118492089D01*
X155135000Y-118307911D01*
X155099068Y-118127271D01*
X155077000Y-118073994D01*
X155077000Y-112500000D01*
X155074560Y-112475224D01*
X155067333Y-112451399D01*
X155055597Y-112429443D01*
X155039803Y-112410197D01*
X154789803Y-112160197D01*
X154770557Y-112144403D01*
X154748601Y-112132667D01*
X154724776Y-112125440D01*
X154700000Y-112123000D01*
X149362447Y-112123000D01*
X149031932Y-111792485D01*
X148999068Y-111627271D01*
X148928586Y-111457111D01*
X148826262Y-111303972D01*
X148696028Y-111173738D01*
X148542889Y-111071414D01*
X148372729Y-111000932D01*
X148192089Y-110965000D01*
X148007911Y-110965000D01*
X147827271Y-111000932D01*
X147700000Y-111053649D01*
X147627000Y-111023412D01*
X147627000Y-109660000D01*
X149465000Y-109660000D01*
X149465000Y-110750000D01*
X149477201Y-110873882D01*
X149513336Y-110993004D01*
X149572017Y-111102787D01*
X149650987Y-111199013D01*
X149673000Y-111221026D01*
X149673000Y-111250000D01*
X149675440Y-111274776D01*
X149682667Y-111298601D01*
X149694403Y-111320557D01*
X149710197Y-111339803D01*
X149960197Y-111589803D01*
X149979443Y-111605597D01*
X150001399Y-111617333D01*
X150025224Y-111624560D01*
X150050000Y-111627000D01*
X150268773Y-111627000D01*
X150350000Y-111635000D01*
X155500000Y-111635000D01*
X155581227Y-111627000D01*
X155950000Y-111627000D01*
X155974776Y-111624560D01*
X155998601Y-111617333D01*
X156020557Y-111605597D01*
X156039803Y-111589803D01*
X156289803Y-111339803D01*
X156305597Y-111320557D01*
X156317333Y-111298601D01*
X156324560Y-111274776D01*
X156327000Y-111250000D01*
X156327000Y-111011084D01*
X156336664Y-110993004D01*
X156372799Y-110873882D01*
X156385000Y-110750000D01*
X156385000Y-98750000D01*
X156372799Y-98626118D01*
X156336664Y-98506996D01*
X156327000Y-98488916D01*
X156327000Y-98240000D01*
X166511928Y-98240000D01*
X166511928Y-99940000D01*
X166524188Y-100064482D01*
X166560498Y-100184180D01*
X166619463Y-100294494D01*
X166698815Y-100391185D01*
X166795506Y-100470537D01*
X166905820Y-100529502D01*
X166978380Y-100551513D01*
X166846525Y-100683368D01*
X166684010Y-100926589D01*
X166572068Y-101196842D01*
X166515000Y-101483740D01*
X166515000Y-101776260D01*
X166572068Y-102063158D01*
X166684010Y-102333411D01*
X166846525Y-102576632D01*
X167053368Y-102783475D01*
X167227760Y-102900000D01*
X167053368Y-103016525D01*
X166846525Y-103223368D01*
X166684010Y-103466589D01*
X166572068Y-103736842D01*
X166515000Y-104023740D01*
X166515000Y-104316260D01*
X166572068Y-104603158D01*
X166684010Y-104873411D01*
X166846525Y-105116632D01*
X167053368Y-105323475D01*
X167227760Y-105440000D01*
X167053368Y-105556525D01*
X166846525Y-105763368D01*
X166684010Y-106006589D01*
X166572068Y-106276842D01*
X166515000Y-106563740D01*
X166515000Y-106856260D01*
X166572068Y-107143158D01*
X166684010Y-107413411D01*
X166846525Y-107656632D01*
X167053368Y-107863475D01*
X167227760Y-107980000D01*
X167053368Y-108096525D01*
X166846525Y-108303368D01*
X166684010Y-108546589D01*
X166572068Y-108816842D01*
X166515000Y-109103740D01*
X166515000Y-109396260D01*
X166572068Y-109683158D01*
X166684010Y-109953411D01*
X166846525Y-110196632D01*
X167053368Y-110403475D01*
X167227760Y-110520000D01*
X167053368Y-110636525D01*
X166846525Y-110843368D01*
X166684010Y-111086589D01*
X166572068Y-111356842D01*
X166515000Y-111643740D01*
X166515000Y-111936260D01*
X166572068Y-112223158D01*
X166684010Y-112493411D01*
X166846525Y-112736632D01*
X167053368Y-112943475D01*
X167227760Y-113060000D01*
X167053368Y-113176525D01*
X166846525Y-113383368D01*
X166684010Y-113626589D01*
X166572068Y-113896842D01*
X166515000Y-114183740D01*
X166515000Y-114476260D01*
X166572068Y-114763158D01*
X166684010Y-115033411D01*
X166846525Y-115276632D01*
X167053368Y-115483475D01*
X167227760Y-115600000D01*
X167053368Y-115716525D01*
X166846525Y-115923368D01*
X166684010Y-116166589D01*
X166572068Y-116436842D01*
X166515000Y-116723740D01*
X166515000Y-117016260D01*
X166572068Y-117303158D01*
X166684010Y-117573411D01*
X166846525Y-117816632D01*
X167053368Y-118023475D01*
X167296589Y-118185990D01*
X167566842Y-118297932D01*
X167853740Y-118355000D01*
X168146260Y-118355000D01*
X168433158Y-118297932D01*
X168703411Y-118185990D01*
X168946632Y-118023475D01*
X169153475Y-117816632D01*
X169315990Y-117573411D01*
X169427932Y-117303158D01*
X169485000Y-117016260D01*
X169485000Y-116723740D01*
X169427932Y-116436842D01*
X169315990Y-116166589D01*
X169153475Y-115923368D01*
X168946632Y-115716525D01*
X168772240Y-115600000D01*
X168946632Y-115483475D01*
X169153475Y-115276632D01*
X169315990Y-115033411D01*
X169427932Y-114763158D01*
X169485000Y-114476260D01*
X169485000Y-114183740D01*
X169427932Y-113896842D01*
X169315990Y-113626589D01*
X169153475Y-113383368D01*
X168946632Y-113176525D01*
X168772240Y-113060000D01*
X168946632Y-112943475D01*
X169153475Y-112736632D01*
X169315990Y-112493411D01*
X169427932Y-112223158D01*
X169485000Y-111936260D01*
X169485000Y-111643740D01*
X169427932Y-111356842D01*
X169315990Y-111086589D01*
X169153475Y-110843368D01*
X168946632Y-110636525D01*
X168772240Y-110520000D01*
X168946632Y-110403475D01*
X169153475Y-110196632D01*
X169315990Y-109953411D01*
X169427932Y-109683158D01*
X169485000Y-109396260D01*
X169485000Y-109103740D01*
X169427932Y-108816842D01*
X169315990Y-108546589D01*
X169153475Y-108303368D01*
X168946632Y-108096525D01*
X168772240Y-107980000D01*
X168946632Y-107863475D01*
X169153475Y-107656632D01*
X169315990Y-107413411D01*
X169427932Y-107143158D01*
X169485000Y-106856260D01*
X169485000Y-106563740D01*
X169427932Y-106276842D01*
X169315990Y-106006589D01*
X169153475Y-105763368D01*
X168946632Y-105556525D01*
X168772240Y-105440000D01*
X168946632Y-105323475D01*
X169153475Y-105116632D01*
X169315990Y-104873411D01*
X169427932Y-104603158D01*
X169485000Y-104316260D01*
X169485000Y-104023740D01*
X169427932Y-103736842D01*
X169315990Y-103466589D01*
X169153475Y-103223368D01*
X168946632Y-103016525D01*
X168772240Y-102900000D01*
X168946632Y-102783475D01*
X169153475Y-102576632D01*
X169315990Y-102333411D01*
X169427932Y-102063158D01*
X169485000Y-101776260D01*
X169485000Y-101483740D01*
X169427932Y-101196842D01*
X169315990Y-100926589D01*
X169153475Y-100683368D01*
X169021620Y-100551513D01*
X169094180Y-100529502D01*
X169204494Y-100470537D01*
X169301185Y-100391185D01*
X169380537Y-100294494D01*
X169439502Y-100184180D01*
X169475812Y-100064482D01*
X169488072Y-99940000D01*
X169488072Y-98240000D01*
X170261928Y-98240000D01*
X170261928Y-99940000D01*
X170274188Y-100064482D01*
X170310498Y-100184180D01*
X170369463Y-100294494D01*
X170448815Y-100391185D01*
X170545506Y-100470537D01*
X170655820Y-100529502D01*
X170728380Y-100551513D01*
X170596525Y-100683368D01*
X170434010Y-100926589D01*
X170322068Y-101196842D01*
X170265000Y-101483740D01*
X170265000Y-101776260D01*
X170322068Y-102063158D01*
X170434010Y-102333411D01*
X170596525Y-102576632D01*
X170803368Y-102783475D01*
X170977760Y-102900000D01*
X170803368Y-103016525D01*
X170596525Y-103223368D01*
X170434010Y-103466589D01*
X170322068Y-103736842D01*
X170265000Y-104023740D01*
X170265000Y-104316260D01*
X170322068Y-104603158D01*
X170434010Y-104873411D01*
X170596525Y-105116632D01*
X170803368Y-105323475D01*
X170977760Y-105440000D01*
X170803368Y-105556525D01*
X170596525Y-105763368D01*
X170434010Y-106006589D01*
X170322068Y-106276842D01*
X170265000Y-106563740D01*
X170265000Y-106856260D01*
X170322068Y-107143158D01*
X170434010Y-107413411D01*
X170596525Y-107656632D01*
X170803368Y-107863475D01*
X170977760Y-107980000D01*
X170803368Y-108096525D01*
X170596525Y-108303368D01*
X170434010Y-108546589D01*
X170322068Y-108816842D01*
X170265000Y-109103740D01*
X170265000Y-109396260D01*
X170322068Y-109683158D01*
X170434010Y-109953411D01*
X170596525Y-110196632D01*
X170803368Y-110403475D01*
X170977760Y-110520000D01*
X170803368Y-110636525D01*
X170596525Y-110843368D01*
X170434010Y-111086589D01*
X170322068Y-111356842D01*
X170265000Y-111643740D01*
X170265000Y-111936260D01*
X170322068Y-112223158D01*
X170434010Y-112493411D01*
X170596525Y-112736632D01*
X170803368Y-112943475D01*
X170977760Y-113060000D01*
X170803368Y-113176525D01*
X170596525Y-113383368D01*
X170434010Y-113626589D01*
X170322068Y-113896842D01*
X170265000Y-114183740D01*
X170265000Y-114476260D01*
X170322068Y-114763158D01*
X170434010Y-115033411D01*
X170596525Y-115276632D01*
X170803368Y-115483475D01*
X170977760Y-115600000D01*
X170803368Y-115716525D01*
X170596525Y-115923368D01*
X170434010Y-116166589D01*
X170322068Y-116436842D01*
X170265000Y-116723740D01*
X170265000Y-117016260D01*
X170322068Y-117303158D01*
X170434010Y-117573411D01*
X170596525Y-117816632D01*
X170803368Y-118023475D01*
X171046589Y-118185990D01*
X171316842Y-118297932D01*
X171603740Y-118355000D01*
X171896260Y-118355000D01*
X172183158Y-118297932D01*
X172453411Y-118185990D01*
X172696632Y-118023475D01*
X172903475Y-117816632D01*
X173065990Y-117573411D01*
X173160412Y-117345455D01*
X173224761Y-117486961D01*
X173365592Y-117682924D01*
X173541948Y-117847647D01*
X173747051Y-117974799D01*
X173973019Y-118059495D01*
X174163000Y-117999187D01*
X174163000Y-116997000D01*
X174417000Y-116997000D01*
X174417000Y-117999187D01*
X174606981Y-118059495D01*
X174832949Y-117974799D01*
X175038052Y-117847647D01*
X175214408Y-117682924D01*
X175355239Y-117486961D01*
X175455134Y-117267288D01*
X175479489Y-117186980D01*
X175418627Y-116997000D01*
X174417000Y-116997000D01*
X174163000Y-116997000D01*
X174143000Y-116997000D01*
X174143000Y-116743000D01*
X174163000Y-116743000D01*
X174163000Y-115740813D01*
X174417000Y-115740813D01*
X174417000Y-116743000D01*
X175418627Y-116743000D01*
X175479489Y-116553020D01*
X175455134Y-116472712D01*
X175355239Y-116253039D01*
X175214408Y-116057076D01*
X175038052Y-115892353D01*
X174832949Y-115765201D01*
X174606981Y-115680505D01*
X174417000Y-115740813D01*
X174163000Y-115740813D01*
X173973019Y-115680505D01*
X173747051Y-115765201D01*
X173541948Y-115892353D01*
X173365592Y-116057076D01*
X173224761Y-116253039D01*
X173160412Y-116394545D01*
X173065990Y-116166589D01*
X172903475Y-115923368D01*
X172696632Y-115716525D01*
X172522240Y-115600000D01*
X172696632Y-115483475D01*
X172903475Y-115276632D01*
X173065990Y-115033411D01*
X173160412Y-114805455D01*
X173224761Y-114946961D01*
X173365592Y-115142924D01*
X173541948Y-115307647D01*
X173747051Y-115434799D01*
X173973019Y-115519495D01*
X174163000Y-115459187D01*
X174163000Y-114457000D01*
X174417000Y-114457000D01*
X174417000Y-115459187D01*
X174606981Y-115519495D01*
X174832949Y-115434799D01*
X175038052Y-115307647D01*
X175214408Y-115142924D01*
X175355239Y-114946961D01*
X175455134Y-114727288D01*
X175479489Y-114646980D01*
X175418627Y-114457000D01*
X174417000Y-114457000D01*
X174163000Y-114457000D01*
X174143000Y-114457000D01*
X174143000Y-114203000D01*
X174163000Y-114203000D01*
X174163000Y-113200813D01*
X174417000Y-113200813D01*
X174417000Y-114203000D01*
X175418627Y-114203000D01*
X175479489Y-114013020D01*
X175455134Y-113932712D01*
X175355239Y-113713039D01*
X175214408Y-113517076D01*
X175038052Y-113352353D01*
X174832949Y-113225201D01*
X174606981Y-113140505D01*
X174417000Y-113200813D01*
X174163000Y-113200813D01*
X173973019Y-113140505D01*
X173747051Y-113225201D01*
X173541948Y-113352353D01*
X173365592Y-113517076D01*
X173224761Y-113713039D01*
X173160412Y-113854545D01*
X173065990Y-113626589D01*
X172903475Y-113383368D01*
X172696632Y-113176525D01*
X172522240Y-113060000D01*
X172696632Y-112943475D01*
X172903475Y-112736632D01*
X173065990Y-112493411D01*
X173160412Y-112265455D01*
X173224761Y-112406961D01*
X173365592Y-112602924D01*
X173541948Y-112767647D01*
X173747051Y-112894799D01*
X173973019Y-112979495D01*
X174163000Y-112919187D01*
X174163000Y-111917000D01*
X174417000Y-111917000D01*
X174417000Y-112919187D01*
X174606981Y-112979495D01*
X174832949Y-112894799D01*
X175038052Y-112767647D01*
X175214408Y-112602924D01*
X175355239Y-112406961D01*
X175455134Y-112187288D01*
X175479489Y-112106980D01*
X175418627Y-111917000D01*
X174417000Y-111917000D01*
X174163000Y-111917000D01*
X174143000Y-111917000D01*
X174143000Y-111663000D01*
X174163000Y-111663000D01*
X174163000Y-110660813D01*
X174417000Y-110660813D01*
X174417000Y-111663000D01*
X175418627Y-111663000D01*
X175479489Y-111473020D01*
X175455134Y-111392712D01*
X175355239Y-111173039D01*
X175214408Y-110977076D01*
X175038052Y-110812353D01*
X174832949Y-110685201D01*
X174606981Y-110600505D01*
X174417000Y-110660813D01*
X174163000Y-110660813D01*
X173973019Y-110600505D01*
X173747051Y-110685201D01*
X173541948Y-110812353D01*
X173365592Y-110977076D01*
X173224761Y-111173039D01*
X173160412Y-111314545D01*
X173065990Y-111086589D01*
X172903475Y-110843368D01*
X172696632Y-110636525D01*
X172522240Y-110520000D01*
X172696632Y-110403475D01*
X172903475Y-110196632D01*
X173065990Y-109953411D01*
X173160412Y-109725455D01*
X173224761Y-109866961D01*
X173365592Y-110062924D01*
X173541948Y-110227647D01*
X173747051Y-110354799D01*
X173973019Y-110439495D01*
X174163000Y-110379187D01*
X174163000Y-109377000D01*
X174417000Y-109377000D01*
X174417000Y-110379187D01*
X174606981Y-110439495D01*
X174832949Y-110354799D01*
X175038052Y-110227647D01*
X175214408Y-110062924D01*
X175355239Y-109866961D01*
X175455134Y-109647288D01*
X175479489Y-109566980D01*
X175418627Y-109377000D01*
X174417000Y-109377000D01*
X174163000Y-109377000D01*
X174143000Y-109377000D01*
X174143000Y-109123000D01*
X174163000Y-109123000D01*
X174163000Y-108120813D01*
X174417000Y-108120813D01*
X174417000Y-109123000D01*
X175418627Y-109123000D01*
X175479489Y-108933020D01*
X175455134Y-108852712D01*
X175355239Y-108633039D01*
X175214408Y-108437076D01*
X175038052Y-108272353D01*
X174832949Y-108145201D01*
X174606981Y-108060505D01*
X174417000Y-108120813D01*
X174163000Y-108120813D01*
X173973019Y-108060505D01*
X173747051Y-108145201D01*
X173541948Y-108272353D01*
X173365592Y-108437076D01*
X173224761Y-108633039D01*
X173160412Y-108774545D01*
X173065990Y-108546589D01*
X172903475Y-108303368D01*
X172696632Y-108096525D01*
X172522240Y-107980000D01*
X172696632Y-107863475D01*
X172903475Y-107656632D01*
X173065990Y-107413411D01*
X173160412Y-107185455D01*
X173224761Y-107326961D01*
X173365592Y-107522924D01*
X173541948Y-107687647D01*
X173747051Y-107814799D01*
X173973019Y-107899495D01*
X174163000Y-107839187D01*
X174163000Y-106837000D01*
X174417000Y-106837000D01*
X174417000Y-107839187D01*
X174606981Y-107899495D01*
X174832949Y-107814799D01*
X175038052Y-107687647D01*
X175214408Y-107522924D01*
X175355239Y-107326961D01*
X175455134Y-107107288D01*
X175479489Y-107026980D01*
X175418627Y-106837000D01*
X174417000Y-106837000D01*
X174163000Y-106837000D01*
X174143000Y-106837000D01*
X174143000Y-106583000D01*
X174163000Y-106583000D01*
X174163000Y-105580813D01*
X174417000Y-105580813D01*
X174417000Y-106583000D01*
X175418627Y-106583000D01*
X175479489Y-106393020D01*
X175455134Y-106312712D01*
X175355239Y-106093039D01*
X175214408Y-105897076D01*
X175038052Y-105732353D01*
X174832949Y-105605201D01*
X174606981Y-105520505D01*
X174417000Y-105580813D01*
X174163000Y-105580813D01*
X173973019Y-105520505D01*
X173747051Y-105605201D01*
X173541948Y-105732353D01*
X173365592Y-105897076D01*
X173224761Y-106093039D01*
X173160412Y-106234545D01*
X173065990Y-106006589D01*
X172903475Y-105763368D01*
X172696632Y-105556525D01*
X172522240Y-105440000D01*
X172696632Y-105323475D01*
X172903475Y-105116632D01*
X173065990Y-104873411D01*
X173160412Y-104645455D01*
X173224761Y-104786961D01*
X173365592Y-104982924D01*
X173541948Y-105147647D01*
X173747051Y-105274799D01*
X173973019Y-105359495D01*
X174163000Y-105299187D01*
X174163000Y-104297000D01*
X174417000Y-104297000D01*
X174417000Y-105299187D01*
X174606981Y-105359495D01*
X174832949Y-105274799D01*
X175038052Y-105147647D01*
X175214408Y-104982924D01*
X175355239Y-104786961D01*
X175455134Y-104567288D01*
X175479489Y-104486980D01*
X175418627Y-104297000D01*
X174417000Y-104297000D01*
X174163000Y-104297000D01*
X174143000Y-104297000D01*
X174143000Y-104043000D01*
X174163000Y-104043000D01*
X174163000Y-103040813D01*
X174417000Y-103040813D01*
X174417000Y-104043000D01*
X175418627Y-104043000D01*
X175479489Y-103853020D01*
X175455134Y-103772712D01*
X175355239Y-103553039D01*
X175214408Y-103357076D01*
X175038052Y-103192353D01*
X174832949Y-103065201D01*
X174606981Y-102980505D01*
X174417000Y-103040813D01*
X174163000Y-103040813D01*
X173973019Y-102980505D01*
X173747051Y-103065201D01*
X173541948Y-103192353D01*
X173365592Y-103357076D01*
X173224761Y-103553039D01*
X173160412Y-103694545D01*
X173065990Y-103466589D01*
X172903475Y-103223368D01*
X172696632Y-103016525D01*
X172522240Y-102900000D01*
X172696632Y-102783475D01*
X172903475Y-102576632D01*
X173065990Y-102333411D01*
X173160412Y-102105455D01*
X173224761Y-102246961D01*
X173365592Y-102442924D01*
X173541948Y-102607647D01*
X173747051Y-102734799D01*
X173973019Y-102819495D01*
X174163000Y-102759187D01*
X174163000Y-101757000D01*
X174417000Y-101757000D01*
X174417000Y-102759187D01*
X174606981Y-102819495D01*
X174832949Y-102734799D01*
X175038052Y-102607647D01*
X175214408Y-102442924D01*
X175355239Y-102246961D01*
X175455134Y-102027288D01*
X175479489Y-101946980D01*
X175418627Y-101757000D01*
X174417000Y-101757000D01*
X174163000Y-101757000D01*
X174143000Y-101757000D01*
X174143000Y-101503000D01*
X174163000Y-101503000D01*
X174163000Y-100500813D01*
X174417000Y-100500813D01*
X174417000Y-101503000D01*
X175418627Y-101503000D01*
X175479489Y-101313020D01*
X175455134Y-101232712D01*
X175355239Y-101013039D01*
X175214408Y-100817076D01*
X175038052Y-100652353D01*
X174832949Y-100525201D01*
X174606981Y-100440505D01*
X174417000Y-100500813D01*
X174163000Y-100500813D01*
X173973019Y-100440505D01*
X173747051Y-100525201D01*
X173541948Y-100652353D01*
X173365592Y-100817076D01*
X173224761Y-101013039D01*
X173160412Y-101154545D01*
X173065990Y-100926589D01*
X172903475Y-100683368D01*
X172771620Y-100551513D01*
X172844180Y-100529502D01*
X172954494Y-100470537D01*
X173051185Y-100391185D01*
X173130537Y-100294494D01*
X173189502Y-100184180D01*
X173225812Y-100064482D01*
X173238072Y-99940000D01*
X173238072Y-99725483D01*
X173365592Y-99902924D01*
X173541948Y-100067647D01*
X173747051Y-100194799D01*
X173973019Y-100279495D01*
X174163000Y-100219187D01*
X174163000Y-99217000D01*
X174417000Y-99217000D01*
X174417000Y-100219187D01*
X174606981Y-100279495D01*
X174832949Y-100194799D01*
X175038052Y-100067647D01*
X175214408Y-99902924D01*
X175355239Y-99706961D01*
X175455134Y-99487288D01*
X175479489Y-99406980D01*
X175418627Y-99217000D01*
X174417000Y-99217000D01*
X174163000Y-99217000D01*
X174143000Y-99217000D01*
X174143000Y-98963000D01*
X174163000Y-98963000D01*
X174163000Y-97960813D01*
X174417000Y-97960813D01*
X174417000Y-98963000D01*
X175418627Y-98963000D01*
X175479489Y-98773020D01*
X175455134Y-98692712D01*
X175355239Y-98473039D01*
X175214408Y-98277076D01*
X175038052Y-98112353D01*
X174832949Y-97985201D01*
X174606981Y-97900505D01*
X174417000Y-97960813D01*
X174163000Y-97960813D01*
X173973019Y-97900505D01*
X173747051Y-97985201D01*
X173541948Y-98112353D01*
X173365592Y-98277076D01*
X173238072Y-98454517D01*
X173238072Y-98240000D01*
X173225812Y-98115518D01*
X173189502Y-97995820D01*
X173130537Y-97885506D01*
X173051185Y-97788815D01*
X172954494Y-97709463D01*
X172844180Y-97650498D01*
X172724482Y-97614188D01*
X172600000Y-97601928D01*
X170900000Y-97601928D01*
X170775518Y-97614188D01*
X170655820Y-97650498D01*
X170545506Y-97709463D01*
X170448815Y-97788815D01*
X170369463Y-97885506D01*
X170310498Y-97995820D01*
X170274188Y-98115518D01*
X170261928Y-98240000D01*
X169488072Y-98240000D01*
X169475812Y-98115518D01*
X169439502Y-97995820D01*
X169380537Y-97885506D01*
X169301185Y-97788815D01*
X169204494Y-97709463D01*
X169094180Y-97650498D01*
X168974482Y-97614188D01*
X168850000Y-97601928D01*
X167150000Y-97601928D01*
X167025518Y-97614188D01*
X166905820Y-97650498D01*
X166795506Y-97709463D01*
X166698815Y-97788815D01*
X166619463Y-97885506D01*
X166560498Y-97995820D01*
X166524188Y-98115518D01*
X166511928Y-98240000D01*
X156327000Y-98240000D01*
X156327000Y-97500000D01*
X156324560Y-97475224D01*
X156317333Y-97451399D01*
X156305597Y-97429443D01*
X156289803Y-97410197D01*
X156039803Y-97160197D01*
X156020557Y-97144403D01*
X155998601Y-97132667D01*
X155974776Y-97125440D01*
X155950000Y-97123000D01*
X151302606Y-97123000D01*
X151127000Y-96947394D01*
X151127000Y-95302606D01*
X151302606Y-95127000D01*
X184340000Y-95127000D01*
X184340001Y-118623000D01*
%TO.N,GND*%
G36*
X180768083Y-83731173D02*
G01*
X181511891Y-83934656D01*
X182207905Y-84266638D01*
X182834130Y-84716626D01*
X183370777Y-85270403D01*
X183800871Y-85910451D01*
X184110829Y-86616553D01*
X184292065Y-87371457D01*
X184340000Y-88024207D01*
X184340000Y-94365000D01*
X151250000Y-94365000D01*
X151126118Y-94377201D01*
X151006996Y-94413336D01*
X150897213Y-94472017D01*
X150800987Y-94550987D01*
X150550987Y-94800987D01*
X150472017Y-94897213D01*
X150413336Y-95006996D01*
X150377201Y-95126118D01*
X150365000Y-95250000D01*
X150365000Y-97000000D01*
X150377201Y-97123882D01*
X150413336Y-97243004D01*
X150472017Y-97352787D01*
X150550987Y-97449013D01*
X150800987Y-97699013D01*
X150897213Y-97777983D01*
X151006996Y-97836664D01*
X151126118Y-97872799D01*
X151250000Y-97885000D01*
X154700408Y-97885000D01*
X154606996Y-97913336D01*
X154497213Y-97972017D01*
X154400987Y-98050987D01*
X154150987Y-98300987D01*
X154072017Y-98397213D01*
X154013336Y-98506996D01*
X153977201Y-98626118D01*
X153965000Y-98750000D01*
X153965000Y-106865000D01*
X150350000Y-106865000D01*
X150226118Y-106877201D01*
X150106996Y-106913336D01*
X149997213Y-106972017D01*
X149950000Y-107010763D01*
X149902787Y-106972017D01*
X149793004Y-106913336D01*
X149673882Y-106877201D01*
X149550000Y-106865000D01*
X147750000Y-106865000D01*
X147626118Y-106877201D01*
X147506996Y-106913336D01*
X147397213Y-106972017D01*
X147300987Y-107050987D01*
X147050987Y-107300987D01*
X146972017Y-107397213D01*
X146913336Y-107506996D01*
X146877201Y-107626118D01*
X146865000Y-107750000D01*
X146865000Y-108040000D01*
X134885513Y-108040000D01*
X131303424Y-104457911D01*
X136665000Y-104457911D01*
X136665000Y-104642089D01*
X136700932Y-104822729D01*
X136771414Y-104992889D01*
X136873738Y-105146028D01*
X137003972Y-105276262D01*
X137157111Y-105378586D01*
X137327271Y-105449068D01*
X137507911Y-105485000D01*
X137645554Y-105485000D01*
X137854741Y-105694187D01*
X137877762Y-105722238D01*
X137989680Y-105814087D01*
X138117367Y-105882337D01*
X138213886Y-105911616D01*
X138255914Y-105924365D01*
X138270132Y-105925765D01*
X138363895Y-105935000D01*
X138363902Y-105935000D01*
X138399999Y-105938555D01*
X138436096Y-105935000D01*
X139367049Y-105935000D01*
X139507111Y-106028586D01*
X139677271Y-106099068D01*
X139857911Y-106135000D01*
X140042089Y-106135000D01*
X140222729Y-106099068D01*
X140392889Y-106028586D01*
X140546028Y-105926262D01*
X140676262Y-105796028D01*
X140778586Y-105642889D01*
X140849068Y-105472729D01*
X140885000Y-105292089D01*
X140885000Y-105107911D01*
X140849068Y-104927271D01*
X140778586Y-104757111D01*
X140676262Y-104603972D01*
X140546028Y-104473738D01*
X140392889Y-104371414D01*
X140222729Y-104300932D01*
X140042089Y-104265000D01*
X139857911Y-104265000D01*
X139677271Y-104300932D01*
X139507111Y-104371414D01*
X139367049Y-104465000D01*
X138704446Y-104465000D01*
X138486588Y-104247142D01*
X138428586Y-104107111D01*
X138326262Y-103953972D01*
X138196028Y-103823738D01*
X138042889Y-103721414D01*
X137872729Y-103650932D01*
X137692089Y-103615000D01*
X137507911Y-103615000D01*
X137327271Y-103650932D01*
X137157111Y-103721414D01*
X137003972Y-103823738D01*
X136873738Y-103953972D01*
X136771414Y-104107111D01*
X136700932Y-104277271D01*
X136665000Y-104457911D01*
X131303424Y-104457911D01*
X131160000Y-104314488D01*
X131160000Y-99257911D01*
X134715000Y-99257911D01*
X134715000Y-99442089D01*
X134750932Y-99622729D01*
X134821414Y-99792889D01*
X134923738Y-99946028D01*
X135053972Y-100076262D01*
X135207111Y-100178586D01*
X135377271Y-100249068D01*
X135542485Y-100281931D01*
X135604747Y-100344193D01*
X135627763Y-100372239D01*
X135739681Y-100464088D01*
X135867368Y-100532338D01*
X136005916Y-100574366D01*
X136113896Y-100585001D01*
X136113905Y-100585001D01*
X136150000Y-100588556D01*
X136180416Y-100585560D01*
X137189048Y-101594193D01*
X137212064Y-101622238D01*
X137240108Y-101645253D01*
X137323982Y-101714087D01*
X137451668Y-101782337D01*
X137590217Y-101824365D01*
X137734302Y-101838556D01*
X137770407Y-101835000D01*
X138345554Y-101835000D01*
X138504741Y-101994187D01*
X138509848Y-102000410D01*
X138573738Y-102096028D01*
X138703972Y-102226262D01*
X138857111Y-102328586D01*
X139027271Y-102399068D01*
X139207911Y-102435000D01*
X139392089Y-102435000D01*
X139572729Y-102399068D01*
X139742889Y-102328586D01*
X139896028Y-102226262D01*
X140026262Y-102096028D01*
X140128586Y-101942889D01*
X140199068Y-101772729D01*
X140235000Y-101592089D01*
X140235000Y-101407911D01*
X140199068Y-101227271D01*
X140128586Y-101057111D01*
X140026262Y-100903972D01*
X140014987Y-100892697D01*
X140035000Y-100792089D01*
X140035000Y-100607911D01*
X139999068Y-100427271D01*
X139928586Y-100257111D01*
X139826262Y-100103972D01*
X139696028Y-99973738D01*
X139542889Y-99871414D01*
X139372729Y-99800932D01*
X139192089Y-99765000D01*
X139007911Y-99765000D01*
X138827271Y-99800932D01*
X138657111Y-99871414D01*
X138517049Y-99965000D01*
X138204446Y-99965000D01*
X138145258Y-99905812D01*
X138145253Y-99905806D01*
X137381932Y-99142485D01*
X137349068Y-98977271D01*
X137278586Y-98807111D01*
X137176262Y-98653972D01*
X137046028Y-98523738D01*
X136892889Y-98421414D01*
X136722729Y-98350932D01*
X136542089Y-98315000D01*
X136357911Y-98315000D01*
X136177271Y-98350932D01*
X136007111Y-98421414D01*
X135947548Y-98461212D01*
X135922729Y-98450932D01*
X135742089Y-98415000D01*
X135557911Y-98415000D01*
X135377271Y-98450932D01*
X135207111Y-98521414D01*
X135053972Y-98623738D01*
X134923738Y-98753972D01*
X134821414Y-98907111D01*
X134750932Y-99077271D01*
X134715000Y-99257911D01*
X131160000Y-99257911D01*
X131160000Y-97189787D01*
X131163919Y-97149999D01*
X131160000Y-97110209D01*
X131148280Y-96991212D01*
X131101963Y-96838527D01*
X131066951Y-96773024D01*
X131026749Y-96697810D01*
X130952970Y-96607911D01*
X130925528Y-96574472D01*
X130894619Y-96549106D01*
X129753424Y-95407911D01*
X135365000Y-95407911D01*
X135365000Y-95592089D01*
X135400932Y-95772729D01*
X135471414Y-95942889D01*
X135573738Y-96096028D01*
X135577710Y-96100000D01*
X135573738Y-96103972D01*
X135471414Y-96257111D01*
X135400932Y-96427271D01*
X135365000Y-96607911D01*
X135365000Y-96792089D01*
X135400932Y-96972729D01*
X135471414Y-97142889D01*
X135573738Y-97296028D01*
X135703972Y-97426262D01*
X135857111Y-97528586D01*
X136027271Y-97599068D01*
X136207911Y-97635000D01*
X136392089Y-97635000D01*
X136572729Y-97599068D01*
X136742889Y-97528586D01*
X136882951Y-97435000D01*
X139693427Y-97435000D01*
X139700932Y-97472729D01*
X139771414Y-97642889D01*
X139873738Y-97796028D01*
X140003972Y-97926262D01*
X140157111Y-98028586D01*
X140327271Y-98099068D01*
X140507911Y-98135000D01*
X140692089Y-98135000D01*
X140872729Y-98099068D01*
X141042889Y-98028586D01*
X141196028Y-97926262D01*
X141326262Y-97796028D01*
X141428586Y-97642889D01*
X141499068Y-97472729D01*
X141535000Y-97292089D01*
X141535000Y-97107911D01*
X141499068Y-96927271D01*
X141460848Y-96835000D01*
X143232960Y-96835000D01*
X143273738Y-96896028D01*
X143403972Y-97026262D01*
X143557111Y-97128586D01*
X143727271Y-97199068D01*
X143907911Y-97235000D01*
X144092089Y-97235000D01*
X144272729Y-97199068D01*
X144442889Y-97128586D01*
X144596028Y-97026262D01*
X144726262Y-96896028D01*
X144828586Y-96742889D01*
X144899068Y-96572729D01*
X144935000Y-96392089D01*
X144935000Y-96207911D01*
X144899068Y-96027271D01*
X144828586Y-95857111D01*
X144726262Y-95703972D01*
X144596028Y-95573738D01*
X144442889Y-95471414D01*
X144272729Y-95400932D01*
X144092089Y-95365000D01*
X143907911Y-95365000D01*
X143884131Y-95369730D01*
X143836105Y-95365000D01*
X143800000Y-95361444D01*
X143763895Y-95365000D01*
X141626464Y-95365000D01*
X141599068Y-95227271D01*
X141528586Y-95057111D01*
X141426262Y-94903972D01*
X141296028Y-94773738D01*
X141142889Y-94671414D01*
X140972729Y-94600932D01*
X140792089Y-94565000D01*
X140607911Y-94565000D01*
X140427271Y-94600932D01*
X140257111Y-94671414D01*
X140117049Y-94765000D01*
X136882951Y-94765000D01*
X136742889Y-94671414D01*
X136572729Y-94600932D01*
X136392089Y-94565000D01*
X136207911Y-94565000D01*
X136027271Y-94600932D01*
X135857111Y-94671414D01*
X135703972Y-94773738D01*
X135573738Y-94903972D01*
X135471414Y-95057111D01*
X135400932Y-95227271D01*
X135365000Y-95407911D01*
X129753424Y-95407911D01*
X128950899Y-94605387D01*
X128925528Y-94574472D01*
X128802189Y-94473251D01*
X128661473Y-94398037D01*
X128508788Y-94351720D01*
X128389791Y-94340000D01*
X128389788Y-94340000D01*
X128350000Y-94336081D01*
X128310212Y-94340000D01*
X115850700Y-94340000D01*
X115690256Y-94232795D01*
X115501898Y-94154774D01*
X115301939Y-94115000D01*
X115098061Y-94115000D01*
X114898102Y-94154774D01*
X114709744Y-94232795D01*
X114540226Y-94346063D01*
X114396063Y-94490226D01*
X114282795Y-94659744D01*
X114204774Y-94848102D01*
X114165000Y-95048061D01*
X114165000Y-95251939D01*
X114204774Y-95451898D01*
X114282795Y-95640256D01*
X114289306Y-95650000D01*
X114282795Y-95659744D01*
X114204774Y-95848102D01*
X114165000Y-96048061D01*
X114165000Y-96251939D01*
X114204774Y-96451898D01*
X114282795Y-96640256D01*
X114396063Y-96809774D01*
X114540226Y-96953937D01*
X114709744Y-97067205D01*
X114898102Y-97145226D01*
X115098061Y-97185000D01*
X115301939Y-97185000D01*
X115501898Y-97145226D01*
X115690256Y-97067205D01*
X115859774Y-96953937D01*
X116003937Y-96809774D01*
X116117205Y-96640256D01*
X116125647Y-96619875D01*
X116235512Y-96510010D01*
X127786668Y-96510010D01*
X128989990Y-97713333D01*
X128989991Y-104838022D01*
X128986071Y-104877820D01*
X128990942Y-104927271D01*
X129001711Y-105036608D01*
X129023341Y-105107911D01*
X129048028Y-105189293D01*
X129123241Y-105330009D01*
X129163108Y-105378586D01*
X129224463Y-105453348D01*
X129255373Y-105478715D01*
X133721285Y-109944628D01*
X133746652Y-109975538D01*
X133869991Y-110076759D01*
X134010707Y-110151973D01*
X134163392Y-110198290D01*
X134282389Y-110210010D01*
X134282391Y-110210010D01*
X134322179Y-110213929D01*
X134361967Y-110210010D01*
X145728792Y-110210010D01*
X145700932Y-110277271D01*
X145668068Y-110442485D01*
X145605807Y-110504747D01*
X145577761Y-110527764D01*
X145485912Y-110639682D01*
X145417662Y-110767369D01*
X145411244Y-110788527D01*
X145375634Y-110905916D01*
X145361443Y-111050001D01*
X145364999Y-111086107D01*
X145365000Y-112117584D01*
X145361443Y-112153699D01*
X145375634Y-112297784D01*
X145400530Y-112379853D01*
X145417663Y-112436332D01*
X145485913Y-112564019D01*
X145577762Y-112675937D01*
X145605807Y-112698953D01*
X146708915Y-113802062D01*
X146731931Y-113830107D01*
X146843849Y-113921956D01*
X146971536Y-113990206D01*
X147101345Y-114029583D01*
X147110084Y-114032234D01*
X147254169Y-114046425D01*
X147290274Y-114042869D01*
X147506329Y-114042869D01*
X148164970Y-114701511D01*
X148164971Y-117579883D01*
X147755808Y-117989047D01*
X147727762Y-118012064D01*
X147635913Y-118123982D01*
X147567663Y-118251669D01*
X147543097Y-118332653D01*
X147525635Y-118390216D01*
X147511444Y-118534301D01*
X147515000Y-118570407D01*
X147515001Y-119913885D01*
X147511444Y-119950000D01*
X147525635Y-120094085D01*
X147550564Y-120176262D01*
X147567664Y-120232633D01*
X147615000Y-120321193D01*
X147615000Y-120342089D01*
X147650932Y-120522729D01*
X147721414Y-120692889D01*
X147823738Y-120846028D01*
X147953972Y-120976262D01*
X148107111Y-121078586D01*
X148277271Y-121149068D01*
X148457911Y-121185000D01*
X148642089Y-121185000D01*
X148822729Y-121149068D01*
X148992889Y-121078586D01*
X149146028Y-120976262D01*
X149276262Y-120846028D01*
X149378586Y-120692889D01*
X149449068Y-120522729D01*
X149485000Y-120342089D01*
X149485000Y-120183631D01*
X149496028Y-120176262D01*
X149500000Y-120172290D01*
X149503972Y-120176262D01*
X149657111Y-120278586D01*
X149827271Y-120349068D01*
X150007911Y-120385000D01*
X150192089Y-120385000D01*
X150372729Y-120349068D01*
X150542889Y-120278586D01*
X150696028Y-120176262D01*
X150826262Y-120046028D01*
X150928586Y-119892889D01*
X150999068Y-119722729D01*
X151035000Y-119542089D01*
X151035000Y-119357911D01*
X150999068Y-119177271D01*
X150928586Y-119007111D01*
X150835000Y-118867049D01*
X150835000Y-113936096D01*
X150838555Y-113899999D01*
X150835000Y-113863902D01*
X150835000Y-113863895D01*
X150824365Y-113755915D01*
X150818683Y-113737182D01*
X150810175Y-113709138D01*
X150782337Y-113617367D01*
X150714087Y-113489680D01*
X150652798Y-113415000D01*
X150645253Y-113405806D01*
X150645250Y-113405803D01*
X150622237Y-113377762D01*
X150594197Y-113354750D01*
X150124447Y-112885000D01*
X154315000Y-112885000D01*
X154315000Y-118500000D01*
X154327201Y-118623882D01*
X154363336Y-118743004D01*
X154422017Y-118852787D01*
X154500987Y-118949013D01*
X154750987Y-119199013D01*
X154847213Y-119277983D01*
X154956996Y-119336664D01*
X155076118Y-119372799D01*
X155200000Y-119385000D01*
X184340001Y-119385000D01*
X184340001Y-127970597D01*
X184268827Y-128768083D01*
X184065344Y-129511890D01*
X183733363Y-130207904D01*
X183283374Y-130834130D01*
X182729597Y-131370777D01*
X182089549Y-131800871D01*
X181383447Y-132110829D01*
X180628543Y-132292065D01*
X179975793Y-132340000D01*
X90029392Y-132340000D01*
X89231917Y-132268827D01*
X88488110Y-132065344D01*
X87792096Y-131733363D01*
X87165870Y-131283374D01*
X86629223Y-130729597D01*
X86199129Y-130089549D01*
X85889171Y-129383447D01*
X85707935Y-128628543D01*
X85660000Y-127975793D01*
X85660000Y-127779872D01*
X87765000Y-127779872D01*
X87765000Y-128220128D01*
X87850890Y-128651925D01*
X88019369Y-129058669D01*
X88263962Y-129424729D01*
X88575271Y-129736038D01*
X88941331Y-129980631D01*
X89348075Y-130149110D01*
X89779872Y-130235000D01*
X90220128Y-130235000D01*
X90651925Y-130149110D01*
X91058669Y-129980631D01*
X91424729Y-129736038D01*
X91736038Y-129424729D01*
X91980631Y-129058669D01*
X92149110Y-128651925D01*
X92235000Y-128220128D01*
X92235000Y-127779872D01*
X177765000Y-127779872D01*
X177765000Y-128220128D01*
X177850890Y-128651925D01*
X178019369Y-129058669D01*
X178263962Y-129424729D01*
X178575271Y-129736038D01*
X178941331Y-129980631D01*
X179348075Y-130149110D01*
X179779872Y-130235000D01*
X180220128Y-130235000D01*
X180651925Y-130149110D01*
X181058669Y-129980631D01*
X181424729Y-129736038D01*
X181736038Y-129424729D01*
X181980631Y-129058669D01*
X182149110Y-128651925D01*
X182235000Y-128220128D01*
X182235000Y-127779872D01*
X182149110Y-127348075D01*
X181980631Y-126941331D01*
X181736038Y-126575271D01*
X181424729Y-126263962D01*
X181058669Y-126019369D01*
X180651925Y-125850890D01*
X180220128Y-125765000D01*
X179779872Y-125765000D01*
X179348075Y-125850890D01*
X178941331Y-126019369D01*
X178575271Y-126263962D01*
X178263962Y-126575271D01*
X178019369Y-126941331D01*
X177850890Y-127348075D01*
X177765000Y-127779872D01*
X92235000Y-127779872D01*
X92149110Y-127348075D01*
X91980631Y-126941331D01*
X91736038Y-126575271D01*
X91424729Y-126263962D01*
X91058669Y-126019369D01*
X90651925Y-125850890D01*
X90220128Y-125765000D01*
X89779872Y-125765000D01*
X89348075Y-125850890D01*
X88941331Y-126019369D01*
X88575271Y-126263962D01*
X88263962Y-126575271D01*
X88019369Y-126941331D01*
X87850890Y-127348075D01*
X87765000Y-127779872D01*
X85660000Y-127779872D01*
X85660000Y-123098061D01*
X124665000Y-123098061D01*
X124665000Y-123301939D01*
X124704774Y-123501898D01*
X124782795Y-123690256D01*
X124896063Y-123859774D01*
X125040226Y-124003937D01*
X125209744Y-124117205D01*
X125398102Y-124195226D01*
X125598061Y-124235000D01*
X125801939Y-124235000D01*
X126001898Y-124195226D01*
X126190256Y-124117205D01*
X126238454Y-124085000D01*
X130711546Y-124085000D01*
X130759744Y-124117205D01*
X130948102Y-124195226D01*
X131148061Y-124235000D01*
X131351939Y-124235000D01*
X131551898Y-124195226D01*
X131740256Y-124117205D01*
X131909774Y-124003937D01*
X132053937Y-123859774D01*
X132167205Y-123690256D01*
X132245226Y-123501898D01*
X132285000Y-123301939D01*
X132285000Y-123098061D01*
X132245226Y-122898102D01*
X132167205Y-122709744D01*
X132053937Y-122540226D01*
X131909774Y-122396063D01*
X131740256Y-122282795D01*
X131551898Y-122204774D01*
X131351939Y-122165000D01*
X131148061Y-122165000D01*
X130948102Y-122204774D01*
X130759744Y-122282795D01*
X130711546Y-122315000D01*
X126238454Y-122315000D01*
X126190256Y-122282795D01*
X126001898Y-122204774D01*
X125801939Y-122165000D01*
X125598061Y-122165000D01*
X125398102Y-122204774D01*
X125209744Y-122282795D01*
X125040226Y-122396063D01*
X124896063Y-122540226D01*
X124782795Y-122709744D01*
X124704774Y-122898102D01*
X124665000Y-123098061D01*
X85660000Y-123098061D01*
X85660000Y-118007911D01*
X123565000Y-118007911D01*
X123565000Y-118192089D01*
X123600932Y-118372729D01*
X123671414Y-118542889D01*
X123773738Y-118696028D01*
X123903972Y-118826262D01*
X124057111Y-118928586D01*
X124227271Y-118999068D01*
X124407911Y-119035000D01*
X124592089Y-119035000D01*
X124772729Y-118999068D01*
X124942889Y-118928586D01*
X125096028Y-118826262D01*
X125226262Y-118696028D01*
X125328586Y-118542889D01*
X125399068Y-118372729D01*
X125435000Y-118192089D01*
X125435000Y-118007911D01*
X125399068Y-117827271D01*
X125328586Y-117657111D01*
X125235000Y-117517049D01*
X125235000Y-115276464D01*
X125372729Y-115249068D01*
X125542889Y-115178586D01*
X125696028Y-115076262D01*
X125826262Y-114946028D01*
X125928586Y-114792889D01*
X125999068Y-114622729D01*
X126035000Y-114442089D01*
X126035000Y-114257911D01*
X125999068Y-114077271D01*
X125928586Y-113907111D01*
X125826262Y-113753972D01*
X125696028Y-113623738D01*
X125542889Y-113521414D01*
X125372729Y-113450932D01*
X125192089Y-113415000D01*
X125007911Y-113415000D01*
X124827271Y-113450932D01*
X124657111Y-113521414D01*
X124503972Y-113623738D01*
X124373738Y-113753972D01*
X124271414Y-113907111D01*
X124200932Y-114077271D01*
X124168068Y-114242485D01*
X124005808Y-114404746D01*
X123977763Y-114427762D01*
X123885914Y-114539680D01*
X123817664Y-114667367D01*
X123775635Y-114805915D01*
X123761444Y-114950000D01*
X123765001Y-114986115D01*
X123765000Y-117517049D01*
X123671414Y-117657111D01*
X123600932Y-117827271D01*
X123565000Y-118007911D01*
X85660000Y-118007911D01*
X85660000Y-109770000D01*
X94311928Y-109770000D01*
X94311928Y-111470000D01*
X94324188Y-111594482D01*
X94360498Y-111714180D01*
X94419463Y-111824494D01*
X94498815Y-111921185D01*
X94595506Y-112000537D01*
X94705820Y-112059502D01*
X94825518Y-112095812D01*
X94950000Y-112108072D01*
X96650000Y-112108072D01*
X96774482Y-112095812D01*
X96894180Y-112059502D01*
X97004494Y-112000537D01*
X97101185Y-111921185D01*
X97180537Y-111824494D01*
X97239502Y-111714180D01*
X97275812Y-111594482D01*
X97288072Y-111470000D01*
X97288072Y-109770000D01*
X97275812Y-109645518D01*
X97239502Y-109525820D01*
X97180537Y-109415506D01*
X97101185Y-109318815D01*
X97004494Y-109239463D01*
X96894180Y-109180498D01*
X96821620Y-109158487D01*
X96953475Y-109026632D01*
X97115990Y-108783411D01*
X97227932Y-108513158D01*
X97285000Y-108226260D01*
X97285000Y-107933740D01*
X97230550Y-107660000D01*
X112661928Y-107660000D01*
X112661928Y-109260000D01*
X112674188Y-109384482D01*
X112710498Y-109504180D01*
X112769463Y-109614494D01*
X112848815Y-109711185D01*
X112945506Y-109790537D01*
X113055820Y-109849502D01*
X113175518Y-109885812D01*
X113183961Y-109886643D01*
X112985363Y-110085241D01*
X112828320Y-110320273D01*
X112720147Y-110581426D01*
X112665000Y-110858665D01*
X112665000Y-111141335D01*
X112720147Y-111418574D01*
X112828320Y-111679727D01*
X112985363Y-111914759D01*
X113185241Y-112114637D01*
X113420273Y-112271680D01*
X113681426Y-112379853D01*
X113958665Y-112435000D01*
X114241335Y-112435000D01*
X114518574Y-112379853D01*
X114779727Y-112271680D01*
X115014759Y-112114637D01*
X115214637Y-111914759D01*
X115371680Y-111679727D01*
X115479853Y-111418574D01*
X115501626Y-111309114D01*
X120580171Y-111309114D01*
X120600527Y-111376239D01*
X120695438Y-111587408D01*
X120829722Y-111776003D01*
X120998219Y-111934777D01*
X121194454Y-112057628D01*
X121410885Y-112139835D01*
X121593000Y-112078908D01*
X121593000Y-111127000D01*
X121847000Y-111127000D01*
X121847000Y-112078908D01*
X122029115Y-112139835D01*
X122245546Y-112057628D01*
X122441781Y-111934777D01*
X122610278Y-111776003D01*
X122744562Y-111587408D01*
X122839473Y-111376239D01*
X122859829Y-111309114D01*
X122798297Y-111127000D01*
X121847000Y-111127000D01*
X121593000Y-111127000D01*
X120641703Y-111127000D01*
X120580171Y-111309114D01*
X115501626Y-111309114D01*
X115535000Y-111141335D01*
X115535000Y-110858665D01*
X115479853Y-110581426D01*
X115371680Y-110320273D01*
X115214637Y-110085241D01*
X115016039Y-109886643D01*
X115024482Y-109885812D01*
X115144180Y-109849502D01*
X115254494Y-109790537D01*
X115351185Y-109711185D01*
X115430537Y-109614494D01*
X115489502Y-109504180D01*
X115525812Y-109384482D01*
X115538072Y-109260000D01*
X115538072Y-108318665D01*
X120285000Y-108318665D01*
X120285000Y-108601335D01*
X120340147Y-108878574D01*
X120448320Y-109139727D01*
X120605363Y-109374759D01*
X120805241Y-109574637D01*
X121040273Y-109731680D01*
X121301426Y-109839853D01*
X121408361Y-109861124D01*
X121194454Y-109942372D01*
X120998219Y-110065223D01*
X120829722Y-110223997D01*
X120695438Y-110412592D01*
X120600527Y-110623761D01*
X120580171Y-110690886D01*
X120641703Y-110873000D01*
X121593000Y-110873000D01*
X121593000Y-110853000D01*
X121847000Y-110853000D01*
X121847000Y-110873000D01*
X122798297Y-110873000D01*
X122859829Y-110690886D01*
X122839473Y-110623761D01*
X122744562Y-110412592D01*
X122610278Y-110223997D01*
X122441781Y-110065223D01*
X122245546Y-109942372D01*
X122031639Y-109861124D01*
X122138574Y-109839853D01*
X122399727Y-109731680D01*
X122634759Y-109574637D01*
X122834637Y-109374759D01*
X122991680Y-109139727D01*
X123099853Y-108878574D01*
X123155000Y-108601335D01*
X123155000Y-108318665D01*
X123099853Y-108041426D01*
X122991680Y-107780273D01*
X122834637Y-107545241D01*
X122634759Y-107345363D01*
X122399727Y-107188320D01*
X122138574Y-107080147D01*
X121861335Y-107025000D01*
X121578665Y-107025000D01*
X121301426Y-107080147D01*
X121040273Y-107188320D01*
X120805241Y-107345363D01*
X120605363Y-107545241D01*
X120448320Y-107780273D01*
X120340147Y-108041426D01*
X120285000Y-108318665D01*
X115538072Y-108318665D01*
X115538072Y-107660000D01*
X115525812Y-107535518D01*
X115489502Y-107415820D01*
X115430537Y-107305506D01*
X115351185Y-107208815D01*
X115254494Y-107129463D01*
X115144180Y-107070498D01*
X115024482Y-107034188D01*
X114900000Y-107021928D01*
X113300000Y-107021928D01*
X113175518Y-107034188D01*
X113055820Y-107070498D01*
X112945506Y-107129463D01*
X112848815Y-107208815D01*
X112769463Y-107305506D01*
X112710498Y-107415820D01*
X112674188Y-107535518D01*
X112661928Y-107660000D01*
X97230550Y-107660000D01*
X97227932Y-107646842D01*
X97115990Y-107376589D01*
X96953475Y-107133368D01*
X96746632Y-106926525D01*
X96572240Y-106810000D01*
X96746632Y-106693475D01*
X96953475Y-106486632D01*
X97115990Y-106243411D01*
X97227932Y-105973158D01*
X97285000Y-105686260D01*
X97285000Y-105393740D01*
X97227932Y-105106842D01*
X97115990Y-104836589D01*
X96953475Y-104593368D01*
X96746632Y-104386525D01*
X96572240Y-104270000D01*
X96746632Y-104153475D01*
X96953475Y-103946632D01*
X97115990Y-103703411D01*
X97227932Y-103433158D01*
X97285000Y-103146260D01*
X97285000Y-102853740D01*
X97227932Y-102566842D01*
X97183124Y-102458665D01*
X112665000Y-102458665D01*
X112665000Y-102741335D01*
X112720147Y-103018574D01*
X112828320Y-103279727D01*
X112985363Y-103514759D01*
X113185241Y-103714637D01*
X113417759Y-103870000D01*
X113185241Y-104025363D01*
X112985363Y-104225241D01*
X112828320Y-104460273D01*
X112720147Y-104721426D01*
X112665000Y-104998665D01*
X112665000Y-105281335D01*
X112720147Y-105558574D01*
X112828320Y-105819727D01*
X112985363Y-106054759D01*
X113185241Y-106254637D01*
X113420273Y-106411680D01*
X113681426Y-106519853D01*
X113958665Y-106575000D01*
X114241335Y-106575000D01*
X114518574Y-106519853D01*
X114779727Y-106411680D01*
X115014759Y-106254637D01*
X115214637Y-106054759D01*
X115371680Y-105819727D01*
X115479853Y-105558574D01*
X115535000Y-105281335D01*
X115535000Y-104998665D01*
X115479853Y-104721426D01*
X115371680Y-104460273D01*
X115291317Y-104340000D01*
X120281928Y-104340000D01*
X120281928Y-105940000D01*
X120294188Y-106064482D01*
X120330498Y-106184180D01*
X120389463Y-106294494D01*
X120468815Y-106391185D01*
X120565506Y-106470537D01*
X120675820Y-106529502D01*
X120795518Y-106565812D01*
X120920000Y-106578072D01*
X122520000Y-106578072D01*
X122644482Y-106565812D01*
X122764180Y-106529502D01*
X122874494Y-106470537D01*
X122971185Y-106391185D01*
X123050537Y-106294494D01*
X123109502Y-106184180D01*
X123145812Y-106064482D01*
X123158072Y-105940000D01*
X123158072Y-104340000D01*
X123145812Y-104215518D01*
X123109502Y-104095820D01*
X123050537Y-103985506D01*
X122971185Y-103888815D01*
X122874494Y-103809463D01*
X122764180Y-103750498D01*
X122644482Y-103714188D01*
X122636039Y-103713357D01*
X122834637Y-103514759D01*
X122991680Y-103279727D01*
X123099853Y-103018574D01*
X123155000Y-102741335D01*
X123155000Y-102458665D01*
X123099853Y-102181426D01*
X122991680Y-101920273D01*
X122834637Y-101685241D01*
X122634759Y-101485363D01*
X122399727Y-101328320D01*
X122138574Y-101220147D01*
X121861335Y-101165000D01*
X121578665Y-101165000D01*
X121301426Y-101220147D01*
X121040273Y-101328320D01*
X120805241Y-101485363D01*
X120605363Y-101685241D01*
X120448320Y-101920273D01*
X120340147Y-102181426D01*
X120285000Y-102458665D01*
X120285000Y-102741335D01*
X120340147Y-103018574D01*
X120448320Y-103279727D01*
X120605363Y-103514759D01*
X120803961Y-103713357D01*
X120795518Y-103714188D01*
X120675820Y-103750498D01*
X120565506Y-103809463D01*
X120468815Y-103888815D01*
X120389463Y-103985506D01*
X120330498Y-104095820D01*
X120294188Y-104215518D01*
X120281928Y-104340000D01*
X115291317Y-104340000D01*
X115214637Y-104225241D01*
X115014759Y-104025363D01*
X114782241Y-103870000D01*
X115014759Y-103714637D01*
X115214637Y-103514759D01*
X115371680Y-103279727D01*
X115479853Y-103018574D01*
X115535000Y-102741335D01*
X115535000Y-102458665D01*
X115479853Y-102181426D01*
X115371680Y-101920273D01*
X115214637Y-101685241D01*
X115014759Y-101485363D01*
X114779727Y-101328320D01*
X114518574Y-101220147D01*
X114241335Y-101165000D01*
X113958665Y-101165000D01*
X113681426Y-101220147D01*
X113420273Y-101328320D01*
X113185241Y-101485363D01*
X112985363Y-101685241D01*
X112828320Y-101920273D01*
X112720147Y-102181426D01*
X112665000Y-102458665D01*
X97183124Y-102458665D01*
X97115990Y-102296589D01*
X96953475Y-102053368D01*
X96746632Y-101846525D01*
X96503411Y-101684010D01*
X96233158Y-101572068D01*
X95946260Y-101515000D01*
X95653740Y-101515000D01*
X95366842Y-101572068D01*
X95096589Y-101684010D01*
X94853368Y-101846525D01*
X94646525Y-102053368D01*
X94484010Y-102296589D01*
X94372068Y-102566842D01*
X94315000Y-102853740D01*
X94315000Y-103146260D01*
X94372068Y-103433158D01*
X94484010Y-103703411D01*
X94646525Y-103946632D01*
X94853368Y-104153475D01*
X95027760Y-104270000D01*
X94853368Y-104386525D01*
X94646525Y-104593368D01*
X94484010Y-104836589D01*
X94372068Y-105106842D01*
X94315000Y-105393740D01*
X94315000Y-105686260D01*
X94372068Y-105973158D01*
X94484010Y-106243411D01*
X94646525Y-106486632D01*
X94853368Y-106693475D01*
X95027760Y-106810000D01*
X94853368Y-106926525D01*
X94646525Y-107133368D01*
X94484010Y-107376589D01*
X94372068Y-107646842D01*
X94315000Y-107933740D01*
X94315000Y-108226260D01*
X94372068Y-108513158D01*
X94484010Y-108783411D01*
X94646525Y-109026632D01*
X94778380Y-109158487D01*
X94705820Y-109180498D01*
X94595506Y-109239463D01*
X94498815Y-109318815D01*
X94419463Y-109415506D01*
X94360498Y-109525820D01*
X94324188Y-109645518D01*
X94311928Y-109770000D01*
X85660000Y-109770000D01*
X85660000Y-93513740D01*
X94315000Y-93513740D01*
X94315000Y-93806260D01*
X94372068Y-94093158D01*
X94484010Y-94363411D01*
X94646525Y-94606632D01*
X94853368Y-94813475D01*
X95027760Y-94930000D01*
X94853368Y-95046525D01*
X94646525Y-95253368D01*
X94484010Y-95496589D01*
X94372068Y-95766842D01*
X94315000Y-96053740D01*
X94315000Y-96346260D01*
X94372068Y-96633158D01*
X94484010Y-96903411D01*
X94646525Y-97146632D01*
X94853368Y-97353475D01*
X95027760Y-97470000D01*
X94853368Y-97586525D01*
X94646525Y-97793368D01*
X94484010Y-98036589D01*
X94372068Y-98306842D01*
X94315000Y-98593740D01*
X94315000Y-98886260D01*
X94372068Y-99173158D01*
X94484010Y-99443411D01*
X94646525Y-99686632D01*
X94853368Y-99893475D01*
X95096589Y-100055990D01*
X95366842Y-100167932D01*
X95653740Y-100225000D01*
X95946260Y-100225000D01*
X96233158Y-100167932D01*
X96503411Y-100055990D01*
X96746632Y-99893475D01*
X96878487Y-99761620D01*
X96900498Y-99834180D01*
X96959463Y-99944494D01*
X97038815Y-100041185D01*
X97135506Y-100120537D01*
X97245820Y-100179502D01*
X97365518Y-100215812D01*
X97490000Y-100228072D01*
X99190000Y-100228072D01*
X99314482Y-100215812D01*
X99434180Y-100179502D01*
X99544494Y-100120537D01*
X99641185Y-100041185D01*
X99720537Y-99944494D01*
X99779502Y-99834180D01*
X99815812Y-99714482D01*
X99828072Y-99590000D01*
X99828072Y-97890000D01*
X99815812Y-97765518D01*
X99779502Y-97645820D01*
X99720537Y-97535506D01*
X99641185Y-97438815D01*
X99544494Y-97359463D01*
X99434180Y-97300498D01*
X99361620Y-97278487D01*
X99493475Y-97146632D01*
X99655990Y-96903411D01*
X99767932Y-96633158D01*
X99825000Y-96346260D01*
X99825000Y-96098061D01*
X101815000Y-96098061D01*
X101815000Y-96301939D01*
X101854774Y-96501898D01*
X101932795Y-96690256D01*
X102046063Y-96859774D01*
X102190226Y-97003937D01*
X102359744Y-97117205D01*
X102548102Y-97195226D01*
X102748061Y-97235000D01*
X102951939Y-97235000D01*
X103151898Y-97195226D01*
X103340256Y-97117205D01*
X103509774Y-97003937D01*
X103653937Y-96859774D01*
X103767205Y-96690256D01*
X103845226Y-96501898D01*
X103885000Y-96301939D01*
X103885000Y-96098061D01*
X103845226Y-95898102D01*
X103767205Y-95709744D01*
X103660000Y-95549300D01*
X103660000Y-92785512D01*
X103885513Y-92560000D01*
X105049300Y-92560000D01*
X105209744Y-92667205D01*
X105398102Y-92745226D01*
X105598061Y-92785000D01*
X105801939Y-92785000D01*
X106001898Y-92745226D01*
X106190256Y-92667205D01*
X106350700Y-92560000D01*
X112410212Y-92560000D01*
X112450000Y-92563919D01*
X112489788Y-92560000D01*
X112489791Y-92560000D01*
X112608788Y-92548280D01*
X112761473Y-92501963D01*
X112902189Y-92426749D01*
X113025528Y-92325528D01*
X113050899Y-92294613D01*
X113924619Y-91420894D01*
X113955528Y-91395528D01*
X114056749Y-91272189D01*
X114122537Y-91149108D01*
X114131963Y-91131474D01*
X114149624Y-91073252D01*
X114178280Y-90978788D01*
X114190000Y-90859791D01*
X114190000Y-90859788D01*
X114193919Y-90820000D01*
X114190000Y-90780212D01*
X114190000Y-90028072D01*
X114230000Y-90028072D01*
X114354482Y-90015812D01*
X114474180Y-89979502D01*
X114584494Y-89920537D01*
X114681185Y-89841185D01*
X114760537Y-89744494D01*
X114819502Y-89634180D01*
X114841513Y-89561620D01*
X114973368Y-89693475D01*
X115216589Y-89855990D01*
X115486842Y-89967932D01*
X115773740Y-90025000D01*
X116066260Y-90025000D01*
X116353158Y-89967932D01*
X116623411Y-89855990D01*
X116866632Y-89693475D01*
X117073475Y-89486632D01*
X117190000Y-89312240D01*
X117306525Y-89486632D01*
X117513368Y-89693475D01*
X117756589Y-89855990D01*
X118026842Y-89967932D01*
X118313740Y-90025000D01*
X118606260Y-90025000D01*
X118893158Y-89967932D01*
X119163411Y-89855990D01*
X119406632Y-89693475D01*
X119613475Y-89486632D01*
X119730000Y-89312240D01*
X119846525Y-89486632D01*
X120053368Y-89693475D01*
X120296589Y-89855990D01*
X120566842Y-89967932D01*
X120853740Y-90025000D01*
X121146260Y-90025000D01*
X121433158Y-89967932D01*
X121703411Y-89855990D01*
X121946632Y-89693475D01*
X122153475Y-89486632D01*
X122315990Y-89243411D01*
X122427932Y-88973158D01*
X122485000Y-88686260D01*
X122485000Y-88393740D01*
X122427932Y-88106842D01*
X122315990Y-87836589D01*
X122218043Y-87690000D01*
X124641928Y-87690000D01*
X124641928Y-89390000D01*
X124654188Y-89514482D01*
X124690498Y-89634180D01*
X124749463Y-89744494D01*
X124828815Y-89841185D01*
X124925506Y-89920537D01*
X125035820Y-89979502D01*
X125155518Y-90015812D01*
X125280000Y-90028072D01*
X126980000Y-90028072D01*
X127104482Y-90015812D01*
X127224180Y-89979502D01*
X127334494Y-89920537D01*
X127431185Y-89841185D01*
X127510537Y-89744494D01*
X127569502Y-89634180D01*
X127591513Y-89561620D01*
X127723368Y-89693475D01*
X127966589Y-89855990D01*
X128236842Y-89967932D01*
X128523740Y-90025000D01*
X128816260Y-90025000D01*
X129103158Y-89967932D01*
X129373411Y-89855990D01*
X129616632Y-89693475D01*
X129823475Y-89486632D01*
X129940000Y-89312240D01*
X130056525Y-89486632D01*
X130263368Y-89693475D01*
X130506589Y-89855990D01*
X130776842Y-89967932D01*
X131063740Y-90025000D01*
X131356260Y-90025000D01*
X131643158Y-89967932D01*
X131913411Y-89855990D01*
X132156632Y-89693475D01*
X132363475Y-89486632D01*
X132480000Y-89312240D01*
X132596525Y-89486632D01*
X132803368Y-89693475D01*
X133046589Y-89855990D01*
X133316842Y-89967932D01*
X133603740Y-90025000D01*
X133896260Y-90025000D01*
X134183158Y-89967932D01*
X134453411Y-89855990D01*
X134696632Y-89693475D01*
X134903475Y-89486632D01*
X135020000Y-89312240D01*
X135136525Y-89486632D01*
X135343368Y-89693475D01*
X135586589Y-89855990D01*
X135856842Y-89967932D01*
X136143740Y-90025000D01*
X136436260Y-90025000D01*
X136723158Y-89967932D01*
X136993411Y-89855990D01*
X137236632Y-89693475D01*
X137443475Y-89486632D01*
X137560000Y-89312240D01*
X137676525Y-89486632D01*
X137883368Y-89693475D01*
X138126589Y-89855990D01*
X138396842Y-89967932D01*
X138683740Y-90025000D01*
X138976260Y-90025000D01*
X139263158Y-89967932D01*
X139533411Y-89855990D01*
X139776632Y-89693475D01*
X139983475Y-89486632D01*
X140100000Y-89312240D01*
X140216525Y-89486632D01*
X140423368Y-89693475D01*
X140666589Y-89855990D01*
X140936842Y-89967932D01*
X141223740Y-90025000D01*
X141516260Y-90025000D01*
X141803158Y-89967932D01*
X142073411Y-89855990D01*
X142316632Y-89693475D01*
X142523475Y-89486632D01*
X142640000Y-89312240D01*
X142756525Y-89486632D01*
X142963368Y-89693475D01*
X143206589Y-89855990D01*
X143476842Y-89967932D01*
X143763740Y-90025000D01*
X144056260Y-90025000D01*
X144343158Y-89967932D01*
X144613411Y-89855990D01*
X144856632Y-89693475D01*
X145063475Y-89486632D01*
X145225990Y-89243411D01*
X145337932Y-88973158D01*
X145395000Y-88686260D01*
X145395000Y-88393740D01*
X145337932Y-88106842D01*
X145225990Y-87836589D01*
X145128043Y-87690000D01*
X147511928Y-87690000D01*
X147511928Y-89390000D01*
X147524188Y-89514482D01*
X147560498Y-89634180D01*
X147619463Y-89744494D01*
X147698815Y-89841185D01*
X147795506Y-89920537D01*
X147905820Y-89979502D01*
X148025518Y-90015812D01*
X148150000Y-90028072D01*
X149850000Y-90028072D01*
X149974482Y-90015812D01*
X150094180Y-89979502D01*
X150204494Y-89920537D01*
X150301185Y-89841185D01*
X150380537Y-89744494D01*
X150439502Y-89634180D01*
X150461513Y-89561620D01*
X150593368Y-89693475D01*
X150836589Y-89855990D01*
X151106842Y-89967932D01*
X151393740Y-90025000D01*
X151686260Y-90025000D01*
X151973158Y-89967932D01*
X152243411Y-89855990D01*
X152486632Y-89693475D01*
X152693475Y-89486632D01*
X152810000Y-89312240D01*
X152926525Y-89486632D01*
X153133368Y-89693475D01*
X153376589Y-89855990D01*
X153646842Y-89967932D01*
X153933740Y-90025000D01*
X154226260Y-90025000D01*
X154513158Y-89967932D01*
X154783411Y-89855990D01*
X155026632Y-89693475D01*
X155233475Y-89486632D01*
X155350000Y-89312240D01*
X155466525Y-89486632D01*
X155673368Y-89693475D01*
X155916589Y-89855990D01*
X156186842Y-89967932D01*
X156473740Y-90025000D01*
X156766260Y-90025000D01*
X157053158Y-89967932D01*
X157323411Y-89855990D01*
X157566632Y-89693475D01*
X157773475Y-89486632D01*
X157890000Y-89312240D01*
X158006525Y-89486632D01*
X158213368Y-89693475D01*
X158456589Y-89855990D01*
X158726842Y-89967932D01*
X159013740Y-90025000D01*
X159306260Y-90025000D01*
X159593158Y-89967932D01*
X159863411Y-89855990D01*
X160106632Y-89693475D01*
X160313475Y-89486632D01*
X160430000Y-89312240D01*
X160546525Y-89486632D01*
X160753368Y-89693475D01*
X160996589Y-89855990D01*
X161266842Y-89967932D01*
X161553740Y-90025000D01*
X161846260Y-90025000D01*
X162133158Y-89967932D01*
X162403411Y-89855990D01*
X162646632Y-89693475D01*
X162853475Y-89486632D01*
X162970000Y-89312240D01*
X163086525Y-89486632D01*
X163293368Y-89693475D01*
X163536589Y-89855990D01*
X163806842Y-89967932D01*
X164093740Y-90025000D01*
X164386260Y-90025000D01*
X164673158Y-89967932D01*
X164943411Y-89855990D01*
X165186632Y-89693475D01*
X165393475Y-89486632D01*
X165510000Y-89312240D01*
X165626525Y-89486632D01*
X165833368Y-89693475D01*
X166076589Y-89855990D01*
X166346842Y-89967932D01*
X166633740Y-90025000D01*
X166926260Y-90025000D01*
X167213158Y-89967932D01*
X167483411Y-89855990D01*
X167726632Y-89693475D01*
X167933475Y-89486632D01*
X168095990Y-89243411D01*
X168207932Y-88973158D01*
X168265000Y-88686260D01*
X168265000Y-88393740D01*
X168207932Y-88106842D01*
X168095990Y-87836589D01*
X168058093Y-87779872D01*
X177765000Y-87779872D01*
X177765000Y-88220128D01*
X177850890Y-88651925D01*
X178019369Y-89058669D01*
X178263962Y-89424729D01*
X178575271Y-89736038D01*
X178941331Y-89980631D01*
X179348075Y-90149110D01*
X179779872Y-90235000D01*
X180220128Y-90235000D01*
X180651925Y-90149110D01*
X181058669Y-89980631D01*
X181424729Y-89736038D01*
X181736038Y-89424729D01*
X181980631Y-89058669D01*
X182149110Y-88651925D01*
X182235000Y-88220128D01*
X182235000Y-87779872D01*
X182149110Y-87348075D01*
X181980631Y-86941331D01*
X181736038Y-86575271D01*
X181424729Y-86263962D01*
X181058669Y-86019369D01*
X180651925Y-85850890D01*
X180220128Y-85765000D01*
X179779872Y-85765000D01*
X179348075Y-85850890D01*
X178941331Y-86019369D01*
X178575271Y-86263962D01*
X178263962Y-86575271D01*
X178019369Y-86941331D01*
X177850890Y-87348075D01*
X177765000Y-87779872D01*
X168058093Y-87779872D01*
X167933475Y-87593368D01*
X167726632Y-87386525D01*
X167483411Y-87224010D01*
X167255455Y-87129588D01*
X167396961Y-87065239D01*
X167592924Y-86924408D01*
X167757647Y-86748052D01*
X167884799Y-86542949D01*
X167969495Y-86316981D01*
X167909187Y-86127000D01*
X166907000Y-86127000D01*
X166907000Y-86147000D01*
X166653000Y-86147000D01*
X166653000Y-86127000D01*
X165650813Y-86127000D01*
X165590505Y-86316981D01*
X165675201Y-86542949D01*
X165802353Y-86748052D01*
X165967076Y-86924408D01*
X166163039Y-87065239D01*
X166304545Y-87129588D01*
X166076589Y-87224010D01*
X165833368Y-87386525D01*
X165626525Y-87593368D01*
X165510000Y-87767760D01*
X165393475Y-87593368D01*
X165186632Y-87386525D01*
X164943411Y-87224010D01*
X164715455Y-87129588D01*
X164856961Y-87065239D01*
X165052924Y-86924408D01*
X165217647Y-86748052D01*
X165344799Y-86542949D01*
X165429495Y-86316981D01*
X165369187Y-86127000D01*
X164367000Y-86127000D01*
X164367000Y-86147000D01*
X164113000Y-86147000D01*
X164113000Y-86127000D01*
X163110813Y-86127000D01*
X163050505Y-86316981D01*
X163135201Y-86542949D01*
X163262353Y-86748052D01*
X163427076Y-86924408D01*
X163623039Y-87065239D01*
X163764545Y-87129588D01*
X163536589Y-87224010D01*
X163293368Y-87386525D01*
X163086525Y-87593368D01*
X162970000Y-87767760D01*
X162853475Y-87593368D01*
X162646632Y-87386525D01*
X162403411Y-87224010D01*
X162175455Y-87129588D01*
X162316961Y-87065239D01*
X162512924Y-86924408D01*
X162677647Y-86748052D01*
X162804799Y-86542949D01*
X162889495Y-86316981D01*
X162829187Y-86127000D01*
X161827000Y-86127000D01*
X161827000Y-86147000D01*
X161573000Y-86147000D01*
X161573000Y-86127000D01*
X160570813Y-86127000D01*
X160510505Y-86316981D01*
X160595201Y-86542949D01*
X160722353Y-86748052D01*
X160887076Y-86924408D01*
X161083039Y-87065239D01*
X161224545Y-87129588D01*
X160996589Y-87224010D01*
X160753368Y-87386525D01*
X160546525Y-87593368D01*
X160430000Y-87767760D01*
X160313475Y-87593368D01*
X160106632Y-87386525D01*
X159863411Y-87224010D01*
X159635455Y-87129588D01*
X159776961Y-87065239D01*
X159972924Y-86924408D01*
X160137647Y-86748052D01*
X160264799Y-86542949D01*
X160349495Y-86316981D01*
X160289187Y-86127000D01*
X159287000Y-86127000D01*
X159287000Y-86147000D01*
X159033000Y-86147000D01*
X159033000Y-86127000D01*
X158030813Y-86127000D01*
X157970505Y-86316981D01*
X158055201Y-86542949D01*
X158182353Y-86748052D01*
X158347076Y-86924408D01*
X158543039Y-87065239D01*
X158684545Y-87129588D01*
X158456589Y-87224010D01*
X158213368Y-87386525D01*
X158006525Y-87593368D01*
X157890000Y-87767760D01*
X157773475Y-87593368D01*
X157566632Y-87386525D01*
X157323411Y-87224010D01*
X157095455Y-87129588D01*
X157236961Y-87065239D01*
X157432924Y-86924408D01*
X157597647Y-86748052D01*
X157724799Y-86542949D01*
X157809495Y-86316981D01*
X157749187Y-86127000D01*
X156747000Y-86127000D01*
X156747000Y-86147000D01*
X156493000Y-86147000D01*
X156493000Y-86127000D01*
X155490813Y-86127000D01*
X155430505Y-86316981D01*
X155515201Y-86542949D01*
X155642353Y-86748052D01*
X155807076Y-86924408D01*
X156003039Y-87065239D01*
X156144545Y-87129588D01*
X155916589Y-87224010D01*
X155673368Y-87386525D01*
X155466525Y-87593368D01*
X155350000Y-87767760D01*
X155233475Y-87593368D01*
X155026632Y-87386525D01*
X154783411Y-87224010D01*
X154555455Y-87129588D01*
X154696961Y-87065239D01*
X154892924Y-86924408D01*
X155057647Y-86748052D01*
X155184799Y-86542949D01*
X155269495Y-86316981D01*
X155209187Y-86127000D01*
X154207000Y-86127000D01*
X154207000Y-86147000D01*
X153953000Y-86147000D01*
X153953000Y-86127000D01*
X152950813Y-86127000D01*
X152890505Y-86316981D01*
X152975201Y-86542949D01*
X153102353Y-86748052D01*
X153267076Y-86924408D01*
X153463039Y-87065239D01*
X153604545Y-87129588D01*
X153376589Y-87224010D01*
X153133368Y-87386525D01*
X152926525Y-87593368D01*
X152810000Y-87767760D01*
X152693475Y-87593368D01*
X152486632Y-87386525D01*
X152243411Y-87224010D01*
X152015455Y-87129588D01*
X152156961Y-87065239D01*
X152352924Y-86924408D01*
X152517647Y-86748052D01*
X152644799Y-86542949D01*
X152729495Y-86316981D01*
X152669187Y-86127000D01*
X151667000Y-86127000D01*
X151667000Y-86147000D01*
X151413000Y-86147000D01*
X151413000Y-86127000D01*
X150410813Y-86127000D01*
X150350505Y-86316981D01*
X150435201Y-86542949D01*
X150562353Y-86748052D01*
X150727076Y-86924408D01*
X150923039Y-87065239D01*
X151064545Y-87129588D01*
X150836589Y-87224010D01*
X150593368Y-87386525D01*
X150461513Y-87518380D01*
X150439502Y-87445820D01*
X150380537Y-87335506D01*
X150301185Y-87238815D01*
X150204494Y-87159463D01*
X150094180Y-87100498D01*
X149974482Y-87064188D01*
X149850000Y-87051928D01*
X149635483Y-87051928D01*
X149812924Y-86924408D01*
X149977647Y-86748052D01*
X150104799Y-86542949D01*
X150189495Y-86316981D01*
X150129187Y-86127000D01*
X149127000Y-86127000D01*
X149127000Y-86147000D01*
X148873000Y-86147000D01*
X148873000Y-86127000D01*
X147870813Y-86127000D01*
X147810505Y-86316981D01*
X147895201Y-86542949D01*
X148022353Y-86748052D01*
X148187076Y-86924408D01*
X148364517Y-87051928D01*
X148150000Y-87051928D01*
X148025518Y-87064188D01*
X147905820Y-87100498D01*
X147795506Y-87159463D01*
X147698815Y-87238815D01*
X147619463Y-87335506D01*
X147560498Y-87445820D01*
X147524188Y-87565518D01*
X147511928Y-87690000D01*
X145128043Y-87690000D01*
X145063475Y-87593368D01*
X144856632Y-87386525D01*
X144613411Y-87224010D01*
X144385455Y-87129588D01*
X144526961Y-87065239D01*
X144722924Y-86924408D01*
X144887647Y-86748052D01*
X145014799Y-86542949D01*
X145099495Y-86316981D01*
X145039187Y-86127000D01*
X144037000Y-86127000D01*
X144037000Y-86147000D01*
X143783000Y-86147000D01*
X143783000Y-86127000D01*
X142780813Y-86127000D01*
X142720505Y-86316981D01*
X142805201Y-86542949D01*
X142932353Y-86748052D01*
X143097076Y-86924408D01*
X143293039Y-87065239D01*
X143434545Y-87129588D01*
X143206589Y-87224010D01*
X142963368Y-87386525D01*
X142756525Y-87593368D01*
X142640000Y-87767760D01*
X142523475Y-87593368D01*
X142316632Y-87386525D01*
X142073411Y-87224010D01*
X141845455Y-87129588D01*
X141986961Y-87065239D01*
X142182924Y-86924408D01*
X142347647Y-86748052D01*
X142474799Y-86542949D01*
X142559495Y-86316981D01*
X142499187Y-86127000D01*
X141497000Y-86127000D01*
X141497000Y-86147000D01*
X141243000Y-86147000D01*
X141243000Y-86127000D01*
X140240813Y-86127000D01*
X140180505Y-86316981D01*
X140265201Y-86542949D01*
X140392353Y-86748052D01*
X140557076Y-86924408D01*
X140753039Y-87065239D01*
X140894545Y-87129588D01*
X140666589Y-87224010D01*
X140423368Y-87386525D01*
X140216525Y-87593368D01*
X140100000Y-87767760D01*
X139983475Y-87593368D01*
X139776632Y-87386525D01*
X139533411Y-87224010D01*
X139305455Y-87129588D01*
X139446961Y-87065239D01*
X139642924Y-86924408D01*
X139807647Y-86748052D01*
X139934799Y-86542949D01*
X140019495Y-86316981D01*
X139959187Y-86127000D01*
X138957000Y-86127000D01*
X138957000Y-86147000D01*
X138703000Y-86147000D01*
X138703000Y-86127000D01*
X137700813Y-86127000D01*
X137640505Y-86316981D01*
X137725201Y-86542949D01*
X137852353Y-86748052D01*
X138017076Y-86924408D01*
X138213039Y-87065239D01*
X138354545Y-87129588D01*
X138126589Y-87224010D01*
X137883368Y-87386525D01*
X137676525Y-87593368D01*
X137560000Y-87767760D01*
X137443475Y-87593368D01*
X137236632Y-87386525D01*
X136993411Y-87224010D01*
X136765455Y-87129588D01*
X136906961Y-87065239D01*
X137102924Y-86924408D01*
X137267647Y-86748052D01*
X137394799Y-86542949D01*
X137479495Y-86316981D01*
X137419187Y-86127000D01*
X136417000Y-86127000D01*
X136417000Y-86147000D01*
X136163000Y-86147000D01*
X136163000Y-86127000D01*
X135160813Y-86127000D01*
X135100505Y-86316981D01*
X135185201Y-86542949D01*
X135312353Y-86748052D01*
X135477076Y-86924408D01*
X135673039Y-87065239D01*
X135814545Y-87129588D01*
X135586589Y-87224010D01*
X135343368Y-87386525D01*
X135136525Y-87593368D01*
X135020000Y-87767760D01*
X134903475Y-87593368D01*
X134696632Y-87386525D01*
X134453411Y-87224010D01*
X134225455Y-87129588D01*
X134366961Y-87065239D01*
X134562924Y-86924408D01*
X134727647Y-86748052D01*
X134854799Y-86542949D01*
X134939495Y-86316981D01*
X134879187Y-86127000D01*
X133877000Y-86127000D01*
X133877000Y-86147000D01*
X133623000Y-86147000D01*
X133623000Y-86127000D01*
X132620813Y-86127000D01*
X132560505Y-86316981D01*
X132645201Y-86542949D01*
X132772353Y-86748052D01*
X132937076Y-86924408D01*
X133133039Y-87065239D01*
X133274545Y-87129588D01*
X133046589Y-87224010D01*
X132803368Y-87386525D01*
X132596525Y-87593368D01*
X132480000Y-87767760D01*
X132363475Y-87593368D01*
X132156632Y-87386525D01*
X131913411Y-87224010D01*
X131685455Y-87129588D01*
X131826961Y-87065239D01*
X132022924Y-86924408D01*
X132187647Y-86748052D01*
X132314799Y-86542949D01*
X132399495Y-86316981D01*
X132339187Y-86127000D01*
X131337000Y-86127000D01*
X131337000Y-86147000D01*
X131083000Y-86147000D01*
X131083000Y-86127000D01*
X130080813Y-86127000D01*
X130020505Y-86316981D01*
X130105201Y-86542949D01*
X130232353Y-86748052D01*
X130397076Y-86924408D01*
X130593039Y-87065239D01*
X130734545Y-87129588D01*
X130506589Y-87224010D01*
X130263368Y-87386525D01*
X130056525Y-87593368D01*
X129940000Y-87767760D01*
X129823475Y-87593368D01*
X129616632Y-87386525D01*
X129373411Y-87224010D01*
X129145455Y-87129588D01*
X129286961Y-87065239D01*
X129482924Y-86924408D01*
X129647647Y-86748052D01*
X129774799Y-86542949D01*
X129859495Y-86316981D01*
X129799187Y-86127000D01*
X128797000Y-86127000D01*
X128797000Y-86147000D01*
X128543000Y-86147000D01*
X128543000Y-86127000D01*
X127540813Y-86127000D01*
X127480505Y-86316981D01*
X127565201Y-86542949D01*
X127692353Y-86748052D01*
X127857076Y-86924408D01*
X128053039Y-87065239D01*
X128194545Y-87129588D01*
X127966589Y-87224010D01*
X127723368Y-87386525D01*
X127591513Y-87518380D01*
X127569502Y-87445820D01*
X127510537Y-87335506D01*
X127431185Y-87238815D01*
X127334494Y-87159463D01*
X127224180Y-87100498D01*
X127104482Y-87064188D01*
X126980000Y-87051928D01*
X126765483Y-87051928D01*
X126942924Y-86924408D01*
X127107647Y-86748052D01*
X127234799Y-86542949D01*
X127319495Y-86316981D01*
X127259187Y-86127000D01*
X126257000Y-86127000D01*
X126257000Y-86147000D01*
X126003000Y-86147000D01*
X126003000Y-86127000D01*
X125000813Y-86127000D01*
X124940505Y-86316981D01*
X125025201Y-86542949D01*
X125152353Y-86748052D01*
X125317076Y-86924408D01*
X125494517Y-87051928D01*
X125280000Y-87051928D01*
X125155518Y-87064188D01*
X125035820Y-87100498D01*
X124925506Y-87159463D01*
X124828815Y-87238815D01*
X124749463Y-87335506D01*
X124690498Y-87445820D01*
X124654188Y-87565518D01*
X124641928Y-87690000D01*
X122218043Y-87690000D01*
X122153475Y-87593368D01*
X121946632Y-87386525D01*
X121703411Y-87224010D01*
X121475455Y-87129588D01*
X121616961Y-87065239D01*
X121812924Y-86924408D01*
X121977647Y-86748052D01*
X122104799Y-86542949D01*
X122189495Y-86316981D01*
X122129187Y-86127000D01*
X121127000Y-86127000D01*
X121127000Y-86147000D01*
X120873000Y-86147000D01*
X120873000Y-86127000D01*
X119870813Y-86127000D01*
X119810505Y-86316981D01*
X119895201Y-86542949D01*
X120022353Y-86748052D01*
X120187076Y-86924408D01*
X120383039Y-87065239D01*
X120524545Y-87129588D01*
X120296589Y-87224010D01*
X120053368Y-87386525D01*
X119846525Y-87593368D01*
X119730000Y-87767760D01*
X119613475Y-87593368D01*
X119406632Y-87386525D01*
X119163411Y-87224010D01*
X118935455Y-87129588D01*
X119076961Y-87065239D01*
X119272924Y-86924408D01*
X119437647Y-86748052D01*
X119564799Y-86542949D01*
X119649495Y-86316981D01*
X119589187Y-86127000D01*
X118587000Y-86127000D01*
X118587000Y-86147000D01*
X118333000Y-86147000D01*
X118333000Y-86127000D01*
X117330813Y-86127000D01*
X117270505Y-86316981D01*
X117355201Y-86542949D01*
X117482353Y-86748052D01*
X117647076Y-86924408D01*
X117843039Y-87065239D01*
X117984545Y-87129588D01*
X117756589Y-87224010D01*
X117513368Y-87386525D01*
X117306525Y-87593368D01*
X117190000Y-87767760D01*
X117073475Y-87593368D01*
X116866632Y-87386525D01*
X116623411Y-87224010D01*
X116395455Y-87129588D01*
X116536961Y-87065239D01*
X116732924Y-86924408D01*
X116897647Y-86748052D01*
X117024799Y-86542949D01*
X117109495Y-86316981D01*
X117049187Y-86127000D01*
X116047000Y-86127000D01*
X116047000Y-86147000D01*
X115793000Y-86147000D01*
X115793000Y-86127000D01*
X114790813Y-86127000D01*
X114730505Y-86316981D01*
X114815201Y-86542949D01*
X114942353Y-86748052D01*
X115107076Y-86924408D01*
X115303039Y-87065239D01*
X115444545Y-87129588D01*
X115216589Y-87224010D01*
X114973368Y-87386525D01*
X114841513Y-87518380D01*
X114819502Y-87445820D01*
X114760537Y-87335506D01*
X114681185Y-87238815D01*
X114584494Y-87159463D01*
X114474180Y-87100498D01*
X114354482Y-87064188D01*
X114230000Y-87051928D01*
X114015483Y-87051928D01*
X114192924Y-86924408D01*
X114357647Y-86748052D01*
X114484799Y-86542949D01*
X114569495Y-86316981D01*
X114509187Y-86127000D01*
X113507000Y-86127000D01*
X113507000Y-86147000D01*
X113253000Y-86147000D01*
X113253000Y-86127000D01*
X112250813Y-86127000D01*
X112190505Y-86316981D01*
X112275201Y-86542949D01*
X112402353Y-86748052D01*
X112567076Y-86924408D01*
X112744517Y-87051928D01*
X112530000Y-87051928D01*
X112405518Y-87064188D01*
X112285820Y-87100498D01*
X112175506Y-87159463D01*
X112078815Y-87238815D01*
X111999463Y-87335506D01*
X111940498Y-87445820D01*
X111904188Y-87565518D01*
X111891928Y-87690000D01*
X111891928Y-89390000D01*
X111904188Y-89514482D01*
X111940498Y-89634180D01*
X111999463Y-89744494D01*
X112078815Y-89841185D01*
X112175506Y-89920537D01*
X112285820Y-89979502D01*
X112405518Y-90015812D01*
X112530000Y-90028072D01*
X112570000Y-90028072D01*
X112570000Y-90484487D01*
X112114488Y-90940000D01*
X106510000Y-90940000D01*
X106510000Y-90139787D01*
X106513919Y-90099999D01*
X106510000Y-90060209D01*
X106498280Y-89941212D01*
X106451963Y-89788527D01*
X106376749Y-89647811D01*
X106275528Y-89524472D01*
X106244619Y-89499106D01*
X105905595Y-89160082D01*
X105899068Y-89127271D01*
X105828586Y-88957111D01*
X105726262Y-88803972D01*
X105596028Y-88673738D01*
X105442889Y-88571414D01*
X105272729Y-88500932D01*
X105092089Y-88465000D01*
X104907911Y-88465000D01*
X104727271Y-88500932D01*
X104557111Y-88571414D01*
X104403972Y-88673738D01*
X104273738Y-88803972D01*
X104171414Y-88957111D01*
X104100932Y-89127271D01*
X104065000Y-89307911D01*
X104065000Y-89492089D01*
X104100932Y-89672729D01*
X104171414Y-89842889D01*
X104273738Y-89996028D01*
X104403972Y-90126262D01*
X104557111Y-90228586D01*
X104727271Y-90299068D01*
X104760082Y-90305595D01*
X104890000Y-90435513D01*
X104890001Y-90940000D01*
X103589787Y-90940000D01*
X103549999Y-90936081D01*
X103510211Y-90940000D01*
X103510209Y-90940000D01*
X103391212Y-90951720D01*
X103238527Y-90998037D01*
X103097811Y-91073251D01*
X102974472Y-91174472D01*
X102949107Y-91205380D01*
X102305383Y-91849105D01*
X102274473Y-91874472D01*
X102249108Y-91905380D01*
X102173251Y-91997811D01*
X102098038Y-92138527D01*
X102069663Y-92232068D01*
X102051721Y-92291213D01*
X102036081Y-92450000D01*
X102040001Y-92489798D01*
X102040000Y-95549300D01*
X101932795Y-95709744D01*
X101854774Y-95898102D01*
X101815000Y-96098061D01*
X99825000Y-96098061D01*
X99825000Y-96053740D01*
X99767932Y-95766842D01*
X99655990Y-95496589D01*
X99493475Y-95253368D01*
X99286632Y-95046525D01*
X99043411Y-94884010D01*
X98816100Y-94789855D01*
X98882949Y-94764799D01*
X99088052Y-94637647D01*
X99264408Y-94472924D01*
X99405239Y-94276961D01*
X99505134Y-94057288D01*
X99529489Y-93976980D01*
X99468627Y-93787000D01*
X98467000Y-93787000D01*
X98467000Y-93807000D01*
X98213000Y-93807000D01*
X98213000Y-93787000D01*
X98193000Y-93787000D01*
X98193000Y-93533000D01*
X98213000Y-93533000D01*
X98213000Y-92530813D01*
X98467000Y-92530813D01*
X98467000Y-93533000D01*
X99468627Y-93533000D01*
X99529489Y-93343020D01*
X99505134Y-93262712D01*
X99405239Y-93043039D01*
X99264408Y-92847076D01*
X99088052Y-92682353D01*
X98882949Y-92555201D01*
X98656981Y-92470505D01*
X98467000Y-92530813D01*
X98213000Y-92530813D01*
X98023019Y-92470505D01*
X97797051Y-92555201D01*
X97591948Y-92682353D01*
X97415592Y-92847076D01*
X97274761Y-93043039D01*
X97210412Y-93184545D01*
X97115990Y-92956589D01*
X96953475Y-92713368D01*
X96746632Y-92506525D01*
X96503411Y-92344010D01*
X96233158Y-92232068D01*
X95946260Y-92175000D01*
X95653740Y-92175000D01*
X95366842Y-92232068D01*
X95096589Y-92344010D01*
X94853368Y-92506525D01*
X94646525Y-92713368D01*
X94484010Y-92956589D01*
X94372068Y-93226842D01*
X94315000Y-93513740D01*
X85660000Y-93513740D01*
X85660000Y-88029392D01*
X85682269Y-87779872D01*
X87765000Y-87779872D01*
X87765000Y-88220128D01*
X87850890Y-88651925D01*
X88019369Y-89058669D01*
X88263962Y-89424729D01*
X88575271Y-89736038D01*
X88941331Y-89980631D01*
X89348075Y-90149110D01*
X89779872Y-90235000D01*
X90220128Y-90235000D01*
X90651925Y-90149110D01*
X91058669Y-89980631D01*
X91424729Y-89736038D01*
X91736038Y-89424729D01*
X91980631Y-89058669D01*
X92149110Y-88651925D01*
X92235000Y-88220128D01*
X92235000Y-87779872D01*
X92149110Y-87348075D01*
X91980631Y-86941331D01*
X91736038Y-86575271D01*
X91424729Y-86263962D01*
X91058669Y-86019369D01*
X90651925Y-85850890D01*
X90220128Y-85765000D01*
X89779872Y-85765000D01*
X89348075Y-85850890D01*
X88941331Y-86019369D01*
X88575271Y-86263962D01*
X88263962Y-86575271D01*
X88019369Y-86941331D01*
X87850890Y-87348075D01*
X87765000Y-87779872D01*
X85682269Y-87779872D01*
X85731173Y-87231917D01*
X85934656Y-86488109D01*
X86266638Y-85792095D01*
X86345017Y-85683019D01*
X112190505Y-85683019D01*
X112250813Y-85873000D01*
X113253000Y-85873000D01*
X113253000Y-84871373D01*
X113507000Y-84871373D01*
X113507000Y-85873000D01*
X114509187Y-85873000D01*
X114569495Y-85683019D01*
X114730505Y-85683019D01*
X114790813Y-85873000D01*
X115793000Y-85873000D01*
X115793000Y-84871373D01*
X116047000Y-84871373D01*
X116047000Y-85873000D01*
X117049187Y-85873000D01*
X117109495Y-85683019D01*
X117270505Y-85683019D01*
X117330813Y-85873000D01*
X118333000Y-85873000D01*
X118333000Y-84871373D01*
X118587000Y-84871373D01*
X118587000Y-85873000D01*
X119589187Y-85873000D01*
X119649495Y-85683019D01*
X119810505Y-85683019D01*
X119870813Y-85873000D01*
X120873000Y-85873000D01*
X120873000Y-84871373D01*
X121127000Y-84871373D01*
X121127000Y-85873000D01*
X122129187Y-85873000D01*
X122189495Y-85683019D01*
X124940505Y-85683019D01*
X125000813Y-85873000D01*
X126003000Y-85873000D01*
X126003000Y-84871373D01*
X126257000Y-84871373D01*
X126257000Y-85873000D01*
X127259187Y-85873000D01*
X127319495Y-85683019D01*
X127480505Y-85683019D01*
X127540813Y-85873000D01*
X128543000Y-85873000D01*
X128543000Y-84871373D01*
X128797000Y-84871373D01*
X128797000Y-85873000D01*
X129799187Y-85873000D01*
X129859495Y-85683019D01*
X130020505Y-85683019D01*
X130080813Y-85873000D01*
X131083000Y-85873000D01*
X131083000Y-84871373D01*
X131337000Y-84871373D01*
X131337000Y-85873000D01*
X132339187Y-85873000D01*
X132399495Y-85683019D01*
X132560505Y-85683019D01*
X132620813Y-85873000D01*
X133623000Y-85873000D01*
X133623000Y-84871373D01*
X133877000Y-84871373D01*
X133877000Y-85873000D01*
X134879187Y-85873000D01*
X134939495Y-85683019D01*
X135100505Y-85683019D01*
X135160813Y-85873000D01*
X136163000Y-85873000D01*
X136163000Y-84871373D01*
X136417000Y-84871373D01*
X136417000Y-85873000D01*
X137419187Y-85873000D01*
X137479495Y-85683019D01*
X137640505Y-85683019D01*
X137700813Y-85873000D01*
X138703000Y-85873000D01*
X138703000Y-84871373D01*
X138957000Y-84871373D01*
X138957000Y-85873000D01*
X139959187Y-85873000D01*
X140019495Y-85683019D01*
X140180505Y-85683019D01*
X140240813Y-85873000D01*
X141243000Y-85873000D01*
X141243000Y-84871373D01*
X141497000Y-84871373D01*
X141497000Y-85873000D01*
X142499187Y-85873000D01*
X142559495Y-85683019D01*
X142720505Y-85683019D01*
X142780813Y-85873000D01*
X143783000Y-85873000D01*
X143783000Y-84871373D01*
X144037000Y-84871373D01*
X144037000Y-85873000D01*
X145039187Y-85873000D01*
X145099495Y-85683019D01*
X147810505Y-85683019D01*
X147870813Y-85873000D01*
X148873000Y-85873000D01*
X148873000Y-84871373D01*
X149127000Y-84871373D01*
X149127000Y-85873000D01*
X150129187Y-85873000D01*
X150189495Y-85683019D01*
X150350505Y-85683019D01*
X150410813Y-85873000D01*
X151413000Y-85873000D01*
X151413000Y-84871373D01*
X151667000Y-84871373D01*
X151667000Y-85873000D01*
X152669187Y-85873000D01*
X152729495Y-85683019D01*
X152890505Y-85683019D01*
X152950813Y-85873000D01*
X153953000Y-85873000D01*
X153953000Y-84871373D01*
X154207000Y-84871373D01*
X154207000Y-85873000D01*
X155209187Y-85873000D01*
X155269495Y-85683019D01*
X155430505Y-85683019D01*
X155490813Y-85873000D01*
X156493000Y-85873000D01*
X156493000Y-84871373D01*
X156747000Y-84871373D01*
X156747000Y-85873000D01*
X157749187Y-85873000D01*
X157809495Y-85683019D01*
X157970505Y-85683019D01*
X158030813Y-85873000D01*
X159033000Y-85873000D01*
X159033000Y-84871373D01*
X159287000Y-84871373D01*
X159287000Y-85873000D01*
X160289187Y-85873000D01*
X160349495Y-85683019D01*
X160510505Y-85683019D01*
X160570813Y-85873000D01*
X161573000Y-85873000D01*
X161573000Y-84871373D01*
X161827000Y-84871373D01*
X161827000Y-85873000D01*
X162829187Y-85873000D01*
X162889495Y-85683019D01*
X163050505Y-85683019D01*
X163110813Y-85873000D01*
X164113000Y-85873000D01*
X164113000Y-84871373D01*
X164367000Y-84871373D01*
X164367000Y-85873000D01*
X165369187Y-85873000D01*
X165429495Y-85683019D01*
X165590505Y-85683019D01*
X165650813Y-85873000D01*
X166653000Y-85873000D01*
X166653000Y-84871373D01*
X166907000Y-84871373D01*
X166907000Y-85873000D01*
X167909187Y-85873000D01*
X167969495Y-85683019D01*
X167884799Y-85457051D01*
X167757647Y-85251948D01*
X167592924Y-85075592D01*
X167396961Y-84934761D01*
X167177288Y-84834866D01*
X167096980Y-84810511D01*
X166907000Y-84871373D01*
X166653000Y-84871373D01*
X166463020Y-84810511D01*
X166382712Y-84834866D01*
X166163039Y-84934761D01*
X165967076Y-85075592D01*
X165802353Y-85251948D01*
X165675201Y-85457051D01*
X165590505Y-85683019D01*
X165429495Y-85683019D01*
X165344799Y-85457051D01*
X165217647Y-85251948D01*
X165052924Y-85075592D01*
X164856961Y-84934761D01*
X164637288Y-84834866D01*
X164556980Y-84810511D01*
X164367000Y-84871373D01*
X164113000Y-84871373D01*
X163923020Y-84810511D01*
X163842712Y-84834866D01*
X163623039Y-84934761D01*
X163427076Y-85075592D01*
X163262353Y-85251948D01*
X163135201Y-85457051D01*
X163050505Y-85683019D01*
X162889495Y-85683019D01*
X162804799Y-85457051D01*
X162677647Y-85251948D01*
X162512924Y-85075592D01*
X162316961Y-84934761D01*
X162097288Y-84834866D01*
X162016980Y-84810511D01*
X161827000Y-84871373D01*
X161573000Y-84871373D01*
X161383020Y-84810511D01*
X161302712Y-84834866D01*
X161083039Y-84934761D01*
X160887076Y-85075592D01*
X160722353Y-85251948D01*
X160595201Y-85457051D01*
X160510505Y-85683019D01*
X160349495Y-85683019D01*
X160264799Y-85457051D01*
X160137647Y-85251948D01*
X159972924Y-85075592D01*
X159776961Y-84934761D01*
X159557288Y-84834866D01*
X159476980Y-84810511D01*
X159287000Y-84871373D01*
X159033000Y-84871373D01*
X158843020Y-84810511D01*
X158762712Y-84834866D01*
X158543039Y-84934761D01*
X158347076Y-85075592D01*
X158182353Y-85251948D01*
X158055201Y-85457051D01*
X157970505Y-85683019D01*
X157809495Y-85683019D01*
X157724799Y-85457051D01*
X157597647Y-85251948D01*
X157432924Y-85075592D01*
X157236961Y-84934761D01*
X157017288Y-84834866D01*
X156936980Y-84810511D01*
X156747000Y-84871373D01*
X156493000Y-84871373D01*
X156303020Y-84810511D01*
X156222712Y-84834866D01*
X156003039Y-84934761D01*
X155807076Y-85075592D01*
X155642353Y-85251948D01*
X155515201Y-85457051D01*
X155430505Y-85683019D01*
X155269495Y-85683019D01*
X155184799Y-85457051D01*
X155057647Y-85251948D01*
X154892924Y-85075592D01*
X154696961Y-84934761D01*
X154477288Y-84834866D01*
X154396980Y-84810511D01*
X154207000Y-84871373D01*
X153953000Y-84871373D01*
X153763020Y-84810511D01*
X153682712Y-84834866D01*
X153463039Y-84934761D01*
X153267076Y-85075592D01*
X153102353Y-85251948D01*
X152975201Y-85457051D01*
X152890505Y-85683019D01*
X152729495Y-85683019D01*
X152644799Y-85457051D01*
X152517647Y-85251948D01*
X152352924Y-85075592D01*
X152156961Y-84934761D01*
X151937288Y-84834866D01*
X151856980Y-84810511D01*
X151667000Y-84871373D01*
X151413000Y-84871373D01*
X151223020Y-84810511D01*
X151142712Y-84834866D01*
X150923039Y-84934761D01*
X150727076Y-85075592D01*
X150562353Y-85251948D01*
X150435201Y-85457051D01*
X150350505Y-85683019D01*
X150189495Y-85683019D01*
X150104799Y-85457051D01*
X149977647Y-85251948D01*
X149812924Y-85075592D01*
X149616961Y-84934761D01*
X149397288Y-84834866D01*
X149316980Y-84810511D01*
X149127000Y-84871373D01*
X148873000Y-84871373D01*
X148683020Y-84810511D01*
X148602712Y-84834866D01*
X148383039Y-84934761D01*
X148187076Y-85075592D01*
X148022353Y-85251948D01*
X147895201Y-85457051D01*
X147810505Y-85683019D01*
X145099495Y-85683019D01*
X145014799Y-85457051D01*
X144887647Y-85251948D01*
X144722924Y-85075592D01*
X144526961Y-84934761D01*
X144307288Y-84834866D01*
X144226980Y-84810511D01*
X144037000Y-84871373D01*
X143783000Y-84871373D01*
X143593020Y-84810511D01*
X143512712Y-84834866D01*
X143293039Y-84934761D01*
X143097076Y-85075592D01*
X142932353Y-85251948D01*
X142805201Y-85457051D01*
X142720505Y-85683019D01*
X142559495Y-85683019D01*
X142474799Y-85457051D01*
X142347647Y-85251948D01*
X142182924Y-85075592D01*
X141986961Y-84934761D01*
X141767288Y-84834866D01*
X141686980Y-84810511D01*
X141497000Y-84871373D01*
X141243000Y-84871373D01*
X141053020Y-84810511D01*
X140972712Y-84834866D01*
X140753039Y-84934761D01*
X140557076Y-85075592D01*
X140392353Y-85251948D01*
X140265201Y-85457051D01*
X140180505Y-85683019D01*
X140019495Y-85683019D01*
X139934799Y-85457051D01*
X139807647Y-85251948D01*
X139642924Y-85075592D01*
X139446961Y-84934761D01*
X139227288Y-84834866D01*
X139146980Y-84810511D01*
X138957000Y-84871373D01*
X138703000Y-84871373D01*
X138513020Y-84810511D01*
X138432712Y-84834866D01*
X138213039Y-84934761D01*
X138017076Y-85075592D01*
X137852353Y-85251948D01*
X137725201Y-85457051D01*
X137640505Y-85683019D01*
X137479495Y-85683019D01*
X137394799Y-85457051D01*
X137267647Y-85251948D01*
X137102924Y-85075592D01*
X136906961Y-84934761D01*
X136687288Y-84834866D01*
X136606980Y-84810511D01*
X136417000Y-84871373D01*
X136163000Y-84871373D01*
X135973020Y-84810511D01*
X135892712Y-84834866D01*
X135673039Y-84934761D01*
X135477076Y-85075592D01*
X135312353Y-85251948D01*
X135185201Y-85457051D01*
X135100505Y-85683019D01*
X134939495Y-85683019D01*
X134854799Y-85457051D01*
X134727647Y-85251948D01*
X134562924Y-85075592D01*
X134366961Y-84934761D01*
X134147288Y-84834866D01*
X134066980Y-84810511D01*
X133877000Y-84871373D01*
X133623000Y-84871373D01*
X133433020Y-84810511D01*
X133352712Y-84834866D01*
X133133039Y-84934761D01*
X132937076Y-85075592D01*
X132772353Y-85251948D01*
X132645201Y-85457051D01*
X132560505Y-85683019D01*
X132399495Y-85683019D01*
X132314799Y-85457051D01*
X132187647Y-85251948D01*
X132022924Y-85075592D01*
X131826961Y-84934761D01*
X131607288Y-84834866D01*
X131526980Y-84810511D01*
X131337000Y-84871373D01*
X131083000Y-84871373D01*
X130893020Y-84810511D01*
X130812712Y-84834866D01*
X130593039Y-84934761D01*
X130397076Y-85075592D01*
X130232353Y-85251948D01*
X130105201Y-85457051D01*
X130020505Y-85683019D01*
X129859495Y-85683019D01*
X129774799Y-85457051D01*
X129647647Y-85251948D01*
X129482924Y-85075592D01*
X129286961Y-84934761D01*
X129067288Y-84834866D01*
X128986980Y-84810511D01*
X128797000Y-84871373D01*
X128543000Y-84871373D01*
X128353020Y-84810511D01*
X128272712Y-84834866D01*
X128053039Y-84934761D01*
X127857076Y-85075592D01*
X127692353Y-85251948D01*
X127565201Y-85457051D01*
X127480505Y-85683019D01*
X127319495Y-85683019D01*
X127234799Y-85457051D01*
X127107647Y-85251948D01*
X126942924Y-85075592D01*
X126746961Y-84934761D01*
X126527288Y-84834866D01*
X126446980Y-84810511D01*
X126257000Y-84871373D01*
X126003000Y-84871373D01*
X125813020Y-84810511D01*
X125732712Y-84834866D01*
X125513039Y-84934761D01*
X125317076Y-85075592D01*
X125152353Y-85251948D01*
X125025201Y-85457051D01*
X124940505Y-85683019D01*
X122189495Y-85683019D01*
X122104799Y-85457051D01*
X121977647Y-85251948D01*
X121812924Y-85075592D01*
X121616961Y-84934761D01*
X121397288Y-84834866D01*
X121316980Y-84810511D01*
X121127000Y-84871373D01*
X120873000Y-84871373D01*
X120683020Y-84810511D01*
X120602712Y-84834866D01*
X120383039Y-84934761D01*
X120187076Y-85075592D01*
X120022353Y-85251948D01*
X119895201Y-85457051D01*
X119810505Y-85683019D01*
X119649495Y-85683019D01*
X119564799Y-85457051D01*
X119437647Y-85251948D01*
X119272924Y-85075592D01*
X119076961Y-84934761D01*
X118857288Y-84834866D01*
X118776980Y-84810511D01*
X118587000Y-84871373D01*
X118333000Y-84871373D01*
X118143020Y-84810511D01*
X118062712Y-84834866D01*
X117843039Y-84934761D01*
X117647076Y-85075592D01*
X117482353Y-85251948D01*
X117355201Y-85457051D01*
X117270505Y-85683019D01*
X117109495Y-85683019D01*
X117024799Y-85457051D01*
X116897647Y-85251948D01*
X116732924Y-85075592D01*
X116536961Y-84934761D01*
X116317288Y-84834866D01*
X116236980Y-84810511D01*
X116047000Y-84871373D01*
X115793000Y-84871373D01*
X115603020Y-84810511D01*
X115522712Y-84834866D01*
X115303039Y-84934761D01*
X115107076Y-85075592D01*
X114942353Y-85251948D01*
X114815201Y-85457051D01*
X114730505Y-85683019D01*
X114569495Y-85683019D01*
X114484799Y-85457051D01*
X114357647Y-85251948D01*
X114192924Y-85075592D01*
X113996961Y-84934761D01*
X113777288Y-84834866D01*
X113696980Y-84810511D01*
X113507000Y-84871373D01*
X113253000Y-84871373D01*
X113063020Y-84810511D01*
X112982712Y-84834866D01*
X112763039Y-84934761D01*
X112567076Y-85075592D01*
X112402353Y-85251948D01*
X112275201Y-85457051D01*
X112190505Y-85683019D01*
X86345017Y-85683019D01*
X86716626Y-85165870D01*
X87270403Y-84629223D01*
X87910451Y-84199129D01*
X88616553Y-83889171D01*
X89371457Y-83707935D01*
X90024207Y-83660000D01*
X179970608Y-83660000D01*
X180768083Y-83731173D01*
G37*
X180768083Y-83731173D02*
X181511891Y-83934656D01*
X182207905Y-84266638D01*
X182834130Y-84716626D01*
X183370777Y-85270403D01*
X183800871Y-85910451D01*
X184110829Y-86616553D01*
X184292065Y-87371457D01*
X184340000Y-88024207D01*
X184340000Y-94365000D01*
X151250000Y-94365000D01*
X151126118Y-94377201D01*
X151006996Y-94413336D01*
X150897213Y-94472017D01*
X150800987Y-94550987D01*
X150550987Y-94800987D01*
X150472017Y-94897213D01*
X150413336Y-95006996D01*
X150377201Y-95126118D01*
X150365000Y-95250000D01*
X150365000Y-97000000D01*
X150377201Y-97123882D01*
X150413336Y-97243004D01*
X150472017Y-97352787D01*
X150550987Y-97449013D01*
X150800987Y-97699013D01*
X150897213Y-97777983D01*
X151006996Y-97836664D01*
X151126118Y-97872799D01*
X151250000Y-97885000D01*
X154700408Y-97885000D01*
X154606996Y-97913336D01*
X154497213Y-97972017D01*
X154400987Y-98050987D01*
X154150987Y-98300987D01*
X154072017Y-98397213D01*
X154013336Y-98506996D01*
X153977201Y-98626118D01*
X153965000Y-98750000D01*
X153965000Y-106865000D01*
X150350000Y-106865000D01*
X150226118Y-106877201D01*
X150106996Y-106913336D01*
X149997213Y-106972017D01*
X149950000Y-107010763D01*
X149902787Y-106972017D01*
X149793004Y-106913336D01*
X149673882Y-106877201D01*
X149550000Y-106865000D01*
X147750000Y-106865000D01*
X147626118Y-106877201D01*
X147506996Y-106913336D01*
X147397213Y-106972017D01*
X147300987Y-107050987D01*
X147050987Y-107300987D01*
X146972017Y-107397213D01*
X146913336Y-107506996D01*
X146877201Y-107626118D01*
X146865000Y-107750000D01*
X146865000Y-108040000D01*
X134885513Y-108040000D01*
X131303424Y-104457911D01*
X136665000Y-104457911D01*
X136665000Y-104642089D01*
X136700932Y-104822729D01*
X136771414Y-104992889D01*
X136873738Y-105146028D01*
X137003972Y-105276262D01*
X137157111Y-105378586D01*
X137327271Y-105449068D01*
X137507911Y-105485000D01*
X137645554Y-105485000D01*
X137854741Y-105694187D01*
X137877762Y-105722238D01*
X137989680Y-105814087D01*
X138117367Y-105882337D01*
X138213886Y-105911616D01*
X138255914Y-105924365D01*
X138270132Y-105925765D01*
X138363895Y-105935000D01*
X138363902Y-105935000D01*
X138399999Y-105938555D01*
X138436096Y-105935000D01*
X139367049Y-105935000D01*
X139507111Y-106028586D01*
X139677271Y-106099068D01*
X139857911Y-106135000D01*
X140042089Y-106135000D01*
X140222729Y-106099068D01*
X140392889Y-106028586D01*
X140546028Y-105926262D01*
X140676262Y-105796028D01*
X140778586Y-105642889D01*
X140849068Y-105472729D01*
X140885000Y-105292089D01*
X140885000Y-105107911D01*
X140849068Y-104927271D01*
X140778586Y-104757111D01*
X140676262Y-104603972D01*
X140546028Y-104473738D01*
X140392889Y-104371414D01*
X140222729Y-104300932D01*
X140042089Y-104265000D01*
X139857911Y-104265000D01*
X139677271Y-104300932D01*
X139507111Y-104371414D01*
X139367049Y-104465000D01*
X138704446Y-104465000D01*
X138486588Y-104247142D01*
X138428586Y-104107111D01*
X138326262Y-103953972D01*
X138196028Y-103823738D01*
X138042889Y-103721414D01*
X137872729Y-103650932D01*
X137692089Y-103615000D01*
X137507911Y-103615000D01*
X137327271Y-103650932D01*
X137157111Y-103721414D01*
X137003972Y-103823738D01*
X136873738Y-103953972D01*
X136771414Y-104107111D01*
X136700932Y-104277271D01*
X136665000Y-104457911D01*
X131303424Y-104457911D01*
X131160000Y-104314488D01*
X131160000Y-99257911D01*
X134715000Y-99257911D01*
X134715000Y-99442089D01*
X134750932Y-99622729D01*
X134821414Y-99792889D01*
X134923738Y-99946028D01*
X135053972Y-100076262D01*
X135207111Y-100178586D01*
X135377271Y-100249068D01*
X135542485Y-100281931D01*
X135604747Y-100344193D01*
X135627763Y-100372239D01*
X135739681Y-100464088D01*
X135867368Y-100532338D01*
X136005916Y-100574366D01*
X136113896Y-100585001D01*
X136113905Y-100585001D01*
X136150000Y-100588556D01*
X136180416Y-100585560D01*
X137189048Y-101594193D01*
X137212064Y-101622238D01*
X137240108Y-101645253D01*
X137323982Y-101714087D01*
X137451668Y-101782337D01*
X137590217Y-101824365D01*
X137734302Y-101838556D01*
X137770407Y-101835000D01*
X138345554Y-101835000D01*
X138504741Y-101994187D01*
X138509848Y-102000410D01*
X138573738Y-102096028D01*
X138703972Y-102226262D01*
X138857111Y-102328586D01*
X139027271Y-102399068D01*
X139207911Y-102435000D01*
X139392089Y-102435000D01*
X139572729Y-102399068D01*
X139742889Y-102328586D01*
X139896028Y-102226262D01*
X140026262Y-102096028D01*
X140128586Y-101942889D01*
X140199068Y-101772729D01*
X140235000Y-101592089D01*
X140235000Y-101407911D01*
X140199068Y-101227271D01*
X140128586Y-101057111D01*
X140026262Y-100903972D01*
X140014987Y-100892697D01*
X140035000Y-100792089D01*
X140035000Y-100607911D01*
X139999068Y-100427271D01*
X139928586Y-100257111D01*
X139826262Y-100103972D01*
X139696028Y-99973738D01*
X139542889Y-99871414D01*
X139372729Y-99800932D01*
X139192089Y-99765000D01*
X139007911Y-99765000D01*
X138827271Y-99800932D01*
X138657111Y-99871414D01*
X138517049Y-99965000D01*
X138204446Y-99965000D01*
X138145258Y-99905812D01*
X138145253Y-99905806D01*
X137381932Y-99142485D01*
X137349068Y-98977271D01*
X137278586Y-98807111D01*
X137176262Y-98653972D01*
X137046028Y-98523738D01*
X136892889Y-98421414D01*
X136722729Y-98350932D01*
X136542089Y-98315000D01*
X136357911Y-98315000D01*
X136177271Y-98350932D01*
X136007111Y-98421414D01*
X135947548Y-98461212D01*
X135922729Y-98450932D01*
X135742089Y-98415000D01*
X135557911Y-98415000D01*
X135377271Y-98450932D01*
X135207111Y-98521414D01*
X135053972Y-98623738D01*
X134923738Y-98753972D01*
X134821414Y-98907111D01*
X134750932Y-99077271D01*
X134715000Y-99257911D01*
X131160000Y-99257911D01*
X131160000Y-97189787D01*
X131163919Y-97149999D01*
X131160000Y-97110209D01*
X131148280Y-96991212D01*
X131101963Y-96838527D01*
X131066951Y-96773024D01*
X131026749Y-96697810D01*
X130952970Y-96607911D01*
X130925528Y-96574472D01*
X130894619Y-96549106D01*
X129753424Y-95407911D01*
X135365000Y-95407911D01*
X135365000Y-95592089D01*
X135400932Y-95772729D01*
X135471414Y-95942889D01*
X135573738Y-96096028D01*
X135577710Y-96100000D01*
X135573738Y-96103972D01*
X135471414Y-96257111D01*
X135400932Y-96427271D01*
X135365000Y-96607911D01*
X135365000Y-96792089D01*
X135400932Y-96972729D01*
X135471414Y-97142889D01*
X135573738Y-97296028D01*
X135703972Y-97426262D01*
X135857111Y-97528586D01*
X136027271Y-97599068D01*
X136207911Y-97635000D01*
X136392089Y-97635000D01*
X136572729Y-97599068D01*
X136742889Y-97528586D01*
X136882951Y-97435000D01*
X139693427Y-97435000D01*
X139700932Y-97472729D01*
X139771414Y-97642889D01*
X139873738Y-97796028D01*
X140003972Y-97926262D01*
X140157111Y-98028586D01*
X140327271Y-98099068D01*
X140507911Y-98135000D01*
X140692089Y-98135000D01*
X140872729Y-98099068D01*
X141042889Y-98028586D01*
X141196028Y-97926262D01*
X141326262Y-97796028D01*
X141428586Y-97642889D01*
X141499068Y-97472729D01*
X141535000Y-97292089D01*
X141535000Y-97107911D01*
X141499068Y-96927271D01*
X141460848Y-96835000D01*
X143232960Y-96835000D01*
X143273738Y-96896028D01*
X143403972Y-97026262D01*
X143557111Y-97128586D01*
X143727271Y-97199068D01*
X143907911Y-97235000D01*
X144092089Y-97235000D01*
X144272729Y-97199068D01*
X144442889Y-97128586D01*
X144596028Y-97026262D01*
X144726262Y-96896028D01*
X144828586Y-96742889D01*
X144899068Y-96572729D01*
X144935000Y-96392089D01*
X144935000Y-96207911D01*
X144899068Y-96027271D01*
X144828586Y-95857111D01*
X144726262Y-95703972D01*
X144596028Y-95573738D01*
X144442889Y-95471414D01*
X144272729Y-95400932D01*
X144092089Y-95365000D01*
X143907911Y-95365000D01*
X143884131Y-95369730D01*
X143836105Y-95365000D01*
X143800000Y-95361444D01*
X143763895Y-95365000D01*
X141626464Y-95365000D01*
X141599068Y-95227271D01*
X141528586Y-95057111D01*
X141426262Y-94903972D01*
X141296028Y-94773738D01*
X141142889Y-94671414D01*
X140972729Y-94600932D01*
X140792089Y-94565000D01*
X140607911Y-94565000D01*
X140427271Y-94600932D01*
X140257111Y-94671414D01*
X140117049Y-94765000D01*
X136882951Y-94765000D01*
X136742889Y-94671414D01*
X136572729Y-94600932D01*
X136392089Y-94565000D01*
X136207911Y-94565000D01*
X136027271Y-94600932D01*
X135857111Y-94671414D01*
X135703972Y-94773738D01*
X135573738Y-94903972D01*
X135471414Y-95057111D01*
X135400932Y-95227271D01*
X135365000Y-95407911D01*
X129753424Y-95407911D01*
X128950899Y-94605387D01*
X128925528Y-94574472D01*
X128802189Y-94473251D01*
X128661473Y-94398037D01*
X128508788Y-94351720D01*
X128389791Y-94340000D01*
X128389788Y-94340000D01*
X128350000Y-94336081D01*
X128310212Y-94340000D01*
X115850700Y-94340000D01*
X115690256Y-94232795D01*
X115501898Y-94154774D01*
X115301939Y-94115000D01*
X115098061Y-94115000D01*
X114898102Y-94154774D01*
X114709744Y-94232795D01*
X114540226Y-94346063D01*
X114396063Y-94490226D01*
X114282795Y-94659744D01*
X114204774Y-94848102D01*
X114165000Y-95048061D01*
X114165000Y-95251939D01*
X114204774Y-95451898D01*
X114282795Y-95640256D01*
X114289306Y-95650000D01*
X114282795Y-95659744D01*
X114204774Y-95848102D01*
X114165000Y-96048061D01*
X114165000Y-96251939D01*
X114204774Y-96451898D01*
X114282795Y-96640256D01*
X114396063Y-96809774D01*
X114540226Y-96953937D01*
X114709744Y-97067205D01*
X114898102Y-97145226D01*
X115098061Y-97185000D01*
X115301939Y-97185000D01*
X115501898Y-97145226D01*
X115690256Y-97067205D01*
X115859774Y-96953937D01*
X116003937Y-96809774D01*
X116117205Y-96640256D01*
X116125647Y-96619875D01*
X116235512Y-96510010D01*
X127786668Y-96510010D01*
X128989990Y-97713333D01*
X128989991Y-104838022D01*
X128986071Y-104877820D01*
X128990942Y-104927271D01*
X129001711Y-105036608D01*
X129023341Y-105107911D01*
X129048028Y-105189293D01*
X129123241Y-105330009D01*
X129163108Y-105378586D01*
X129224463Y-105453348D01*
X129255373Y-105478715D01*
X133721285Y-109944628D01*
X133746652Y-109975538D01*
X133869991Y-110076759D01*
X134010707Y-110151973D01*
X134163392Y-110198290D01*
X134282389Y-110210010D01*
X134282391Y-110210010D01*
X134322179Y-110213929D01*
X134361967Y-110210010D01*
X145728792Y-110210010D01*
X145700932Y-110277271D01*
X145668068Y-110442485D01*
X145605807Y-110504747D01*
X145577761Y-110527764D01*
X145485912Y-110639682D01*
X145417662Y-110767369D01*
X145411244Y-110788527D01*
X145375634Y-110905916D01*
X145361443Y-111050001D01*
X145364999Y-111086107D01*
X145365000Y-112117584D01*
X145361443Y-112153699D01*
X145375634Y-112297784D01*
X145400530Y-112379853D01*
X145417663Y-112436332D01*
X145485913Y-112564019D01*
X145577762Y-112675937D01*
X145605807Y-112698953D01*
X146708915Y-113802062D01*
X146731931Y-113830107D01*
X146843849Y-113921956D01*
X146971536Y-113990206D01*
X147101345Y-114029583D01*
X147110084Y-114032234D01*
X147254169Y-114046425D01*
X147290274Y-114042869D01*
X147506329Y-114042869D01*
X148164970Y-114701511D01*
X148164971Y-117579883D01*
X147755808Y-117989047D01*
X147727762Y-118012064D01*
X147635913Y-118123982D01*
X147567663Y-118251669D01*
X147543097Y-118332653D01*
X147525635Y-118390216D01*
X147511444Y-118534301D01*
X147515000Y-118570407D01*
X147515001Y-119913885D01*
X147511444Y-119950000D01*
X147525635Y-120094085D01*
X147550564Y-120176262D01*
X147567664Y-120232633D01*
X147615000Y-120321193D01*
X147615000Y-120342089D01*
X147650932Y-120522729D01*
X147721414Y-120692889D01*
X147823738Y-120846028D01*
X147953972Y-120976262D01*
X148107111Y-121078586D01*
X148277271Y-121149068D01*
X148457911Y-121185000D01*
X148642089Y-121185000D01*
X148822729Y-121149068D01*
X148992889Y-121078586D01*
X149146028Y-120976262D01*
X149276262Y-120846028D01*
X149378586Y-120692889D01*
X149449068Y-120522729D01*
X149485000Y-120342089D01*
X149485000Y-120183631D01*
X149496028Y-120176262D01*
X149500000Y-120172290D01*
X149503972Y-120176262D01*
X149657111Y-120278586D01*
X149827271Y-120349068D01*
X150007911Y-120385000D01*
X150192089Y-120385000D01*
X150372729Y-120349068D01*
X150542889Y-120278586D01*
X150696028Y-120176262D01*
X150826262Y-120046028D01*
X150928586Y-119892889D01*
X150999068Y-119722729D01*
X151035000Y-119542089D01*
X151035000Y-119357911D01*
X150999068Y-119177271D01*
X150928586Y-119007111D01*
X150835000Y-118867049D01*
X150835000Y-113936096D01*
X150838555Y-113899999D01*
X150835000Y-113863902D01*
X150835000Y-113863895D01*
X150824365Y-113755915D01*
X150818683Y-113737182D01*
X150810175Y-113709138D01*
X150782337Y-113617367D01*
X150714087Y-113489680D01*
X150652798Y-113415000D01*
X150645253Y-113405806D01*
X150645250Y-113405803D01*
X150622237Y-113377762D01*
X150594197Y-113354750D01*
X150124447Y-112885000D01*
X154315000Y-112885000D01*
X154315000Y-118500000D01*
X154327201Y-118623882D01*
X154363336Y-118743004D01*
X154422017Y-118852787D01*
X154500987Y-118949013D01*
X154750987Y-119199013D01*
X154847213Y-119277983D01*
X154956996Y-119336664D01*
X155076118Y-119372799D01*
X155200000Y-119385000D01*
X184340001Y-119385000D01*
X184340001Y-127970597D01*
X184268827Y-128768083D01*
X184065344Y-129511890D01*
X183733363Y-130207904D01*
X183283374Y-130834130D01*
X182729597Y-131370777D01*
X182089549Y-131800871D01*
X181383447Y-132110829D01*
X180628543Y-132292065D01*
X179975793Y-132340000D01*
X90029392Y-132340000D01*
X89231917Y-132268827D01*
X88488110Y-132065344D01*
X87792096Y-131733363D01*
X87165870Y-131283374D01*
X86629223Y-130729597D01*
X86199129Y-130089549D01*
X85889171Y-129383447D01*
X85707935Y-128628543D01*
X85660000Y-127975793D01*
X85660000Y-127779872D01*
X87765000Y-127779872D01*
X87765000Y-128220128D01*
X87850890Y-128651925D01*
X88019369Y-129058669D01*
X88263962Y-129424729D01*
X88575271Y-129736038D01*
X88941331Y-129980631D01*
X89348075Y-130149110D01*
X89779872Y-130235000D01*
X90220128Y-130235000D01*
X90651925Y-130149110D01*
X91058669Y-129980631D01*
X91424729Y-129736038D01*
X91736038Y-129424729D01*
X91980631Y-129058669D01*
X92149110Y-128651925D01*
X92235000Y-128220128D01*
X92235000Y-127779872D01*
X177765000Y-127779872D01*
X177765000Y-128220128D01*
X177850890Y-128651925D01*
X178019369Y-129058669D01*
X178263962Y-129424729D01*
X178575271Y-129736038D01*
X178941331Y-129980631D01*
X179348075Y-130149110D01*
X179779872Y-130235000D01*
X180220128Y-130235000D01*
X180651925Y-130149110D01*
X181058669Y-129980631D01*
X181424729Y-129736038D01*
X181736038Y-129424729D01*
X181980631Y-129058669D01*
X182149110Y-128651925D01*
X182235000Y-128220128D01*
X182235000Y-127779872D01*
X182149110Y-127348075D01*
X181980631Y-126941331D01*
X181736038Y-126575271D01*
X181424729Y-126263962D01*
X181058669Y-126019369D01*
X180651925Y-125850890D01*
X180220128Y-125765000D01*
X179779872Y-125765000D01*
X179348075Y-125850890D01*
X178941331Y-126019369D01*
X178575271Y-126263962D01*
X178263962Y-126575271D01*
X178019369Y-126941331D01*
X177850890Y-127348075D01*
X177765000Y-127779872D01*
X92235000Y-127779872D01*
X92149110Y-127348075D01*
X91980631Y-126941331D01*
X91736038Y-126575271D01*
X91424729Y-126263962D01*
X91058669Y-126019369D01*
X90651925Y-125850890D01*
X90220128Y-125765000D01*
X89779872Y-125765000D01*
X89348075Y-125850890D01*
X88941331Y-126019369D01*
X88575271Y-126263962D01*
X88263962Y-126575271D01*
X88019369Y-126941331D01*
X87850890Y-127348075D01*
X87765000Y-127779872D01*
X85660000Y-127779872D01*
X85660000Y-123098061D01*
X124665000Y-123098061D01*
X124665000Y-123301939D01*
X124704774Y-123501898D01*
X124782795Y-123690256D01*
X124896063Y-123859774D01*
X125040226Y-124003937D01*
X125209744Y-124117205D01*
X125398102Y-124195226D01*
X125598061Y-124235000D01*
X125801939Y-124235000D01*
X126001898Y-124195226D01*
X126190256Y-124117205D01*
X126238454Y-124085000D01*
X130711546Y-124085000D01*
X130759744Y-124117205D01*
X130948102Y-124195226D01*
X131148061Y-124235000D01*
X131351939Y-124235000D01*
X131551898Y-124195226D01*
X131740256Y-124117205D01*
X131909774Y-124003937D01*
X132053937Y-123859774D01*
X132167205Y-123690256D01*
X132245226Y-123501898D01*
X132285000Y-123301939D01*
X132285000Y-123098061D01*
X132245226Y-122898102D01*
X132167205Y-122709744D01*
X132053937Y-122540226D01*
X131909774Y-122396063D01*
X131740256Y-122282795D01*
X131551898Y-122204774D01*
X131351939Y-122165000D01*
X131148061Y-122165000D01*
X130948102Y-122204774D01*
X130759744Y-122282795D01*
X130711546Y-122315000D01*
X126238454Y-122315000D01*
X126190256Y-122282795D01*
X126001898Y-122204774D01*
X125801939Y-122165000D01*
X125598061Y-122165000D01*
X125398102Y-122204774D01*
X125209744Y-122282795D01*
X125040226Y-122396063D01*
X124896063Y-122540226D01*
X124782795Y-122709744D01*
X124704774Y-122898102D01*
X124665000Y-123098061D01*
X85660000Y-123098061D01*
X85660000Y-118007911D01*
X123565000Y-118007911D01*
X123565000Y-118192089D01*
X123600932Y-118372729D01*
X123671414Y-118542889D01*
X123773738Y-118696028D01*
X123903972Y-118826262D01*
X124057111Y-118928586D01*
X124227271Y-118999068D01*
X124407911Y-119035000D01*
X124592089Y-119035000D01*
X124772729Y-118999068D01*
X124942889Y-118928586D01*
X125096028Y-118826262D01*
X125226262Y-118696028D01*
X125328586Y-118542889D01*
X125399068Y-118372729D01*
X125435000Y-118192089D01*
X125435000Y-118007911D01*
X125399068Y-117827271D01*
X125328586Y-117657111D01*
X125235000Y-117517049D01*
X125235000Y-115276464D01*
X125372729Y-115249068D01*
X125542889Y-115178586D01*
X125696028Y-115076262D01*
X125826262Y-114946028D01*
X125928586Y-114792889D01*
X125999068Y-114622729D01*
X126035000Y-114442089D01*
X126035000Y-114257911D01*
X125999068Y-114077271D01*
X125928586Y-113907111D01*
X125826262Y-113753972D01*
X125696028Y-113623738D01*
X125542889Y-113521414D01*
X125372729Y-113450932D01*
X125192089Y-113415000D01*
X125007911Y-113415000D01*
X124827271Y-113450932D01*
X124657111Y-113521414D01*
X124503972Y-113623738D01*
X124373738Y-113753972D01*
X124271414Y-113907111D01*
X124200932Y-114077271D01*
X124168068Y-114242485D01*
X124005808Y-114404746D01*
X123977763Y-114427762D01*
X123885914Y-114539680D01*
X123817664Y-114667367D01*
X123775635Y-114805915D01*
X123761444Y-114950000D01*
X123765001Y-114986115D01*
X123765000Y-117517049D01*
X123671414Y-117657111D01*
X123600932Y-117827271D01*
X123565000Y-118007911D01*
X85660000Y-118007911D01*
X85660000Y-109770000D01*
X94311928Y-109770000D01*
X94311928Y-111470000D01*
X94324188Y-111594482D01*
X94360498Y-111714180D01*
X94419463Y-111824494D01*
X94498815Y-111921185D01*
X94595506Y-112000537D01*
X94705820Y-112059502D01*
X94825518Y-112095812D01*
X94950000Y-112108072D01*
X96650000Y-112108072D01*
X96774482Y-112095812D01*
X96894180Y-112059502D01*
X97004494Y-112000537D01*
X97101185Y-111921185D01*
X97180537Y-111824494D01*
X97239502Y-111714180D01*
X97275812Y-111594482D01*
X97288072Y-111470000D01*
X97288072Y-109770000D01*
X97275812Y-109645518D01*
X97239502Y-109525820D01*
X97180537Y-109415506D01*
X97101185Y-109318815D01*
X97004494Y-109239463D01*
X96894180Y-109180498D01*
X96821620Y-109158487D01*
X96953475Y-109026632D01*
X97115990Y-108783411D01*
X97227932Y-108513158D01*
X97285000Y-108226260D01*
X97285000Y-107933740D01*
X97230550Y-107660000D01*
X112661928Y-107660000D01*
X112661928Y-109260000D01*
X112674188Y-109384482D01*
X112710498Y-109504180D01*
X112769463Y-109614494D01*
X112848815Y-109711185D01*
X112945506Y-109790537D01*
X113055820Y-109849502D01*
X113175518Y-109885812D01*
X113183961Y-109886643D01*
X112985363Y-110085241D01*
X112828320Y-110320273D01*
X112720147Y-110581426D01*
X112665000Y-110858665D01*
X112665000Y-111141335D01*
X112720147Y-111418574D01*
X112828320Y-111679727D01*
X112985363Y-111914759D01*
X113185241Y-112114637D01*
X113420273Y-112271680D01*
X113681426Y-112379853D01*
X113958665Y-112435000D01*
X114241335Y-112435000D01*
X114518574Y-112379853D01*
X114779727Y-112271680D01*
X115014759Y-112114637D01*
X115214637Y-111914759D01*
X115371680Y-111679727D01*
X115479853Y-111418574D01*
X115501626Y-111309114D01*
X120580171Y-111309114D01*
X120600527Y-111376239D01*
X120695438Y-111587408D01*
X120829722Y-111776003D01*
X120998219Y-111934777D01*
X121194454Y-112057628D01*
X121410885Y-112139835D01*
X121593000Y-112078908D01*
X121593000Y-111127000D01*
X121847000Y-111127000D01*
X121847000Y-112078908D01*
X122029115Y-112139835D01*
X122245546Y-112057628D01*
X122441781Y-111934777D01*
X122610278Y-111776003D01*
X122744562Y-111587408D01*
X122839473Y-111376239D01*
X122859829Y-111309114D01*
X122798297Y-111127000D01*
X121847000Y-111127000D01*
X121593000Y-111127000D01*
X120641703Y-111127000D01*
X120580171Y-111309114D01*
X115501626Y-111309114D01*
X115535000Y-111141335D01*
X115535000Y-110858665D01*
X115479853Y-110581426D01*
X115371680Y-110320273D01*
X115214637Y-110085241D01*
X115016039Y-109886643D01*
X115024482Y-109885812D01*
X115144180Y-109849502D01*
X115254494Y-109790537D01*
X115351185Y-109711185D01*
X115430537Y-109614494D01*
X115489502Y-109504180D01*
X115525812Y-109384482D01*
X115538072Y-109260000D01*
X115538072Y-108318665D01*
X120285000Y-108318665D01*
X120285000Y-108601335D01*
X120340147Y-108878574D01*
X120448320Y-109139727D01*
X120605363Y-109374759D01*
X120805241Y-109574637D01*
X121040273Y-109731680D01*
X121301426Y-109839853D01*
X121408361Y-109861124D01*
X121194454Y-109942372D01*
X120998219Y-110065223D01*
X120829722Y-110223997D01*
X120695438Y-110412592D01*
X120600527Y-110623761D01*
X120580171Y-110690886D01*
X120641703Y-110873000D01*
X121593000Y-110873000D01*
X121593000Y-110853000D01*
X121847000Y-110853000D01*
X121847000Y-110873000D01*
X122798297Y-110873000D01*
X122859829Y-110690886D01*
X122839473Y-110623761D01*
X122744562Y-110412592D01*
X122610278Y-110223997D01*
X122441781Y-110065223D01*
X122245546Y-109942372D01*
X122031639Y-109861124D01*
X122138574Y-109839853D01*
X122399727Y-109731680D01*
X122634759Y-109574637D01*
X122834637Y-109374759D01*
X122991680Y-109139727D01*
X123099853Y-108878574D01*
X123155000Y-108601335D01*
X123155000Y-108318665D01*
X123099853Y-108041426D01*
X122991680Y-107780273D01*
X122834637Y-107545241D01*
X122634759Y-107345363D01*
X122399727Y-107188320D01*
X122138574Y-107080147D01*
X121861335Y-107025000D01*
X121578665Y-107025000D01*
X121301426Y-107080147D01*
X121040273Y-107188320D01*
X120805241Y-107345363D01*
X120605363Y-107545241D01*
X120448320Y-107780273D01*
X120340147Y-108041426D01*
X120285000Y-108318665D01*
X115538072Y-108318665D01*
X115538072Y-107660000D01*
X115525812Y-107535518D01*
X115489502Y-107415820D01*
X115430537Y-107305506D01*
X115351185Y-107208815D01*
X115254494Y-107129463D01*
X115144180Y-107070498D01*
X115024482Y-107034188D01*
X114900000Y-107021928D01*
X113300000Y-107021928D01*
X113175518Y-107034188D01*
X113055820Y-107070498D01*
X112945506Y-107129463D01*
X112848815Y-107208815D01*
X112769463Y-107305506D01*
X112710498Y-107415820D01*
X112674188Y-107535518D01*
X112661928Y-107660000D01*
X97230550Y-107660000D01*
X97227932Y-107646842D01*
X97115990Y-107376589D01*
X96953475Y-107133368D01*
X96746632Y-106926525D01*
X96572240Y-106810000D01*
X96746632Y-106693475D01*
X96953475Y-106486632D01*
X97115990Y-106243411D01*
X97227932Y-105973158D01*
X97285000Y-105686260D01*
X97285000Y-105393740D01*
X97227932Y-105106842D01*
X97115990Y-104836589D01*
X96953475Y-104593368D01*
X96746632Y-104386525D01*
X96572240Y-104270000D01*
X96746632Y-104153475D01*
X96953475Y-103946632D01*
X97115990Y-103703411D01*
X97227932Y-103433158D01*
X97285000Y-103146260D01*
X97285000Y-102853740D01*
X97227932Y-102566842D01*
X97183124Y-102458665D01*
X112665000Y-102458665D01*
X112665000Y-102741335D01*
X112720147Y-103018574D01*
X112828320Y-103279727D01*
X112985363Y-103514759D01*
X113185241Y-103714637D01*
X113417759Y-103870000D01*
X113185241Y-104025363D01*
X112985363Y-104225241D01*
X112828320Y-104460273D01*
X112720147Y-104721426D01*
X112665000Y-104998665D01*
X112665000Y-105281335D01*
X112720147Y-105558574D01*
X112828320Y-105819727D01*
X112985363Y-106054759D01*
X113185241Y-106254637D01*
X113420273Y-106411680D01*
X113681426Y-106519853D01*
X113958665Y-106575000D01*
X114241335Y-106575000D01*
X114518574Y-106519853D01*
X114779727Y-106411680D01*
X115014759Y-106254637D01*
X115214637Y-106054759D01*
X115371680Y-105819727D01*
X115479853Y-105558574D01*
X115535000Y-105281335D01*
X115535000Y-104998665D01*
X115479853Y-104721426D01*
X115371680Y-104460273D01*
X115291317Y-104340000D01*
X120281928Y-104340000D01*
X120281928Y-105940000D01*
X120294188Y-106064482D01*
X120330498Y-106184180D01*
X120389463Y-106294494D01*
X120468815Y-106391185D01*
X120565506Y-106470537D01*
X120675820Y-106529502D01*
X120795518Y-106565812D01*
X120920000Y-106578072D01*
X122520000Y-106578072D01*
X122644482Y-106565812D01*
X122764180Y-106529502D01*
X122874494Y-106470537D01*
X122971185Y-106391185D01*
X123050537Y-106294494D01*
X123109502Y-106184180D01*
X123145812Y-106064482D01*
X123158072Y-105940000D01*
X123158072Y-104340000D01*
X123145812Y-104215518D01*
X123109502Y-104095820D01*
X123050537Y-103985506D01*
X122971185Y-103888815D01*
X122874494Y-103809463D01*
X122764180Y-103750498D01*
X122644482Y-103714188D01*
X122636039Y-103713357D01*
X122834637Y-103514759D01*
X122991680Y-103279727D01*
X123099853Y-103018574D01*
X123155000Y-102741335D01*
X123155000Y-102458665D01*
X123099853Y-102181426D01*
X122991680Y-101920273D01*
X122834637Y-101685241D01*
X122634759Y-101485363D01*
X122399727Y-101328320D01*
X122138574Y-101220147D01*
X121861335Y-101165000D01*
X121578665Y-101165000D01*
X121301426Y-101220147D01*
X121040273Y-101328320D01*
X120805241Y-101485363D01*
X120605363Y-101685241D01*
X120448320Y-101920273D01*
X120340147Y-102181426D01*
X120285000Y-102458665D01*
X120285000Y-102741335D01*
X120340147Y-103018574D01*
X120448320Y-103279727D01*
X120605363Y-103514759D01*
X120803961Y-103713357D01*
X120795518Y-103714188D01*
X120675820Y-103750498D01*
X120565506Y-103809463D01*
X120468815Y-103888815D01*
X120389463Y-103985506D01*
X120330498Y-104095820D01*
X120294188Y-104215518D01*
X120281928Y-104340000D01*
X115291317Y-104340000D01*
X115214637Y-104225241D01*
X115014759Y-104025363D01*
X114782241Y-103870000D01*
X115014759Y-103714637D01*
X115214637Y-103514759D01*
X115371680Y-103279727D01*
X115479853Y-103018574D01*
X115535000Y-102741335D01*
X115535000Y-102458665D01*
X115479853Y-102181426D01*
X115371680Y-101920273D01*
X115214637Y-101685241D01*
X115014759Y-101485363D01*
X114779727Y-101328320D01*
X114518574Y-101220147D01*
X114241335Y-101165000D01*
X113958665Y-101165000D01*
X113681426Y-101220147D01*
X113420273Y-101328320D01*
X113185241Y-101485363D01*
X112985363Y-101685241D01*
X112828320Y-101920273D01*
X112720147Y-102181426D01*
X112665000Y-102458665D01*
X97183124Y-102458665D01*
X97115990Y-102296589D01*
X96953475Y-102053368D01*
X96746632Y-101846525D01*
X96503411Y-101684010D01*
X96233158Y-101572068D01*
X95946260Y-101515000D01*
X95653740Y-101515000D01*
X95366842Y-101572068D01*
X95096589Y-101684010D01*
X94853368Y-101846525D01*
X94646525Y-102053368D01*
X94484010Y-102296589D01*
X94372068Y-102566842D01*
X94315000Y-102853740D01*
X94315000Y-103146260D01*
X94372068Y-103433158D01*
X94484010Y-103703411D01*
X94646525Y-103946632D01*
X94853368Y-104153475D01*
X95027760Y-104270000D01*
X94853368Y-104386525D01*
X94646525Y-104593368D01*
X94484010Y-104836589D01*
X94372068Y-105106842D01*
X94315000Y-105393740D01*
X94315000Y-105686260D01*
X94372068Y-105973158D01*
X94484010Y-106243411D01*
X94646525Y-106486632D01*
X94853368Y-106693475D01*
X95027760Y-106810000D01*
X94853368Y-106926525D01*
X94646525Y-107133368D01*
X94484010Y-107376589D01*
X94372068Y-107646842D01*
X94315000Y-107933740D01*
X94315000Y-108226260D01*
X94372068Y-108513158D01*
X94484010Y-108783411D01*
X94646525Y-109026632D01*
X94778380Y-109158487D01*
X94705820Y-109180498D01*
X94595506Y-109239463D01*
X94498815Y-109318815D01*
X94419463Y-109415506D01*
X94360498Y-109525820D01*
X94324188Y-109645518D01*
X94311928Y-109770000D01*
X85660000Y-109770000D01*
X85660000Y-93513740D01*
X94315000Y-93513740D01*
X94315000Y-93806260D01*
X94372068Y-94093158D01*
X94484010Y-94363411D01*
X94646525Y-94606632D01*
X94853368Y-94813475D01*
X95027760Y-94930000D01*
X94853368Y-95046525D01*
X94646525Y-95253368D01*
X94484010Y-95496589D01*
X94372068Y-95766842D01*
X94315000Y-96053740D01*
X94315000Y-96346260D01*
X94372068Y-96633158D01*
X94484010Y-96903411D01*
X94646525Y-97146632D01*
X94853368Y-97353475D01*
X95027760Y-97470000D01*
X94853368Y-97586525D01*
X94646525Y-97793368D01*
X94484010Y-98036589D01*
X94372068Y-98306842D01*
X94315000Y-98593740D01*
X94315000Y-98886260D01*
X94372068Y-99173158D01*
X94484010Y-99443411D01*
X94646525Y-99686632D01*
X94853368Y-99893475D01*
X95096589Y-100055990D01*
X95366842Y-100167932D01*
X95653740Y-100225000D01*
X95946260Y-100225000D01*
X96233158Y-100167932D01*
X96503411Y-100055990D01*
X96746632Y-99893475D01*
X96878487Y-99761620D01*
X96900498Y-99834180D01*
X96959463Y-99944494D01*
X97038815Y-100041185D01*
X97135506Y-100120537D01*
X97245820Y-100179502D01*
X97365518Y-100215812D01*
X97490000Y-100228072D01*
X99190000Y-100228072D01*
X99314482Y-100215812D01*
X99434180Y-100179502D01*
X99544494Y-100120537D01*
X99641185Y-100041185D01*
X99720537Y-99944494D01*
X99779502Y-99834180D01*
X99815812Y-99714482D01*
X99828072Y-99590000D01*
X99828072Y-97890000D01*
X99815812Y-97765518D01*
X99779502Y-97645820D01*
X99720537Y-97535506D01*
X99641185Y-97438815D01*
X99544494Y-97359463D01*
X99434180Y-97300498D01*
X99361620Y-97278487D01*
X99493475Y-97146632D01*
X99655990Y-96903411D01*
X99767932Y-96633158D01*
X99825000Y-96346260D01*
X99825000Y-96098061D01*
X101815000Y-96098061D01*
X101815000Y-96301939D01*
X101854774Y-96501898D01*
X101932795Y-96690256D01*
X102046063Y-96859774D01*
X102190226Y-97003937D01*
X102359744Y-97117205D01*
X102548102Y-97195226D01*
X102748061Y-97235000D01*
X102951939Y-97235000D01*
X103151898Y-97195226D01*
X103340256Y-97117205D01*
X103509774Y-97003937D01*
X103653937Y-96859774D01*
X103767205Y-96690256D01*
X103845226Y-96501898D01*
X103885000Y-96301939D01*
X103885000Y-96098061D01*
X103845226Y-95898102D01*
X103767205Y-95709744D01*
X103660000Y-95549300D01*
X103660000Y-92785512D01*
X103885513Y-92560000D01*
X105049300Y-92560000D01*
X105209744Y-92667205D01*
X105398102Y-92745226D01*
X105598061Y-92785000D01*
X105801939Y-92785000D01*
X106001898Y-92745226D01*
X106190256Y-92667205D01*
X106350700Y-92560000D01*
X112410212Y-92560000D01*
X112450000Y-92563919D01*
X112489788Y-92560000D01*
X112489791Y-92560000D01*
X112608788Y-92548280D01*
X112761473Y-92501963D01*
X112902189Y-92426749D01*
X113025528Y-92325528D01*
X113050899Y-92294613D01*
X113924619Y-91420894D01*
X113955528Y-91395528D01*
X114056749Y-91272189D01*
X114122537Y-91149108D01*
X114131963Y-91131474D01*
X114149624Y-91073252D01*
X114178280Y-90978788D01*
X114190000Y-90859791D01*
X114190000Y-90859788D01*
X114193919Y-90820000D01*
X114190000Y-90780212D01*
X114190000Y-90028072D01*
X114230000Y-90028072D01*
X114354482Y-90015812D01*
X114474180Y-89979502D01*
X114584494Y-89920537D01*
X114681185Y-89841185D01*
X114760537Y-89744494D01*
X114819502Y-89634180D01*
X114841513Y-89561620D01*
X114973368Y-89693475D01*
X115216589Y-89855990D01*
X115486842Y-89967932D01*
X115773740Y-90025000D01*
X116066260Y-90025000D01*
X116353158Y-89967932D01*
X116623411Y-89855990D01*
X116866632Y-89693475D01*
X117073475Y-89486632D01*
X117190000Y-89312240D01*
X117306525Y-89486632D01*
X117513368Y-89693475D01*
X117756589Y-89855990D01*
X118026842Y-89967932D01*
X118313740Y-90025000D01*
X118606260Y-90025000D01*
X118893158Y-89967932D01*
X119163411Y-89855990D01*
X119406632Y-89693475D01*
X119613475Y-89486632D01*
X119730000Y-89312240D01*
X119846525Y-89486632D01*
X120053368Y-89693475D01*
X120296589Y-89855990D01*
X120566842Y-89967932D01*
X120853740Y-90025000D01*
X121146260Y-90025000D01*
X121433158Y-89967932D01*
X121703411Y-89855990D01*
X121946632Y-89693475D01*
X122153475Y-89486632D01*
X122315990Y-89243411D01*
X122427932Y-88973158D01*
X122485000Y-88686260D01*
X122485000Y-88393740D01*
X122427932Y-88106842D01*
X122315990Y-87836589D01*
X122218043Y-87690000D01*
X124641928Y-87690000D01*
X124641928Y-89390000D01*
X124654188Y-89514482D01*
X124690498Y-89634180D01*
X124749463Y-89744494D01*
X124828815Y-89841185D01*
X124925506Y-89920537D01*
X125035820Y-89979502D01*
X125155518Y-90015812D01*
X125280000Y-90028072D01*
X126980000Y-90028072D01*
X127104482Y-90015812D01*
X127224180Y-89979502D01*
X127334494Y-89920537D01*
X127431185Y-89841185D01*
X127510537Y-89744494D01*
X127569502Y-89634180D01*
X127591513Y-89561620D01*
X127723368Y-89693475D01*
X127966589Y-89855990D01*
X128236842Y-89967932D01*
X128523740Y-90025000D01*
X128816260Y-90025000D01*
X129103158Y-89967932D01*
X129373411Y-89855990D01*
X129616632Y-89693475D01*
X129823475Y-89486632D01*
X129940000Y-89312240D01*
X130056525Y-89486632D01*
X130263368Y-89693475D01*
X130506589Y-89855990D01*
X130776842Y-89967932D01*
X131063740Y-90025000D01*
X131356260Y-90025000D01*
X131643158Y-89967932D01*
X131913411Y-89855990D01*
X132156632Y-89693475D01*
X132363475Y-89486632D01*
X132480000Y-89312240D01*
X132596525Y-89486632D01*
X132803368Y-89693475D01*
X133046589Y-89855990D01*
X133316842Y-89967932D01*
X133603740Y-90025000D01*
X133896260Y-90025000D01*
X134183158Y-89967932D01*
X134453411Y-89855990D01*
X134696632Y-89693475D01*
X134903475Y-89486632D01*
X135020000Y-89312240D01*
X135136525Y-89486632D01*
X135343368Y-89693475D01*
X135586589Y-89855990D01*
X135856842Y-89967932D01*
X136143740Y-90025000D01*
X136436260Y-90025000D01*
X136723158Y-89967932D01*
X136993411Y-89855990D01*
X137236632Y-89693475D01*
X137443475Y-89486632D01*
X137560000Y-89312240D01*
X137676525Y-89486632D01*
X137883368Y-89693475D01*
X138126589Y-89855990D01*
X138396842Y-89967932D01*
X138683740Y-90025000D01*
X138976260Y-90025000D01*
X139263158Y-89967932D01*
X139533411Y-89855990D01*
X139776632Y-89693475D01*
X139983475Y-89486632D01*
X140100000Y-89312240D01*
X140216525Y-89486632D01*
X140423368Y-89693475D01*
X140666589Y-89855990D01*
X140936842Y-89967932D01*
X141223740Y-90025000D01*
X141516260Y-90025000D01*
X141803158Y-89967932D01*
X142073411Y-89855990D01*
X142316632Y-89693475D01*
X142523475Y-89486632D01*
X142640000Y-89312240D01*
X142756525Y-89486632D01*
X142963368Y-89693475D01*
X143206589Y-89855990D01*
X143476842Y-89967932D01*
X143763740Y-90025000D01*
X144056260Y-90025000D01*
X144343158Y-89967932D01*
X144613411Y-89855990D01*
X144856632Y-89693475D01*
X145063475Y-89486632D01*
X145225990Y-89243411D01*
X145337932Y-88973158D01*
X145395000Y-88686260D01*
X145395000Y-88393740D01*
X145337932Y-88106842D01*
X145225990Y-87836589D01*
X145128043Y-87690000D01*
X147511928Y-87690000D01*
X147511928Y-89390000D01*
X147524188Y-89514482D01*
X147560498Y-89634180D01*
X147619463Y-89744494D01*
X147698815Y-89841185D01*
X147795506Y-89920537D01*
X147905820Y-89979502D01*
X148025518Y-90015812D01*
X148150000Y-90028072D01*
X149850000Y-90028072D01*
X149974482Y-90015812D01*
X150094180Y-89979502D01*
X150204494Y-89920537D01*
X150301185Y-89841185D01*
X150380537Y-89744494D01*
X150439502Y-89634180D01*
X150461513Y-89561620D01*
X150593368Y-89693475D01*
X150836589Y-89855990D01*
X151106842Y-89967932D01*
X151393740Y-90025000D01*
X151686260Y-90025000D01*
X151973158Y-89967932D01*
X152243411Y-89855990D01*
X152486632Y-89693475D01*
X152693475Y-89486632D01*
X152810000Y-89312240D01*
X152926525Y-89486632D01*
X153133368Y-89693475D01*
X153376589Y-89855990D01*
X153646842Y-89967932D01*
X153933740Y-90025000D01*
X154226260Y-90025000D01*
X154513158Y-89967932D01*
X154783411Y-89855990D01*
X155026632Y-89693475D01*
X155233475Y-89486632D01*
X155350000Y-89312240D01*
X155466525Y-89486632D01*
X155673368Y-89693475D01*
X155916589Y-89855990D01*
X156186842Y-89967932D01*
X156473740Y-90025000D01*
X156766260Y-90025000D01*
X157053158Y-89967932D01*
X157323411Y-89855990D01*
X157566632Y-89693475D01*
X157773475Y-89486632D01*
X157890000Y-89312240D01*
X158006525Y-89486632D01*
X158213368Y-89693475D01*
X158456589Y-89855990D01*
X158726842Y-89967932D01*
X159013740Y-90025000D01*
X159306260Y-90025000D01*
X159593158Y-89967932D01*
X159863411Y-89855990D01*
X160106632Y-89693475D01*
X160313475Y-89486632D01*
X160430000Y-89312240D01*
X160546525Y-89486632D01*
X160753368Y-89693475D01*
X160996589Y-89855990D01*
X161266842Y-89967932D01*
X161553740Y-90025000D01*
X161846260Y-90025000D01*
X162133158Y-89967932D01*
X162403411Y-89855990D01*
X162646632Y-89693475D01*
X162853475Y-89486632D01*
X162970000Y-89312240D01*
X163086525Y-89486632D01*
X163293368Y-89693475D01*
X163536589Y-89855990D01*
X163806842Y-89967932D01*
X164093740Y-90025000D01*
X164386260Y-90025000D01*
X164673158Y-89967932D01*
X164943411Y-89855990D01*
X165186632Y-89693475D01*
X165393475Y-89486632D01*
X165510000Y-89312240D01*
X165626525Y-89486632D01*
X165833368Y-89693475D01*
X166076589Y-89855990D01*
X166346842Y-89967932D01*
X166633740Y-90025000D01*
X166926260Y-90025000D01*
X167213158Y-89967932D01*
X167483411Y-89855990D01*
X167726632Y-89693475D01*
X167933475Y-89486632D01*
X168095990Y-89243411D01*
X168207932Y-88973158D01*
X168265000Y-88686260D01*
X168265000Y-88393740D01*
X168207932Y-88106842D01*
X168095990Y-87836589D01*
X168058093Y-87779872D01*
X177765000Y-87779872D01*
X177765000Y-88220128D01*
X177850890Y-88651925D01*
X178019369Y-89058669D01*
X178263962Y-89424729D01*
X178575271Y-89736038D01*
X178941331Y-89980631D01*
X179348075Y-90149110D01*
X179779872Y-90235000D01*
X180220128Y-90235000D01*
X180651925Y-90149110D01*
X181058669Y-89980631D01*
X181424729Y-89736038D01*
X181736038Y-89424729D01*
X181980631Y-89058669D01*
X182149110Y-88651925D01*
X182235000Y-88220128D01*
X182235000Y-87779872D01*
X182149110Y-87348075D01*
X181980631Y-86941331D01*
X181736038Y-86575271D01*
X181424729Y-86263962D01*
X181058669Y-86019369D01*
X180651925Y-85850890D01*
X180220128Y-85765000D01*
X179779872Y-85765000D01*
X179348075Y-85850890D01*
X178941331Y-86019369D01*
X178575271Y-86263962D01*
X178263962Y-86575271D01*
X178019369Y-86941331D01*
X177850890Y-87348075D01*
X177765000Y-87779872D01*
X168058093Y-87779872D01*
X167933475Y-87593368D01*
X167726632Y-87386525D01*
X167483411Y-87224010D01*
X167255455Y-87129588D01*
X167396961Y-87065239D01*
X167592924Y-86924408D01*
X167757647Y-86748052D01*
X167884799Y-86542949D01*
X167969495Y-86316981D01*
X167909187Y-86127000D01*
X166907000Y-86127000D01*
X166907000Y-86147000D01*
X166653000Y-86147000D01*
X166653000Y-86127000D01*
X165650813Y-86127000D01*
X165590505Y-86316981D01*
X165675201Y-86542949D01*
X165802353Y-86748052D01*
X165967076Y-86924408D01*
X166163039Y-87065239D01*
X166304545Y-87129588D01*
X166076589Y-87224010D01*
X165833368Y-87386525D01*
X165626525Y-87593368D01*
X165510000Y-87767760D01*
X165393475Y-87593368D01*
X165186632Y-87386525D01*
X164943411Y-87224010D01*
X164715455Y-87129588D01*
X164856961Y-87065239D01*
X165052924Y-86924408D01*
X165217647Y-86748052D01*
X165344799Y-86542949D01*
X165429495Y-86316981D01*
X165369187Y-86127000D01*
X164367000Y-86127000D01*
X164367000Y-86147000D01*
X164113000Y-86147000D01*
X164113000Y-86127000D01*
X163110813Y-86127000D01*
X163050505Y-86316981D01*
X163135201Y-86542949D01*
X163262353Y-86748052D01*
X163427076Y-86924408D01*
X163623039Y-87065239D01*
X163764545Y-87129588D01*
X163536589Y-87224010D01*
X163293368Y-87386525D01*
X163086525Y-87593368D01*
X162970000Y-87767760D01*
X162853475Y-87593368D01*
X162646632Y-87386525D01*
X162403411Y-87224010D01*
X162175455Y-87129588D01*
X162316961Y-87065239D01*
X162512924Y-86924408D01*
X162677647Y-86748052D01*
X162804799Y-86542949D01*
X162889495Y-86316981D01*
X162829187Y-86127000D01*
X161827000Y-86127000D01*
X161827000Y-86147000D01*
X161573000Y-86147000D01*
X161573000Y-86127000D01*
X160570813Y-86127000D01*
X160510505Y-86316981D01*
X160595201Y-86542949D01*
X160722353Y-86748052D01*
X160887076Y-86924408D01*
X161083039Y-87065239D01*
X161224545Y-87129588D01*
X160996589Y-87224010D01*
X160753368Y-87386525D01*
X160546525Y-87593368D01*
X160430000Y-87767760D01*
X160313475Y-87593368D01*
X160106632Y-87386525D01*
X159863411Y-87224010D01*
X159635455Y-87129588D01*
X159776961Y-87065239D01*
X159972924Y-86924408D01*
X160137647Y-86748052D01*
X160264799Y-86542949D01*
X160349495Y-86316981D01*
X160289187Y-86127000D01*
X159287000Y-86127000D01*
X159287000Y-86147000D01*
X159033000Y-86147000D01*
X159033000Y-86127000D01*
X158030813Y-86127000D01*
X157970505Y-86316981D01*
X158055201Y-86542949D01*
X158182353Y-86748052D01*
X158347076Y-86924408D01*
X158543039Y-87065239D01*
X158684545Y-87129588D01*
X158456589Y-87224010D01*
X158213368Y-87386525D01*
X158006525Y-87593368D01*
X157890000Y-87767760D01*
X157773475Y-87593368D01*
X157566632Y-87386525D01*
X157323411Y-87224010D01*
X157095455Y-87129588D01*
X157236961Y-87065239D01*
X157432924Y-86924408D01*
X157597647Y-86748052D01*
X157724799Y-86542949D01*
X157809495Y-86316981D01*
X157749187Y-86127000D01*
X156747000Y-86127000D01*
X156747000Y-86147000D01*
X156493000Y-86147000D01*
X156493000Y-86127000D01*
X155490813Y-86127000D01*
X155430505Y-86316981D01*
X155515201Y-86542949D01*
X155642353Y-86748052D01*
X155807076Y-86924408D01*
X156003039Y-87065239D01*
X156144545Y-87129588D01*
X155916589Y-87224010D01*
X155673368Y-87386525D01*
X155466525Y-87593368D01*
X155350000Y-87767760D01*
X155233475Y-87593368D01*
X155026632Y-87386525D01*
X154783411Y-87224010D01*
X154555455Y-87129588D01*
X154696961Y-87065239D01*
X154892924Y-86924408D01*
X155057647Y-86748052D01*
X155184799Y-86542949D01*
X155269495Y-86316981D01*
X155209187Y-86127000D01*
X154207000Y-86127000D01*
X154207000Y-86147000D01*
X153953000Y-86147000D01*
X153953000Y-86127000D01*
X152950813Y-86127000D01*
X152890505Y-86316981D01*
X152975201Y-86542949D01*
X153102353Y-86748052D01*
X153267076Y-86924408D01*
X153463039Y-87065239D01*
X153604545Y-87129588D01*
X153376589Y-87224010D01*
X153133368Y-87386525D01*
X152926525Y-87593368D01*
X152810000Y-87767760D01*
X152693475Y-87593368D01*
X152486632Y-87386525D01*
X152243411Y-87224010D01*
X152015455Y-87129588D01*
X152156961Y-87065239D01*
X152352924Y-86924408D01*
X152517647Y-86748052D01*
X152644799Y-86542949D01*
X152729495Y-86316981D01*
X152669187Y-86127000D01*
X151667000Y-86127000D01*
X151667000Y-86147000D01*
X151413000Y-86147000D01*
X151413000Y-86127000D01*
X150410813Y-86127000D01*
X150350505Y-86316981D01*
X150435201Y-86542949D01*
X150562353Y-86748052D01*
X150727076Y-86924408D01*
X150923039Y-87065239D01*
X151064545Y-87129588D01*
X150836589Y-87224010D01*
X150593368Y-87386525D01*
X150461513Y-87518380D01*
X150439502Y-87445820D01*
X150380537Y-87335506D01*
X150301185Y-87238815D01*
X150204494Y-87159463D01*
X150094180Y-87100498D01*
X149974482Y-87064188D01*
X149850000Y-87051928D01*
X149635483Y-87051928D01*
X149812924Y-86924408D01*
X149977647Y-86748052D01*
X150104799Y-86542949D01*
X150189495Y-86316981D01*
X150129187Y-86127000D01*
X149127000Y-86127000D01*
X149127000Y-86147000D01*
X148873000Y-86147000D01*
X148873000Y-86127000D01*
X147870813Y-86127000D01*
X147810505Y-86316981D01*
X147895201Y-86542949D01*
X148022353Y-86748052D01*
X148187076Y-86924408D01*
X148364517Y-87051928D01*
X148150000Y-87051928D01*
X148025518Y-87064188D01*
X147905820Y-87100498D01*
X147795506Y-87159463D01*
X147698815Y-87238815D01*
X147619463Y-87335506D01*
X147560498Y-87445820D01*
X147524188Y-87565518D01*
X147511928Y-87690000D01*
X145128043Y-87690000D01*
X145063475Y-87593368D01*
X144856632Y-87386525D01*
X144613411Y-87224010D01*
X144385455Y-87129588D01*
X144526961Y-87065239D01*
X144722924Y-86924408D01*
X144887647Y-86748052D01*
X145014799Y-86542949D01*
X145099495Y-86316981D01*
X145039187Y-86127000D01*
X144037000Y-86127000D01*
X144037000Y-86147000D01*
X143783000Y-86147000D01*
X143783000Y-86127000D01*
X142780813Y-86127000D01*
X142720505Y-86316981D01*
X142805201Y-86542949D01*
X142932353Y-86748052D01*
X143097076Y-86924408D01*
X143293039Y-87065239D01*
X143434545Y-87129588D01*
X143206589Y-87224010D01*
X142963368Y-87386525D01*
X142756525Y-87593368D01*
X142640000Y-87767760D01*
X142523475Y-87593368D01*
X142316632Y-87386525D01*
X142073411Y-87224010D01*
X141845455Y-87129588D01*
X141986961Y-87065239D01*
X142182924Y-86924408D01*
X142347647Y-86748052D01*
X142474799Y-86542949D01*
X142559495Y-86316981D01*
X142499187Y-86127000D01*
X141497000Y-86127000D01*
X141497000Y-86147000D01*
X141243000Y-86147000D01*
X141243000Y-86127000D01*
X140240813Y-86127000D01*
X140180505Y-86316981D01*
X140265201Y-86542949D01*
X140392353Y-86748052D01*
X140557076Y-86924408D01*
X140753039Y-87065239D01*
X140894545Y-87129588D01*
X140666589Y-87224010D01*
X140423368Y-87386525D01*
X140216525Y-87593368D01*
X140100000Y-87767760D01*
X139983475Y-87593368D01*
X139776632Y-87386525D01*
X139533411Y-87224010D01*
X139305455Y-87129588D01*
X139446961Y-87065239D01*
X139642924Y-86924408D01*
X139807647Y-86748052D01*
X139934799Y-86542949D01*
X140019495Y-86316981D01*
X139959187Y-86127000D01*
X138957000Y-86127000D01*
X138957000Y-86147000D01*
X138703000Y-86147000D01*
X138703000Y-86127000D01*
X137700813Y-86127000D01*
X137640505Y-86316981D01*
X137725201Y-86542949D01*
X137852353Y-86748052D01*
X138017076Y-86924408D01*
X138213039Y-87065239D01*
X138354545Y-87129588D01*
X138126589Y-87224010D01*
X137883368Y-87386525D01*
X137676525Y-87593368D01*
X137560000Y-87767760D01*
X137443475Y-87593368D01*
X137236632Y-87386525D01*
X136993411Y-87224010D01*
X136765455Y-87129588D01*
X136906961Y-87065239D01*
X137102924Y-86924408D01*
X137267647Y-86748052D01*
X137394799Y-86542949D01*
X137479495Y-86316981D01*
X137419187Y-86127000D01*
X136417000Y-86127000D01*
X136417000Y-86147000D01*
X136163000Y-86147000D01*
X136163000Y-86127000D01*
X135160813Y-86127000D01*
X135100505Y-86316981D01*
X135185201Y-86542949D01*
X135312353Y-86748052D01*
X135477076Y-86924408D01*
X135673039Y-87065239D01*
X135814545Y-87129588D01*
X135586589Y-87224010D01*
X135343368Y-87386525D01*
X135136525Y-87593368D01*
X135020000Y-87767760D01*
X134903475Y-87593368D01*
X134696632Y-87386525D01*
X134453411Y-87224010D01*
X134225455Y-87129588D01*
X134366961Y-87065239D01*
X134562924Y-86924408D01*
X134727647Y-86748052D01*
X134854799Y-86542949D01*
X134939495Y-86316981D01*
X134879187Y-86127000D01*
X133877000Y-86127000D01*
X133877000Y-86147000D01*
X133623000Y-86147000D01*
X133623000Y-86127000D01*
X132620813Y-86127000D01*
X132560505Y-86316981D01*
X132645201Y-86542949D01*
X132772353Y-86748052D01*
X132937076Y-86924408D01*
X133133039Y-87065239D01*
X133274545Y-87129588D01*
X133046589Y-87224010D01*
X132803368Y-87386525D01*
X132596525Y-87593368D01*
X132480000Y-87767760D01*
X132363475Y-87593368D01*
X132156632Y-87386525D01*
X131913411Y-87224010D01*
X131685455Y-87129588D01*
X131826961Y-87065239D01*
X132022924Y-86924408D01*
X132187647Y-86748052D01*
X132314799Y-86542949D01*
X132399495Y-86316981D01*
X132339187Y-86127000D01*
X131337000Y-86127000D01*
X131337000Y-86147000D01*
X131083000Y-86147000D01*
X131083000Y-86127000D01*
X130080813Y-86127000D01*
X130020505Y-86316981D01*
X130105201Y-86542949D01*
X130232353Y-86748052D01*
X130397076Y-86924408D01*
X130593039Y-87065239D01*
X130734545Y-87129588D01*
X130506589Y-87224010D01*
X130263368Y-87386525D01*
X130056525Y-87593368D01*
X129940000Y-87767760D01*
X129823475Y-87593368D01*
X129616632Y-87386525D01*
X129373411Y-87224010D01*
X129145455Y-87129588D01*
X129286961Y-87065239D01*
X129482924Y-86924408D01*
X129647647Y-86748052D01*
X129774799Y-86542949D01*
X129859495Y-86316981D01*
X129799187Y-86127000D01*
X128797000Y-86127000D01*
X128797000Y-86147000D01*
X128543000Y-86147000D01*
X128543000Y-86127000D01*
X127540813Y-86127000D01*
X127480505Y-86316981D01*
X127565201Y-86542949D01*
X127692353Y-86748052D01*
X127857076Y-86924408D01*
X128053039Y-87065239D01*
X128194545Y-87129588D01*
X127966589Y-87224010D01*
X127723368Y-87386525D01*
X127591513Y-87518380D01*
X127569502Y-87445820D01*
X127510537Y-87335506D01*
X127431185Y-87238815D01*
X127334494Y-87159463D01*
X127224180Y-87100498D01*
X127104482Y-87064188D01*
X126980000Y-87051928D01*
X126765483Y-87051928D01*
X126942924Y-86924408D01*
X127107647Y-86748052D01*
X127234799Y-86542949D01*
X127319495Y-86316981D01*
X127259187Y-86127000D01*
X126257000Y-86127000D01*
X126257000Y-86147000D01*
X126003000Y-86147000D01*
X126003000Y-86127000D01*
X125000813Y-86127000D01*
X124940505Y-86316981D01*
X125025201Y-86542949D01*
X125152353Y-86748052D01*
X125317076Y-86924408D01*
X125494517Y-87051928D01*
X125280000Y-87051928D01*
X125155518Y-87064188D01*
X125035820Y-87100498D01*
X124925506Y-87159463D01*
X124828815Y-87238815D01*
X124749463Y-87335506D01*
X124690498Y-87445820D01*
X124654188Y-87565518D01*
X124641928Y-87690000D01*
X122218043Y-87690000D01*
X122153475Y-87593368D01*
X121946632Y-87386525D01*
X121703411Y-87224010D01*
X121475455Y-87129588D01*
X121616961Y-87065239D01*
X121812924Y-86924408D01*
X121977647Y-86748052D01*
X122104799Y-86542949D01*
X122189495Y-86316981D01*
X122129187Y-86127000D01*
X121127000Y-86127000D01*
X121127000Y-86147000D01*
X120873000Y-86147000D01*
X120873000Y-86127000D01*
X119870813Y-86127000D01*
X119810505Y-86316981D01*
X119895201Y-86542949D01*
X120022353Y-86748052D01*
X120187076Y-86924408D01*
X120383039Y-87065239D01*
X120524545Y-87129588D01*
X120296589Y-87224010D01*
X120053368Y-87386525D01*
X119846525Y-87593368D01*
X119730000Y-87767760D01*
X119613475Y-87593368D01*
X119406632Y-87386525D01*
X119163411Y-87224010D01*
X118935455Y-87129588D01*
X119076961Y-87065239D01*
X119272924Y-86924408D01*
X119437647Y-86748052D01*
X119564799Y-86542949D01*
X119649495Y-86316981D01*
X119589187Y-86127000D01*
X118587000Y-86127000D01*
X118587000Y-86147000D01*
X118333000Y-86147000D01*
X118333000Y-86127000D01*
X117330813Y-86127000D01*
X117270505Y-86316981D01*
X117355201Y-86542949D01*
X117482353Y-86748052D01*
X117647076Y-86924408D01*
X117843039Y-87065239D01*
X117984545Y-87129588D01*
X117756589Y-87224010D01*
X117513368Y-87386525D01*
X117306525Y-87593368D01*
X117190000Y-87767760D01*
X117073475Y-87593368D01*
X116866632Y-87386525D01*
X116623411Y-87224010D01*
X116395455Y-87129588D01*
X116536961Y-87065239D01*
X116732924Y-86924408D01*
X116897647Y-86748052D01*
X117024799Y-86542949D01*
X117109495Y-86316981D01*
X117049187Y-86127000D01*
X116047000Y-86127000D01*
X116047000Y-86147000D01*
X115793000Y-86147000D01*
X115793000Y-86127000D01*
X114790813Y-86127000D01*
X114730505Y-86316981D01*
X114815201Y-86542949D01*
X114942353Y-86748052D01*
X115107076Y-86924408D01*
X115303039Y-87065239D01*
X115444545Y-87129588D01*
X115216589Y-87224010D01*
X114973368Y-87386525D01*
X114841513Y-87518380D01*
X114819502Y-87445820D01*
X114760537Y-87335506D01*
X114681185Y-87238815D01*
X114584494Y-87159463D01*
X114474180Y-87100498D01*
X114354482Y-87064188D01*
X114230000Y-87051928D01*
X114015483Y-87051928D01*
X114192924Y-86924408D01*
X114357647Y-86748052D01*
X114484799Y-86542949D01*
X114569495Y-86316981D01*
X114509187Y-86127000D01*
X113507000Y-86127000D01*
X113507000Y-86147000D01*
X113253000Y-86147000D01*
X113253000Y-86127000D01*
X112250813Y-86127000D01*
X112190505Y-86316981D01*
X112275201Y-86542949D01*
X112402353Y-86748052D01*
X112567076Y-86924408D01*
X112744517Y-87051928D01*
X112530000Y-87051928D01*
X112405518Y-87064188D01*
X112285820Y-87100498D01*
X112175506Y-87159463D01*
X112078815Y-87238815D01*
X111999463Y-87335506D01*
X111940498Y-87445820D01*
X111904188Y-87565518D01*
X111891928Y-87690000D01*
X111891928Y-89390000D01*
X111904188Y-89514482D01*
X111940498Y-89634180D01*
X111999463Y-89744494D01*
X112078815Y-89841185D01*
X112175506Y-89920537D01*
X112285820Y-89979502D01*
X112405518Y-90015812D01*
X112530000Y-90028072D01*
X112570000Y-90028072D01*
X112570000Y-90484487D01*
X112114488Y-90940000D01*
X106510000Y-90940000D01*
X106510000Y-90139787D01*
X106513919Y-90099999D01*
X106510000Y-90060209D01*
X106498280Y-89941212D01*
X106451963Y-89788527D01*
X106376749Y-89647811D01*
X106275528Y-89524472D01*
X106244619Y-89499106D01*
X105905595Y-89160082D01*
X105899068Y-89127271D01*
X105828586Y-88957111D01*
X105726262Y-88803972D01*
X105596028Y-88673738D01*
X105442889Y-88571414D01*
X105272729Y-88500932D01*
X105092089Y-88465000D01*
X104907911Y-88465000D01*
X104727271Y-88500932D01*
X104557111Y-88571414D01*
X104403972Y-88673738D01*
X104273738Y-88803972D01*
X104171414Y-88957111D01*
X104100932Y-89127271D01*
X104065000Y-89307911D01*
X104065000Y-89492089D01*
X104100932Y-89672729D01*
X104171414Y-89842889D01*
X104273738Y-89996028D01*
X104403972Y-90126262D01*
X104557111Y-90228586D01*
X104727271Y-90299068D01*
X104760082Y-90305595D01*
X104890000Y-90435513D01*
X104890001Y-90940000D01*
X103589787Y-90940000D01*
X103549999Y-90936081D01*
X103510211Y-90940000D01*
X103510209Y-90940000D01*
X103391212Y-90951720D01*
X103238527Y-90998037D01*
X103097811Y-91073251D01*
X102974472Y-91174472D01*
X102949107Y-91205380D01*
X102305383Y-91849105D01*
X102274473Y-91874472D01*
X102249108Y-91905380D01*
X102173251Y-91997811D01*
X102098038Y-92138527D01*
X102069663Y-92232068D01*
X102051721Y-92291213D01*
X102036081Y-92450000D01*
X102040001Y-92489798D01*
X102040000Y-95549300D01*
X101932795Y-95709744D01*
X101854774Y-95898102D01*
X101815000Y-96098061D01*
X99825000Y-96098061D01*
X99825000Y-96053740D01*
X99767932Y-95766842D01*
X99655990Y-95496589D01*
X99493475Y-95253368D01*
X99286632Y-95046525D01*
X99043411Y-94884010D01*
X98816100Y-94789855D01*
X98882949Y-94764799D01*
X99088052Y-94637647D01*
X99264408Y-94472924D01*
X99405239Y-94276961D01*
X99505134Y-94057288D01*
X99529489Y-93976980D01*
X99468627Y-93787000D01*
X98467000Y-93787000D01*
X98467000Y-93807000D01*
X98213000Y-93807000D01*
X98213000Y-93787000D01*
X98193000Y-93787000D01*
X98193000Y-93533000D01*
X98213000Y-93533000D01*
X98213000Y-92530813D01*
X98467000Y-92530813D01*
X98467000Y-93533000D01*
X99468627Y-93533000D01*
X99529489Y-93343020D01*
X99505134Y-93262712D01*
X99405239Y-93043039D01*
X99264408Y-92847076D01*
X99088052Y-92682353D01*
X98882949Y-92555201D01*
X98656981Y-92470505D01*
X98467000Y-92530813D01*
X98213000Y-92530813D01*
X98023019Y-92470505D01*
X97797051Y-92555201D01*
X97591948Y-92682353D01*
X97415592Y-92847076D01*
X97274761Y-93043039D01*
X97210412Y-93184545D01*
X97115990Y-92956589D01*
X96953475Y-92713368D01*
X96746632Y-92506525D01*
X96503411Y-92344010D01*
X96233158Y-92232068D01*
X95946260Y-92175000D01*
X95653740Y-92175000D01*
X95366842Y-92232068D01*
X95096589Y-92344010D01*
X94853368Y-92506525D01*
X94646525Y-92713368D01*
X94484010Y-92956589D01*
X94372068Y-93226842D01*
X94315000Y-93513740D01*
X85660000Y-93513740D01*
X85660000Y-88029392D01*
X85682269Y-87779872D01*
X87765000Y-87779872D01*
X87765000Y-88220128D01*
X87850890Y-88651925D01*
X88019369Y-89058669D01*
X88263962Y-89424729D01*
X88575271Y-89736038D01*
X88941331Y-89980631D01*
X89348075Y-90149110D01*
X89779872Y-90235000D01*
X90220128Y-90235000D01*
X90651925Y-90149110D01*
X91058669Y-89980631D01*
X91424729Y-89736038D01*
X91736038Y-89424729D01*
X91980631Y-89058669D01*
X92149110Y-88651925D01*
X92235000Y-88220128D01*
X92235000Y-87779872D01*
X92149110Y-87348075D01*
X91980631Y-86941331D01*
X91736038Y-86575271D01*
X91424729Y-86263962D01*
X91058669Y-86019369D01*
X90651925Y-85850890D01*
X90220128Y-85765000D01*
X89779872Y-85765000D01*
X89348075Y-85850890D01*
X88941331Y-86019369D01*
X88575271Y-86263962D01*
X88263962Y-86575271D01*
X88019369Y-86941331D01*
X87850890Y-87348075D01*
X87765000Y-87779872D01*
X85682269Y-87779872D01*
X85731173Y-87231917D01*
X85934656Y-86488109D01*
X86266638Y-85792095D01*
X86345017Y-85683019D01*
X112190505Y-85683019D01*
X112250813Y-85873000D01*
X113253000Y-85873000D01*
X113253000Y-84871373D01*
X113507000Y-84871373D01*
X113507000Y-85873000D01*
X114509187Y-85873000D01*
X114569495Y-85683019D01*
X114730505Y-85683019D01*
X114790813Y-85873000D01*
X115793000Y-85873000D01*
X115793000Y-84871373D01*
X116047000Y-84871373D01*
X116047000Y-85873000D01*
X117049187Y-85873000D01*
X117109495Y-85683019D01*
X117270505Y-85683019D01*
X117330813Y-85873000D01*
X118333000Y-85873000D01*
X118333000Y-84871373D01*
X118587000Y-84871373D01*
X118587000Y-85873000D01*
X119589187Y-85873000D01*
X119649495Y-85683019D01*
X119810505Y-85683019D01*
X119870813Y-85873000D01*
X120873000Y-85873000D01*
X120873000Y-84871373D01*
X121127000Y-84871373D01*
X121127000Y-85873000D01*
X122129187Y-85873000D01*
X122189495Y-85683019D01*
X124940505Y-85683019D01*
X125000813Y-85873000D01*
X126003000Y-85873000D01*
X126003000Y-84871373D01*
X126257000Y-84871373D01*
X126257000Y-85873000D01*
X127259187Y-85873000D01*
X127319495Y-85683019D01*
X127480505Y-85683019D01*
X127540813Y-85873000D01*
X128543000Y-85873000D01*
X128543000Y-84871373D01*
X128797000Y-84871373D01*
X128797000Y-85873000D01*
X129799187Y-85873000D01*
X129859495Y-85683019D01*
X130020505Y-85683019D01*
X130080813Y-85873000D01*
X131083000Y-85873000D01*
X131083000Y-84871373D01*
X131337000Y-84871373D01*
X131337000Y-85873000D01*
X132339187Y-85873000D01*
X132399495Y-85683019D01*
X132560505Y-85683019D01*
X132620813Y-85873000D01*
X133623000Y-85873000D01*
X133623000Y-84871373D01*
X133877000Y-84871373D01*
X133877000Y-85873000D01*
X134879187Y-85873000D01*
X134939495Y-85683019D01*
X135100505Y-85683019D01*
X135160813Y-85873000D01*
X136163000Y-85873000D01*
X136163000Y-84871373D01*
X136417000Y-84871373D01*
X136417000Y-85873000D01*
X137419187Y-85873000D01*
X137479495Y-85683019D01*
X137640505Y-85683019D01*
X137700813Y-85873000D01*
X138703000Y-85873000D01*
X138703000Y-84871373D01*
X138957000Y-84871373D01*
X138957000Y-85873000D01*
X139959187Y-85873000D01*
X140019495Y-85683019D01*
X140180505Y-85683019D01*
X140240813Y-85873000D01*
X141243000Y-85873000D01*
X141243000Y-84871373D01*
X141497000Y-84871373D01*
X141497000Y-85873000D01*
X142499187Y-85873000D01*
X142559495Y-85683019D01*
X142720505Y-85683019D01*
X142780813Y-85873000D01*
X143783000Y-85873000D01*
X143783000Y-84871373D01*
X144037000Y-84871373D01*
X144037000Y-85873000D01*
X145039187Y-85873000D01*
X145099495Y-85683019D01*
X147810505Y-85683019D01*
X147870813Y-85873000D01*
X148873000Y-85873000D01*
X148873000Y-84871373D01*
X149127000Y-84871373D01*
X149127000Y-85873000D01*
X150129187Y-85873000D01*
X150189495Y-85683019D01*
X150350505Y-85683019D01*
X150410813Y-85873000D01*
X151413000Y-85873000D01*
X151413000Y-84871373D01*
X151667000Y-84871373D01*
X151667000Y-85873000D01*
X152669187Y-85873000D01*
X152729495Y-85683019D01*
X152890505Y-85683019D01*
X152950813Y-85873000D01*
X153953000Y-85873000D01*
X153953000Y-84871373D01*
X154207000Y-84871373D01*
X154207000Y-85873000D01*
X155209187Y-85873000D01*
X155269495Y-85683019D01*
X155430505Y-85683019D01*
X155490813Y-85873000D01*
X156493000Y-85873000D01*
X156493000Y-84871373D01*
X156747000Y-84871373D01*
X156747000Y-85873000D01*
X157749187Y-85873000D01*
X157809495Y-85683019D01*
X157970505Y-85683019D01*
X158030813Y-85873000D01*
X159033000Y-85873000D01*
X159033000Y-84871373D01*
X159287000Y-84871373D01*
X159287000Y-85873000D01*
X160289187Y-85873000D01*
X160349495Y-85683019D01*
X160510505Y-85683019D01*
X160570813Y-85873000D01*
X161573000Y-85873000D01*
X161573000Y-84871373D01*
X161827000Y-84871373D01*
X161827000Y-85873000D01*
X162829187Y-85873000D01*
X162889495Y-85683019D01*
X163050505Y-85683019D01*
X163110813Y-85873000D01*
X164113000Y-85873000D01*
X164113000Y-84871373D01*
X164367000Y-84871373D01*
X164367000Y-85873000D01*
X165369187Y-85873000D01*
X165429495Y-85683019D01*
X165590505Y-85683019D01*
X165650813Y-85873000D01*
X166653000Y-85873000D01*
X166653000Y-84871373D01*
X166907000Y-84871373D01*
X166907000Y-85873000D01*
X167909187Y-85873000D01*
X167969495Y-85683019D01*
X167884799Y-85457051D01*
X167757647Y-85251948D01*
X167592924Y-85075592D01*
X167396961Y-84934761D01*
X167177288Y-84834866D01*
X167096980Y-84810511D01*
X166907000Y-84871373D01*
X166653000Y-84871373D01*
X166463020Y-84810511D01*
X166382712Y-84834866D01*
X166163039Y-84934761D01*
X165967076Y-85075592D01*
X165802353Y-85251948D01*
X165675201Y-85457051D01*
X165590505Y-85683019D01*
X165429495Y-85683019D01*
X165344799Y-85457051D01*
X165217647Y-85251948D01*
X165052924Y-85075592D01*
X164856961Y-84934761D01*
X164637288Y-84834866D01*
X164556980Y-84810511D01*
X164367000Y-84871373D01*
X164113000Y-84871373D01*
X163923020Y-84810511D01*
X163842712Y-84834866D01*
X163623039Y-84934761D01*
X163427076Y-85075592D01*
X163262353Y-85251948D01*
X163135201Y-85457051D01*
X163050505Y-85683019D01*
X162889495Y-85683019D01*
X162804799Y-85457051D01*
X162677647Y-85251948D01*
X162512924Y-85075592D01*
X162316961Y-84934761D01*
X162097288Y-84834866D01*
X162016980Y-84810511D01*
X161827000Y-84871373D01*
X161573000Y-84871373D01*
X161383020Y-84810511D01*
X161302712Y-84834866D01*
X161083039Y-84934761D01*
X160887076Y-85075592D01*
X160722353Y-85251948D01*
X160595201Y-85457051D01*
X160510505Y-85683019D01*
X160349495Y-85683019D01*
X160264799Y-85457051D01*
X160137647Y-85251948D01*
X159972924Y-85075592D01*
X159776961Y-84934761D01*
X159557288Y-84834866D01*
X159476980Y-84810511D01*
X159287000Y-84871373D01*
X159033000Y-84871373D01*
X158843020Y-84810511D01*
X158762712Y-84834866D01*
X158543039Y-84934761D01*
X158347076Y-85075592D01*
X158182353Y-85251948D01*
X158055201Y-85457051D01*
X157970505Y-85683019D01*
X157809495Y-85683019D01*
X157724799Y-85457051D01*
X157597647Y-85251948D01*
X157432924Y-85075592D01*
X157236961Y-84934761D01*
X157017288Y-84834866D01*
X156936980Y-84810511D01*
X156747000Y-84871373D01*
X156493000Y-84871373D01*
X156303020Y-84810511D01*
X156222712Y-84834866D01*
X156003039Y-84934761D01*
X155807076Y-85075592D01*
X155642353Y-85251948D01*
X155515201Y-85457051D01*
X155430505Y-85683019D01*
X155269495Y-85683019D01*
X155184799Y-85457051D01*
X155057647Y-85251948D01*
X154892924Y-85075592D01*
X154696961Y-84934761D01*
X154477288Y-84834866D01*
X154396980Y-84810511D01*
X154207000Y-84871373D01*
X153953000Y-84871373D01*
X153763020Y-84810511D01*
X153682712Y-84834866D01*
X153463039Y-84934761D01*
X153267076Y-85075592D01*
X153102353Y-85251948D01*
X152975201Y-85457051D01*
X152890505Y-85683019D01*
X152729495Y-85683019D01*
X152644799Y-85457051D01*
X152517647Y-85251948D01*
X152352924Y-85075592D01*
X152156961Y-84934761D01*
X151937288Y-84834866D01*
X151856980Y-84810511D01*
X151667000Y-84871373D01*
X151413000Y-84871373D01*
X151223020Y-84810511D01*
X151142712Y-84834866D01*
X150923039Y-84934761D01*
X150727076Y-85075592D01*
X150562353Y-85251948D01*
X150435201Y-85457051D01*
X150350505Y-85683019D01*
X150189495Y-85683019D01*
X150104799Y-85457051D01*
X149977647Y-85251948D01*
X149812924Y-85075592D01*
X149616961Y-84934761D01*
X149397288Y-84834866D01*
X149316980Y-84810511D01*
X149127000Y-84871373D01*
X148873000Y-84871373D01*
X148683020Y-84810511D01*
X148602712Y-84834866D01*
X148383039Y-84934761D01*
X148187076Y-85075592D01*
X148022353Y-85251948D01*
X147895201Y-85457051D01*
X147810505Y-85683019D01*
X145099495Y-85683019D01*
X145014799Y-85457051D01*
X144887647Y-85251948D01*
X144722924Y-85075592D01*
X144526961Y-84934761D01*
X144307288Y-84834866D01*
X144226980Y-84810511D01*
X144037000Y-84871373D01*
X143783000Y-84871373D01*
X143593020Y-84810511D01*
X143512712Y-84834866D01*
X143293039Y-84934761D01*
X143097076Y-85075592D01*
X142932353Y-85251948D01*
X142805201Y-85457051D01*
X142720505Y-85683019D01*
X142559495Y-85683019D01*
X142474799Y-85457051D01*
X142347647Y-85251948D01*
X142182924Y-85075592D01*
X141986961Y-84934761D01*
X141767288Y-84834866D01*
X141686980Y-84810511D01*
X141497000Y-84871373D01*
X141243000Y-84871373D01*
X141053020Y-84810511D01*
X140972712Y-84834866D01*
X140753039Y-84934761D01*
X140557076Y-85075592D01*
X140392353Y-85251948D01*
X140265201Y-85457051D01*
X140180505Y-85683019D01*
X140019495Y-85683019D01*
X139934799Y-85457051D01*
X139807647Y-85251948D01*
X139642924Y-85075592D01*
X139446961Y-84934761D01*
X139227288Y-84834866D01*
X139146980Y-84810511D01*
X138957000Y-84871373D01*
X138703000Y-84871373D01*
X138513020Y-84810511D01*
X138432712Y-84834866D01*
X138213039Y-84934761D01*
X138017076Y-85075592D01*
X137852353Y-85251948D01*
X137725201Y-85457051D01*
X137640505Y-85683019D01*
X137479495Y-85683019D01*
X137394799Y-85457051D01*
X137267647Y-85251948D01*
X137102924Y-85075592D01*
X136906961Y-84934761D01*
X136687288Y-84834866D01*
X136606980Y-84810511D01*
X136417000Y-84871373D01*
X136163000Y-84871373D01*
X135973020Y-84810511D01*
X135892712Y-84834866D01*
X135673039Y-84934761D01*
X135477076Y-85075592D01*
X135312353Y-85251948D01*
X135185201Y-85457051D01*
X135100505Y-85683019D01*
X134939495Y-85683019D01*
X134854799Y-85457051D01*
X134727647Y-85251948D01*
X134562924Y-85075592D01*
X134366961Y-84934761D01*
X134147288Y-84834866D01*
X134066980Y-84810511D01*
X133877000Y-84871373D01*
X133623000Y-84871373D01*
X133433020Y-84810511D01*
X133352712Y-84834866D01*
X133133039Y-84934761D01*
X132937076Y-85075592D01*
X132772353Y-85251948D01*
X132645201Y-85457051D01*
X132560505Y-85683019D01*
X132399495Y-85683019D01*
X132314799Y-85457051D01*
X132187647Y-85251948D01*
X132022924Y-85075592D01*
X131826961Y-84934761D01*
X131607288Y-84834866D01*
X131526980Y-84810511D01*
X131337000Y-84871373D01*
X131083000Y-84871373D01*
X130893020Y-84810511D01*
X130812712Y-84834866D01*
X130593039Y-84934761D01*
X130397076Y-85075592D01*
X130232353Y-85251948D01*
X130105201Y-85457051D01*
X130020505Y-85683019D01*
X129859495Y-85683019D01*
X129774799Y-85457051D01*
X129647647Y-85251948D01*
X129482924Y-85075592D01*
X129286961Y-84934761D01*
X129067288Y-84834866D01*
X128986980Y-84810511D01*
X128797000Y-84871373D01*
X128543000Y-84871373D01*
X128353020Y-84810511D01*
X128272712Y-84834866D01*
X128053039Y-84934761D01*
X127857076Y-85075592D01*
X127692353Y-85251948D01*
X127565201Y-85457051D01*
X127480505Y-85683019D01*
X127319495Y-85683019D01*
X127234799Y-85457051D01*
X127107647Y-85251948D01*
X126942924Y-85075592D01*
X126746961Y-84934761D01*
X126527288Y-84834866D01*
X126446980Y-84810511D01*
X126257000Y-84871373D01*
X126003000Y-84871373D01*
X125813020Y-84810511D01*
X125732712Y-84834866D01*
X125513039Y-84934761D01*
X125317076Y-85075592D01*
X125152353Y-85251948D01*
X125025201Y-85457051D01*
X124940505Y-85683019D01*
X122189495Y-85683019D01*
X122104799Y-85457051D01*
X121977647Y-85251948D01*
X121812924Y-85075592D01*
X121616961Y-84934761D01*
X121397288Y-84834866D01*
X121316980Y-84810511D01*
X121127000Y-84871373D01*
X120873000Y-84871373D01*
X120683020Y-84810511D01*
X120602712Y-84834866D01*
X120383039Y-84934761D01*
X120187076Y-85075592D01*
X120022353Y-85251948D01*
X119895201Y-85457051D01*
X119810505Y-85683019D01*
X119649495Y-85683019D01*
X119564799Y-85457051D01*
X119437647Y-85251948D01*
X119272924Y-85075592D01*
X119076961Y-84934761D01*
X118857288Y-84834866D01*
X118776980Y-84810511D01*
X118587000Y-84871373D01*
X118333000Y-84871373D01*
X118143020Y-84810511D01*
X118062712Y-84834866D01*
X117843039Y-84934761D01*
X117647076Y-85075592D01*
X117482353Y-85251948D01*
X117355201Y-85457051D01*
X117270505Y-85683019D01*
X117109495Y-85683019D01*
X117024799Y-85457051D01*
X116897647Y-85251948D01*
X116732924Y-85075592D01*
X116536961Y-84934761D01*
X116317288Y-84834866D01*
X116236980Y-84810511D01*
X116047000Y-84871373D01*
X115793000Y-84871373D01*
X115603020Y-84810511D01*
X115522712Y-84834866D01*
X115303039Y-84934761D01*
X115107076Y-85075592D01*
X114942353Y-85251948D01*
X114815201Y-85457051D01*
X114730505Y-85683019D01*
X114569495Y-85683019D01*
X114484799Y-85457051D01*
X114357647Y-85251948D01*
X114192924Y-85075592D01*
X113996961Y-84934761D01*
X113777288Y-84834866D01*
X113696980Y-84810511D01*
X113507000Y-84871373D01*
X113253000Y-84871373D01*
X113063020Y-84810511D01*
X112982712Y-84834866D01*
X112763039Y-84934761D01*
X112567076Y-85075592D01*
X112402353Y-85251948D01*
X112275201Y-85457051D01*
X112190505Y-85683019D01*
X86345017Y-85683019D01*
X86716626Y-85165870D01*
X87270403Y-84629223D01*
X87910451Y-84199129D01*
X88616553Y-83889171D01*
X89371457Y-83707935D01*
X90024207Y-83660000D01*
X179970608Y-83660000D01*
X180768083Y-83731173D01*
%TD*%
M02*
