%TF.GenerationSoftware,KiCad,Pcbnew,(5.1.6)-1*%
%TF.CreationDate,2020-11-10T11:45:45+01:00*%
%TF.ProjectId,stm32f373rct6_evaluation_board,73746d33-3266-4333-9733-726374365f65,rev?*%
%TF.SameCoordinates,Original*%
%TF.FileFunction,Legend,Top*%
%TF.FilePolarity,Positive*%
%FSLAX46Y46*%
G04 Gerber Fmt 4.6, Leading zero omitted, Abs format (unit mm)*
G04 Created by KiCad (PCBNEW (5.1.6)-1) date 2020-11-10 11:45:45*
%MOMM*%
%LPD*%
G01*
G04 APERTURE LIST*
%ADD10C,0.120000*%
%ADD11C,0.300000*%
%ADD12C,0.150000*%
%ADD13C,0.200000*%
G04 APERTURE END LIST*
D10*
X168700000Y-86200000D02*
X168500000Y-86000000D01*
X168700000Y-85800000D02*
X168700000Y-86200000D01*
X168500000Y-86000000D02*
X168700000Y-85800000D01*
X170400000Y-86000000D02*
X168500000Y-86000000D01*
D11*
X171857142Y-85160000D02*
X171714285Y-85088571D01*
X171500000Y-85088571D01*
X171285714Y-85160000D01*
X171142857Y-85302857D01*
X171071428Y-85445714D01*
X171000000Y-85731428D01*
X171000000Y-85945714D01*
X171071428Y-86231428D01*
X171142857Y-86374285D01*
X171285714Y-86517142D01*
X171500000Y-86588571D01*
X171642857Y-86588571D01*
X171857142Y-86517142D01*
X171928571Y-86445714D01*
X171928571Y-85945714D01*
X171642857Y-85945714D01*
X172571428Y-86588571D02*
X172571428Y-85088571D01*
X173428571Y-86588571D01*
X173428571Y-85088571D01*
X174142857Y-86588571D02*
X174142857Y-85088571D01*
X174500000Y-85088571D01*
X174714285Y-85160000D01*
X174857142Y-85302857D01*
X174928571Y-85445714D01*
X175000000Y-85731428D01*
X175000000Y-85945714D01*
X174928571Y-86231428D01*
X174857142Y-86374285D01*
X174714285Y-86517142D01*
X174500000Y-86588571D01*
X174142857Y-86588571D01*
D10*
X112250000Y-90250000D02*
X112250000Y-92500000D01*
X122250000Y-90250000D02*
X122250000Y-92500000D01*
X117250000Y-90250000D02*
X117250000Y-92500000D01*
D11*
X117892857Y-90478571D02*
X118821428Y-90478571D01*
X118321428Y-91050000D01*
X118535714Y-91050000D01*
X118678571Y-91121428D01*
X118750000Y-91192857D01*
X118821428Y-91335714D01*
X118821428Y-91692857D01*
X118750000Y-91835714D01*
X118678571Y-91907142D01*
X118535714Y-91978571D01*
X118107142Y-91978571D01*
X117964285Y-91907142D01*
X117892857Y-91835714D01*
X119250000Y-90478571D02*
X119750000Y-91978571D01*
X120250000Y-90478571D01*
X120607142Y-90478571D02*
X121535714Y-90478571D01*
X121035714Y-91050000D01*
X121250000Y-91050000D01*
X121392857Y-91121428D01*
X121464285Y-91192857D01*
X121535714Y-91335714D01*
X121535714Y-91692857D01*
X121464285Y-91835714D01*
X121392857Y-91907142D01*
X121250000Y-91978571D01*
X120821428Y-91978571D01*
X120678571Y-91907142D01*
X120607142Y-91835714D01*
X114464285Y-90478571D02*
X113750000Y-90478571D01*
X113678571Y-91192857D01*
X113750000Y-91121428D01*
X113892857Y-91050000D01*
X114250000Y-91050000D01*
X114392857Y-91121428D01*
X114464285Y-91192857D01*
X114535714Y-91335714D01*
X114535714Y-91692857D01*
X114464285Y-91835714D01*
X114392857Y-91907142D01*
X114250000Y-91978571D01*
X113892857Y-91978571D01*
X113750000Y-91907142D01*
X113678571Y-91835714D01*
X114964285Y-90478571D02*
X115464285Y-91978571D01*
X115964285Y-90478571D01*
D12*
X97787976Y-125929761D02*
X97930833Y-125977380D01*
X98168928Y-125977380D01*
X98264166Y-125929761D01*
X98311785Y-125882142D01*
X98359404Y-125786904D01*
X98359404Y-125691666D01*
X98311785Y-125596428D01*
X98264166Y-125548809D01*
X98168928Y-125501190D01*
X97978452Y-125453571D01*
X97883214Y-125405952D01*
X97835595Y-125358333D01*
X97787976Y-125263095D01*
X97787976Y-125167857D01*
X97835595Y-125072619D01*
X97883214Y-125025000D01*
X97978452Y-124977380D01*
X98216547Y-124977380D01*
X98359404Y-125025000D01*
X98645119Y-124977380D02*
X99216547Y-124977380D01*
X98930833Y-125977380D02*
X98930833Y-124977380D01*
X99549880Y-125977380D02*
X99549880Y-124977380D01*
X99883214Y-125691666D01*
X100216547Y-124977380D01*
X100216547Y-125977380D01*
X100597500Y-124977380D02*
X101216547Y-124977380D01*
X100883214Y-125358333D01*
X101026071Y-125358333D01*
X101121309Y-125405952D01*
X101168928Y-125453571D01*
X101216547Y-125548809D01*
X101216547Y-125786904D01*
X101168928Y-125882142D01*
X101121309Y-125929761D01*
X101026071Y-125977380D01*
X100740357Y-125977380D01*
X100645119Y-125929761D01*
X100597500Y-125882142D01*
X101597500Y-125072619D02*
X101645119Y-125025000D01*
X101740357Y-124977380D01*
X101978452Y-124977380D01*
X102073690Y-125025000D01*
X102121309Y-125072619D01*
X102168928Y-125167857D01*
X102168928Y-125263095D01*
X102121309Y-125405952D01*
X101549880Y-125977380D01*
X102168928Y-125977380D01*
X102930833Y-125453571D02*
X102597500Y-125453571D01*
X102597500Y-125977380D02*
X102597500Y-124977380D01*
X103073690Y-124977380D01*
X103359404Y-124977380D02*
X103978452Y-124977380D01*
X103645119Y-125358333D01*
X103787976Y-125358333D01*
X103883214Y-125405952D01*
X103930833Y-125453571D01*
X103978452Y-125548809D01*
X103978452Y-125786904D01*
X103930833Y-125882142D01*
X103883214Y-125929761D01*
X103787976Y-125977380D01*
X103502261Y-125977380D01*
X103407023Y-125929761D01*
X103359404Y-125882142D01*
X104311785Y-124977380D02*
X104978452Y-124977380D01*
X104549880Y-125977380D01*
X105264166Y-124977380D02*
X105883214Y-124977380D01*
X105549880Y-125358333D01*
X105692738Y-125358333D01*
X105787976Y-125405952D01*
X105835595Y-125453571D01*
X105883214Y-125548809D01*
X105883214Y-125786904D01*
X105835595Y-125882142D01*
X105787976Y-125929761D01*
X105692738Y-125977380D01*
X105407023Y-125977380D01*
X105311785Y-125929761D01*
X105264166Y-125882142D01*
X106883214Y-125977380D02*
X106549880Y-125501190D01*
X106311785Y-125977380D02*
X106311785Y-124977380D01*
X106692738Y-124977380D01*
X106787976Y-125025000D01*
X106835595Y-125072619D01*
X106883214Y-125167857D01*
X106883214Y-125310714D01*
X106835595Y-125405952D01*
X106787976Y-125453571D01*
X106692738Y-125501190D01*
X106311785Y-125501190D01*
X107883214Y-125882142D02*
X107835595Y-125929761D01*
X107692738Y-125977380D01*
X107597500Y-125977380D01*
X107454642Y-125929761D01*
X107359404Y-125834523D01*
X107311785Y-125739285D01*
X107264166Y-125548809D01*
X107264166Y-125405952D01*
X107311785Y-125215476D01*
X107359404Y-125120238D01*
X107454642Y-125025000D01*
X107597500Y-124977380D01*
X107692738Y-124977380D01*
X107835595Y-125025000D01*
X107883214Y-125072619D01*
X108168928Y-124977380D02*
X108740357Y-124977380D01*
X108454642Y-125977380D02*
X108454642Y-124977380D01*
X109502261Y-124977380D02*
X109311785Y-124977380D01*
X109216547Y-125025000D01*
X109168928Y-125072619D01*
X109073690Y-125215476D01*
X109026071Y-125405952D01*
X109026071Y-125786904D01*
X109073690Y-125882142D01*
X109121309Y-125929761D01*
X109216547Y-125977380D01*
X109407023Y-125977380D01*
X109502261Y-125929761D01*
X109549880Y-125882142D01*
X109597500Y-125786904D01*
X109597500Y-125548809D01*
X109549880Y-125453571D01*
X109502261Y-125405952D01*
X109407023Y-125358333D01*
X109216547Y-125358333D01*
X109121309Y-125405952D01*
X109073690Y-125453571D01*
X109026071Y-125548809D01*
X97835595Y-127627380D02*
X97835595Y-126627380D01*
X98073690Y-126627380D01*
X98216547Y-126675000D01*
X98311785Y-126770238D01*
X98359404Y-126865476D01*
X98407023Y-127055952D01*
X98407023Y-127198809D01*
X98359404Y-127389285D01*
X98311785Y-127484523D01*
X98216547Y-127579761D01*
X98073690Y-127627380D01*
X97835595Y-127627380D01*
X98787976Y-127579761D02*
X98930833Y-127627380D01*
X99168928Y-127627380D01*
X99264166Y-127579761D01*
X99311785Y-127532142D01*
X99359404Y-127436904D01*
X99359404Y-127341666D01*
X99311785Y-127246428D01*
X99264166Y-127198809D01*
X99168928Y-127151190D01*
X98978452Y-127103571D01*
X98883214Y-127055952D01*
X98835595Y-127008333D01*
X98787976Y-126913095D01*
X98787976Y-126817857D01*
X98835595Y-126722619D01*
X98883214Y-126675000D01*
X98978452Y-126627380D01*
X99216547Y-126627380D01*
X99359404Y-126675000D01*
X99787976Y-127627380D02*
X99787976Y-126627380D01*
X100168928Y-126627380D01*
X100264166Y-126675000D01*
X100311785Y-126722619D01*
X100359404Y-126817857D01*
X100359404Y-126960714D01*
X100311785Y-127055952D01*
X100264166Y-127103571D01*
X100168928Y-127151190D01*
X99787976Y-127151190D01*
X101549880Y-127103571D02*
X101883214Y-127103571D01*
X102026071Y-127627380D02*
X101549880Y-127627380D01*
X101549880Y-126627380D01*
X102026071Y-126627380D01*
X102311785Y-126627380D02*
X102645119Y-127627380D01*
X102978452Y-126627380D01*
X103264166Y-127341666D02*
X103740357Y-127341666D01*
X103168928Y-127627380D02*
X103502261Y-126627380D01*
X103835595Y-127627380D01*
X104645119Y-127627380D02*
X104168928Y-127627380D01*
X104168928Y-126627380D01*
X104978452Y-126627380D02*
X104978452Y-127436904D01*
X105026071Y-127532142D01*
X105073690Y-127579761D01*
X105168928Y-127627380D01*
X105359404Y-127627380D01*
X105454642Y-127579761D01*
X105502261Y-127532142D01*
X105549880Y-127436904D01*
X105549880Y-126627380D01*
X105978452Y-127341666D02*
X106454642Y-127341666D01*
X105883214Y-127627380D02*
X106216547Y-126627380D01*
X106549880Y-127627380D01*
X106740357Y-126627380D02*
X107311785Y-126627380D01*
X107026071Y-127627380D02*
X107026071Y-126627380D01*
X107645119Y-127627380D02*
X107645119Y-126627380D01*
X108311785Y-126627380D02*
X108502261Y-126627380D01*
X108597500Y-126675000D01*
X108692738Y-126770238D01*
X108740357Y-126960714D01*
X108740357Y-127294047D01*
X108692738Y-127484523D01*
X108597500Y-127579761D01*
X108502261Y-127627380D01*
X108311785Y-127627380D01*
X108216547Y-127579761D01*
X108121309Y-127484523D01*
X108073690Y-127294047D01*
X108073690Y-126960714D01*
X108121309Y-126770238D01*
X108216547Y-126675000D01*
X108311785Y-126627380D01*
X109168928Y-127627380D02*
X109168928Y-126627380D01*
X109740357Y-127627380D01*
X109740357Y-126627380D01*
X111311785Y-127103571D02*
X111454642Y-127151190D01*
X111502261Y-127198809D01*
X111549880Y-127294047D01*
X111549880Y-127436904D01*
X111502261Y-127532142D01*
X111454642Y-127579761D01*
X111359404Y-127627380D01*
X110978452Y-127627380D01*
X110978452Y-126627380D01*
X111311785Y-126627380D01*
X111407023Y-126675000D01*
X111454642Y-126722619D01*
X111502261Y-126817857D01*
X111502261Y-126913095D01*
X111454642Y-127008333D01*
X111407023Y-127055952D01*
X111311785Y-127103571D01*
X110978452Y-127103571D01*
X112168928Y-126627380D02*
X112359404Y-126627380D01*
X112454642Y-126675000D01*
X112549880Y-126770238D01*
X112597500Y-126960714D01*
X112597500Y-127294047D01*
X112549880Y-127484523D01*
X112454642Y-127579761D01*
X112359404Y-127627380D01*
X112168928Y-127627380D01*
X112073690Y-127579761D01*
X111978452Y-127484523D01*
X111930833Y-127294047D01*
X111930833Y-126960714D01*
X111978452Y-126770238D01*
X112073690Y-126675000D01*
X112168928Y-126627380D01*
X112978452Y-127341666D02*
X113454642Y-127341666D01*
X112883214Y-127627380D02*
X113216547Y-126627380D01*
X113549880Y-127627380D01*
X114454642Y-127627380D02*
X114121309Y-127151190D01*
X113883214Y-127627380D02*
X113883214Y-126627380D01*
X114264166Y-126627380D01*
X114359404Y-126675000D01*
X114407023Y-126722619D01*
X114454642Y-126817857D01*
X114454642Y-126960714D01*
X114407023Y-127055952D01*
X114359404Y-127103571D01*
X114264166Y-127151190D01*
X113883214Y-127151190D01*
X114883214Y-127627380D02*
X114883214Y-126627380D01*
X115121309Y-126627380D01*
X115264166Y-126675000D01*
X115359404Y-126770238D01*
X115407023Y-126865476D01*
X115454642Y-127055952D01*
X115454642Y-127198809D01*
X115407023Y-127389285D01*
X115359404Y-127484523D01*
X115264166Y-127579761D01*
X115121309Y-127627380D01*
X114883214Y-127627380D01*
X97835595Y-128896428D02*
X98597500Y-128896428D01*
X98216547Y-129277380D02*
X98216547Y-128515476D01*
X99835595Y-129277380D02*
X99835595Y-128277380D01*
X100264166Y-129229761D02*
X100407023Y-129277380D01*
X100645119Y-129277380D01*
X100740357Y-129229761D01*
X100787976Y-129182142D01*
X100835595Y-129086904D01*
X100835595Y-128991666D01*
X100787976Y-128896428D01*
X100740357Y-128848809D01*
X100645119Y-128801190D01*
X100454642Y-128753571D01*
X100359404Y-128705952D01*
X100311785Y-128658333D01*
X100264166Y-128563095D01*
X100264166Y-128467857D01*
X100311785Y-128372619D01*
X100359404Y-128325000D01*
X100454642Y-128277380D01*
X100692738Y-128277380D01*
X100835595Y-128325000D01*
X101454642Y-128277380D02*
X101645119Y-128277380D01*
X101740357Y-128325000D01*
X101835595Y-128420238D01*
X101883214Y-128610714D01*
X101883214Y-128944047D01*
X101835595Y-129134523D01*
X101740357Y-129229761D01*
X101645119Y-129277380D01*
X101454642Y-129277380D01*
X101359404Y-129229761D01*
X101264166Y-129134523D01*
X101216547Y-128944047D01*
X101216547Y-128610714D01*
X101264166Y-128420238D01*
X101359404Y-128325000D01*
X101454642Y-128277380D01*
X102787976Y-129277380D02*
X102311785Y-129277380D01*
X102311785Y-128277380D01*
X103073690Y-128991666D02*
X103549880Y-128991666D01*
X102978452Y-129277380D02*
X103311785Y-128277380D01*
X103645119Y-129277380D01*
X103835595Y-128277380D02*
X104407023Y-128277380D01*
X104121309Y-129277380D02*
X104121309Y-128277380D01*
X104740357Y-128753571D02*
X105073690Y-128753571D01*
X105216547Y-129277380D02*
X104740357Y-129277380D01*
X104740357Y-128277380D01*
X105216547Y-128277380D01*
X105645119Y-129277380D02*
X105645119Y-128277380D01*
X105883214Y-128277380D01*
X106026071Y-128325000D01*
X106121309Y-128420238D01*
X106168928Y-128515476D01*
X106216547Y-128705952D01*
X106216547Y-128848809D01*
X106168928Y-129039285D01*
X106121309Y-129134523D01*
X106026071Y-129229761D01*
X105883214Y-129277380D01*
X105645119Y-129277380D01*
X107978452Y-129277380D02*
X107645119Y-128801190D01*
X107407023Y-129277380D02*
X107407023Y-128277380D01*
X107787976Y-128277380D01*
X107883214Y-128325000D01*
X107930833Y-128372619D01*
X107978452Y-128467857D01*
X107978452Y-128610714D01*
X107930833Y-128705952D01*
X107883214Y-128753571D01*
X107787976Y-128801190D01*
X107407023Y-128801190D01*
X108359404Y-129229761D02*
X108502261Y-129277380D01*
X108740357Y-129277380D01*
X108835595Y-129229761D01*
X108883214Y-129182142D01*
X108930833Y-129086904D01*
X108930833Y-128991666D01*
X108883214Y-128896428D01*
X108835595Y-128848809D01*
X108740357Y-128801190D01*
X108549880Y-128753571D01*
X108454642Y-128705952D01*
X108407023Y-128658333D01*
X108359404Y-128563095D01*
X108359404Y-128467857D01*
X108407023Y-128372619D01*
X108454642Y-128325000D01*
X108549880Y-128277380D01*
X108787976Y-128277380D01*
X108930833Y-128325000D01*
X109787976Y-128610714D02*
X109787976Y-129277380D01*
X109549880Y-128229761D02*
X109311785Y-128944047D01*
X109930833Y-128944047D01*
X110454642Y-128705952D02*
X110359404Y-128658333D01*
X110311785Y-128610714D01*
X110264166Y-128515476D01*
X110264166Y-128467857D01*
X110311785Y-128372619D01*
X110359404Y-128325000D01*
X110454642Y-128277380D01*
X110645119Y-128277380D01*
X110740357Y-128325000D01*
X110787976Y-128372619D01*
X110835595Y-128467857D01*
X110835595Y-128515476D01*
X110787976Y-128610714D01*
X110740357Y-128658333D01*
X110645119Y-128705952D01*
X110454642Y-128705952D01*
X110359404Y-128753571D01*
X110311785Y-128801190D01*
X110264166Y-128896428D01*
X110264166Y-129086904D01*
X110311785Y-129182142D01*
X110359404Y-129229761D01*
X110454642Y-129277380D01*
X110645119Y-129277380D01*
X110740357Y-129229761D01*
X110787976Y-129182142D01*
X110835595Y-129086904D01*
X110835595Y-128896428D01*
X110787976Y-128801190D01*
X110740357Y-128753571D01*
X110645119Y-128705952D01*
X111740357Y-128277380D02*
X111264166Y-128277380D01*
X111216547Y-128753571D01*
X111264166Y-128705952D01*
X111359404Y-128658333D01*
X111597500Y-128658333D01*
X111692738Y-128705952D01*
X111740357Y-128753571D01*
X111787976Y-128848809D01*
X111787976Y-129086904D01*
X111740357Y-129182142D01*
X111692738Y-129229761D01*
X111597500Y-129277380D01*
X111359404Y-129277380D01*
X111264166Y-129229761D01*
X111216547Y-129182142D01*
X97835595Y-130546428D02*
X98597500Y-130546428D01*
X98216547Y-130927380D02*
X98216547Y-130165476D01*
X100264166Y-129927380D02*
X100073690Y-129927380D01*
X99978452Y-129975000D01*
X99930833Y-130022619D01*
X99835595Y-130165476D01*
X99787976Y-130355952D01*
X99787976Y-130736904D01*
X99835595Y-130832142D01*
X99883214Y-130879761D01*
X99978452Y-130927380D01*
X100168928Y-130927380D01*
X100264166Y-130879761D01*
X100311785Y-130832142D01*
X100359404Y-130736904D01*
X100359404Y-130498809D01*
X100311785Y-130403571D01*
X100264166Y-130355952D01*
X100168928Y-130308333D01*
X99978452Y-130308333D01*
X99883214Y-130355952D01*
X99835595Y-130403571D01*
X99787976Y-130498809D01*
X101216547Y-130260714D02*
X101216547Y-130927380D01*
X100978452Y-129879761D02*
X100740357Y-130594047D01*
X101359404Y-130594047D01*
X101740357Y-130927380D02*
X101740357Y-129927380D01*
X102311785Y-130927380D02*
X101883214Y-130355952D01*
X102311785Y-129927380D02*
X101740357Y-130498809D01*
X102740357Y-130927380D02*
X102740357Y-129927380D01*
X102740357Y-130308333D02*
X102835595Y-130260714D01*
X103026071Y-130260714D01*
X103121309Y-130308333D01*
X103168928Y-130355952D01*
X103216547Y-130451190D01*
X103216547Y-130736904D01*
X103168928Y-130832142D01*
X103121309Y-130879761D01*
X103026071Y-130927380D01*
X102835595Y-130927380D01*
X102740357Y-130879761D01*
X104407023Y-130403571D02*
X104740357Y-130403571D01*
X104883214Y-130927380D02*
X104407023Y-130927380D01*
X104407023Y-129927380D01*
X104883214Y-129927380D01*
X105311785Y-130403571D02*
X105645119Y-130403571D01*
X105787976Y-130927380D02*
X105311785Y-130927380D01*
X105311785Y-129927380D01*
X105787976Y-129927380D01*
X106216547Y-130927380D02*
X106216547Y-129927380D01*
X106597500Y-129927380D01*
X106692738Y-129975000D01*
X106740357Y-130022619D01*
X106787976Y-130117857D01*
X106787976Y-130260714D01*
X106740357Y-130355952D01*
X106692738Y-130403571D01*
X106597500Y-130451190D01*
X106216547Y-130451190D01*
X107787976Y-130927380D02*
X107454642Y-130451190D01*
X107216547Y-130927380D02*
X107216547Y-129927380D01*
X107597500Y-129927380D01*
X107692738Y-129975000D01*
X107740357Y-130022619D01*
X107787976Y-130117857D01*
X107787976Y-130260714D01*
X107740357Y-130355952D01*
X107692738Y-130403571D01*
X107597500Y-130451190D01*
X107216547Y-130451190D01*
X108407023Y-129927380D02*
X108597500Y-129927380D01*
X108692738Y-129975000D01*
X108787976Y-130070238D01*
X108835595Y-130260714D01*
X108835595Y-130594047D01*
X108787976Y-130784523D01*
X108692738Y-130879761D01*
X108597500Y-130927380D01*
X108407023Y-130927380D01*
X108311785Y-130879761D01*
X108216547Y-130784523D01*
X108168928Y-130594047D01*
X108168928Y-130260714D01*
X108216547Y-130070238D01*
X108311785Y-129975000D01*
X108407023Y-129927380D01*
X109264166Y-130927380D02*
X109264166Y-129927380D01*
X109597500Y-130641666D01*
X109930833Y-129927380D01*
X109930833Y-130927380D01*
D11*
X167080000Y-93885714D02*
X167080000Y-93171428D01*
X167508571Y-94028571D02*
X166008571Y-93528571D01*
X167508571Y-93028571D01*
X167508571Y-91742857D02*
X167508571Y-92600000D01*
X167508571Y-92171428D02*
X166008571Y-92171428D01*
X166222857Y-92314285D01*
X166365714Y-92457142D01*
X166437142Y-92600000D01*
X167508571Y-90314285D02*
X167508571Y-91171428D01*
X167508571Y-90742857D02*
X166008571Y-90742857D01*
X166222857Y-90885714D01*
X166365714Y-91028571D01*
X166437142Y-91171428D01*
X164540000Y-93885714D02*
X164540000Y-93171428D01*
X164968571Y-94028571D02*
X163468571Y-93528571D01*
X164968571Y-93028571D01*
X164968571Y-91742857D02*
X164968571Y-92600000D01*
X164968571Y-92171428D02*
X163468571Y-92171428D01*
X163682857Y-92314285D01*
X163825714Y-92457142D01*
X163897142Y-92600000D01*
X163468571Y-90814285D02*
X163468571Y-90671428D01*
X163540000Y-90528571D01*
X163611428Y-90457142D01*
X163754285Y-90385714D01*
X164040000Y-90314285D01*
X164397142Y-90314285D01*
X164682857Y-90385714D01*
X164825714Y-90457142D01*
X164897142Y-90528571D01*
X164968571Y-90671428D01*
X164968571Y-90814285D01*
X164897142Y-90957142D01*
X164825714Y-91028571D01*
X164682857Y-91100000D01*
X164397142Y-91171428D01*
X164040000Y-91171428D01*
X163754285Y-91100000D01*
X163611428Y-91028571D01*
X163540000Y-90957142D01*
X163468571Y-90814285D01*
X162000000Y-93171428D02*
X162000000Y-92457142D01*
X162428571Y-93314285D02*
X160928571Y-92814285D01*
X162428571Y-92314285D01*
X162428571Y-91742857D02*
X162428571Y-91457142D01*
X162357142Y-91314285D01*
X162285714Y-91242857D01*
X162071428Y-91100000D01*
X161785714Y-91028571D01*
X161214285Y-91028571D01*
X161071428Y-91100000D01*
X161000000Y-91171428D01*
X160928571Y-91314285D01*
X160928571Y-91600000D01*
X161000000Y-91742857D01*
X161071428Y-91814285D01*
X161214285Y-91885714D01*
X161571428Y-91885714D01*
X161714285Y-91814285D01*
X161785714Y-91742857D01*
X161857142Y-91600000D01*
X161857142Y-91314285D01*
X161785714Y-91171428D01*
X161714285Y-91100000D01*
X161571428Y-91028571D01*
X159460000Y-93171428D02*
X159460000Y-92457142D01*
X159888571Y-93314285D02*
X158388571Y-92814285D01*
X159888571Y-92314285D01*
X159031428Y-91600000D02*
X158960000Y-91742857D01*
X158888571Y-91814285D01*
X158745714Y-91885714D01*
X158674285Y-91885714D01*
X158531428Y-91814285D01*
X158460000Y-91742857D01*
X158388571Y-91600000D01*
X158388571Y-91314285D01*
X158460000Y-91171428D01*
X158531428Y-91100000D01*
X158674285Y-91028571D01*
X158745714Y-91028571D01*
X158888571Y-91100000D01*
X158960000Y-91171428D01*
X159031428Y-91314285D01*
X159031428Y-91600000D01*
X159102857Y-91742857D01*
X159174285Y-91814285D01*
X159317142Y-91885714D01*
X159602857Y-91885714D01*
X159745714Y-91814285D01*
X159817142Y-91742857D01*
X159888571Y-91600000D01*
X159888571Y-91314285D01*
X159817142Y-91171428D01*
X159745714Y-91100000D01*
X159602857Y-91028571D01*
X159317142Y-91028571D01*
X159174285Y-91100000D01*
X159102857Y-91171428D01*
X159031428Y-91314285D01*
X157205714Y-92350000D02*
X157277142Y-92421428D01*
X157348571Y-92635714D01*
X157348571Y-92778571D01*
X157277142Y-92992857D01*
X157134285Y-93135714D01*
X156991428Y-93207142D01*
X156705714Y-93278571D01*
X156491428Y-93278571D01*
X156205714Y-93207142D01*
X156062857Y-93135714D01*
X155920000Y-92992857D01*
X155848571Y-92778571D01*
X155848571Y-92635714D01*
X155920000Y-92421428D01*
X155991428Y-92350000D01*
X157348571Y-91635714D02*
X157348571Y-91350000D01*
X157277142Y-91207142D01*
X157205714Y-91135714D01*
X156991428Y-90992857D01*
X156705714Y-90921428D01*
X156134285Y-90921428D01*
X155991428Y-90992857D01*
X155920000Y-91064285D01*
X155848571Y-91207142D01*
X155848571Y-91492857D01*
X155920000Y-91635714D01*
X155991428Y-91707142D01*
X156134285Y-91778571D01*
X156491428Y-91778571D01*
X156634285Y-91707142D01*
X156705714Y-91635714D01*
X156777142Y-91492857D01*
X156777142Y-91207142D01*
X156705714Y-91064285D01*
X156634285Y-90992857D01*
X156491428Y-90921428D01*
X154665714Y-92350000D02*
X154737142Y-92421428D01*
X154808571Y-92635714D01*
X154808571Y-92778571D01*
X154737142Y-92992857D01*
X154594285Y-93135714D01*
X154451428Y-93207142D01*
X154165714Y-93278571D01*
X153951428Y-93278571D01*
X153665714Y-93207142D01*
X153522857Y-93135714D01*
X153380000Y-92992857D01*
X153308571Y-92778571D01*
X153308571Y-92635714D01*
X153380000Y-92421428D01*
X153451428Y-92350000D01*
X153951428Y-91492857D02*
X153880000Y-91635714D01*
X153808571Y-91707142D01*
X153665714Y-91778571D01*
X153594285Y-91778571D01*
X153451428Y-91707142D01*
X153380000Y-91635714D01*
X153308571Y-91492857D01*
X153308571Y-91207142D01*
X153380000Y-91064285D01*
X153451428Y-90992857D01*
X153594285Y-90921428D01*
X153665714Y-90921428D01*
X153808571Y-90992857D01*
X153880000Y-91064285D01*
X153951428Y-91207142D01*
X153951428Y-91492857D01*
X154022857Y-91635714D01*
X154094285Y-91707142D01*
X154237142Y-91778571D01*
X154522857Y-91778571D01*
X154665714Y-91707142D01*
X154737142Y-91635714D01*
X154808571Y-91492857D01*
X154808571Y-91207142D01*
X154737142Y-91064285D01*
X154665714Y-90992857D01*
X154522857Y-90921428D01*
X154237142Y-90921428D01*
X154094285Y-90992857D01*
X154022857Y-91064285D01*
X153951428Y-91207142D01*
X152125714Y-92350000D02*
X152197142Y-92421428D01*
X152268571Y-92635714D01*
X152268571Y-92778571D01*
X152197142Y-92992857D01*
X152054285Y-93135714D01*
X151911428Y-93207142D01*
X151625714Y-93278571D01*
X151411428Y-93278571D01*
X151125714Y-93207142D01*
X150982857Y-93135714D01*
X150840000Y-92992857D01*
X150768571Y-92778571D01*
X150768571Y-92635714D01*
X150840000Y-92421428D01*
X150911428Y-92350000D01*
X150768571Y-91850000D02*
X150768571Y-90850000D01*
X152268571Y-91492857D01*
X144300000Y-93885714D02*
X144300000Y-93171428D01*
X144728571Y-94028571D02*
X143228571Y-93528571D01*
X144728571Y-93028571D01*
X144728571Y-91742857D02*
X144728571Y-92600000D01*
X144728571Y-92171428D02*
X143228571Y-92171428D01*
X143442857Y-92314285D01*
X143585714Y-92457142D01*
X143657142Y-92600000D01*
X143371428Y-91171428D02*
X143300000Y-91100000D01*
X143228571Y-90957142D01*
X143228571Y-90600000D01*
X143300000Y-90457142D01*
X143371428Y-90385714D01*
X143514285Y-90314285D01*
X143657142Y-90314285D01*
X143871428Y-90385714D01*
X144728571Y-91242857D01*
X144728571Y-90314285D01*
X141402857Y-92600000D02*
X141402857Y-93100000D01*
X142188571Y-93100000D02*
X140688571Y-93100000D01*
X140688571Y-92385714D01*
X140688571Y-91171428D02*
X140688571Y-91457142D01*
X140760000Y-91600000D01*
X140831428Y-91671428D01*
X141045714Y-91814285D01*
X141331428Y-91885714D01*
X141902857Y-91885714D01*
X142045714Y-91814285D01*
X142117142Y-91742857D01*
X142188571Y-91600000D01*
X142188571Y-91314285D01*
X142117142Y-91171428D01*
X142045714Y-91100000D01*
X141902857Y-91028571D01*
X141545714Y-91028571D01*
X141402857Y-91100000D01*
X141331428Y-91171428D01*
X141260000Y-91314285D01*
X141260000Y-91600000D01*
X141331428Y-91742857D01*
X141402857Y-91814285D01*
X141545714Y-91885714D01*
X138862857Y-92600000D02*
X138862857Y-93100000D01*
X139648571Y-93100000D02*
X138148571Y-93100000D01*
X138148571Y-92385714D01*
X138148571Y-91957142D02*
X138148571Y-90957142D01*
X139648571Y-91600000D01*
X136680000Y-93885714D02*
X136680000Y-93171428D01*
X137108571Y-94028571D02*
X135608571Y-93528571D01*
X137108571Y-93028571D01*
X137108571Y-91742857D02*
X137108571Y-92600000D01*
X137108571Y-92171428D02*
X135608571Y-92171428D01*
X135822857Y-92314285D01*
X135965714Y-92457142D01*
X136037142Y-92600000D01*
X135608571Y-90385714D02*
X135608571Y-91100000D01*
X136322857Y-91171428D01*
X136251428Y-91100000D01*
X136180000Y-90957142D01*
X136180000Y-90600000D01*
X136251428Y-90457142D01*
X136322857Y-90385714D01*
X136465714Y-90314285D01*
X136822857Y-90314285D01*
X136965714Y-90385714D01*
X137037142Y-90457142D01*
X137108571Y-90600000D01*
X137108571Y-90957142D01*
X137037142Y-91100000D01*
X136965714Y-91171428D01*
X134425714Y-93064285D02*
X134497142Y-93135714D01*
X134568571Y-93350000D01*
X134568571Y-93492857D01*
X134497142Y-93707142D01*
X134354285Y-93850000D01*
X134211428Y-93921428D01*
X133925714Y-93992857D01*
X133711428Y-93992857D01*
X133425714Y-93921428D01*
X133282857Y-93850000D01*
X133140000Y-93707142D01*
X133068571Y-93492857D01*
X133068571Y-93350000D01*
X133140000Y-93135714D01*
X133211428Y-93064285D01*
X134568571Y-91635714D02*
X134568571Y-92492857D01*
X134568571Y-92064285D02*
X133068571Y-92064285D01*
X133282857Y-92207142D01*
X133425714Y-92350000D01*
X133497142Y-92492857D01*
X133068571Y-90707142D02*
X133068571Y-90564285D01*
X133140000Y-90421428D01*
X133211428Y-90350000D01*
X133354285Y-90278571D01*
X133640000Y-90207142D01*
X133997142Y-90207142D01*
X134282857Y-90278571D01*
X134425714Y-90350000D01*
X134497142Y-90421428D01*
X134568571Y-90564285D01*
X134568571Y-90707142D01*
X134497142Y-90850000D01*
X134425714Y-90921428D01*
X134282857Y-90992857D01*
X133997142Y-91064285D01*
X133640000Y-91064285D01*
X133354285Y-90992857D01*
X133211428Y-90921428D01*
X133140000Y-90850000D01*
X133068571Y-90707142D01*
X132028571Y-93207142D02*
X130528571Y-93207142D01*
X130528571Y-92850000D01*
X130600000Y-92635714D01*
X130742857Y-92492857D01*
X130885714Y-92421428D01*
X131171428Y-92350000D01*
X131385714Y-92350000D01*
X131671428Y-92421428D01*
X131814285Y-92492857D01*
X131957142Y-92635714D01*
X132028571Y-92850000D01*
X132028571Y-93207142D01*
X130671428Y-91778571D02*
X130600000Y-91707142D01*
X130528571Y-91564285D01*
X130528571Y-91207142D01*
X130600000Y-91064285D01*
X130671428Y-90992857D01*
X130814285Y-90921428D01*
X130957142Y-90921428D01*
X131171428Y-90992857D01*
X132028571Y-91850000D01*
X132028571Y-90921428D01*
X128702857Y-92707142D02*
X128774285Y-92492857D01*
X128845714Y-92421428D01*
X128988571Y-92350000D01*
X129202857Y-92350000D01*
X129345714Y-92421428D01*
X129417142Y-92492857D01*
X129488571Y-92635714D01*
X129488571Y-93207142D01*
X127988571Y-93207142D01*
X127988571Y-92707142D01*
X128060000Y-92564285D01*
X128131428Y-92492857D01*
X128274285Y-92421428D01*
X128417142Y-92421428D01*
X128560000Y-92492857D01*
X128631428Y-92564285D01*
X128702857Y-92707142D01*
X128702857Y-93207142D01*
X127988571Y-91850000D02*
X127988571Y-90921428D01*
X128560000Y-91421428D01*
X128560000Y-91207142D01*
X128631428Y-91064285D01*
X128702857Y-90992857D01*
X128845714Y-90921428D01*
X129202857Y-90921428D01*
X129345714Y-90992857D01*
X129417142Y-91064285D01*
X129488571Y-91207142D01*
X129488571Y-91635714D01*
X129417142Y-91778571D01*
X129345714Y-91850000D01*
X126162857Y-92707142D02*
X126234285Y-92492857D01*
X126305714Y-92421428D01*
X126448571Y-92350000D01*
X126662857Y-92350000D01*
X126805714Y-92421428D01*
X126877142Y-92492857D01*
X126948571Y-92635714D01*
X126948571Y-93207142D01*
X125448571Y-93207142D01*
X125448571Y-92707142D01*
X125520000Y-92564285D01*
X125591428Y-92492857D01*
X125734285Y-92421428D01*
X125877142Y-92421428D01*
X126020000Y-92492857D01*
X126091428Y-92564285D01*
X126162857Y-92707142D01*
X126162857Y-93207142D01*
X125948571Y-91064285D02*
X126948571Y-91064285D01*
X125377142Y-91421428D02*
X126448571Y-91778571D01*
X126448571Y-90850000D01*
D13*
X106261904Y-84502380D02*
X106880952Y-84502380D01*
X106547619Y-84883333D01*
X106690476Y-84883333D01*
X106785714Y-84930952D01*
X106833333Y-84978571D01*
X106880952Y-85073809D01*
X106880952Y-85311904D01*
X106833333Y-85407142D01*
X106785714Y-85454761D01*
X106690476Y-85502380D01*
X106404761Y-85502380D01*
X106309523Y-85454761D01*
X106261904Y-85407142D01*
X107166666Y-84502380D02*
X107500000Y-85502380D01*
X107833333Y-84502380D01*
X108071428Y-84502380D02*
X108690476Y-84502380D01*
X108357142Y-84883333D01*
X108500000Y-84883333D01*
X108595238Y-84930952D01*
X108642857Y-84978571D01*
X108690476Y-85073809D01*
X108690476Y-85311904D01*
X108642857Y-85407142D01*
X108595238Y-85454761D01*
X108500000Y-85502380D01*
X108214285Y-85502380D01*
X108119047Y-85454761D01*
X108071428Y-85407142D01*
X102309523Y-84502380D02*
X101833333Y-84502380D01*
X101785714Y-84978571D01*
X101833333Y-84930952D01*
X101928571Y-84883333D01*
X102166666Y-84883333D01*
X102261904Y-84930952D01*
X102309523Y-84978571D01*
X102357142Y-85073809D01*
X102357142Y-85311904D01*
X102309523Y-85407142D01*
X102261904Y-85454761D01*
X102166666Y-85502380D01*
X101928571Y-85502380D01*
X101833333Y-85454761D01*
X101785714Y-85407142D01*
X102642857Y-84502380D02*
X102976190Y-85502380D01*
X103309523Y-84502380D01*
D11*
X144750000Y-125335714D02*
X144678571Y-125407142D01*
X144464285Y-125478571D01*
X144321428Y-125478571D01*
X144107142Y-125407142D01*
X143964285Y-125264285D01*
X143892857Y-125121428D01*
X143821428Y-124835714D01*
X143821428Y-124621428D01*
X143892857Y-124335714D01*
X143964285Y-124192857D01*
X144107142Y-124050000D01*
X144321428Y-123978571D01*
X144464285Y-123978571D01*
X144678571Y-124050000D01*
X144750000Y-124121428D01*
X145250000Y-123978571D02*
X146178571Y-123978571D01*
X145678571Y-124550000D01*
X145892857Y-124550000D01*
X146035714Y-124621428D01*
X146107142Y-124692857D01*
X146178571Y-124835714D01*
X146178571Y-125192857D01*
X146107142Y-125335714D01*
X146035714Y-125407142D01*
X145892857Y-125478571D01*
X145464285Y-125478571D01*
X145321428Y-125407142D01*
X145250000Y-125335714D01*
X139750000Y-125335714D02*
X139678571Y-125407142D01*
X139464285Y-125478571D01*
X139321428Y-125478571D01*
X139107142Y-125407142D01*
X138964285Y-125264285D01*
X138892857Y-125121428D01*
X138821428Y-124835714D01*
X138821428Y-124621428D01*
X138892857Y-124335714D01*
X138964285Y-124192857D01*
X139107142Y-124050000D01*
X139321428Y-123978571D01*
X139464285Y-123978571D01*
X139678571Y-124050000D01*
X139750000Y-124121428D01*
X140321428Y-124121428D02*
X140392857Y-124050000D01*
X140535714Y-123978571D01*
X140892857Y-123978571D01*
X141035714Y-124050000D01*
X141107142Y-124121428D01*
X141178571Y-124264285D01*
X141178571Y-124407142D01*
X141107142Y-124621428D01*
X140250000Y-125478571D01*
X141178571Y-125478571D01*
X134750000Y-125335714D02*
X134678571Y-125407142D01*
X134464285Y-125478571D01*
X134321428Y-125478571D01*
X134107142Y-125407142D01*
X133964285Y-125264285D01*
X133892857Y-125121428D01*
X133821428Y-124835714D01*
X133821428Y-124621428D01*
X133892857Y-124335714D01*
X133964285Y-124192857D01*
X134107142Y-124050000D01*
X134321428Y-123978571D01*
X134464285Y-123978571D01*
X134678571Y-124050000D01*
X134750000Y-124121428D01*
X136178571Y-125478571D02*
X135321428Y-125478571D01*
X135750000Y-125478571D02*
X135750000Y-123978571D01*
X135607142Y-124192857D01*
X135464285Y-124335714D01*
X135321428Y-124407142D01*
X129750000Y-125335714D02*
X129678571Y-125407142D01*
X129464285Y-125478571D01*
X129321428Y-125478571D01*
X129107142Y-125407142D01*
X128964285Y-125264285D01*
X128892857Y-125121428D01*
X128821428Y-124835714D01*
X128821428Y-124621428D01*
X128892857Y-124335714D01*
X128964285Y-124192857D01*
X129107142Y-124050000D01*
X129321428Y-123978571D01*
X129464285Y-123978571D01*
X129678571Y-124050000D01*
X129750000Y-124121428D01*
X130678571Y-123978571D02*
X130821428Y-123978571D01*
X130964285Y-124050000D01*
X131035714Y-124121428D01*
X131107142Y-124264285D01*
X131178571Y-124550000D01*
X131178571Y-124907142D01*
X131107142Y-125192857D01*
X131035714Y-125335714D01*
X130964285Y-125407142D01*
X130821428Y-125478571D01*
X130678571Y-125478571D01*
X130535714Y-125407142D01*
X130464285Y-125335714D01*
X130392857Y-125192857D01*
X130321428Y-124907142D01*
X130321428Y-124550000D01*
X130392857Y-124264285D01*
X130464285Y-124121428D01*
X130535714Y-124050000D01*
X130678571Y-123978571D01*
X124392857Y-124692857D02*
X124607142Y-124764285D01*
X124678571Y-124835714D01*
X124750000Y-124978571D01*
X124750000Y-125192857D01*
X124678571Y-125335714D01*
X124607142Y-125407142D01*
X124464285Y-125478571D01*
X123892857Y-125478571D01*
X123892857Y-123978571D01*
X124392857Y-123978571D01*
X124535714Y-124050000D01*
X124607142Y-124121428D01*
X124678571Y-124264285D01*
X124678571Y-124407142D01*
X124607142Y-124550000D01*
X124535714Y-124621428D01*
X124392857Y-124692857D01*
X123892857Y-124692857D01*
X125464285Y-125478571D02*
X125750000Y-125478571D01*
X125892857Y-125407142D01*
X125964285Y-125335714D01*
X126107142Y-125121428D01*
X126178571Y-124835714D01*
X126178571Y-124264285D01*
X126107142Y-124121428D01*
X126035714Y-124050000D01*
X125892857Y-123978571D01*
X125607142Y-123978571D01*
X125464285Y-124050000D01*
X125392857Y-124121428D01*
X125321428Y-124264285D01*
X125321428Y-124621428D01*
X125392857Y-124764285D01*
X125464285Y-124835714D01*
X125607142Y-124907142D01*
X125892857Y-124907142D01*
X126035714Y-124835714D01*
X126107142Y-124764285D01*
X126178571Y-124621428D01*
D10*
X174050000Y-118700000D02*
X174250000Y-118500000D01*
X174450000Y-118700000D02*
X174050000Y-118700000D01*
X174250000Y-118500000D02*
X174450000Y-118700000D01*
X174250000Y-119500000D02*
X174250000Y-118500000D01*
X166500000Y-119500000D02*
X174250000Y-119500000D01*
D11*
X162857142Y-118750000D02*
X162714285Y-118678571D01*
X162500000Y-118678571D01*
X162285714Y-118750000D01*
X162142857Y-118892857D01*
X162071428Y-119035714D01*
X162000000Y-119321428D01*
X162000000Y-119535714D01*
X162071428Y-119821428D01*
X162142857Y-119964285D01*
X162285714Y-120107142D01*
X162500000Y-120178571D01*
X162642857Y-120178571D01*
X162857142Y-120107142D01*
X162928571Y-120035714D01*
X162928571Y-119535714D01*
X162642857Y-119535714D01*
X163571428Y-120178571D02*
X163571428Y-118678571D01*
X164428571Y-120178571D01*
X164428571Y-118678571D01*
X165142857Y-120178571D02*
X165142857Y-118678571D01*
X165500000Y-118678571D01*
X165714285Y-118750000D01*
X165857142Y-118892857D01*
X165928571Y-119035714D01*
X166000000Y-119321428D01*
X166000000Y-119535714D01*
X165928571Y-119821428D01*
X165857142Y-119964285D01*
X165714285Y-120107142D01*
X165500000Y-120178571D01*
X165142857Y-120178571D01*
X161771428Y-96757142D02*
X161985714Y-96828571D01*
X162342857Y-96828571D01*
X162485714Y-96757142D01*
X162557142Y-96685714D01*
X162628571Y-96542857D01*
X162628571Y-96400000D01*
X162557142Y-96257142D01*
X162485714Y-96185714D01*
X162342857Y-96114285D01*
X162057142Y-96042857D01*
X161914285Y-95971428D01*
X161842857Y-95900000D01*
X161771428Y-95757142D01*
X161771428Y-95614285D01*
X161842857Y-95471428D01*
X161914285Y-95400000D01*
X162057142Y-95328571D01*
X162414285Y-95328571D01*
X162628571Y-95400000D01*
X163271428Y-96828571D02*
X163271428Y-95328571D01*
X164771428Y-95400000D02*
X164628571Y-95328571D01*
X164414285Y-95328571D01*
X164200000Y-95400000D01*
X164057142Y-95542857D01*
X163985714Y-95685714D01*
X163914285Y-95971428D01*
X163914285Y-96185714D01*
X163985714Y-96471428D01*
X164057142Y-96614285D01*
X164200000Y-96757142D01*
X164414285Y-96828571D01*
X164557142Y-96828571D01*
X164771428Y-96757142D01*
X164842857Y-96685714D01*
X164842857Y-96185714D01*
X164557142Y-96185714D01*
X165485714Y-96828571D02*
X165485714Y-95328571D01*
X165985714Y-96400000D01*
X166485714Y-95328571D01*
X166485714Y-96828571D01*
X167128571Y-96400000D02*
X167842857Y-96400000D01*
X166985714Y-96828571D02*
X167485714Y-95328571D01*
X167985714Y-96828571D01*
X168485714Y-96257142D02*
X169628571Y-96257142D01*
X170342857Y-96828571D02*
X170342857Y-95328571D01*
X170700000Y-95328571D01*
X170914285Y-95400000D01*
X171057142Y-95542857D01*
X171128571Y-95685714D01*
X171200000Y-95971428D01*
X171200000Y-96185714D01*
X171128571Y-96471428D01*
X171057142Y-96614285D01*
X170914285Y-96757142D01*
X170700000Y-96828571D01*
X170342857Y-96828571D01*
X171842857Y-96042857D02*
X172342857Y-96042857D01*
X172557142Y-96828571D02*
X171842857Y-96828571D01*
X171842857Y-95328571D01*
X172557142Y-95328571D01*
X173914285Y-96828571D02*
X173200000Y-96828571D01*
X173200000Y-95328571D01*
X174200000Y-95328571D02*
X175057142Y-95328571D01*
X174628571Y-96828571D02*
X174628571Y-95328571D01*
X175485714Y-96400000D02*
X176200000Y-96400000D01*
X175342857Y-96828571D02*
X175842857Y-95328571D01*
X176342857Y-96828571D01*
X177914285Y-96400000D02*
X178628571Y-96400000D01*
X177771428Y-96828571D02*
X178271428Y-95328571D01*
X178771428Y-96828571D01*
X179271428Y-96828571D02*
X179271428Y-95328571D01*
X179628571Y-95328571D01*
X179842857Y-95400000D01*
X179985714Y-95542857D01*
X180057142Y-95685714D01*
X180128571Y-95971428D01*
X180128571Y-96185714D01*
X180057142Y-96471428D01*
X179985714Y-96614285D01*
X179842857Y-96757142D01*
X179628571Y-96828571D01*
X179271428Y-96828571D01*
X181628571Y-96685714D02*
X181557142Y-96757142D01*
X181342857Y-96828571D01*
X181200000Y-96828571D01*
X180985714Y-96757142D01*
X180842857Y-96614285D01*
X180771428Y-96471428D01*
X180700000Y-96185714D01*
X180700000Y-95971428D01*
X180771428Y-95685714D01*
X180842857Y-95542857D01*
X180985714Y-95400000D01*
X181200000Y-95328571D01*
X181342857Y-95328571D01*
X181557142Y-95400000D01*
X181628571Y-95471428D01*
X163392857Y-116792857D02*
X163607142Y-116864285D01*
X163678571Y-116935714D01*
X163750000Y-117078571D01*
X163750000Y-117292857D01*
X163678571Y-117435714D01*
X163607142Y-117507142D01*
X163464285Y-117578571D01*
X162892857Y-117578571D01*
X162892857Y-116078571D01*
X163392857Y-116078571D01*
X163535714Y-116150000D01*
X163607142Y-116221428D01*
X163678571Y-116364285D01*
X163678571Y-116507142D01*
X163607142Y-116650000D01*
X163535714Y-116721428D01*
X163392857Y-116792857D01*
X162892857Y-116792857D01*
X164678571Y-116078571D02*
X164821428Y-116078571D01*
X164964285Y-116150000D01*
X165035714Y-116221428D01*
X165107142Y-116364285D01*
X165178571Y-116650000D01*
X165178571Y-117007142D01*
X165107142Y-117292857D01*
X165035714Y-117435714D01*
X164964285Y-117507142D01*
X164821428Y-117578571D01*
X164678571Y-117578571D01*
X164535714Y-117507142D01*
X164464285Y-117435714D01*
X164392857Y-117292857D01*
X164321428Y-117007142D01*
X164321428Y-116650000D01*
X164392857Y-116364285D01*
X164464285Y-116221428D01*
X164535714Y-116150000D01*
X164678571Y-116078571D01*
X163392857Y-114192857D02*
X163607142Y-114264285D01*
X163678571Y-114335714D01*
X163750000Y-114478571D01*
X163750000Y-114692857D01*
X163678571Y-114835714D01*
X163607142Y-114907142D01*
X163464285Y-114978571D01*
X162892857Y-114978571D01*
X162892857Y-113478571D01*
X163392857Y-113478571D01*
X163535714Y-113550000D01*
X163607142Y-113621428D01*
X163678571Y-113764285D01*
X163678571Y-113907142D01*
X163607142Y-114050000D01*
X163535714Y-114121428D01*
X163392857Y-114192857D01*
X162892857Y-114192857D01*
X165178571Y-114978571D02*
X164321428Y-114978571D01*
X164750000Y-114978571D02*
X164750000Y-113478571D01*
X164607142Y-113692857D01*
X164464285Y-113835714D01*
X164321428Y-113907142D01*
X163392857Y-111692857D02*
X163607142Y-111764285D01*
X163678571Y-111835714D01*
X163750000Y-111978571D01*
X163750000Y-112192857D01*
X163678571Y-112335714D01*
X163607142Y-112407142D01*
X163464285Y-112478571D01*
X162892857Y-112478571D01*
X162892857Y-110978571D01*
X163392857Y-110978571D01*
X163535714Y-111050000D01*
X163607142Y-111121428D01*
X163678571Y-111264285D01*
X163678571Y-111407142D01*
X163607142Y-111550000D01*
X163535714Y-111621428D01*
X163392857Y-111692857D01*
X162892857Y-111692857D01*
X164321428Y-111121428D02*
X164392857Y-111050000D01*
X164535714Y-110978571D01*
X164892857Y-110978571D01*
X165035714Y-111050000D01*
X165107142Y-111121428D01*
X165178571Y-111264285D01*
X165178571Y-111407142D01*
X165107142Y-111621428D01*
X164250000Y-112478571D01*
X165178571Y-112478571D01*
X162964285Y-109142857D02*
X163464285Y-109142857D01*
X163678571Y-109928571D02*
X162964285Y-109928571D01*
X162964285Y-108428571D01*
X163678571Y-108428571D01*
X164535714Y-109071428D02*
X164392857Y-109000000D01*
X164321428Y-108928571D01*
X164250000Y-108785714D01*
X164250000Y-108714285D01*
X164321428Y-108571428D01*
X164392857Y-108500000D01*
X164535714Y-108428571D01*
X164821428Y-108428571D01*
X164964285Y-108500000D01*
X165035714Y-108571428D01*
X165107142Y-108714285D01*
X165107142Y-108785714D01*
X165035714Y-108928571D01*
X164964285Y-109000000D01*
X164821428Y-109071428D01*
X164535714Y-109071428D01*
X164392857Y-109142857D01*
X164321428Y-109214285D01*
X164250000Y-109357142D01*
X164250000Y-109642857D01*
X164321428Y-109785714D01*
X164392857Y-109857142D01*
X164535714Y-109928571D01*
X164821428Y-109928571D01*
X164964285Y-109857142D01*
X165035714Y-109785714D01*
X165107142Y-109642857D01*
X165107142Y-109357142D01*
X165035714Y-109214285D01*
X164964285Y-109142857D01*
X164821428Y-109071428D01*
X162964285Y-106592857D02*
X163464285Y-106592857D01*
X163678571Y-107378571D02*
X162964285Y-107378571D01*
X162964285Y-105878571D01*
X163678571Y-105878571D01*
X164392857Y-107378571D02*
X164678571Y-107378571D01*
X164821428Y-107307142D01*
X164892857Y-107235714D01*
X165035714Y-107021428D01*
X165107142Y-106735714D01*
X165107142Y-106164285D01*
X165035714Y-106021428D01*
X164964285Y-105950000D01*
X164821428Y-105878571D01*
X164535714Y-105878571D01*
X164392857Y-105950000D01*
X164321428Y-106021428D01*
X164250000Y-106164285D01*
X164250000Y-106521428D01*
X164321428Y-106664285D01*
X164392857Y-106735714D01*
X164535714Y-106807142D01*
X164821428Y-106807142D01*
X164964285Y-106735714D01*
X165035714Y-106664285D01*
X165107142Y-106521428D01*
X162678571Y-104092857D02*
X162892857Y-104164285D01*
X162964285Y-104235714D01*
X163035714Y-104378571D01*
X163035714Y-104592857D01*
X162964285Y-104735714D01*
X162892857Y-104807142D01*
X162750000Y-104878571D01*
X162178571Y-104878571D01*
X162178571Y-103378571D01*
X162678571Y-103378571D01*
X162821428Y-103450000D01*
X162892857Y-103521428D01*
X162964285Y-103664285D01*
X162964285Y-103807142D01*
X162892857Y-103950000D01*
X162821428Y-104021428D01*
X162678571Y-104092857D01*
X162178571Y-104092857D01*
X164464285Y-104878571D02*
X163607142Y-104878571D01*
X164035714Y-104878571D02*
X164035714Y-103378571D01*
X163892857Y-103592857D01*
X163750000Y-103735714D01*
X163607142Y-103807142D01*
X165750000Y-103878571D02*
X165750000Y-104878571D01*
X165392857Y-103307142D02*
X165035714Y-104378571D01*
X165964285Y-104378571D01*
X162678571Y-101542857D02*
X162892857Y-101614285D01*
X162964285Y-101685714D01*
X163035714Y-101828571D01*
X163035714Y-102042857D01*
X162964285Y-102185714D01*
X162892857Y-102257142D01*
X162750000Y-102328571D01*
X162178571Y-102328571D01*
X162178571Y-100828571D01*
X162678571Y-100828571D01*
X162821428Y-100900000D01*
X162892857Y-100971428D01*
X162964285Y-101114285D01*
X162964285Y-101257142D01*
X162892857Y-101400000D01*
X162821428Y-101471428D01*
X162678571Y-101542857D01*
X162178571Y-101542857D01*
X164464285Y-102328571D02*
X163607142Y-102328571D01*
X164035714Y-102328571D02*
X164035714Y-100828571D01*
X163892857Y-101042857D01*
X163750000Y-101185714D01*
X163607142Y-101257142D01*
X165821428Y-100828571D02*
X165107142Y-100828571D01*
X165035714Y-101542857D01*
X165107142Y-101471428D01*
X165250000Y-101400000D01*
X165607142Y-101400000D01*
X165750000Y-101471428D01*
X165821428Y-101542857D01*
X165892857Y-101685714D01*
X165892857Y-102042857D01*
X165821428Y-102185714D01*
X165750000Y-102257142D01*
X165607142Y-102328571D01*
X165250000Y-102328571D01*
X165107142Y-102257142D01*
X165035714Y-102185714D01*
X162892857Y-99778571D02*
X162892857Y-98278571D01*
X163250000Y-98278571D01*
X163464285Y-98350000D01*
X163607142Y-98492857D01*
X163678571Y-98635714D01*
X163750000Y-98921428D01*
X163750000Y-99135714D01*
X163678571Y-99421428D01*
X163607142Y-99564285D01*
X163464285Y-99707142D01*
X163250000Y-99778571D01*
X162892857Y-99778571D01*
X164607142Y-98921428D02*
X164464285Y-98850000D01*
X164392857Y-98778571D01*
X164321428Y-98635714D01*
X164321428Y-98564285D01*
X164392857Y-98421428D01*
X164464285Y-98350000D01*
X164607142Y-98278571D01*
X164892857Y-98278571D01*
X165035714Y-98350000D01*
X165107142Y-98421428D01*
X165178571Y-98564285D01*
X165178571Y-98635714D01*
X165107142Y-98778571D01*
X165035714Y-98850000D01*
X164892857Y-98921428D01*
X164607142Y-98921428D01*
X164464285Y-98992857D01*
X164392857Y-99064285D01*
X164321428Y-99207142D01*
X164321428Y-99492857D01*
X164392857Y-99635714D01*
X164464285Y-99707142D01*
X164607142Y-99778571D01*
X164892857Y-99778571D01*
X165035714Y-99707142D01*
X165107142Y-99635714D01*
X165178571Y-99492857D01*
X165178571Y-99207142D01*
X165107142Y-99064285D01*
X165035714Y-98992857D01*
X164892857Y-98921428D01*
D13*
X138285714Y-102852380D02*
X137714285Y-102852380D01*
X138000000Y-102852380D02*
X138000000Y-101852380D01*
X137904761Y-101995238D01*
X137809523Y-102090476D01*
X137714285Y-102138095D01*
X132352380Y-101852380D02*
X132447619Y-101852380D01*
X132542857Y-101900000D01*
X132590476Y-101947619D01*
X132638095Y-102042857D01*
X132685714Y-102233333D01*
X132685714Y-102471428D01*
X132638095Y-102661904D01*
X132590476Y-102757142D01*
X132542857Y-102804761D01*
X132447619Y-102852380D01*
X132352380Y-102852380D01*
X132257142Y-102804761D01*
X132209523Y-102757142D01*
X132161904Y-102661904D01*
X132114285Y-102471428D01*
X132114285Y-102233333D01*
X132161904Y-102042857D01*
X132209523Y-101947619D01*
X132257142Y-101900000D01*
X132352380Y-101852380D01*
X133842857Y-100478571D02*
X133985714Y-100526190D01*
X134033333Y-100573809D01*
X134080952Y-100669047D01*
X134080952Y-100811904D01*
X134033333Y-100907142D01*
X133985714Y-100954761D01*
X133890476Y-101002380D01*
X133509523Y-101002380D01*
X133509523Y-100002380D01*
X133842857Y-100002380D01*
X133938095Y-100050000D01*
X133985714Y-100097619D01*
X134033333Y-100192857D01*
X134033333Y-100288095D01*
X133985714Y-100383333D01*
X133938095Y-100430952D01*
X133842857Y-100478571D01*
X133509523Y-100478571D01*
X134700000Y-100002380D02*
X134890476Y-100002380D01*
X134985714Y-100050000D01*
X135080952Y-100145238D01*
X135128571Y-100335714D01*
X135128571Y-100669047D01*
X135080952Y-100859523D01*
X134985714Y-100954761D01*
X134890476Y-101002380D01*
X134700000Y-101002380D01*
X134604761Y-100954761D01*
X134509523Y-100859523D01*
X134461904Y-100669047D01*
X134461904Y-100335714D01*
X134509523Y-100145238D01*
X134604761Y-100050000D01*
X134700000Y-100002380D01*
X135747619Y-100002380D02*
X135938095Y-100002380D01*
X136033333Y-100050000D01*
X136128571Y-100145238D01*
X136176190Y-100335714D01*
X136176190Y-100669047D01*
X136128571Y-100859523D01*
X136033333Y-100954761D01*
X135938095Y-101002380D01*
X135747619Y-101002380D01*
X135652380Y-100954761D01*
X135557142Y-100859523D01*
X135509523Y-100669047D01*
X135509523Y-100335714D01*
X135557142Y-100145238D01*
X135652380Y-100050000D01*
X135747619Y-100002380D01*
X136461904Y-100002380D02*
X137033333Y-100002380D01*
X136747619Y-101002380D02*
X136747619Y-100002380D01*
D12*
X152052380Y-120747619D02*
X151576190Y-121080952D01*
X152052380Y-121319047D02*
X151052380Y-121319047D01*
X151052380Y-120938095D01*
X151100000Y-120842857D01*
X151147619Y-120795238D01*
X151242857Y-120747619D01*
X151385714Y-120747619D01*
X151480952Y-120795238D01*
X151528571Y-120842857D01*
X151576190Y-120938095D01*
X151576190Y-121319047D01*
X152004761Y-120366666D02*
X152052380Y-120223809D01*
X152052380Y-119985714D01*
X152004761Y-119890476D01*
X151957142Y-119842857D01*
X151861904Y-119795238D01*
X151766666Y-119795238D01*
X151671428Y-119842857D01*
X151623809Y-119890476D01*
X151576190Y-119985714D01*
X151528571Y-120176190D01*
X151480952Y-120271428D01*
X151433333Y-120319047D01*
X151338095Y-120366666D01*
X151242857Y-120366666D01*
X151147619Y-120319047D01*
X151100000Y-120271428D01*
X151052380Y-120176190D01*
X151052380Y-119938095D01*
X151100000Y-119795238D01*
X151052380Y-119509523D02*
X151052380Y-118938095D01*
X152052380Y-119223809D02*
X151052380Y-119223809D01*
X97792738Y-110052380D02*
X98126071Y-111052380D01*
X98459404Y-110052380D01*
X98792738Y-111052380D02*
X98792738Y-110052380D01*
X99030833Y-110052380D01*
X99173690Y-110100000D01*
X99268928Y-110195238D01*
X99316547Y-110290476D01*
X99364166Y-110480952D01*
X99364166Y-110623809D01*
X99316547Y-110814285D01*
X99268928Y-110909523D01*
X99173690Y-111004761D01*
X99030833Y-111052380D01*
X98792738Y-111052380D01*
X99792738Y-111052380D02*
X99792738Y-110052380D01*
X100030833Y-110052380D01*
X100173690Y-110100000D01*
X100268928Y-110195238D01*
X100316547Y-110290476D01*
X100364166Y-110480952D01*
X100364166Y-110623809D01*
X100316547Y-110814285D01*
X100268928Y-110909523D01*
X100173690Y-111004761D01*
X100030833Y-111052380D01*
X99792738Y-111052380D01*
X100792738Y-111052380D02*
X100792738Y-110052380D01*
X100792738Y-110433333D02*
X100887976Y-110385714D01*
X101078452Y-110385714D01*
X101173690Y-110433333D01*
X101221309Y-110480952D01*
X101268928Y-110576190D01*
X101268928Y-110861904D01*
X101221309Y-110957142D01*
X101173690Y-111004761D01*
X101078452Y-111052380D01*
X100887976Y-111052380D01*
X100792738Y-111004761D01*
X98268928Y-108028571D02*
X98411785Y-108076190D01*
X98459404Y-108123809D01*
X98507023Y-108219047D01*
X98507023Y-108361904D01*
X98459404Y-108457142D01*
X98411785Y-108504761D01*
X98316547Y-108552380D01*
X97935595Y-108552380D01*
X97935595Y-107552380D01*
X98268928Y-107552380D01*
X98364166Y-107600000D01*
X98411785Y-107647619D01*
X98459404Y-107742857D01*
X98459404Y-107838095D01*
X98411785Y-107933333D01*
X98364166Y-107980952D01*
X98268928Y-108028571D01*
X97935595Y-108028571D01*
X97887976Y-105666666D02*
X98364166Y-105666666D01*
X97792738Y-105952380D02*
X98126071Y-104952380D01*
X98459404Y-105952380D01*
X98459404Y-102500000D02*
X98364166Y-102452380D01*
X98221309Y-102452380D01*
X98078452Y-102500000D01*
X97983214Y-102595238D01*
X97935595Y-102690476D01*
X97887976Y-102880952D01*
X97887976Y-103023809D01*
X97935595Y-103214285D01*
X97983214Y-103309523D01*
X98078452Y-103404761D01*
X98221309Y-103452380D01*
X98316547Y-103452380D01*
X98459404Y-103404761D01*
X98507023Y-103357142D01*
X98507023Y-103023809D01*
X98316547Y-103023809D01*
X98935595Y-103452380D02*
X98935595Y-102452380D01*
X99507023Y-103452380D01*
X99507023Y-102452380D01*
X99983214Y-103452380D02*
X99983214Y-102452380D01*
X100221309Y-102452380D01*
X100364166Y-102500000D01*
X100459404Y-102595238D01*
X100507023Y-102690476D01*
X100554642Y-102880952D01*
X100554642Y-103023809D01*
X100507023Y-103214285D01*
X100459404Y-103309523D01*
X100364166Y-103404761D01*
X100221309Y-103452380D01*
X99983214Y-103452380D01*
X100983214Y-103452380D02*
X100983214Y-102452380D01*
X100983214Y-102833333D02*
X101078452Y-102785714D01*
X101268928Y-102785714D01*
X101364166Y-102833333D01*
X101411785Y-102880952D01*
X101459404Y-102976190D01*
X101459404Y-103261904D01*
X101411785Y-103357142D01*
X101364166Y-103404761D01*
X101268928Y-103452380D01*
X101078452Y-103452380D01*
X100983214Y-103404761D01*
D10*
%TO.C,J7*%
X122330000Y-89870000D02*
X122330000Y-84670000D01*
X114650000Y-89870000D02*
X122330000Y-89870000D01*
X112050000Y-84670000D02*
X122330000Y-84670000D01*
X114650000Y-89870000D02*
X114650000Y-87270000D01*
X114650000Y-87270000D02*
X112050000Y-87270000D01*
X112050000Y-87270000D02*
X112050000Y-84670000D01*
X113380000Y-89870000D02*
X112050000Y-89870000D01*
X112050000Y-89870000D02*
X112050000Y-88540000D01*
%TO.C,J5*%
X147670000Y-89870000D02*
X147670000Y-88540000D01*
X149000000Y-89870000D02*
X147670000Y-89870000D01*
X147670000Y-87270000D02*
X147670000Y-84670000D01*
X150270000Y-87270000D02*
X147670000Y-87270000D01*
X150270000Y-89870000D02*
X150270000Y-87270000D01*
X147670000Y-84670000D02*
X168110000Y-84670000D01*
X150270000Y-89870000D02*
X168110000Y-89870000D01*
X168110000Y-89870000D02*
X168110000Y-84670000D01*
%TO.C,D8*%
X101540000Y-87000000D02*
X101540000Y-89685000D01*
X101540000Y-89685000D02*
X103460000Y-89685000D01*
X103460000Y-89685000D02*
X103460000Y-87000000D01*
%TO.C,D7*%
X106540000Y-87000000D02*
X106540000Y-89685000D01*
X106540000Y-89685000D02*
X108460000Y-89685000D01*
X108460000Y-89685000D02*
X108460000Y-87000000D01*
%TO.C,JP4*%
X156705000Y-97620000D02*
G75*
G02*
X156005000Y-96920000I0J700000D01*
G01*
X158005000Y-96920000D02*
G75*
G02*
X157305000Y-97620000I-700000J0D01*
G01*
X157305000Y-94820000D02*
G75*
G02*
X158005000Y-95520000I0J-700000D01*
G01*
X156005000Y-95520000D02*
G75*
G02*
X156705000Y-94820000I700000J0D01*
G01*
X157305000Y-97620000D02*
X156705000Y-97620000D01*
X158005000Y-95520000D02*
X158005000Y-96920000D01*
X156705000Y-94820000D02*
X157305000Y-94820000D01*
X156005000Y-96920000D02*
X156005000Y-95520000D01*
%TO.C,JP3*%
X156800000Y-110750000D02*
G75*
G02*
X156100000Y-110050000I0J700000D01*
G01*
X158100000Y-110050000D02*
G75*
G02*
X157400000Y-110750000I-700000J0D01*
G01*
X157400000Y-107950000D02*
G75*
G02*
X158100000Y-108650000I0J-700000D01*
G01*
X156100000Y-108650000D02*
G75*
G02*
X156800000Y-107950000I700000J0D01*
G01*
X157400000Y-110750000D02*
X156800000Y-110750000D01*
X158100000Y-108650000D02*
X158100000Y-110050000D01*
X156800000Y-107950000D02*
X157400000Y-107950000D01*
X156100000Y-110050000D02*
X156100000Y-108650000D01*
%TO.C,J1*%
X94360000Y-111950000D02*
X94360000Y-101670000D01*
X94360000Y-101670000D02*
X91700000Y-101670000D01*
X91700000Y-101670000D02*
X91700000Y-111950000D01*
X91700000Y-111950000D02*
X94360000Y-111950000D01*
X91700000Y-111000000D02*
X85700000Y-111000000D01*
X85700000Y-111000000D02*
X85700000Y-110240000D01*
X85700000Y-110240000D02*
X91700000Y-110240000D01*
X91700000Y-110940000D02*
X85700000Y-110940000D01*
X91700000Y-110820000D02*
X85700000Y-110820000D01*
X91700000Y-110700000D02*
X85700000Y-110700000D01*
X91700000Y-110580000D02*
X85700000Y-110580000D01*
X91700000Y-110460000D02*
X85700000Y-110460000D01*
X91700000Y-110340000D02*
X85700000Y-110340000D01*
X94690000Y-111000000D02*
X94360000Y-111000000D01*
X94690000Y-110240000D02*
X94360000Y-110240000D01*
X94360000Y-109350000D02*
X91700000Y-109350000D01*
X91700000Y-108460000D02*
X85700000Y-108460000D01*
X85700000Y-108460000D02*
X85700000Y-107700000D01*
X85700000Y-107700000D02*
X91700000Y-107700000D01*
X94757071Y-108460000D02*
X94360000Y-108460000D01*
X94757071Y-107700000D02*
X94360000Y-107700000D01*
X94360000Y-106810000D02*
X91700000Y-106810000D01*
X91700000Y-105920000D02*
X85700000Y-105920000D01*
X85700000Y-105920000D02*
X85700000Y-105160000D01*
X85700000Y-105160000D02*
X91700000Y-105160000D01*
X94757071Y-105920000D02*
X94360000Y-105920000D01*
X94757071Y-105160000D02*
X94360000Y-105160000D01*
X94360000Y-104270000D02*
X91700000Y-104270000D01*
X91700000Y-103380000D02*
X85700000Y-103380000D01*
X85700000Y-103380000D02*
X85700000Y-102620000D01*
X85700000Y-102620000D02*
X91700000Y-102620000D01*
X94757071Y-103380000D02*
X94360000Y-103380000D01*
X94757071Y-102620000D02*
X94360000Y-102620000D01*
X97070000Y-110620000D02*
X97070000Y-111890000D01*
X97070000Y-111890000D02*
X95800000Y-111890000D01*
%TO.C,SW2*%
X146100000Y-129650000D02*
X146400000Y-129650000D01*
X146400000Y-129650000D02*
X146400000Y-126350000D01*
X146400000Y-126350000D02*
X146100000Y-126350000D01*
X143900000Y-129650000D02*
X143600000Y-129650000D01*
X143600000Y-129650000D02*
X143600000Y-126350000D01*
X143600000Y-126350000D02*
X143900000Y-126350000D01*
%TO.C,SW1*%
X126100000Y-129650000D02*
X126400000Y-129650000D01*
X126400000Y-129650000D02*
X126400000Y-126350000D01*
X126400000Y-126350000D02*
X126100000Y-126350000D01*
X123900000Y-129650000D02*
X123600000Y-129650000D01*
X123600000Y-129650000D02*
X123600000Y-126350000D01*
X123600000Y-126350000D02*
X123900000Y-126350000D01*
%TO.C,D5*%
X140960000Y-129000000D02*
X140960000Y-126315000D01*
X140960000Y-126315000D02*
X139040000Y-126315000D01*
X139040000Y-126315000D02*
X139040000Y-129000000D01*
%TO.C,D4*%
X135960000Y-129000000D02*
X135960000Y-126315000D01*
X135960000Y-126315000D02*
X134040000Y-126315000D01*
X134040000Y-126315000D02*
X134040000Y-129000000D01*
%TO.C,D3*%
X130960000Y-129000000D02*
X130960000Y-126315000D01*
X130960000Y-126315000D02*
X129040000Y-126315000D01*
X129040000Y-126315000D02*
X129040000Y-129000000D01*
%TO.C,D6*%
X114350000Y-94700000D02*
X114350000Y-97250000D01*
X112650000Y-94700000D02*
X112650000Y-97250000D01*
X114350000Y-94700000D02*
X112650000Y-94700000D01*
%TO.C,SW3*%
X153000000Y-117000000D02*
X152700000Y-117000000D01*
X153000000Y-113700000D02*
X153000000Y-117000000D01*
X152700000Y-113700000D02*
X153000000Y-113700000D01*
X150200000Y-117000000D02*
X150500000Y-117000000D01*
X150200000Y-113700000D02*
X150200000Y-117000000D01*
X150500000Y-113700000D02*
X150200000Y-113700000D01*
%TO.C,U7*%
X120600000Y-116790000D02*
X117150000Y-116790000D01*
X120600000Y-116790000D02*
X122550000Y-116790000D01*
X120600000Y-121910000D02*
X118650000Y-121910000D01*
X120600000Y-121910000D02*
X122550000Y-121910000D01*
%TO.C,R16*%
X103010000Y-118512779D02*
X103010000Y-118187221D01*
X101990000Y-118512779D02*
X101990000Y-118187221D01*
%TO.C,R15*%
X107110000Y-118512779D02*
X107110000Y-118187221D01*
X106090000Y-118512779D02*
X106090000Y-118187221D01*
%TO.C,R14*%
X111210000Y-118562779D02*
X111210000Y-118237221D01*
X110190000Y-118562779D02*
X110190000Y-118237221D01*
%TO.C,JP7*%
X103550000Y-119050000D02*
X103550000Y-117650000D01*
X104250000Y-116950000D02*
X104850000Y-116950000D01*
X105550000Y-117650000D02*
X105550000Y-119050000D01*
X104850000Y-119750000D02*
X104250000Y-119750000D01*
X104250000Y-119750000D02*
G75*
G02*
X103550000Y-119050000I0J700000D01*
G01*
X105550000Y-119050000D02*
G75*
G02*
X104850000Y-119750000I-700000J0D01*
G01*
X104850000Y-116950000D02*
G75*
G02*
X105550000Y-117650000I0J-700000D01*
G01*
X103550000Y-117650000D02*
G75*
G02*
X104250000Y-116950000I700000J0D01*
G01*
%TO.C,JP6*%
X107650000Y-119100000D02*
X107650000Y-117700000D01*
X108350000Y-117000000D02*
X108950000Y-117000000D01*
X109650000Y-117700000D02*
X109650000Y-119100000D01*
X108950000Y-119800000D02*
X108350000Y-119800000D01*
X108350000Y-119800000D02*
G75*
G02*
X107650000Y-119100000I0J700000D01*
G01*
X109650000Y-119100000D02*
G75*
G02*
X108950000Y-119800000I-700000J0D01*
G01*
X108950000Y-117000000D02*
G75*
G02*
X109650000Y-117700000I0J-700000D01*
G01*
X107650000Y-117700000D02*
G75*
G02*
X108350000Y-117000000I700000J0D01*
G01*
%TO.C,JP5*%
X111750000Y-119100000D02*
X111750000Y-117700000D01*
X112450000Y-117000000D02*
X113050000Y-117000000D01*
X113750000Y-117700000D02*
X113750000Y-119100000D01*
X113050000Y-119800000D02*
X112450000Y-119800000D01*
X112450000Y-119800000D02*
G75*
G02*
X111750000Y-119100000I0J700000D01*
G01*
X113750000Y-119100000D02*
G75*
G02*
X113050000Y-119800000I-700000J0D01*
G01*
X113050000Y-117000000D02*
G75*
G02*
X113750000Y-117700000I0J-700000D01*
G01*
X111750000Y-117700000D02*
G75*
G02*
X112450000Y-117000000I700000J0D01*
G01*
%TO.C,C22*%
X126010000Y-119512779D02*
X126010000Y-119187221D01*
X124990000Y-119512779D02*
X124990000Y-119187221D01*
%TO.C,R1*%
X101737221Y-94210000D02*
X102062779Y-94210000D01*
X101737221Y-93190000D02*
X102062779Y-93190000D01*
%TO.C,Y2*%
X141275000Y-114625000D02*
X139925000Y-114625000D01*
X141275000Y-112875000D02*
X139925000Y-112875000D01*
%TO.C,Y1*%
X143350000Y-116350000D02*
X149100000Y-116350000D01*
X143350000Y-112750000D02*
X143350000Y-116350000D01*
X149100000Y-112750000D02*
X143350000Y-112750000D01*
%TO.C,U6*%
X142640000Y-108460000D02*
X142640000Y-109800000D01*
X141690000Y-108460000D02*
X142640000Y-108460000D01*
X141690000Y-107510000D02*
X141690000Y-108460000D01*
X141690000Y-98240000D02*
X142640000Y-98240000D01*
X141690000Y-99190000D02*
X141690000Y-98240000D01*
X151910000Y-108460000D02*
X150960000Y-108460000D01*
X151910000Y-107510000D02*
X151910000Y-108460000D01*
X151910000Y-98240000D02*
X150960000Y-98240000D01*
X151910000Y-99190000D02*
X151910000Y-98240000D01*
%TO.C,U2*%
X109700000Y-92090000D02*
X107250000Y-92090000D01*
X107900000Y-95310000D02*
X109700000Y-95310000D01*
%TO.C,U1*%
X109700000Y-97190000D02*
X107250000Y-97190000D01*
X107900000Y-100410000D02*
X109700000Y-100410000D01*
%TO.C,JP2*%
X133800000Y-101400000D02*
X136600000Y-101400000D01*
X137250000Y-102100000D02*
X137250000Y-102700000D01*
X136600000Y-103400000D02*
X133800000Y-103400000D01*
X133150000Y-102700000D02*
X133150000Y-102100000D01*
X134000000Y-103600000D02*
X133700000Y-103900000D01*
X133700000Y-103900000D02*
X134300000Y-103900000D01*
X134000000Y-103600000D02*
X134300000Y-103900000D01*
X133150000Y-102100000D02*
G75*
G02*
X133850000Y-101400000I700000J0D01*
G01*
X133850000Y-103400000D02*
G75*
G02*
X133150000Y-102700000I0J700000D01*
G01*
X137250000Y-102700000D02*
G75*
G02*
X136550000Y-103400000I-700000J0D01*
G01*
X136550000Y-101400000D02*
G75*
G02*
X137250000Y-102100000I0J-700000D01*
G01*
%TO.C,J3*%
X166670000Y-97760000D02*
X168000000Y-97760000D01*
X166670000Y-99090000D02*
X166670000Y-97760000D01*
X166670000Y-100360000D02*
X169330000Y-100360000D01*
X169330000Y-100360000D02*
X169330000Y-118200000D01*
X166670000Y-100360000D02*
X166670000Y-118200000D01*
X166670000Y-118200000D02*
X169330000Y-118200000D01*
%TO.C,J4*%
X170480000Y-97820000D02*
X171750000Y-97820000D01*
X170480000Y-99090000D02*
X170480000Y-97820000D01*
X172792929Y-117250000D02*
X173247071Y-117250000D01*
X172792929Y-116490000D02*
X173247071Y-116490000D01*
X175332929Y-117250000D02*
X175730000Y-117250000D01*
X175332929Y-116490000D02*
X175730000Y-116490000D01*
X184390000Y-117250000D02*
X178390000Y-117250000D01*
X184390000Y-116490000D02*
X184390000Y-117250000D01*
X178390000Y-116490000D02*
X184390000Y-116490000D01*
X175730000Y-115600000D02*
X178390000Y-115600000D01*
X172792929Y-114710000D02*
X173247071Y-114710000D01*
X172792929Y-113950000D02*
X173247071Y-113950000D01*
X175332929Y-114710000D02*
X175730000Y-114710000D01*
X175332929Y-113950000D02*
X175730000Y-113950000D01*
X184390000Y-114710000D02*
X178390000Y-114710000D01*
X184390000Y-113950000D02*
X184390000Y-114710000D01*
X178390000Y-113950000D02*
X184390000Y-113950000D01*
X175730000Y-113060000D02*
X178390000Y-113060000D01*
X172792929Y-112170000D02*
X173247071Y-112170000D01*
X172792929Y-111410000D02*
X173247071Y-111410000D01*
X175332929Y-112170000D02*
X175730000Y-112170000D01*
X175332929Y-111410000D02*
X175730000Y-111410000D01*
X184390000Y-112170000D02*
X178390000Y-112170000D01*
X184390000Y-111410000D02*
X184390000Y-112170000D01*
X178390000Y-111410000D02*
X184390000Y-111410000D01*
X175730000Y-110520000D02*
X178390000Y-110520000D01*
X172792929Y-109630000D02*
X173247071Y-109630000D01*
X172792929Y-108870000D02*
X173247071Y-108870000D01*
X175332929Y-109630000D02*
X175730000Y-109630000D01*
X175332929Y-108870000D02*
X175730000Y-108870000D01*
X184390000Y-109630000D02*
X178390000Y-109630000D01*
X184390000Y-108870000D02*
X184390000Y-109630000D01*
X178390000Y-108870000D02*
X184390000Y-108870000D01*
X175730000Y-107980000D02*
X178390000Y-107980000D01*
X172792929Y-107090000D02*
X173247071Y-107090000D01*
X172792929Y-106330000D02*
X173247071Y-106330000D01*
X175332929Y-107090000D02*
X175730000Y-107090000D01*
X175332929Y-106330000D02*
X175730000Y-106330000D01*
X184390000Y-107090000D02*
X178390000Y-107090000D01*
X184390000Y-106330000D02*
X184390000Y-107090000D01*
X178390000Y-106330000D02*
X184390000Y-106330000D01*
X175730000Y-105440000D02*
X178390000Y-105440000D01*
X172792929Y-104550000D02*
X173247071Y-104550000D01*
X172792929Y-103790000D02*
X173247071Y-103790000D01*
X175332929Y-104550000D02*
X175730000Y-104550000D01*
X175332929Y-103790000D02*
X175730000Y-103790000D01*
X184390000Y-104550000D02*
X178390000Y-104550000D01*
X184390000Y-103790000D02*
X184390000Y-104550000D01*
X178390000Y-103790000D02*
X184390000Y-103790000D01*
X175730000Y-102900000D02*
X178390000Y-102900000D01*
X172792929Y-102010000D02*
X173247071Y-102010000D01*
X172792929Y-101250000D02*
X173247071Y-101250000D01*
X175332929Y-102010000D02*
X175730000Y-102010000D01*
X175332929Y-101250000D02*
X175730000Y-101250000D01*
X184390000Y-102010000D02*
X178390000Y-102010000D01*
X184390000Y-101250000D02*
X184390000Y-102010000D01*
X178390000Y-101250000D02*
X184390000Y-101250000D01*
X175730000Y-100360000D02*
X178390000Y-100360000D01*
X172860000Y-99470000D02*
X173247071Y-99470000D01*
X172860000Y-98710000D02*
X173247071Y-98710000D01*
X175332929Y-99470000D02*
X175730000Y-99470000D01*
X175332929Y-98710000D02*
X175730000Y-98710000D01*
X178390000Y-99370000D02*
X184390000Y-99370000D01*
X178390000Y-99250000D02*
X184390000Y-99250000D01*
X178390000Y-99130000D02*
X184390000Y-99130000D01*
X178390000Y-99010000D02*
X184390000Y-99010000D01*
X178390000Y-98890000D02*
X184390000Y-98890000D01*
X178390000Y-98770000D02*
X184390000Y-98770000D01*
X184390000Y-99470000D02*
X178390000Y-99470000D01*
X184390000Y-98710000D02*
X184390000Y-99470000D01*
X178390000Y-98710000D02*
X184390000Y-98710000D01*
X178390000Y-97760000D02*
X175730000Y-97760000D01*
X178390000Y-118200000D02*
X178390000Y-97760000D01*
X175730000Y-118200000D02*
X178390000Y-118200000D01*
X175730000Y-97760000D02*
X175730000Y-118200000D01*
%TO.C,J6*%
X124800000Y-89870000D02*
X124800000Y-88540000D01*
X126130000Y-89870000D02*
X124800000Y-89870000D01*
X124800000Y-87270000D02*
X124800000Y-84670000D01*
X127400000Y-87270000D02*
X124800000Y-87270000D01*
X127400000Y-89870000D02*
X127400000Y-87270000D01*
X124800000Y-84670000D02*
X145240000Y-84670000D01*
X127400000Y-89870000D02*
X145240000Y-89870000D01*
X145240000Y-89870000D02*
X145240000Y-84670000D01*
%TO.C,J2*%
X99610000Y-100010000D02*
X98340000Y-100010000D01*
X99610000Y-98740000D02*
X99610000Y-100010000D01*
X97297071Y-93280000D02*
X96842929Y-93280000D01*
X97297071Y-94040000D02*
X96842929Y-94040000D01*
X94757071Y-93280000D02*
X94360000Y-93280000D01*
X94757071Y-94040000D02*
X94360000Y-94040000D01*
X85700000Y-93280000D02*
X91700000Y-93280000D01*
X85700000Y-94040000D02*
X85700000Y-93280000D01*
X91700000Y-94040000D02*
X85700000Y-94040000D01*
X94360000Y-94930000D02*
X91700000Y-94930000D01*
X97297071Y-95820000D02*
X96842929Y-95820000D01*
X97297071Y-96580000D02*
X96842929Y-96580000D01*
X94757071Y-95820000D02*
X94360000Y-95820000D01*
X94757071Y-96580000D02*
X94360000Y-96580000D01*
X85700000Y-95820000D02*
X91700000Y-95820000D01*
X85700000Y-96580000D02*
X85700000Y-95820000D01*
X91700000Y-96580000D02*
X85700000Y-96580000D01*
X94360000Y-97470000D02*
X91700000Y-97470000D01*
X97230000Y-98360000D02*
X96842929Y-98360000D01*
X97230000Y-99120000D02*
X96842929Y-99120000D01*
X94757071Y-98360000D02*
X94360000Y-98360000D01*
X94757071Y-99120000D02*
X94360000Y-99120000D01*
X91700000Y-98460000D02*
X85700000Y-98460000D01*
X91700000Y-98580000D02*
X85700000Y-98580000D01*
X91700000Y-98700000D02*
X85700000Y-98700000D01*
X91700000Y-98820000D02*
X85700000Y-98820000D01*
X91700000Y-98940000D02*
X85700000Y-98940000D01*
X91700000Y-99060000D02*
X85700000Y-99060000D01*
X85700000Y-98360000D02*
X91700000Y-98360000D01*
X85700000Y-99120000D02*
X85700000Y-98360000D01*
X91700000Y-99120000D02*
X85700000Y-99120000D01*
X91700000Y-100070000D02*
X94360000Y-100070000D01*
X91700000Y-92330000D02*
X91700000Y-100070000D01*
X94360000Y-92330000D02*
X91700000Y-92330000D01*
X94360000Y-100070000D02*
X94360000Y-92330000D01*
%TO.C,D1*%
X135500000Y-113000000D02*
X135500000Y-116900000D01*
X133500000Y-113000000D02*
X133500000Y-116900000D01*
X135500000Y-113000000D02*
X133500000Y-113000000D01*
%TO.C,D2*%
X137900000Y-113000000D02*
X137900000Y-116900000D01*
X135900000Y-113000000D02*
X135900000Y-116900000D01*
X137900000Y-113000000D02*
X135900000Y-113000000D01*
%TO.C,C21*%
X136510000Y-109558578D02*
X136510000Y-109041422D01*
X135090000Y-109558578D02*
X135090000Y-109041422D01*
%TO.C,C18*%
X157737221Y-107410000D02*
X158062779Y-107410000D01*
X157737221Y-106390000D02*
X158062779Y-106390000D01*
%TO.C,C16*%
X154395000Y-96057221D02*
X154395000Y-96382779D01*
X155415000Y-96057221D02*
X155415000Y-96382779D01*
%TO.C,C14*%
X154440000Y-110837221D02*
X154440000Y-111162779D01*
X155460000Y-110837221D02*
X155460000Y-111162779D01*
%TO.C,C12*%
X154610000Y-115512779D02*
X154610000Y-115187221D01*
X153590000Y-115512779D02*
X153590000Y-115187221D01*
%TO.C,C11*%
X152840000Y-110837221D02*
X152840000Y-111162779D01*
X153860000Y-110837221D02*
X153860000Y-111162779D01*
%TO.C,C10*%
X141290000Y-116387221D02*
X141290000Y-116712779D01*
X142310000Y-116387221D02*
X142310000Y-116712779D01*
%TO.C,C9*%
X138890000Y-116387221D02*
X138890000Y-116712779D01*
X139910000Y-116387221D02*
X139910000Y-116712779D01*
%TO.C,C8*%
X148262779Y-116840000D02*
X147937221Y-116840000D01*
X148262779Y-117860000D02*
X147937221Y-117860000D01*
%TO.C,C7*%
X144537221Y-117860000D02*
X144862779Y-117860000D01*
X144537221Y-116840000D02*
X144862779Y-116840000D01*
%TO.C,C4*%
X111090000Y-93537221D02*
X111090000Y-93862779D01*
X112110000Y-93537221D02*
X112110000Y-93862779D01*
%TO.C,C3*%
X111090000Y-98637221D02*
X111090000Y-98962779D01*
X112110000Y-98637221D02*
X112110000Y-98962779D01*
%TO.C,C2*%
X105190000Y-93537221D02*
X105190000Y-93862779D01*
X106210000Y-93537221D02*
X106210000Y-93862779D01*
%TO.C,C1*%
X105190000Y-98737221D02*
X105190000Y-99062779D01*
X106210000Y-98737221D02*
X106210000Y-99062779D01*
%TO.C,BT1*%
X94900000Y-120500000D02*
X92900000Y-122200000D01*
X94900000Y-116500000D02*
X92900000Y-114800000D01*
X94900000Y-120500000D02*
X94900000Y-116500000D01*
X86900000Y-114800000D02*
X92900000Y-114800000D01*
X86900000Y-122200000D02*
X92900000Y-122200000D01*
X86904585Y-116108617D02*
G75*
G02*
X86900000Y-120900000I-4504585J-2391383D01*
G01*
X86906028Y-116107373D02*
G75*
G02*
X86900000Y-114796277I393972J657373D01*
G01*
X86909327Y-122205648D02*
G75*
G02*
X86900000Y-120900000I390673J655648D01*
G01*
%TO.C,R7*%
X103610000Y-108562779D02*
X103610000Y-108237221D01*
X102590000Y-108562779D02*
X102590000Y-108237221D01*
%TO.C,JP1*%
X102100000Y-105700000D02*
X102100000Y-104300000D01*
X102800000Y-103600000D02*
X103400000Y-103600000D01*
X104100000Y-104300000D02*
X104100000Y-105700000D01*
X103400000Y-106400000D02*
X102800000Y-106400000D01*
X102800000Y-106400000D02*
G75*
G02*
X102100000Y-105700000I0J700000D01*
G01*
X104100000Y-105700000D02*
G75*
G02*
X103400000Y-106400000I-700000J0D01*
G01*
X103400000Y-103600000D02*
G75*
G02*
X104100000Y-104300000I0J-700000D01*
G01*
X102100000Y-104300000D02*
G75*
G02*
X102800000Y-103600000I700000J0D01*
G01*
%TO.C,U5*%
X115260000Y-106470000D02*
X116910000Y-106470000D01*
X115260000Y-101270000D02*
X115260000Y-106470000D01*
X120560000Y-101270000D02*
X115260000Y-101270000D01*
X120560000Y-106470000D02*
X120560000Y-101270000D01*
X118910000Y-106470000D02*
X120560000Y-106470000D01*
X116910000Y-106470000D02*
G75*
G02*
X118910000Y-106470000I1000000J0D01*
G01*
%TO.C,U4*%
X120560000Y-107130000D02*
X118910000Y-107130000D01*
X120560000Y-112330000D02*
X120560000Y-107130000D01*
X115260000Y-112330000D02*
X120560000Y-112330000D01*
X115260000Y-107130000D02*
X115260000Y-112330000D01*
X116910000Y-107130000D02*
X115260000Y-107130000D01*
X118910000Y-107130000D02*
G75*
G02*
X116910000Y-107130000I-1000000J0D01*
G01*
%TO.C,U3*%
X108700000Y-109360000D02*
X112150000Y-109360000D01*
X108700000Y-109360000D02*
X106750000Y-109360000D01*
X108700000Y-104240000D02*
X110650000Y-104240000D01*
X108700000Y-104240000D02*
X106750000Y-104240000D01*
%TO.C,R11*%
X124210000Y-103962779D02*
X124210000Y-103637221D01*
X123190000Y-103962779D02*
X123190000Y-103637221D01*
%TO.C,R10*%
X124210000Y-109962779D02*
X124210000Y-109637221D01*
X123190000Y-109962779D02*
X123190000Y-109637221D01*
%TO.C,R9*%
X109210000Y-111362779D02*
X109210000Y-111037221D01*
X108190000Y-111362779D02*
X108190000Y-111037221D01*
%TO.C,R8*%
X111010000Y-111362779D02*
X111010000Y-111037221D01*
X109990000Y-111362779D02*
X109990000Y-111037221D01*
%TO.C,C5*%
X106590000Y-111037221D02*
X106590000Y-111362779D01*
X107610000Y-111037221D02*
X107610000Y-111362779D01*
%TD*%
M02*
