M48
; DRILL file {KiCad (5.1.6)-1} date 11/10/20 11:45:47
; FORMAT={-:-/ absolute / inch / decimal}
; #@! TF.CreationDate,2020-11-10T11:45:47+01:00
; #@! TF.GenerationSoftware,Kicad,Pcbnew,(5.1.6)-1
; #@! TF.FileFunction,Plated,1,2,PTH
FMAT,2
INCH
T1C0.0118
T2C0.0157
T3C0.0315
T4C0.0394
%
G90
G05
T1
X3.6811Y-4.6161
X3.6811Y-4.6654
X3.6811Y-4.7146
X4.0827Y-3.5039
X4.1161Y-4.7362
X4.1339Y-3.5197
X4.2776Y-4.7382
X4.2795Y-3.5039
X4.439Y-4.7382
X4.5807Y-4.7756
X4.8524Y-5.1063
X4.9016Y-4.6496
X4.9252Y-4.502
X4.9409Y-4.7717
X5.2323Y-4.0709
X5.3406Y-3.9114
X5.3661Y-3.7598
X5.3661Y-3.8071
X5.372Y-3.9075
X5.3898Y-3.7835
X5.4173Y-4.1161
X5.4547Y-4.2146
X5.4764Y-3.9646
X5.4843Y-3.9961
X5.5098Y-4.1417
X5.5354Y-3.8268
X5.5354Y-4.6201
X5.5394Y-3.7598
X5.6693Y-3.7913
X5.7697Y-5.1063
X5.7717Y-4.3524
X5.7756Y-4.3839
X5.7992Y-4.4055
X5.7992Y-4.6811
X5.8307Y-4.4055
X5.8484Y-4.7343
X5.8622Y-4.7028
X5.8799Y-4.3976
X5.8858Y-4.6811
X5.9094Y-4.7028
X5.9331Y-4.3504
X5.9449Y-4.6614
X5.9744Y-3.8091
X6.0079Y-4.6614
X6.0374Y-4.2854
X6.0531Y-4.1083
X6.0709Y-4.6614
X6.1004Y-4.2854
X6.1102Y-3.8957
X6.1614Y-4.4193
X6.1713Y-3.9272
X6.2352Y-4.126
T2
X4.0492Y-3.7874
X4.1614Y-3.6122
X4.1614Y-3.9902
X4.5354Y-3.7461
X4.5354Y-3.7854
X4.9488Y-4.8504
X5.1673Y-4.8504
T3
X4.4921Y-4.2701
X4.4921Y-4.3701
X4.7921Y-4.2701
X4.7921Y-4.3701
X4.4921Y-4.0394
X4.4921Y-4.1394
X4.7921Y-4.0394
X4.7921Y-4.1394
T4
X6.7618Y-3.9012
X6.7618Y-4.0012
X6.7618Y-4.1012
X6.7618Y-4.2012
X6.7618Y-4.3012
X6.7618Y-4.4012
X6.7618Y-4.5012
X6.7618Y-4.6012
X6.8618Y-3.9012
X6.8618Y-4.0012
X6.8618Y-4.1012
X6.8618Y-4.2012
X6.8618Y-4.3012
X6.8618Y-4.4012
X6.8618Y-4.5012
X6.8618Y-4.6012
X4.9657Y-3.3858
X4.9657Y-3.4858
X5.0657Y-3.3858
X5.0657Y-3.4858
X5.1657Y-3.3858
X5.1657Y-3.4858
X5.2657Y-3.3858
X5.2657Y-3.4858
X5.3657Y-3.3858
X5.3657Y-3.4858
X5.4657Y-3.3858
X5.4657Y-3.4858
X5.5657Y-3.3858
X5.5657Y-3.4858
X5.6657Y-3.3858
X5.6657Y-3.4858
X4.4638Y-3.3858
X4.4638Y-3.4858
X4.5638Y-3.3858
X4.5638Y-3.4858
X4.6638Y-3.3858
X4.6638Y-3.4858
X4.7638Y-3.3858
X4.7638Y-3.4858
X6.6142Y-3.9012
X6.6142Y-4.0012
X6.6142Y-4.1012
X6.6142Y-4.2012
X6.6142Y-4.3012
X6.6142Y-4.4012
X6.6142Y-4.5012
X6.6142Y-4.6012
X3.7717Y-4.0551
X3.7717Y-4.1551
X3.7717Y-4.2551
X3.7717Y-4.3551
X5.8661Y-3.3858
X5.8661Y-3.4858
X5.9661Y-3.3858
X5.9661Y-3.4858
X6.0661Y-3.3858
X6.0661Y-3.4858
X6.1661Y-3.3858
X6.1661Y-3.4858
X6.2661Y-3.3858
X6.2661Y-3.4858
X6.3661Y-3.3858
X6.3661Y-3.4858
X6.4661Y-3.3858
X6.4661Y-3.4858
X6.5661Y-3.3858
X6.5661Y-3.4858
X3.7717Y-3.6874
X3.7717Y-3.7874
X3.7717Y-3.8874
X3.8717Y-3.6874
X3.8717Y-3.7874
X3.8717Y-3.8874
T0
M30
