%TF.GenerationSoftware,KiCad,Pcbnew,(5.1.6)-1*%
%TF.CreationDate,2020-11-10T11:45:45+01:00*%
%TF.ProjectId,stm32f373rct6_evaluation_board,73746d33-3266-4333-9733-726374365f65,rev?*%
%TF.SameCoordinates,Original*%
%TF.FileFunction,Soldermask,Top*%
%TF.FilePolarity,Negative*%
%FSLAX46Y46*%
G04 Gerber Fmt 4.6, Leading zero omitted, Abs format (unit mm)*
G04 Created by KiCad (PCBNEW (5.1.6)-1) date 2020-11-10 11:45:45*
%MOMM*%
%LPD*%
G01*
G04 APERTURE LIST*
%ADD10O,1.800000X1.800000*%
%ADD11R,1.800000X1.800000*%
%ADD12C,0.100000*%
%ADD13R,1.800000X1.000000*%
%ADD14R,0.550000X0.700000*%
%ADD15R,1.100000X1.900000*%
%ADD16R,2.100000X2.500000*%
%ADD17R,1.160000X0.750000*%
%ADD18R,1.100000X1.600000*%
%ADD19C,3.300000*%
%ADD20R,1.300000X1.000000*%
%ADD21R,4.060000X4.060000*%
%ADD22R,5.180000X1.880000*%
%ADD23O,1.700000X1.700000*%
%ADD24R,1.700000X1.700000*%
G04 APERTURE END LIST*
D10*
%TO.C,J7*%
X121000000Y-86000000D03*
X121000000Y-88540000D03*
X118460000Y-86000000D03*
X118460000Y-88540000D03*
X115920000Y-86000000D03*
X115920000Y-88540000D03*
X113380000Y-86000000D03*
D11*
X113380000Y-88540000D03*
%TD*%
D10*
%TO.C,J5*%
X166780000Y-86000000D03*
X166780000Y-88540000D03*
X164240000Y-86000000D03*
X164240000Y-88540000D03*
X161700000Y-86000000D03*
X161700000Y-88540000D03*
X159160000Y-86000000D03*
X159160000Y-88540000D03*
X156620000Y-86000000D03*
X156620000Y-88540000D03*
X154080000Y-86000000D03*
X154080000Y-88540000D03*
X151540000Y-86000000D03*
X151540000Y-88540000D03*
X149000000Y-86000000D03*
D11*
X149000000Y-88540000D03*
%TD*%
%TO.C,R18*%
G36*
G01*
X104802500Y-88140000D02*
X105197500Y-88140000D01*
G75*
G02*
X105370000Y-88312500I0J-172500D01*
G01*
X105370000Y-88657500D01*
G75*
G02*
X105197500Y-88830000I-172500J0D01*
G01*
X104802500Y-88830000D01*
G75*
G02*
X104630000Y-88657500I0J172500D01*
G01*
X104630000Y-88312500D01*
G75*
G02*
X104802500Y-88140000I172500J0D01*
G01*
G37*
G36*
G01*
X104802500Y-87170000D02*
X105197500Y-87170000D01*
G75*
G02*
X105370000Y-87342500I0J-172500D01*
G01*
X105370000Y-87687500D01*
G75*
G02*
X105197500Y-87860000I-172500J0D01*
G01*
X104802500Y-87860000D01*
G75*
G02*
X104630000Y-87687500I0J172500D01*
G01*
X104630000Y-87342500D01*
G75*
G02*
X104802500Y-87170000I172500J0D01*
G01*
G37*
%TD*%
%TO.C,R17*%
G36*
G01*
X109802500Y-88140000D02*
X110197500Y-88140000D01*
G75*
G02*
X110370000Y-88312500I0J-172500D01*
G01*
X110370000Y-88657500D01*
G75*
G02*
X110197500Y-88830000I-172500J0D01*
G01*
X109802500Y-88830000D01*
G75*
G02*
X109630000Y-88657500I0J172500D01*
G01*
X109630000Y-88312500D01*
G75*
G02*
X109802500Y-88140000I172500J0D01*
G01*
G37*
G36*
G01*
X109802500Y-87170000D02*
X110197500Y-87170000D01*
G75*
G02*
X110370000Y-87342500I0J-172500D01*
G01*
X110370000Y-87687500D01*
G75*
G02*
X110197500Y-87860000I-172500J0D01*
G01*
X109802500Y-87860000D01*
G75*
G02*
X109630000Y-87687500I0J172500D01*
G01*
X109630000Y-87342500D01*
G75*
G02*
X109802500Y-87170000I172500J0D01*
G01*
G37*
%TD*%
%TO.C,D8*%
G36*
G01*
X102981250Y-87600000D02*
X102018750Y-87600000D01*
G75*
G02*
X101750000Y-87331250I0J268750D01*
G01*
X101750000Y-86793750D01*
G75*
G02*
X102018750Y-86525000I268750J0D01*
G01*
X102981250Y-86525000D01*
G75*
G02*
X103250000Y-86793750I0J-268750D01*
G01*
X103250000Y-87331250D01*
G75*
G02*
X102981250Y-87600000I-268750J0D01*
G01*
G37*
G36*
G01*
X102981250Y-89475000D02*
X102018750Y-89475000D01*
G75*
G02*
X101750000Y-89206250I0J268750D01*
G01*
X101750000Y-88668750D01*
G75*
G02*
X102018750Y-88400000I268750J0D01*
G01*
X102981250Y-88400000D01*
G75*
G02*
X103250000Y-88668750I0J-268750D01*
G01*
X103250000Y-89206250D01*
G75*
G02*
X102981250Y-89475000I-268750J0D01*
G01*
G37*
%TD*%
%TO.C,D7*%
G36*
G01*
X107981250Y-87600000D02*
X107018750Y-87600000D01*
G75*
G02*
X106750000Y-87331250I0J268750D01*
G01*
X106750000Y-86793750D01*
G75*
G02*
X107018750Y-86525000I268750J0D01*
G01*
X107981250Y-86525000D01*
G75*
G02*
X108250000Y-86793750I0J-268750D01*
G01*
X108250000Y-87331250D01*
G75*
G02*
X107981250Y-87600000I-268750J0D01*
G01*
G37*
G36*
G01*
X107981250Y-89475000D02*
X107018750Y-89475000D01*
G75*
G02*
X106750000Y-89206250I0J268750D01*
G01*
X106750000Y-88668750D01*
G75*
G02*
X107018750Y-88400000I268750J0D01*
G01*
X107981250Y-88400000D01*
G75*
G02*
X108250000Y-88668750I0J-268750D01*
G01*
X108250000Y-89206250D01*
G75*
G02*
X107981250Y-89475000I-268750J0D01*
G01*
G37*
%TD*%
D12*
%TO.C,JP4*%
G36*
X156205602Y-95563889D02*
G01*
X156205602Y-95545466D01*
X156205843Y-95540565D01*
X156210653Y-95491734D01*
X156211373Y-95486881D01*
X156220945Y-95438756D01*
X156222137Y-95433995D01*
X156236381Y-95387040D01*
X156238034Y-95382421D01*
X156256811Y-95337088D01*
X156258909Y-95332651D01*
X156282040Y-95289378D01*
X156284562Y-95285171D01*
X156311822Y-95244372D01*
X156314746Y-95240430D01*
X156345874Y-95202501D01*
X156349169Y-95198866D01*
X156383866Y-95164169D01*
X156387501Y-95160874D01*
X156425430Y-95129746D01*
X156429372Y-95126822D01*
X156470171Y-95099562D01*
X156474378Y-95097040D01*
X156517651Y-95073909D01*
X156522088Y-95071811D01*
X156567421Y-95053034D01*
X156572040Y-95051381D01*
X156618995Y-95037137D01*
X156623756Y-95035945D01*
X156671881Y-95026373D01*
X156676734Y-95025653D01*
X156725565Y-95020843D01*
X156730466Y-95020602D01*
X156748889Y-95020602D01*
X156755000Y-95020000D01*
X157255000Y-95020000D01*
X157261111Y-95020602D01*
X157279534Y-95020602D01*
X157284435Y-95020843D01*
X157333266Y-95025653D01*
X157338119Y-95026373D01*
X157386244Y-95035945D01*
X157391005Y-95037137D01*
X157437960Y-95051381D01*
X157442579Y-95053034D01*
X157487912Y-95071811D01*
X157492349Y-95073909D01*
X157535622Y-95097040D01*
X157539829Y-95099562D01*
X157580628Y-95126822D01*
X157584570Y-95129746D01*
X157622499Y-95160874D01*
X157626134Y-95164169D01*
X157660831Y-95198866D01*
X157664126Y-95202501D01*
X157695254Y-95240430D01*
X157698178Y-95244372D01*
X157725438Y-95285171D01*
X157727960Y-95289378D01*
X157751091Y-95332651D01*
X157753189Y-95337088D01*
X157771966Y-95382421D01*
X157773619Y-95387040D01*
X157787863Y-95433995D01*
X157789055Y-95438756D01*
X157798627Y-95486881D01*
X157799347Y-95491734D01*
X157804157Y-95540565D01*
X157804398Y-95545466D01*
X157804398Y-95563889D01*
X157805000Y-95570000D01*
X157805000Y-96070000D01*
X157804039Y-96079755D01*
X157801194Y-96089134D01*
X157796573Y-96097779D01*
X157790355Y-96105355D01*
X157782779Y-96111573D01*
X157774134Y-96116194D01*
X157764755Y-96119039D01*
X157755000Y-96120000D01*
X156255000Y-96120000D01*
X156245245Y-96119039D01*
X156235866Y-96116194D01*
X156227221Y-96111573D01*
X156219645Y-96105355D01*
X156213427Y-96097779D01*
X156208806Y-96089134D01*
X156205961Y-96079755D01*
X156205000Y-96070000D01*
X156205000Y-95570000D01*
X156205602Y-95563889D01*
G37*
G36*
X156205961Y-96360245D02*
G01*
X156208806Y-96350866D01*
X156213427Y-96342221D01*
X156219645Y-96334645D01*
X156227221Y-96328427D01*
X156235866Y-96323806D01*
X156245245Y-96320961D01*
X156255000Y-96320000D01*
X157755000Y-96320000D01*
X157764755Y-96320961D01*
X157774134Y-96323806D01*
X157782779Y-96328427D01*
X157790355Y-96334645D01*
X157796573Y-96342221D01*
X157801194Y-96350866D01*
X157804039Y-96360245D01*
X157805000Y-96370000D01*
X157805000Y-96870000D01*
X157804398Y-96876111D01*
X157804398Y-96894534D01*
X157804157Y-96899435D01*
X157799347Y-96948266D01*
X157798627Y-96953119D01*
X157789055Y-97001244D01*
X157787863Y-97006005D01*
X157773619Y-97052960D01*
X157771966Y-97057579D01*
X157753189Y-97102912D01*
X157751091Y-97107349D01*
X157727960Y-97150622D01*
X157725438Y-97154829D01*
X157698178Y-97195628D01*
X157695254Y-97199570D01*
X157664126Y-97237499D01*
X157660831Y-97241134D01*
X157626134Y-97275831D01*
X157622499Y-97279126D01*
X157584570Y-97310254D01*
X157580628Y-97313178D01*
X157539829Y-97340438D01*
X157535622Y-97342960D01*
X157492349Y-97366091D01*
X157487912Y-97368189D01*
X157442579Y-97386966D01*
X157437960Y-97388619D01*
X157391005Y-97402863D01*
X157386244Y-97404055D01*
X157338119Y-97413627D01*
X157333266Y-97414347D01*
X157284435Y-97419157D01*
X157279534Y-97419398D01*
X157261111Y-97419398D01*
X157255000Y-97420000D01*
X156755000Y-97420000D01*
X156748889Y-97419398D01*
X156730466Y-97419398D01*
X156725565Y-97419157D01*
X156676734Y-97414347D01*
X156671881Y-97413627D01*
X156623756Y-97404055D01*
X156618995Y-97402863D01*
X156572040Y-97388619D01*
X156567421Y-97386966D01*
X156522088Y-97368189D01*
X156517651Y-97366091D01*
X156474378Y-97342960D01*
X156470171Y-97340438D01*
X156429372Y-97313178D01*
X156425430Y-97310254D01*
X156387501Y-97279126D01*
X156383866Y-97275831D01*
X156349169Y-97241134D01*
X156345874Y-97237499D01*
X156314746Y-97199570D01*
X156311822Y-97195628D01*
X156284562Y-97154829D01*
X156282040Y-97150622D01*
X156258909Y-97107349D01*
X156256811Y-97102912D01*
X156238034Y-97057579D01*
X156236381Y-97052960D01*
X156222137Y-97006005D01*
X156220945Y-97001244D01*
X156211373Y-96953119D01*
X156210653Y-96948266D01*
X156205843Y-96899435D01*
X156205602Y-96894534D01*
X156205602Y-96876111D01*
X156205000Y-96870000D01*
X156205000Y-96370000D01*
X156205961Y-96360245D01*
G37*
%TD*%
%TO.C,JP3*%
G36*
X156300602Y-108693889D02*
G01*
X156300602Y-108675466D01*
X156300843Y-108670565D01*
X156305653Y-108621734D01*
X156306373Y-108616881D01*
X156315945Y-108568756D01*
X156317137Y-108563995D01*
X156331381Y-108517040D01*
X156333034Y-108512421D01*
X156351811Y-108467088D01*
X156353909Y-108462651D01*
X156377040Y-108419378D01*
X156379562Y-108415171D01*
X156406822Y-108374372D01*
X156409746Y-108370430D01*
X156440874Y-108332501D01*
X156444169Y-108328866D01*
X156478866Y-108294169D01*
X156482501Y-108290874D01*
X156520430Y-108259746D01*
X156524372Y-108256822D01*
X156565171Y-108229562D01*
X156569378Y-108227040D01*
X156612651Y-108203909D01*
X156617088Y-108201811D01*
X156662421Y-108183034D01*
X156667040Y-108181381D01*
X156713995Y-108167137D01*
X156718756Y-108165945D01*
X156766881Y-108156373D01*
X156771734Y-108155653D01*
X156820565Y-108150843D01*
X156825466Y-108150602D01*
X156843889Y-108150602D01*
X156850000Y-108150000D01*
X157350000Y-108150000D01*
X157356111Y-108150602D01*
X157374534Y-108150602D01*
X157379435Y-108150843D01*
X157428266Y-108155653D01*
X157433119Y-108156373D01*
X157481244Y-108165945D01*
X157486005Y-108167137D01*
X157532960Y-108181381D01*
X157537579Y-108183034D01*
X157582912Y-108201811D01*
X157587349Y-108203909D01*
X157630622Y-108227040D01*
X157634829Y-108229562D01*
X157675628Y-108256822D01*
X157679570Y-108259746D01*
X157717499Y-108290874D01*
X157721134Y-108294169D01*
X157755831Y-108328866D01*
X157759126Y-108332501D01*
X157790254Y-108370430D01*
X157793178Y-108374372D01*
X157820438Y-108415171D01*
X157822960Y-108419378D01*
X157846091Y-108462651D01*
X157848189Y-108467088D01*
X157866966Y-108512421D01*
X157868619Y-108517040D01*
X157882863Y-108563995D01*
X157884055Y-108568756D01*
X157893627Y-108616881D01*
X157894347Y-108621734D01*
X157899157Y-108670565D01*
X157899398Y-108675466D01*
X157899398Y-108693889D01*
X157900000Y-108700000D01*
X157900000Y-109200000D01*
X157899039Y-109209755D01*
X157896194Y-109219134D01*
X157891573Y-109227779D01*
X157885355Y-109235355D01*
X157877779Y-109241573D01*
X157869134Y-109246194D01*
X157859755Y-109249039D01*
X157850000Y-109250000D01*
X156350000Y-109250000D01*
X156340245Y-109249039D01*
X156330866Y-109246194D01*
X156322221Y-109241573D01*
X156314645Y-109235355D01*
X156308427Y-109227779D01*
X156303806Y-109219134D01*
X156300961Y-109209755D01*
X156300000Y-109200000D01*
X156300000Y-108700000D01*
X156300602Y-108693889D01*
G37*
G36*
X156300961Y-109490245D02*
G01*
X156303806Y-109480866D01*
X156308427Y-109472221D01*
X156314645Y-109464645D01*
X156322221Y-109458427D01*
X156330866Y-109453806D01*
X156340245Y-109450961D01*
X156350000Y-109450000D01*
X157850000Y-109450000D01*
X157859755Y-109450961D01*
X157869134Y-109453806D01*
X157877779Y-109458427D01*
X157885355Y-109464645D01*
X157891573Y-109472221D01*
X157896194Y-109480866D01*
X157899039Y-109490245D01*
X157900000Y-109500000D01*
X157900000Y-110000000D01*
X157899398Y-110006111D01*
X157899398Y-110024534D01*
X157899157Y-110029435D01*
X157894347Y-110078266D01*
X157893627Y-110083119D01*
X157884055Y-110131244D01*
X157882863Y-110136005D01*
X157868619Y-110182960D01*
X157866966Y-110187579D01*
X157848189Y-110232912D01*
X157846091Y-110237349D01*
X157822960Y-110280622D01*
X157820438Y-110284829D01*
X157793178Y-110325628D01*
X157790254Y-110329570D01*
X157759126Y-110367499D01*
X157755831Y-110371134D01*
X157721134Y-110405831D01*
X157717499Y-110409126D01*
X157679570Y-110440254D01*
X157675628Y-110443178D01*
X157634829Y-110470438D01*
X157630622Y-110472960D01*
X157587349Y-110496091D01*
X157582912Y-110498189D01*
X157537579Y-110516966D01*
X157532960Y-110518619D01*
X157486005Y-110532863D01*
X157481244Y-110534055D01*
X157433119Y-110543627D01*
X157428266Y-110544347D01*
X157379435Y-110549157D01*
X157374534Y-110549398D01*
X157356111Y-110549398D01*
X157350000Y-110550000D01*
X156850000Y-110550000D01*
X156843889Y-110549398D01*
X156825466Y-110549398D01*
X156820565Y-110549157D01*
X156771734Y-110544347D01*
X156766881Y-110543627D01*
X156718756Y-110534055D01*
X156713995Y-110532863D01*
X156667040Y-110518619D01*
X156662421Y-110516966D01*
X156617088Y-110498189D01*
X156612651Y-110496091D01*
X156569378Y-110472960D01*
X156565171Y-110470438D01*
X156524372Y-110443178D01*
X156520430Y-110440254D01*
X156482501Y-110409126D01*
X156478866Y-110405831D01*
X156444169Y-110371134D01*
X156440874Y-110367499D01*
X156409746Y-110329570D01*
X156406822Y-110325628D01*
X156379562Y-110284829D01*
X156377040Y-110280622D01*
X156353909Y-110237349D01*
X156351811Y-110232912D01*
X156333034Y-110187579D01*
X156331381Y-110182960D01*
X156317137Y-110136005D01*
X156315945Y-110131244D01*
X156306373Y-110083119D01*
X156305653Y-110078266D01*
X156300843Y-110029435D01*
X156300602Y-110024534D01*
X156300602Y-110006111D01*
X156300000Y-110000000D01*
X156300000Y-109500000D01*
X156300961Y-109490245D01*
G37*
%TD*%
%TO.C,C15*%
G36*
G01*
X151452500Y-95090000D02*
X151847500Y-95090000D01*
G75*
G02*
X152020000Y-95262500I0J-172500D01*
G01*
X152020000Y-95607500D01*
G75*
G02*
X151847500Y-95780000I-172500J0D01*
G01*
X151452500Y-95780000D01*
G75*
G02*
X151280000Y-95607500I0J172500D01*
G01*
X151280000Y-95262500D01*
G75*
G02*
X151452500Y-95090000I172500J0D01*
G01*
G37*
G36*
G01*
X151452500Y-94120000D02*
X151847500Y-94120000D01*
G75*
G02*
X152020000Y-94292500I0J-172500D01*
G01*
X152020000Y-94637500D01*
G75*
G02*
X151847500Y-94810000I-172500J0D01*
G01*
X151452500Y-94810000D01*
G75*
G02*
X151280000Y-94637500I0J172500D01*
G01*
X151280000Y-94292500D01*
G75*
G02*
X151452500Y-94120000I172500J0D01*
G01*
G37*
%TD*%
D10*
%TO.C,J1*%
X95800000Y-103000000D03*
X95800000Y-105540000D03*
X95800000Y-108080000D03*
D11*
X95800000Y-110620000D03*
%TD*%
D13*
%TO.C,SW2*%
X145000000Y-126300000D03*
X145000000Y-129700000D03*
%TD*%
%TO.C,SW1*%
X125000000Y-126300000D03*
X125000000Y-129700000D03*
%TD*%
%TO.C,R6*%
G36*
G01*
X123360000Y-114102500D02*
X123360000Y-114497500D01*
G75*
G02*
X123187500Y-114670000I-172500J0D01*
G01*
X122842500Y-114670000D01*
G75*
G02*
X122670000Y-114497500I0J172500D01*
G01*
X122670000Y-114102500D01*
G75*
G02*
X122842500Y-113930000I172500J0D01*
G01*
X123187500Y-113930000D01*
G75*
G02*
X123360000Y-114102500I0J-172500D01*
G01*
G37*
G36*
G01*
X124330000Y-114102500D02*
X124330000Y-114497500D01*
G75*
G02*
X124157500Y-114670000I-172500J0D01*
G01*
X123812500Y-114670000D01*
G75*
G02*
X123640000Y-114497500I0J172500D01*
G01*
X123640000Y-114102500D01*
G75*
G02*
X123812500Y-113930000I172500J0D01*
G01*
X124157500Y-113930000D01*
G75*
G02*
X124330000Y-114102500I0J-172500D01*
G01*
G37*
%TD*%
%TO.C,R5*%
G36*
G01*
X123360000Y-115902500D02*
X123360000Y-116297500D01*
G75*
G02*
X123187500Y-116470000I-172500J0D01*
G01*
X122842500Y-116470000D01*
G75*
G02*
X122670000Y-116297500I0J172500D01*
G01*
X122670000Y-115902500D01*
G75*
G02*
X122842500Y-115730000I172500J0D01*
G01*
X123187500Y-115730000D01*
G75*
G02*
X123360000Y-115902500I0J-172500D01*
G01*
G37*
G36*
G01*
X124330000Y-115902500D02*
X124330000Y-116297500D01*
G75*
G02*
X124157500Y-116470000I-172500J0D01*
G01*
X123812500Y-116470000D01*
G75*
G02*
X123640000Y-116297500I0J172500D01*
G01*
X123640000Y-115902500D01*
G75*
G02*
X123812500Y-115730000I172500J0D01*
G01*
X124157500Y-115730000D01*
G75*
G02*
X124330000Y-115902500I0J-172500D01*
G01*
G37*
%TD*%
%TO.C,R4*%
G36*
G01*
X141797500Y-127060000D02*
X141402500Y-127060000D01*
G75*
G02*
X141230000Y-126887500I0J172500D01*
G01*
X141230000Y-126542500D01*
G75*
G02*
X141402500Y-126370000I172500J0D01*
G01*
X141797500Y-126370000D01*
G75*
G02*
X141970000Y-126542500I0J-172500D01*
G01*
X141970000Y-126887500D01*
G75*
G02*
X141797500Y-127060000I-172500J0D01*
G01*
G37*
G36*
G01*
X141797500Y-128030000D02*
X141402500Y-128030000D01*
G75*
G02*
X141230000Y-127857500I0J172500D01*
G01*
X141230000Y-127512500D01*
G75*
G02*
X141402500Y-127340000I172500J0D01*
G01*
X141797500Y-127340000D01*
G75*
G02*
X141970000Y-127512500I0J-172500D01*
G01*
X141970000Y-127857500D01*
G75*
G02*
X141797500Y-128030000I-172500J0D01*
G01*
G37*
%TD*%
%TO.C,R3*%
G36*
G01*
X136797500Y-127060000D02*
X136402500Y-127060000D01*
G75*
G02*
X136230000Y-126887500I0J172500D01*
G01*
X136230000Y-126542500D01*
G75*
G02*
X136402500Y-126370000I172500J0D01*
G01*
X136797500Y-126370000D01*
G75*
G02*
X136970000Y-126542500I0J-172500D01*
G01*
X136970000Y-126887500D01*
G75*
G02*
X136797500Y-127060000I-172500J0D01*
G01*
G37*
G36*
G01*
X136797500Y-128030000D02*
X136402500Y-128030000D01*
G75*
G02*
X136230000Y-127857500I0J172500D01*
G01*
X136230000Y-127512500D01*
G75*
G02*
X136402500Y-127340000I172500J0D01*
G01*
X136797500Y-127340000D01*
G75*
G02*
X136970000Y-127512500I0J-172500D01*
G01*
X136970000Y-127857500D01*
G75*
G02*
X136797500Y-128030000I-172500J0D01*
G01*
G37*
%TD*%
%TO.C,R2*%
G36*
G01*
X131797500Y-127060000D02*
X131402500Y-127060000D01*
G75*
G02*
X131230000Y-126887500I0J172500D01*
G01*
X131230000Y-126542500D01*
G75*
G02*
X131402500Y-126370000I172500J0D01*
G01*
X131797500Y-126370000D01*
G75*
G02*
X131970000Y-126542500I0J-172500D01*
G01*
X131970000Y-126887500D01*
G75*
G02*
X131797500Y-127060000I-172500J0D01*
G01*
G37*
G36*
G01*
X131797500Y-128030000D02*
X131402500Y-128030000D01*
G75*
G02*
X131230000Y-127857500I0J172500D01*
G01*
X131230000Y-127512500D01*
G75*
G02*
X131402500Y-127340000I172500J0D01*
G01*
X131797500Y-127340000D01*
G75*
G02*
X131970000Y-127512500I0J-172500D01*
G01*
X131970000Y-127857500D01*
G75*
G02*
X131797500Y-128030000I-172500J0D01*
G01*
G37*
%TD*%
%TO.C,D5*%
G36*
G01*
X139518750Y-128400000D02*
X140481250Y-128400000D01*
G75*
G02*
X140750000Y-128668750I0J-268750D01*
G01*
X140750000Y-129206250D01*
G75*
G02*
X140481250Y-129475000I-268750J0D01*
G01*
X139518750Y-129475000D01*
G75*
G02*
X139250000Y-129206250I0J268750D01*
G01*
X139250000Y-128668750D01*
G75*
G02*
X139518750Y-128400000I268750J0D01*
G01*
G37*
G36*
G01*
X139518750Y-126525000D02*
X140481250Y-126525000D01*
G75*
G02*
X140750000Y-126793750I0J-268750D01*
G01*
X140750000Y-127331250D01*
G75*
G02*
X140481250Y-127600000I-268750J0D01*
G01*
X139518750Y-127600000D01*
G75*
G02*
X139250000Y-127331250I0J268750D01*
G01*
X139250000Y-126793750D01*
G75*
G02*
X139518750Y-126525000I268750J0D01*
G01*
G37*
%TD*%
%TO.C,D4*%
G36*
G01*
X134518750Y-128400000D02*
X135481250Y-128400000D01*
G75*
G02*
X135750000Y-128668750I0J-268750D01*
G01*
X135750000Y-129206250D01*
G75*
G02*
X135481250Y-129475000I-268750J0D01*
G01*
X134518750Y-129475000D01*
G75*
G02*
X134250000Y-129206250I0J268750D01*
G01*
X134250000Y-128668750D01*
G75*
G02*
X134518750Y-128400000I268750J0D01*
G01*
G37*
G36*
G01*
X134518750Y-126525000D02*
X135481250Y-126525000D01*
G75*
G02*
X135750000Y-126793750I0J-268750D01*
G01*
X135750000Y-127331250D01*
G75*
G02*
X135481250Y-127600000I-268750J0D01*
G01*
X134518750Y-127600000D01*
G75*
G02*
X134250000Y-127331250I0J268750D01*
G01*
X134250000Y-126793750D01*
G75*
G02*
X134518750Y-126525000I268750J0D01*
G01*
G37*
%TD*%
%TO.C,D3*%
G36*
G01*
X129518750Y-128400000D02*
X130481250Y-128400000D01*
G75*
G02*
X130750000Y-128668750I0J-268750D01*
G01*
X130750000Y-129206250D01*
G75*
G02*
X130481250Y-129475000I-268750J0D01*
G01*
X129518750Y-129475000D01*
G75*
G02*
X129250000Y-129206250I0J268750D01*
G01*
X129250000Y-128668750D01*
G75*
G02*
X129518750Y-128400000I268750J0D01*
G01*
G37*
G36*
G01*
X129518750Y-126525000D02*
X130481250Y-126525000D01*
G75*
G02*
X130750000Y-126793750I0J-268750D01*
G01*
X130750000Y-127331250D01*
G75*
G02*
X130481250Y-127600000I-268750J0D01*
G01*
X129518750Y-127600000D01*
G75*
G02*
X129250000Y-127331250I0J268750D01*
G01*
X129250000Y-126793750D01*
G75*
G02*
X129518750Y-126525000I268750J0D01*
G01*
G37*
%TD*%
%TO.C,R12*%
G36*
G01*
X135340000Y-104747500D02*
X135340000Y-104352500D01*
G75*
G02*
X135512500Y-104180000I172500J0D01*
G01*
X135857500Y-104180000D01*
G75*
G02*
X136030000Y-104352500I0J-172500D01*
G01*
X136030000Y-104747500D01*
G75*
G02*
X135857500Y-104920000I-172500J0D01*
G01*
X135512500Y-104920000D01*
G75*
G02*
X135340000Y-104747500I0J172500D01*
G01*
G37*
G36*
G01*
X134370000Y-104747500D02*
X134370000Y-104352500D01*
G75*
G02*
X134542500Y-104180000I172500J0D01*
G01*
X134887500Y-104180000D01*
G75*
G02*
X135060000Y-104352500I0J-172500D01*
G01*
X135060000Y-104747500D01*
G75*
G02*
X134887500Y-104920000I-172500J0D01*
G01*
X134542500Y-104920000D01*
G75*
G02*
X134370000Y-104747500I0J172500D01*
G01*
G37*
%TD*%
%TO.C,R13*%
G36*
G01*
X155252500Y-115490000D02*
X155647500Y-115490000D01*
G75*
G02*
X155820000Y-115662500I0J-172500D01*
G01*
X155820000Y-116007500D01*
G75*
G02*
X155647500Y-116180000I-172500J0D01*
G01*
X155252500Y-116180000D01*
G75*
G02*
X155080000Y-116007500I0J172500D01*
G01*
X155080000Y-115662500D01*
G75*
G02*
X155252500Y-115490000I172500J0D01*
G01*
G37*
G36*
G01*
X155252500Y-114520000D02*
X155647500Y-114520000D01*
G75*
G02*
X155820000Y-114692500I0J-172500D01*
G01*
X155820000Y-115037500D01*
G75*
G02*
X155647500Y-115210000I-172500J0D01*
G01*
X155252500Y-115210000D01*
G75*
G02*
X155080000Y-115037500I0J172500D01*
G01*
X155080000Y-114692500D01*
G75*
G02*
X155252500Y-114520000I172500J0D01*
G01*
G37*
%TD*%
D14*
%TO.C,D6*%
X113500000Y-97250000D03*
X113500000Y-95150000D03*
%TD*%
D13*
%TO.C,SW3*%
X151600000Y-117050000D03*
X151600000Y-113650000D03*
%TD*%
%TO.C,C20*%
G36*
G01*
X139597500Y-107010000D02*
X139202500Y-107010000D01*
G75*
G02*
X139030000Y-106837500I0J172500D01*
G01*
X139030000Y-106492500D01*
G75*
G02*
X139202500Y-106320000I172500J0D01*
G01*
X139597500Y-106320000D01*
G75*
G02*
X139770000Y-106492500I0J-172500D01*
G01*
X139770000Y-106837500D01*
G75*
G02*
X139597500Y-107010000I-172500J0D01*
G01*
G37*
G36*
G01*
X139597500Y-107980000D02*
X139202500Y-107980000D01*
G75*
G02*
X139030000Y-107807500I0J172500D01*
G01*
X139030000Y-107462500D01*
G75*
G02*
X139202500Y-107290000I172500J0D01*
G01*
X139597500Y-107290000D01*
G75*
G02*
X139770000Y-107462500I0J-172500D01*
G01*
X139770000Y-107807500D01*
G75*
G02*
X139597500Y-107980000I-172500J0D01*
G01*
G37*
%TD*%
%TO.C,C19*%
G36*
G01*
X154422500Y-105485000D02*
X154027500Y-105485000D01*
G75*
G02*
X153855000Y-105312500I0J172500D01*
G01*
X153855000Y-104967500D01*
G75*
G02*
X154027500Y-104795000I172500J0D01*
G01*
X154422500Y-104795000D01*
G75*
G02*
X154595000Y-104967500I0J-172500D01*
G01*
X154595000Y-105312500D01*
G75*
G02*
X154422500Y-105485000I-172500J0D01*
G01*
G37*
G36*
G01*
X154422500Y-106455000D02*
X154027500Y-106455000D01*
G75*
G02*
X153855000Y-106282500I0J172500D01*
G01*
X153855000Y-105937500D01*
G75*
G02*
X154027500Y-105765000I172500J0D01*
G01*
X154422500Y-105765000D01*
G75*
G02*
X154595000Y-105937500I0J-172500D01*
G01*
X154595000Y-106282500D01*
G75*
G02*
X154422500Y-106455000I-172500J0D01*
G01*
G37*
%TD*%
%TO.C,C17*%
G36*
G01*
X158040000Y-105797500D02*
X158040000Y-105402500D01*
G75*
G02*
X158212500Y-105230000I172500J0D01*
G01*
X158557500Y-105230000D01*
G75*
G02*
X158730000Y-105402500I0J-172500D01*
G01*
X158730000Y-105797500D01*
G75*
G02*
X158557500Y-105970000I-172500J0D01*
G01*
X158212500Y-105970000D01*
G75*
G02*
X158040000Y-105797500I0J172500D01*
G01*
G37*
G36*
G01*
X157070000Y-105797500D02*
X157070000Y-105402500D01*
G75*
G02*
X157242500Y-105230000I172500J0D01*
G01*
X157587500Y-105230000D01*
G75*
G02*
X157760000Y-105402500I0J-172500D01*
G01*
X157760000Y-105797500D01*
G75*
G02*
X157587500Y-105970000I-172500J0D01*
G01*
X157242500Y-105970000D01*
G75*
G02*
X157070000Y-105797500I0J172500D01*
G01*
G37*
%TD*%
%TO.C,C13*%
G36*
G01*
X153952500Y-99590000D02*
X154347500Y-99590000D01*
G75*
G02*
X154520000Y-99762500I0J-172500D01*
G01*
X154520000Y-100107500D01*
G75*
G02*
X154347500Y-100280000I-172500J0D01*
G01*
X153952500Y-100280000D01*
G75*
G02*
X153780000Y-100107500I0J172500D01*
G01*
X153780000Y-99762500D01*
G75*
G02*
X153952500Y-99590000I172500J0D01*
G01*
G37*
G36*
G01*
X153952500Y-98620000D02*
X154347500Y-98620000D01*
G75*
G02*
X154520000Y-98792500I0J-172500D01*
G01*
X154520000Y-99137500D01*
G75*
G02*
X154347500Y-99310000I-172500J0D01*
G01*
X153952500Y-99310000D01*
G75*
G02*
X153780000Y-99137500I0J172500D01*
G01*
X153780000Y-98792500D01*
G75*
G02*
X153952500Y-98620000I172500J0D01*
G01*
G37*
%TD*%
%TO.C,C6*%
G36*
G01*
X149110000Y-110452500D02*
X149110000Y-110847500D01*
G75*
G02*
X148937500Y-111020000I-172500J0D01*
G01*
X148592500Y-111020000D01*
G75*
G02*
X148420000Y-110847500I0J172500D01*
G01*
X148420000Y-110452500D01*
G75*
G02*
X148592500Y-110280000I172500J0D01*
G01*
X148937500Y-110280000D01*
G75*
G02*
X149110000Y-110452500I0J-172500D01*
G01*
G37*
G36*
G01*
X150080000Y-110452500D02*
X150080000Y-110847500D01*
G75*
G02*
X149907500Y-111020000I-172500J0D01*
G01*
X149562500Y-111020000D01*
G75*
G02*
X149390000Y-110847500I0J172500D01*
G01*
X149390000Y-110452500D01*
G75*
G02*
X149562500Y-110280000I172500J0D01*
G01*
X149907500Y-110280000D01*
G75*
G02*
X150080000Y-110452500I0J-172500D01*
G01*
G37*
%TD*%
%TO.C,U7*%
G36*
G01*
X122050000Y-117620000D02*
X122050000Y-117270000D01*
G75*
G02*
X122225000Y-117095000I175000J0D01*
G01*
X123925000Y-117095000D01*
G75*
G02*
X124100000Y-117270000I0J-175000D01*
G01*
X124100000Y-117620000D01*
G75*
G02*
X123925000Y-117795000I-175000J0D01*
G01*
X122225000Y-117795000D01*
G75*
G02*
X122050000Y-117620000I0J175000D01*
G01*
G37*
G36*
G01*
X122050000Y-118890000D02*
X122050000Y-118540000D01*
G75*
G02*
X122225000Y-118365000I175000J0D01*
G01*
X123925000Y-118365000D01*
G75*
G02*
X124100000Y-118540000I0J-175000D01*
G01*
X124100000Y-118890000D01*
G75*
G02*
X123925000Y-119065000I-175000J0D01*
G01*
X122225000Y-119065000D01*
G75*
G02*
X122050000Y-118890000I0J175000D01*
G01*
G37*
G36*
G01*
X122050000Y-120160000D02*
X122050000Y-119810000D01*
G75*
G02*
X122225000Y-119635000I175000J0D01*
G01*
X123925000Y-119635000D01*
G75*
G02*
X124100000Y-119810000I0J-175000D01*
G01*
X124100000Y-120160000D01*
G75*
G02*
X123925000Y-120335000I-175000J0D01*
G01*
X122225000Y-120335000D01*
G75*
G02*
X122050000Y-120160000I0J175000D01*
G01*
G37*
G36*
G01*
X122050000Y-121430000D02*
X122050000Y-121080000D01*
G75*
G02*
X122225000Y-120905000I175000J0D01*
G01*
X123925000Y-120905000D01*
G75*
G02*
X124100000Y-121080000I0J-175000D01*
G01*
X124100000Y-121430000D01*
G75*
G02*
X123925000Y-121605000I-175000J0D01*
G01*
X122225000Y-121605000D01*
G75*
G02*
X122050000Y-121430000I0J175000D01*
G01*
G37*
G36*
G01*
X117100000Y-121430000D02*
X117100000Y-121080000D01*
G75*
G02*
X117275000Y-120905000I175000J0D01*
G01*
X118975000Y-120905000D01*
G75*
G02*
X119150000Y-121080000I0J-175000D01*
G01*
X119150000Y-121430000D01*
G75*
G02*
X118975000Y-121605000I-175000J0D01*
G01*
X117275000Y-121605000D01*
G75*
G02*
X117100000Y-121430000I0J175000D01*
G01*
G37*
G36*
G01*
X117100000Y-120160000D02*
X117100000Y-119810000D01*
G75*
G02*
X117275000Y-119635000I175000J0D01*
G01*
X118975000Y-119635000D01*
G75*
G02*
X119150000Y-119810000I0J-175000D01*
G01*
X119150000Y-120160000D01*
G75*
G02*
X118975000Y-120335000I-175000J0D01*
G01*
X117275000Y-120335000D01*
G75*
G02*
X117100000Y-120160000I0J175000D01*
G01*
G37*
G36*
G01*
X117100000Y-118890000D02*
X117100000Y-118540000D01*
G75*
G02*
X117275000Y-118365000I175000J0D01*
G01*
X118975000Y-118365000D01*
G75*
G02*
X119150000Y-118540000I0J-175000D01*
G01*
X119150000Y-118890000D01*
G75*
G02*
X118975000Y-119065000I-175000J0D01*
G01*
X117275000Y-119065000D01*
G75*
G02*
X117100000Y-118890000I0J175000D01*
G01*
G37*
G36*
G01*
X117100000Y-117620000D02*
X117100000Y-117270000D01*
G75*
G02*
X117275000Y-117095000I175000J0D01*
G01*
X118975000Y-117095000D01*
G75*
G02*
X119150000Y-117270000I0J-175000D01*
G01*
X119150000Y-117620000D01*
G75*
G02*
X118975000Y-117795000I-175000J0D01*
G01*
X117275000Y-117795000D01*
G75*
G02*
X117100000Y-117620000I0J175000D01*
G01*
G37*
%TD*%
%TO.C,R16*%
G36*
G01*
X102781250Y-118050000D02*
X102218750Y-118050000D01*
G75*
G02*
X101975000Y-117806250I0J243750D01*
G01*
X101975000Y-117318750D01*
G75*
G02*
X102218750Y-117075000I243750J0D01*
G01*
X102781250Y-117075000D01*
G75*
G02*
X103025000Y-117318750I0J-243750D01*
G01*
X103025000Y-117806250D01*
G75*
G02*
X102781250Y-118050000I-243750J0D01*
G01*
G37*
G36*
G01*
X102781250Y-119625000D02*
X102218750Y-119625000D01*
G75*
G02*
X101975000Y-119381250I0J243750D01*
G01*
X101975000Y-118893750D01*
G75*
G02*
X102218750Y-118650000I243750J0D01*
G01*
X102781250Y-118650000D01*
G75*
G02*
X103025000Y-118893750I0J-243750D01*
G01*
X103025000Y-119381250D01*
G75*
G02*
X102781250Y-119625000I-243750J0D01*
G01*
G37*
%TD*%
%TO.C,R15*%
G36*
G01*
X106881250Y-118050000D02*
X106318750Y-118050000D01*
G75*
G02*
X106075000Y-117806250I0J243750D01*
G01*
X106075000Y-117318750D01*
G75*
G02*
X106318750Y-117075000I243750J0D01*
G01*
X106881250Y-117075000D01*
G75*
G02*
X107125000Y-117318750I0J-243750D01*
G01*
X107125000Y-117806250D01*
G75*
G02*
X106881250Y-118050000I-243750J0D01*
G01*
G37*
G36*
G01*
X106881250Y-119625000D02*
X106318750Y-119625000D01*
G75*
G02*
X106075000Y-119381250I0J243750D01*
G01*
X106075000Y-118893750D01*
G75*
G02*
X106318750Y-118650000I243750J0D01*
G01*
X106881250Y-118650000D01*
G75*
G02*
X107125000Y-118893750I0J-243750D01*
G01*
X107125000Y-119381250D01*
G75*
G02*
X106881250Y-119625000I-243750J0D01*
G01*
G37*
%TD*%
%TO.C,R14*%
G36*
G01*
X110981250Y-118100000D02*
X110418750Y-118100000D01*
G75*
G02*
X110175000Y-117856250I0J243750D01*
G01*
X110175000Y-117368750D01*
G75*
G02*
X110418750Y-117125000I243750J0D01*
G01*
X110981250Y-117125000D01*
G75*
G02*
X111225000Y-117368750I0J-243750D01*
G01*
X111225000Y-117856250D01*
G75*
G02*
X110981250Y-118100000I-243750J0D01*
G01*
G37*
G36*
G01*
X110981250Y-119675000D02*
X110418750Y-119675000D01*
G75*
G02*
X110175000Y-119431250I0J243750D01*
G01*
X110175000Y-118943750D01*
G75*
G02*
X110418750Y-118700000I243750J0D01*
G01*
X110981250Y-118700000D01*
G75*
G02*
X111225000Y-118943750I0J-243750D01*
G01*
X111225000Y-119431250D01*
G75*
G02*
X110981250Y-119675000I-243750J0D01*
G01*
G37*
%TD*%
D12*
%TO.C,JP7*%
G36*
X103750602Y-117693889D02*
G01*
X103750602Y-117675466D01*
X103750843Y-117670565D01*
X103755653Y-117621734D01*
X103756373Y-117616881D01*
X103765945Y-117568756D01*
X103767137Y-117563995D01*
X103781381Y-117517040D01*
X103783034Y-117512421D01*
X103801811Y-117467088D01*
X103803909Y-117462651D01*
X103827040Y-117419378D01*
X103829562Y-117415171D01*
X103856822Y-117374372D01*
X103859746Y-117370430D01*
X103890874Y-117332501D01*
X103894169Y-117328866D01*
X103928866Y-117294169D01*
X103932501Y-117290874D01*
X103970430Y-117259746D01*
X103974372Y-117256822D01*
X104015171Y-117229562D01*
X104019378Y-117227040D01*
X104062651Y-117203909D01*
X104067088Y-117201811D01*
X104112421Y-117183034D01*
X104117040Y-117181381D01*
X104163995Y-117167137D01*
X104168756Y-117165945D01*
X104216881Y-117156373D01*
X104221734Y-117155653D01*
X104270565Y-117150843D01*
X104275466Y-117150602D01*
X104293889Y-117150602D01*
X104300000Y-117150000D01*
X104800000Y-117150000D01*
X104806111Y-117150602D01*
X104824534Y-117150602D01*
X104829435Y-117150843D01*
X104878266Y-117155653D01*
X104883119Y-117156373D01*
X104931244Y-117165945D01*
X104936005Y-117167137D01*
X104982960Y-117181381D01*
X104987579Y-117183034D01*
X105032912Y-117201811D01*
X105037349Y-117203909D01*
X105080622Y-117227040D01*
X105084829Y-117229562D01*
X105125628Y-117256822D01*
X105129570Y-117259746D01*
X105167499Y-117290874D01*
X105171134Y-117294169D01*
X105205831Y-117328866D01*
X105209126Y-117332501D01*
X105240254Y-117370430D01*
X105243178Y-117374372D01*
X105270438Y-117415171D01*
X105272960Y-117419378D01*
X105296091Y-117462651D01*
X105298189Y-117467088D01*
X105316966Y-117512421D01*
X105318619Y-117517040D01*
X105332863Y-117563995D01*
X105334055Y-117568756D01*
X105343627Y-117616881D01*
X105344347Y-117621734D01*
X105349157Y-117670565D01*
X105349398Y-117675466D01*
X105349398Y-117693889D01*
X105350000Y-117700000D01*
X105350000Y-118200000D01*
X105349039Y-118209755D01*
X105346194Y-118219134D01*
X105341573Y-118227779D01*
X105335355Y-118235355D01*
X105327779Y-118241573D01*
X105319134Y-118246194D01*
X105309755Y-118249039D01*
X105300000Y-118250000D01*
X103800000Y-118250000D01*
X103790245Y-118249039D01*
X103780866Y-118246194D01*
X103772221Y-118241573D01*
X103764645Y-118235355D01*
X103758427Y-118227779D01*
X103753806Y-118219134D01*
X103750961Y-118209755D01*
X103750000Y-118200000D01*
X103750000Y-117700000D01*
X103750602Y-117693889D01*
G37*
G36*
X103750961Y-118490245D02*
G01*
X103753806Y-118480866D01*
X103758427Y-118472221D01*
X103764645Y-118464645D01*
X103772221Y-118458427D01*
X103780866Y-118453806D01*
X103790245Y-118450961D01*
X103800000Y-118450000D01*
X105300000Y-118450000D01*
X105309755Y-118450961D01*
X105319134Y-118453806D01*
X105327779Y-118458427D01*
X105335355Y-118464645D01*
X105341573Y-118472221D01*
X105346194Y-118480866D01*
X105349039Y-118490245D01*
X105350000Y-118500000D01*
X105350000Y-119000000D01*
X105349398Y-119006111D01*
X105349398Y-119024534D01*
X105349157Y-119029435D01*
X105344347Y-119078266D01*
X105343627Y-119083119D01*
X105334055Y-119131244D01*
X105332863Y-119136005D01*
X105318619Y-119182960D01*
X105316966Y-119187579D01*
X105298189Y-119232912D01*
X105296091Y-119237349D01*
X105272960Y-119280622D01*
X105270438Y-119284829D01*
X105243178Y-119325628D01*
X105240254Y-119329570D01*
X105209126Y-119367499D01*
X105205831Y-119371134D01*
X105171134Y-119405831D01*
X105167499Y-119409126D01*
X105129570Y-119440254D01*
X105125628Y-119443178D01*
X105084829Y-119470438D01*
X105080622Y-119472960D01*
X105037349Y-119496091D01*
X105032912Y-119498189D01*
X104987579Y-119516966D01*
X104982960Y-119518619D01*
X104936005Y-119532863D01*
X104931244Y-119534055D01*
X104883119Y-119543627D01*
X104878266Y-119544347D01*
X104829435Y-119549157D01*
X104824534Y-119549398D01*
X104806111Y-119549398D01*
X104800000Y-119550000D01*
X104300000Y-119550000D01*
X104293889Y-119549398D01*
X104275466Y-119549398D01*
X104270565Y-119549157D01*
X104221734Y-119544347D01*
X104216881Y-119543627D01*
X104168756Y-119534055D01*
X104163995Y-119532863D01*
X104117040Y-119518619D01*
X104112421Y-119516966D01*
X104067088Y-119498189D01*
X104062651Y-119496091D01*
X104019378Y-119472960D01*
X104015171Y-119470438D01*
X103974372Y-119443178D01*
X103970430Y-119440254D01*
X103932501Y-119409126D01*
X103928866Y-119405831D01*
X103894169Y-119371134D01*
X103890874Y-119367499D01*
X103859746Y-119329570D01*
X103856822Y-119325628D01*
X103829562Y-119284829D01*
X103827040Y-119280622D01*
X103803909Y-119237349D01*
X103801811Y-119232912D01*
X103783034Y-119187579D01*
X103781381Y-119182960D01*
X103767137Y-119136005D01*
X103765945Y-119131244D01*
X103756373Y-119083119D01*
X103755653Y-119078266D01*
X103750843Y-119029435D01*
X103750602Y-119024534D01*
X103750602Y-119006111D01*
X103750000Y-119000000D01*
X103750000Y-118500000D01*
X103750961Y-118490245D01*
G37*
%TD*%
%TO.C,JP6*%
G36*
X107850602Y-117743889D02*
G01*
X107850602Y-117725466D01*
X107850843Y-117720565D01*
X107855653Y-117671734D01*
X107856373Y-117666881D01*
X107865945Y-117618756D01*
X107867137Y-117613995D01*
X107881381Y-117567040D01*
X107883034Y-117562421D01*
X107901811Y-117517088D01*
X107903909Y-117512651D01*
X107927040Y-117469378D01*
X107929562Y-117465171D01*
X107956822Y-117424372D01*
X107959746Y-117420430D01*
X107990874Y-117382501D01*
X107994169Y-117378866D01*
X108028866Y-117344169D01*
X108032501Y-117340874D01*
X108070430Y-117309746D01*
X108074372Y-117306822D01*
X108115171Y-117279562D01*
X108119378Y-117277040D01*
X108162651Y-117253909D01*
X108167088Y-117251811D01*
X108212421Y-117233034D01*
X108217040Y-117231381D01*
X108263995Y-117217137D01*
X108268756Y-117215945D01*
X108316881Y-117206373D01*
X108321734Y-117205653D01*
X108370565Y-117200843D01*
X108375466Y-117200602D01*
X108393889Y-117200602D01*
X108400000Y-117200000D01*
X108900000Y-117200000D01*
X108906111Y-117200602D01*
X108924534Y-117200602D01*
X108929435Y-117200843D01*
X108978266Y-117205653D01*
X108983119Y-117206373D01*
X109031244Y-117215945D01*
X109036005Y-117217137D01*
X109082960Y-117231381D01*
X109087579Y-117233034D01*
X109132912Y-117251811D01*
X109137349Y-117253909D01*
X109180622Y-117277040D01*
X109184829Y-117279562D01*
X109225628Y-117306822D01*
X109229570Y-117309746D01*
X109267499Y-117340874D01*
X109271134Y-117344169D01*
X109305831Y-117378866D01*
X109309126Y-117382501D01*
X109340254Y-117420430D01*
X109343178Y-117424372D01*
X109370438Y-117465171D01*
X109372960Y-117469378D01*
X109396091Y-117512651D01*
X109398189Y-117517088D01*
X109416966Y-117562421D01*
X109418619Y-117567040D01*
X109432863Y-117613995D01*
X109434055Y-117618756D01*
X109443627Y-117666881D01*
X109444347Y-117671734D01*
X109449157Y-117720565D01*
X109449398Y-117725466D01*
X109449398Y-117743889D01*
X109450000Y-117750000D01*
X109450000Y-118250000D01*
X109449039Y-118259755D01*
X109446194Y-118269134D01*
X109441573Y-118277779D01*
X109435355Y-118285355D01*
X109427779Y-118291573D01*
X109419134Y-118296194D01*
X109409755Y-118299039D01*
X109400000Y-118300000D01*
X107900000Y-118300000D01*
X107890245Y-118299039D01*
X107880866Y-118296194D01*
X107872221Y-118291573D01*
X107864645Y-118285355D01*
X107858427Y-118277779D01*
X107853806Y-118269134D01*
X107850961Y-118259755D01*
X107850000Y-118250000D01*
X107850000Y-117750000D01*
X107850602Y-117743889D01*
G37*
G36*
X107850961Y-118540245D02*
G01*
X107853806Y-118530866D01*
X107858427Y-118522221D01*
X107864645Y-118514645D01*
X107872221Y-118508427D01*
X107880866Y-118503806D01*
X107890245Y-118500961D01*
X107900000Y-118500000D01*
X109400000Y-118500000D01*
X109409755Y-118500961D01*
X109419134Y-118503806D01*
X109427779Y-118508427D01*
X109435355Y-118514645D01*
X109441573Y-118522221D01*
X109446194Y-118530866D01*
X109449039Y-118540245D01*
X109450000Y-118550000D01*
X109450000Y-119050000D01*
X109449398Y-119056111D01*
X109449398Y-119074534D01*
X109449157Y-119079435D01*
X109444347Y-119128266D01*
X109443627Y-119133119D01*
X109434055Y-119181244D01*
X109432863Y-119186005D01*
X109418619Y-119232960D01*
X109416966Y-119237579D01*
X109398189Y-119282912D01*
X109396091Y-119287349D01*
X109372960Y-119330622D01*
X109370438Y-119334829D01*
X109343178Y-119375628D01*
X109340254Y-119379570D01*
X109309126Y-119417499D01*
X109305831Y-119421134D01*
X109271134Y-119455831D01*
X109267499Y-119459126D01*
X109229570Y-119490254D01*
X109225628Y-119493178D01*
X109184829Y-119520438D01*
X109180622Y-119522960D01*
X109137349Y-119546091D01*
X109132912Y-119548189D01*
X109087579Y-119566966D01*
X109082960Y-119568619D01*
X109036005Y-119582863D01*
X109031244Y-119584055D01*
X108983119Y-119593627D01*
X108978266Y-119594347D01*
X108929435Y-119599157D01*
X108924534Y-119599398D01*
X108906111Y-119599398D01*
X108900000Y-119600000D01*
X108400000Y-119600000D01*
X108393889Y-119599398D01*
X108375466Y-119599398D01*
X108370565Y-119599157D01*
X108321734Y-119594347D01*
X108316881Y-119593627D01*
X108268756Y-119584055D01*
X108263995Y-119582863D01*
X108217040Y-119568619D01*
X108212421Y-119566966D01*
X108167088Y-119548189D01*
X108162651Y-119546091D01*
X108119378Y-119522960D01*
X108115171Y-119520438D01*
X108074372Y-119493178D01*
X108070430Y-119490254D01*
X108032501Y-119459126D01*
X108028866Y-119455831D01*
X107994169Y-119421134D01*
X107990874Y-119417499D01*
X107959746Y-119379570D01*
X107956822Y-119375628D01*
X107929562Y-119334829D01*
X107927040Y-119330622D01*
X107903909Y-119287349D01*
X107901811Y-119282912D01*
X107883034Y-119237579D01*
X107881381Y-119232960D01*
X107867137Y-119186005D01*
X107865945Y-119181244D01*
X107856373Y-119133119D01*
X107855653Y-119128266D01*
X107850843Y-119079435D01*
X107850602Y-119074534D01*
X107850602Y-119056111D01*
X107850000Y-119050000D01*
X107850000Y-118550000D01*
X107850961Y-118540245D01*
G37*
%TD*%
%TO.C,JP5*%
G36*
X111950602Y-117743889D02*
G01*
X111950602Y-117725466D01*
X111950843Y-117720565D01*
X111955653Y-117671734D01*
X111956373Y-117666881D01*
X111965945Y-117618756D01*
X111967137Y-117613995D01*
X111981381Y-117567040D01*
X111983034Y-117562421D01*
X112001811Y-117517088D01*
X112003909Y-117512651D01*
X112027040Y-117469378D01*
X112029562Y-117465171D01*
X112056822Y-117424372D01*
X112059746Y-117420430D01*
X112090874Y-117382501D01*
X112094169Y-117378866D01*
X112128866Y-117344169D01*
X112132501Y-117340874D01*
X112170430Y-117309746D01*
X112174372Y-117306822D01*
X112215171Y-117279562D01*
X112219378Y-117277040D01*
X112262651Y-117253909D01*
X112267088Y-117251811D01*
X112312421Y-117233034D01*
X112317040Y-117231381D01*
X112363995Y-117217137D01*
X112368756Y-117215945D01*
X112416881Y-117206373D01*
X112421734Y-117205653D01*
X112470565Y-117200843D01*
X112475466Y-117200602D01*
X112493889Y-117200602D01*
X112500000Y-117200000D01*
X113000000Y-117200000D01*
X113006111Y-117200602D01*
X113024534Y-117200602D01*
X113029435Y-117200843D01*
X113078266Y-117205653D01*
X113083119Y-117206373D01*
X113131244Y-117215945D01*
X113136005Y-117217137D01*
X113182960Y-117231381D01*
X113187579Y-117233034D01*
X113232912Y-117251811D01*
X113237349Y-117253909D01*
X113280622Y-117277040D01*
X113284829Y-117279562D01*
X113325628Y-117306822D01*
X113329570Y-117309746D01*
X113367499Y-117340874D01*
X113371134Y-117344169D01*
X113405831Y-117378866D01*
X113409126Y-117382501D01*
X113440254Y-117420430D01*
X113443178Y-117424372D01*
X113470438Y-117465171D01*
X113472960Y-117469378D01*
X113496091Y-117512651D01*
X113498189Y-117517088D01*
X113516966Y-117562421D01*
X113518619Y-117567040D01*
X113532863Y-117613995D01*
X113534055Y-117618756D01*
X113543627Y-117666881D01*
X113544347Y-117671734D01*
X113549157Y-117720565D01*
X113549398Y-117725466D01*
X113549398Y-117743889D01*
X113550000Y-117750000D01*
X113550000Y-118250000D01*
X113549039Y-118259755D01*
X113546194Y-118269134D01*
X113541573Y-118277779D01*
X113535355Y-118285355D01*
X113527779Y-118291573D01*
X113519134Y-118296194D01*
X113509755Y-118299039D01*
X113500000Y-118300000D01*
X112000000Y-118300000D01*
X111990245Y-118299039D01*
X111980866Y-118296194D01*
X111972221Y-118291573D01*
X111964645Y-118285355D01*
X111958427Y-118277779D01*
X111953806Y-118269134D01*
X111950961Y-118259755D01*
X111950000Y-118250000D01*
X111950000Y-117750000D01*
X111950602Y-117743889D01*
G37*
G36*
X111950961Y-118540245D02*
G01*
X111953806Y-118530866D01*
X111958427Y-118522221D01*
X111964645Y-118514645D01*
X111972221Y-118508427D01*
X111980866Y-118503806D01*
X111990245Y-118500961D01*
X112000000Y-118500000D01*
X113500000Y-118500000D01*
X113509755Y-118500961D01*
X113519134Y-118503806D01*
X113527779Y-118508427D01*
X113535355Y-118514645D01*
X113541573Y-118522221D01*
X113546194Y-118530866D01*
X113549039Y-118540245D01*
X113550000Y-118550000D01*
X113550000Y-119050000D01*
X113549398Y-119056111D01*
X113549398Y-119074534D01*
X113549157Y-119079435D01*
X113544347Y-119128266D01*
X113543627Y-119133119D01*
X113534055Y-119181244D01*
X113532863Y-119186005D01*
X113518619Y-119232960D01*
X113516966Y-119237579D01*
X113498189Y-119282912D01*
X113496091Y-119287349D01*
X113472960Y-119330622D01*
X113470438Y-119334829D01*
X113443178Y-119375628D01*
X113440254Y-119379570D01*
X113409126Y-119417499D01*
X113405831Y-119421134D01*
X113371134Y-119455831D01*
X113367499Y-119459126D01*
X113329570Y-119490254D01*
X113325628Y-119493178D01*
X113284829Y-119520438D01*
X113280622Y-119522960D01*
X113237349Y-119546091D01*
X113232912Y-119548189D01*
X113187579Y-119566966D01*
X113182960Y-119568619D01*
X113136005Y-119582863D01*
X113131244Y-119584055D01*
X113083119Y-119593627D01*
X113078266Y-119594347D01*
X113029435Y-119599157D01*
X113024534Y-119599398D01*
X113006111Y-119599398D01*
X113000000Y-119600000D01*
X112500000Y-119600000D01*
X112493889Y-119599398D01*
X112475466Y-119599398D01*
X112470565Y-119599157D01*
X112421734Y-119594347D01*
X112416881Y-119593627D01*
X112368756Y-119584055D01*
X112363995Y-119582863D01*
X112317040Y-119568619D01*
X112312421Y-119566966D01*
X112267088Y-119548189D01*
X112262651Y-119546091D01*
X112219378Y-119522960D01*
X112215171Y-119520438D01*
X112174372Y-119493178D01*
X112170430Y-119490254D01*
X112132501Y-119459126D01*
X112128866Y-119455831D01*
X112094169Y-119421134D01*
X112090874Y-119417499D01*
X112059746Y-119379570D01*
X112056822Y-119375628D01*
X112029562Y-119334829D01*
X112027040Y-119330622D01*
X112003909Y-119287349D01*
X112001811Y-119282912D01*
X111983034Y-119237579D01*
X111981381Y-119232960D01*
X111967137Y-119186005D01*
X111965945Y-119181244D01*
X111956373Y-119133119D01*
X111955653Y-119128266D01*
X111950843Y-119079435D01*
X111950602Y-119074534D01*
X111950602Y-119056111D01*
X111950000Y-119050000D01*
X111950000Y-118550000D01*
X111950961Y-118540245D01*
G37*
%TD*%
%TO.C,C22*%
G36*
G01*
X125781250Y-119050000D02*
X125218750Y-119050000D01*
G75*
G02*
X124975000Y-118806250I0J243750D01*
G01*
X124975000Y-118318750D01*
G75*
G02*
X125218750Y-118075000I243750J0D01*
G01*
X125781250Y-118075000D01*
G75*
G02*
X126025000Y-118318750I0J-243750D01*
G01*
X126025000Y-118806250D01*
G75*
G02*
X125781250Y-119050000I-243750J0D01*
G01*
G37*
G36*
G01*
X125781250Y-120625000D02*
X125218750Y-120625000D01*
G75*
G02*
X124975000Y-120381250I0J243750D01*
G01*
X124975000Y-119893750D01*
G75*
G02*
X125218750Y-119650000I243750J0D01*
G01*
X125781250Y-119650000D01*
G75*
G02*
X126025000Y-119893750I0J-243750D01*
G01*
X126025000Y-120381250D01*
G75*
G02*
X125781250Y-120625000I-243750J0D01*
G01*
G37*
%TD*%
%TO.C,R1*%
G36*
G01*
X102200000Y-93981250D02*
X102200000Y-93418750D01*
G75*
G02*
X102443750Y-93175000I243750J0D01*
G01*
X102931250Y-93175000D01*
G75*
G02*
X103175000Y-93418750I0J-243750D01*
G01*
X103175000Y-93981250D01*
G75*
G02*
X102931250Y-94225000I-243750J0D01*
G01*
X102443750Y-94225000D01*
G75*
G02*
X102200000Y-93981250I0J243750D01*
G01*
G37*
G36*
G01*
X100625000Y-93981250D02*
X100625000Y-93418750D01*
G75*
G02*
X100868750Y-93175000I243750J0D01*
G01*
X101356250Y-93175000D01*
G75*
G02*
X101600000Y-93418750I0J-243750D01*
G01*
X101600000Y-93981250D01*
G75*
G02*
X101356250Y-94225000I-243750J0D01*
G01*
X100868750Y-94225000D01*
G75*
G02*
X100625000Y-93981250I0J243750D01*
G01*
G37*
%TD*%
D15*
%TO.C,Y2*%
X141850000Y-113750000D03*
X139350000Y-113750000D03*
%TD*%
D16*
%TO.C,Y1*%
X148250000Y-114550000D03*
X144550000Y-114550000D03*
%TD*%
%TO.C,U6*%
G36*
G01*
X141850000Y-107300000D02*
X140400000Y-107300000D01*
G75*
G02*
X140300000Y-107200000I0J100000D01*
G01*
X140300000Y-107000000D01*
G75*
G02*
X140400000Y-106900000I100000J0D01*
G01*
X141850000Y-106900000D01*
G75*
G02*
X141950000Y-107000000I0J-100000D01*
G01*
X141950000Y-107200000D01*
G75*
G02*
X141850000Y-107300000I-100000J0D01*
G01*
G37*
G36*
G01*
X141850000Y-106800000D02*
X140400000Y-106800000D01*
G75*
G02*
X140300000Y-106700000I0J100000D01*
G01*
X140300000Y-106500000D01*
G75*
G02*
X140400000Y-106400000I100000J0D01*
G01*
X141850000Y-106400000D01*
G75*
G02*
X141950000Y-106500000I0J-100000D01*
G01*
X141950000Y-106700000D01*
G75*
G02*
X141850000Y-106800000I-100000J0D01*
G01*
G37*
G36*
G01*
X141850000Y-106300000D02*
X140400000Y-106300000D01*
G75*
G02*
X140300000Y-106200000I0J100000D01*
G01*
X140300000Y-106000000D01*
G75*
G02*
X140400000Y-105900000I100000J0D01*
G01*
X141850000Y-105900000D01*
G75*
G02*
X141950000Y-106000000I0J-100000D01*
G01*
X141950000Y-106200000D01*
G75*
G02*
X141850000Y-106300000I-100000J0D01*
G01*
G37*
G36*
G01*
X141850000Y-105800000D02*
X140400000Y-105800000D01*
G75*
G02*
X140300000Y-105700000I0J100000D01*
G01*
X140300000Y-105500000D01*
G75*
G02*
X140400000Y-105400000I100000J0D01*
G01*
X141850000Y-105400000D01*
G75*
G02*
X141950000Y-105500000I0J-100000D01*
G01*
X141950000Y-105700000D01*
G75*
G02*
X141850000Y-105800000I-100000J0D01*
G01*
G37*
G36*
G01*
X141850000Y-105300000D02*
X140400000Y-105300000D01*
G75*
G02*
X140300000Y-105200000I0J100000D01*
G01*
X140300000Y-105000000D01*
G75*
G02*
X140400000Y-104900000I100000J0D01*
G01*
X141850000Y-104900000D01*
G75*
G02*
X141950000Y-105000000I0J-100000D01*
G01*
X141950000Y-105200000D01*
G75*
G02*
X141850000Y-105300000I-100000J0D01*
G01*
G37*
G36*
G01*
X141850000Y-104800000D02*
X140400000Y-104800000D01*
G75*
G02*
X140300000Y-104700000I0J100000D01*
G01*
X140300000Y-104500000D01*
G75*
G02*
X140400000Y-104400000I100000J0D01*
G01*
X141850000Y-104400000D01*
G75*
G02*
X141950000Y-104500000I0J-100000D01*
G01*
X141950000Y-104700000D01*
G75*
G02*
X141850000Y-104800000I-100000J0D01*
G01*
G37*
G36*
G01*
X141850000Y-104300000D02*
X140400000Y-104300000D01*
G75*
G02*
X140300000Y-104200000I0J100000D01*
G01*
X140300000Y-104000000D01*
G75*
G02*
X140400000Y-103900000I100000J0D01*
G01*
X141850000Y-103900000D01*
G75*
G02*
X141950000Y-104000000I0J-100000D01*
G01*
X141950000Y-104200000D01*
G75*
G02*
X141850000Y-104300000I-100000J0D01*
G01*
G37*
G36*
G01*
X141850000Y-103800000D02*
X140400000Y-103800000D01*
G75*
G02*
X140300000Y-103700000I0J100000D01*
G01*
X140300000Y-103500000D01*
G75*
G02*
X140400000Y-103400000I100000J0D01*
G01*
X141850000Y-103400000D01*
G75*
G02*
X141950000Y-103500000I0J-100000D01*
G01*
X141950000Y-103700000D01*
G75*
G02*
X141850000Y-103800000I-100000J0D01*
G01*
G37*
G36*
G01*
X141850000Y-103300000D02*
X140400000Y-103300000D01*
G75*
G02*
X140300000Y-103200000I0J100000D01*
G01*
X140300000Y-103000000D01*
G75*
G02*
X140400000Y-102900000I100000J0D01*
G01*
X141850000Y-102900000D01*
G75*
G02*
X141950000Y-103000000I0J-100000D01*
G01*
X141950000Y-103200000D01*
G75*
G02*
X141850000Y-103300000I-100000J0D01*
G01*
G37*
G36*
G01*
X141850000Y-102800000D02*
X140400000Y-102800000D01*
G75*
G02*
X140300000Y-102700000I0J100000D01*
G01*
X140300000Y-102500000D01*
G75*
G02*
X140400000Y-102400000I100000J0D01*
G01*
X141850000Y-102400000D01*
G75*
G02*
X141950000Y-102500000I0J-100000D01*
G01*
X141950000Y-102700000D01*
G75*
G02*
X141850000Y-102800000I-100000J0D01*
G01*
G37*
G36*
G01*
X141850000Y-102300000D02*
X140400000Y-102300000D01*
G75*
G02*
X140300000Y-102200000I0J100000D01*
G01*
X140300000Y-102000000D01*
G75*
G02*
X140400000Y-101900000I100000J0D01*
G01*
X141850000Y-101900000D01*
G75*
G02*
X141950000Y-102000000I0J-100000D01*
G01*
X141950000Y-102200000D01*
G75*
G02*
X141850000Y-102300000I-100000J0D01*
G01*
G37*
G36*
G01*
X141850000Y-101800000D02*
X140400000Y-101800000D01*
G75*
G02*
X140300000Y-101700000I0J100000D01*
G01*
X140300000Y-101500000D01*
G75*
G02*
X140400000Y-101400000I100000J0D01*
G01*
X141850000Y-101400000D01*
G75*
G02*
X141950000Y-101500000I0J-100000D01*
G01*
X141950000Y-101700000D01*
G75*
G02*
X141850000Y-101800000I-100000J0D01*
G01*
G37*
G36*
G01*
X141850000Y-101300000D02*
X140400000Y-101300000D01*
G75*
G02*
X140300000Y-101200000I0J100000D01*
G01*
X140300000Y-101000000D01*
G75*
G02*
X140400000Y-100900000I100000J0D01*
G01*
X141850000Y-100900000D01*
G75*
G02*
X141950000Y-101000000I0J-100000D01*
G01*
X141950000Y-101200000D01*
G75*
G02*
X141850000Y-101300000I-100000J0D01*
G01*
G37*
G36*
G01*
X141850000Y-100800000D02*
X140400000Y-100800000D01*
G75*
G02*
X140300000Y-100700000I0J100000D01*
G01*
X140300000Y-100500000D01*
G75*
G02*
X140400000Y-100400000I100000J0D01*
G01*
X141850000Y-100400000D01*
G75*
G02*
X141950000Y-100500000I0J-100000D01*
G01*
X141950000Y-100700000D01*
G75*
G02*
X141850000Y-100800000I-100000J0D01*
G01*
G37*
G36*
G01*
X141850000Y-100300000D02*
X140400000Y-100300000D01*
G75*
G02*
X140300000Y-100200000I0J100000D01*
G01*
X140300000Y-100000000D01*
G75*
G02*
X140400000Y-99900000I100000J0D01*
G01*
X141850000Y-99900000D01*
G75*
G02*
X141950000Y-100000000I0J-100000D01*
G01*
X141950000Y-100200000D01*
G75*
G02*
X141850000Y-100300000I-100000J0D01*
G01*
G37*
G36*
G01*
X141850000Y-99800000D02*
X140400000Y-99800000D01*
G75*
G02*
X140300000Y-99700000I0J100000D01*
G01*
X140300000Y-99500000D01*
G75*
G02*
X140400000Y-99400000I100000J0D01*
G01*
X141850000Y-99400000D01*
G75*
G02*
X141950000Y-99500000I0J-100000D01*
G01*
X141950000Y-99700000D01*
G75*
G02*
X141850000Y-99800000I-100000J0D01*
G01*
G37*
G36*
G01*
X143150000Y-98500000D02*
X142950000Y-98500000D01*
G75*
G02*
X142850000Y-98400000I0J100000D01*
G01*
X142850000Y-96950000D01*
G75*
G02*
X142950000Y-96850000I100000J0D01*
G01*
X143150000Y-96850000D01*
G75*
G02*
X143250000Y-96950000I0J-100000D01*
G01*
X143250000Y-98400000D01*
G75*
G02*
X143150000Y-98500000I-100000J0D01*
G01*
G37*
G36*
G01*
X143650000Y-98500000D02*
X143450000Y-98500000D01*
G75*
G02*
X143350000Y-98400000I0J100000D01*
G01*
X143350000Y-96950000D01*
G75*
G02*
X143450000Y-96850000I100000J0D01*
G01*
X143650000Y-96850000D01*
G75*
G02*
X143750000Y-96950000I0J-100000D01*
G01*
X143750000Y-98400000D01*
G75*
G02*
X143650000Y-98500000I-100000J0D01*
G01*
G37*
G36*
G01*
X144150000Y-98500000D02*
X143950000Y-98500000D01*
G75*
G02*
X143850000Y-98400000I0J100000D01*
G01*
X143850000Y-96950000D01*
G75*
G02*
X143950000Y-96850000I100000J0D01*
G01*
X144150000Y-96850000D01*
G75*
G02*
X144250000Y-96950000I0J-100000D01*
G01*
X144250000Y-98400000D01*
G75*
G02*
X144150000Y-98500000I-100000J0D01*
G01*
G37*
G36*
G01*
X144650000Y-98500000D02*
X144450000Y-98500000D01*
G75*
G02*
X144350000Y-98400000I0J100000D01*
G01*
X144350000Y-96950000D01*
G75*
G02*
X144450000Y-96850000I100000J0D01*
G01*
X144650000Y-96850000D01*
G75*
G02*
X144750000Y-96950000I0J-100000D01*
G01*
X144750000Y-98400000D01*
G75*
G02*
X144650000Y-98500000I-100000J0D01*
G01*
G37*
G36*
G01*
X145150000Y-98500000D02*
X144950000Y-98500000D01*
G75*
G02*
X144850000Y-98400000I0J100000D01*
G01*
X144850000Y-96950000D01*
G75*
G02*
X144950000Y-96850000I100000J0D01*
G01*
X145150000Y-96850000D01*
G75*
G02*
X145250000Y-96950000I0J-100000D01*
G01*
X145250000Y-98400000D01*
G75*
G02*
X145150000Y-98500000I-100000J0D01*
G01*
G37*
G36*
G01*
X145650000Y-98500000D02*
X145450000Y-98500000D01*
G75*
G02*
X145350000Y-98400000I0J100000D01*
G01*
X145350000Y-96950000D01*
G75*
G02*
X145450000Y-96850000I100000J0D01*
G01*
X145650000Y-96850000D01*
G75*
G02*
X145750000Y-96950000I0J-100000D01*
G01*
X145750000Y-98400000D01*
G75*
G02*
X145650000Y-98500000I-100000J0D01*
G01*
G37*
G36*
G01*
X146150000Y-98500000D02*
X145950000Y-98500000D01*
G75*
G02*
X145850000Y-98400000I0J100000D01*
G01*
X145850000Y-96950000D01*
G75*
G02*
X145950000Y-96850000I100000J0D01*
G01*
X146150000Y-96850000D01*
G75*
G02*
X146250000Y-96950000I0J-100000D01*
G01*
X146250000Y-98400000D01*
G75*
G02*
X146150000Y-98500000I-100000J0D01*
G01*
G37*
G36*
G01*
X146650000Y-98500000D02*
X146450000Y-98500000D01*
G75*
G02*
X146350000Y-98400000I0J100000D01*
G01*
X146350000Y-96950000D01*
G75*
G02*
X146450000Y-96850000I100000J0D01*
G01*
X146650000Y-96850000D01*
G75*
G02*
X146750000Y-96950000I0J-100000D01*
G01*
X146750000Y-98400000D01*
G75*
G02*
X146650000Y-98500000I-100000J0D01*
G01*
G37*
G36*
G01*
X147150000Y-98500000D02*
X146950000Y-98500000D01*
G75*
G02*
X146850000Y-98400000I0J100000D01*
G01*
X146850000Y-96950000D01*
G75*
G02*
X146950000Y-96850000I100000J0D01*
G01*
X147150000Y-96850000D01*
G75*
G02*
X147250000Y-96950000I0J-100000D01*
G01*
X147250000Y-98400000D01*
G75*
G02*
X147150000Y-98500000I-100000J0D01*
G01*
G37*
G36*
G01*
X147650000Y-98500000D02*
X147450000Y-98500000D01*
G75*
G02*
X147350000Y-98400000I0J100000D01*
G01*
X147350000Y-96950000D01*
G75*
G02*
X147450000Y-96850000I100000J0D01*
G01*
X147650000Y-96850000D01*
G75*
G02*
X147750000Y-96950000I0J-100000D01*
G01*
X147750000Y-98400000D01*
G75*
G02*
X147650000Y-98500000I-100000J0D01*
G01*
G37*
G36*
G01*
X148150000Y-98500000D02*
X147950000Y-98500000D01*
G75*
G02*
X147850000Y-98400000I0J100000D01*
G01*
X147850000Y-96950000D01*
G75*
G02*
X147950000Y-96850000I100000J0D01*
G01*
X148150000Y-96850000D01*
G75*
G02*
X148250000Y-96950000I0J-100000D01*
G01*
X148250000Y-98400000D01*
G75*
G02*
X148150000Y-98500000I-100000J0D01*
G01*
G37*
G36*
G01*
X148650000Y-98500000D02*
X148450000Y-98500000D01*
G75*
G02*
X148350000Y-98400000I0J100000D01*
G01*
X148350000Y-96950000D01*
G75*
G02*
X148450000Y-96850000I100000J0D01*
G01*
X148650000Y-96850000D01*
G75*
G02*
X148750000Y-96950000I0J-100000D01*
G01*
X148750000Y-98400000D01*
G75*
G02*
X148650000Y-98500000I-100000J0D01*
G01*
G37*
G36*
G01*
X149150000Y-98500000D02*
X148950000Y-98500000D01*
G75*
G02*
X148850000Y-98400000I0J100000D01*
G01*
X148850000Y-96950000D01*
G75*
G02*
X148950000Y-96850000I100000J0D01*
G01*
X149150000Y-96850000D01*
G75*
G02*
X149250000Y-96950000I0J-100000D01*
G01*
X149250000Y-98400000D01*
G75*
G02*
X149150000Y-98500000I-100000J0D01*
G01*
G37*
G36*
G01*
X149650000Y-98500000D02*
X149450000Y-98500000D01*
G75*
G02*
X149350000Y-98400000I0J100000D01*
G01*
X149350000Y-96950000D01*
G75*
G02*
X149450000Y-96850000I100000J0D01*
G01*
X149650000Y-96850000D01*
G75*
G02*
X149750000Y-96950000I0J-100000D01*
G01*
X149750000Y-98400000D01*
G75*
G02*
X149650000Y-98500000I-100000J0D01*
G01*
G37*
G36*
G01*
X150150000Y-98500000D02*
X149950000Y-98500000D01*
G75*
G02*
X149850000Y-98400000I0J100000D01*
G01*
X149850000Y-96950000D01*
G75*
G02*
X149950000Y-96850000I100000J0D01*
G01*
X150150000Y-96850000D01*
G75*
G02*
X150250000Y-96950000I0J-100000D01*
G01*
X150250000Y-98400000D01*
G75*
G02*
X150150000Y-98500000I-100000J0D01*
G01*
G37*
G36*
G01*
X150650000Y-98500000D02*
X150450000Y-98500000D01*
G75*
G02*
X150350000Y-98400000I0J100000D01*
G01*
X150350000Y-96950000D01*
G75*
G02*
X150450000Y-96850000I100000J0D01*
G01*
X150650000Y-96850000D01*
G75*
G02*
X150750000Y-96950000I0J-100000D01*
G01*
X150750000Y-98400000D01*
G75*
G02*
X150650000Y-98500000I-100000J0D01*
G01*
G37*
G36*
G01*
X153200000Y-99800000D02*
X151750000Y-99800000D01*
G75*
G02*
X151650000Y-99700000I0J100000D01*
G01*
X151650000Y-99500000D01*
G75*
G02*
X151750000Y-99400000I100000J0D01*
G01*
X153200000Y-99400000D01*
G75*
G02*
X153300000Y-99500000I0J-100000D01*
G01*
X153300000Y-99700000D01*
G75*
G02*
X153200000Y-99800000I-100000J0D01*
G01*
G37*
G36*
G01*
X153200000Y-100300000D02*
X151750000Y-100300000D01*
G75*
G02*
X151650000Y-100200000I0J100000D01*
G01*
X151650000Y-100000000D01*
G75*
G02*
X151750000Y-99900000I100000J0D01*
G01*
X153200000Y-99900000D01*
G75*
G02*
X153300000Y-100000000I0J-100000D01*
G01*
X153300000Y-100200000D01*
G75*
G02*
X153200000Y-100300000I-100000J0D01*
G01*
G37*
G36*
G01*
X153200000Y-100800000D02*
X151750000Y-100800000D01*
G75*
G02*
X151650000Y-100700000I0J100000D01*
G01*
X151650000Y-100500000D01*
G75*
G02*
X151750000Y-100400000I100000J0D01*
G01*
X153200000Y-100400000D01*
G75*
G02*
X153300000Y-100500000I0J-100000D01*
G01*
X153300000Y-100700000D01*
G75*
G02*
X153200000Y-100800000I-100000J0D01*
G01*
G37*
G36*
G01*
X153200000Y-101300000D02*
X151750000Y-101300000D01*
G75*
G02*
X151650000Y-101200000I0J100000D01*
G01*
X151650000Y-101000000D01*
G75*
G02*
X151750000Y-100900000I100000J0D01*
G01*
X153200000Y-100900000D01*
G75*
G02*
X153300000Y-101000000I0J-100000D01*
G01*
X153300000Y-101200000D01*
G75*
G02*
X153200000Y-101300000I-100000J0D01*
G01*
G37*
G36*
G01*
X153200000Y-101800000D02*
X151750000Y-101800000D01*
G75*
G02*
X151650000Y-101700000I0J100000D01*
G01*
X151650000Y-101500000D01*
G75*
G02*
X151750000Y-101400000I100000J0D01*
G01*
X153200000Y-101400000D01*
G75*
G02*
X153300000Y-101500000I0J-100000D01*
G01*
X153300000Y-101700000D01*
G75*
G02*
X153200000Y-101800000I-100000J0D01*
G01*
G37*
G36*
G01*
X153200000Y-102300000D02*
X151750000Y-102300000D01*
G75*
G02*
X151650000Y-102200000I0J100000D01*
G01*
X151650000Y-102000000D01*
G75*
G02*
X151750000Y-101900000I100000J0D01*
G01*
X153200000Y-101900000D01*
G75*
G02*
X153300000Y-102000000I0J-100000D01*
G01*
X153300000Y-102200000D01*
G75*
G02*
X153200000Y-102300000I-100000J0D01*
G01*
G37*
G36*
G01*
X153200000Y-102800000D02*
X151750000Y-102800000D01*
G75*
G02*
X151650000Y-102700000I0J100000D01*
G01*
X151650000Y-102500000D01*
G75*
G02*
X151750000Y-102400000I100000J0D01*
G01*
X153200000Y-102400000D01*
G75*
G02*
X153300000Y-102500000I0J-100000D01*
G01*
X153300000Y-102700000D01*
G75*
G02*
X153200000Y-102800000I-100000J0D01*
G01*
G37*
G36*
G01*
X153200000Y-103300000D02*
X151750000Y-103300000D01*
G75*
G02*
X151650000Y-103200000I0J100000D01*
G01*
X151650000Y-103000000D01*
G75*
G02*
X151750000Y-102900000I100000J0D01*
G01*
X153200000Y-102900000D01*
G75*
G02*
X153300000Y-103000000I0J-100000D01*
G01*
X153300000Y-103200000D01*
G75*
G02*
X153200000Y-103300000I-100000J0D01*
G01*
G37*
G36*
G01*
X153200000Y-103800000D02*
X151750000Y-103800000D01*
G75*
G02*
X151650000Y-103700000I0J100000D01*
G01*
X151650000Y-103500000D01*
G75*
G02*
X151750000Y-103400000I100000J0D01*
G01*
X153200000Y-103400000D01*
G75*
G02*
X153300000Y-103500000I0J-100000D01*
G01*
X153300000Y-103700000D01*
G75*
G02*
X153200000Y-103800000I-100000J0D01*
G01*
G37*
G36*
G01*
X153200000Y-104300000D02*
X151750000Y-104300000D01*
G75*
G02*
X151650000Y-104200000I0J100000D01*
G01*
X151650000Y-104000000D01*
G75*
G02*
X151750000Y-103900000I100000J0D01*
G01*
X153200000Y-103900000D01*
G75*
G02*
X153300000Y-104000000I0J-100000D01*
G01*
X153300000Y-104200000D01*
G75*
G02*
X153200000Y-104300000I-100000J0D01*
G01*
G37*
G36*
G01*
X153200000Y-104800000D02*
X151750000Y-104800000D01*
G75*
G02*
X151650000Y-104700000I0J100000D01*
G01*
X151650000Y-104500000D01*
G75*
G02*
X151750000Y-104400000I100000J0D01*
G01*
X153200000Y-104400000D01*
G75*
G02*
X153300000Y-104500000I0J-100000D01*
G01*
X153300000Y-104700000D01*
G75*
G02*
X153200000Y-104800000I-100000J0D01*
G01*
G37*
G36*
G01*
X153200000Y-105300000D02*
X151750000Y-105300000D01*
G75*
G02*
X151650000Y-105200000I0J100000D01*
G01*
X151650000Y-105000000D01*
G75*
G02*
X151750000Y-104900000I100000J0D01*
G01*
X153200000Y-104900000D01*
G75*
G02*
X153300000Y-105000000I0J-100000D01*
G01*
X153300000Y-105200000D01*
G75*
G02*
X153200000Y-105300000I-100000J0D01*
G01*
G37*
G36*
G01*
X153200000Y-105800000D02*
X151750000Y-105800000D01*
G75*
G02*
X151650000Y-105700000I0J100000D01*
G01*
X151650000Y-105500000D01*
G75*
G02*
X151750000Y-105400000I100000J0D01*
G01*
X153200000Y-105400000D01*
G75*
G02*
X153300000Y-105500000I0J-100000D01*
G01*
X153300000Y-105700000D01*
G75*
G02*
X153200000Y-105800000I-100000J0D01*
G01*
G37*
G36*
G01*
X153200000Y-106300000D02*
X151750000Y-106300000D01*
G75*
G02*
X151650000Y-106200000I0J100000D01*
G01*
X151650000Y-106000000D01*
G75*
G02*
X151750000Y-105900000I100000J0D01*
G01*
X153200000Y-105900000D01*
G75*
G02*
X153300000Y-106000000I0J-100000D01*
G01*
X153300000Y-106200000D01*
G75*
G02*
X153200000Y-106300000I-100000J0D01*
G01*
G37*
G36*
G01*
X153200000Y-106800000D02*
X151750000Y-106800000D01*
G75*
G02*
X151650000Y-106700000I0J100000D01*
G01*
X151650000Y-106500000D01*
G75*
G02*
X151750000Y-106400000I100000J0D01*
G01*
X153200000Y-106400000D01*
G75*
G02*
X153300000Y-106500000I0J-100000D01*
G01*
X153300000Y-106700000D01*
G75*
G02*
X153200000Y-106800000I-100000J0D01*
G01*
G37*
G36*
G01*
X153200000Y-107300000D02*
X151750000Y-107300000D01*
G75*
G02*
X151650000Y-107200000I0J100000D01*
G01*
X151650000Y-107000000D01*
G75*
G02*
X151750000Y-106900000I100000J0D01*
G01*
X153200000Y-106900000D01*
G75*
G02*
X153300000Y-107000000I0J-100000D01*
G01*
X153300000Y-107200000D01*
G75*
G02*
X153200000Y-107300000I-100000J0D01*
G01*
G37*
G36*
G01*
X150650000Y-109850000D02*
X150450000Y-109850000D01*
G75*
G02*
X150350000Y-109750000I0J100000D01*
G01*
X150350000Y-108300000D01*
G75*
G02*
X150450000Y-108200000I100000J0D01*
G01*
X150650000Y-108200000D01*
G75*
G02*
X150750000Y-108300000I0J-100000D01*
G01*
X150750000Y-109750000D01*
G75*
G02*
X150650000Y-109850000I-100000J0D01*
G01*
G37*
G36*
G01*
X150150000Y-109850000D02*
X149950000Y-109850000D01*
G75*
G02*
X149850000Y-109750000I0J100000D01*
G01*
X149850000Y-108300000D01*
G75*
G02*
X149950000Y-108200000I100000J0D01*
G01*
X150150000Y-108200000D01*
G75*
G02*
X150250000Y-108300000I0J-100000D01*
G01*
X150250000Y-109750000D01*
G75*
G02*
X150150000Y-109850000I-100000J0D01*
G01*
G37*
G36*
G01*
X149650000Y-109850000D02*
X149450000Y-109850000D01*
G75*
G02*
X149350000Y-109750000I0J100000D01*
G01*
X149350000Y-108300000D01*
G75*
G02*
X149450000Y-108200000I100000J0D01*
G01*
X149650000Y-108200000D01*
G75*
G02*
X149750000Y-108300000I0J-100000D01*
G01*
X149750000Y-109750000D01*
G75*
G02*
X149650000Y-109850000I-100000J0D01*
G01*
G37*
G36*
G01*
X149150000Y-109850000D02*
X148950000Y-109850000D01*
G75*
G02*
X148850000Y-109750000I0J100000D01*
G01*
X148850000Y-108300000D01*
G75*
G02*
X148950000Y-108200000I100000J0D01*
G01*
X149150000Y-108200000D01*
G75*
G02*
X149250000Y-108300000I0J-100000D01*
G01*
X149250000Y-109750000D01*
G75*
G02*
X149150000Y-109850000I-100000J0D01*
G01*
G37*
G36*
G01*
X148650000Y-109850000D02*
X148450000Y-109850000D01*
G75*
G02*
X148350000Y-109750000I0J100000D01*
G01*
X148350000Y-108300000D01*
G75*
G02*
X148450000Y-108200000I100000J0D01*
G01*
X148650000Y-108200000D01*
G75*
G02*
X148750000Y-108300000I0J-100000D01*
G01*
X148750000Y-109750000D01*
G75*
G02*
X148650000Y-109850000I-100000J0D01*
G01*
G37*
G36*
G01*
X148150000Y-109850000D02*
X147950000Y-109850000D01*
G75*
G02*
X147850000Y-109750000I0J100000D01*
G01*
X147850000Y-108300000D01*
G75*
G02*
X147950000Y-108200000I100000J0D01*
G01*
X148150000Y-108200000D01*
G75*
G02*
X148250000Y-108300000I0J-100000D01*
G01*
X148250000Y-109750000D01*
G75*
G02*
X148150000Y-109850000I-100000J0D01*
G01*
G37*
G36*
G01*
X147650000Y-109850000D02*
X147450000Y-109850000D01*
G75*
G02*
X147350000Y-109750000I0J100000D01*
G01*
X147350000Y-108300000D01*
G75*
G02*
X147450000Y-108200000I100000J0D01*
G01*
X147650000Y-108200000D01*
G75*
G02*
X147750000Y-108300000I0J-100000D01*
G01*
X147750000Y-109750000D01*
G75*
G02*
X147650000Y-109850000I-100000J0D01*
G01*
G37*
G36*
G01*
X147150000Y-109850000D02*
X146950000Y-109850000D01*
G75*
G02*
X146850000Y-109750000I0J100000D01*
G01*
X146850000Y-108300000D01*
G75*
G02*
X146950000Y-108200000I100000J0D01*
G01*
X147150000Y-108200000D01*
G75*
G02*
X147250000Y-108300000I0J-100000D01*
G01*
X147250000Y-109750000D01*
G75*
G02*
X147150000Y-109850000I-100000J0D01*
G01*
G37*
G36*
G01*
X146650000Y-109850000D02*
X146450000Y-109850000D01*
G75*
G02*
X146350000Y-109750000I0J100000D01*
G01*
X146350000Y-108300000D01*
G75*
G02*
X146450000Y-108200000I100000J0D01*
G01*
X146650000Y-108200000D01*
G75*
G02*
X146750000Y-108300000I0J-100000D01*
G01*
X146750000Y-109750000D01*
G75*
G02*
X146650000Y-109850000I-100000J0D01*
G01*
G37*
G36*
G01*
X146150000Y-109850000D02*
X145950000Y-109850000D01*
G75*
G02*
X145850000Y-109750000I0J100000D01*
G01*
X145850000Y-108300000D01*
G75*
G02*
X145950000Y-108200000I100000J0D01*
G01*
X146150000Y-108200000D01*
G75*
G02*
X146250000Y-108300000I0J-100000D01*
G01*
X146250000Y-109750000D01*
G75*
G02*
X146150000Y-109850000I-100000J0D01*
G01*
G37*
G36*
G01*
X145650000Y-109850000D02*
X145450000Y-109850000D01*
G75*
G02*
X145350000Y-109750000I0J100000D01*
G01*
X145350000Y-108300000D01*
G75*
G02*
X145450000Y-108200000I100000J0D01*
G01*
X145650000Y-108200000D01*
G75*
G02*
X145750000Y-108300000I0J-100000D01*
G01*
X145750000Y-109750000D01*
G75*
G02*
X145650000Y-109850000I-100000J0D01*
G01*
G37*
G36*
G01*
X145150000Y-109850000D02*
X144950000Y-109850000D01*
G75*
G02*
X144850000Y-109750000I0J100000D01*
G01*
X144850000Y-108300000D01*
G75*
G02*
X144950000Y-108200000I100000J0D01*
G01*
X145150000Y-108200000D01*
G75*
G02*
X145250000Y-108300000I0J-100000D01*
G01*
X145250000Y-109750000D01*
G75*
G02*
X145150000Y-109850000I-100000J0D01*
G01*
G37*
G36*
G01*
X144650000Y-109850000D02*
X144450000Y-109850000D01*
G75*
G02*
X144350000Y-109750000I0J100000D01*
G01*
X144350000Y-108300000D01*
G75*
G02*
X144450000Y-108200000I100000J0D01*
G01*
X144650000Y-108200000D01*
G75*
G02*
X144750000Y-108300000I0J-100000D01*
G01*
X144750000Y-109750000D01*
G75*
G02*
X144650000Y-109850000I-100000J0D01*
G01*
G37*
G36*
G01*
X144150000Y-109850000D02*
X143950000Y-109850000D01*
G75*
G02*
X143850000Y-109750000I0J100000D01*
G01*
X143850000Y-108300000D01*
G75*
G02*
X143950000Y-108200000I100000J0D01*
G01*
X144150000Y-108200000D01*
G75*
G02*
X144250000Y-108300000I0J-100000D01*
G01*
X144250000Y-109750000D01*
G75*
G02*
X144150000Y-109850000I-100000J0D01*
G01*
G37*
G36*
G01*
X143650000Y-109850000D02*
X143450000Y-109850000D01*
G75*
G02*
X143350000Y-109750000I0J100000D01*
G01*
X143350000Y-108300000D01*
G75*
G02*
X143450000Y-108200000I100000J0D01*
G01*
X143650000Y-108200000D01*
G75*
G02*
X143750000Y-108300000I0J-100000D01*
G01*
X143750000Y-109750000D01*
G75*
G02*
X143650000Y-109850000I-100000J0D01*
G01*
G37*
G36*
G01*
X143150000Y-109850000D02*
X142950000Y-109850000D01*
G75*
G02*
X142850000Y-109750000I0J100000D01*
G01*
X142850000Y-108300000D01*
G75*
G02*
X142950000Y-108200000I100000J0D01*
G01*
X143150000Y-108200000D01*
G75*
G02*
X143250000Y-108300000I0J-100000D01*
G01*
X143250000Y-109750000D01*
G75*
G02*
X143150000Y-109850000I-100000J0D01*
G01*
G37*
%TD*%
D17*
%TO.C,U2*%
X109900000Y-92750000D03*
X109900000Y-94650000D03*
X107700000Y-94650000D03*
X107700000Y-93700000D03*
X107700000Y-92750000D03*
%TD*%
%TO.C,U1*%
X109900000Y-97850000D03*
X109900000Y-99750000D03*
X107700000Y-99750000D03*
X107700000Y-98800000D03*
X107700000Y-97850000D03*
%TD*%
D18*
%TO.C,JP2*%
X135200000Y-102400000D03*
D12*
G36*
X136506111Y-101600602D02*
G01*
X136524534Y-101600602D01*
X136529435Y-101600843D01*
X136578266Y-101605653D01*
X136583119Y-101606373D01*
X136631244Y-101615945D01*
X136636005Y-101617137D01*
X136682960Y-101631381D01*
X136687579Y-101633034D01*
X136732912Y-101651811D01*
X136737349Y-101653909D01*
X136780622Y-101677040D01*
X136784829Y-101679562D01*
X136825628Y-101706822D01*
X136829570Y-101709746D01*
X136867499Y-101740874D01*
X136871134Y-101744169D01*
X136905831Y-101778866D01*
X136909126Y-101782501D01*
X136940254Y-101820430D01*
X136943178Y-101824372D01*
X136970438Y-101865171D01*
X136972960Y-101869378D01*
X136996091Y-101912651D01*
X136998189Y-101917088D01*
X137016966Y-101962421D01*
X137018619Y-101967040D01*
X137032863Y-102013995D01*
X137034055Y-102018756D01*
X137043627Y-102066881D01*
X137044347Y-102071734D01*
X137049157Y-102120565D01*
X137049398Y-102125466D01*
X137049398Y-102143889D01*
X137050000Y-102150000D01*
X137050000Y-102650000D01*
X137049398Y-102656111D01*
X137049398Y-102674534D01*
X137049157Y-102679435D01*
X137044347Y-102728266D01*
X137043627Y-102733119D01*
X137034055Y-102781244D01*
X137032863Y-102786005D01*
X137018619Y-102832960D01*
X137016966Y-102837579D01*
X136998189Y-102882912D01*
X136996091Y-102887349D01*
X136972960Y-102930622D01*
X136970438Y-102934829D01*
X136943178Y-102975628D01*
X136940254Y-102979570D01*
X136909126Y-103017499D01*
X136905831Y-103021134D01*
X136871134Y-103055831D01*
X136867499Y-103059126D01*
X136829570Y-103090254D01*
X136825628Y-103093178D01*
X136784829Y-103120438D01*
X136780622Y-103122960D01*
X136737349Y-103146091D01*
X136732912Y-103148189D01*
X136687579Y-103166966D01*
X136682960Y-103168619D01*
X136636005Y-103182863D01*
X136631244Y-103184055D01*
X136583119Y-103193627D01*
X136578266Y-103194347D01*
X136529435Y-103199157D01*
X136524534Y-103199398D01*
X136506111Y-103199398D01*
X136500000Y-103200000D01*
X135950000Y-103200000D01*
X135940245Y-103199039D01*
X135930866Y-103196194D01*
X135922221Y-103191573D01*
X135914645Y-103185355D01*
X135908427Y-103177779D01*
X135903806Y-103169134D01*
X135900961Y-103159755D01*
X135900000Y-103150000D01*
X135900000Y-101650000D01*
X135900961Y-101640245D01*
X135903806Y-101630866D01*
X135908427Y-101622221D01*
X135914645Y-101614645D01*
X135922221Y-101608427D01*
X135930866Y-101603806D01*
X135940245Y-101600961D01*
X135950000Y-101600000D01*
X136500000Y-101600000D01*
X136506111Y-101600602D01*
G37*
G36*
X134459755Y-101600961D02*
G01*
X134469134Y-101603806D01*
X134477779Y-101608427D01*
X134485355Y-101614645D01*
X134491573Y-101622221D01*
X134496194Y-101630866D01*
X134499039Y-101640245D01*
X134500000Y-101650000D01*
X134500000Y-103150000D01*
X134499039Y-103159755D01*
X134496194Y-103169134D01*
X134491573Y-103177779D01*
X134485355Y-103185355D01*
X134477779Y-103191573D01*
X134469134Y-103196194D01*
X134459755Y-103199039D01*
X134450000Y-103200000D01*
X133900000Y-103200000D01*
X133893889Y-103199398D01*
X133875466Y-103199398D01*
X133870565Y-103199157D01*
X133821734Y-103194347D01*
X133816881Y-103193627D01*
X133768756Y-103184055D01*
X133763995Y-103182863D01*
X133717040Y-103168619D01*
X133712421Y-103166966D01*
X133667088Y-103148189D01*
X133662651Y-103146091D01*
X133619378Y-103122960D01*
X133615171Y-103120438D01*
X133574372Y-103093178D01*
X133570430Y-103090254D01*
X133532501Y-103059126D01*
X133528866Y-103055831D01*
X133494169Y-103021134D01*
X133490874Y-103017499D01*
X133459746Y-102979570D01*
X133456822Y-102975628D01*
X133429562Y-102934829D01*
X133427040Y-102930622D01*
X133403909Y-102887349D01*
X133401811Y-102882912D01*
X133383034Y-102837579D01*
X133381381Y-102832960D01*
X133367137Y-102786005D01*
X133365945Y-102781244D01*
X133356373Y-102733119D01*
X133355653Y-102728266D01*
X133350843Y-102679435D01*
X133350602Y-102674534D01*
X133350602Y-102656111D01*
X133350000Y-102650000D01*
X133350000Y-102150000D01*
X133350602Y-102143889D01*
X133350602Y-102125466D01*
X133350843Y-102120565D01*
X133355653Y-102071734D01*
X133356373Y-102066881D01*
X133365945Y-102018756D01*
X133367137Y-102013995D01*
X133381381Y-101967040D01*
X133383034Y-101962421D01*
X133401811Y-101917088D01*
X133403909Y-101912651D01*
X133427040Y-101869378D01*
X133429562Y-101865171D01*
X133456822Y-101824372D01*
X133459746Y-101820430D01*
X133490874Y-101782501D01*
X133494169Y-101778866D01*
X133528866Y-101744169D01*
X133532501Y-101740874D01*
X133570430Y-101709746D01*
X133574372Y-101706822D01*
X133615171Y-101679562D01*
X133619378Y-101677040D01*
X133662651Y-101653909D01*
X133667088Y-101651811D01*
X133712421Y-101633034D01*
X133717040Y-101631381D01*
X133763995Y-101617137D01*
X133768756Y-101615945D01*
X133816881Y-101606373D01*
X133821734Y-101605653D01*
X133870565Y-101600843D01*
X133875466Y-101600602D01*
X133893889Y-101600602D01*
X133900000Y-101600000D01*
X134450000Y-101600000D01*
X134459755Y-101600961D01*
G37*
%TD*%
D10*
%TO.C,J3*%
X168000000Y-116870000D03*
X168000000Y-114330000D03*
X168000000Y-111790000D03*
X168000000Y-109250000D03*
X168000000Y-106710000D03*
X168000000Y-104170000D03*
X168000000Y-101630000D03*
D11*
X168000000Y-99090000D03*
%TD*%
D10*
%TO.C,J4*%
X174290000Y-116870000D03*
X171750000Y-116870000D03*
X174290000Y-114330000D03*
X171750000Y-114330000D03*
X174290000Y-111790000D03*
X171750000Y-111790000D03*
X174290000Y-109250000D03*
X171750000Y-109250000D03*
X174290000Y-106710000D03*
X171750000Y-106710000D03*
X174290000Y-104170000D03*
X171750000Y-104170000D03*
X174290000Y-101630000D03*
X171750000Y-101630000D03*
X174290000Y-99090000D03*
D11*
X171750000Y-99090000D03*
%TD*%
D10*
%TO.C,J6*%
X143910000Y-86000000D03*
X143910000Y-88540000D03*
X141370000Y-86000000D03*
X141370000Y-88540000D03*
X138830000Y-86000000D03*
X138830000Y-88540000D03*
X136290000Y-86000000D03*
X136290000Y-88540000D03*
X133750000Y-86000000D03*
X133750000Y-88540000D03*
X131210000Y-86000000D03*
X131210000Y-88540000D03*
X128670000Y-86000000D03*
X128670000Y-88540000D03*
X126130000Y-86000000D03*
D11*
X126130000Y-88540000D03*
%TD*%
D10*
%TO.C,J2*%
X95800000Y-93660000D03*
X98340000Y-93660000D03*
X95800000Y-96200000D03*
X98340000Y-96200000D03*
X95800000Y-98740000D03*
D11*
X98340000Y-98740000D03*
%TD*%
D19*
%TO.C,H4*%
X180000000Y-128000000D03*
%TD*%
%TO.C,H3*%
X90000000Y-128000000D03*
%TD*%
%TO.C,H2*%
X180000000Y-88000000D03*
%TD*%
%TO.C,H1*%
X90000000Y-88000000D03*
%TD*%
D20*
%TO.C,D1*%
X134500000Y-116900000D03*
X134500000Y-113600000D03*
%TD*%
%TO.C,D2*%
X136900000Y-116900000D03*
X136900000Y-113600000D03*
%TD*%
%TO.C,C21*%
G36*
G01*
X136281250Y-108900000D02*
X135318750Y-108900000D01*
G75*
G02*
X135050000Y-108631250I0J268750D01*
G01*
X135050000Y-108093750D01*
G75*
G02*
X135318750Y-107825000I268750J0D01*
G01*
X136281250Y-107825000D01*
G75*
G02*
X136550000Y-108093750I0J-268750D01*
G01*
X136550000Y-108631250D01*
G75*
G02*
X136281250Y-108900000I-268750J0D01*
G01*
G37*
G36*
G01*
X136281250Y-110775000D02*
X135318750Y-110775000D01*
G75*
G02*
X135050000Y-110506250I0J268750D01*
G01*
X135050000Y-109968750D01*
G75*
G02*
X135318750Y-109700000I268750J0D01*
G01*
X136281250Y-109700000D01*
G75*
G02*
X136550000Y-109968750I0J-268750D01*
G01*
X136550000Y-110506250D01*
G75*
G02*
X136281250Y-110775000I-268750J0D01*
G01*
G37*
%TD*%
%TO.C,C18*%
G36*
G01*
X158200000Y-107181250D02*
X158200000Y-106618750D01*
G75*
G02*
X158443750Y-106375000I243750J0D01*
G01*
X158931250Y-106375000D01*
G75*
G02*
X159175000Y-106618750I0J-243750D01*
G01*
X159175000Y-107181250D01*
G75*
G02*
X158931250Y-107425000I-243750J0D01*
G01*
X158443750Y-107425000D01*
G75*
G02*
X158200000Y-107181250I0J243750D01*
G01*
G37*
G36*
G01*
X156625000Y-107181250D02*
X156625000Y-106618750D01*
G75*
G02*
X156868750Y-106375000I243750J0D01*
G01*
X157356250Y-106375000D01*
G75*
G02*
X157600000Y-106618750I0J-243750D01*
G01*
X157600000Y-107181250D01*
G75*
G02*
X157356250Y-107425000I-243750J0D01*
G01*
X156868750Y-107425000D01*
G75*
G02*
X156625000Y-107181250I0J243750D01*
G01*
G37*
%TD*%
%TO.C,C16*%
G36*
G01*
X154623750Y-96520000D02*
X155186250Y-96520000D01*
G75*
G02*
X155430000Y-96763750I0J-243750D01*
G01*
X155430000Y-97251250D01*
G75*
G02*
X155186250Y-97495000I-243750J0D01*
G01*
X154623750Y-97495000D01*
G75*
G02*
X154380000Y-97251250I0J243750D01*
G01*
X154380000Y-96763750D01*
G75*
G02*
X154623750Y-96520000I243750J0D01*
G01*
G37*
G36*
G01*
X154623750Y-94945000D02*
X155186250Y-94945000D01*
G75*
G02*
X155430000Y-95188750I0J-243750D01*
G01*
X155430000Y-95676250D01*
G75*
G02*
X155186250Y-95920000I-243750J0D01*
G01*
X154623750Y-95920000D01*
G75*
G02*
X154380000Y-95676250I0J243750D01*
G01*
X154380000Y-95188750D01*
G75*
G02*
X154623750Y-94945000I243750J0D01*
G01*
G37*
%TD*%
%TO.C,C14*%
G36*
G01*
X154668750Y-111300000D02*
X155231250Y-111300000D01*
G75*
G02*
X155475000Y-111543750I0J-243750D01*
G01*
X155475000Y-112031250D01*
G75*
G02*
X155231250Y-112275000I-243750J0D01*
G01*
X154668750Y-112275000D01*
G75*
G02*
X154425000Y-112031250I0J243750D01*
G01*
X154425000Y-111543750D01*
G75*
G02*
X154668750Y-111300000I243750J0D01*
G01*
G37*
G36*
G01*
X154668750Y-109725000D02*
X155231250Y-109725000D01*
G75*
G02*
X155475000Y-109968750I0J-243750D01*
G01*
X155475000Y-110456250D01*
G75*
G02*
X155231250Y-110700000I-243750J0D01*
G01*
X154668750Y-110700000D01*
G75*
G02*
X154425000Y-110456250I0J243750D01*
G01*
X154425000Y-109968750D01*
G75*
G02*
X154668750Y-109725000I243750J0D01*
G01*
G37*
%TD*%
%TO.C,C12*%
G36*
G01*
X154381250Y-115050000D02*
X153818750Y-115050000D01*
G75*
G02*
X153575000Y-114806250I0J243750D01*
G01*
X153575000Y-114318750D01*
G75*
G02*
X153818750Y-114075000I243750J0D01*
G01*
X154381250Y-114075000D01*
G75*
G02*
X154625000Y-114318750I0J-243750D01*
G01*
X154625000Y-114806250D01*
G75*
G02*
X154381250Y-115050000I-243750J0D01*
G01*
G37*
G36*
G01*
X154381250Y-116625000D02*
X153818750Y-116625000D01*
G75*
G02*
X153575000Y-116381250I0J243750D01*
G01*
X153575000Y-115893750D01*
G75*
G02*
X153818750Y-115650000I243750J0D01*
G01*
X154381250Y-115650000D01*
G75*
G02*
X154625000Y-115893750I0J-243750D01*
G01*
X154625000Y-116381250D01*
G75*
G02*
X154381250Y-116625000I-243750J0D01*
G01*
G37*
%TD*%
%TO.C,C11*%
G36*
G01*
X153068750Y-111300000D02*
X153631250Y-111300000D01*
G75*
G02*
X153875000Y-111543750I0J-243750D01*
G01*
X153875000Y-112031250D01*
G75*
G02*
X153631250Y-112275000I-243750J0D01*
G01*
X153068750Y-112275000D01*
G75*
G02*
X152825000Y-112031250I0J243750D01*
G01*
X152825000Y-111543750D01*
G75*
G02*
X153068750Y-111300000I243750J0D01*
G01*
G37*
G36*
G01*
X153068750Y-109725000D02*
X153631250Y-109725000D01*
G75*
G02*
X153875000Y-109968750I0J-243750D01*
G01*
X153875000Y-110456250D01*
G75*
G02*
X153631250Y-110700000I-243750J0D01*
G01*
X153068750Y-110700000D01*
G75*
G02*
X152825000Y-110456250I0J243750D01*
G01*
X152825000Y-109968750D01*
G75*
G02*
X153068750Y-109725000I243750J0D01*
G01*
G37*
%TD*%
%TO.C,C10*%
G36*
G01*
X141518750Y-116850000D02*
X142081250Y-116850000D01*
G75*
G02*
X142325000Y-117093750I0J-243750D01*
G01*
X142325000Y-117581250D01*
G75*
G02*
X142081250Y-117825000I-243750J0D01*
G01*
X141518750Y-117825000D01*
G75*
G02*
X141275000Y-117581250I0J243750D01*
G01*
X141275000Y-117093750D01*
G75*
G02*
X141518750Y-116850000I243750J0D01*
G01*
G37*
G36*
G01*
X141518750Y-115275000D02*
X142081250Y-115275000D01*
G75*
G02*
X142325000Y-115518750I0J-243750D01*
G01*
X142325000Y-116006250D01*
G75*
G02*
X142081250Y-116250000I-243750J0D01*
G01*
X141518750Y-116250000D01*
G75*
G02*
X141275000Y-116006250I0J243750D01*
G01*
X141275000Y-115518750D01*
G75*
G02*
X141518750Y-115275000I243750J0D01*
G01*
G37*
%TD*%
%TO.C,C9*%
G36*
G01*
X139118750Y-116850000D02*
X139681250Y-116850000D01*
G75*
G02*
X139925000Y-117093750I0J-243750D01*
G01*
X139925000Y-117581250D01*
G75*
G02*
X139681250Y-117825000I-243750J0D01*
G01*
X139118750Y-117825000D01*
G75*
G02*
X138875000Y-117581250I0J243750D01*
G01*
X138875000Y-117093750D01*
G75*
G02*
X139118750Y-116850000I243750J0D01*
G01*
G37*
G36*
G01*
X139118750Y-115275000D02*
X139681250Y-115275000D01*
G75*
G02*
X139925000Y-115518750I0J-243750D01*
G01*
X139925000Y-116006250D01*
G75*
G02*
X139681250Y-116250000I-243750J0D01*
G01*
X139118750Y-116250000D01*
G75*
G02*
X138875000Y-116006250I0J243750D01*
G01*
X138875000Y-115518750D01*
G75*
G02*
X139118750Y-115275000I243750J0D01*
G01*
G37*
%TD*%
%TO.C,C8*%
G36*
G01*
X147800000Y-117068750D02*
X147800000Y-117631250D01*
G75*
G02*
X147556250Y-117875000I-243750J0D01*
G01*
X147068750Y-117875000D01*
G75*
G02*
X146825000Y-117631250I0J243750D01*
G01*
X146825000Y-117068750D01*
G75*
G02*
X147068750Y-116825000I243750J0D01*
G01*
X147556250Y-116825000D01*
G75*
G02*
X147800000Y-117068750I0J-243750D01*
G01*
G37*
G36*
G01*
X149375000Y-117068750D02*
X149375000Y-117631250D01*
G75*
G02*
X149131250Y-117875000I-243750J0D01*
G01*
X148643750Y-117875000D01*
G75*
G02*
X148400000Y-117631250I0J243750D01*
G01*
X148400000Y-117068750D01*
G75*
G02*
X148643750Y-116825000I243750J0D01*
G01*
X149131250Y-116825000D01*
G75*
G02*
X149375000Y-117068750I0J-243750D01*
G01*
G37*
%TD*%
%TO.C,C7*%
G36*
G01*
X145000000Y-117631250D02*
X145000000Y-117068750D01*
G75*
G02*
X145243750Y-116825000I243750J0D01*
G01*
X145731250Y-116825000D01*
G75*
G02*
X145975000Y-117068750I0J-243750D01*
G01*
X145975000Y-117631250D01*
G75*
G02*
X145731250Y-117875000I-243750J0D01*
G01*
X145243750Y-117875000D01*
G75*
G02*
X145000000Y-117631250I0J243750D01*
G01*
G37*
G36*
G01*
X143425000Y-117631250D02*
X143425000Y-117068750D01*
G75*
G02*
X143668750Y-116825000I243750J0D01*
G01*
X144156250Y-116825000D01*
G75*
G02*
X144400000Y-117068750I0J-243750D01*
G01*
X144400000Y-117631250D01*
G75*
G02*
X144156250Y-117875000I-243750J0D01*
G01*
X143668750Y-117875000D01*
G75*
G02*
X143425000Y-117631250I0J243750D01*
G01*
G37*
%TD*%
%TO.C,C4*%
G36*
G01*
X111318750Y-94000000D02*
X111881250Y-94000000D01*
G75*
G02*
X112125000Y-94243750I0J-243750D01*
G01*
X112125000Y-94731250D01*
G75*
G02*
X111881250Y-94975000I-243750J0D01*
G01*
X111318750Y-94975000D01*
G75*
G02*
X111075000Y-94731250I0J243750D01*
G01*
X111075000Y-94243750D01*
G75*
G02*
X111318750Y-94000000I243750J0D01*
G01*
G37*
G36*
G01*
X111318750Y-92425000D02*
X111881250Y-92425000D01*
G75*
G02*
X112125000Y-92668750I0J-243750D01*
G01*
X112125000Y-93156250D01*
G75*
G02*
X111881250Y-93400000I-243750J0D01*
G01*
X111318750Y-93400000D01*
G75*
G02*
X111075000Y-93156250I0J243750D01*
G01*
X111075000Y-92668750D01*
G75*
G02*
X111318750Y-92425000I243750J0D01*
G01*
G37*
%TD*%
%TO.C,C3*%
G36*
G01*
X111318750Y-99100000D02*
X111881250Y-99100000D01*
G75*
G02*
X112125000Y-99343750I0J-243750D01*
G01*
X112125000Y-99831250D01*
G75*
G02*
X111881250Y-100075000I-243750J0D01*
G01*
X111318750Y-100075000D01*
G75*
G02*
X111075000Y-99831250I0J243750D01*
G01*
X111075000Y-99343750D01*
G75*
G02*
X111318750Y-99100000I243750J0D01*
G01*
G37*
G36*
G01*
X111318750Y-97525000D02*
X111881250Y-97525000D01*
G75*
G02*
X112125000Y-97768750I0J-243750D01*
G01*
X112125000Y-98256250D01*
G75*
G02*
X111881250Y-98500000I-243750J0D01*
G01*
X111318750Y-98500000D01*
G75*
G02*
X111075000Y-98256250I0J243750D01*
G01*
X111075000Y-97768750D01*
G75*
G02*
X111318750Y-97525000I243750J0D01*
G01*
G37*
%TD*%
%TO.C,C2*%
G36*
G01*
X105418750Y-94000000D02*
X105981250Y-94000000D01*
G75*
G02*
X106225000Y-94243750I0J-243750D01*
G01*
X106225000Y-94731250D01*
G75*
G02*
X105981250Y-94975000I-243750J0D01*
G01*
X105418750Y-94975000D01*
G75*
G02*
X105175000Y-94731250I0J243750D01*
G01*
X105175000Y-94243750D01*
G75*
G02*
X105418750Y-94000000I243750J0D01*
G01*
G37*
G36*
G01*
X105418750Y-92425000D02*
X105981250Y-92425000D01*
G75*
G02*
X106225000Y-92668750I0J-243750D01*
G01*
X106225000Y-93156250D01*
G75*
G02*
X105981250Y-93400000I-243750J0D01*
G01*
X105418750Y-93400000D01*
G75*
G02*
X105175000Y-93156250I0J243750D01*
G01*
X105175000Y-92668750D01*
G75*
G02*
X105418750Y-92425000I243750J0D01*
G01*
G37*
%TD*%
%TO.C,C1*%
G36*
G01*
X105418750Y-99200000D02*
X105981250Y-99200000D01*
G75*
G02*
X106225000Y-99443750I0J-243750D01*
G01*
X106225000Y-99931250D01*
G75*
G02*
X105981250Y-100175000I-243750J0D01*
G01*
X105418750Y-100175000D01*
G75*
G02*
X105175000Y-99931250I0J243750D01*
G01*
X105175000Y-99443750D01*
G75*
G02*
X105418750Y-99200000I243750J0D01*
G01*
G37*
G36*
G01*
X105418750Y-97625000D02*
X105981250Y-97625000D01*
G75*
G02*
X106225000Y-97868750I0J-243750D01*
G01*
X106225000Y-98356250D01*
G75*
G02*
X105981250Y-98600000I-243750J0D01*
G01*
X105418750Y-98600000D01*
G75*
G02*
X105175000Y-98356250I0J243750D01*
G01*
X105175000Y-97868750D01*
G75*
G02*
X105418750Y-97625000I243750J0D01*
G01*
G37*
%TD*%
D21*
%TO.C,BT1*%
X90400000Y-118500000D03*
D22*
X90400000Y-113800000D03*
X90400000Y-123200000D03*
%TD*%
%TO.C,R7*%
G36*
G01*
X103381250Y-108100000D02*
X102818750Y-108100000D01*
G75*
G02*
X102575000Y-107856250I0J243750D01*
G01*
X102575000Y-107368750D01*
G75*
G02*
X102818750Y-107125000I243750J0D01*
G01*
X103381250Y-107125000D01*
G75*
G02*
X103625000Y-107368750I0J-243750D01*
G01*
X103625000Y-107856250D01*
G75*
G02*
X103381250Y-108100000I-243750J0D01*
G01*
G37*
G36*
G01*
X103381250Y-109675000D02*
X102818750Y-109675000D01*
G75*
G02*
X102575000Y-109431250I0J243750D01*
G01*
X102575000Y-108943750D01*
G75*
G02*
X102818750Y-108700000I243750J0D01*
G01*
X103381250Y-108700000D01*
G75*
G02*
X103625000Y-108943750I0J-243750D01*
G01*
X103625000Y-109431250D01*
G75*
G02*
X103381250Y-109675000I-243750J0D01*
G01*
G37*
%TD*%
D12*
%TO.C,JP1*%
G36*
X102300602Y-104343889D02*
G01*
X102300602Y-104325466D01*
X102300843Y-104320565D01*
X102305653Y-104271734D01*
X102306373Y-104266881D01*
X102315945Y-104218756D01*
X102317137Y-104213995D01*
X102331381Y-104167040D01*
X102333034Y-104162421D01*
X102351811Y-104117088D01*
X102353909Y-104112651D01*
X102377040Y-104069378D01*
X102379562Y-104065171D01*
X102406822Y-104024372D01*
X102409746Y-104020430D01*
X102440874Y-103982501D01*
X102444169Y-103978866D01*
X102478866Y-103944169D01*
X102482501Y-103940874D01*
X102520430Y-103909746D01*
X102524372Y-103906822D01*
X102565171Y-103879562D01*
X102569378Y-103877040D01*
X102612651Y-103853909D01*
X102617088Y-103851811D01*
X102662421Y-103833034D01*
X102667040Y-103831381D01*
X102713995Y-103817137D01*
X102718756Y-103815945D01*
X102766881Y-103806373D01*
X102771734Y-103805653D01*
X102820565Y-103800843D01*
X102825466Y-103800602D01*
X102843889Y-103800602D01*
X102850000Y-103800000D01*
X103350000Y-103800000D01*
X103356111Y-103800602D01*
X103374534Y-103800602D01*
X103379435Y-103800843D01*
X103428266Y-103805653D01*
X103433119Y-103806373D01*
X103481244Y-103815945D01*
X103486005Y-103817137D01*
X103532960Y-103831381D01*
X103537579Y-103833034D01*
X103582912Y-103851811D01*
X103587349Y-103853909D01*
X103630622Y-103877040D01*
X103634829Y-103879562D01*
X103675628Y-103906822D01*
X103679570Y-103909746D01*
X103717499Y-103940874D01*
X103721134Y-103944169D01*
X103755831Y-103978866D01*
X103759126Y-103982501D01*
X103790254Y-104020430D01*
X103793178Y-104024372D01*
X103820438Y-104065171D01*
X103822960Y-104069378D01*
X103846091Y-104112651D01*
X103848189Y-104117088D01*
X103866966Y-104162421D01*
X103868619Y-104167040D01*
X103882863Y-104213995D01*
X103884055Y-104218756D01*
X103893627Y-104266881D01*
X103894347Y-104271734D01*
X103899157Y-104320565D01*
X103899398Y-104325466D01*
X103899398Y-104343889D01*
X103900000Y-104350000D01*
X103900000Y-104850000D01*
X103899039Y-104859755D01*
X103896194Y-104869134D01*
X103891573Y-104877779D01*
X103885355Y-104885355D01*
X103877779Y-104891573D01*
X103869134Y-104896194D01*
X103859755Y-104899039D01*
X103850000Y-104900000D01*
X102350000Y-104900000D01*
X102340245Y-104899039D01*
X102330866Y-104896194D01*
X102322221Y-104891573D01*
X102314645Y-104885355D01*
X102308427Y-104877779D01*
X102303806Y-104869134D01*
X102300961Y-104859755D01*
X102300000Y-104850000D01*
X102300000Y-104350000D01*
X102300602Y-104343889D01*
G37*
G36*
X102300961Y-105140245D02*
G01*
X102303806Y-105130866D01*
X102308427Y-105122221D01*
X102314645Y-105114645D01*
X102322221Y-105108427D01*
X102330866Y-105103806D01*
X102340245Y-105100961D01*
X102350000Y-105100000D01*
X103850000Y-105100000D01*
X103859755Y-105100961D01*
X103869134Y-105103806D01*
X103877779Y-105108427D01*
X103885355Y-105114645D01*
X103891573Y-105122221D01*
X103896194Y-105130866D01*
X103899039Y-105140245D01*
X103900000Y-105150000D01*
X103900000Y-105650000D01*
X103899398Y-105656111D01*
X103899398Y-105674534D01*
X103899157Y-105679435D01*
X103894347Y-105728266D01*
X103893627Y-105733119D01*
X103884055Y-105781244D01*
X103882863Y-105786005D01*
X103868619Y-105832960D01*
X103866966Y-105837579D01*
X103848189Y-105882912D01*
X103846091Y-105887349D01*
X103822960Y-105930622D01*
X103820438Y-105934829D01*
X103793178Y-105975628D01*
X103790254Y-105979570D01*
X103759126Y-106017499D01*
X103755831Y-106021134D01*
X103721134Y-106055831D01*
X103717499Y-106059126D01*
X103679570Y-106090254D01*
X103675628Y-106093178D01*
X103634829Y-106120438D01*
X103630622Y-106122960D01*
X103587349Y-106146091D01*
X103582912Y-106148189D01*
X103537579Y-106166966D01*
X103532960Y-106168619D01*
X103486005Y-106182863D01*
X103481244Y-106184055D01*
X103433119Y-106193627D01*
X103428266Y-106194347D01*
X103379435Y-106199157D01*
X103374534Y-106199398D01*
X103356111Y-106199398D01*
X103350000Y-106200000D01*
X102850000Y-106200000D01*
X102843889Y-106199398D01*
X102825466Y-106199398D01*
X102820565Y-106199157D01*
X102771734Y-106194347D01*
X102766881Y-106193627D01*
X102718756Y-106184055D01*
X102713995Y-106182863D01*
X102667040Y-106168619D01*
X102662421Y-106166966D01*
X102617088Y-106148189D01*
X102612651Y-106146091D01*
X102569378Y-106122960D01*
X102565171Y-106120438D01*
X102524372Y-106093178D01*
X102520430Y-106090254D01*
X102482501Y-106059126D01*
X102478866Y-106055831D01*
X102444169Y-106021134D01*
X102440874Y-106017499D01*
X102409746Y-105979570D01*
X102406822Y-105975628D01*
X102379562Y-105934829D01*
X102377040Y-105930622D01*
X102353909Y-105887349D01*
X102351811Y-105882912D01*
X102333034Y-105837579D01*
X102331381Y-105832960D01*
X102317137Y-105786005D01*
X102315945Y-105781244D01*
X102306373Y-105733119D01*
X102305653Y-105728266D01*
X102300843Y-105679435D01*
X102300602Y-105674534D01*
X102300602Y-105656111D01*
X102300000Y-105650000D01*
X102300000Y-105150000D01*
X102300961Y-105140245D01*
G37*
%TD*%
D23*
%TO.C,U5*%
X114100000Y-105140000D03*
X121720000Y-102600000D03*
X114100000Y-102600000D03*
D24*
X121720000Y-105140000D03*
%TD*%
D23*
%TO.C,U4*%
X121720000Y-108460000D03*
X114100000Y-111000000D03*
X121720000Y-111000000D03*
D24*
X114100000Y-108460000D03*
%TD*%
%TO.C,U3*%
G36*
G01*
X107250000Y-108530000D02*
X107250000Y-108880000D01*
G75*
G02*
X107075000Y-109055000I-175000J0D01*
G01*
X105375000Y-109055000D01*
G75*
G02*
X105200000Y-108880000I0J175000D01*
G01*
X105200000Y-108530000D01*
G75*
G02*
X105375000Y-108355000I175000J0D01*
G01*
X107075000Y-108355000D01*
G75*
G02*
X107250000Y-108530000I0J-175000D01*
G01*
G37*
G36*
G01*
X107250000Y-107260000D02*
X107250000Y-107610000D01*
G75*
G02*
X107075000Y-107785000I-175000J0D01*
G01*
X105375000Y-107785000D01*
G75*
G02*
X105200000Y-107610000I0J175000D01*
G01*
X105200000Y-107260000D01*
G75*
G02*
X105375000Y-107085000I175000J0D01*
G01*
X107075000Y-107085000D01*
G75*
G02*
X107250000Y-107260000I0J-175000D01*
G01*
G37*
G36*
G01*
X107250000Y-105990000D02*
X107250000Y-106340000D01*
G75*
G02*
X107075000Y-106515000I-175000J0D01*
G01*
X105375000Y-106515000D01*
G75*
G02*
X105200000Y-106340000I0J175000D01*
G01*
X105200000Y-105990000D01*
G75*
G02*
X105375000Y-105815000I175000J0D01*
G01*
X107075000Y-105815000D01*
G75*
G02*
X107250000Y-105990000I0J-175000D01*
G01*
G37*
G36*
G01*
X107250000Y-104720000D02*
X107250000Y-105070000D01*
G75*
G02*
X107075000Y-105245000I-175000J0D01*
G01*
X105375000Y-105245000D01*
G75*
G02*
X105200000Y-105070000I0J175000D01*
G01*
X105200000Y-104720000D01*
G75*
G02*
X105375000Y-104545000I175000J0D01*
G01*
X107075000Y-104545000D01*
G75*
G02*
X107250000Y-104720000I0J-175000D01*
G01*
G37*
G36*
G01*
X112200000Y-104720000D02*
X112200000Y-105070000D01*
G75*
G02*
X112025000Y-105245000I-175000J0D01*
G01*
X110325000Y-105245000D01*
G75*
G02*
X110150000Y-105070000I0J175000D01*
G01*
X110150000Y-104720000D01*
G75*
G02*
X110325000Y-104545000I175000J0D01*
G01*
X112025000Y-104545000D01*
G75*
G02*
X112200000Y-104720000I0J-175000D01*
G01*
G37*
G36*
G01*
X112200000Y-105990000D02*
X112200000Y-106340000D01*
G75*
G02*
X112025000Y-106515000I-175000J0D01*
G01*
X110325000Y-106515000D01*
G75*
G02*
X110150000Y-106340000I0J175000D01*
G01*
X110150000Y-105990000D01*
G75*
G02*
X110325000Y-105815000I175000J0D01*
G01*
X112025000Y-105815000D01*
G75*
G02*
X112200000Y-105990000I0J-175000D01*
G01*
G37*
G36*
G01*
X112200000Y-107260000D02*
X112200000Y-107610000D01*
G75*
G02*
X112025000Y-107785000I-175000J0D01*
G01*
X110325000Y-107785000D01*
G75*
G02*
X110150000Y-107610000I0J175000D01*
G01*
X110150000Y-107260000D01*
G75*
G02*
X110325000Y-107085000I175000J0D01*
G01*
X112025000Y-107085000D01*
G75*
G02*
X112200000Y-107260000I0J-175000D01*
G01*
G37*
G36*
G01*
X112200000Y-108530000D02*
X112200000Y-108880000D01*
G75*
G02*
X112025000Y-109055000I-175000J0D01*
G01*
X110325000Y-109055000D01*
G75*
G02*
X110150000Y-108880000I0J175000D01*
G01*
X110150000Y-108530000D01*
G75*
G02*
X110325000Y-108355000I175000J0D01*
G01*
X112025000Y-108355000D01*
G75*
G02*
X112200000Y-108530000I0J-175000D01*
G01*
G37*
%TD*%
%TO.C,R11*%
G36*
G01*
X123981250Y-103500000D02*
X123418750Y-103500000D01*
G75*
G02*
X123175000Y-103256250I0J243750D01*
G01*
X123175000Y-102768750D01*
G75*
G02*
X123418750Y-102525000I243750J0D01*
G01*
X123981250Y-102525000D01*
G75*
G02*
X124225000Y-102768750I0J-243750D01*
G01*
X124225000Y-103256250D01*
G75*
G02*
X123981250Y-103500000I-243750J0D01*
G01*
G37*
G36*
G01*
X123981250Y-105075000D02*
X123418750Y-105075000D01*
G75*
G02*
X123175000Y-104831250I0J243750D01*
G01*
X123175000Y-104343750D01*
G75*
G02*
X123418750Y-104100000I243750J0D01*
G01*
X123981250Y-104100000D01*
G75*
G02*
X124225000Y-104343750I0J-243750D01*
G01*
X124225000Y-104831250D01*
G75*
G02*
X123981250Y-105075000I-243750J0D01*
G01*
G37*
%TD*%
%TO.C,R10*%
G36*
G01*
X123981250Y-109500000D02*
X123418750Y-109500000D01*
G75*
G02*
X123175000Y-109256250I0J243750D01*
G01*
X123175000Y-108768750D01*
G75*
G02*
X123418750Y-108525000I243750J0D01*
G01*
X123981250Y-108525000D01*
G75*
G02*
X124225000Y-108768750I0J-243750D01*
G01*
X124225000Y-109256250D01*
G75*
G02*
X123981250Y-109500000I-243750J0D01*
G01*
G37*
G36*
G01*
X123981250Y-111075000D02*
X123418750Y-111075000D01*
G75*
G02*
X123175000Y-110831250I0J243750D01*
G01*
X123175000Y-110343750D01*
G75*
G02*
X123418750Y-110100000I243750J0D01*
G01*
X123981250Y-110100000D01*
G75*
G02*
X124225000Y-110343750I0J-243750D01*
G01*
X124225000Y-110831250D01*
G75*
G02*
X123981250Y-111075000I-243750J0D01*
G01*
G37*
%TD*%
%TO.C,R9*%
G36*
G01*
X108981250Y-110900000D02*
X108418750Y-110900000D01*
G75*
G02*
X108175000Y-110656250I0J243750D01*
G01*
X108175000Y-110168750D01*
G75*
G02*
X108418750Y-109925000I243750J0D01*
G01*
X108981250Y-109925000D01*
G75*
G02*
X109225000Y-110168750I0J-243750D01*
G01*
X109225000Y-110656250D01*
G75*
G02*
X108981250Y-110900000I-243750J0D01*
G01*
G37*
G36*
G01*
X108981250Y-112475000D02*
X108418750Y-112475000D01*
G75*
G02*
X108175000Y-112231250I0J243750D01*
G01*
X108175000Y-111743750D01*
G75*
G02*
X108418750Y-111500000I243750J0D01*
G01*
X108981250Y-111500000D01*
G75*
G02*
X109225000Y-111743750I0J-243750D01*
G01*
X109225000Y-112231250D01*
G75*
G02*
X108981250Y-112475000I-243750J0D01*
G01*
G37*
%TD*%
%TO.C,R8*%
G36*
G01*
X110781250Y-110900000D02*
X110218750Y-110900000D01*
G75*
G02*
X109975000Y-110656250I0J243750D01*
G01*
X109975000Y-110168750D01*
G75*
G02*
X110218750Y-109925000I243750J0D01*
G01*
X110781250Y-109925000D01*
G75*
G02*
X111025000Y-110168750I0J-243750D01*
G01*
X111025000Y-110656250D01*
G75*
G02*
X110781250Y-110900000I-243750J0D01*
G01*
G37*
G36*
G01*
X110781250Y-112475000D02*
X110218750Y-112475000D01*
G75*
G02*
X109975000Y-112231250I0J243750D01*
G01*
X109975000Y-111743750D01*
G75*
G02*
X110218750Y-111500000I243750J0D01*
G01*
X110781250Y-111500000D01*
G75*
G02*
X111025000Y-111743750I0J-243750D01*
G01*
X111025000Y-112231250D01*
G75*
G02*
X110781250Y-112475000I-243750J0D01*
G01*
G37*
%TD*%
%TO.C,C5*%
G36*
G01*
X106818750Y-111500000D02*
X107381250Y-111500000D01*
G75*
G02*
X107625000Y-111743750I0J-243750D01*
G01*
X107625000Y-112231250D01*
G75*
G02*
X107381250Y-112475000I-243750J0D01*
G01*
X106818750Y-112475000D01*
G75*
G02*
X106575000Y-112231250I0J243750D01*
G01*
X106575000Y-111743750D01*
G75*
G02*
X106818750Y-111500000I243750J0D01*
G01*
G37*
G36*
G01*
X106818750Y-109925000D02*
X107381250Y-109925000D01*
G75*
G02*
X107625000Y-110168750I0J-243750D01*
G01*
X107625000Y-110656250D01*
G75*
G02*
X107381250Y-110900000I-243750J0D01*
G01*
X106818750Y-110900000D01*
G75*
G02*
X106575000Y-110656250I0J243750D01*
G01*
X106575000Y-110168750D01*
G75*
G02*
X106818750Y-109925000I243750J0D01*
G01*
G37*
%TD*%
M02*
