M48
; DRILL file {KiCad (5.1.6)-1} date 11/19/20 20:50:08
; FORMAT={-:-/ absolute / inch / decimal}
; #@! TF.CreationDate,2020-11-19T20:50:08+01:00
; #@! TF.GenerationSoftware,Kicad,Pcbnew,(5.1.6)-1
; #@! TF.FileFunction,Plated,1,2,PTH
FMAT,2
INCH
T1C0.0118
T2C0.0157
T3C0.0354
T4C0.0394
T5C0.0433
%
G90
G05
T1
X4.6969Y-4.3543
X4.8898Y-3.9449
X4.8898Y-4.0157
X4.9016Y-3.872
X4.9114Y-3.8406
X4.9409Y-3.4291
X4.9567Y-3.8386
X4.9606Y-3.5669
X4.9882Y-3.4646
X4.9882Y-3.5039
X4.9882Y-3.5354
X4.9882Y-4.2677
X5.0098Y-3.8957
X5.1339Y-4.2992
X5.1417Y-3.3583
X5.1417Y-3.4331
X5.185Y-3.5354
X5.189Y-3.5039
X5.2283Y-4.3307
X5.2559Y-3.252
X5.2598Y-4.1457
X5.2913Y-3.5
X5.4252Y-3.252
X5.4488Y-4.2992
X5.5039Y-3.5669
X5.5118Y-4.2677
X5.5276Y-4.0276
X5.5709Y-3.5669
X5.6339Y-4.2087
X5.6378Y-4.0276
X5.6417Y-3.3346
X5.6417Y-3.378
X5.6417Y-3.4213
X5.7402Y-3.5551
X5.7717Y-4.2677
X5.7835Y-4.0315
X5.7913Y-4.4646
X5.815Y-4.1417
X5.8465Y-3.7323
X5.8819Y-4.1417
X5.9173Y-3.374
T2
X4.7126Y-3.5669
X4.7205Y-4.2913
X4.752Y-3.5669
X4.7913Y-3.5669
X5.8898Y-3.5276
X5.8898Y-3.563
X5.9843Y-4.4882
T3
X4.4862Y-2.9787
X4.4862Y-3.0787
X6.1201Y-2.9787
X6.1201Y-3.0787
T4
X6.0281Y-3.2965
X6.0281Y-3.3965
X6.0281Y-3.4965
X6.0281Y-3.5965
X6.0281Y-3.6965
X6.0281Y-3.7965
X6.0281Y-3.8965
X6.0281Y-3.9965
X6.0281Y-4.0965
X6.0281Y-4.1965
X6.0281Y-4.2965
X6.0281Y-4.3965
X6.1281Y-3.2965
X6.1281Y-3.3965
X6.1281Y-3.4965
X6.1281Y-3.5965
X6.1281Y-3.6965
X6.1281Y-3.7965
X6.1281Y-3.8965
X6.1281Y-3.9965
X6.1281Y-4.0965
X6.1281Y-4.1965
X6.1281Y-4.2965
X6.1281Y-4.3965
X4.7531Y-4.5715
X4.7531Y-4.6715
X4.8531Y-4.5715
X4.8531Y-4.6715
X4.9531Y-4.5715
X4.9531Y-4.6715
X5.0531Y-4.5715
X5.0531Y-4.6715
X5.1531Y-4.5715
X5.1531Y-4.6715
X5.2531Y-4.5715
X5.2531Y-4.6715
X5.3531Y-4.5715
X5.3531Y-4.6715
X5.4531Y-4.5715
X5.4531Y-4.6715
X5.5531Y-4.5715
X5.5531Y-4.6715
X5.6531Y-4.5715
X5.6531Y-4.6715
X5.7531Y-4.5715
X5.7531Y-4.6715
X5.8531Y-4.5715
X5.8531Y-4.6715
X5.5531Y-3.0215
X5.5531Y-3.1215
X5.6531Y-3.0215
X5.6531Y-3.1215
X5.7531Y-3.0215
X5.7531Y-3.1215
X5.8531Y-3.0215
X5.8531Y-3.1215
X4.7531Y-3.0215
X4.7531Y-3.1215
X4.8531Y-3.0215
X4.8531Y-3.1215
X4.9531Y-3.0215
X4.9531Y-3.1215
X5.0531Y-3.0215
X5.0531Y-3.1215
X5.1531Y-3.0215
X5.1531Y-3.1215
X5.2531Y-3.0215
X5.2531Y-3.1215
X4.4781Y-3.2965
X4.4781Y-3.3965
X4.4781Y-3.4965
X4.4781Y-3.5965
X4.4781Y-3.6965
X4.4781Y-3.7965
X4.4781Y-3.8965
X4.4781Y-3.9965
X4.4781Y-4.0965
X4.4781Y-4.1965
X4.4781Y-4.2965
X4.4781Y-4.3965
X4.5781Y-3.2965
X4.5781Y-3.3965
X4.5781Y-3.4965
X4.5781Y-3.5965
X4.5781Y-3.6965
X4.5781Y-3.7965
X4.5781Y-3.8965
X4.5781Y-3.9965
X4.5781Y-4.0965
X4.5781Y-4.1965
X4.5781Y-4.2965
X4.5781Y-4.3965
T5
X4.3976Y-4.5748
X4.3976Y-4.752
X4.6535Y-4.5748
X4.6535Y-4.752
X5.9528Y-4.5748
X5.9528Y-4.752
X6.2087Y-4.5748
X6.2087Y-4.752
T0
M30
