%TF.GenerationSoftware,KiCad,Pcbnew,(5.1.6)-1*%
%TF.CreationDate,2020-11-19T20:50:07+01:00*%
%TF.ProjectId,F373RCT6_MSDB,46333733-5243-4543-965f-4d5344422e6b,rev?*%
%TF.SameCoordinates,Original*%
%TF.FileFunction,Soldermask,Top*%
%TF.FilePolarity,Negative*%
%FSLAX46Y46*%
G04 Gerber Fmt 4.6, Leading zero omitted, Abs format (unit mm)*
G04 Created by KiCad (PCBNEW (5.1.6)-1) date 2020-11-19 20:50:07*
%MOMM*%
%LPD*%
G01*
G04 APERTURE LIST*
%ADD10C,2.100000*%
%ADD11C,1.900000*%
%ADD12R,1.900000X1.900000*%
%ADD13O,1.800000X1.800000*%
%ADD14R,1.800000X1.800000*%
%ADD15R,2.100000X1.600000*%
%ADD16R,2.100000X3.900000*%
%ADD17R,1.900000X1.100000*%
%ADD18R,2.500000X2.100000*%
%ADD19R,1.100000X1.600000*%
%ADD20C,0.100000*%
%ADD21R,1.600000X1.100000*%
G04 APERTURE END LIST*
D10*
%TO.C,SW2*%
X157700000Y-116200000D03*
X157700000Y-120700000D03*
X151200000Y-116200000D03*
X151200000Y-120700000D03*
%TD*%
%TO.C,SW1*%
X118200000Y-116200000D03*
X118200000Y-120700000D03*
X111700000Y-116200000D03*
X111700000Y-120700000D03*
%TD*%
%TO.C,C19*%
G36*
G01*
X149400000Y-113681250D02*
X149400000Y-113118750D01*
G75*
G02*
X149643750Y-112875000I243750J0D01*
G01*
X150131250Y-112875000D01*
G75*
G02*
X150375000Y-113118750I0J-243750D01*
G01*
X150375000Y-113681250D01*
G75*
G02*
X150131250Y-113925000I-243750J0D01*
G01*
X149643750Y-113925000D01*
G75*
G02*
X149400000Y-113681250I0J243750D01*
G01*
G37*
G36*
G01*
X147825000Y-113681250D02*
X147825000Y-113118750D01*
G75*
G02*
X148068750Y-112875000I243750J0D01*
G01*
X148556250Y-112875000D01*
G75*
G02*
X148800000Y-113118750I0J-243750D01*
G01*
X148800000Y-113681250D01*
G75*
G02*
X148556250Y-113925000I-243750J0D01*
G01*
X148068750Y-113925000D01*
G75*
G02*
X147825000Y-113681250I0J243750D01*
G01*
G37*
%TD*%
%TO.C,C7*%
G36*
G01*
X119018750Y-112900000D02*
X119581250Y-112900000D01*
G75*
G02*
X119825000Y-113143750I0J-243750D01*
G01*
X119825000Y-113631250D01*
G75*
G02*
X119581250Y-113875000I-243750J0D01*
G01*
X119018750Y-113875000D01*
G75*
G02*
X118775000Y-113631250I0J243750D01*
G01*
X118775000Y-113143750D01*
G75*
G02*
X119018750Y-112900000I243750J0D01*
G01*
G37*
G36*
G01*
X119018750Y-111325000D02*
X119581250Y-111325000D01*
G75*
G02*
X119825000Y-111568750I0J-243750D01*
G01*
X119825000Y-112056250D01*
G75*
G02*
X119581250Y-112300000I-243750J0D01*
G01*
X119018750Y-112300000D01*
G75*
G02*
X118775000Y-112056250I0J243750D01*
G01*
X118775000Y-111568750D01*
G75*
G02*
X119018750Y-111325000I243750J0D01*
G01*
G37*
%TD*%
%TO.C,R5*%
G36*
G01*
X152181250Y-76600000D02*
X151618750Y-76600000D01*
G75*
G02*
X151375000Y-76356250I0J243750D01*
G01*
X151375000Y-75868750D01*
G75*
G02*
X151618750Y-75625000I243750J0D01*
G01*
X152181250Y-75625000D01*
G75*
G02*
X152425000Y-75868750I0J-243750D01*
G01*
X152425000Y-76356250D01*
G75*
G02*
X152181250Y-76600000I-243750J0D01*
G01*
G37*
G36*
G01*
X152181250Y-78175000D02*
X151618750Y-78175000D01*
G75*
G02*
X151375000Y-77931250I0J243750D01*
G01*
X151375000Y-77443750D01*
G75*
G02*
X151618750Y-77200000I243750J0D01*
G01*
X152181250Y-77200000D01*
G75*
G02*
X152425000Y-77443750I0J-243750D01*
G01*
X152425000Y-77931250D01*
G75*
G02*
X152181250Y-78175000I-243750J0D01*
G01*
G37*
%TD*%
%TO.C,R4*%
G36*
G01*
X114400000Y-80418750D02*
X114400000Y-80981250D01*
G75*
G02*
X114156250Y-81225000I-243750J0D01*
G01*
X113668750Y-81225000D01*
G75*
G02*
X113425000Y-80981250I0J243750D01*
G01*
X113425000Y-80418750D01*
G75*
G02*
X113668750Y-80175000I243750J0D01*
G01*
X114156250Y-80175000D01*
G75*
G02*
X114400000Y-80418750I0J-243750D01*
G01*
G37*
G36*
G01*
X115975000Y-80418750D02*
X115975000Y-80981250D01*
G75*
G02*
X115731250Y-81225000I-243750J0D01*
G01*
X115243750Y-81225000D01*
G75*
G02*
X115000000Y-80981250I0J243750D01*
G01*
X115000000Y-80418750D01*
G75*
G02*
X115243750Y-80175000I243750J0D01*
G01*
X115731250Y-80175000D01*
G75*
G02*
X115975000Y-80418750I0J-243750D01*
G01*
G37*
%TD*%
D11*
%TO.C,D2*%
X155450000Y-75660000D03*
D12*
X155450000Y-78200000D03*
%TD*%
D11*
%TO.C,D1*%
X113950000Y-75660000D03*
D12*
X113950000Y-78200000D03*
%TD*%
%TO.C,C9*%
G36*
G01*
X138900000Y-105618750D02*
X138900000Y-106181250D01*
G75*
G02*
X138656250Y-106425000I-243750J0D01*
G01*
X138168750Y-106425000D01*
G75*
G02*
X137925000Y-106181250I0J243750D01*
G01*
X137925000Y-105618750D01*
G75*
G02*
X138168750Y-105375000I243750J0D01*
G01*
X138656250Y-105375000D01*
G75*
G02*
X138900000Y-105618750I0J-243750D01*
G01*
G37*
G36*
G01*
X140475000Y-105618750D02*
X140475000Y-106181250D01*
G75*
G02*
X140231250Y-106425000I-243750J0D01*
G01*
X139743750Y-106425000D01*
G75*
G02*
X139500000Y-106181250I0J243750D01*
G01*
X139500000Y-105618750D01*
G75*
G02*
X139743750Y-105375000I243750J0D01*
G01*
X140231250Y-105375000D01*
G75*
G02*
X140475000Y-105618750I0J-243750D01*
G01*
G37*
%TD*%
%TO.C,C8*%
G36*
G01*
X138900000Y-107218750D02*
X138900000Y-107781250D01*
G75*
G02*
X138656250Y-108025000I-243750J0D01*
G01*
X138168750Y-108025000D01*
G75*
G02*
X137925000Y-107781250I0J243750D01*
G01*
X137925000Y-107218750D01*
G75*
G02*
X138168750Y-106975000I243750J0D01*
G01*
X138656250Y-106975000D01*
G75*
G02*
X138900000Y-107218750I0J-243750D01*
G01*
G37*
G36*
G01*
X140475000Y-107218750D02*
X140475000Y-107781250D01*
G75*
G02*
X140231250Y-108025000I-243750J0D01*
G01*
X139743750Y-108025000D01*
G75*
G02*
X139500000Y-107781250I0J243750D01*
G01*
X139500000Y-107218750D01*
G75*
G02*
X139743750Y-106975000I243750J0D01*
G01*
X140231250Y-106975000D01*
G75*
G02*
X140475000Y-107218750I0J-243750D01*
G01*
G37*
%TD*%
D13*
%TO.C,J5*%
X155655000Y-111670000D03*
X153115000Y-111670000D03*
X155655000Y-109130000D03*
X153115000Y-109130000D03*
X155655000Y-106590000D03*
X153115000Y-106590000D03*
X155655000Y-104050000D03*
X153115000Y-104050000D03*
X155655000Y-101510000D03*
X153115000Y-101510000D03*
X155655000Y-98970000D03*
X153115000Y-98970000D03*
X155655000Y-96430000D03*
X153115000Y-96430000D03*
X155655000Y-93890000D03*
X153115000Y-93890000D03*
X155655000Y-91350000D03*
X153115000Y-91350000D03*
X155655000Y-88810000D03*
X153115000Y-88810000D03*
X155655000Y-86270000D03*
X153115000Y-86270000D03*
X155655000Y-83730000D03*
D14*
X153115000Y-83730000D03*
%TD*%
D13*
%TO.C,J4*%
X120730000Y-118655000D03*
X120730000Y-116115000D03*
X123270000Y-118655000D03*
X123270000Y-116115000D03*
X125810000Y-118655000D03*
X125810000Y-116115000D03*
X128350000Y-118655000D03*
X128350000Y-116115000D03*
X130890000Y-118655000D03*
X130890000Y-116115000D03*
X133430000Y-118655000D03*
X133430000Y-116115000D03*
X135970000Y-118655000D03*
X135970000Y-116115000D03*
X138510000Y-118655000D03*
X138510000Y-116115000D03*
X141050000Y-118655000D03*
X141050000Y-116115000D03*
X143590000Y-118655000D03*
X143590000Y-116115000D03*
X146130000Y-118655000D03*
X146130000Y-116115000D03*
X148670000Y-118655000D03*
D14*
X148670000Y-116115000D03*
%TD*%
%TO.C,J3*%
X116285000Y-111670000D03*
D13*
X113745000Y-111670000D03*
X116285000Y-109130000D03*
X113745000Y-109130000D03*
X116285000Y-106590000D03*
X113745000Y-106590000D03*
X116285000Y-104050000D03*
X113745000Y-104050000D03*
X116285000Y-101510000D03*
X113745000Y-101510000D03*
X116285000Y-98970000D03*
X113745000Y-98970000D03*
X116285000Y-96430000D03*
X113745000Y-96430000D03*
X116285000Y-93890000D03*
X113745000Y-93890000D03*
X116285000Y-91350000D03*
X113745000Y-91350000D03*
X116285000Y-88810000D03*
X113745000Y-88810000D03*
X116285000Y-86270000D03*
X113745000Y-86270000D03*
X116285000Y-83730000D03*
X113745000Y-83730000D03*
%TD*%
%TO.C,J2*%
X133430000Y-76745000D03*
X133430000Y-79285000D03*
X130890000Y-76745000D03*
X130890000Y-79285000D03*
X128350000Y-76745000D03*
X128350000Y-79285000D03*
X125810000Y-76745000D03*
X125810000Y-79285000D03*
X123270000Y-76745000D03*
X123270000Y-79285000D03*
X120730000Y-76745000D03*
D14*
X120730000Y-79285000D03*
%TD*%
%TO.C,L1*%
G36*
G01*
X145400000Y-107381250D02*
X145400000Y-106418750D01*
G75*
G02*
X145668750Y-106150000I268750J0D01*
G01*
X146206250Y-106150000D01*
G75*
G02*
X146475000Y-106418750I0J-268750D01*
G01*
X146475000Y-107381250D01*
G75*
G02*
X146206250Y-107650000I-268750J0D01*
G01*
X145668750Y-107650000D01*
G75*
G02*
X145400000Y-107381250I0J268750D01*
G01*
G37*
G36*
G01*
X143525000Y-107381250D02*
X143525000Y-106418750D01*
G75*
G02*
X143793750Y-106150000I268750J0D01*
G01*
X144331250Y-106150000D01*
G75*
G02*
X144600000Y-106418750I0J-268750D01*
G01*
X144600000Y-107381250D01*
G75*
G02*
X144331250Y-107650000I-268750J0D01*
G01*
X143793750Y-107650000D01*
G75*
G02*
X143525000Y-107381250I0J268750D01*
G01*
G37*
%TD*%
%TO.C,C18*%
G36*
G01*
X149318750Y-88100000D02*
X149881250Y-88100000D01*
G75*
G02*
X150125000Y-88343750I0J-243750D01*
G01*
X150125000Y-88831250D01*
G75*
G02*
X149881250Y-89075000I-243750J0D01*
G01*
X149318750Y-89075000D01*
G75*
G02*
X149075000Y-88831250I0J243750D01*
G01*
X149075000Y-88343750D01*
G75*
G02*
X149318750Y-88100000I243750J0D01*
G01*
G37*
G36*
G01*
X149318750Y-86525000D02*
X149881250Y-86525000D01*
G75*
G02*
X150125000Y-86768750I0J-243750D01*
G01*
X150125000Y-87256250D01*
G75*
G02*
X149881250Y-87500000I-243750J0D01*
G01*
X149318750Y-87500000D01*
G75*
G02*
X149075000Y-87256250I0J243750D01*
G01*
X149075000Y-86768750D01*
G75*
G02*
X149318750Y-86525000I243750J0D01*
G01*
G37*
%TD*%
%TO.C,C17*%
G36*
G01*
X149318750Y-84100000D02*
X149881250Y-84100000D01*
G75*
G02*
X150125000Y-84343750I0J-243750D01*
G01*
X150125000Y-84831250D01*
G75*
G02*
X149881250Y-85075000I-243750J0D01*
G01*
X149318750Y-85075000D01*
G75*
G02*
X149075000Y-84831250I0J243750D01*
G01*
X149075000Y-84343750D01*
G75*
G02*
X149318750Y-84100000I243750J0D01*
G01*
G37*
G36*
G01*
X149318750Y-82525000D02*
X149881250Y-82525000D01*
G75*
G02*
X150125000Y-82768750I0J-243750D01*
G01*
X150125000Y-83256250D01*
G75*
G02*
X149881250Y-83500000I-243750J0D01*
G01*
X149318750Y-83500000D01*
G75*
G02*
X149075000Y-83256250I0J243750D01*
G01*
X149075000Y-82768750D01*
G75*
G02*
X149318750Y-82525000I243750J0D01*
G01*
G37*
%TD*%
D15*
%TO.C,U2*%
X147450000Y-88100000D03*
X147450000Y-83500000D03*
X147450000Y-85800000D03*
D16*
X141150000Y-85800000D03*
%TD*%
%TO.C,R3*%
G36*
G01*
X147200000Y-90018750D02*
X147200000Y-90581250D01*
G75*
G02*
X146956250Y-90825000I-243750J0D01*
G01*
X146468750Y-90825000D01*
G75*
G02*
X146225000Y-90581250I0J243750D01*
G01*
X146225000Y-90018750D01*
G75*
G02*
X146468750Y-89775000I243750J0D01*
G01*
X146956250Y-89775000D01*
G75*
G02*
X147200000Y-90018750I0J-243750D01*
G01*
G37*
G36*
G01*
X148775000Y-90018750D02*
X148775000Y-90581250D01*
G75*
G02*
X148531250Y-90825000I-243750J0D01*
G01*
X148043750Y-90825000D01*
G75*
G02*
X147800000Y-90581250I0J243750D01*
G01*
X147800000Y-90018750D01*
G75*
G02*
X148043750Y-89775000I243750J0D01*
G01*
X148531250Y-89775000D01*
G75*
G02*
X148775000Y-90018750I0J-243750D01*
G01*
G37*
%TD*%
D13*
%TO.C,J1*%
X148670000Y-76745000D03*
X148670000Y-79285000D03*
X146130000Y-76745000D03*
X146130000Y-79285000D03*
X143590000Y-76745000D03*
X143590000Y-79285000D03*
X141050000Y-76745000D03*
D14*
X141050000Y-79285000D03*
%TD*%
D17*
%TO.C,Y2*%
X122500000Y-94450000D03*
X122500000Y-91950000D03*
%TD*%
D18*
%TO.C,Y1*%
X121800000Y-100550000D03*
X121800000Y-96850000D03*
%TD*%
%TO.C,U1*%
G36*
G01*
X130750000Y-92750000D02*
X130750000Y-91300000D01*
G75*
G02*
X130850000Y-91200000I100000J0D01*
G01*
X131050000Y-91200000D01*
G75*
G02*
X131150000Y-91300000I0J-100000D01*
G01*
X131150000Y-92750000D01*
G75*
G02*
X131050000Y-92850000I-100000J0D01*
G01*
X130850000Y-92850000D01*
G75*
G02*
X130750000Y-92750000I0J100000D01*
G01*
G37*
G36*
G01*
X131250000Y-92750000D02*
X131250000Y-91300000D01*
G75*
G02*
X131350000Y-91200000I100000J0D01*
G01*
X131550000Y-91200000D01*
G75*
G02*
X131650000Y-91300000I0J-100000D01*
G01*
X131650000Y-92750000D01*
G75*
G02*
X131550000Y-92850000I-100000J0D01*
G01*
X131350000Y-92850000D01*
G75*
G02*
X131250000Y-92750000I0J100000D01*
G01*
G37*
G36*
G01*
X131750000Y-92750000D02*
X131750000Y-91300000D01*
G75*
G02*
X131850000Y-91200000I100000J0D01*
G01*
X132050000Y-91200000D01*
G75*
G02*
X132150000Y-91300000I0J-100000D01*
G01*
X132150000Y-92750000D01*
G75*
G02*
X132050000Y-92850000I-100000J0D01*
G01*
X131850000Y-92850000D01*
G75*
G02*
X131750000Y-92750000I0J100000D01*
G01*
G37*
G36*
G01*
X132250000Y-92750000D02*
X132250000Y-91300000D01*
G75*
G02*
X132350000Y-91200000I100000J0D01*
G01*
X132550000Y-91200000D01*
G75*
G02*
X132650000Y-91300000I0J-100000D01*
G01*
X132650000Y-92750000D01*
G75*
G02*
X132550000Y-92850000I-100000J0D01*
G01*
X132350000Y-92850000D01*
G75*
G02*
X132250000Y-92750000I0J100000D01*
G01*
G37*
G36*
G01*
X132750000Y-92750000D02*
X132750000Y-91300000D01*
G75*
G02*
X132850000Y-91200000I100000J0D01*
G01*
X133050000Y-91200000D01*
G75*
G02*
X133150000Y-91300000I0J-100000D01*
G01*
X133150000Y-92750000D01*
G75*
G02*
X133050000Y-92850000I-100000J0D01*
G01*
X132850000Y-92850000D01*
G75*
G02*
X132750000Y-92750000I0J100000D01*
G01*
G37*
G36*
G01*
X133250000Y-92750000D02*
X133250000Y-91300000D01*
G75*
G02*
X133350000Y-91200000I100000J0D01*
G01*
X133550000Y-91200000D01*
G75*
G02*
X133650000Y-91300000I0J-100000D01*
G01*
X133650000Y-92750000D01*
G75*
G02*
X133550000Y-92850000I-100000J0D01*
G01*
X133350000Y-92850000D01*
G75*
G02*
X133250000Y-92750000I0J100000D01*
G01*
G37*
G36*
G01*
X133750000Y-92750000D02*
X133750000Y-91300000D01*
G75*
G02*
X133850000Y-91200000I100000J0D01*
G01*
X134050000Y-91200000D01*
G75*
G02*
X134150000Y-91300000I0J-100000D01*
G01*
X134150000Y-92750000D01*
G75*
G02*
X134050000Y-92850000I-100000J0D01*
G01*
X133850000Y-92850000D01*
G75*
G02*
X133750000Y-92750000I0J100000D01*
G01*
G37*
G36*
G01*
X134250000Y-92750000D02*
X134250000Y-91300000D01*
G75*
G02*
X134350000Y-91200000I100000J0D01*
G01*
X134550000Y-91200000D01*
G75*
G02*
X134650000Y-91300000I0J-100000D01*
G01*
X134650000Y-92750000D01*
G75*
G02*
X134550000Y-92850000I-100000J0D01*
G01*
X134350000Y-92850000D01*
G75*
G02*
X134250000Y-92750000I0J100000D01*
G01*
G37*
G36*
G01*
X134750000Y-92750000D02*
X134750000Y-91300000D01*
G75*
G02*
X134850000Y-91200000I100000J0D01*
G01*
X135050000Y-91200000D01*
G75*
G02*
X135150000Y-91300000I0J-100000D01*
G01*
X135150000Y-92750000D01*
G75*
G02*
X135050000Y-92850000I-100000J0D01*
G01*
X134850000Y-92850000D01*
G75*
G02*
X134750000Y-92750000I0J100000D01*
G01*
G37*
G36*
G01*
X135250000Y-92750000D02*
X135250000Y-91300000D01*
G75*
G02*
X135350000Y-91200000I100000J0D01*
G01*
X135550000Y-91200000D01*
G75*
G02*
X135650000Y-91300000I0J-100000D01*
G01*
X135650000Y-92750000D01*
G75*
G02*
X135550000Y-92850000I-100000J0D01*
G01*
X135350000Y-92850000D01*
G75*
G02*
X135250000Y-92750000I0J100000D01*
G01*
G37*
G36*
G01*
X135750000Y-92750000D02*
X135750000Y-91300000D01*
G75*
G02*
X135850000Y-91200000I100000J0D01*
G01*
X136050000Y-91200000D01*
G75*
G02*
X136150000Y-91300000I0J-100000D01*
G01*
X136150000Y-92750000D01*
G75*
G02*
X136050000Y-92850000I-100000J0D01*
G01*
X135850000Y-92850000D01*
G75*
G02*
X135750000Y-92750000I0J100000D01*
G01*
G37*
G36*
G01*
X136250000Y-92750000D02*
X136250000Y-91300000D01*
G75*
G02*
X136350000Y-91200000I100000J0D01*
G01*
X136550000Y-91200000D01*
G75*
G02*
X136650000Y-91300000I0J-100000D01*
G01*
X136650000Y-92750000D01*
G75*
G02*
X136550000Y-92850000I-100000J0D01*
G01*
X136350000Y-92850000D01*
G75*
G02*
X136250000Y-92750000I0J100000D01*
G01*
G37*
G36*
G01*
X136750000Y-92750000D02*
X136750000Y-91300000D01*
G75*
G02*
X136850000Y-91200000I100000J0D01*
G01*
X137050000Y-91200000D01*
G75*
G02*
X137150000Y-91300000I0J-100000D01*
G01*
X137150000Y-92750000D01*
G75*
G02*
X137050000Y-92850000I-100000J0D01*
G01*
X136850000Y-92850000D01*
G75*
G02*
X136750000Y-92750000I0J100000D01*
G01*
G37*
G36*
G01*
X137250000Y-92750000D02*
X137250000Y-91300000D01*
G75*
G02*
X137350000Y-91200000I100000J0D01*
G01*
X137550000Y-91200000D01*
G75*
G02*
X137650000Y-91300000I0J-100000D01*
G01*
X137650000Y-92750000D01*
G75*
G02*
X137550000Y-92850000I-100000J0D01*
G01*
X137350000Y-92850000D01*
G75*
G02*
X137250000Y-92750000I0J100000D01*
G01*
G37*
G36*
G01*
X137750000Y-92750000D02*
X137750000Y-91300000D01*
G75*
G02*
X137850000Y-91200000I100000J0D01*
G01*
X138050000Y-91200000D01*
G75*
G02*
X138150000Y-91300000I0J-100000D01*
G01*
X138150000Y-92750000D01*
G75*
G02*
X138050000Y-92850000I-100000J0D01*
G01*
X137850000Y-92850000D01*
G75*
G02*
X137750000Y-92750000I0J100000D01*
G01*
G37*
G36*
G01*
X138250000Y-92750000D02*
X138250000Y-91300000D01*
G75*
G02*
X138350000Y-91200000I100000J0D01*
G01*
X138550000Y-91200000D01*
G75*
G02*
X138650000Y-91300000I0J-100000D01*
G01*
X138650000Y-92750000D01*
G75*
G02*
X138550000Y-92850000I-100000J0D01*
G01*
X138350000Y-92850000D01*
G75*
G02*
X138250000Y-92750000I0J100000D01*
G01*
G37*
G36*
G01*
X139550000Y-94050000D02*
X139550000Y-93850000D01*
G75*
G02*
X139650000Y-93750000I100000J0D01*
G01*
X141100000Y-93750000D01*
G75*
G02*
X141200000Y-93850000I0J-100000D01*
G01*
X141200000Y-94050000D01*
G75*
G02*
X141100000Y-94150000I-100000J0D01*
G01*
X139650000Y-94150000D01*
G75*
G02*
X139550000Y-94050000I0J100000D01*
G01*
G37*
G36*
G01*
X139550000Y-94550000D02*
X139550000Y-94350000D01*
G75*
G02*
X139650000Y-94250000I100000J0D01*
G01*
X141100000Y-94250000D01*
G75*
G02*
X141200000Y-94350000I0J-100000D01*
G01*
X141200000Y-94550000D01*
G75*
G02*
X141100000Y-94650000I-100000J0D01*
G01*
X139650000Y-94650000D01*
G75*
G02*
X139550000Y-94550000I0J100000D01*
G01*
G37*
G36*
G01*
X139550000Y-95050000D02*
X139550000Y-94850000D01*
G75*
G02*
X139650000Y-94750000I100000J0D01*
G01*
X141100000Y-94750000D01*
G75*
G02*
X141200000Y-94850000I0J-100000D01*
G01*
X141200000Y-95050000D01*
G75*
G02*
X141100000Y-95150000I-100000J0D01*
G01*
X139650000Y-95150000D01*
G75*
G02*
X139550000Y-95050000I0J100000D01*
G01*
G37*
G36*
G01*
X139550000Y-95550000D02*
X139550000Y-95350000D01*
G75*
G02*
X139650000Y-95250000I100000J0D01*
G01*
X141100000Y-95250000D01*
G75*
G02*
X141200000Y-95350000I0J-100000D01*
G01*
X141200000Y-95550000D01*
G75*
G02*
X141100000Y-95650000I-100000J0D01*
G01*
X139650000Y-95650000D01*
G75*
G02*
X139550000Y-95550000I0J100000D01*
G01*
G37*
G36*
G01*
X139550000Y-96050000D02*
X139550000Y-95850000D01*
G75*
G02*
X139650000Y-95750000I100000J0D01*
G01*
X141100000Y-95750000D01*
G75*
G02*
X141200000Y-95850000I0J-100000D01*
G01*
X141200000Y-96050000D01*
G75*
G02*
X141100000Y-96150000I-100000J0D01*
G01*
X139650000Y-96150000D01*
G75*
G02*
X139550000Y-96050000I0J100000D01*
G01*
G37*
G36*
G01*
X139550000Y-96550000D02*
X139550000Y-96350000D01*
G75*
G02*
X139650000Y-96250000I100000J0D01*
G01*
X141100000Y-96250000D01*
G75*
G02*
X141200000Y-96350000I0J-100000D01*
G01*
X141200000Y-96550000D01*
G75*
G02*
X141100000Y-96650000I-100000J0D01*
G01*
X139650000Y-96650000D01*
G75*
G02*
X139550000Y-96550000I0J100000D01*
G01*
G37*
G36*
G01*
X139550000Y-97050000D02*
X139550000Y-96850000D01*
G75*
G02*
X139650000Y-96750000I100000J0D01*
G01*
X141100000Y-96750000D01*
G75*
G02*
X141200000Y-96850000I0J-100000D01*
G01*
X141200000Y-97050000D01*
G75*
G02*
X141100000Y-97150000I-100000J0D01*
G01*
X139650000Y-97150000D01*
G75*
G02*
X139550000Y-97050000I0J100000D01*
G01*
G37*
G36*
G01*
X139550000Y-97550000D02*
X139550000Y-97350000D01*
G75*
G02*
X139650000Y-97250000I100000J0D01*
G01*
X141100000Y-97250000D01*
G75*
G02*
X141200000Y-97350000I0J-100000D01*
G01*
X141200000Y-97550000D01*
G75*
G02*
X141100000Y-97650000I-100000J0D01*
G01*
X139650000Y-97650000D01*
G75*
G02*
X139550000Y-97550000I0J100000D01*
G01*
G37*
G36*
G01*
X139550000Y-98050000D02*
X139550000Y-97850000D01*
G75*
G02*
X139650000Y-97750000I100000J0D01*
G01*
X141100000Y-97750000D01*
G75*
G02*
X141200000Y-97850000I0J-100000D01*
G01*
X141200000Y-98050000D01*
G75*
G02*
X141100000Y-98150000I-100000J0D01*
G01*
X139650000Y-98150000D01*
G75*
G02*
X139550000Y-98050000I0J100000D01*
G01*
G37*
G36*
G01*
X139550000Y-98550000D02*
X139550000Y-98350000D01*
G75*
G02*
X139650000Y-98250000I100000J0D01*
G01*
X141100000Y-98250000D01*
G75*
G02*
X141200000Y-98350000I0J-100000D01*
G01*
X141200000Y-98550000D01*
G75*
G02*
X141100000Y-98650000I-100000J0D01*
G01*
X139650000Y-98650000D01*
G75*
G02*
X139550000Y-98550000I0J100000D01*
G01*
G37*
G36*
G01*
X139550000Y-99050000D02*
X139550000Y-98850000D01*
G75*
G02*
X139650000Y-98750000I100000J0D01*
G01*
X141100000Y-98750000D01*
G75*
G02*
X141200000Y-98850000I0J-100000D01*
G01*
X141200000Y-99050000D01*
G75*
G02*
X141100000Y-99150000I-100000J0D01*
G01*
X139650000Y-99150000D01*
G75*
G02*
X139550000Y-99050000I0J100000D01*
G01*
G37*
G36*
G01*
X139550000Y-99550000D02*
X139550000Y-99350000D01*
G75*
G02*
X139650000Y-99250000I100000J0D01*
G01*
X141100000Y-99250000D01*
G75*
G02*
X141200000Y-99350000I0J-100000D01*
G01*
X141200000Y-99550000D01*
G75*
G02*
X141100000Y-99650000I-100000J0D01*
G01*
X139650000Y-99650000D01*
G75*
G02*
X139550000Y-99550000I0J100000D01*
G01*
G37*
G36*
G01*
X139550000Y-100050000D02*
X139550000Y-99850000D01*
G75*
G02*
X139650000Y-99750000I100000J0D01*
G01*
X141100000Y-99750000D01*
G75*
G02*
X141200000Y-99850000I0J-100000D01*
G01*
X141200000Y-100050000D01*
G75*
G02*
X141100000Y-100150000I-100000J0D01*
G01*
X139650000Y-100150000D01*
G75*
G02*
X139550000Y-100050000I0J100000D01*
G01*
G37*
G36*
G01*
X139550000Y-100550000D02*
X139550000Y-100350000D01*
G75*
G02*
X139650000Y-100250000I100000J0D01*
G01*
X141100000Y-100250000D01*
G75*
G02*
X141200000Y-100350000I0J-100000D01*
G01*
X141200000Y-100550000D01*
G75*
G02*
X141100000Y-100650000I-100000J0D01*
G01*
X139650000Y-100650000D01*
G75*
G02*
X139550000Y-100550000I0J100000D01*
G01*
G37*
G36*
G01*
X139550000Y-101050000D02*
X139550000Y-100850000D01*
G75*
G02*
X139650000Y-100750000I100000J0D01*
G01*
X141100000Y-100750000D01*
G75*
G02*
X141200000Y-100850000I0J-100000D01*
G01*
X141200000Y-101050000D01*
G75*
G02*
X141100000Y-101150000I-100000J0D01*
G01*
X139650000Y-101150000D01*
G75*
G02*
X139550000Y-101050000I0J100000D01*
G01*
G37*
G36*
G01*
X139550000Y-101550000D02*
X139550000Y-101350000D01*
G75*
G02*
X139650000Y-101250000I100000J0D01*
G01*
X141100000Y-101250000D01*
G75*
G02*
X141200000Y-101350000I0J-100000D01*
G01*
X141200000Y-101550000D01*
G75*
G02*
X141100000Y-101650000I-100000J0D01*
G01*
X139650000Y-101650000D01*
G75*
G02*
X139550000Y-101550000I0J100000D01*
G01*
G37*
G36*
G01*
X138250000Y-104100000D02*
X138250000Y-102650000D01*
G75*
G02*
X138350000Y-102550000I100000J0D01*
G01*
X138550000Y-102550000D01*
G75*
G02*
X138650000Y-102650000I0J-100000D01*
G01*
X138650000Y-104100000D01*
G75*
G02*
X138550000Y-104200000I-100000J0D01*
G01*
X138350000Y-104200000D01*
G75*
G02*
X138250000Y-104100000I0J100000D01*
G01*
G37*
G36*
G01*
X137750000Y-104100000D02*
X137750000Y-102650000D01*
G75*
G02*
X137850000Y-102550000I100000J0D01*
G01*
X138050000Y-102550000D01*
G75*
G02*
X138150000Y-102650000I0J-100000D01*
G01*
X138150000Y-104100000D01*
G75*
G02*
X138050000Y-104200000I-100000J0D01*
G01*
X137850000Y-104200000D01*
G75*
G02*
X137750000Y-104100000I0J100000D01*
G01*
G37*
G36*
G01*
X137250000Y-104100000D02*
X137250000Y-102650000D01*
G75*
G02*
X137350000Y-102550000I100000J0D01*
G01*
X137550000Y-102550000D01*
G75*
G02*
X137650000Y-102650000I0J-100000D01*
G01*
X137650000Y-104100000D01*
G75*
G02*
X137550000Y-104200000I-100000J0D01*
G01*
X137350000Y-104200000D01*
G75*
G02*
X137250000Y-104100000I0J100000D01*
G01*
G37*
G36*
G01*
X136750000Y-104100000D02*
X136750000Y-102650000D01*
G75*
G02*
X136850000Y-102550000I100000J0D01*
G01*
X137050000Y-102550000D01*
G75*
G02*
X137150000Y-102650000I0J-100000D01*
G01*
X137150000Y-104100000D01*
G75*
G02*
X137050000Y-104200000I-100000J0D01*
G01*
X136850000Y-104200000D01*
G75*
G02*
X136750000Y-104100000I0J100000D01*
G01*
G37*
G36*
G01*
X136250000Y-104100000D02*
X136250000Y-102650000D01*
G75*
G02*
X136350000Y-102550000I100000J0D01*
G01*
X136550000Y-102550000D01*
G75*
G02*
X136650000Y-102650000I0J-100000D01*
G01*
X136650000Y-104100000D01*
G75*
G02*
X136550000Y-104200000I-100000J0D01*
G01*
X136350000Y-104200000D01*
G75*
G02*
X136250000Y-104100000I0J100000D01*
G01*
G37*
G36*
G01*
X135750000Y-104100000D02*
X135750000Y-102650000D01*
G75*
G02*
X135850000Y-102550000I100000J0D01*
G01*
X136050000Y-102550000D01*
G75*
G02*
X136150000Y-102650000I0J-100000D01*
G01*
X136150000Y-104100000D01*
G75*
G02*
X136050000Y-104200000I-100000J0D01*
G01*
X135850000Y-104200000D01*
G75*
G02*
X135750000Y-104100000I0J100000D01*
G01*
G37*
G36*
G01*
X135250000Y-104100000D02*
X135250000Y-102650000D01*
G75*
G02*
X135350000Y-102550000I100000J0D01*
G01*
X135550000Y-102550000D01*
G75*
G02*
X135650000Y-102650000I0J-100000D01*
G01*
X135650000Y-104100000D01*
G75*
G02*
X135550000Y-104200000I-100000J0D01*
G01*
X135350000Y-104200000D01*
G75*
G02*
X135250000Y-104100000I0J100000D01*
G01*
G37*
G36*
G01*
X134750000Y-104100000D02*
X134750000Y-102650000D01*
G75*
G02*
X134850000Y-102550000I100000J0D01*
G01*
X135050000Y-102550000D01*
G75*
G02*
X135150000Y-102650000I0J-100000D01*
G01*
X135150000Y-104100000D01*
G75*
G02*
X135050000Y-104200000I-100000J0D01*
G01*
X134850000Y-104200000D01*
G75*
G02*
X134750000Y-104100000I0J100000D01*
G01*
G37*
G36*
G01*
X134250000Y-104100000D02*
X134250000Y-102650000D01*
G75*
G02*
X134350000Y-102550000I100000J0D01*
G01*
X134550000Y-102550000D01*
G75*
G02*
X134650000Y-102650000I0J-100000D01*
G01*
X134650000Y-104100000D01*
G75*
G02*
X134550000Y-104200000I-100000J0D01*
G01*
X134350000Y-104200000D01*
G75*
G02*
X134250000Y-104100000I0J100000D01*
G01*
G37*
G36*
G01*
X133750000Y-104100000D02*
X133750000Y-102650000D01*
G75*
G02*
X133850000Y-102550000I100000J0D01*
G01*
X134050000Y-102550000D01*
G75*
G02*
X134150000Y-102650000I0J-100000D01*
G01*
X134150000Y-104100000D01*
G75*
G02*
X134050000Y-104200000I-100000J0D01*
G01*
X133850000Y-104200000D01*
G75*
G02*
X133750000Y-104100000I0J100000D01*
G01*
G37*
G36*
G01*
X133250000Y-104100000D02*
X133250000Y-102650000D01*
G75*
G02*
X133350000Y-102550000I100000J0D01*
G01*
X133550000Y-102550000D01*
G75*
G02*
X133650000Y-102650000I0J-100000D01*
G01*
X133650000Y-104100000D01*
G75*
G02*
X133550000Y-104200000I-100000J0D01*
G01*
X133350000Y-104200000D01*
G75*
G02*
X133250000Y-104100000I0J100000D01*
G01*
G37*
G36*
G01*
X132750000Y-104100000D02*
X132750000Y-102650000D01*
G75*
G02*
X132850000Y-102550000I100000J0D01*
G01*
X133050000Y-102550000D01*
G75*
G02*
X133150000Y-102650000I0J-100000D01*
G01*
X133150000Y-104100000D01*
G75*
G02*
X133050000Y-104200000I-100000J0D01*
G01*
X132850000Y-104200000D01*
G75*
G02*
X132750000Y-104100000I0J100000D01*
G01*
G37*
G36*
G01*
X132250000Y-104100000D02*
X132250000Y-102650000D01*
G75*
G02*
X132350000Y-102550000I100000J0D01*
G01*
X132550000Y-102550000D01*
G75*
G02*
X132650000Y-102650000I0J-100000D01*
G01*
X132650000Y-104100000D01*
G75*
G02*
X132550000Y-104200000I-100000J0D01*
G01*
X132350000Y-104200000D01*
G75*
G02*
X132250000Y-104100000I0J100000D01*
G01*
G37*
G36*
G01*
X131750000Y-104100000D02*
X131750000Y-102650000D01*
G75*
G02*
X131850000Y-102550000I100000J0D01*
G01*
X132050000Y-102550000D01*
G75*
G02*
X132150000Y-102650000I0J-100000D01*
G01*
X132150000Y-104100000D01*
G75*
G02*
X132050000Y-104200000I-100000J0D01*
G01*
X131850000Y-104200000D01*
G75*
G02*
X131750000Y-104100000I0J100000D01*
G01*
G37*
G36*
G01*
X131250000Y-104100000D02*
X131250000Y-102650000D01*
G75*
G02*
X131350000Y-102550000I100000J0D01*
G01*
X131550000Y-102550000D01*
G75*
G02*
X131650000Y-102650000I0J-100000D01*
G01*
X131650000Y-104100000D01*
G75*
G02*
X131550000Y-104200000I-100000J0D01*
G01*
X131350000Y-104200000D01*
G75*
G02*
X131250000Y-104100000I0J100000D01*
G01*
G37*
G36*
G01*
X130750000Y-104100000D02*
X130750000Y-102650000D01*
G75*
G02*
X130850000Y-102550000I100000J0D01*
G01*
X131050000Y-102550000D01*
G75*
G02*
X131150000Y-102650000I0J-100000D01*
G01*
X131150000Y-104100000D01*
G75*
G02*
X131050000Y-104200000I-100000J0D01*
G01*
X130850000Y-104200000D01*
G75*
G02*
X130750000Y-104100000I0J100000D01*
G01*
G37*
G36*
G01*
X128200000Y-101550000D02*
X128200000Y-101350000D01*
G75*
G02*
X128300000Y-101250000I100000J0D01*
G01*
X129750000Y-101250000D01*
G75*
G02*
X129850000Y-101350000I0J-100000D01*
G01*
X129850000Y-101550000D01*
G75*
G02*
X129750000Y-101650000I-100000J0D01*
G01*
X128300000Y-101650000D01*
G75*
G02*
X128200000Y-101550000I0J100000D01*
G01*
G37*
G36*
G01*
X128200000Y-101050000D02*
X128200000Y-100850000D01*
G75*
G02*
X128300000Y-100750000I100000J0D01*
G01*
X129750000Y-100750000D01*
G75*
G02*
X129850000Y-100850000I0J-100000D01*
G01*
X129850000Y-101050000D01*
G75*
G02*
X129750000Y-101150000I-100000J0D01*
G01*
X128300000Y-101150000D01*
G75*
G02*
X128200000Y-101050000I0J100000D01*
G01*
G37*
G36*
G01*
X128200000Y-100550000D02*
X128200000Y-100350000D01*
G75*
G02*
X128300000Y-100250000I100000J0D01*
G01*
X129750000Y-100250000D01*
G75*
G02*
X129850000Y-100350000I0J-100000D01*
G01*
X129850000Y-100550000D01*
G75*
G02*
X129750000Y-100650000I-100000J0D01*
G01*
X128300000Y-100650000D01*
G75*
G02*
X128200000Y-100550000I0J100000D01*
G01*
G37*
G36*
G01*
X128200000Y-100050000D02*
X128200000Y-99850000D01*
G75*
G02*
X128300000Y-99750000I100000J0D01*
G01*
X129750000Y-99750000D01*
G75*
G02*
X129850000Y-99850000I0J-100000D01*
G01*
X129850000Y-100050000D01*
G75*
G02*
X129750000Y-100150000I-100000J0D01*
G01*
X128300000Y-100150000D01*
G75*
G02*
X128200000Y-100050000I0J100000D01*
G01*
G37*
G36*
G01*
X128200000Y-99550000D02*
X128200000Y-99350000D01*
G75*
G02*
X128300000Y-99250000I100000J0D01*
G01*
X129750000Y-99250000D01*
G75*
G02*
X129850000Y-99350000I0J-100000D01*
G01*
X129850000Y-99550000D01*
G75*
G02*
X129750000Y-99650000I-100000J0D01*
G01*
X128300000Y-99650000D01*
G75*
G02*
X128200000Y-99550000I0J100000D01*
G01*
G37*
G36*
G01*
X128200000Y-99050000D02*
X128200000Y-98850000D01*
G75*
G02*
X128300000Y-98750000I100000J0D01*
G01*
X129750000Y-98750000D01*
G75*
G02*
X129850000Y-98850000I0J-100000D01*
G01*
X129850000Y-99050000D01*
G75*
G02*
X129750000Y-99150000I-100000J0D01*
G01*
X128300000Y-99150000D01*
G75*
G02*
X128200000Y-99050000I0J100000D01*
G01*
G37*
G36*
G01*
X128200000Y-98550000D02*
X128200000Y-98350000D01*
G75*
G02*
X128300000Y-98250000I100000J0D01*
G01*
X129750000Y-98250000D01*
G75*
G02*
X129850000Y-98350000I0J-100000D01*
G01*
X129850000Y-98550000D01*
G75*
G02*
X129750000Y-98650000I-100000J0D01*
G01*
X128300000Y-98650000D01*
G75*
G02*
X128200000Y-98550000I0J100000D01*
G01*
G37*
G36*
G01*
X128200000Y-98050000D02*
X128200000Y-97850000D01*
G75*
G02*
X128300000Y-97750000I100000J0D01*
G01*
X129750000Y-97750000D01*
G75*
G02*
X129850000Y-97850000I0J-100000D01*
G01*
X129850000Y-98050000D01*
G75*
G02*
X129750000Y-98150000I-100000J0D01*
G01*
X128300000Y-98150000D01*
G75*
G02*
X128200000Y-98050000I0J100000D01*
G01*
G37*
G36*
G01*
X128200000Y-97550000D02*
X128200000Y-97350000D01*
G75*
G02*
X128300000Y-97250000I100000J0D01*
G01*
X129750000Y-97250000D01*
G75*
G02*
X129850000Y-97350000I0J-100000D01*
G01*
X129850000Y-97550000D01*
G75*
G02*
X129750000Y-97650000I-100000J0D01*
G01*
X128300000Y-97650000D01*
G75*
G02*
X128200000Y-97550000I0J100000D01*
G01*
G37*
G36*
G01*
X128200000Y-97050000D02*
X128200000Y-96850000D01*
G75*
G02*
X128300000Y-96750000I100000J0D01*
G01*
X129750000Y-96750000D01*
G75*
G02*
X129850000Y-96850000I0J-100000D01*
G01*
X129850000Y-97050000D01*
G75*
G02*
X129750000Y-97150000I-100000J0D01*
G01*
X128300000Y-97150000D01*
G75*
G02*
X128200000Y-97050000I0J100000D01*
G01*
G37*
G36*
G01*
X128200000Y-96550000D02*
X128200000Y-96350000D01*
G75*
G02*
X128300000Y-96250000I100000J0D01*
G01*
X129750000Y-96250000D01*
G75*
G02*
X129850000Y-96350000I0J-100000D01*
G01*
X129850000Y-96550000D01*
G75*
G02*
X129750000Y-96650000I-100000J0D01*
G01*
X128300000Y-96650000D01*
G75*
G02*
X128200000Y-96550000I0J100000D01*
G01*
G37*
G36*
G01*
X128200000Y-96050000D02*
X128200000Y-95850000D01*
G75*
G02*
X128300000Y-95750000I100000J0D01*
G01*
X129750000Y-95750000D01*
G75*
G02*
X129850000Y-95850000I0J-100000D01*
G01*
X129850000Y-96050000D01*
G75*
G02*
X129750000Y-96150000I-100000J0D01*
G01*
X128300000Y-96150000D01*
G75*
G02*
X128200000Y-96050000I0J100000D01*
G01*
G37*
G36*
G01*
X128200000Y-95550000D02*
X128200000Y-95350000D01*
G75*
G02*
X128300000Y-95250000I100000J0D01*
G01*
X129750000Y-95250000D01*
G75*
G02*
X129850000Y-95350000I0J-100000D01*
G01*
X129850000Y-95550000D01*
G75*
G02*
X129750000Y-95650000I-100000J0D01*
G01*
X128300000Y-95650000D01*
G75*
G02*
X128200000Y-95550000I0J100000D01*
G01*
G37*
G36*
G01*
X128200000Y-95050000D02*
X128200000Y-94850000D01*
G75*
G02*
X128300000Y-94750000I100000J0D01*
G01*
X129750000Y-94750000D01*
G75*
G02*
X129850000Y-94850000I0J-100000D01*
G01*
X129850000Y-95050000D01*
G75*
G02*
X129750000Y-95150000I-100000J0D01*
G01*
X128300000Y-95150000D01*
G75*
G02*
X128200000Y-95050000I0J100000D01*
G01*
G37*
G36*
G01*
X128200000Y-94550000D02*
X128200000Y-94350000D01*
G75*
G02*
X128300000Y-94250000I100000J0D01*
G01*
X129750000Y-94250000D01*
G75*
G02*
X129850000Y-94350000I0J-100000D01*
G01*
X129850000Y-94550000D01*
G75*
G02*
X129750000Y-94650000I-100000J0D01*
G01*
X128300000Y-94650000D01*
G75*
G02*
X128200000Y-94550000I0J100000D01*
G01*
G37*
G36*
G01*
X128200000Y-94050000D02*
X128200000Y-93850000D01*
G75*
G02*
X128300000Y-93750000I100000J0D01*
G01*
X129750000Y-93750000D01*
G75*
G02*
X129850000Y-93850000I0J-100000D01*
G01*
X129850000Y-94050000D01*
G75*
G02*
X129750000Y-94150000I-100000J0D01*
G01*
X128300000Y-94150000D01*
G75*
G02*
X128200000Y-94050000I0J100000D01*
G01*
G37*
%TD*%
%TO.C,R2*%
G36*
G01*
X128968750Y-86700000D02*
X129531250Y-86700000D01*
G75*
G02*
X129775000Y-86943750I0J-243750D01*
G01*
X129775000Y-87431250D01*
G75*
G02*
X129531250Y-87675000I-243750J0D01*
G01*
X128968750Y-87675000D01*
G75*
G02*
X128725000Y-87431250I0J243750D01*
G01*
X128725000Y-86943750D01*
G75*
G02*
X128968750Y-86700000I243750J0D01*
G01*
G37*
G36*
G01*
X128968750Y-85125000D02*
X129531250Y-85125000D01*
G75*
G02*
X129775000Y-85368750I0J-243750D01*
G01*
X129775000Y-85856250D01*
G75*
G02*
X129531250Y-86100000I-243750J0D01*
G01*
X128968750Y-86100000D01*
G75*
G02*
X128725000Y-85856250I0J243750D01*
G01*
X128725000Y-85368750D01*
G75*
G02*
X128968750Y-85125000I243750J0D01*
G01*
G37*
%TD*%
%TO.C,R1*%
G36*
G01*
X132818750Y-88500000D02*
X133381250Y-88500000D01*
G75*
G02*
X133625000Y-88743750I0J-243750D01*
G01*
X133625000Y-89231250D01*
G75*
G02*
X133381250Y-89475000I-243750J0D01*
G01*
X132818750Y-89475000D01*
G75*
G02*
X132575000Y-89231250I0J243750D01*
G01*
X132575000Y-88743750D01*
G75*
G02*
X132818750Y-88500000I243750J0D01*
G01*
G37*
G36*
G01*
X132818750Y-86925000D02*
X133381250Y-86925000D01*
G75*
G02*
X133625000Y-87168750I0J-243750D01*
G01*
X133625000Y-87656250D01*
G75*
G02*
X133381250Y-87900000I-243750J0D01*
G01*
X132818750Y-87900000D01*
G75*
G02*
X132575000Y-87656250I0J243750D01*
G01*
X132575000Y-87168750D01*
G75*
G02*
X132818750Y-86925000I243750J0D01*
G01*
G37*
%TD*%
D19*
%TO.C,JP3*%
X133100000Y-85300000D03*
D20*
G36*
X134406111Y-84500602D02*
G01*
X134424534Y-84500602D01*
X134429435Y-84500843D01*
X134478266Y-84505653D01*
X134483119Y-84506373D01*
X134531244Y-84515945D01*
X134536005Y-84517137D01*
X134582960Y-84531381D01*
X134587579Y-84533034D01*
X134632912Y-84551811D01*
X134637349Y-84553909D01*
X134680622Y-84577040D01*
X134684829Y-84579562D01*
X134725628Y-84606822D01*
X134729570Y-84609746D01*
X134767499Y-84640874D01*
X134771134Y-84644169D01*
X134805831Y-84678866D01*
X134809126Y-84682501D01*
X134840254Y-84720430D01*
X134843178Y-84724372D01*
X134870438Y-84765171D01*
X134872960Y-84769378D01*
X134896091Y-84812651D01*
X134898189Y-84817088D01*
X134916966Y-84862421D01*
X134918619Y-84867040D01*
X134932863Y-84913995D01*
X134934055Y-84918756D01*
X134943627Y-84966881D01*
X134944347Y-84971734D01*
X134949157Y-85020565D01*
X134949398Y-85025466D01*
X134949398Y-85043889D01*
X134950000Y-85050000D01*
X134950000Y-85550000D01*
X134949398Y-85556111D01*
X134949398Y-85574534D01*
X134949157Y-85579435D01*
X134944347Y-85628266D01*
X134943627Y-85633119D01*
X134934055Y-85681244D01*
X134932863Y-85686005D01*
X134918619Y-85732960D01*
X134916966Y-85737579D01*
X134898189Y-85782912D01*
X134896091Y-85787349D01*
X134872960Y-85830622D01*
X134870438Y-85834829D01*
X134843178Y-85875628D01*
X134840254Y-85879570D01*
X134809126Y-85917499D01*
X134805831Y-85921134D01*
X134771134Y-85955831D01*
X134767499Y-85959126D01*
X134729570Y-85990254D01*
X134725628Y-85993178D01*
X134684829Y-86020438D01*
X134680622Y-86022960D01*
X134637349Y-86046091D01*
X134632912Y-86048189D01*
X134587579Y-86066966D01*
X134582960Y-86068619D01*
X134536005Y-86082863D01*
X134531244Y-86084055D01*
X134483119Y-86093627D01*
X134478266Y-86094347D01*
X134429435Y-86099157D01*
X134424534Y-86099398D01*
X134406111Y-86099398D01*
X134400000Y-86100000D01*
X133850000Y-86100000D01*
X133840245Y-86099039D01*
X133830866Y-86096194D01*
X133822221Y-86091573D01*
X133814645Y-86085355D01*
X133808427Y-86077779D01*
X133803806Y-86069134D01*
X133800961Y-86059755D01*
X133800000Y-86050000D01*
X133800000Y-84550000D01*
X133800961Y-84540245D01*
X133803806Y-84530866D01*
X133808427Y-84522221D01*
X133814645Y-84514645D01*
X133822221Y-84508427D01*
X133830866Y-84503806D01*
X133840245Y-84500961D01*
X133850000Y-84500000D01*
X134400000Y-84500000D01*
X134406111Y-84500602D01*
G37*
G36*
X132359755Y-84500961D02*
G01*
X132369134Y-84503806D01*
X132377779Y-84508427D01*
X132385355Y-84514645D01*
X132391573Y-84522221D01*
X132396194Y-84530866D01*
X132399039Y-84540245D01*
X132400000Y-84550000D01*
X132400000Y-86050000D01*
X132399039Y-86059755D01*
X132396194Y-86069134D01*
X132391573Y-86077779D01*
X132385355Y-86085355D01*
X132377779Y-86091573D01*
X132369134Y-86096194D01*
X132359755Y-86099039D01*
X132350000Y-86100000D01*
X131800000Y-86100000D01*
X131793889Y-86099398D01*
X131775466Y-86099398D01*
X131770565Y-86099157D01*
X131721734Y-86094347D01*
X131716881Y-86093627D01*
X131668756Y-86084055D01*
X131663995Y-86082863D01*
X131617040Y-86068619D01*
X131612421Y-86066966D01*
X131567088Y-86048189D01*
X131562651Y-86046091D01*
X131519378Y-86022960D01*
X131515171Y-86020438D01*
X131474372Y-85993178D01*
X131470430Y-85990254D01*
X131432501Y-85959126D01*
X131428866Y-85955831D01*
X131394169Y-85921134D01*
X131390874Y-85917499D01*
X131359746Y-85879570D01*
X131356822Y-85875628D01*
X131329562Y-85834829D01*
X131327040Y-85830622D01*
X131303909Y-85787349D01*
X131301811Y-85782912D01*
X131283034Y-85737579D01*
X131281381Y-85732960D01*
X131267137Y-85686005D01*
X131265945Y-85681244D01*
X131256373Y-85633119D01*
X131255653Y-85628266D01*
X131250843Y-85579435D01*
X131250602Y-85574534D01*
X131250602Y-85556111D01*
X131250000Y-85550000D01*
X131250000Y-85050000D01*
X131250602Y-85043889D01*
X131250602Y-85025466D01*
X131250843Y-85020565D01*
X131255653Y-84971734D01*
X131256373Y-84966881D01*
X131265945Y-84918756D01*
X131267137Y-84913995D01*
X131281381Y-84867040D01*
X131283034Y-84862421D01*
X131301811Y-84817088D01*
X131303909Y-84812651D01*
X131327040Y-84769378D01*
X131329562Y-84765171D01*
X131356822Y-84724372D01*
X131359746Y-84720430D01*
X131390874Y-84682501D01*
X131394169Y-84678866D01*
X131428866Y-84644169D01*
X131432501Y-84640874D01*
X131470430Y-84609746D01*
X131474372Y-84606822D01*
X131515171Y-84579562D01*
X131519378Y-84577040D01*
X131562651Y-84553909D01*
X131567088Y-84551811D01*
X131612421Y-84533034D01*
X131617040Y-84531381D01*
X131663995Y-84517137D01*
X131668756Y-84515945D01*
X131716881Y-84506373D01*
X131721734Y-84505653D01*
X131770565Y-84500843D01*
X131775466Y-84500602D01*
X131793889Y-84500602D01*
X131800000Y-84500000D01*
X132350000Y-84500000D01*
X132359755Y-84500961D01*
G37*
%TD*%
D21*
%TO.C,JP2*%
X128300000Y-107200000D03*
D20*
G36*
X129099398Y-108506111D02*
G01*
X129099398Y-108524534D01*
X129099157Y-108529435D01*
X129094347Y-108578266D01*
X129093627Y-108583119D01*
X129084055Y-108631244D01*
X129082863Y-108636005D01*
X129068619Y-108682960D01*
X129066966Y-108687579D01*
X129048189Y-108732912D01*
X129046091Y-108737349D01*
X129022960Y-108780622D01*
X129020438Y-108784829D01*
X128993178Y-108825628D01*
X128990254Y-108829570D01*
X128959126Y-108867499D01*
X128955831Y-108871134D01*
X128921134Y-108905831D01*
X128917499Y-108909126D01*
X128879570Y-108940254D01*
X128875628Y-108943178D01*
X128834829Y-108970438D01*
X128830622Y-108972960D01*
X128787349Y-108996091D01*
X128782912Y-108998189D01*
X128737579Y-109016966D01*
X128732960Y-109018619D01*
X128686005Y-109032863D01*
X128681244Y-109034055D01*
X128633119Y-109043627D01*
X128628266Y-109044347D01*
X128579435Y-109049157D01*
X128574534Y-109049398D01*
X128556111Y-109049398D01*
X128550000Y-109050000D01*
X128050000Y-109050000D01*
X128043889Y-109049398D01*
X128025466Y-109049398D01*
X128020565Y-109049157D01*
X127971734Y-109044347D01*
X127966881Y-109043627D01*
X127918756Y-109034055D01*
X127913995Y-109032863D01*
X127867040Y-109018619D01*
X127862421Y-109016966D01*
X127817088Y-108998189D01*
X127812651Y-108996091D01*
X127769378Y-108972960D01*
X127765171Y-108970438D01*
X127724372Y-108943178D01*
X127720430Y-108940254D01*
X127682501Y-108909126D01*
X127678866Y-108905831D01*
X127644169Y-108871134D01*
X127640874Y-108867499D01*
X127609746Y-108829570D01*
X127606822Y-108825628D01*
X127579562Y-108784829D01*
X127577040Y-108780622D01*
X127553909Y-108737349D01*
X127551811Y-108732912D01*
X127533034Y-108687579D01*
X127531381Y-108682960D01*
X127517137Y-108636005D01*
X127515945Y-108631244D01*
X127506373Y-108583119D01*
X127505653Y-108578266D01*
X127500843Y-108529435D01*
X127500602Y-108524534D01*
X127500602Y-108506111D01*
X127500000Y-108500000D01*
X127500000Y-107950000D01*
X127500961Y-107940245D01*
X127503806Y-107930866D01*
X127508427Y-107922221D01*
X127514645Y-107914645D01*
X127522221Y-107908427D01*
X127530866Y-107903806D01*
X127540245Y-107900961D01*
X127550000Y-107900000D01*
X129050000Y-107900000D01*
X129059755Y-107900961D01*
X129069134Y-107903806D01*
X129077779Y-107908427D01*
X129085355Y-107914645D01*
X129091573Y-107922221D01*
X129096194Y-107930866D01*
X129099039Y-107940245D01*
X129100000Y-107950000D01*
X129100000Y-108500000D01*
X129099398Y-108506111D01*
G37*
G36*
X129099039Y-106459755D02*
G01*
X129096194Y-106469134D01*
X129091573Y-106477779D01*
X129085355Y-106485355D01*
X129077779Y-106491573D01*
X129069134Y-106496194D01*
X129059755Y-106499039D01*
X129050000Y-106500000D01*
X127550000Y-106500000D01*
X127540245Y-106499039D01*
X127530866Y-106496194D01*
X127522221Y-106491573D01*
X127514645Y-106485355D01*
X127508427Y-106477779D01*
X127503806Y-106469134D01*
X127500961Y-106459755D01*
X127500000Y-106450000D01*
X127500000Y-105900000D01*
X127500602Y-105893889D01*
X127500602Y-105875466D01*
X127500843Y-105870565D01*
X127505653Y-105821734D01*
X127506373Y-105816881D01*
X127515945Y-105768756D01*
X127517137Y-105763995D01*
X127531381Y-105717040D01*
X127533034Y-105712421D01*
X127551811Y-105667088D01*
X127553909Y-105662651D01*
X127577040Y-105619378D01*
X127579562Y-105615171D01*
X127606822Y-105574372D01*
X127609746Y-105570430D01*
X127640874Y-105532501D01*
X127644169Y-105528866D01*
X127678866Y-105494169D01*
X127682501Y-105490874D01*
X127720430Y-105459746D01*
X127724372Y-105456822D01*
X127765171Y-105429562D01*
X127769378Y-105427040D01*
X127812651Y-105403909D01*
X127817088Y-105401811D01*
X127862421Y-105383034D01*
X127867040Y-105381381D01*
X127913995Y-105367137D01*
X127918756Y-105365945D01*
X127966881Y-105356373D01*
X127971734Y-105355653D01*
X128020565Y-105350843D01*
X128025466Y-105350602D01*
X128043889Y-105350602D01*
X128050000Y-105350000D01*
X128550000Y-105350000D01*
X128556111Y-105350602D01*
X128574534Y-105350602D01*
X128579435Y-105350843D01*
X128628266Y-105355653D01*
X128633119Y-105356373D01*
X128681244Y-105365945D01*
X128686005Y-105367137D01*
X128732960Y-105381381D01*
X128737579Y-105383034D01*
X128782912Y-105401811D01*
X128787349Y-105403909D01*
X128830622Y-105427040D01*
X128834829Y-105429562D01*
X128875628Y-105456822D01*
X128879570Y-105459746D01*
X128917499Y-105490874D01*
X128921134Y-105494169D01*
X128955831Y-105528866D01*
X128959126Y-105532501D01*
X128990254Y-105570430D01*
X128993178Y-105574372D01*
X129020438Y-105615171D01*
X129022960Y-105619378D01*
X129046091Y-105662651D01*
X129048189Y-105667088D01*
X129066966Y-105712421D01*
X129068619Y-105717040D01*
X129082863Y-105763995D01*
X129084055Y-105768756D01*
X129093627Y-105816881D01*
X129094347Y-105821734D01*
X129099157Y-105870565D01*
X129099398Y-105875466D01*
X129099398Y-105893889D01*
X129100000Y-105900000D01*
X129100000Y-106450000D01*
X129099039Y-106459755D01*
G37*
%TD*%
D19*
%TO.C,JP1*%
X145000000Y-104500000D03*
D20*
G36*
X146306111Y-103700602D02*
G01*
X146324534Y-103700602D01*
X146329435Y-103700843D01*
X146378266Y-103705653D01*
X146383119Y-103706373D01*
X146431244Y-103715945D01*
X146436005Y-103717137D01*
X146482960Y-103731381D01*
X146487579Y-103733034D01*
X146532912Y-103751811D01*
X146537349Y-103753909D01*
X146580622Y-103777040D01*
X146584829Y-103779562D01*
X146625628Y-103806822D01*
X146629570Y-103809746D01*
X146667499Y-103840874D01*
X146671134Y-103844169D01*
X146705831Y-103878866D01*
X146709126Y-103882501D01*
X146740254Y-103920430D01*
X146743178Y-103924372D01*
X146770438Y-103965171D01*
X146772960Y-103969378D01*
X146796091Y-104012651D01*
X146798189Y-104017088D01*
X146816966Y-104062421D01*
X146818619Y-104067040D01*
X146832863Y-104113995D01*
X146834055Y-104118756D01*
X146843627Y-104166881D01*
X146844347Y-104171734D01*
X146849157Y-104220565D01*
X146849398Y-104225466D01*
X146849398Y-104243889D01*
X146850000Y-104250000D01*
X146850000Y-104750000D01*
X146849398Y-104756111D01*
X146849398Y-104774534D01*
X146849157Y-104779435D01*
X146844347Y-104828266D01*
X146843627Y-104833119D01*
X146834055Y-104881244D01*
X146832863Y-104886005D01*
X146818619Y-104932960D01*
X146816966Y-104937579D01*
X146798189Y-104982912D01*
X146796091Y-104987349D01*
X146772960Y-105030622D01*
X146770438Y-105034829D01*
X146743178Y-105075628D01*
X146740254Y-105079570D01*
X146709126Y-105117499D01*
X146705831Y-105121134D01*
X146671134Y-105155831D01*
X146667499Y-105159126D01*
X146629570Y-105190254D01*
X146625628Y-105193178D01*
X146584829Y-105220438D01*
X146580622Y-105222960D01*
X146537349Y-105246091D01*
X146532912Y-105248189D01*
X146487579Y-105266966D01*
X146482960Y-105268619D01*
X146436005Y-105282863D01*
X146431244Y-105284055D01*
X146383119Y-105293627D01*
X146378266Y-105294347D01*
X146329435Y-105299157D01*
X146324534Y-105299398D01*
X146306111Y-105299398D01*
X146300000Y-105300000D01*
X145750000Y-105300000D01*
X145740245Y-105299039D01*
X145730866Y-105296194D01*
X145722221Y-105291573D01*
X145714645Y-105285355D01*
X145708427Y-105277779D01*
X145703806Y-105269134D01*
X145700961Y-105259755D01*
X145700000Y-105250000D01*
X145700000Y-103750000D01*
X145700961Y-103740245D01*
X145703806Y-103730866D01*
X145708427Y-103722221D01*
X145714645Y-103714645D01*
X145722221Y-103708427D01*
X145730866Y-103703806D01*
X145740245Y-103700961D01*
X145750000Y-103700000D01*
X146300000Y-103700000D01*
X146306111Y-103700602D01*
G37*
G36*
X144259755Y-103700961D02*
G01*
X144269134Y-103703806D01*
X144277779Y-103708427D01*
X144285355Y-103714645D01*
X144291573Y-103722221D01*
X144296194Y-103730866D01*
X144299039Y-103740245D01*
X144300000Y-103750000D01*
X144300000Y-105250000D01*
X144299039Y-105259755D01*
X144296194Y-105269134D01*
X144291573Y-105277779D01*
X144285355Y-105285355D01*
X144277779Y-105291573D01*
X144269134Y-105296194D01*
X144259755Y-105299039D01*
X144250000Y-105300000D01*
X143700000Y-105300000D01*
X143693889Y-105299398D01*
X143675466Y-105299398D01*
X143670565Y-105299157D01*
X143621734Y-105294347D01*
X143616881Y-105293627D01*
X143568756Y-105284055D01*
X143563995Y-105282863D01*
X143517040Y-105268619D01*
X143512421Y-105266966D01*
X143467088Y-105248189D01*
X143462651Y-105246091D01*
X143419378Y-105222960D01*
X143415171Y-105220438D01*
X143374372Y-105193178D01*
X143370430Y-105190254D01*
X143332501Y-105159126D01*
X143328866Y-105155831D01*
X143294169Y-105121134D01*
X143290874Y-105117499D01*
X143259746Y-105079570D01*
X143256822Y-105075628D01*
X143229562Y-105034829D01*
X143227040Y-105030622D01*
X143203909Y-104987349D01*
X143201811Y-104982912D01*
X143183034Y-104937579D01*
X143181381Y-104932960D01*
X143167137Y-104886005D01*
X143165945Y-104881244D01*
X143156373Y-104833119D01*
X143155653Y-104828266D01*
X143150843Y-104779435D01*
X143150602Y-104774534D01*
X143150602Y-104756111D01*
X143150000Y-104750000D01*
X143150000Y-104250000D01*
X143150602Y-104243889D01*
X143150602Y-104225466D01*
X143150843Y-104220565D01*
X143155653Y-104171734D01*
X143156373Y-104166881D01*
X143165945Y-104118756D01*
X143167137Y-104113995D01*
X143181381Y-104067040D01*
X143183034Y-104062421D01*
X143201811Y-104017088D01*
X143203909Y-104012651D01*
X143227040Y-103969378D01*
X143229562Y-103965171D01*
X143256822Y-103924372D01*
X143259746Y-103920430D01*
X143290874Y-103882501D01*
X143294169Y-103878866D01*
X143328866Y-103844169D01*
X143332501Y-103840874D01*
X143370430Y-103809746D01*
X143374372Y-103806822D01*
X143415171Y-103779562D01*
X143419378Y-103777040D01*
X143462651Y-103753909D01*
X143467088Y-103751811D01*
X143512421Y-103733034D01*
X143517040Y-103731381D01*
X143563995Y-103717137D01*
X143568756Y-103715945D01*
X143616881Y-103706373D01*
X143621734Y-103705653D01*
X143670565Y-103700843D01*
X143675466Y-103700602D01*
X143693889Y-103700602D01*
X143700000Y-103700000D01*
X144250000Y-103700000D01*
X144259755Y-103700961D01*
G37*
%TD*%
%TO.C,C16*%
G36*
G01*
X148900000Y-107381250D02*
X148900000Y-106418750D01*
G75*
G02*
X149168750Y-106150000I268750J0D01*
G01*
X149706250Y-106150000D01*
G75*
G02*
X149975000Y-106418750I0J-268750D01*
G01*
X149975000Y-107381250D01*
G75*
G02*
X149706250Y-107650000I-268750J0D01*
G01*
X149168750Y-107650000D01*
G75*
G02*
X148900000Y-107381250I0J268750D01*
G01*
G37*
G36*
G01*
X147025000Y-107381250D02*
X147025000Y-106418750D01*
G75*
G02*
X147293750Y-106150000I268750J0D01*
G01*
X147831250Y-106150000D01*
G75*
G02*
X148100000Y-106418750I0J-268750D01*
G01*
X148100000Y-107381250D01*
G75*
G02*
X147831250Y-107650000I-268750J0D01*
G01*
X147293750Y-107650000D01*
G75*
G02*
X147025000Y-107381250I0J268750D01*
G01*
G37*
%TD*%
%TO.C,C15*%
G36*
G01*
X130300000Y-89181250D02*
X130300000Y-88618750D01*
G75*
G02*
X130543750Y-88375000I243750J0D01*
G01*
X131031250Y-88375000D01*
G75*
G02*
X131275000Y-88618750I0J-243750D01*
G01*
X131275000Y-89181250D01*
G75*
G02*
X131031250Y-89425000I-243750J0D01*
G01*
X130543750Y-89425000D01*
G75*
G02*
X130300000Y-89181250I0J243750D01*
G01*
G37*
G36*
G01*
X128725000Y-89181250D02*
X128725000Y-88618750D01*
G75*
G02*
X128968750Y-88375000I243750J0D01*
G01*
X129456250Y-88375000D01*
G75*
G02*
X129700000Y-88618750I0J-243750D01*
G01*
X129700000Y-89181250D01*
G75*
G02*
X129456250Y-89425000I-243750J0D01*
G01*
X128968750Y-89425000D01*
G75*
G02*
X128725000Y-89181250I0J243750D01*
G01*
G37*
%TD*%
%TO.C,C14*%
G36*
G01*
X133881250Y-106900000D02*
X133318750Y-106900000D01*
G75*
G02*
X133075000Y-106656250I0J243750D01*
G01*
X133075000Y-106168750D01*
G75*
G02*
X133318750Y-105925000I243750J0D01*
G01*
X133881250Y-105925000D01*
G75*
G02*
X134125000Y-106168750I0J-243750D01*
G01*
X134125000Y-106656250D01*
G75*
G02*
X133881250Y-106900000I-243750J0D01*
G01*
G37*
G36*
G01*
X133881250Y-108475000D02*
X133318750Y-108475000D01*
G75*
G02*
X133075000Y-108231250I0J243750D01*
G01*
X133075000Y-107743750D01*
G75*
G02*
X133318750Y-107500000I243750J0D01*
G01*
X133881250Y-107500000D01*
G75*
G02*
X134125000Y-107743750I0J-243750D01*
G01*
X134125000Y-108231250D01*
G75*
G02*
X133881250Y-108475000I-243750J0D01*
G01*
G37*
%TD*%
%TO.C,C13*%
G36*
G01*
X131718750Y-107500000D02*
X132281250Y-107500000D01*
G75*
G02*
X132525000Y-107743750I0J-243750D01*
G01*
X132525000Y-108231250D01*
G75*
G02*
X132281250Y-108475000I-243750J0D01*
G01*
X131718750Y-108475000D01*
G75*
G02*
X131475000Y-108231250I0J243750D01*
G01*
X131475000Y-107743750D01*
G75*
G02*
X131718750Y-107500000I243750J0D01*
G01*
G37*
G36*
G01*
X131718750Y-105925000D02*
X132281250Y-105925000D01*
G75*
G02*
X132525000Y-106168750I0J-243750D01*
G01*
X132525000Y-106656250D01*
G75*
G02*
X132281250Y-106900000I-243750J0D01*
G01*
X131718750Y-106900000D01*
G75*
G02*
X131475000Y-106656250I0J243750D01*
G01*
X131475000Y-106168750D01*
G75*
G02*
X131718750Y-105925000I243750J0D01*
G01*
G37*
%TD*%
%TO.C,C12*%
G36*
G01*
X130118750Y-107500000D02*
X130681250Y-107500000D01*
G75*
G02*
X130925000Y-107743750I0J-243750D01*
G01*
X130925000Y-108231250D01*
G75*
G02*
X130681250Y-108475000I-243750J0D01*
G01*
X130118750Y-108475000D01*
G75*
G02*
X129875000Y-108231250I0J243750D01*
G01*
X129875000Y-107743750D01*
G75*
G02*
X130118750Y-107500000I243750J0D01*
G01*
G37*
G36*
G01*
X130118750Y-105925000D02*
X130681250Y-105925000D01*
G75*
G02*
X130925000Y-106168750I0J-243750D01*
G01*
X130925000Y-106656250D01*
G75*
G02*
X130681250Y-106900000I-243750J0D01*
G01*
X130118750Y-106900000D01*
G75*
G02*
X129875000Y-106656250I0J243750D01*
G01*
X129875000Y-106168750D01*
G75*
G02*
X130118750Y-105925000I243750J0D01*
G01*
G37*
%TD*%
%TO.C,C11*%
G36*
G01*
X145300000Y-101081250D02*
X145300000Y-100518750D01*
G75*
G02*
X145543750Y-100275000I243750J0D01*
G01*
X146031250Y-100275000D01*
G75*
G02*
X146275000Y-100518750I0J-243750D01*
G01*
X146275000Y-101081250D01*
G75*
G02*
X146031250Y-101325000I-243750J0D01*
G01*
X145543750Y-101325000D01*
G75*
G02*
X145300000Y-101081250I0J243750D01*
G01*
G37*
G36*
G01*
X143725000Y-101081250D02*
X143725000Y-100518750D01*
G75*
G02*
X143968750Y-100275000I243750J0D01*
G01*
X144456250Y-100275000D01*
G75*
G02*
X144700000Y-100518750I0J-243750D01*
G01*
X144700000Y-101081250D01*
G75*
G02*
X144456250Y-101325000I-243750J0D01*
G01*
X143968750Y-101325000D01*
G75*
G02*
X143725000Y-101081250I0J243750D01*
G01*
G37*
%TD*%
%TO.C,C10*%
G36*
G01*
X145300000Y-102681250D02*
X145300000Y-102118750D01*
G75*
G02*
X145543750Y-101875000I243750J0D01*
G01*
X146031250Y-101875000D01*
G75*
G02*
X146275000Y-102118750I0J-243750D01*
G01*
X146275000Y-102681250D01*
G75*
G02*
X146031250Y-102925000I-243750J0D01*
G01*
X145543750Y-102925000D01*
G75*
G02*
X145300000Y-102681250I0J243750D01*
G01*
G37*
G36*
G01*
X143725000Y-102681250D02*
X143725000Y-102118750D01*
G75*
G02*
X143968750Y-101875000I243750J0D01*
G01*
X144456250Y-101875000D01*
G75*
G02*
X144700000Y-102118750I0J-243750D01*
G01*
X144700000Y-102681250D01*
G75*
G02*
X144456250Y-102925000I-243750J0D01*
G01*
X143968750Y-102925000D01*
G75*
G02*
X143725000Y-102681250I0J243750D01*
G01*
G37*
%TD*%
%TO.C,C6*%
G36*
G01*
X124881250Y-100050000D02*
X124318750Y-100050000D01*
G75*
G02*
X124075000Y-99806250I0J243750D01*
G01*
X124075000Y-99318750D01*
G75*
G02*
X124318750Y-99075000I243750J0D01*
G01*
X124881250Y-99075000D01*
G75*
G02*
X125125000Y-99318750I0J-243750D01*
G01*
X125125000Y-99806250D01*
G75*
G02*
X124881250Y-100050000I-243750J0D01*
G01*
G37*
G36*
G01*
X124881250Y-101625000D02*
X124318750Y-101625000D01*
G75*
G02*
X124075000Y-101381250I0J243750D01*
G01*
X124075000Y-100893750D01*
G75*
G02*
X124318750Y-100650000I243750J0D01*
G01*
X124881250Y-100650000D01*
G75*
G02*
X125125000Y-100893750I0J-243750D01*
G01*
X125125000Y-101381250D01*
G75*
G02*
X124881250Y-101625000I-243750J0D01*
G01*
G37*
%TD*%
%TO.C,C5*%
G36*
G01*
X119400000Y-94218750D02*
X119400000Y-94781250D01*
G75*
G02*
X119156250Y-95025000I-243750J0D01*
G01*
X118668750Y-95025000D01*
G75*
G02*
X118425000Y-94781250I0J243750D01*
G01*
X118425000Y-94218750D01*
G75*
G02*
X118668750Y-93975000I243750J0D01*
G01*
X119156250Y-93975000D01*
G75*
G02*
X119400000Y-94218750I0J-243750D01*
G01*
G37*
G36*
G01*
X120975000Y-94218750D02*
X120975000Y-94781250D01*
G75*
G02*
X120731250Y-95025000I-243750J0D01*
G01*
X120243750Y-95025000D01*
G75*
G02*
X120000000Y-94781250I0J243750D01*
G01*
X120000000Y-94218750D01*
G75*
G02*
X120243750Y-93975000I243750J0D01*
G01*
X120731250Y-93975000D01*
G75*
G02*
X120975000Y-94218750I0J-243750D01*
G01*
G37*
%TD*%
%TO.C,C4*%
G36*
G01*
X119400000Y-91718750D02*
X119400000Y-92281250D01*
G75*
G02*
X119156250Y-92525000I-243750J0D01*
G01*
X118668750Y-92525000D01*
G75*
G02*
X118425000Y-92281250I0J243750D01*
G01*
X118425000Y-91718750D01*
G75*
G02*
X118668750Y-91475000I243750J0D01*
G01*
X119156250Y-91475000D01*
G75*
G02*
X119400000Y-91718750I0J-243750D01*
G01*
G37*
G36*
G01*
X120975000Y-91718750D02*
X120975000Y-92281250D01*
G75*
G02*
X120731250Y-92525000I-243750J0D01*
G01*
X120243750Y-92525000D01*
G75*
G02*
X120000000Y-92281250I0J243750D01*
G01*
X120000000Y-91718750D01*
G75*
G02*
X120243750Y-91475000I243750J0D01*
G01*
X120731250Y-91475000D01*
G75*
G02*
X120975000Y-91718750I0J-243750D01*
G01*
G37*
%TD*%
%TO.C,C3*%
G36*
G01*
X119181250Y-100000000D02*
X118618750Y-100000000D01*
G75*
G02*
X118375000Y-99756250I0J243750D01*
G01*
X118375000Y-99268750D01*
G75*
G02*
X118618750Y-99025000I243750J0D01*
G01*
X119181250Y-99025000D01*
G75*
G02*
X119425000Y-99268750I0J-243750D01*
G01*
X119425000Y-99756250D01*
G75*
G02*
X119181250Y-100000000I-243750J0D01*
G01*
G37*
G36*
G01*
X119181250Y-101575000D02*
X118618750Y-101575000D01*
G75*
G02*
X118375000Y-101331250I0J243750D01*
G01*
X118375000Y-100843750D01*
G75*
G02*
X118618750Y-100600000I243750J0D01*
G01*
X119181250Y-100600000D01*
G75*
G02*
X119425000Y-100843750I0J-243750D01*
G01*
X119425000Y-101331250D01*
G75*
G02*
X119181250Y-101575000I-243750J0D01*
G01*
G37*
%TD*%
%TO.C,C2*%
G36*
G01*
X118618750Y-97400000D02*
X119181250Y-97400000D01*
G75*
G02*
X119425000Y-97643750I0J-243750D01*
G01*
X119425000Y-98131250D01*
G75*
G02*
X119181250Y-98375000I-243750J0D01*
G01*
X118618750Y-98375000D01*
G75*
G02*
X118375000Y-98131250I0J243750D01*
G01*
X118375000Y-97643750D01*
G75*
G02*
X118618750Y-97400000I243750J0D01*
G01*
G37*
G36*
G01*
X118618750Y-95825000D02*
X119181250Y-95825000D01*
G75*
G02*
X119425000Y-96068750I0J-243750D01*
G01*
X119425000Y-96556250D01*
G75*
G02*
X119181250Y-96800000I-243750J0D01*
G01*
X118618750Y-96800000D01*
G75*
G02*
X118375000Y-96556250I0J243750D01*
G01*
X118375000Y-96068750D01*
G75*
G02*
X118618750Y-95825000I243750J0D01*
G01*
G37*
%TD*%
%TO.C,C1*%
G36*
G01*
X126481250Y-100050000D02*
X125918750Y-100050000D01*
G75*
G02*
X125675000Y-99806250I0J243750D01*
G01*
X125675000Y-99318750D01*
G75*
G02*
X125918750Y-99075000I243750J0D01*
G01*
X126481250Y-99075000D01*
G75*
G02*
X126725000Y-99318750I0J-243750D01*
G01*
X126725000Y-99806250D01*
G75*
G02*
X126481250Y-100050000I-243750J0D01*
G01*
G37*
G36*
G01*
X126481250Y-101625000D02*
X125918750Y-101625000D01*
G75*
G02*
X125675000Y-101381250I0J243750D01*
G01*
X125675000Y-100893750D01*
G75*
G02*
X125918750Y-100650000I243750J0D01*
G01*
X126481250Y-100650000D01*
G75*
G02*
X126725000Y-100893750I0J-243750D01*
G01*
X126725000Y-101381250D01*
G75*
G02*
X126481250Y-101625000I-243750J0D01*
G01*
G37*
%TD*%
M02*
