%TF.GenerationSoftware,KiCad,Pcbnew,(5.1.6)-1*%
%TF.CreationDate,2020-11-19T20:50:07+01:00*%
%TF.ProjectId,F373RCT6_MSDB,46333733-5243-4543-965f-4d5344422e6b,rev?*%
%TF.SameCoordinates,Original*%
%TF.FileFunction,Copper,L1,Top*%
%TF.FilePolarity,Positive*%
%FSLAX46Y46*%
G04 Gerber Fmt 4.6, Leading zero omitted, Abs format (unit mm)*
G04 Created by KiCad (PCBNEW (5.1.6)-1) date 2020-11-19 20:50:07*
%MOMM*%
%LPD*%
G01*
G04 APERTURE LIST*
%TA.AperFunction,ComponentPad*%
%ADD10C,2.000000*%
%TD*%
%TA.AperFunction,ComponentPad*%
%ADD11C,1.800000*%
%TD*%
%TA.AperFunction,ComponentPad*%
%ADD12R,1.800000X1.800000*%
%TD*%
%TA.AperFunction,ComponentPad*%
%ADD13O,1.700000X1.700000*%
%TD*%
%TA.AperFunction,ComponentPad*%
%ADD14R,1.700000X1.700000*%
%TD*%
%TA.AperFunction,SMDPad,CuDef*%
%ADD15R,2.000000X1.500000*%
%TD*%
%TA.AperFunction,SMDPad,CuDef*%
%ADD16R,2.000000X3.800000*%
%TD*%
%TA.AperFunction,SMDPad,CuDef*%
%ADD17R,1.800000X1.000000*%
%TD*%
%TA.AperFunction,SMDPad,CuDef*%
%ADD18R,2.400000X2.000000*%
%TD*%
%TA.AperFunction,SMDPad,CuDef*%
%ADD19R,1.000000X1.500000*%
%TD*%
%TA.AperFunction,SMDPad,CuDef*%
%ADD20C,0.100000*%
%TD*%
%TA.AperFunction,SMDPad,CuDef*%
%ADD21R,1.500000X1.000000*%
%TD*%
%TA.AperFunction,ViaPad*%
%ADD22C,0.600000*%
%TD*%
%TA.AperFunction,ViaPad*%
%ADD23C,0.800000*%
%TD*%
%TA.AperFunction,Conductor*%
%ADD24C,0.200000*%
%TD*%
%TA.AperFunction,Conductor*%
%ADD25C,0.500000*%
%TD*%
%TA.AperFunction,Conductor*%
%ADD26C,0.254000*%
%TD*%
G04 APERTURE END LIST*
D10*
%TO.P,SW2,1*%
%TO.N,/F_6*%
X157700000Y-116200000D03*
%TO.P,SW2,2*%
%TO.N,GND*%
X157700000Y-120700000D03*
%TO.P,SW2,1*%
%TO.N,/F_6*%
X151200000Y-116200000D03*
%TO.P,SW2,2*%
%TO.N,GND*%
X151200000Y-120700000D03*
%TD*%
%TO.P,SW1,1*%
%TO.N,/~uC_RESET*%
X118200000Y-116200000D03*
%TO.P,SW1,2*%
%TO.N,GND*%
X118200000Y-120700000D03*
%TO.P,SW1,1*%
%TO.N,/~uC_RESET*%
X111700000Y-116200000D03*
%TO.P,SW1,2*%
%TO.N,GND*%
X111700000Y-120700000D03*
%TD*%
%TO.P,C19,2*%
%TO.N,/F_6*%
%TA.AperFunction,SMDPad,CuDef*%
G36*
G01*
X149450000Y-113656250D02*
X149450000Y-113143750D01*
G75*
G02*
X149668750Y-112925000I218750J0D01*
G01*
X150106250Y-112925000D01*
G75*
G02*
X150325000Y-113143750I0J-218750D01*
G01*
X150325000Y-113656250D01*
G75*
G02*
X150106250Y-113875000I-218750J0D01*
G01*
X149668750Y-113875000D01*
G75*
G02*
X149450000Y-113656250I0J218750D01*
G01*
G37*
%TD.AperFunction*%
%TO.P,C19,1*%
%TO.N,GND*%
%TA.AperFunction,SMDPad,CuDef*%
G36*
G01*
X147875000Y-113656250D02*
X147875000Y-113143750D01*
G75*
G02*
X148093750Y-112925000I218750J0D01*
G01*
X148531250Y-112925000D01*
G75*
G02*
X148750000Y-113143750I0J-218750D01*
G01*
X148750000Y-113656250D01*
G75*
G02*
X148531250Y-113875000I-218750J0D01*
G01*
X148093750Y-113875000D01*
G75*
G02*
X147875000Y-113656250I0J218750D01*
G01*
G37*
%TD.AperFunction*%
%TD*%
%TO.P,C7,2*%
%TO.N,/~uC_RESET*%
%TA.AperFunction,SMDPad,CuDef*%
G36*
G01*
X119043750Y-112950000D02*
X119556250Y-112950000D01*
G75*
G02*
X119775000Y-113168750I0J-218750D01*
G01*
X119775000Y-113606250D01*
G75*
G02*
X119556250Y-113825000I-218750J0D01*
G01*
X119043750Y-113825000D01*
G75*
G02*
X118825000Y-113606250I0J218750D01*
G01*
X118825000Y-113168750D01*
G75*
G02*
X119043750Y-112950000I218750J0D01*
G01*
G37*
%TD.AperFunction*%
%TO.P,C7,1*%
%TO.N,GND*%
%TA.AperFunction,SMDPad,CuDef*%
G36*
G01*
X119043750Y-111375000D02*
X119556250Y-111375000D01*
G75*
G02*
X119775000Y-111593750I0J-218750D01*
G01*
X119775000Y-112031250D01*
G75*
G02*
X119556250Y-112250000I-218750J0D01*
G01*
X119043750Y-112250000D01*
G75*
G02*
X118825000Y-112031250I0J218750D01*
G01*
X118825000Y-111593750D01*
G75*
G02*
X119043750Y-111375000I218750J0D01*
G01*
G37*
%TD.AperFunction*%
%TD*%
%TO.P,R5,2*%
%TO.N,Net-(D2-Pad2)*%
%TA.AperFunction,SMDPad,CuDef*%
G36*
G01*
X152156250Y-76550000D02*
X151643750Y-76550000D01*
G75*
G02*
X151425000Y-76331250I0J218750D01*
G01*
X151425000Y-75893750D01*
G75*
G02*
X151643750Y-75675000I218750J0D01*
G01*
X152156250Y-75675000D01*
G75*
G02*
X152375000Y-75893750I0J-218750D01*
G01*
X152375000Y-76331250D01*
G75*
G02*
X152156250Y-76550000I-218750J0D01*
G01*
G37*
%TD.AperFunction*%
%TO.P,R5,1*%
%TO.N,VDD*%
%TA.AperFunction,SMDPad,CuDef*%
G36*
G01*
X152156250Y-78125000D02*
X151643750Y-78125000D01*
G75*
G02*
X151425000Y-77906250I0J218750D01*
G01*
X151425000Y-77468750D01*
G75*
G02*
X151643750Y-77250000I218750J0D01*
G01*
X152156250Y-77250000D01*
G75*
G02*
X152375000Y-77468750I0J-218750D01*
G01*
X152375000Y-77906250D01*
G75*
G02*
X152156250Y-78125000I-218750J0D01*
G01*
G37*
%TD.AperFunction*%
%TD*%
%TO.P,R4,2*%
%TO.N,Net-(D1-Pad2)*%
%TA.AperFunction,SMDPad,CuDef*%
G36*
G01*
X114350000Y-80443750D02*
X114350000Y-80956250D01*
G75*
G02*
X114131250Y-81175000I-218750J0D01*
G01*
X113693750Y-81175000D01*
G75*
G02*
X113475000Y-80956250I0J218750D01*
G01*
X113475000Y-80443750D01*
G75*
G02*
X113693750Y-80225000I218750J0D01*
G01*
X114131250Y-80225000D01*
G75*
G02*
X114350000Y-80443750I0J-218750D01*
G01*
G37*
%TD.AperFunction*%
%TO.P,R4,1*%
%TO.N,VDD*%
%TA.AperFunction,SMDPad,CuDef*%
G36*
G01*
X115925000Y-80443750D02*
X115925000Y-80956250D01*
G75*
G02*
X115706250Y-81175000I-218750J0D01*
G01*
X115268750Y-81175000D01*
G75*
G02*
X115050000Y-80956250I0J218750D01*
G01*
X115050000Y-80443750D01*
G75*
G02*
X115268750Y-80225000I218750J0D01*
G01*
X115706250Y-80225000D01*
G75*
G02*
X115925000Y-80443750I0J-218750D01*
G01*
G37*
%TD.AperFunction*%
%TD*%
D11*
%TO.P,D2,2*%
%TO.N,Net-(D2-Pad2)*%
X155450000Y-75660000D03*
D12*
%TO.P,D2,1*%
%TO.N,GND*%
X155450000Y-78200000D03*
%TD*%
D11*
%TO.P,D1,2*%
%TO.N,Net-(D1-Pad2)*%
X113950000Y-75660000D03*
D12*
%TO.P,D1,1*%
%TO.N,/C_13*%
X113950000Y-78200000D03*
%TD*%
%TO.P,C9,2*%
%TO.N,/STM32F373RCT6/GNDA*%
%TA.AperFunction,SMDPad,CuDef*%
G36*
G01*
X138850000Y-105643750D02*
X138850000Y-106156250D01*
G75*
G02*
X138631250Y-106375000I-218750J0D01*
G01*
X138193750Y-106375000D01*
G75*
G02*
X137975000Y-106156250I0J218750D01*
G01*
X137975000Y-105643750D01*
G75*
G02*
X138193750Y-105425000I218750J0D01*
G01*
X138631250Y-105425000D01*
G75*
G02*
X138850000Y-105643750I0J-218750D01*
G01*
G37*
%TD.AperFunction*%
%TO.P,C9,1*%
%TO.N,/STM32F373RCT6/VDDA*%
%TA.AperFunction,SMDPad,CuDef*%
G36*
G01*
X140425000Y-105643750D02*
X140425000Y-106156250D01*
G75*
G02*
X140206250Y-106375000I-218750J0D01*
G01*
X139768750Y-106375000D01*
G75*
G02*
X139550000Y-106156250I0J218750D01*
G01*
X139550000Y-105643750D01*
G75*
G02*
X139768750Y-105425000I218750J0D01*
G01*
X140206250Y-105425000D01*
G75*
G02*
X140425000Y-105643750I0J-218750D01*
G01*
G37*
%TD.AperFunction*%
%TD*%
%TO.P,C8,2*%
%TO.N,/STM32F373RCT6/GNDA*%
%TA.AperFunction,SMDPad,CuDef*%
G36*
G01*
X138850000Y-107243750D02*
X138850000Y-107756250D01*
G75*
G02*
X138631250Y-107975000I-218750J0D01*
G01*
X138193750Y-107975000D01*
G75*
G02*
X137975000Y-107756250I0J218750D01*
G01*
X137975000Y-107243750D01*
G75*
G02*
X138193750Y-107025000I218750J0D01*
G01*
X138631250Y-107025000D01*
G75*
G02*
X138850000Y-107243750I0J-218750D01*
G01*
G37*
%TD.AperFunction*%
%TO.P,C8,1*%
%TO.N,/STM32F373RCT6/VDDA*%
%TA.AperFunction,SMDPad,CuDef*%
G36*
G01*
X140425000Y-107243750D02*
X140425000Y-107756250D01*
G75*
G02*
X140206250Y-107975000I-218750J0D01*
G01*
X139768750Y-107975000D01*
G75*
G02*
X139550000Y-107756250I0J218750D01*
G01*
X139550000Y-107243750D01*
G75*
G02*
X139768750Y-107025000I218750J0D01*
G01*
X140206250Y-107025000D01*
G75*
G02*
X140425000Y-107243750I0J-218750D01*
G01*
G37*
%TD.AperFunction*%
%TD*%
D13*
%TO.P,J5,24*%
%TO.N,GND*%
X155655000Y-111670000D03*
%TO.P,J5,23*%
%TO.N,VDD*%
X153115000Y-111670000D03*
%TO.P,J5,22*%
%TO.N,GND*%
X155655000Y-109130000D03*
%TO.P,J5,21*%
%TO.N,/C_6*%
X153115000Y-109130000D03*
%TO.P,J5,20*%
%TO.N,GND*%
X155655000Y-106590000D03*
%TO.P,J5,19*%
%TO.N,/C_7*%
X153115000Y-106590000D03*
%TO.P,J5,18*%
%TO.N,GND*%
X155655000Y-104050000D03*
%TO.P,J5,17*%
%TO.N,/C_8*%
X153115000Y-104050000D03*
%TO.P,J5,16*%
%TO.N,GND*%
X155655000Y-101510000D03*
%TO.P,J5,15*%
%TO.N,/C_9*%
X153115000Y-101510000D03*
%TO.P,J5,14*%
%TO.N,GND*%
X155655000Y-98970000D03*
%TO.P,J5,13*%
%TO.N,/A_8*%
X153115000Y-98970000D03*
%TO.P,J5,12*%
%TO.N,GND*%
X155655000Y-96430000D03*
%TO.P,J5,11*%
%TO.N,/A_9*%
X153115000Y-96430000D03*
%TO.P,J5,10*%
%TO.N,GND*%
X155655000Y-93890000D03*
%TO.P,J5,9*%
%TO.N,/A_10*%
X153115000Y-93890000D03*
%TO.P,J5,8*%
%TO.N,GND*%
X155655000Y-91350000D03*
%TO.P,J5,7*%
%TO.N,/A_11*%
X153115000Y-91350000D03*
%TO.P,J5,6*%
%TO.N,GND*%
X155655000Y-88810000D03*
%TO.P,J5,5*%
%TO.N,/A_12*%
X153115000Y-88810000D03*
%TO.P,J5,4*%
%TO.N,GND*%
X155655000Y-86270000D03*
%TO.P,J5,3*%
%TO.N,/A_15*%
X153115000Y-86270000D03*
%TO.P,J5,2*%
%TO.N,GND*%
X155655000Y-83730000D03*
D14*
%TO.P,J5,1*%
%TO.N,+5V*%
X153115000Y-83730000D03*
%TD*%
D13*
%TO.P,J4,24*%
%TO.N,GND*%
X120730000Y-118655000D03*
%TO.P,J4,23*%
%TO.N,VDD*%
X120730000Y-116115000D03*
%TO.P,J4,22*%
%TO.N,GND*%
X123270000Y-118655000D03*
%TO.P,J4,21*%
%TO.N,/C_4*%
X123270000Y-116115000D03*
%TO.P,J4,20*%
%TO.N,GND*%
X125810000Y-118655000D03*
%TO.P,J4,19*%
%TO.N,/C_5*%
X125810000Y-116115000D03*
%TO.P,J4,18*%
%TO.N,GND*%
X128350000Y-118655000D03*
%TO.P,J4,17*%
%TO.N,/B_0*%
X128350000Y-116115000D03*
%TO.P,J4,16*%
%TO.N,GND*%
X130890000Y-118655000D03*
%TO.P,J4,15*%
%TO.N,/B_1*%
X130890000Y-116115000D03*
%TO.P,J4,14*%
%TO.N,GND*%
X133430000Y-118655000D03*
%TO.P,J4,13*%
%TO.N,/B_2*%
X133430000Y-116115000D03*
%TO.P,J4,12*%
%TO.N,GND*%
X135970000Y-118655000D03*
%TO.P,J4,11*%
%TO.N,/E_8*%
X135970000Y-116115000D03*
%TO.P,J4,10*%
%TO.N,GND*%
X138510000Y-118655000D03*
%TO.P,J4,9*%
%TO.N,/E_9*%
X138510000Y-116115000D03*
%TO.P,J4,8*%
%TO.N,GND*%
X141050000Y-118655000D03*
%TO.P,J4,7*%
%TO.N,/B_14*%
X141050000Y-116115000D03*
%TO.P,J4,6*%
%TO.N,GND*%
X143590000Y-118655000D03*
%TO.P,J4,5*%
%TO.N,/B_15*%
X143590000Y-116115000D03*
%TO.P,J4,4*%
%TO.N,GND*%
X146130000Y-118655000D03*
%TO.P,J4,3*%
%TO.N,/D_8*%
X146130000Y-116115000D03*
%TO.P,J4,2*%
%TO.N,GND*%
X148670000Y-118655000D03*
D14*
%TO.P,J4,1*%
%TO.N,+5V*%
X148670000Y-116115000D03*
%TD*%
%TO.P,J3,1*%
%TO.N,+5V*%
X116285000Y-111670000D03*
D13*
%TO.P,J3,2*%
%TO.N,GND*%
X113745000Y-111670000D03*
%TO.P,J3,3*%
%TO.N,/A_3*%
X116285000Y-109130000D03*
%TO.P,J3,4*%
%TO.N,GND*%
X113745000Y-109130000D03*
%TO.P,J3,5*%
%TO.N,/A_2*%
X116285000Y-106590000D03*
%TO.P,J3,6*%
%TO.N,GND*%
X113745000Y-106590000D03*
%TO.P,J3,7*%
%TO.N,/A_1*%
X116285000Y-104050000D03*
%TO.P,J3,8*%
%TO.N,GND*%
X113745000Y-104050000D03*
%TO.P,J3,9*%
%TO.N,/A_0*%
X116285000Y-101510000D03*
%TO.P,J3,10*%
%TO.N,GND*%
X113745000Y-101510000D03*
%TO.P,J3,11*%
%TO.N,/C_3*%
X116285000Y-98970000D03*
%TO.P,J3,12*%
%TO.N,GND*%
X113745000Y-98970000D03*
%TO.P,J3,13*%
%TO.N,/C_2*%
X116285000Y-96430000D03*
%TO.P,J3,14*%
%TO.N,GND*%
X113745000Y-96430000D03*
%TO.P,J3,15*%
%TO.N,/C_1*%
X116285000Y-93890000D03*
%TO.P,J3,16*%
%TO.N,GND*%
X113745000Y-93890000D03*
%TO.P,J3,17*%
%TO.N,/C_0*%
X116285000Y-91350000D03*
%TO.P,J3,18*%
%TO.N,GND*%
X113745000Y-91350000D03*
%TO.P,J3,19*%
%TO.N,/B_9*%
X116285000Y-88810000D03*
%TO.P,J3,20*%
%TO.N,GND*%
X113745000Y-88810000D03*
%TO.P,J3,21*%
%TO.N,/B_8*%
X116285000Y-86270000D03*
%TO.P,J3,22*%
%TO.N,GND*%
X113745000Y-86270000D03*
%TO.P,J3,23*%
%TO.N,VDD*%
X116285000Y-83730000D03*
%TO.P,J3,24*%
%TO.N,GND*%
X113745000Y-83730000D03*
%TD*%
%TO.P,J2,12*%
%TO.N,GND*%
X133430000Y-76745000D03*
%TO.P,J2,11*%
%TO.N,/C_10*%
X133430000Y-79285000D03*
%TO.P,J2,10*%
%TO.N,GND*%
X130890000Y-76745000D03*
%TO.P,J2,9*%
%TO.N,/C_11*%
X130890000Y-79285000D03*
%TO.P,J2,8*%
%TO.N,GND*%
X128350000Y-76745000D03*
%TO.P,J2,7*%
%TO.N,/C_12*%
X128350000Y-79285000D03*
%TO.P,J2,6*%
%TO.N,GND*%
X125810000Y-76745000D03*
%TO.P,J2,5*%
%TO.N,/D_2*%
X125810000Y-79285000D03*
%TO.P,J2,4*%
%TO.N,GND*%
X123270000Y-76745000D03*
%TO.P,J2,3*%
%TO.N,/B_3*%
X123270000Y-79285000D03*
%TO.P,J2,2*%
%TO.N,GND*%
X120730000Y-76745000D03*
D14*
%TO.P,J2,1*%
%TO.N,+5V*%
X120730000Y-79285000D03*
%TD*%
%TO.P,L1,2*%
%TO.N,VDD*%
%TA.AperFunction,SMDPad,CuDef*%
G36*
G01*
X145450000Y-107356250D02*
X145450000Y-106443750D01*
G75*
G02*
X145693750Y-106200000I243750J0D01*
G01*
X146181250Y-106200000D01*
G75*
G02*
X146425000Y-106443750I0J-243750D01*
G01*
X146425000Y-107356250D01*
G75*
G02*
X146181250Y-107600000I-243750J0D01*
G01*
X145693750Y-107600000D01*
G75*
G02*
X145450000Y-107356250I0J243750D01*
G01*
G37*
%TD.AperFunction*%
%TO.P,L1,1*%
%TO.N,/STM32F373RCT6/VDDA*%
%TA.AperFunction,SMDPad,CuDef*%
G36*
G01*
X143575000Y-107356250D02*
X143575000Y-106443750D01*
G75*
G02*
X143818750Y-106200000I243750J0D01*
G01*
X144306250Y-106200000D01*
G75*
G02*
X144550000Y-106443750I0J-243750D01*
G01*
X144550000Y-107356250D01*
G75*
G02*
X144306250Y-107600000I-243750J0D01*
G01*
X143818750Y-107600000D01*
G75*
G02*
X143575000Y-107356250I0J243750D01*
G01*
G37*
%TD.AperFunction*%
%TD*%
%TO.P,C18,2*%
%TO.N,GND*%
%TA.AperFunction,SMDPad,CuDef*%
G36*
G01*
X149343750Y-88150000D02*
X149856250Y-88150000D01*
G75*
G02*
X150075000Y-88368750I0J-218750D01*
G01*
X150075000Y-88806250D01*
G75*
G02*
X149856250Y-89025000I-218750J0D01*
G01*
X149343750Y-89025000D01*
G75*
G02*
X149125000Y-88806250I0J218750D01*
G01*
X149125000Y-88368750D01*
G75*
G02*
X149343750Y-88150000I218750J0D01*
G01*
G37*
%TD.AperFunction*%
%TO.P,C18,1*%
%TO.N,VDD*%
%TA.AperFunction,SMDPad,CuDef*%
G36*
G01*
X149343750Y-86575000D02*
X149856250Y-86575000D01*
G75*
G02*
X150075000Y-86793750I0J-218750D01*
G01*
X150075000Y-87231250D01*
G75*
G02*
X149856250Y-87450000I-218750J0D01*
G01*
X149343750Y-87450000D01*
G75*
G02*
X149125000Y-87231250I0J218750D01*
G01*
X149125000Y-86793750D01*
G75*
G02*
X149343750Y-86575000I218750J0D01*
G01*
G37*
%TD.AperFunction*%
%TD*%
%TO.P,C17,2*%
%TO.N,GND*%
%TA.AperFunction,SMDPad,CuDef*%
G36*
G01*
X149343750Y-84150000D02*
X149856250Y-84150000D01*
G75*
G02*
X150075000Y-84368750I0J-218750D01*
G01*
X150075000Y-84806250D01*
G75*
G02*
X149856250Y-85025000I-218750J0D01*
G01*
X149343750Y-85025000D01*
G75*
G02*
X149125000Y-84806250I0J218750D01*
G01*
X149125000Y-84368750D01*
G75*
G02*
X149343750Y-84150000I218750J0D01*
G01*
G37*
%TD.AperFunction*%
%TO.P,C17,1*%
%TO.N,+5V*%
%TA.AperFunction,SMDPad,CuDef*%
G36*
G01*
X149343750Y-82575000D02*
X149856250Y-82575000D01*
G75*
G02*
X150075000Y-82793750I0J-218750D01*
G01*
X150075000Y-83231250D01*
G75*
G02*
X149856250Y-83450000I-218750J0D01*
G01*
X149343750Y-83450000D01*
G75*
G02*
X149125000Y-83231250I0J218750D01*
G01*
X149125000Y-82793750D01*
G75*
G02*
X149343750Y-82575000I218750J0D01*
G01*
G37*
%TD.AperFunction*%
%TD*%
D15*
%TO.P,U2,1*%
%TO.N,GND*%
X147450000Y-88100000D03*
%TO.P,U2,3*%
%TO.N,+5V*%
X147450000Y-83500000D03*
%TO.P,U2,2*%
%TO.N,VDD*%
X147450000Y-85800000D03*
D16*
X141150000Y-85800000D03*
%TD*%
%TO.P,R3,2*%
%TO.N,/STM32F373RCT6/GNDA*%
%TA.AperFunction,SMDPad,CuDef*%
G36*
G01*
X147150000Y-90043750D02*
X147150000Y-90556250D01*
G75*
G02*
X146931250Y-90775000I-218750J0D01*
G01*
X146493750Y-90775000D01*
G75*
G02*
X146275000Y-90556250I0J218750D01*
G01*
X146275000Y-90043750D01*
G75*
G02*
X146493750Y-89825000I218750J0D01*
G01*
X146931250Y-89825000D01*
G75*
G02*
X147150000Y-90043750I0J-218750D01*
G01*
G37*
%TD.AperFunction*%
%TO.P,R3,1*%
%TO.N,GND*%
%TA.AperFunction,SMDPad,CuDef*%
G36*
G01*
X148725000Y-90043750D02*
X148725000Y-90556250D01*
G75*
G02*
X148506250Y-90775000I-218750J0D01*
G01*
X148068750Y-90775000D01*
G75*
G02*
X147850000Y-90556250I0J218750D01*
G01*
X147850000Y-90043750D01*
G75*
G02*
X148068750Y-89825000I218750J0D01*
G01*
X148506250Y-89825000D01*
G75*
G02*
X148725000Y-90043750I0J-218750D01*
G01*
G37*
%TD.AperFunction*%
%TD*%
D13*
%TO.P,J1,8*%
%TO.N,+5V*%
X148670000Y-76745000D03*
%TO.P,J1,7*%
%TO.N,VDD*%
X148670000Y-79285000D03*
%TO.P,J1,6*%
%TO.N,GND*%
X146130000Y-76745000D03*
%TO.P,J1,5*%
%TO.N,/SWD_DIO*%
X146130000Y-79285000D03*
%TO.P,J1,4*%
%TO.N,GND*%
X143590000Y-76745000D03*
%TO.P,J1,3*%
%TO.N,/SWD_CLK*%
X143590000Y-79285000D03*
%TO.P,J1,2*%
%TO.N,GND*%
X141050000Y-76745000D03*
D14*
%TO.P,J1,1*%
%TO.N,/~uC_RESET*%
X141050000Y-79285000D03*
%TD*%
D17*
%TO.P,Y2,2*%
%TO.N,Net-(C5-Pad1)*%
X122500000Y-94450000D03*
%TO.P,Y2,1*%
%TO.N,Net-(C4-Pad1)*%
X122500000Y-91950000D03*
%TD*%
D18*
%TO.P,Y1,2*%
%TO.N,Net-(C3-Pad1)*%
X121800000Y-100550000D03*
%TO.P,Y1,1*%
%TO.N,Net-(C2-Pad1)*%
X121800000Y-96850000D03*
%TD*%
%TO.P,U1,64*%
%TO.N,VDD*%
%TA.AperFunction,SMDPad,CuDef*%
G36*
G01*
X130800000Y-92725000D02*
X130800000Y-91325000D01*
G75*
G02*
X130875000Y-91250000I75000J0D01*
G01*
X131025000Y-91250000D01*
G75*
G02*
X131100000Y-91325000I0J-75000D01*
G01*
X131100000Y-92725000D01*
G75*
G02*
X131025000Y-92800000I-75000J0D01*
G01*
X130875000Y-92800000D01*
G75*
G02*
X130800000Y-92725000I0J75000D01*
G01*
G37*
%TD.AperFunction*%
%TO.P,U1,63*%
%TO.N,GND*%
%TA.AperFunction,SMDPad,CuDef*%
G36*
G01*
X131300000Y-92725000D02*
X131300000Y-91325000D01*
G75*
G02*
X131375000Y-91250000I75000J0D01*
G01*
X131525000Y-91250000D01*
G75*
G02*
X131600000Y-91325000I0J-75000D01*
G01*
X131600000Y-92725000D01*
G75*
G02*
X131525000Y-92800000I-75000J0D01*
G01*
X131375000Y-92800000D01*
G75*
G02*
X131300000Y-92725000I0J75000D01*
G01*
G37*
%TD.AperFunction*%
%TO.P,U1,62*%
%TO.N,/B_9*%
%TA.AperFunction,SMDPad,CuDef*%
G36*
G01*
X131800000Y-92725000D02*
X131800000Y-91325000D01*
G75*
G02*
X131875000Y-91250000I75000J0D01*
G01*
X132025000Y-91250000D01*
G75*
G02*
X132100000Y-91325000I0J-75000D01*
G01*
X132100000Y-92725000D01*
G75*
G02*
X132025000Y-92800000I-75000J0D01*
G01*
X131875000Y-92800000D01*
G75*
G02*
X131800000Y-92725000I0J75000D01*
G01*
G37*
%TD.AperFunction*%
%TO.P,U1,61*%
%TO.N,/B_8*%
%TA.AperFunction,SMDPad,CuDef*%
G36*
G01*
X132300000Y-92725000D02*
X132300000Y-91325000D01*
G75*
G02*
X132375000Y-91250000I75000J0D01*
G01*
X132525000Y-91250000D01*
G75*
G02*
X132600000Y-91325000I0J-75000D01*
G01*
X132600000Y-92725000D01*
G75*
G02*
X132525000Y-92800000I-75000J0D01*
G01*
X132375000Y-92800000D01*
G75*
G02*
X132300000Y-92725000I0J75000D01*
G01*
G37*
%TD.AperFunction*%
%TO.P,U1,60*%
%TO.N,Net-(R1-Pad2)*%
%TA.AperFunction,SMDPad,CuDef*%
G36*
G01*
X132800000Y-92725000D02*
X132800000Y-91325000D01*
G75*
G02*
X132875000Y-91250000I75000J0D01*
G01*
X133025000Y-91250000D01*
G75*
G02*
X133100000Y-91325000I0J-75000D01*
G01*
X133100000Y-92725000D01*
G75*
G02*
X133025000Y-92800000I-75000J0D01*
G01*
X132875000Y-92800000D01*
G75*
G02*
X132800000Y-92725000I0J75000D01*
G01*
G37*
%TD.AperFunction*%
%TO.P,U1,59*%
%TO.N,/B_7*%
%TA.AperFunction,SMDPad,CuDef*%
G36*
G01*
X133300000Y-92725000D02*
X133300000Y-91325000D01*
G75*
G02*
X133375000Y-91250000I75000J0D01*
G01*
X133525000Y-91250000D01*
G75*
G02*
X133600000Y-91325000I0J-75000D01*
G01*
X133600000Y-92725000D01*
G75*
G02*
X133525000Y-92800000I-75000J0D01*
G01*
X133375000Y-92800000D01*
G75*
G02*
X133300000Y-92725000I0J75000D01*
G01*
G37*
%TD.AperFunction*%
%TO.P,U1,58*%
%TO.N,/B_6*%
%TA.AperFunction,SMDPad,CuDef*%
G36*
G01*
X133800000Y-92725000D02*
X133800000Y-91325000D01*
G75*
G02*
X133875000Y-91250000I75000J0D01*
G01*
X134025000Y-91250000D01*
G75*
G02*
X134100000Y-91325000I0J-75000D01*
G01*
X134100000Y-92725000D01*
G75*
G02*
X134025000Y-92800000I-75000J0D01*
G01*
X133875000Y-92800000D01*
G75*
G02*
X133800000Y-92725000I0J75000D01*
G01*
G37*
%TD.AperFunction*%
%TO.P,U1,57*%
%TO.N,/B_5*%
%TA.AperFunction,SMDPad,CuDef*%
G36*
G01*
X134300000Y-92725000D02*
X134300000Y-91325000D01*
G75*
G02*
X134375000Y-91250000I75000J0D01*
G01*
X134525000Y-91250000D01*
G75*
G02*
X134600000Y-91325000I0J-75000D01*
G01*
X134600000Y-92725000D01*
G75*
G02*
X134525000Y-92800000I-75000J0D01*
G01*
X134375000Y-92800000D01*
G75*
G02*
X134300000Y-92725000I0J75000D01*
G01*
G37*
%TD.AperFunction*%
%TO.P,U1,56*%
%TO.N,/B_4*%
%TA.AperFunction,SMDPad,CuDef*%
G36*
G01*
X134800000Y-92725000D02*
X134800000Y-91325000D01*
G75*
G02*
X134875000Y-91250000I75000J0D01*
G01*
X135025000Y-91250000D01*
G75*
G02*
X135100000Y-91325000I0J-75000D01*
G01*
X135100000Y-92725000D01*
G75*
G02*
X135025000Y-92800000I-75000J0D01*
G01*
X134875000Y-92800000D01*
G75*
G02*
X134800000Y-92725000I0J75000D01*
G01*
G37*
%TD.AperFunction*%
%TO.P,U1,55*%
%TO.N,/B_3*%
%TA.AperFunction,SMDPad,CuDef*%
G36*
G01*
X135300000Y-92725000D02*
X135300000Y-91325000D01*
G75*
G02*
X135375000Y-91250000I75000J0D01*
G01*
X135525000Y-91250000D01*
G75*
G02*
X135600000Y-91325000I0J-75000D01*
G01*
X135600000Y-92725000D01*
G75*
G02*
X135525000Y-92800000I-75000J0D01*
G01*
X135375000Y-92800000D01*
G75*
G02*
X135300000Y-92725000I0J75000D01*
G01*
G37*
%TD.AperFunction*%
%TO.P,U1,54*%
%TO.N,/D_2*%
%TA.AperFunction,SMDPad,CuDef*%
G36*
G01*
X135800000Y-92725000D02*
X135800000Y-91325000D01*
G75*
G02*
X135875000Y-91250000I75000J0D01*
G01*
X136025000Y-91250000D01*
G75*
G02*
X136100000Y-91325000I0J-75000D01*
G01*
X136100000Y-92725000D01*
G75*
G02*
X136025000Y-92800000I-75000J0D01*
G01*
X135875000Y-92800000D01*
G75*
G02*
X135800000Y-92725000I0J75000D01*
G01*
G37*
%TD.AperFunction*%
%TO.P,U1,53*%
%TO.N,/C_12*%
%TA.AperFunction,SMDPad,CuDef*%
G36*
G01*
X136300000Y-92725000D02*
X136300000Y-91325000D01*
G75*
G02*
X136375000Y-91250000I75000J0D01*
G01*
X136525000Y-91250000D01*
G75*
G02*
X136600000Y-91325000I0J-75000D01*
G01*
X136600000Y-92725000D01*
G75*
G02*
X136525000Y-92800000I-75000J0D01*
G01*
X136375000Y-92800000D01*
G75*
G02*
X136300000Y-92725000I0J75000D01*
G01*
G37*
%TD.AperFunction*%
%TO.P,U1,52*%
%TO.N,/C_11*%
%TA.AperFunction,SMDPad,CuDef*%
G36*
G01*
X136800000Y-92725000D02*
X136800000Y-91325000D01*
G75*
G02*
X136875000Y-91250000I75000J0D01*
G01*
X137025000Y-91250000D01*
G75*
G02*
X137100000Y-91325000I0J-75000D01*
G01*
X137100000Y-92725000D01*
G75*
G02*
X137025000Y-92800000I-75000J0D01*
G01*
X136875000Y-92800000D01*
G75*
G02*
X136800000Y-92725000I0J75000D01*
G01*
G37*
%TD.AperFunction*%
%TO.P,U1,51*%
%TO.N,/C_10*%
%TA.AperFunction,SMDPad,CuDef*%
G36*
G01*
X137300000Y-92725000D02*
X137300000Y-91325000D01*
G75*
G02*
X137375000Y-91250000I75000J0D01*
G01*
X137525000Y-91250000D01*
G75*
G02*
X137600000Y-91325000I0J-75000D01*
G01*
X137600000Y-92725000D01*
G75*
G02*
X137525000Y-92800000I-75000J0D01*
G01*
X137375000Y-92800000D01*
G75*
G02*
X137300000Y-92725000I0J75000D01*
G01*
G37*
%TD.AperFunction*%
%TO.P,U1,50*%
%TO.N,/A_15*%
%TA.AperFunction,SMDPad,CuDef*%
G36*
G01*
X137800000Y-92725000D02*
X137800000Y-91325000D01*
G75*
G02*
X137875000Y-91250000I75000J0D01*
G01*
X138025000Y-91250000D01*
G75*
G02*
X138100000Y-91325000I0J-75000D01*
G01*
X138100000Y-92725000D01*
G75*
G02*
X138025000Y-92800000I-75000J0D01*
G01*
X137875000Y-92800000D01*
G75*
G02*
X137800000Y-92725000I0J75000D01*
G01*
G37*
%TD.AperFunction*%
%TO.P,U1,49*%
%TO.N,/SWD_CLK*%
%TA.AperFunction,SMDPad,CuDef*%
G36*
G01*
X138300000Y-92725000D02*
X138300000Y-91325000D01*
G75*
G02*
X138375000Y-91250000I75000J0D01*
G01*
X138525000Y-91250000D01*
G75*
G02*
X138600000Y-91325000I0J-75000D01*
G01*
X138600000Y-92725000D01*
G75*
G02*
X138525000Y-92800000I-75000J0D01*
G01*
X138375000Y-92800000D01*
G75*
G02*
X138300000Y-92725000I0J75000D01*
G01*
G37*
%TD.AperFunction*%
%TO.P,U1,48*%
%TO.N,/F_7*%
%TA.AperFunction,SMDPad,CuDef*%
G36*
G01*
X139600000Y-94025000D02*
X139600000Y-93875000D01*
G75*
G02*
X139675000Y-93800000I75000J0D01*
G01*
X141075000Y-93800000D01*
G75*
G02*
X141150000Y-93875000I0J-75000D01*
G01*
X141150000Y-94025000D01*
G75*
G02*
X141075000Y-94100000I-75000J0D01*
G01*
X139675000Y-94100000D01*
G75*
G02*
X139600000Y-94025000I0J75000D01*
G01*
G37*
%TD.AperFunction*%
%TO.P,U1,47*%
%TO.N,/F_6*%
%TA.AperFunction,SMDPad,CuDef*%
G36*
G01*
X139600000Y-94525000D02*
X139600000Y-94375000D01*
G75*
G02*
X139675000Y-94300000I75000J0D01*
G01*
X141075000Y-94300000D01*
G75*
G02*
X141150000Y-94375000I0J-75000D01*
G01*
X141150000Y-94525000D01*
G75*
G02*
X141075000Y-94600000I-75000J0D01*
G01*
X139675000Y-94600000D01*
G75*
G02*
X139600000Y-94525000I0J75000D01*
G01*
G37*
%TD.AperFunction*%
%TO.P,U1,46*%
%TO.N,/SWD_DIO*%
%TA.AperFunction,SMDPad,CuDef*%
G36*
G01*
X139600000Y-95025000D02*
X139600000Y-94875000D01*
G75*
G02*
X139675000Y-94800000I75000J0D01*
G01*
X141075000Y-94800000D01*
G75*
G02*
X141150000Y-94875000I0J-75000D01*
G01*
X141150000Y-95025000D01*
G75*
G02*
X141075000Y-95100000I-75000J0D01*
G01*
X139675000Y-95100000D01*
G75*
G02*
X139600000Y-95025000I0J75000D01*
G01*
G37*
%TD.AperFunction*%
%TO.P,U1,45*%
%TO.N,/A_12*%
%TA.AperFunction,SMDPad,CuDef*%
G36*
G01*
X139600000Y-95525000D02*
X139600000Y-95375000D01*
G75*
G02*
X139675000Y-95300000I75000J0D01*
G01*
X141075000Y-95300000D01*
G75*
G02*
X141150000Y-95375000I0J-75000D01*
G01*
X141150000Y-95525000D01*
G75*
G02*
X141075000Y-95600000I-75000J0D01*
G01*
X139675000Y-95600000D01*
G75*
G02*
X139600000Y-95525000I0J75000D01*
G01*
G37*
%TD.AperFunction*%
%TO.P,U1,44*%
%TO.N,/A_11*%
%TA.AperFunction,SMDPad,CuDef*%
G36*
G01*
X139600000Y-96025000D02*
X139600000Y-95875000D01*
G75*
G02*
X139675000Y-95800000I75000J0D01*
G01*
X141075000Y-95800000D01*
G75*
G02*
X141150000Y-95875000I0J-75000D01*
G01*
X141150000Y-96025000D01*
G75*
G02*
X141075000Y-96100000I-75000J0D01*
G01*
X139675000Y-96100000D01*
G75*
G02*
X139600000Y-96025000I0J75000D01*
G01*
G37*
%TD.AperFunction*%
%TO.P,U1,43*%
%TO.N,/A_10*%
%TA.AperFunction,SMDPad,CuDef*%
G36*
G01*
X139600000Y-96525000D02*
X139600000Y-96375000D01*
G75*
G02*
X139675000Y-96300000I75000J0D01*
G01*
X141075000Y-96300000D01*
G75*
G02*
X141150000Y-96375000I0J-75000D01*
G01*
X141150000Y-96525000D01*
G75*
G02*
X141075000Y-96600000I-75000J0D01*
G01*
X139675000Y-96600000D01*
G75*
G02*
X139600000Y-96525000I0J75000D01*
G01*
G37*
%TD.AperFunction*%
%TO.P,U1,42*%
%TO.N,/A_9*%
%TA.AperFunction,SMDPad,CuDef*%
G36*
G01*
X139600000Y-97025000D02*
X139600000Y-96875000D01*
G75*
G02*
X139675000Y-96800000I75000J0D01*
G01*
X141075000Y-96800000D01*
G75*
G02*
X141150000Y-96875000I0J-75000D01*
G01*
X141150000Y-97025000D01*
G75*
G02*
X141075000Y-97100000I-75000J0D01*
G01*
X139675000Y-97100000D01*
G75*
G02*
X139600000Y-97025000I0J75000D01*
G01*
G37*
%TD.AperFunction*%
%TO.P,U1,41*%
%TO.N,/A_8*%
%TA.AperFunction,SMDPad,CuDef*%
G36*
G01*
X139600000Y-97525000D02*
X139600000Y-97375000D01*
G75*
G02*
X139675000Y-97300000I75000J0D01*
G01*
X141075000Y-97300000D01*
G75*
G02*
X141150000Y-97375000I0J-75000D01*
G01*
X141150000Y-97525000D01*
G75*
G02*
X141075000Y-97600000I-75000J0D01*
G01*
X139675000Y-97600000D01*
G75*
G02*
X139600000Y-97525000I0J75000D01*
G01*
G37*
%TD.AperFunction*%
%TO.P,U1,40*%
%TO.N,/C_9*%
%TA.AperFunction,SMDPad,CuDef*%
G36*
G01*
X139600000Y-98025000D02*
X139600000Y-97875000D01*
G75*
G02*
X139675000Y-97800000I75000J0D01*
G01*
X141075000Y-97800000D01*
G75*
G02*
X141150000Y-97875000I0J-75000D01*
G01*
X141150000Y-98025000D01*
G75*
G02*
X141075000Y-98100000I-75000J0D01*
G01*
X139675000Y-98100000D01*
G75*
G02*
X139600000Y-98025000I0J75000D01*
G01*
G37*
%TD.AperFunction*%
%TO.P,U1,39*%
%TO.N,/C_8*%
%TA.AperFunction,SMDPad,CuDef*%
G36*
G01*
X139600000Y-98525000D02*
X139600000Y-98375000D01*
G75*
G02*
X139675000Y-98300000I75000J0D01*
G01*
X141075000Y-98300000D01*
G75*
G02*
X141150000Y-98375000I0J-75000D01*
G01*
X141150000Y-98525000D01*
G75*
G02*
X141075000Y-98600000I-75000J0D01*
G01*
X139675000Y-98600000D01*
G75*
G02*
X139600000Y-98525000I0J75000D01*
G01*
G37*
%TD.AperFunction*%
%TO.P,U1,38*%
%TO.N,/C_7*%
%TA.AperFunction,SMDPad,CuDef*%
G36*
G01*
X139600000Y-99025000D02*
X139600000Y-98875000D01*
G75*
G02*
X139675000Y-98800000I75000J0D01*
G01*
X141075000Y-98800000D01*
G75*
G02*
X141150000Y-98875000I0J-75000D01*
G01*
X141150000Y-99025000D01*
G75*
G02*
X141075000Y-99100000I-75000J0D01*
G01*
X139675000Y-99100000D01*
G75*
G02*
X139600000Y-99025000I0J75000D01*
G01*
G37*
%TD.AperFunction*%
%TO.P,U1,37*%
%TO.N,/C_6*%
%TA.AperFunction,SMDPad,CuDef*%
G36*
G01*
X139600000Y-99525000D02*
X139600000Y-99375000D01*
G75*
G02*
X139675000Y-99300000I75000J0D01*
G01*
X141075000Y-99300000D01*
G75*
G02*
X141150000Y-99375000I0J-75000D01*
G01*
X141150000Y-99525000D01*
G75*
G02*
X141075000Y-99600000I-75000J0D01*
G01*
X139675000Y-99600000D01*
G75*
G02*
X139600000Y-99525000I0J75000D01*
G01*
G37*
%TD.AperFunction*%
%TO.P,U1,36*%
%TO.N,/D_8*%
%TA.AperFunction,SMDPad,CuDef*%
G36*
G01*
X139600000Y-100025000D02*
X139600000Y-99875000D01*
G75*
G02*
X139675000Y-99800000I75000J0D01*
G01*
X141075000Y-99800000D01*
G75*
G02*
X141150000Y-99875000I0J-75000D01*
G01*
X141150000Y-100025000D01*
G75*
G02*
X141075000Y-100100000I-75000J0D01*
G01*
X139675000Y-100100000D01*
G75*
G02*
X139600000Y-100025000I0J75000D01*
G01*
G37*
%TD.AperFunction*%
%TO.P,U1,35*%
%TO.N,/B_15*%
%TA.AperFunction,SMDPad,CuDef*%
G36*
G01*
X139600000Y-100525000D02*
X139600000Y-100375000D01*
G75*
G02*
X139675000Y-100300000I75000J0D01*
G01*
X141075000Y-100300000D01*
G75*
G02*
X141150000Y-100375000I0J-75000D01*
G01*
X141150000Y-100525000D01*
G75*
G02*
X141075000Y-100600000I-75000J0D01*
G01*
X139675000Y-100600000D01*
G75*
G02*
X139600000Y-100525000I0J75000D01*
G01*
G37*
%TD.AperFunction*%
%TO.P,U1,34*%
%TO.N,/B_14*%
%TA.AperFunction,SMDPad,CuDef*%
G36*
G01*
X139600000Y-101025000D02*
X139600000Y-100875000D01*
G75*
G02*
X139675000Y-100800000I75000J0D01*
G01*
X141075000Y-100800000D01*
G75*
G02*
X141150000Y-100875000I0J-75000D01*
G01*
X141150000Y-101025000D01*
G75*
G02*
X141075000Y-101100000I-75000J0D01*
G01*
X139675000Y-101100000D01*
G75*
G02*
X139600000Y-101025000I0J75000D01*
G01*
G37*
%TD.AperFunction*%
%TO.P,U1,33*%
%TO.N,/STM32F373RCT6/VREFSD+*%
%TA.AperFunction,SMDPad,CuDef*%
G36*
G01*
X139600000Y-101525000D02*
X139600000Y-101375000D01*
G75*
G02*
X139675000Y-101300000I75000J0D01*
G01*
X141075000Y-101300000D01*
G75*
G02*
X141150000Y-101375000I0J-75000D01*
G01*
X141150000Y-101525000D01*
G75*
G02*
X141075000Y-101600000I-75000J0D01*
G01*
X139675000Y-101600000D01*
G75*
G02*
X139600000Y-101525000I0J75000D01*
G01*
G37*
%TD.AperFunction*%
%TO.P,U1,32*%
%TO.N,/STM32F373RCT6/VDDA*%
%TA.AperFunction,SMDPad,CuDef*%
G36*
G01*
X138300000Y-104075000D02*
X138300000Y-102675000D01*
G75*
G02*
X138375000Y-102600000I75000J0D01*
G01*
X138525000Y-102600000D01*
G75*
G02*
X138600000Y-102675000I0J-75000D01*
G01*
X138600000Y-104075000D01*
G75*
G02*
X138525000Y-104150000I-75000J0D01*
G01*
X138375000Y-104150000D01*
G75*
G02*
X138300000Y-104075000I0J75000D01*
G01*
G37*
%TD.AperFunction*%
%TO.P,U1,31*%
%TO.N,/STM32F373RCT6/GNDA*%
%TA.AperFunction,SMDPad,CuDef*%
G36*
G01*
X137800000Y-104075000D02*
X137800000Y-102675000D01*
G75*
G02*
X137875000Y-102600000I75000J0D01*
G01*
X138025000Y-102600000D01*
G75*
G02*
X138100000Y-102675000I0J-75000D01*
G01*
X138100000Y-104075000D01*
G75*
G02*
X138025000Y-104150000I-75000J0D01*
G01*
X137875000Y-104150000D01*
G75*
G02*
X137800000Y-104075000I0J75000D01*
G01*
G37*
%TD.AperFunction*%
%TO.P,U1,30*%
%TO.N,/E_9*%
%TA.AperFunction,SMDPad,CuDef*%
G36*
G01*
X137300000Y-104075000D02*
X137300000Y-102675000D01*
G75*
G02*
X137375000Y-102600000I75000J0D01*
G01*
X137525000Y-102600000D01*
G75*
G02*
X137600000Y-102675000I0J-75000D01*
G01*
X137600000Y-104075000D01*
G75*
G02*
X137525000Y-104150000I-75000J0D01*
G01*
X137375000Y-104150000D01*
G75*
G02*
X137300000Y-104075000I0J75000D01*
G01*
G37*
%TD.AperFunction*%
%TO.P,U1,29*%
%TO.N,/E_8*%
%TA.AperFunction,SMDPad,CuDef*%
G36*
G01*
X136800000Y-104075000D02*
X136800000Y-102675000D01*
G75*
G02*
X136875000Y-102600000I75000J0D01*
G01*
X137025000Y-102600000D01*
G75*
G02*
X137100000Y-102675000I0J-75000D01*
G01*
X137100000Y-104075000D01*
G75*
G02*
X137025000Y-104150000I-75000J0D01*
G01*
X136875000Y-104150000D01*
G75*
G02*
X136800000Y-104075000I0J75000D01*
G01*
G37*
%TD.AperFunction*%
%TO.P,U1,28*%
%TO.N,/B_2*%
%TA.AperFunction,SMDPad,CuDef*%
G36*
G01*
X136300000Y-104075000D02*
X136300000Y-102675000D01*
G75*
G02*
X136375000Y-102600000I75000J0D01*
G01*
X136525000Y-102600000D01*
G75*
G02*
X136600000Y-102675000I0J-75000D01*
G01*
X136600000Y-104075000D01*
G75*
G02*
X136525000Y-104150000I-75000J0D01*
G01*
X136375000Y-104150000D01*
G75*
G02*
X136300000Y-104075000I0J75000D01*
G01*
G37*
%TD.AperFunction*%
%TO.P,U1,27*%
%TO.N,/B_1*%
%TA.AperFunction,SMDPad,CuDef*%
G36*
G01*
X135800000Y-104075000D02*
X135800000Y-102675000D01*
G75*
G02*
X135875000Y-102600000I75000J0D01*
G01*
X136025000Y-102600000D01*
G75*
G02*
X136100000Y-102675000I0J-75000D01*
G01*
X136100000Y-104075000D01*
G75*
G02*
X136025000Y-104150000I-75000J0D01*
G01*
X135875000Y-104150000D01*
G75*
G02*
X135800000Y-104075000I0J75000D01*
G01*
G37*
%TD.AperFunction*%
%TO.P,U1,26*%
%TO.N,/B_0*%
%TA.AperFunction,SMDPad,CuDef*%
G36*
G01*
X135300000Y-104075000D02*
X135300000Y-102675000D01*
G75*
G02*
X135375000Y-102600000I75000J0D01*
G01*
X135525000Y-102600000D01*
G75*
G02*
X135600000Y-102675000I0J-75000D01*
G01*
X135600000Y-104075000D01*
G75*
G02*
X135525000Y-104150000I-75000J0D01*
G01*
X135375000Y-104150000D01*
G75*
G02*
X135300000Y-104075000I0J75000D01*
G01*
G37*
%TD.AperFunction*%
%TO.P,U1,25*%
%TO.N,/C_5*%
%TA.AperFunction,SMDPad,CuDef*%
G36*
G01*
X134800000Y-104075000D02*
X134800000Y-102675000D01*
G75*
G02*
X134875000Y-102600000I75000J0D01*
G01*
X135025000Y-102600000D01*
G75*
G02*
X135100000Y-102675000I0J-75000D01*
G01*
X135100000Y-104075000D01*
G75*
G02*
X135025000Y-104150000I-75000J0D01*
G01*
X134875000Y-104150000D01*
G75*
G02*
X134800000Y-104075000I0J75000D01*
G01*
G37*
%TD.AperFunction*%
%TO.P,U1,24*%
%TO.N,/C_4*%
%TA.AperFunction,SMDPad,CuDef*%
G36*
G01*
X134300000Y-104075000D02*
X134300000Y-102675000D01*
G75*
G02*
X134375000Y-102600000I75000J0D01*
G01*
X134525000Y-102600000D01*
G75*
G02*
X134600000Y-102675000I0J-75000D01*
G01*
X134600000Y-104075000D01*
G75*
G02*
X134525000Y-104150000I-75000J0D01*
G01*
X134375000Y-104150000D01*
G75*
G02*
X134300000Y-104075000I0J75000D01*
G01*
G37*
%TD.AperFunction*%
%TO.P,U1,23*%
%TO.N,/A_7*%
%TA.AperFunction,SMDPad,CuDef*%
G36*
G01*
X133800000Y-104075000D02*
X133800000Y-102675000D01*
G75*
G02*
X133875000Y-102600000I75000J0D01*
G01*
X134025000Y-102600000D01*
G75*
G02*
X134100000Y-102675000I0J-75000D01*
G01*
X134100000Y-104075000D01*
G75*
G02*
X134025000Y-104150000I-75000J0D01*
G01*
X133875000Y-104150000D01*
G75*
G02*
X133800000Y-104075000I0J75000D01*
G01*
G37*
%TD.AperFunction*%
%TO.P,U1,22*%
%TO.N,/A_6*%
%TA.AperFunction,SMDPad,CuDef*%
G36*
G01*
X133300000Y-104075000D02*
X133300000Y-102675000D01*
G75*
G02*
X133375000Y-102600000I75000J0D01*
G01*
X133525000Y-102600000D01*
G75*
G02*
X133600000Y-102675000I0J-75000D01*
G01*
X133600000Y-104075000D01*
G75*
G02*
X133525000Y-104150000I-75000J0D01*
G01*
X133375000Y-104150000D01*
G75*
G02*
X133300000Y-104075000I0J75000D01*
G01*
G37*
%TD.AperFunction*%
%TO.P,U1,21*%
%TO.N,/A_5*%
%TA.AperFunction,SMDPad,CuDef*%
G36*
G01*
X132800000Y-104075000D02*
X132800000Y-102675000D01*
G75*
G02*
X132875000Y-102600000I75000J0D01*
G01*
X133025000Y-102600000D01*
G75*
G02*
X133100000Y-102675000I0J-75000D01*
G01*
X133100000Y-104075000D01*
G75*
G02*
X133025000Y-104150000I-75000J0D01*
G01*
X132875000Y-104150000D01*
G75*
G02*
X132800000Y-104075000I0J75000D01*
G01*
G37*
%TD.AperFunction*%
%TO.P,U1,20*%
%TO.N,/A_4*%
%TA.AperFunction,SMDPad,CuDef*%
G36*
G01*
X132300000Y-104075000D02*
X132300000Y-102675000D01*
G75*
G02*
X132375000Y-102600000I75000J0D01*
G01*
X132525000Y-102600000D01*
G75*
G02*
X132600000Y-102675000I0J-75000D01*
G01*
X132600000Y-104075000D01*
G75*
G02*
X132525000Y-104150000I-75000J0D01*
G01*
X132375000Y-104150000D01*
G75*
G02*
X132300000Y-104075000I0J75000D01*
G01*
G37*
%TD.AperFunction*%
%TO.P,U1,19*%
%TO.N,VDD*%
%TA.AperFunction,SMDPad,CuDef*%
G36*
G01*
X131800000Y-104075000D02*
X131800000Y-102675000D01*
G75*
G02*
X131875000Y-102600000I75000J0D01*
G01*
X132025000Y-102600000D01*
G75*
G02*
X132100000Y-102675000I0J-75000D01*
G01*
X132100000Y-104075000D01*
G75*
G02*
X132025000Y-104150000I-75000J0D01*
G01*
X131875000Y-104150000D01*
G75*
G02*
X131800000Y-104075000I0J75000D01*
G01*
G37*
%TD.AperFunction*%
%TO.P,U1,18*%
%TO.N,/A_3*%
%TA.AperFunction,SMDPad,CuDef*%
G36*
G01*
X131300000Y-104075000D02*
X131300000Y-102675000D01*
G75*
G02*
X131375000Y-102600000I75000J0D01*
G01*
X131525000Y-102600000D01*
G75*
G02*
X131600000Y-102675000I0J-75000D01*
G01*
X131600000Y-104075000D01*
G75*
G02*
X131525000Y-104150000I-75000J0D01*
G01*
X131375000Y-104150000D01*
G75*
G02*
X131300000Y-104075000I0J75000D01*
G01*
G37*
%TD.AperFunction*%
%TO.P,U1,17*%
%TO.N,/STM32F373RCT6/VREF+*%
%TA.AperFunction,SMDPad,CuDef*%
G36*
G01*
X130800000Y-104075000D02*
X130800000Y-102675000D01*
G75*
G02*
X130875000Y-102600000I75000J0D01*
G01*
X131025000Y-102600000D01*
G75*
G02*
X131100000Y-102675000I0J-75000D01*
G01*
X131100000Y-104075000D01*
G75*
G02*
X131025000Y-104150000I-75000J0D01*
G01*
X130875000Y-104150000D01*
G75*
G02*
X130800000Y-104075000I0J75000D01*
G01*
G37*
%TD.AperFunction*%
%TO.P,U1,16*%
%TO.N,/A_2*%
%TA.AperFunction,SMDPad,CuDef*%
G36*
G01*
X128250000Y-101525000D02*
X128250000Y-101375000D01*
G75*
G02*
X128325000Y-101300000I75000J0D01*
G01*
X129725000Y-101300000D01*
G75*
G02*
X129800000Y-101375000I0J-75000D01*
G01*
X129800000Y-101525000D01*
G75*
G02*
X129725000Y-101600000I-75000J0D01*
G01*
X128325000Y-101600000D01*
G75*
G02*
X128250000Y-101525000I0J75000D01*
G01*
G37*
%TD.AperFunction*%
%TO.P,U1,15*%
%TO.N,/A_1*%
%TA.AperFunction,SMDPad,CuDef*%
G36*
G01*
X128250000Y-101025000D02*
X128250000Y-100875000D01*
G75*
G02*
X128325000Y-100800000I75000J0D01*
G01*
X129725000Y-100800000D01*
G75*
G02*
X129800000Y-100875000I0J-75000D01*
G01*
X129800000Y-101025000D01*
G75*
G02*
X129725000Y-101100000I-75000J0D01*
G01*
X128325000Y-101100000D01*
G75*
G02*
X128250000Y-101025000I0J75000D01*
G01*
G37*
%TD.AperFunction*%
%TO.P,U1,14*%
%TO.N,/A_0*%
%TA.AperFunction,SMDPad,CuDef*%
G36*
G01*
X128250000Y-100525000D02*
X128250000Y-100375000D01*
G75*
G02*
X128325000Y-100300000I75000J0D01*
G01*
X129725000Y-100300000D01*
G75*
G02*
X129800000Y-100375000I0J-75000D01*
G01*
X129800000Y-100525000D01*
G75*
G02*
X129725000Y-100600000I-75000J0D01*
G01*
X128325000Y-100600000D01*
G75*
G02*
X128250000Y-100525000I0J75000D01*
G01*
G37*
%TD.AperFunction*%
%TO.P,U1,13*%
%TO.N,/STM32F373RCT6/VDDA*%
%TA.AperFunction,SMDPad,CuDef*%
G36*
G01*
X128250000Y-100025000D02*
X128250000Y-99875000D01*
G75*
G02*
X128325000Y-99800000I75000J0D01*
G01*
X129725000Y-99800000D01*
G75*
G02*
X129800000Y-99875000I0J-75000D01*
G01*
X129800000Y-100025000D01*
G75*
G02*
X129725000Y-100100000I-75000J0D01*
G01*
X128325000Y-100100000D01*
G75*
G02*
X128250000Y-100025000I0J75000D01*
G01*
G37*
%TD.AperFunction*%
%TO.P,U1,12*%
%TO.N,/STM32F373RCT6/GNDA*%
%TA.AperFunction,SMDPad,CuDef*%
G36*
G01*
X128250000Y-99525000D02*
X128250000Y-99375000D01*
G75*
G02*
X128325000Y-99300000I75000J0D01*
G01*
X129725000Y-99300000D01*
G75*
G02*
X129800000Y-99375000I0J-75000D01*
G01*
X129800000Y-99525000D01*
G75*
G02*
X129725000Y-99600000I-75000J0D01*
G01*
X128325000Y-99600000D01*
G75*
G02*
X128250000Y-99525000I0J75000D01*
G01*
G37*
%TD.AperFunction*%
%TO.P,U1,11*%
%TO.N,/C_3*%
%TA.AperFunction,SMDPad,CuDef*%
G36*
G01*
X128250000Y-99025000D02*
X128250000Y-98875000D01*
G75*
G02*
X128325000Y-98800000I75000J0D01*
G01*
X129725000Y-98800000D01*
G75*
G02*
X129800000Y-98875000I0J-75000D01*
G01*
X129800000Y-99025000D01*
G75*
G02*
X129725000Y-99100000I-75000J0D01*
G01*
X128325000Y-99100000D01*
G75*
G02*
X128250000Y-99025000I0J75000D01*
G01*
G37*
%TD.AperFunction*%
%TO.P,U1,10*%
%TO.N,/C_2*%
%TA.AperFunction,SMDPad,CuDef*%
G36*
G01*
X128250000Y-98525000D02*
X128250000Y-98375000D01*
G75*
G02*
X128325000Y-98300000I75000J0D01*
G01*
X129725000Y-98300000D01*
G75*
G02*
X129800000Y-98375000I0J-75000D01*
G01*
X129800000Y-98525000D01*
G75*
G02*
X129725000Y-98600000I-75000J0D01*
G01*
X128325000Y-98600000D01*
G75*
G02*
X128250000Y-98525000I0J75000D01*
G01*
G37*
%TD.AperFunction*%
%TO.P,U1,9*%
%TO.N,/C_1*%
%TA.AperFunction,SMDPad,CuDef*%
G36*
G01*
X128250000Y-98025000D02*
X128250000Y-97875000D01*
G75*
G02*
X128325000Y-97800000I75000J0D01*
G01*
X129725000Y-97800000D01*
G75*
G02*
X129800000Y-97875000I0J-75000D01*
G01*
X129800000Y-98025000D01*
G75*
G02*
X129725000Y-98100000I-75000J0D01*
G01*
X128325000Y-98100000D01*
G75*
G02*
X128250000Y-98025000I0J75000D01*
G01*
G37*
%TD.AperFunction*%
%TO.P,U1,8*%
%TO.N,/C_0*%
%TA.AperFunction,SMDPad,CuDef*%
G36*
G01*
X128250000Y-97525000D02*
X128250000Y-97375000D01*
G75*
G02*
X128325000Y-97300000I75000J0D01*
G01*
X129725000Y-97300000D01*
G75*
G02*
X129800000Y-97375000I0J-75000D01*
G01*
X129800000Y-97525000D01*
G75*
G02*
X129725000Y-97600000I-75000J0D01*
G01*
X128325000Y-97600000D01*
G75*
G02*
X128250000Y-97525000I0J75000D01*
G01*
G37*
%TD.AperFunction*%
%TO.P,U1,7*%
%TO.N,/~uC_RESET*%
%TA.AperFunction,SMDPad,CuDef*%
G36*
G01*
X128250000Y-97025000D02*
X128250000Y-96875000D01*
G75*
G02*
X128325000Y-96800000I75000J0D01*
G01*
X129725000Y-96800000D01*
G75*
G02*
X129800000Y-96875000I0J-75000D01*
G01*
X129800000Y-97025000D01*
G75*
G02*
X129725000Y-97100000I-75000J0D01*
G01*
X128325000Y-97100000D01*
G75*
G02*
X128250000Y-97025000I0J75000D01*
G01*
G37*
%TD.AperFunction*%
%TO.P,U1,6*%
%TO.N,Net-(C3-Pad1)*%
%TA.AperFunction,SMDPad,CuDef*%
G36*
G01*
X128250000Y-96525000D02*
X128250000Y-96375000D01*
G75*
G02*
X128325000Y-96300000I75000J0D01*
G01*
X129725000Y-96300000D01*
G75*
G02*
X129800000Y-96375000I0J-75000D01*
G01*
X129800000Y-96525000D01*
G75*
G02*
X129725000Y-96600000I-75000J0D01*
G01*
X128325000Y-96600000D01*
G75*
G02*
X128250000Y-96525000I0J75000D01*
G01*
G37*
%TD.AperFunction*%
%TO.P,U1,5*%
%TO.N,Net-(C2-Pad1)*%
%TA.AperFunction,SMDPad,CuDef*%
G36*
G01*
X128250000Y-96025000D02*
X128250000Y-95875000D01*
G75*
G02*
X128325000Y-95800000I75000J0D01*
G01*
X129725000Y-95800000D01*
G75*
G02*
X129800000Y-95875000I0J-75000D01*
G01*
X129800000Y-96025000D01*
G75*
G02*
X129725000Y-96100000I-75000J0D01*
G01*
X128325000Y-96100000D01*
G75*
G02*
X128250000Y-96025000I0J75000D01*
G01*
G37*
%TD.AperFunction*%
%TO.P,U1,4*%
%TO.N,Net-(C5-Pad1)*%
%TA.AperFunction,SMDPad,CuDef*%
G36*
G01*
X128250000Y-95525000D02*
X128250000Y-95375000D01*
G75*
G02*
X128325000Y-95300000I75000J0D01*
G01*
X129725000Y-95300000D01*
G75*
G02*
X129800000Y-95375000I0J-75000D01*
G01*
X129800000Y-95525000D01*
G75*
G02*
X129725000Y-95600000I-75000J0D01*
G01*
X128325000Y-95600000D01*
G75*
G02*
X128250000Y-95525000I0J75000D01*
G01*
G37*
%TD.AperFunction*%
%TO.P,U1,3*%
%TO.N,Net-(C4-Pad1)*%
%TA.AperFunction,SMDPad,CuDef*%
G36*
G01*
X128250000Y-95025000D02*
X128250000Y-94875000D01*
G75*
G02*
X128325000Y-94800000I75000J0D01*
G01*
X129725000Y-94800000D01*
G75*
G02*
X129800000Y-94875000I0J-75000D01*
G01*
X129800000Y-95025000D01*
G75*
G02*
X129725000Y-95100000I-75000J0D01*
G01*
X128325000Y-95100000D01*
G75*
G02*
X128250000Y-95025000I0J75000D01*
G01*
G37*
%TD.AperFunction*%
%TO.P,U1,2*%
%TO.N,/C_13*%
%TA.AperFunction,SMDPad,CuDef*%
G36*
G01*
X128250000Y-94525000D02*
X128250000Y-94375000D01*
G75*
G02*
X128325000Y-94300000I75000J0D01*
G01*
X129725000Y-94300000D01*
G75*
G02*
X129800000Y-94375000I0J-75000D01*
G01*
X129800000Y-94525000D01*
G75*
G02*
X129725000Y-94600000I-75000J0D01*
G01*
X128325000Y-94600000D01*
G75*
G02*
X128250000Y-94525000I0J75000D01*
G01*
G37*
%TD.AperFunction*%
%TO.P,U1,1*%
%TO.N,VDD*%
%TA.AperFunction,SMDPad,CuDef*%
G36*
G01*
X128250000Y-94025000D02*
X128250000Y-93875000D01*
G75*
G02*
X128325000Y-93800000I75000J0D01*
G01*
X129725000Y-93800000D01*
G75*
G02*
X129800000Y-93875000I0J-75000D01*
G01*
X129800000Y-94025000D01*
G75*
G02*
X129725000Y-94100000I-75000J0D01*
G01*
X128325000Y-94100000D01*
G75*
G02*
X128250000Y-94025000I0J75000D01*
G01*
G37*
%TD.AperFunction*%
%TD*%
%TO.P,R2,2*%
%TO.N,VDD*%
%TA.AperFunction,SMDPad,CuDef*%
G36*
G01*
X128993750Y-86750000D02*
X129506250Y-86750000D01*
G75*
G02*
X129725000Y-86968750I0J-218750D01*
G01*
X129725000Y-87406250D01*
G75*
G02*
X129506250Y-87625000I-218750J0D01*
G01*
X128993750Y-87625000D01*
G75*
G02*
X128775000Y-87406250I0J218750D01*
G01*
X128775000Y-86968750D01*
G75*
G02*
X128993750Y-86750000I218750J0D01*
G01*
G37*
%TD.AperFunction*%
%TO.P,R2,1*%
%TO.N,/~uC_RESET*%
%TA.AperFunction,SMDPad,CuDef*%
G36*
G01*
X128993750Y-85175000D02*
X129506250Y-85175000D01*
G75*
G02*
X129725000Y-85393750I0J-218750D01*
G01*
X129725000Y-85831250D01*
G75*
G02*
X129506250Y-86050000I-218750J0D01*
G01*
X128993750Y-86050000D01*
G75*
G02*
X128775000Y-85831250I0J218750D01*
G01*
X128775000Y-85393750D01*
G75*
G02*
X128993750Y-85175000I218750J0D01*
G01*
G37*
%TD.AperFunction*%
%TD*%
%TO.P,R1,2*%
%TO.N,Net-(R1-Pad2)*%
%TA.AperFunction,SMDPad,CuDef*%
G36*
G01*
X132843750Y-88550000D02*
X133356250Y-88550000D01*
G75*
G02*
X133575000Y-88768750I0J-218750D01*
G01*
X133575000Y-89206250D01*
G75*
G02*
X133356250Y-89425000I-218750J0D01*
G01*
X132843750Y-89425000D01*
G75*
G02*
X132625000Y-89206250I0J218750D01*
G01*
X132625000Y-88768750D01*
G75*
G02*
X132843750Y-88550000I218750J0D01*
G01*
G37*
%TD.AperFunction*%
%TO.P,R1,1*%
%TO.N,/STM32F373RCT6/BOOT0*%
%TA.AperFunction,SMDPad,CuDef*%
G36*
G01*
X132843750Y-86975000D02*
X133356250Y-86975000D01*
G75*
G02*
X133575000Y-87193750I0J-218750D01*
G01*
X133575000Y-87631250D01*
G75*
G02*
X133356250Y-87850000I-218750J0D01*
G01*
X132843750Y-87850000D01*
G75*
G02*
X132625000Y-87631250I0J218750D01*
G01*
X132625000Y-87193750D01*
G75*
G02*
X132843750Y-86975000I218750J0D01*
G01*
G37*
%TD.AperFunction*%
%TD*%
D19*
%TO.P,JP3,2*%
%TO.N,/STM32F373RCT6/BOOT0*%
X133100000Y-85300000D03*
%TA.AperFunction,SMDPad,CuDef*%
D20*
%TO.P,JP3,3*%
%TO.N,VDD*%
G36*
X134400000Y-84550602D02*
G01*
X134424534Y-84550602D01*
X134473365Y-84555412D01*
X134521490Y-84564984D01*
X134568445Y-84579228D01*
X134613778Y-84598005D01*
X134657051Y-84621136D01*
X134697850Y-84648396D01*
X134735779Y-84679524D01*
X134770476Y-84714221D01*
X134801604Y-84752150D01*
X134828864Y-84792949D01*
X134851995Y-84836222D01*
X134870772Y-84881555D01*
X134885016Y-84928510D01*
X134894588Y-84976635D01*
X134899398Y-85025466D01*
X134899398Y-85050000D01*
X134900000Y-85050000D01*
X134900000Y-85550000D01*
X134899398Y-85550000D01*
X134899398Y-85574534D01*
X134894588Y-85623365D01*
X134885016Y-85671490D01*
X134870772Y-85718445D01*
X134851995Y-85763778D01*
X134828864Y-85807051D01*
X134801604Y-85847850D01*
X134770476Y-85885779D01*
X134735779Y-85920476D01*
X134697850Y-85951604D01*
X134657051Y-85978864D01*
X134613778Y-86001995D01*
X134568445Y-86020772D01*
X134521490Y-86035016D01*
X134473365Y-86044588D01*
X134424534Y-86049398D01*
X134400000Y-86049398D01*
X134400000Y-86050000D01*
X133850000Y-86050000D01*
X133850000Y-84550000D01*
X134400000Y-84550000D01*
X134400000Y-84550602D01*
G37*
%TD.AperFunction*%
%TA.AperFunction,SMDPad,CuDef*%
%TO.P,JP3,1*%
%TO.N,GND*%
G36*
X132350000Y-86050000D02*
G01*
X131800000Y-86050000D01*
X131800000Y-86049398D01*
X131775466Y-86049398D01*
X131726635Y-86044588D01*
X131678510Y-86035016D01*
X131631555Y-86020772D01*
X131586222Y-86001995D01*
X131542949Y-85978864D01*
X131502150Y-85951604D01*
X131464221Y-85920476D01*
X131429524Y-85885779D01*
X131398396Y-85847850D01*
X131371136Y-85807051D01*
X131348005Y-85763778D01*
X131329228Y-85718445D01*
X131314984Y-85671490D01*
X131305412Y-85623365D01*
X131300602Y-85574534D01*
X131300602Y-85550000D01*
X131300000Y-85550000D01*
X131300000Y-85050000D01*
X131300602Y-85050000D01*
X131300602Y-85025466D01*
X131305412Y-84976635D01*
X131314984Y-84928510D01*
X131329228Y-84881555D01*
X131348005Y-84836222D01*
X131371136Y-84792949D01*
X131398396Y-84752150D01*
X131429524Y-84714221D01*
X131464221Y-84679524D01*
X131502150Y-84648396D01*
X131542949Y-84621136D01*
X131586222Y-84598005D01*
X131631555Y-84579228D01*
X131678510Y-84564984D01*
X131726635Y-84555412D01*
X131775466Y-84550602D01*
X131800000Y-84550602D01*
X131800000Y-84550000D01*
X132350000Y-84550000D01*
X132350000Y-86050000D01*
G37*
%TD.AperFunction*%
%TD*%
D21*
%TO.P,JP2,2*%
%TO.N,/STM32F373RCT6/VREF+*%
X128300000Y-107200000D03*
%TA.AperFunction,SMDPad,CuDef*%
D20*
%TO.P,JP2,3*%
%TO.N,/STM32F373RCT6/VREF+_external*%
G36*
X129049398Y-108500000D02*
G01*
X129049398Y-108524534D01*
X129044588Y-108573365D01*
X129035016Y-108621490D01*
X129020772Y-108668445D01*
X129001995Y-108713778D01*
X128978864Y-108757051D01*
X128951604Y-108797850D01*
X128920476Y-108835779D01*
X128885779Y-108870476D01*
X128847850Y-108901604D01*
X128807051Y-108928864D01*
X128763778Y-108951995D01*
X128718445Y-108970772D01*
X128671490Y-108985016D01*
X128623365Y-108994588D01*
X128574534Y-108999398D01*
X128550000Y-108999398D01*
X128550000Y-109000000D01*
X128050000Y-109000000D01*
X128050000Y-108999398D01*
X128025466Y-108999398D01*
X127976635Y-108994588D01*
X127928510Y-108985016D01*
X127881555Y-108970772D01*
X127836222Y-108951995D01*
X127792949Y-108928864D01*
X127752150Y-108901604D01*
X127714221Y-108870476D01*
X127679524Y-108835779D01*
X127648396Y-108797850D01*
X127621136Y-108757051D01*
X127598005Y-108713778D01*
X127579228Y-108668445D01*
X127564984Y-108621490D01*
X127555412Y-108573365D01*
X127550602Y-108524534D01*
X127550602Y-108500000D01*
X127550000Y-108500000D01*
X127550000Y-107950000D01*
X129050000Y-107950000D01*
X129050000Y-108500000D01*
X129049398Y-108500000D01*
G37*
%TD.AperFunction*%
%TA.AperFunction,SMDPad,CuDef*%
%TO.P,JP2,1*%
%TO.N,/STM32F373RCT6/VDDA*%
G36*
X127550000Y-106450000D02*
G01*
X127550000Y-105900000D01*
X127550602Y-105900000D01*
X127550602Y-105875466D01*
X127555412Y-105826635D01*
X127564984Y-105778510D01*
X127579228Y-105731555D01*
X127598005Y-105686222D01*
X127621136Y-105642949D01*
X127648396Y-105602150D01*
X127679524Y-105564221D01*
X127714221Y-105529524D01*
X127752150Y-105498396D01*
X127792949Y-105471136D01*
X127836222Y-105448005D01*
X127881555Y-105429228D01*
X127928510Y-105414984D01*
X127976635Y-105405412D01*
X128025466Y-105400602D01*
X128050000Y-105400602D01*
X128050000Y-105400000D01*
X128550000Y-105400000D01*
X128550000Y-105400602D01*
X128574534Y-105400602D01*
X128623365Y-105405412D01*
X128671490Y-105414984D01*
X128718445Y-105429228D01*
X128763778Y-105448005D01*
X128807051Y-105471136D01*
X128847850Y-105498396D01*
X128885779Y-105529524D01*
X128920476Y-105564221D01*
X128951604Y-105602150D01*
X128978864Y-105642949D01*
X129001995Y-105686222D01*
X129020772Y-105731555D01*
X129035016Y-105778510D01*
X129044588Y-105826635D01*
X129049398Y-105875466D01*
X129049398Y-105900000D01*
X129050000Y-105900000D01*
X129050000Y-106450000D01*
X127550000Y-106450000D01*
G37*
%TD.AperFunction*%
%TD*%
D19*
%TO.P,JP1,2*%
%TO.N,/STM32F373RCT6/VREFSD+*%
X145000000Y-104500000D03*
%TA.AperFunction,SMDPad,CuDef*%
D20*
%TO.P,JP1,3*%
%TO.N,/STM32F373RCT6/VREFSD+_external*%
G36*
X146300000Y-103750602D02*
G01*
X146324534Y-103750602D01*
X146373365Y-103755412D01*
X146421490Y-103764984D01*
X146468445Y-103779228D01*
X146513778Y-103798005D01*
X146557051Y-103821136D01*
X146597850Y-103848396D01*
X146635779Y-103879524D01*
X146670476Y-103914221D01*
X146701604Y-103952150D01*
X146728864Y-103992949D01*
X146751995Y-104036222D01*
X146770772Y-104081555D01*
X146785016Y-104128510D01*
X146794588Y-104176635D01*
X146799398Y-104225466D01*
X146799398Y-104250000D01*
X146800000Y-104250000D01*
X146800000Y-104750000D01*
X146799398Y-104750000D01*
X146799398Y-104774534D01*
X146794588Y-104823365D01*
X146785016Y-104871490D01*
X146770772Y-104918445D01*
X146751995Y-104963778D01*
X146728864Y-105007051D01*
X146701604Y-105047850D01*
X146670476Y-105085779D01*
X146635779Y-105120476D01*
X146597850Y-105151604D01*
X146557051Y-105178864D01*
X146513778Y-105201995D01*
X146468445Y-105220772D01*
X146421490Y-105235016D01*
X146373365Y-105244588D01*
X146324534Y-105249398D01*
X146300000Y-105249398D01*
X146300000Y-105250000D01*
X145750000Y-105250000D01*
X145750000Y-103750000D01*
X146300000Y-103750000D01*
X146300000Y-103750602D01*
G37*
%TD.AperFunction*%
%TA.AperFunction,SMDPad,CuDef*%
%TO.P,JP1,1*%
%TO.N,/STM32F373RCT6/VDDA*%
G36*
X144250000Y-105250000D02*
G01*
X143700000Y-105250000D01*
X143700000Y-105249398D01*
X143675466Y-105249398D01*
X143626635Y-105244588D01*
X143578510Y-105235016D01*
X143531555Y-105220772D01*
X143486222Y-105201995D01*
X143442949Y-105178864D01*
X143402150Y-105151604D01*
X143364221Y-105120476D01*
X143329524Y-105085779D01*
X143298396Y-105047850D01*
X143271136Y-105007051D01*
X143248005Y-104963778D01*
X143229228Y-104918445D01*
X143214984Y-104871490D01*
X143205412Y-104823365D01*
X143200602Y-104774534D01*
X143200602Y-104750000D01*
X143200000Y-104750000D01*
X143200000Y-104250000D01*
X143200602Y-104250000D01*
X143200602Y-104225466D01*
X143205412Y-104176635D01*
X143214984Y-104128510D01*
X143229228Y-104081555D01*
X143248005Y-104036222D01*
X143271136Y-103992949D01*
X143298396Y-103952150D01*
X143329524Y-103914221D01*
X143364221Y-103879524D01*
X143402150Y-103848396D01*
X143442949Y-103821136D01*
X143486222Y-103798005D01*
X143531555Y-103779228D01*
X143578510Y-103764984D01*
X143626635Y-103755412D01*
X143675466Y-103750602D01*
X143700000Y-103750602D01*
X143700000Y-103750000D01*
X144250000Y-103750000D01*
X144250000Y-105250000D01*
G37*
%TD.AperFunction*%
%TD*%
%TO.P,C16,2*%
%TO.N,GND*%
%TA.AperFunction,SMDPad,CuDef*%
G36*
G01*
X148950000Y-107356250D02*
X148950000Y-106443750D01*
G75*
G02*
X149193750Y-106200000I243750J0D01*
G01*
X149681250Y-106200000D01*
G75*
G02*
X149925000Y-106443750I0J-243750D01*
G01*
X149925000Y-107356250D01*
G75*
G02*
X149681250Y-107600000I-243750J0D01*
G01*
X149193750Y-107600000D01*
G75*
G02*
X148950000Y-107356250I0J243750D01*
G01*
G37*
%TD.AperFunction*%
%TO.P,C16,1*%
%TO.N,VDD*%
%TA.AperFunction,SMDPad,CuDef*%
G36*
G01*
X147075000Y-107356250D02*
X147075000Y-106443750D01*
G75*
G02*
X147318750Y-106200000I243750J0D01*
G01*
X147806250Y-106200000D01*
G75*
G02*
X148050000Y-106443750I0J-243750D01*
G01*
X148050000Y-107356250D01*
G75*
G02*
X147806250Y-107600000I-243750J0D01*
G01*
X147318750Y-107600000D01*
G75*
G02*
X147075000Y-107356250I0J243750D01*
G01*
G37*
%TD.AperFunction*%
%TD*%
%TO.P,C15,2*%
%TO.N,GND*%
%TA.AperFunction,SMDPad,CuDef*%
G36*
G01*
X130350000Y-89156250D02*
X130350000Y-88643750D01*
G75*
G02*
X130568750Y-88425000I218750J0D01*
G01*
X131006250Y-88425000D01*
G75*
G02*
X131225000Y-88643750I0J-218750D01*
G01*
X131225000Y-89156250D01*
G75*
G02*
X131006250Y-89375000I-218750J0D01*
G01*
X130568750Y-89375000D01*
G75*
G02*
X130350000Y-89156250I0J218750D01*
G01*
G37*
%TD.AperFunction*%
%TO.P,C15,1*%
%TO.N,VDD*%
%TA.AperFunction,SMDPad,CuDef*%
G36*
G01*
X128775000Y-89156250D02*
X128775000Y-88643750D01*
G75*
G02*
X128993750Y-88425000I218750J0D01*
G01*
X129431250Y-88425000D01*
G75*
G02*
X129650000Y-88643750I0J-218750D01*
G01*
X129650000Y-89156250D01*
G75*
G02*
X129431250Y-89375000I-218750J0D01*
G01*
X128993750Y-89375000D01*
G75*
G02*
X128775000Y-89156250I0J218750D01*
G01*
G37*
%TD.AperFunction*%
%TD*%
%TO.P,C14,2*%
%TO.N,GND*%
%TA.AperFunction,SMDPad,CuDef*%
G36*
G01*
X133856250Y-106850000D02*
X133343750Y-106850000D01*
G75*
G02*
X133125000Y-106631250I0J218750D01*
G01*
X133125000Y-106193750D01*
G75*
G02*
X133343750Y-105975000I218750J0D01*
G01*
X133856250Y-105975000D01*
G75*
G02*
X134075000Y-106193750I0J-218750D01*
G01*
X134075000Y-106631250D01*
G75*
G02*
X133856250Y-106850000I-218750J0D01*
G01*
G37*
%TD.AperFunction*%
%TO.P,C14,1*%
%TO.N,VDD*%
%TA.AperFunction,SMDPad,CuDef*%
G36*
G01*
X133856250Y-108425000D02*
X133343750Y-108425000D01*
G75*
G02*
X133125000Y-108206250I0J218750D01*
G01*
X133125000Y-107768750D01*
G75*
G02*
X133343750Y-107550000I218750J0D01*
G01*
X133856250Y-107550000D01*
G75*
G02*
X134075000Y-107768750I0J-218750D01*
G01*
X134075000Y-108206250D01*
G75*
G02*
X133856250Y-108425000I-218750J0D01*
G01*
G37*
%TD.AperFunction*%
%TD*%
%TO.P,C13,2*%
%TO.N,/STM32F373RCT6/GNDA*%
%TA.AperFunction,SMDPad,CuDef*%
G36*
G01*
X131743750Y-107550000D02*
X132256250Y-107550000D01*
G75*
G02*
X132475000Y-107768750I0J-218750D01*
G01*
X132475000Y-108206250D01*
G75*
G02*
X132256250Y-108425000I-218750J0D01*
G01*
X131743750Y-108425000D01*
G75*
G02*
X131525000Y-108206250I0J218750D01*
G01*
X131525000Y-107768750D01*
G75*
G02*
X131743750Y-107550000I218750J0D01*
G01*
G37*
%TD.AperFunction*%
%TO.P,C13,1*%
%TO.N,/STM32F373RCT6/VREF+*%
%TA.AperFunction,SMDPad,CuDef*%
G36*
G01*
X131743750Y-105975000D02*
X132256250Y-105975000D01*
G75*
G02*
X132475000Y-106193750I0J-218750D01*
G01*
X132475000Y-106631250D01*
G75*
G02*
X132256250Y-106850000I-218750J0D01*
G01*
X131743750Y-106850000D01*
G75*
G02*
X131525000Y-106631250I0J218750D01*
G01*
X131525000Y-106193750D01*
G75*
G02*
X131743750Y-105975000I218750J0D01*
G01*
G37*
%TD.AperFunction*%
%TD*%
%TO.P,C12,2*%
%TO.N,/STM32F373RCT6/GNDA*%
%TA.AperFunction,SMDPad,CuDef*%
G36*
G01*
X130143750Y-107550000D02*
X130656250Y-107550000D01*
G75*
G02*
X130875000Y-107768750I0J-218750D01*
G01*
X130875000Y-108206250D01*
G75*
G02*
X130656250Y-108425000I-218750J0D01*
G01*
X130143750Y-108425000D01*
G75*
G02*
X129925000Y-108206250I0J218750D01*
G01*
X129925000Y-107768750D01*
G75*
G02*
X130143750Y-107550000I218750J0D01*
G01*
G37*
%TD.AperFunction*%
%TO.P,C12,1*%
%TO.N,/STM32F373RCT6/VREF+*%
%TA.AperFunction,SMDPad,CuDef*%
G36*
G01*
X130143750Y-105975000D02*
X130656250Y-105975000D01*
G75*
G02*
X130875000Y-106193750I0J-218750D01*
G01*
X130875000Y-106631250D01*
G75*
G02*
X130656250Y-106850000I-218750J0D01*
G01*
X130143750Y-106850000D01*
G75*
G02*
X129925000Y-106631250I0J218750D01*
G01*
X129925000Y-106193750D01*
G75*
G02*
X130143750Y-105975000I218750J0D01*
G01*
G37*
%TD.AperFunction*%
%TD*%
%TO.P,C11,2*%
%TO.N,/STM32F373RCT6/GNDA*%
%TA.AperFunction,SMDPad,CuDef*%
G36*
G01*
X145350000Y-101056250D02*
X145350000Y-100543750D01*
G75*
G02*
X145568750Y-100325000I218750J0D01*
G01*
X146006250Y-100325000D01*
G75*
G02*
X146225000Y-100543750I0J-218750D01*
G01*
X146225000Y-101056250D01*
G75*
G02*
X146006250Y-101275000I-218750J0D01*
G01*
X145568750Y-101275000D01*
G75*
G02*
X145350000Y-101056250I0J218750D01*
G01*
G37*
%TD.AperFunction*%
%TO.P,C11,1*%
%TO.N,/STM32F373RCT6/VREFSD+*%
%TA.AperFunction,SMDPad,CuDef*%
G36*
G01*
X143775000Y-101056250D02*
X143775000Y-100543750D01*
G75*
G02*
X143993750Y-100325000I218750J0D01*
G01*
X144431250Y-100325000D01*
G75*
G02*
X144650000Y-100543750I0J-218750D01*
G01*
X144650000Y-101056250D01*
G75*
G02*
X144431250Y-101275000I-218750J0D01*
G01*
X143993750Y-101275000D01*
G75*
G02*
X143775000Y-101056250I0J218750D01*
G01*
G37*
%TD.AperFunction*%
%TD*%
%TO.P,C10,2*%
%TO.N,/STM32F373RCT6/GNDA*%
%TA.AperFunction,SMDPad,CuDef*%
G36*
G01*
X145350000Y-102656250D02*
X145350000Y-102143750D01*
G75*
G02*
X145568750Y-101925000I218750J0D01*
G01*
X146006250Y-101925000D01*
G75*
G02*
X146225000Y-102143750I0J-218750D01*
G01*
X146225000Y-102656250D01*
G75*
G02*
X146006250Y-102875000I-218750J0D01*
G01*
X145568750Y-102875000D01*
G75*
G02*
X145350000Y-102656250I0J218750D01*
G01*
G37*
%TD.AperFunction*%
%TO.P,C10,1*%
%TO.N,/STM32F373RCT6/VREFSD+*%
%TA.AperFunction,SMDPad,CuDef*%
G36*
G01*
X143775000Y-102656250D02*
X143775000Y-102143750D01*
G75*
G02*
X143993750Y-101925000I218750J0D01*
G01*
X144431250Y-101925000D01*
G75*
G02*
X144650000Y-102143750I0J-218750D01*
G01*
X144650000Y-102656250D01*
G75*
G02*
X144431250Y-102875000I-218750J0D01*
G01*
X143993750Y-102875000D01*
G75*
G02*
X143775000Y-102656250I0J218750D01*
G01*
G37*
%TD.AperFunction*%
%TD*%
%TO.P,C6,2*%
%TO.N,/STM32F373RCT6/GNDA*%
%TA.AperFunction,SMDPad,CuDef*%
G36*
G01*
X124856250Y-100000000D02*
X124343750Y-100000000D01*
G75*
G02*
X124125000Y-99781250I0J218750D01*
G01*
X124125000Y-99343750D01*
G75*
G02*
X124343750Y-99125000I218750J0D01*
G01*
X124856250Y-99125000D01*
G75*
G02*
X125075000Y-99343750I0J-218750D01*
G01*
X125075000Y-99781250D01*
G75*
G02*
X124856250Y-100000000I-218750J0D01*
G01*
G37*
%TD.AperFunction*%
%TO.P,C6,1*%
%TO.N,/STM32F373RCT6/VDDA*%
%TA.AperFunction,SMDPad,CuDef*%
G36*
G01*
X124856250Y-101575000D02*
X124343750Y-101575000D01*
G75*
G02*
X124125000Y-101356250I0J218750D01*
G01*
X124125000Y-100918750D01*
G75*
G02*
X124343750Y-100700000I218750J0D01*
G01*
X124856250Y-100700000D01*
G75*
G02*
X125075000Y-100918750I0J-218750D01*
G01*
X125075000Y-101356250D01*
G75*
G02*
X124856250Y-101575000I-218750J0D01*
G01*
G37*
%TD.AperFunction*%
%TD*%
%TO.P,C5,2*%
%TO.N,GND*%
%TA.AperFunction,SMDPad,CuDef*%
G36*
G01*
X119350000Y-94243750D02*
X119350000Y-94756250D01*
G75*
G02*
X119131250Y-94975000I-218750J0D01*
G01*
X118693750Y-94975000D01*
G75*
G02*
X118475000Y-94756250I0J218750D01*
G01*
X118475000Y-94243750D01*
G75*
G02*
X118693750Y-94025000I218750J0D01*
G01*
X119131250Y-94025000D01*
G75*
G02*
X119350000Y-94243750I0J-218750D01*
G01*
G37*
%TD.AperFunction*%
%TO.P,C5,1*%
%TO.N,Net-(C5-Pad1)*%
%TA.AperFunction,SMDPad,CuDef*%
G36*
G01*
X120925000Y-94243750D02*
X120925000Y-94756250D01*
G75*
G02*
X120706250Y-94975000I-218750J0D01*
G01*
X120268750Y-94975000D01*
G75*
G02*
X120050000Y-94756250I0J218750D01*
G01*
X120050000Y-94243750D01*
G75*
G02*
X120268750Y-94025000I218750J0D01*
G01*
X120706250Y-94025000D01*
G75*
G02*
X120925000Y-94243750I0J-218750D01*
G01*
G37*
%TD.AperFunction*%
%TD*%
%TO.P,C4,2*%
%TO.N,GND*%
%TA.AperFunction,SMDPad,CuDef*%
G36*
G01*
X119350000Y-91743750D02*
X119350000Y-92256250D01*
G75*
G02*
X119131250Y-92475000I-218750J0D01*
G01*
X118693750Y-92475000D01*
G75*
G02*
X118475000Y-92256250I0J218750D01*
G01*
X118475000Y-91743750D01*
G75*
G02*
X118693750Y-91525000I218750J0D01*
G01*
X119131250Y-91525000D01*
G75*
G02*
X119350000Y-91743750I0J-218750D01*
G01*
G37*
%TD.AperFunction*%
%TO.P,C4,1*%
%TO.N,Net-(C4-Pad1)*%
%TA.AperFunction,SMDPad,CuDef*%
G36*
G01*
X120925000Y-91743750D02*
X120925000Y-92256250D01*
G75*
G02*
X120706250Y-92475000I-218750J0D01*
G01*
X120268750Y-92475000D01*
G75*
G02*
X120050000Y-92256250I0J218750D01*
G01*
X120050000Y-91743750D01*
G75*
G02*
X120268750Y-91525000I218750J0D01*
G01*
X120706250Y-91525000D01*
G75*
G02*
X120925000Y-91743750I0J-218750D01*
G01*
G37*
%TD.AperFunction*%
%TD*%
%TO.P,C3,2*%
%TO.N,GND*%
%TA.AperFunction,SMDPad,CuDef*%
G36*
G01*
X119156250Y-99950000D02*
X118643750Y-99950000D01*
G75*
G02*
X118425000Y-99731250I0J218750D01*
G01*
X118425000Y-99293750D01*
G75*
G02*
X118643750Y-99075000I218750J0D01*
G01*
X119156250Y-99075000D01*
G75*
G02*
X119375000Y-99293750I0J-218750D01*
G01*
X119375000Y-99731250D01*
G75*
G02*
X119156250Y-99950000I-218750J0D01*
G01*
G37*
%TD.AperFunction*%
%TO.P,C3,1*%
%TO.N,Net-(C3-Pad1)*%
%TA.AperFunction,SMDPad,CuDef*%
G36*
G01*
X119156250Y-101525000D02*
X118643750Y-101525000D01*
G75*
G02*
X118425000Y-101306250I0J218750D01*
G01*
X118425000Y-100868750D01*
G75*
G02*
X118643750Y-100650000I218750J0D01*
G01*
X119156250Y-100650000D01*
G75*
G02*
X119375000Y-100868750I0J-218750D01*
G01*
X119375000Y-101306250D01*
G75*
G02*
X119156250Y-101525000I-218750J0D01*
G01*
G37*
%TD.AperFunction*%
%TD*%
%TO.P,C2,2*%
%TO.N,GND*%
%TA.AperFunction,SMDPad,CuDef*%
G36*
G01*
X118643750Y-97450000D02*
X119156250Y-97450000D01*
G75*
G02*
X119375000Y-97668750I0J-218750D01*
G01*
X119375000Y-98106250D01*
G75*
G02*
X119156250Y-98325000I-218750J0D01*
G01*
X118643750Y-98325000D01*
G75*
G02*
X118425000Y-98106250I0J218750D01*
G01*
X118425000Y-97668750D01*
G75*
G02*
X118643750Y-97450000I218750J0D01*
G01*
G37*
%TD.AperFunction*%
%TO.P,C2,1*%
%TO.N,Net-(C2-Pad1)*%
%TA.AperFunction,SMDPad,CuDef*%
G36*
G01*
X118643750Y-95875000D02*
X119156250Y-95875000D01*
G75*
G02*
X119375000Y-96093750I0J-218750D01*
G01*
X119375000Y-96531250D01*
G75*
G02*
X119156250Y-96750000I-218750J0D01*
G01*
X118643750Y-96750000D01*
G75*
G02*
X118425000Y-96531250I0J218750D01*
G01*
X118425000Y-96093750D01*
G75*
G02*
X118643750Y-95875000I218750J0D01*
G01*
G37*
%TD.AperFunction*%
%TD*%
%TO.P,C1,2*%
%TO.N,/STM32F373RCT6/GNDA*%
%TA.AperFunction,SMDPad,CuDef*%
G36*
G01*
X126456250Y-100000000D02*
X125943750Y-100000000D01*
G75*
G02*
X125725000Y-99781250I0J218750D01*
G01*
X125725000Y-99343750D01*
G75*
G02*
X125943750Y-99125000I218750J0D01*
G01*
X126456250Y-99125000D01*
G75*
G02*
X126675000Y-99343750I0J-218750D01*
G01*
X126675000Y-99781250D01*
G75*
G02*
X126456250Y-100000000I-218750J0D01*
G01*
G37*
%TD.AperFunction*%
%TO.P,C1,1*%
%TO.N,/STM32F373RCT6/VDDA*%
%TA.AperFunction,SMDPad,CuDef*%
G36*
G01*
X126456250Y-101575000D02*
X125943750Y-101575000D01*
G75*
G02*
X125725000Y-101356250I0J218750D01*
G01*
X125725000Y-100918750D01*
G75*
G02*
X125943750Y-100700000I218750J0D01*
G01*
X126456250Y-100700000D01*
G75*
G02*
X126675000Y-100918750I0J-218750D01*
G01*
X126675000Y-101356250D01*
G75*
G02*
X126456250Y-101575000I-218750J0D01*
G01*
G37*
%TD.AperFunction*%
%TD*%
D22*
%TO.N,/STM32F373RCT6/GNDA*%
X145800000Y-90300000D03*
X124200000Y-100200000D03*
X138400000Y-109200000D03*
X130400000Y-109200000D03*
X146900000Y-102400000D03*
%TO.N,/STM32F373RCT6/VDDA*%
X143100000Y-106900000D03*
X124200000Y-102000000D03*
X140000000Y-108400000D03*
X126700000Y-108400000D03*
%TO.N,/STM32F373RCT6/VREFSD+*%
X140400000Y-102300000D03*
X143200000Y-102300000D03*
%TO.N,GND*%
X133600000Y-105300000D03*
X130600000Y-85300000D03*
X150300000Y-85700000D03*
X149400000Y-105200000D03*
D23*
X149600000Y-90500000D03*
X149600000Y-89600000D03*
X121700000Y-90600000D03*
X120700000Y-90600000D03*
X119700000Y-90600000D03*
D22*
X119300000Y-110600000D03*
X147100000Y-113400000D03*
%TO.N,VDD*%
X132800000Y-110000000D03*
X147700000Y-105200000D03*
X130600000Y-87200000D03*
X126700000Y-88000000D03*
X143300000Y-86900000D03*
X143300000Y-85800000D03*
X143300000Y-84700000D03*
X134400000Y-88900000D03*
%TO.N,/~uC_RESET*%
X137800000Y-82600000D03*
X133500000Y-82600000D03*
D23*
%TO.N,+5V*%
X152000000Y-114000000D03*
D22*
%TO.N,/A_15*%
X141500000Y-90600000D03*
X139800000Y-90600000D03*
%TO.N,/B_9*%
X131700000Y-89800000D03*
X126700000Y-89800000D03*
%TO.N,/B_8*%
X131800000Y-89000000D03*
X126700000Y-89000000D03*
%TO.N,/F_6*%
X148500000Y-94800000D03*
X146600000Y-108400000D03*
D23*
%TO.N,/A_3*%
X119900000Y-109000000D03*
D22*
%TO.N,/C_3*%
X127250000Y-98950000D03*
%TO.N,/C_2*%
X124500000Y-98350000D03*
%TO.N,/C_1*%
X124750000Y-97550000D03*
%TO.N,/C_0*%
X125900000Y-97500000D03*
%TO.N,/C_13*%
X125500000Y-87100000D03*
X126000000Y-90600000D03*
%TD*%
D24*
%TO.N,/STM32F373RCT6/GNDA*%
X126200000Y-99562500D02*
X124600000Y-99562500D01*
X138412500Y-105900000D02*
X138412500Y-107500000D01*
X129025000Y-99450000D02*
X127750000Y-99450000D01*
X127637500Y-99562500D02*
X126200000Y-99562500D01*
X127750000Y-99450000D02*
X127637500Y-99562500D01*
X137950000Y-103375000D02*
X137950000Y-104550000D01*
X138412500Y-105012500D02*
X138412500Y-105900000D01*
X137950000Y-104550000D02*
X138412500Y-105012500D01*
D25*
X146712500Y-90300000D02*
X145800000Y-90300000D01*
D24*
X124600000Y-99800000D02*
X124600000Y-99562500D01*
X124200000Y-100200000D02*
X124600000Y-99800000D01*
X138412500Y-109187500D02*
X138400000Y-109200000D01*
X138412500Y-107500000D02*
X138412500Y-109187500D01*
X130400000Y-107987500D02*
X130400000Y-109200000D01*
X132000000Y-107987500D02*
X130400000Y-107987500D01*
X145787500Y-102400000D02*
X146900000Y-102400000D01*
X145787500Y-100800000D02*
X145787500Y-102400000D01*
%TO.N,/STM32F373RCT6/VDDA*%
X129025000Y-99950000D02*
X128000000Y-99950000D01*
X126812500Y-101137500D02*
X126200000Y-101137500D01*
X128000000Y-99950000D02*
X126812500Y-101137500D01*
X125437500Y-101137500D02*
X126200000Y-101137500D01*
X124600000Y-101137500D02*
X125437500Y-101137500D01*
D25*
X143100000Y-106900000D02*
X144062500Y-106900000D01*
D24*
X143700000Y-104500000D02*
X143700000Y-105300000D01*
X144062500Y-105662500D02*
X144062500Y-106900000D01*
X143700000Y-105300000D02*
X144062500Y-105662500D01*
X138450000Y-103375000D02*
X138450000Y-104450000D01*
X138450000Y-104450000D02*
X138900000Y-104900000D01*
X138900000Y-104900000D02*
X139700000Y-104900000D01*
X139987500Y-105187500D02*
X139987500Y-105900000D01*
X139700000Y-104900000D02*
X139987500Y-105187500D01*
X139987500Y-106687500D02*
X139987500Y-107500000D01*
X139987500Y-105900000D02*
X139987500Y-106687500D01*
D25*
X124600000Y-101600000D02*
X124600000Y-101137500D01*
X124200000Y-102000000D02*
X124600000Y-101600000D01*
D24*
X139987500Y-107500000D02*
X139987500Y-108387500D01*
X139987500Y-108387500D02*
X140000000Y-108400000D01*
X128300000Y-105900000D02*
X127300000Y-105900000D01*
X126700000Y-106500000D02*
X126700000Y-108400000D01*
X127300000Y-105900000D02*
X126700000Y-106500000D01*
%TO.N,Net-(C2-Pad1)*%
X129025000Y-95950000D02*
X124150000Y-95950000D01*
X123250000Y-96850000D02*
X121800000Y-96850000D01*
X124150000Y-95950000D02*
X123250000Y-96850000D01*
X121800000Y-96850000D02*
X120350000Y-96850000D01*
X119812500Y-96312500D02*
X118900000Y-96312500D01*
X120350000Y-96850000D02*
X119812500Y-96312500D01*
%TO.N,Net-(C3-Pad1)*%
X121800000Y-100550000D02*
X120450000Y-100550000D01*
X119912500Y-101087500D02*
X118900000Y-101087500D01*
X120450000Y-100550000D02*
X119912500Y-101087500D01*
X129025000Y-96450000D02*
X124215698Y-96450000D01*
X124215698Y-96450000D02*
X123450000Y-97215698D01*
X123450000Y-97215698D02*
X123450000Y-98300000D01*
X121800000Y-99950000D02*
X121800000Y-100550000D01*
X123450000Y-98300000D02*
X121800000Y-99950000D01*
%TO.N,Net-(C4-Pad1)*%
X129025000Y-94950000D02*
X124750000Y-94950000D01*
X124750000Y-94950000D02*
X123900000Y-94100000D01*
X123900000Y-94100000D02*
X123900000Y-92300000D01*
X123550000Y-91950000D02*
X122500000Y-91950000D01*
X123900000Y-92300000D02*
X123550000Y-91950000D01*
X120537500Y-91950000D02*
X120487500Y-92000000D01*
X122500000Y-91950000D02*
X120537500Y-91950000D01*
%TO.N,Net-(C5-Pad1)*%
X129025000Y-95450000D02*
X124650000Y-95450000D01*
X123650000Y-94450000D02*
X122500000Y-94450000D01*
X124650000Y-95450000D02*
X123650000Y-94450000D01*
X120537500Y-94450000D02*
X120487500Y-94500000D01*
X122500000Y-94450000D02*
X120537500Y-94450000D01*
%TO.N,/STM32F373RCT6/VREFSD+*%
X144212500Y-100800000D02*
X144212500Y-102400000D01*
X144212500Y-102400000D02*
X144212500Y-102612500D01*
X145000000Y-103400000D02*
X145000000Y-104500000D01*
X144212500Y-102612500D02*
X145000000Y-103400000D01*
X140375000Y-101450000D02*
X140375000Y-102275000D01*
X140375000Y-102275000D02*
X140400000Y-102300000D01*
X144112500Y-102300000D02*
X144212500Y-102400000D01*
X143200000Y-102300000D02*
X144112500Y-102300000D01*
%TO.N,/STM32F373RCT6/VREF+*%
X130950000Y-103375000D02*
X130950000Y-105050000D01*
X130400000Y-105600000D02*
X130400000Y-106412500D01*
X130950000Y-105050000D02*
X130400000Y-105600000D01*
X132000000Y-106412500D02*
X130400000Y-106412500D01*
X128300000Y-107200000D02*
X129300000Y-107200000D01*
X130087500Y-106412500D02*
X130400000Y-106412500D01*
X129300000Y-107200000D02*
X130087500Y-106412500D01*
%TO.N,/STM32F373RCT6/BOOT0*%
X133100000Y-87412500D02*
X133100000Y-85300000D01*
%TO.N,Net-(R1-Pad2)*%
X132950000Y-92025000D02*
X132950000Y-89950000D01*
X133100000Y-89800000D02*
X133100000Y-88987500D01*
X132950000Y-89950000D02*
X133100000Y-89800000D01*
%TO.N,GND*%
X130787500Y-88900000D02*
X130787500Y-89787500D01*
X131450000Y-90450000D02*
X131450000Y-92025000D01*
X130787500Y-89787500D02*
X131450000Y-90450000D01*
X133600000Y-106412500D02*
X133600000Y-105300000D01*
X131800000Y-85300000D02*
X130600000Y-85300000D01*
D25*
X149600000Y-84587500D02*
X149600000Y-85000000D01*
X149600000Y-85000000D02*
X150300000Y-85700000D01*
X149112500Y-88100000D02*
X149600000Y-88587500D01*
X147450000Y-88100000D02*
X149112500Y-88100000D01*
X149600000Y-88587500D02*
X149600000Y-89600000D01*
X149600000Y-89700000D02*
X149600000Y-90500000D01*
X149400000Y-90300000D02*
X149600000Y-90500000D01*
X148287500Y-90300000D02*
X149400000Y-90300000D01*
D24*
X130787500Y-88900000D02*
X130787500Y-88212500D01*
X131800000Y-87200000D02*
X131800000Y-85300000D01*
X130787500Y-88212500D02*
X131800000Y-87200000D01*
D25*
X149437500Y-106900000D02*
X149437500Y-105237500D01*
X149437500Y-105237500D02*
X149400000Y-105200000D01*
X118900000Y-99512500D02*
X118412500Y-99512500D01*
X118412500Y-99512500D02*
X117900000Y-99000000D01*
X149600000Y-90500000D02*
X149600000Y-90500000D01*
X149600000Y-89600000D02*
X149600000Y-89700000D01*
X117900000Y-90900000D02*
X118200000Y-90600000D01*
X118200000Y-90600000D02*
X119700000Y-90600000D01*
X120700000Y-90600000D02*
X121700000Y-90600000D01*
X119700000Y-90600000D02*
X120700000Y-90600000D01*
X118912500Y-92000000D02*
X118000000Y-92000000D01*
X118000000Y-92000000D02*
X117900000Y-92100000D01*
X117900000Y-92100000D02*
X117900000Y-90900000D01*
X118912500Y-94500000D02*
X117900000Y-94500000D01*
X117900000Y-94500000D02*
X117900000Y-92100000D01*
X118900000Y-97887500D02*
X117987500Y-97887500D01*
X117987500Y-97887500D02*
X117900000Y-97800000D01*
X117900000Y-99000000D02*
X117900000Y-97800000D01*
X117900000Y-97800000D02*
X117900000Y-94500000D01*
D24*
X119300000Y-111812500D02*
X119300000Y-110600000D01*
X148312500Y-113400000D02*
X147100000Y-113400000D01*
%TO.N,VDD*%
X130950000Y-92025000D02*
X130950000Y-90650000D01*
X130950000Y-90650000D02*
X130400000Y-90100000D01*
X130400000Y-90100000D02*
X129500000Y-90100000D01*
X129212500Y-89812500D02*
X129212500Y-88900000D01*
X129500000Y-90100000D02*
X129212500Y-89812500D01*
D25*
X147562500Y-106900000D02*
X145937500Y-106900000D01*
D24*
X131950000Y-103375000D02*
X131950000Y-104650000D01*
X131950000Y-104650000D02*
X132800000Y-105500000D01*
X132812500Y-107987500D02*
X132800000Y-108000000D01*
X133600000Y-107987500D02*
X132812500Y-107987500D01*
X132800000Y-105500000D02*
X132800000Y-108000000D01*
X132800000Y-108000000D02*
X132800000Y-108800000D01*
X132800000Y-108800000D02*
X132800000Y-110000000D01*
D25*
X147700000Y-105200000D02*
X147700000Y-105800000D01*
X147562500Y-105937500D02*
X147562500Y-106900000D01*
X147700000Y-105800000D02*
X147562500Y-105937500D01*
X147562500Y-106900000D02*
X147562500Y-109262500D01*
X149970000Y-111670000D02*
X153115000Y-111670000D01*
X147562500Y-109262500D02*
X149970000Y-111670000D01*
X129250000Y-87187500D02*
X130587500Y-87187500D01*
X130587500Y-87187500D02*
X130600000Y-87200000D01*
D24*
X129212500Y-87225000D02*
X129250000Y-87187500D01*
X129212500Y-88900000D02*
X129212500Y-87225000D01*
X147450000Y-85800000D02*
X149300000Y-85800000D01*
X149600000Y-86100000D02*
X149600000Y-87012500D01*
X149300000Y-85800000D02*
X149600000Y-86100000D01*
D25*
X120555000Y-88000000D02*
X116285000Y-83730000D01*
X126700000Y-88000000D02*
X120555000Y-88000000D01*
X148670000Y-79285000D02*
X148670000Y-80530000D01*
X148670000Y-80530000D02*
X147800000Y-81400000D01*
X147800000Y-81400000D02*
X145500000Y-81400000D01*
X145500000Y-81400000D02*
X145000000Y-81900000D01*
X145000000Y-81900000D02*
X145000000Y-84900000D01*
X144100000Y-85800000D02*
X143300000Y-85800000D01*
X145000000Y-84900000D02*
X144100000Y-85800000D01*
D24*
X134400000Y-85300000D02*
X134400000Y-88900000D01*
X129025000Y-93950000D02*
X128050000Y-93950000D01*
X128050000Y-93950000D02*
X127600000Y-93500000D01*
X127600000Y-88900000D02*
X126700000Y-88000000D01*
X127600000Y-93500000D02*
X127600000Y-88900000D01*
X115487500Y-82932500D02*
X116285000Y-83730000D01*
X115487500Y-80700000D02*
X115487500Y-82932500D01*
X148670000Y-79285000D02*
X151115000Y-79285000D01*
X151900000Y-78500000D02*
X151900000Y-77687500D01*
X151115000Y-79285000D02*
X151900000Y-78500000D01*
D25*
X132800000Y-110000000D02*
X123900000Y-110000000D01*
X120730000Y-113170000D02*
X120730000Y-116115000D01*
X123900000Y-110000000D02*
X120730000Y-113170000D01*
D24*
%TO.N,/~uC_RESET*%
X141050000Y-79285000D02*
X141050000Y-81018604D01*
X141050000Y-81018604D02*
X139468604Y-82600000D01*
X139468604Y-82600000D02*
X137800000Y-82600000D01*
X130600000Y-82600000D02*
X129500000Y-82600000D01*
X133500000Y-82600000D02*
X130600000Y-82600000D01*
X129500000Y-82600000D02*
X128200000Y-83900000D01*
X128212500Y-85612500D02*
X128200000Y-85600000D01*
X129250000Y-85612500D02*
X128212500Y-85612500D01*
X128200000Y-83900000D02*
X128200000Y-85600000D01*
X121034312Y-104299990D02*
X118300000Y-107034302D01*
X127800010Y-104299990D02*
X121034312Y-104299990D01*
X130700000Y-101400000D02*
X127800010Y-104299990D01*
X128200000Y-92500000D02*
X128900000Y-93200000D01*
X128900000Y-93200000D02*
X130200000Y-93200000D01*
X118300000Y-116100000D02*
X118200000Y-116200000D01*
X130200000Y-93200000D02*
X130700000Y-93700000D01*
X128200000Y-85600000D02*
X128200000Y-92500000D01*
X130650000Y-96950000D02*
X130700000Y-96900000D01*
X129025000Y-96950000D02*
X130650000Y-96950000D01*
X130700000Y-93700000D02*
X130700000Y-96900000D01*
X130700000Y-96900000D02*
X130700000Y-101400000D01*
X118312500Y-113387500D02*
X118300000Y-113400000D01*
X119300000Y-113387500D02*
X118312500Y-113387500D01*
X118300000Y-107034302D02*
X118300000Y-113400000D01*
X118300000Y-113400000D02*
X118300000Y-116100000D01*
X118200000Y-116200000D02*
X111700000Y-116200000D01*
D25*
%TO.N,+5V*%
X153115000Y-83730000D02*
X151730000Y-83730000D01*
X151012500Y-83012500D02*
X149600000Y-83012500D01*
X151730000Y-83730000D02*
X151012500Y-83012500D01*
X149600000Y-83012500D02*
X149187500Y-83012500D01*
X148700000Y-83500000D02*
X147450000Y-83500000D01*
X149187500Y-83012500D02*
X148700000Y-83500000D01*
X153115000Y-83730000D02*
X153115000Y-82785000D01*
X153115000Y-82785000D02*
X153950000Y-81950000D01*
X153950000Y-81950000D02*
X156700000Y-81950000D01*
X156700000Y-81950000D02*
X157700000Y-82950000D01*
X157700000Y-82950000D02*
X157700000Y-113200000D01*
X157700000Y-113200000D02*
X156950000Y-113950000D01*
X156950000Y-113950000D02*
X154950000Y-113950000D01*
X154950000Y-113950000D02*
X152050000Y-113950000D01*
X152050000Y-113950000D02*
X152000000Y-114000000D01*
X148670000Y-76745000D02*
X148670000Y-75470000D01*
X148670000Y-75470000D02*
X147400000Y-74200000D01*
X116000000Y-74200000D02*
X115550000Y-73750000D01*
X115550000Y-73750000D02*
X112250000Y-73750000D01*
X112250000Y-73750000D02*
X110900000Y-75100000D01*
X110900000Y-75100000D02*
X110900000Y-112400000D01*
X110900000Y-112400000D02*
X112900000Y-114400000D01*
X112900000Y-114400000D02*
X115550000Y-114400000D01*
X116285000Y-113665000D02*
X116285000Y-111670000D01*
X115550000Y-114400000D02*
X116285000Y-113665000D01*
X120730000Y-79285000D02*
X119235000Y-79285000D01*
X117800000Y-77850000D02*
X117800000Y-74200000D01*
X119235000Y-79285000D02*
X117800000Y-77850000D01*
X147400000Y-74200000D02*
X117800000Y-74200000D01*
X117800000Y-74200000D02*
X116000000Y-74200000D01*
D24*
%TO.N,/SWD_DIO*%
X140200000Y-83000000D02*
X139500000Y-83700000D01*
X139500000Y-83700000D02*
X139500000Y-88400000D01*
X139500000Y-88400000D02*
X140900000Y-89800000D01*
X140900000Y-89800000D02*
X140900000Y-91700000D01*
X140900000Y-91700000D02*
X139100000Y-93500000D01*
X139100000Y-93500000D02*
X139100000Y-94800000D01*
X139250000Y-94950000D02*
X140375000Y-94950000D01*
X139100000Y-94800000D02*
X139250000Y-94950000D01*
X146130000Y-79670000D02*
X142800000Y-83000000D01*
X146130000Y-79285000D02*
X146130000Y-79670000D01*
X142800000Y-83000000D02*
X140200000Y-83000000D01*
%TO.N,/SWD_CLK*%
X143590000Y-79285000D02*
X143590000Y-81610000D01*
X143590000Y-81610000D02*
X142600010Y-82599990D01*
X142600010Y-82599990D02*
X140034312Y-82599990D01*
X140034312Y-82599990D02*
X139099990Y-83534312D01*
X139099990Y-83534312D02*
X139099990Y-88565688D01*
X139099990Y-88565688D02*
X140499990Y-89965688D01*
X140499990Y-89965688D02*
X140499990Y-91534312D01*
X140009302Y-92025000D02*
X138450000Y-92025000D01*
X140499990Y-91534312D02*
X140009302Y-92025000D01*
%TO.N,/A_15*%
X141500000Y-90600000D02*
X144200000Y-90600000D01*
X144200000Y-90600000D02*
X145200000Y-91600000D01*
X145200000Y-91600000D02*
X149600000Y-91600000D01*
X149600000Y-91600000D02*
X150800000Y-90400000D01*
X150800000Y-90400000D02*
X150800000Y-86900000D01*
X151430000Y-86270000D02*
X153115000Y-86270000D01*
X150800000Y-86900000D02*
X151430000Y-86270000D01*
X137950000Y-91050000D02*
X137950000Y-92025000D01*
X138400000Y-90600000D02*
X137950000Y-91050000D01*
X139800000Y-90600000D02*
X138400000Y-90600000D01*
%TO.N,/C_10*%
X137450000Y-83305000D02*
X133430000Y-79285000D01*
X137450000Y-92025000D02*
X137450000Y-83305000D01*
%TO.N,/C_11*%
X136950000Y-92025000D02*
X136950000Y-83370698D01*
X136950000Y-83370698D02*
X134279302Y-80700000D01*
X132305000Y-80700000D02*
X130890000Y-79285000D01*
X134279302Y-80700000D02*
X132305000Y-80700000D01*
%TO.N,/C_12*%
X136450000Y-92025000D02*
X136450000Y-83436396D01*
X136450000Y-83436396D02*
X134113614Y-81100010D01*
X130165010Y-81100010D02*
X128350000Y-79285000D01*
X134113614Y-81100010D02*
X130165010Y-81100010D01*
%TO.N,/B_9*%
X131950000Y-92025000D02*
X131950000Y-90050000D01*
X131950000Y-90050000D02*
X131700000Y-89800000D01*
X117275000Y-89800000D02*
X116285000Y-88810000D01*
X126700000Y-89800000D02*
X117275000Y-89800000D01*
%TO.N,/B_8*%
X132450000Y-92025000D02*
X132450000Y-89661998D01*
X132450000Y-89661998D02*
X131800000Y-89011998D01*
X131800000Y-89011998D02*
X131800000Y-89000000D01*
X119015000Y-89000000D02*
X116285000Y-86270000D01*
X126700000Y-89000000D02*
X119015000Y-89000000D01*
%TO.N,/B_3*%
X135450000Y-92025000D02*
X135450000Y-83567792D01*
X135450000Y-83567792D02*
X133782238Y-81900030D01*
X125885030Y-81900030D02*
X123270000Y-79285000D01*
X133782238Y-81900030D02*
X125885030Y-81900030D01*
%TO.N,/D_2*%
X135950000Y-92025000D02*
X135950000Y-83502094D01*
X135950000Y-83502094D02*
X133947926Y-81500020D01*
X128025020Y-81500020D02*
X125810000Y-79285000D01*
X133947926Y-81500020D02*
X128025020Y-81500020D01*
%TO.N,/F_6*%
X140375000Y-94450000D02*
X148150000Y-94450000D01*
X148150000Y-94450000D02*
X148500000Y-94800000D01*
X146600000Y-109300000D02*
X149600000Y-112300000D01*
X149600000Y-112300000D02*
X150800000Y-112300000D01*
X151200000Y-113900000D02*
X151200000Y-116200000D01*
X150800000Y-112300000D02*
X151200000Y-112700000D01*
X146600000Y-108400000D02*
X146600000Y-109300000D01*
X149887500Y-113400000D02*
X151200000Y-113400000D01*
X151200000Y-112700000D02*
X151200000Y-113400000D01*
X151200000Y-113400000D02*
X151200000Y-113900000D01*
X151200000Y-116200000D02*
X157700000Y-116200000D01*
%TO.N,/A_12*%
X140375000Y-95450000D02*
X149518604Y-95450000D01*
X149518604Y-95450000D02*
X151199990Y-93768614D01*
X151199990Y-90725010D02*
X153115000Y-88810000D01*
X151199990Y-93768614D02*
X151199990Y-90725010D01*
%TO.N,/A_11*%
X140375000Y-95950000D02*
X149584302Y-95950000D01*
X149584302Y-95950000D02*
X151600000Y-93934302D01*
X151600000Y-92865000D02*
X153115000Y-91350000D01*
X151600000Y-93934302D02*
X151600000Y-92865000D01*
%TO.N,/A_10*%
X140375000Y-96450000D02*
X149650000Y-96450000D01*
X152210000Y-93890000D02*
X153115000Y-93890000D01*
X149650000Y-96450000D02*
X152210000Y-93890000D01*
%TO.N,/A_9*%
X140375000Y-96950000D02*
X151550000Y-96950000D01*
X152070000Y-96430000D02*
X153115000Y-96430000D01*
X151550000Y-96950000D02*
X152070000Y-96430000D01*
%TO.N,/A_8*%
X151595000Y-97450000D02*
X153115000Y-98970000D01*
X140375000Y-97450000D02*
X151595000Y-97450000D01*
%TO.N,/C_9*%
X149555000Y-97950000D02*
X153115000Y-101510000D01*
X140375000Y-97950000D02*
X149555000Y-97950000D01*
%TO.N,/C_8*%
X140375000Y-98450000D02*
X149489302Y-98450000D01*
X149489302Y-98450000D02*
X151500000Y-100460698D01*
X151500000Y-102435000D02*
X153115000Y-104050000D01*
X151500000Y-100460698D02*
X151500000Y-102435000D01*
%TO.N,/C_7*%
X140375000Y-98950000D02*
X149423604Y-98950000D01*
X149423604Y-98950000D02*
X151100000Y-100626396D01*
X151100000Y-104575000D02*
X153115000Y-106590000D01*
X151100000Y-100626396D02*
X151100000Y-104575000D01*
%TO.N,/C_6*%
X140375000Y-99450000D02*
X149357906Y-99450000D01*
X149357906Y-99450000D02*
X150699990Y-100792084D01*
X150699990Y-106714990D02*
X153115000Y-109130000D01*
X150699990Y-100792084D02*
X150699990Y-106714990D01*
%TO.N,/D_8*%
X140375000Y-99950000D02*
X141481396Y-99950000D01*
X141481396Y-99950000D02*
X142400010Y-100868614D01*
X142400010Y-112385010D02*
X146130000Y-116115000D01*
X142400010Y-100868614D02*
X142400010Y-112385010D01*
%TO.N,/E_9*%
X137450000Y-103375000D02*
X137450000Y-113050000D01*
X138510000Y-114110000D02*
X138510000Y-116115000D01*
X137450000Y-113050000D02*
X138510000Y-114110000D01*
%TO.N,/E_8*%
X136950000Y-115135000D02*
X135970000Y-116115000D01*
X136950000Y-103375000D02*
X136950000Y-115135000D01*
%TO.N,/B_2*%
X136450000Y-113095000D02*
X133430000Y-116115000D01*
X136450000Y-103375000D02*
X136450000Y-113095000D01*
%TO.N,/B_1*%
X132452500Y-114552500D02*
X130890000Y-116115000D01*
X134426802Y-114552500D02*
X132452500Y-114552500D01*
X135950000Y-113029302D02*
X134426802Y-114552500D01*
X135950000Y-103375000D02*
X135950000Y-113029302D01*
%TO.N,/B_0*%
X134247510Y-114152490D02*
X130312510Y-114152490D01*
X135450000Y-103375000D02*
X135450000Y-112950000D01*
X130312510Y-114152490D02*
X128350000Y-116115000D01*
X135450000Y-112950000D02*
X134247510Y-114152490D01*
%TO.N,/C_5*%
X134950000Y-103375000D02*
X134950000Y-112202480D01*
X134950000Y-112202480D02*
X133400000Y-113752480D01*
X128172520Y-113752480D02*
X125810000Y-116115000D01*
X133400000Y-113752480D02*
X128172520Y-113752480D01*
%TO.N,/C_4*%
X126032530Y-113352470D02*
X123270000Y-116115000D01*
X134450000Y-103375000D02*
X134450000Y-112136782D01*
X133234312Y-113352470D02*
X126032530Y-113352470D01*
X134450000Y-112136782D02*
X133234312Y-113352470D01*
%TO.N,/A_3*%
X131450000Y-103375000D02*
X131450000Y-102150000D01*
X131450000Y-102150000D02*
X131300000Y-102000000D01*
X131300000Y-102000000D02*
X130800000Y-102000000D01*
X130800000Y-102000000D02*
X128100000Y-104700000D01*
X128100000Y-104700000D02*
X121200000Y-104700000D01*
X121200000Y-104700000D02*
X120300000Y-105600000D01*
X120300000Y-105600000D02*
X120300000Y-108600000D01*
X120300000Y-108600000D02*
X119900000Y-109000000D01*
%TO.N,/A_2*%
X129025000Y-101450000D02*
X128197094Y-101450000D01*
X128197094Y-101450000D02*
X127800020Y-101847074D01*
X127800020Y-101847074D02*
X127800020Y-102499980D01*
X127800020Y-102499980D02*
X126699990Y-103600010D01*
X126699990Y-103600010D02*
X119265688Y-103600010D01*
X119265688Y-103600010D02*
X118400000Y-104465698D01*
X118400000Y-104465698D02*
X118400000Y-106000000D01*
X117810000Y-106590000D02*
X116285000Y-106590000D01*
X118400000Y-106000000D02*
X117810000Y-106590000D01*
%TO.N,/A_1*%
X129025000Y-100950000D02*
X128131396Y-100950000D01*
X128131396Y-100950000D02*
X127400010Y-101681386D01*
X127400010Y-101681386D02*
X127400010Y-102299990D01*
X127400010Y-102299990D02*
X126500000Y-103200000D01*
X126500000Y-103200000D02*
X119100000Y-103200000D01*
X118250000Y-104050000D02*
X116285000Y-104050000D01*
X119100000Y-103200000D02*
X118250000Y-104050000D01*
%TO.N,/A_0*%
X129025000Y-100450000D02*
X128065698Y-100450000D01*
X128065698Y-100450000D02*
X127000000Y-101515698D01*
X127000000Y-101515698D02*
X127000000Y-102100000D01*
X127000000Y-102100000D02*
X126300000Y-102800000D01*
X126300000Y-102800000D02*
X119100000Y-102800000D01*
X117810000Y-101510000D02*
X116285000Y-101510000D01*
X119100000Y-102800000D02*
X117810000Y-101510000D01*
%TO.N,/C_3*%
X129025000Y-98950000D02*
X127250000Y-98950000D01*
%TO.N,/C_2*%
X129025000Y-98450000D02*
X127638002Y-98450000D01*
X127638002Y-98450000D02*
X127538002Y-98350000D01*
X127538002Y-98350000D02*
X126950000Y-98350000D01*
X126950000Y-98350000D02*
X126600000Y-98700000D01*
X124850000Y-98700000D02*
X124500000Y-98350000D01*
X126600000Y-98700000D02*
X124850000Y-98700000D01*
%TO.N,/C_1*%
X125499990Y-98299990D02*
X124750000Y-97550000D01*
X126400010Y-98299990D02*
X125499990Y-98299990D01*
X129025000Y-97950000D02*
X126750000Y-97950000D01*
X126750000Y-97950000D02*
X126400010Y-98299990D01*
%TO.N,/C_0*%
X129025000Y-97450000D02*
X125950000Y-97450000D01*
X125950000Y-97450000D02*
X125900000Y-97500000D01*
%TO.N,/C_13*%
X113950000Y-78200000D02*
X116400000Y-78200000D01*
X116400000Y-78200000D02*
X118500000Y-80300000D01*
X118500000Y-80300000D02*
X118500000Y-84200000D01*
X118500000Y-84200000D02*
X121100000Y-86800000D01*
X121100000Y-86800000D02*
X125200000Y-86800000D01*
X125200000Y-86800000D02*
X125500000Y-87100000D01*
X126000000Y-90600000D02*
X127000000Y-91600000D01*
X127000000Y-91600000D02*
X127000000Y-93700000D01*
X127750000Y-94450000D02*
X129025000Y-94450000D01*
X127000000Y-93700000D02*
X127750000Y-94450000D01*
%TO.N,/B_15*%
X142000000Y-101034302D02*
X141415698Y-100450000D01*
X141415698Y-100450000D02*
X140375000Y-100450000D01*
X142000000Y-112550698D02*
X142000000Y-101034302D01*
X143590000Y-114140698D02*
X142000000Y-112550698D01*
X143590000Y-116115000D02*
X143590000Y-114140698D01*
%TO.N,/B_14*%
X140375000Y-100950000D02*
X141350000Y-100950000D01*
X141350000Y-100950000D02*
X141600000Y-101200000D01*
X141050000Y-113150000D02*
X141600000Y-112600000D01*
X141050000Y-116115000D02*
X141050000Y-113150000D01*
X141600000Y-101200000D02*
X141600000Y-112600000D01*
%TO.N,Net-(D1-Pad2)*%
X113912500Y-80700000D02*
X112300000Y-80700000D01*
X112300000Y-80700000D02*
X111700000Y-80100000D01*
X111700000Y-80100000D02*
X111700000Y-76300000D01*
X112340000Y-75660000D02*
X113950000Y-75660000D01*
X111700000Y-76300000D02*
X112340000Y-75660000D01*
%TO.N,Net-(D2-Pad2)*%
X154997500Y-76112500D02*
X155450000Y-75660000D01*
X151900000Y-76112500D02*
X154997500Y-76112500D01*
%TD*%
D26*
%TO.N,VDD*%
G36*
X145919463Y-82395506D02*
G01*
X145860498Y-82505820D01*
X145824188Y-82625518D01*
X145811928Y-82750000D01*
X145811928Y-84250000D01*
X145824188Y-84374482D01*
X145860498Y-84494180D01*
X145919463Y-84604494D01*
X145956809Y-84650000D01*
X145919463Y-84695506D01*
X145860498Y-84805820D01*
X145824188Y-84925518D01*
X145811928Y-85050000D01*
X145815000Y-85268250D01*
X145973750Y-85427000D01*
X147077000Y-85427000D01*
X147077000Y-85407000D01*
X147823000Y-85407000D01*
X147823000Y-85427000D01*
X147843000Y-85427000D01*
X147843000Y-86173000D01*
X147823000Y-86173000D01*
X147823000Y-86193000D01*
X147077000Y-86193000D01*
X147077000Y-86173000D01*
X145973750Y-86173000D01*
X145815000Y-86331750D01*
X145811928Y-86550000D01*
X145824188Y-86674482D01*
X145860498Y-86794180D01*
X145919463Y-86904494D01*
X145956809Y-86950000D01*
X145919463Y-86995506D01*
X145860498Y-87105820D01*
X145824188Y-87225518D01*
X145811928Y-87350000D01*
X145811928Y-88850000D01*
X145824188Y-88974482D01*
X145860498Y-89094180D01*
X145919463Y-89204494D01*
X145975684Y-89273000D01*
X141416435Y-89273000D01*
X141394197Y-89254750D01*
X140475384Y-88335937D01*
X140618250Y-88335000D01*
X140777000Y-88176250D01*
X140777000Y-86173000D01*
X141523000Y-86173000D01*
X141523000Y-88176250D01*
X141681750Y-88335000D01*
X142150000Y-88338072D01*
X142274482Y-88325812D01*
X142394180Y-88289502D01*
X142504494Y-88230537D01*
X142601185Y-88151185D01*
X142680537Y-88054494D01*
X142739502Y-87944180D01*
X142775812Y-87824482D01*
X142788072Y-87700000D01*
X142785000Y-86331750D01*
X142626250Y-86173000D01*
X141523000Y-86173000D01*
X140777000Y-86173000D01*
X140757000Y-86173000D01*
X140757000Y-85427000D01*
X140777000Y-85427000D01*
X140777000Y-85407000D01*
X141523000Y-85407000D01*
X141523000Y-85427000D01*
X142626250Y-85427000D01*
X142785000Y-85268250D01*
X142788072Y-83900000D01*
X142775812Y-83775518D01*
X142763521Y-83735000D01*
X142763895Y-83735000D01*
X142800000Y-83738556D01*
X142836105Y-83735000D01*
X142944085Y-83724365D01*
X143082633Y-83682337D01*
X143210320Y-83614087D01*
X143322238Y-83522238D01*
X143345259Y-83494187D01*
X144512446Y-82327000D01*
X145975684Y-82327000D01*
X145919463Y-82395506D01*
G37*
X145919463Y-82395506D02*
X145860498Y-82505820D01*
X145824188Y-82625518D01*
X145811928Y-82750000D01*
X145811928Y-84250000D01*
X145824188Y-84374482D01*
X145860498Y-84494180D01*
X145919463Y-84604494D01*
X145956809Y-84650000D01*
X145919463Y-84695506D01*
X145860498Y-84805820D01*
X145824188Y-84925518D01*
X145811928Y-85050000D01*
X145815000Y-85268250D01*
X145973750Y-85427000D01*
X147077000Y-85427000D01*
X147077000Y-85407000D01*
X147823000Y-85407000D01*
X147823000Y-85427000D01*
X147843000Y-85427000D01*
X147843000Y-86173000D01*
X147823000Y-86173000D01*
X147823000Y-86193000D01*
X147077000Y-86193000D01*
X147077000Y-86173000D01*
X145973750Y-86173000D01*
X145815000Y-86331750D01*
X145811928Y-86550000D01*
X145824188Y-86674482D01*
X145860498Y-86794180D01*
X145919463Y-86904494D01*
X145956809Y-86950000D01*
X145919463Y-86995506D01*
X145860498Y-87105820D01*
X145824188Y-87225518D01*
X145811928Y-87350000D01*
X145811928Y-88850000D01*
X145824188Y-88974482D01*
X145860498Y-89094180D01*
X145919463Y-89204494D01*
X145975684Y-89273000D01*
X141416435Y-89273000D01*
X141394197Y-89254750D01*
X140475384Y-88335937D01*
X140618250Y-88335000D01*
X140777000Y-88176250D01*
X140777000Y-86173000D01*
X141523000Y-86173000D01*
X141523000Y-88176250D01*
X141681750Y-88335000D01*
X142150000Y-88338072D01*
X142274482Y-88325812D01*
X142394180Y-88289502D01*
X142504494Y-88230537D01*
X142601185Y-88151185D01*
X142680537Y-88054494D01*
X142739502Y-87944180D01*
X142775812Y-87824482D01*
X142788072Y-87700000D01*
X142785000Y-86331750D01*
X142626250Y-86173000D01*
X141523000Y-86173000D01*
X140777000Y-86173000D01*
X140757000Y-86173000D01*
X140757000Y-85427000D01*
X140777000Y-85427000D01*
X140777000Y-85407000D01*
X141523000Y-85407000D01*
X141523000Y-85427000D01*
X142626250Y-85427000D01*
X142785000Y-85268250D01*
X142788072Y-83900000D01*
X142775812Y-83775518D01*
X142763521Y-83735000D01*
X142763895Y-83735000D01*
X142800000Y-83738556D01*
X142836105Y-83735000D01*
X142944085Y-83724365D01*
X143082633Y-83682337D01*
X143210320Y-83614087D01*
X143322238Y-83522238D01*
X143345259Y-83494187D01*
X144512446Y-82327000D01*
X145975684Y-82327000D01*
X145919463Y-82395506D01*
%TD*%
M02*
