%TF.GenerationSoftware,KiCad,Pcbnew,(5.1.6)-1*%
%TF.CreationDate,2020-11-19T20:50:07+01:00*%
%TF.ProjectId,F373RCT6_MSDB,46333733-5243-4543-965f-4d5344422e6b,rev?*%
%TF.SameCoordinates,Original*%
%TF.FileFunction,Copper,L2,Bot*%
%TF.FilePolarity,Positive*%
%FSLAX46Y46*%
G04 Gerber Fmt 4.6, Leading zero omitted, Abs format (unit mm)*
G04 Created by KiCad (PCBNEW (5.1.6)-1) date 2020-11-19 20:50:07*
%MOMM*%
%LPD*%
G01*
G04 APERTURE LIST*
%TA.AperFunction,ComponentPad*%
%ADD10C,2.000000*%
%TD*%
%TA.AperFunction,ComponentPad*%
%ADD11C,1.800000*%
%TD*%
%TA.AperFunction,ComponentPad*%
%ADD12R,1.800000X1.800000*%
%TD*%
%TA.AperFunction,ComponentPad*%
%ADD13O,1.700000X1.700000*%
%TD*%
%TA.AperFunction,ComponentPad*%
%ADD14R,1.700000X1.700000*%
%TD*%
%TA.AperFunction,ViaPad*%
%ADD15C,0.600000*%
%TD*%
%TA.AperFunction,ViaPad*%
%ADD16C,0.800000*%
%TD*%
%TA.AperFunction,Conductor*%
%ADD17C,0.500000*%
%TD*%
%TA.AperFunction,Conductor*%
%ADD18C,0.200000*%
%TD*%
%TA.AperFunction,Conductor*%
%ADD19C,0.254000*%
%TD*%
G04 APERTURE END LIST*
D10*
%TO.P,SW2,1*%
%TO.N,/F_6*%
X157700000Y-116200000D03*
%TO.P,SW2,2*%
%TO.N,GND*%
X157700000Y-120700000D03*
%TO.P,SW2,1*%
%TO.N,/F_6*%
X151200000Y-116200000D03*
%TO.P,SW2,2*%
%TO.N,GND*%
X151200000Y-120700000D03*
%TD*%
%TO.P,SW1,1*%
%TO.N,/~uC_RESET*%
X118200000Y-116200000D03*
%TO.P,SW1,2*%
%TO.N,GND*%
X118200000Y-120700000D03*
%TO.P,SW1,1*%
%TO.N,/~uC_RESET*%
X111700000Y-116200000D03*
%TO.P,SW1,2*%
%TO.N,GND*%
X111700000Y-120700000D03*
%TD*%
D11*
%TO.P,D2,2*%
%TO.N,Net-(D2-Pad2)*%
X155450000Y-75660000D03*
D12*
%TO.P,D2,1*%
%TO.N,GND*%
X155450000Y-78200000D03*
%TD*%
D11*
%TO.P,D1,2*%
%TO.N,Net-(D1-Pad2)*%
X113950000Y-75660000D03*
D12*
%TO.P,D1,1*%
%TO.N,/C_13*%
X113950000Y-78200000D03*
%TD*%
D13*
%TO.P,J5,24*%
%TO.N,GND*%
X155655000Y-111670000D03*
%TO.P,J5,23*%
%TO.N,VDD*%
X153115000Y-111670000D03*
%TO.P,J5,22*%
%TO.N,GND*%
X155655000Y-109130000D03*
%TO.P,J5,21*%
%TO.N,/C_6*%
X153115000Y-109130000D03*
%TO.P,J5,20*%
%TO.N,GND*%
X155655000Y-106590000D03*
%TO.P,J5,19*%
%TO.N,/C_7*%
X153115000Y-106590000D03*
%TO.P,J5,18*%
%TO.N,GND*%
X155655000Y-104050000D03*
%TO.P,J5,17*%
%TO.N,/C_8*%
X153115000Y-104050000D03*
%TO.P,J5,16*%
%TO.N,GND*%
X155655000Y-101510000D03*
%TO.P,J5,15*%
%TO.N,/C_9*%
X153115000Y-101510000D03*
%TO.P,J5,14*%
%TO.N,GND*%
X155655000Y-98970000D03*
%TO.P,J5,13*%
%TO.N,/A_8*%
X153115000Y-98970000D03*
%TO.P,J5,12*%
%TO.N,GND*%
X155655000Y-96430000D03*
%TO.P,J5,11*%
%TO.N,/A_9*%
X153115000Y-96430000D03*
%TO.P,J5,10*%
%TO.N,GND*%
X155655000Y-93890000D03*
%TO.P,J5,9*%
%TO.N,/A_10*%
X153115000Y-93890000D03*
%TO.P,J5,8*%
%TO.N,GND*%
X155655000Y-91350000D03*
%TO.P,J5,7*%
%TO.N,/A_11*%
X153115000Y-91350000D03*
%TO.P,J5,6*%
%TO.N,GND*%
X155655000Y-88810000D03*
%TO.P,J5,5*%
%TO.N,/A_12*%
X153115000Y-88810000D03*
%TO.P,J5,4*%
%TO.N,GND*%
X155655000Y-86270000D03*
%TO.P,J5,3*%
%TO.N,/A_15*%
X153115000Y-86270000D03*
%TO.P,J5,2*%
%TO.N,GND*%
X155655000Y-83730000D03*
D14*
%TO.P,J5,1*%
%TO.N,+5V*%
X153115000Y-83730000D03*
%TD*%
D13*
%TO.P,J4,24*%
%TO.N,GND*%
X120730000Y-118655000D03*
%TO.P,J4,23*%
%TO.N,VDD*%
X120730000Y-116115000D03*
%TO.P,J4,22*%
%TO.N,GND*%
X123270000Y-118655000D03*
%TO.P,J4,21*%
%TO.N,/C_4*%
X123270000Y-116115000D03*
%TO.P,J4,20*%
%TO.N,GND*%
X125810000Y-118655000D03*
%TO.P,J4,19*%
%TO.N,/C_5*%
X125810000Y-116115000D03*
%TO.P,J4,18*%
%TO.N,GND*%
X128350000Y-118655000D03*
%TO.P,J4,17*%
%TO.N,/B_0*%
X128350000Y-116115000D03*
%TO.P,J4,16*%
%TO.N,GND*%
X130890000Y-118655000D03*
%TO.P,J4,15*%
%TO.N,/B_1*%
X130890000Y-116115000D03*
%TO.P,J4,14*%
%TO.N,GND*%
X133430000Y-118655000D03*
%TO.P,J4,13*%
%TO.N,/B_2*%
X133430000Y-116115000D03*
%TO.P,J4,12*%
%TO.N,GND*%
X135970000Y-118655000D03*
%TO.P,J4,11*%
%TO.N,/E_8*%
X135970000Y-116115000D03*
%TO.P,J4,10*%
%TO.N,GND*%
X138510000Y-118655000D03*
%TO.P,J4,9*%
%TO.N,/E_9*%
X138510000Y-116115000D03*
%TO.P,J4,8*%
%TO.N,GND*%
X141050000Y-118655000D03*
%TO.P,J4,7*%
%TO.N,/B_14*%
X141050000Y-116115000D03*
%TO.P,J4,6*%
%TO.N,GND*%
X143590000Y-118655000D03*
%TO.P,J4,5*%
%TO.N,/B_15*%
X143590000Y-116115000D03*
%TO.P,J4,4*%
%TO.N,GND*%
X146130000Y-118655000D03*
%TO.P,J4,3*%
%TO.N,/D_8*%
X146130000Y-116115000D03*
%TO.P,J4,2*%
%TO.N,GND*%
X148670000Y-118655000D03*
D14*
%TO.P,J4,1*%
%TO.N,+5V*%
X148670000Y-116115000D03*
%TD*%
%TO.P,J3,1*%
%TO.N,+5V*%
X116285000Y-111670000D03*
D13*
%TO.P,J3,2*%
%TO.N,GND*%
X113745000Y-111670000D03*
%TO.P,J3,3*%
%TO.N,/A_3*%
X116285000Y-109130000D03*
%TO.P,J3,4*%
%TO.N,GND*%
X113745000Y-109130000D03*
%TO.P,J3,5*%
%TO.N,/A_2*%
X116285000Y-106590000D03*
%TO.P,J3,6*%
%TO.N,GND*%
X113745000Y-106590000D03*
%TO.P,J3,7*%
%TO.N,/A_1*%
X116285000Y-104050000D03*
%TO.P,J3,8*%
%TO.N,GND*%
X113745000Y-104050000D03*
%TO.P,J3,9*%
%TO.N,/A_0*%
X116285000Y-101510000D03*
%TO.P,J3,10*%
%TO.N,GND*%
X113745000Y-101510000D03*
%TO.P,J3,11*%
%TO.N,/C_3*%
X116285000Y-98970000D03*
%TO.P,J3,12*%
%TO.N,GND*%
X113745000Y-98970000D03*
%TO.P,J3,13*%
%TO.N,/C_2*%
X116285000Y-96430000D03*
%TO.P,J3,14*%
%TO.N,GND*%
X113745000Y-96430000D03*
%TO.P,J3,15*%
%TO.N,/C_1*%
X116285000Y-93890000D03*
%TO.P,J3,16*%
%TO.N,GND*%
X113745000Y-93890000D03*
%TO.P,J3,17*%
%TO.N,/C_0*%
X116285000Y-91350000D03*
%TO.P,J3,18*%
%TO.N,GND*%
X113745000Y-91350000D03*
%TO.P,J3,19*%
%TO.N,/B_9*%
X116285000Y-88810000D03*
%TO.P,J3,20*%
%TO.N,GND*%
X113745000Y-88810000D03*
%TO.P,J3,21*%
%TO.N,/B_8*%
X116285000Y-86270000D03*
%TO.P,J3,22*%
%TO.N,GND*%
X113745000Y-86270000D03*
%TO.P,J3,23*%
%TO.N,VDD*%
X116285000Y-83730000D03*
%TO.P,J3,24*%
%TO.N,GND*%
X113745000Y-83730000D03*
%TD*%
%TO.P,J2,12*%
%TO.N,GND*%
X133430000Y-76745000D03*
%TO.P,J2,11*%
%TO.N,/C_10*%
X133430000Y-79285000D03*
%TO.P,J2,10*%
%TO.N,GND*%
X130890000Y-76745000D03*
%TO.P,J2,9*%
%TO.N,/C_11*%
X130890000Y-79285000D03*
%TO.P,J2,8*%
%TO.N,GND*%
X128350000Y-76745000D03*
%TO.P,J2,7*%
%TO.N,/C_12*%
X128350000Y-79285000D03*
%TO.P,J2,6*%
%TO.N,GND*%
X125810000Y-76745000D03*
%TO.P,J2,5*%
%TO.N,/D_2*%
X125810000Y-79285000D03*
%TO.P,J2,4*%
%TO.N,GND*%
X123270000Y-76745000D03*
%TO.P,J2,3*%
%TO.N,/B_3*%
X123270000Y-79285000D03*
%TO.P,J2,2*%
%TO.N,GND*%
X120730000Y-76745000D03*
D14*
%TO.P,J2,1*%
%TO.N,+5V*%
X120730000Y-79285000D03*
%TD*%
D13*
%TO.P,J1,8*%
%TO.N,+5V*%
X148670000Y-76745000D03*
%TO.P,J1,7*%
%TO.N,VDD*%
X148670000Y-79285000D03*
%TO.P,J1,6*%
%TO.N,GND*%
X146130000Y-76745000D03*
%TO.P,J1,5*%
%TO.N,/SWD_DIO*%
X146130000Y-79285000D03*
%TO.P,J1,4*%
%TO.N,GND*%
X143590000Y-76745000D03*
%TO.P,J1,3*%
%TO.N,/SWD_CLK*%
X143590000Y-79285000D03*
%TO.P,J1,2*%
%TO.N,GND*%
X141050000Y-76745000D03*
D14*
%TO.P,J1,1*%
%TO.N,/~uC_RESET*%
X141050000Y-79285000D03*
%TD*%
D15*
%TO.N,/STM32F373RCT6/GNDA*%
X145800000Y-90300000D03*
X124200000Y-100200000D03*
X138400000Y-109200000D03*
X130400000Y-109200000D03*
X146900000Y-102400000D03*
%TO.N,/STM32F373RCT6/VDDA*%
X143100000Y-106900000D03*
X124200000Y-102000000D03*
X140000000Y-108400000D03*
X126700000Y-108400000D03*
%TO.N,/STM32F373RCT6/VREFSD+*%
X140400000Y-102300000D03*
X143200000Y-102300000D03*
%TO.N,GND*%
X133600000Y-105300000D03*
X130600000Y-85300000D03*
X150300000Y-85700000D03*
X149400000Y-105200000D03*
D16*
X149600000Y-90500000D03*
X149600000Y-89600000D03*
X121700000Y-90600000D03*
X120700000Y-90600000D03*
X119700000Y-90600000D03*
D15*
X119300000Y-110600000D03*
X147100000Y-113400000D03*
%TO.N,VDD*%
X132800000Y-110000000D03*
X147700000Y-105200000D03*
X130600000Y-87200000D03*
X126700000Y-88000000D03*
X143300000Y-86900000D03*
X143300000Y-85800000D03*
X143300000Y-84700000D03*
X134400000Y-88900000D03*
%TO.N,/~uC_RESET*%
X137800000Y-82600000D03*
X133500000Y-82600000D03*
D16*
%TO.N,+5V*%
X152000000Y-114000000D03*
D15*
%TO.N,/A_15*%
X141500000Y-90600000D03*
X139800000Y-90600000D03*
%TO.N,/B_9*%
X131700000Y-89800000D03*
X126700000Y-89800000D03*
%TO.N,/B_8*%
X131800000Y-89000000D03*
X126700000Y-89000000D03*
%TO.N,/F_6*%
X148500000Y-94800000D03*
X146600000Y-108400000D03*
D16*
%TO.N,/A_3*%
X119900000Y-109000000D03*
D15*
%TO.N,/C_3*%
X127250000Y-98950000D03*
%TO.N,/C_2*%
X124500000Y-98350000D03*
%TO.N,/C_1*%
X124750000Y-97550000D03*
%TO.N,/C_0*%
X125900000Y-97500000D03*
%TO.N,/C_13*%
X125500000Y-87100000D03*
X126000000Y-90600000D03*
%TD*%
D17*
%TO.N,/STM32F373RCT6/GNDA*%
X145800000Y-90300000D02*
X145800000Y-94900000D01*
X145800000Y-94900000D02*
X146900000Y-96000000D01*
X146900000Y-104900000D02*
X142600000Y-109200000D01*
X142600000Y-109200000D02*
X138400000Y-109200000D01*
X123400000Y-101000000D02*
X124200000Y-100200000D01*
X122400000Y-102000000D02*
X123400000Y-101000000D01*
X122400000Y-105600000D02*
X122400000Y-102000000D01*
X126000000Y-109200000D02*
X122400000Y-105600000D01*
X138400000Y-109200000D02*
X130400000Y-109200000D01*
X130400000Y-109200000D02*
X126000000Y-109200000D01*
X146900000Y-96000000D02*
X146900000Y-102400000D01*
X146900000Y-102400000D02*
X146900000Y-104900000D01*
%TO.N,/STM32F373RCT6/VDDA*%
X143100000Y-106900000D02*
X141600000Y-108400000D01*
X126300000Y-108400000D02*
X123100000Y-105200000D01*
X123100000Y-105200000D02*
X123100000Y-103100000D01*
X123100000Y-103100000D02*
X124200000Y-102000000D01*
X141600000Y-108400000D02*
X140000000Y-108400000D01*
X140000000Y-108400000D02*
X126700000Y-108400000D01*
X126700000Y-108400000D02*
X126300000Y-108400000D01*
D18*
%TO.N,/STM32F373RCT6/VREFSD+*%
X140400000Y-102300000D02*
X143200000Y-102300000D01*
D17*
%TO.N,VDD*%
X143300000Y-88900000D02*
X147200000Y-88900000D01*
X147200000Y-88900000D02*
X147700000Y-89400000D01*
X147700000Y-89400000D02*
X147700000Y-105200000D01*
X142900000Y-110000000D02*
X132800000Y-110000000D01*
X147700000Y-105200000D02*
X142900000Y-110000000D01*
X133400000Y-88900000D02*
X132500000Y-88000000D01*
X130600000Y-87200000D02*
X130600000Y-88000000D01*
X132500000Y-88000000D02*
X130600000Y-88000000D01*
X130600000Y-88000000D02*
X126700000Y-88000000D01*
X143300000Y-85800000D02*
X143300000Y-86900000D01*
X143300000Y-86900000D02*
X143300000Y-88900000D01*
X143300000Y-84700000D02*
X143300000Y-85800000D01*
X143300000Y-88900000D02*
X134400000Y-88900000D01*
X134400000Y-88900000D02*
X133400000Y-88900000D01*
D18*
%TO.N,/~uC_RESET*%
X137800000Y-82600000D02*
X133500000Y-82600000D01*
D17*
%TO.N,+5V*%
X148670000Y-76745000D02*
X151045000Y-76745000D01*
X153115000Y-78815000D02*
X153115000Y-83730000D01*
X151045000Y-76745000D02*
X153115000Y-78815000D01*
X152000000Y-114000000D02*
X149400000Y-114000000D01*
X148670000Y-114730000D02*
X148670000Y-116115000D01*
X149400000Y-114000000D02*
X148670000Y-114730000D01*
D18*
%TO.N,/A_15*%
X139800000Y-90600000D02*
X141500000Y-90600000D01*
%TO.N,/B_9*%
X131700000Y-89800000D02*
X126700000Y-89800000D01*
%TO.N,/B_8*%
X131800000Y-89000000D02*
X126700000Y-89000000D01*
%TO.N,/F_6*%
X148500000Y-94800000D02*
X148500000Y-105500000D01*
X148500000Y-105500000D02*
X146600000Y-107400000D01*
X146600000Y-107400000D02*
X146600000Y-108400000D01*
%TO.N,/A_3*%
X119770000Y-109130000D02*
X116285000Y-109130000D01*
X119900000Y-109000000D02*
X119770000Y-109130000D01*
%TO.N,/C_3*%
X124250000Y-98950000D02*
X123300030Y-98000030D01*
X123300030Y-98000030D02*
X120799970Y-98000030D01*
X120799970Y-98000030D02*
X117254970Y-98000030D01*
X127250000Y-98950000D02*
X124250000Y-98950000D01*
X117254970Y-98000030D02*
X116285000Y-98970000D01*
X120799970Y-98000030D02*
X120200030Y-98000030D01*
%TO.N,/C_2*%
X124500000Y-98350000D02*
X123750020Y-97600020D01*
X123750020Y-97600020D02*
X120368624Y-97600020D01*
X119198604Y-96430000D02*
X116285000Y-96430000D01*
X120368624Y-97600020D02*
X119198604Y-96430000D01*
%TO.N,/C_1*%
X124750000Y-97550000D02*
X124400010Y-97200010D01*
X124400010Y-97200010D02*
X120534312Y-97200010D01*
X120534312Y-97200010D02*
X117224302Y-93890000D01*
X117224302Y-93890000D02*
X116285000Y-93890000D01*
%TO.N,/C_0*%
X125900000Y-97500000D02*
X125200000Y-96800000D01*
X125200000Y-96800000D02*
X120700000Y-96800000D01*
X120700000Y-96800000D02*
X119200000Y-95300000D01*
X119200000Y-95300000D02*
X119200000Y-93100000D01*
X117450000Y-91350000D02*
X116285000Y-91350000D01*
X119200000Y-93100000D02*
X117450000Y-91350000D01*
%TO.N,/C_13*%
X125500000Y-87100000D02*
X125500000Y-90100000D01*
X125500000Y-90100000D02*
X126000000Y-90600000D01*
%TD*%
D19*
%TO.N,GND*%
G36*
X159040001Y-115262531D02*
G01*
X158969987Y-115157748D01*
X158742252Y-114930013D01*
X158474463Y-114751082D01*
X158176912Y-114627832D01*
X157861033Y-114565000D01*
X157538967Y-114565000D01*
X157223088Y-114627832D01*
X156925537Y-114751082D01*
X156657748Y-114930013D01*
X156430013Y-115157748D01*
X156251082Y-115425537D01*
X156127832Y-115723088D01*
X156065000Y-116038967D01*
X156065000Y-116361033D01*
X156127832Y-116676912D01*
X156251082Y-116974463D01*
X156430013Y-117242252D01*
X156657748Y-117469987D01*
X156925537Y-117648918D01*
X157223088Y-117772168D01*
X157538967Y-117835000D01*
X157861033Y-117835000D01*
X158176912Y-117772168D01*
X158474463Y-117648918D01*
X158742252Y-117469987D01*
X158969987Y-117242252D01*
X159040001Y-117137469D01*
X159040001Y-119818292D01*
X158835413Y-119744192D01*
X157879605Y-120700000D01*
X158835413Y-121655808D01*
X159040001Y-121581708D01*
X159040001Y-122040000D01*
X158581708Y-122040000D01*
X158655808Y-121835413D01*
X157700000Y-120879605D01*
X156744192Y-121835413D01*
X156818292Y-122040000D01*
X152081708Y-122040000D01*
X152155808Y-121835413D01*
X151200000Y-120879605D01*
X150244192Y-121835413D01*
X150318292Y-122040000D01*
X119081708Y-122040000D01*
X119155808Y-121835413D01*
X118200000Y-120879605D01*
X117244192Y-121835413D01*
X117318292Y-122040000D01*
X112581708Y-122040000D01*
X112655808Y-121835413D01*
X111700000Y-120879605D01*
X110744192Y-121835413D01*
X110818292Y-122040000D01*
X110360000Y-122040000D01*
X110360000Y-121581708D01*
X110564587Y-121655808D01*
X111520395Y-120700000D01*
X111879605Y-120700000D01*
X112835413Y-121655808D01*
X113099814Y-121560044D01*
X113240704Y-121270429D01*
X113322384Y-120958892D01*
X113334189Y-120762595D01*
X116558282Y-120762595D01*
X116602039Y-121081675D01*
X116707205Y-121386088D01*
X116800186Y-121560044D01*
X117064587Y-121655808D01*
X118020395Y-120700000D01*
X118379605Y-120700000D01*
X119335413Y-121655808D01*
X119599814Y-121560044D01*
X119740704Y-121270429D01*
X119822384Y-120958892D01*
X119834189Y-120762595D01*
X149558282Y-120762595D01*
X149602039Y-121081675D01*
X149707205Y-121386088D01*
X149800186Y-121560044D01*
X150064587Y-121655808D01*
X151020395Y-120700000D01*
X151379605Y-120700000D01*
X152335413Y-121655808D01*
X152599814Y-121560044D01*
X152740704Y-121270429D01*
X152822384Y-120958892D01*
X152834189Y-120762595D01*
X156058282Y-120762595D01*
X156102039Y-121081675D01*
X156207205Y-121386088D01*
X156300186Y-121560044D01*
X156564587Y-121655808D01*
X157520395Y-120700000D01*
X156564587Y-119744192D01*
X156300186Y-119839956D01*
X156159296Y-120129571D01*
X156077616Y-120441108D01*
X156058282Y-120762595D01*
X152834189Y-120762595D01*
X152841718Y-120637405D01*
X152797961Y-120318325D01*
X152692795Y-120013912D01*
X152599814Y-119839956D01*
X152335413Y-119744192D01*
X151379605Y-120700000D01*
X151020395Y-120700000D01*
X150064587Y-119744192D01*
X149800186Y-119839956D01*
X149659296Y-120129571D01*
X149577616Y-120441108D01*
X149558282Y-120762595D01*
X119834189Y-120762595D01*
X119841718Y-120637405D01*
X119797961Y-120318325D01*
X119692795Y-120013912D01*
X119599814Y-119839956D01*
X119335413Y-119744192D01*
X118379605Y-120700000D01*
X118020395Y-120700000D01*
X117064587Y-119744192D01*
X116800186Y-119839956D01*
X116659296Y-120129571D01*
X116577616Y-120441108D01*
X116558282Y-120762595D01*
X113334189Y-120762595D01*
X113341718Y-120637405D01*
X113297961Y-120318325D01*
X113192795Y-120013912D01*
X113099814Y-119839956D01*
X112835413Y-119744192D01*
X111879605Y-120700000D01*
X111520395Y-120700000D01*
X110564587Y-119744192D01*
X110360000Y-119818292D01*
X110360000Y-119564587D01*
X110744192Y-119564587D01*
X111700000Y-120520395D01*
X112655808Y-119564587D01*
X117244192Y-119564587D01*
X118200000Y-120520395D01*
X119155808Y-119564587D01*
X119060044Y-119300186D01*
X118770429Y-119159296D01*
X118458892Y-119077616D01*
X118137405Y-119058282D01*
X117818325Y-119102039D01*
X117513912Y-119207205D01*
X117339956Y-119300186D01*
X117244192Y-119564587D01*
X112655808Y-119564587D01*
X112560044Y-119300186D01*
X112270429Y-119159296D01*
X111958892Y-119077616D01*
X111637405Y-119058282D01*
X111318325Y-119102039D01*
X111013912Y-119207205D01*
X110839956Y-119300186D01*
X110744192Y-119564587D01*
X110360000Y-119564587D01*
X110360000Y-119011891D01*
X119288519Y-119011891D01*
X119385843Y-119286252D01*
X119534822Y-119536355D01*
X119729731Y-119752588D01*
X119963080Y-119926641D01*
X120225901Y-120051825D01*
X120373110Y-120096476D01*
X120603000Y-119975155D01*
X120603000Y-118782000D01*
X120857000Y-118782000D01*
X120857000Y-119975155D01*
X121086890Y-120096476D01*
X121234099Y-120051825D01*
X121496920Y-119926641D01*
X121730269Y-119752588D01*
X121925178Y-119536355D01*
X122000000Y-119410745D01*
X122074822Y-119536355D01*
X122269731Y-119752588D01*
X122503080Y-119926641D01*
X122765901Y-120051825D01*
X122913110Y-120096476D01*
X123143000Y-119975155D01*
X123143000Y-118782000D01*
X123397000Y-118782000D01*
X123397000Y-119975155D01*
X123626890Y-120096476D01*
X123774099Y-120051825D01*
X124036920Y-119926641D01*
X124270269Y-119752588D01*
X124465178Y-119536355D01*
X124540000Y-119410745D01*
X124614822Y-119536355D01*
X124809731Y-119752588D01*
X125043080Y-119926641D01*
X125305901Y-120051825D01*
X125453110Y-120096476D01*
X125683000Y-119975155D01*
X125683000Y-118782000D01*
X125937000Y-118782000D01*
X125937000Y-119975155D01*
X126166890Y-120096476D01*
X126314099Y-120051825D01*
X126576920Y-119926641D01*
X126810269Y-119752588D01*
X127005178Y-119536355D01*
X127080000Y-119410745D01*
X127154822Y-119536355D01*
X127349731Y-119752588D01*
X127583080Y-119926641D01*
X127845901Y-120051825D01*
X127993110Y-120096476D01*
X128223000Y-119975155D01*
X128223000Y-118782000D01*
X128477000Y-118782000D01*
X128477000Y-119975155D01*
X128706890Y-120096476D01*
X128854099Y-120051825D01*
X129116920Y-119926641D01*
X129350269Y-119752588D01*
X129545178Y-119536355D01*
X129620000Y-119410745D01*
X129694822Y-119536355D01*
X129889731Y-119752588D01*
X130123080Y-119926641D01*
X130385901Y-120051825D01*
X130533110Y-120096476D01*
X130763000Y-119975155D01*
X130763000Y-118782000D01*
X131017000Y-118782000D01*
X131017000Y-119975155D01*
X131246890Y-120096476D01*
X131394099Y-120051825D01*
X131656920Y-119926641D01*
X131890269Y-119752588D01*
X132085178Y-119536355D01*
X132160000Y-119410745D01*
X132234822Y-119536355D01*
X132429731Y-119752588D01*
X132663080Y-119926641D01*
X132925901Y-120051825D01*
X133073110Y-120096476D01*
X133303000Y-119975155D01*
X133303000Y-118782000D01*
X133557000Y-118782000D01*
X133557000Y-119975155D01*
X133786890Y-120096476D01*
X133934099Y-120051825D01*
X134196920Y-119926641D01*
X134430269Y-119752588D01*
X134625178Y-119536355D01*
X134700000Y-119410745D01*
X134774822Y-119536355D01*
X134969731Y-119752588D01*
X135203080Y-119926641D01*
X135465901Y-120051825D01*
X135613110Y-120096476D01*
X135843000Y-119975155D01*
X135843000Y-118782000D01*
X136097000Y-118782000D01*
X136097000Y-119975155D01*
X136326890Y-120096476D01*
X136474099Y-120051825D01*
X136736920Y-119926641D01*
X136970269Y-119752588D01*
X137165178Y-119536355D01*
X137240000Y-119410745D01*
X137314822Y-119536355D01*
X137509731Y-119752588D01*
X137743080Y-119926641D01*
X138005901Y-120051825D01*
X138153110Y-120096476D01*
X138383000Y-119975155D01*
X138383000Y-118782000D01*
X138637000Y-118782000D01*
X138637000Y-119975155D01*
X138866890Y-120096476D01*
X139014099Y-120051825D01*
X139276920Y-119926641D01*
X139510269Y-119752588D01*
X139705178Y-119536355D01*
X139780000Y-119410745D01*
X139854822Y-119536355D01*
X140049731Y-119752588D01*
X140283080Y-119926641D01*
X140545901Y-120051825D01*
X140693110Y-120096476D01*
X140923000Y-119975155D01*
X140923000Y-118782000D01*
X141177000Y-118782000D01*
X141177000Y-119975155D01*
X141406890Y-120096476D01*
X141554099Y-120051825D01*
X141816920Y-119926641D01*
X142050269Y-119752588D01*
X142245178Y-119536355D01*
X142320000Y-119410745D01*
X142394822Y-119536355D01*
X142589731Y-119752588D01*
X142823080Y-119926641D01*
X143085901Y-120051825D01*
X143233110Y-120096476D01*
X143463000Y-119975155D01*
X143463000Y-118782000D01*
X143717000Y-118782000D01*
X143717000Y-119975155D01*
X143946890Y-120096476D01*
X144094099Y-120051825D01*
X144356920Y-119926641D01*
X144590269Y-119752588D01*
X144785178Y-119536355D01*
X144860000Y-119410745D01*
X144934822Y-119536355D01*
X145129731Y-119752588D01*
X145363080Y-119926641D01*
X145625901Y-120051825D01*
X145773110Y-120096476D01*
X146003000Y-119975155D01*
X146003000Y-118782000D01*
X146257000Y-118782000D01*
X146257000Y-119975155D01*
X146486890Y-120096476D01*
X146634099Y-120051825D01*
X146896920Y-119926641D01*
X147130269Y-119752588D01*
X147325178Y-119536355D01*
X147400000Y-119410745D01*
X147474822Y-119536355D01*
X147669731Y-119752588D01*
X147903080Y-119926641D01*
X148165901Y-120051825D01*
X148313110Y-120096476D01*
X148543000Y-119975155D01*
X148543000Y-118782000D01*
X148797000Y-118782000D01*
X148797000Y-119975155D01*
X149026890Y-120096476D01*
X149174099Y-120051825D01*
X149436920Y-119926641D01*
X149670269Y-119752588D01*
X149839730Y-119564587D01*
X150244192Y-119564587D01*
X151200000Y-120520395D01*
X152155808Y-119564587D01*
X156744192Y-119564587D01*
X157700000Y-120520395D01*
X158655808Y-119564587D01*
X158560044Y-119300186D01*
X158270429Y-119159296D01*
X157958892Y-119077616D01*
X157637405Y-119058282D01*
X157318325Y-119102039D01*
X157013912Y-119207205D01*
X156839956Y-119300186D01*
X156744192Y-119564587D01*
X152155808Y-119564587D01*
X152060044Y-119300186D01*
X151770429Y-119159296D01*
X151458892Y-119077616D01*
X151137405Y-119058282D01*
X150818325Y-119102039D01*
X150513912Y-119207205D01*
X150339956Y-119300186D01*
X150244192Y-119564587D01*
X149839730Y-119564587D01*
X149865178Y-119536355D01*
X150014157Y-119286252D01*
X150111481Y-119011891D01*
X149990814Y-118782000D01*
X148797000Y-118782000D01*
X148543000Y-118782000D01*
X146257000Y-118782000D01*
X146003000Y-118782000D01*
X143717000Y-118782000D01*
X143463000Y-118782000D01*
X141177000Y-118782000D01*
X140923000Y-118782000D01*
X138637000Y-118782000D01*
X138383000Y-118782000D01*
X136097000Y-118782000D01*
X135843000Y-118782000D01*
X133557000Y-118782000D01*
X133303000Y-118782000D01*
X131017000Y-118782000D01*
X130763000Y-118782000D01*
X128477000Y-118782000D01*
X128223000Y-118782000D01*
X125937000Y-118782000D01*
X125683000Y-118782000D01*
X123397000Y-118782000D01*
X123143000Y-118782000D01*
X120857000Y-118782000D01*
X120603000Y-118782000D01*
X119409186Y-118782000D01*
X119288519Y-119011891D01*
X110360000Y-119011891D01*
X110360000Y-117137470D01*
X110430013Y-117242252D01*
X110657748Y-117469987D01*
X110925537Y-117648918D01*
X111223088Y-117772168D01*
X111538967Y-117835000D01*
X111861033Y-117835000D01*
X112176912Y-117772168D01*
X112474463Y-117648918D01*
X112742252Y-117469987D01*
X112969987Y-117242252D01*
X113148918Y-116974463D01*
X113272168Y-116676912D01*
X113335000Y-116361033D01*
X113335000Y-116038967D01*
X116565000Y-116038967D01*
X116565000Y-116361033D01*
X116627832Y-116676912D01*
X116751082Y-116974463D01*
X116930013Y-117242252D01*
X117157748Y-117469987D01*
X117425537Y-117648918D01*
X117723088Y-117772168D01*
X118038967Y-117835000D01*
X118361033Y-117835000D01*
X118676912Y-117772168D01*
X118974463Y-117648918D01*
X119242252Y-117469987D01*
X119469987Y-117242252D01*
X119585006Y-117070113D01*
X119783368Y-117268475D01*
X119959406Y-117386100D01*
X119729731Y-117557412D01*
X119534822Y-117773645D01*
X119385843Y-118023748D01*
X119288519Y-118298109D01*
X119409186Y-118528000D01*
X120603000Y-118528000D01*
X120603000Y-118508000D01*
X120857000Y-118508000D01*
X120857000Y-118528000D01*
X123143000Y-118528000D01*
X123143000Y-118508000D01*
X123397000Y-118508000D01*
X123397000Y-118528000D01*
X125683000Y-118528000D01*
X125683000Y-118508000D01*
X125937000Y-118508000D01*
X125937000Y-118528000D01*
X128223000Y-118528000D01*
X128223000Y-118508000D01*
X128477000Y-118508000D01*
X128477000Y-118528000D01*
X130763000Y-118528000D01*
X130763000Y-118508000D01*
X131017000Y-118508000D01*
X131017000Y-118528000D01*
X133303000Y-118528000D01*
X133303000Y-118508000D01*
X133557000Y-118508000D01*
X133557000Y-118528000D01*
X135843000Y-118528000D01*
X135843000Y-118508000D01*
X136097000Y-118508000D01*
X136097000Y-118528000D01*
X138383000Y-118528000D01*
X138383000Y-118508000D01*
X138637000Y-118508000D01*
X138637000Y-118528000D01*
X140923000Y-118528000D01*
X140923000Y-118508000D01*
X141177000Y-118508000D01*
X141177000Y-118528000D01*
X143463000Y-118528000D01*
X143463000Y-118508000D01*
X143717000Y-118508000D01*
X143717000Y-118528000D01*
X146003000Y-118528000D01*
X146003000Y-118508000D01*
X146257000Y-118508000D01*
X146257000Y-118528000D01*
X148543000Y-118528000D01*
X148543000Y-118508000D01*
X148797000Y-118508000D01*
X148797000Y-118528000D01*
X149990814Y-118528000D01*
X150111481Y-118298109D01*
X150014157Y-118023748D01*
X149865178Y-117773645D01*
X149688374Y-117577498D01*
X149764180Y-117554502D01*
X149874494Y-117495537D01*
X149971185Y-117416185D01*
X150031027Y-117343266D01*
X150157748Y-117469987D01*
X150425537Y-117648918D01*
X150723088Y-117772168D01*
X151038967Y-117835000D01*
X151361033Y-117835000D01*
X151676912Y-117772168D01*
X151974463Y-117648918D01*
X152242252Y-117469987D01*
X152469987Y-117242252D01*
X152648918Y-116974463D01*
X152772168Y-116676912D01*
X152835000Y-116361033D01*
X152835000Y-116038967D01*
X152772168Y-115723088D01*
X152648918Y-115425537D01*
X152469987Y-115157748D01*
X152305834Y-114993595D01*
X152490256Y-114917205D01*
X152659774Y-114803937D01*
X152803937Y-114659774D01*
X152917205Y-114490256D01*
X152995226Y-114301898D01*
X153035000Y-114101939D01*
X153035000Y-113898061D01*
X152995226Y-113698102D01*
X152917205Y-113509744D01*
X152803937Y-113340226D01*
X152659774Y-113196063D01*
X152490256Y-113082795D01*
X152301898Y-113004774D01*
X152101939Y-112965000D01*
X151898061Y-112965000D01*
X151698102Y-113004774D01*
X151509744Y-113082795D01*
X151461546Y-113115000D01*
X149443469Y-113115000D01*
X149400000Y-113110719D01*
X149356531Y-113115000D01*
X149356523Y-113115000D01*
X149226510Y-113127805D01*
X149059687Y-113178411D01*
X148905941Y-113260589D01*
X148804953Y-113343468D01*
X148804951Y-113343470D01*
X148771183Y-113371183D01*
X148743470Y-113404951D01*
X148074956Y-114073466D01*
X148041183Y-114101183D01*
X147930589Y-114235942D01*
X147848411Y-114389688D01*
X147797805Y-114556511D01*
X147790584Y-114629825D01*
X147695518Y-114639188D01*
X147575820Y-114675498D01*
X147465506Y-114734463D01*
X147368815Y-114813815D01*
X147289463Y-114910506D01*
X147230498Y-115020820D01*
X147208487Y-115093380D01*
X147076632Y-114961525D01*
X146833411Y-114799010D01*
X146563158Y-114687068D01*
X146276260Y-114630000D01*
X145983740Y-114630000D01*
X145696842Y-114687068D01*
X145426589Y-114799010D01*
X145183368Y-114961525D01*
X144976525Y-115168368D01*
X144860000Y-115342760D01*
X144743475Y-115168368D01*
X144536632Y-114961525D01*
X144293411Y-114799010D01*
X144023158Y-114687068D01*
X143736260Y-114630000D01*
X143443740Y-114630000D01*
X143156842Y-114687068D01*
X142886589Y-114799010D01*
X142643368Y-114961525D01*
X142436525Y-115168368D01*
X142320000Y-115342760D01*
X142203475Y-115168368D01*
X141996632Y-114961525D01*
X141753411Y-114799010D01*
X141483158Y-114687068D01*
X141196260Y-114630000D01*
X140903740Y-114630000D01*
X140616842Y-114687068D01*
X140346589Y-114799010D01*
X140103368Y-114961525D01*
X139896525Y-115168368D01*
X139780000Y-115342760D01*
X139663475Y-115168368D01*
X139456632Y-114961525D01*
X139213411Y-114799010D01*
X138943158Y-114687068D01*
X138656260Y-114630000D01*
X138363740Y-114630000D01*
X138076842Y-114687068D01*
X137806589Y-114799010D01*
X137563368Y-114961525D01*
X137356525Y-115168368D01*
X137240000Y-115342760D01*
X137123475Y-115168368D01*
X136916632Y-114961525D01*
X136673411Y-114799010D01*
X136403158Y-114687068D01*
X136116260Y-114630000D01*
X135823740Y-114630000D01*
X135536842Y-114687068D01*
X135266589Y-114799010D01*
X135023368Y-114961525D01*
X134816525Y-115168368D01*
X134700000Y-115342760D01*
X134583475Y-115168368D01*
X134376632Y-114961525D01*
X134133411Y-114799010D01*
X133863158Y-114687068D01*
X133576260Y-114630000D01*
X133283740Y-114630000D01*
X132996842Y-114687068D01*
X132726589Y-114799010D01*
X132483368Y-114961525D01*
X132276525Y-115168368D01*
X132160000Y-115342760D01*
X132043475Y-115168368D01*
X131836632Y-114961525D01*
X131593411Y-114799010D01*
X131323158Y-114687068D01*
X131036260Y-114630000D01*
X130743740Y-114630000D01*
X130456842Y-114687068D01*
X130186589Y-114799010D01*
X129943368Y-114961525D01*
X129736525Y-115168368D01*
X129620000Y-115342760D01*
X129503475Y-115168368D01*
X129296632Y-114961525D01*
X129053411Y-114799010D01*
X128783158Y-114687068D01*
X128496260Y-114630000D01*
X128203740Y-114630000D01*
X127916842Y-114687068D01*
X127646589Y-114799010D01*
X127403368Y-114961525D01*
X127196525Y-115168368D01*
X127080000Y-115342760D01*
X126963475Y-115168368D01*
X126756632Y-114961525D01*
X126513411Y-114799010D01*
X126243158Y-114687068D01*
X125956260Y-114630000D01*
X125663740Y-114630000D01*
X125376842Y-114687068D01*
X125106589Y-114799010D01*
X124863368Y-114961525D01*
X124656525Y-115168368D01*
X124540000Y-115342760D01*
X124423475Y-115168368D01*
X124216632Y-114961525D01*
X123973411Y-114799010D01*
X123703158Y-114687068D01*
X123416260Y-114630000D01*
X123123740Y-114630000D01*
X122836842Y-114687068D01*
X122566589Y-114799010D01*
X122323368Y-114961525D01*
X122116525Y-115168368D01*
X122000000Y-115342760D01*
X121883475Y-115168368D01*
X121676632Y-114961525D01*
X121433411Y-114799010D01*
X121163158Y-114687068D01*
X120876260Y-114630000D01*
X120583740Y-114630000D01*
X120296842Y-114687068D01*
X120026589Y-114799010D01*
X119783368Y-114961525D01*
X119576525Y-115168368D01*
X119526804Y-115242781D01*
X119469987Y-115157748D01*
X119242252Y-114930013D01*
X118974463Y-114751082D01*
X118676912Y-114627832D01*
X118361033Y-114565000D01*
X118038967Y-114565000D01*
X117723088Y-114627832D01*
X117425537Y-114751082D01*
X117157748Y-114930013D01*
X116930013Y-115157748D01*
X116751082Y-115425537D01*
X116627832Y-115723088D01*
X116565000Y-116038967D01*
X113335000Y-116038967D01*
X113272168Y-115723088D01*
X113148918Y-115425537D01*
X112969987Y-115157748D01*
X112742252Y-114930013D01*
X112474463Y-114751082D01*
X112176912Y-114627832D01*
X111861033Y-114565000D01*
X111538967Y-114565000D01*
X111223088Y-114627832D01*
X110925537Y-114751082D01*
X110657748Y-114930013D01*
X110430013Y-115157748D01*
X110360000Y-115262530D01*
X110360000Y-112026890D01*
X112303524Y-112026890D01*
X112348175Y-112174099D01*
X112473359Y-112436920D01*
X112647412Y-112670269D01*
X112863645Y-112865178D01*
X113113748Y-113014157D01*
X113388109Y-113111481D01*
X113618000Y-112990814D01*
X113618000Y-111797000D01*
X112424845Y-111797000D01*
X112303524Y-112026890D01*
X110360000Y-112026890D01*
X110360000Y-109486890D01*
X112303524Y-109486890D01*
X112348175Y-109634099D01*
X112473359Y-109896920D01*
X112647412Y-110130269D01*
X112863645Y-110325178D01*
X112989255Y-110400000D01*
X112863645Y-110474822D01*
X112647412Y-110669731D01*
X112473359Y-110903080D01*
X112348175Y-111165901D01*
X112303524Y-111313110D01*
X112424845Y-111543000D01*
X113618000Y-111543000D01*
X113618000Y-109257000D01*
X112424845Y-109257000D01*
X112303524Y-109486890D01*
X110360000Y-109486890D01*
X110360000Y-106946890D01*
X112303524Y-106946890D01*
X112348175Y-107094099D01*
X112473359Y-107356920D01*
X112647412Y-107590269D01*
X112863645Y-107785178D01*
X112989255Y-107860000D01*
X112863645Y-107934822D01*
X112647412Y-108129731D01*
X112473359Y-108363080D01*
X112348175Y-108625901D01*
X112303524Y-108773110D01*
X112424845Y-109003000D01*
X113618000Y-109003000D01*
X113618000Y-106717000D01*
X112424845Y-106717000D01*
X112303524Y-106946890D01*
X110360000Y-106946890D01*
X110360000Y-104406890D01*
X112303524Y-104406890D01*
X112348175Y-104554099D01*
X112473359Y-104816920D01*
X112647412Y-105050269D01*
X112863645Y-105245178D01*
X112989255Y-105320000D01*
X112863645Y-105394822D01*
X112647412Y-105589731D01*
X112473359Y-105823080D01*
X112348175Y-106085901D01*
X112303524Y-106233110D01*
X112424845Y-106463000D01*
X113618000Y-106463000D01*
X113618000Y-104177000D01*
X112424845Y-104177000D01*
X112303524Y-104406890D01*
X110360000Y-104406890D01*
X110360000Y-101866890D01*
X112303524Y-101866890D01*
X112348175Y-102014099D01*
X112473359Y-102276920D01*
X112647412Y-102510269D01*
X112863645Y-102705178D01*
X112989255Y-102780000D01*
X112863645Y-102854822D01*
X112647412Y-103049731D01*
X112473359Y-103283080D01*
X112348175Y-103545901D01*
X112303524Y-103693110D01*
X112424845Y-103923000D01*
X113618000Y-103923000D01*
X113618000Y-101637000D01*
X112424845Y-101637000D01*
X112303524Y-101866890D01*
X110360000Y-101866890D01*
X110360000Y-99326890D01*
X112303524Y-99326890D01*
X112348175Y-99474099D01*
X112473359Y-99736920D01*
X112647412Y-99970269D01*
X112863645Y-100165178D01*
X112989255Y-100240000D01*
X112863645Y-100314822D01*
X112647412Y-100509731D01*
X112473359Y-100743080D01*
X112348175Y-101005901D01*
X112303524Y-101153110D01*
X112424845Y-101383000D01*
X113618000Y-101383000D01*
X113618000Y-99097000D01*
X112424845Y-99097000D01*
X112303524Y-99326890D01*
X110360000Y-99326890D01*
X110360000Y-96786890D01*
X112303524Y-96786890D01*
X112348175Y-96934099D01*
X112473359Y-97196920D01*
X112647412Y-97430269D01*
X112863645Y-97625178D01*
X112989255Y-97700000D01*
X112863645Y-97774822D01*
X112647412Y-97969731D01*
X112473359Y-98203080D01*
X112348175Y-98465901D01*
X112303524Y-98613110D01*
X112424845Y-98843000D01*
X113618000Y-98843000D01*
X113618000Y-96557000D01*
X112424845Y-96557000D01*
X112303524Y-96786890D01*
X110360000Y-96786890D01*
X110360000Y-94246890D01*
X112303524Y-94246890D01*
X112348175Y-94394099D01*
X112473359Y-94656920D01*
X112647412Y-94890269D01*
X112863645Y-95085178D01*
X112989255Y-95160000D01*
X112863645Y-95234822D01*
X112647412Y-95429731D01*
X112473359Y-95663080D01*
X112348175Y-95925901D01*
X112303524Y-96073110D01*
X112424845Y-96303000D01*
X113618000Y-96303000D01*
X113618000Y-94017000D01*
X112424845Y-94017000D01*
X112303524Y-94246890D01*
X110360000Y-94246890D01*
X110360000Y-91706890D01*
X112303524Y-91706890D01*
X112348175Y-91854099D01*
X112473359Y-92116920D01*
X112647412Y-92350269D01*
X112863645Y-92545178D01*
X112989255Y-92620000D01*
X112863645Y-92694822D01*
X112647412Y-92889731D01*
X112473359Y-93123080D01*
X112348175Y-93385901D01*
X112303524Y-93533110D01*
X112424845Y-93763000D01*
X113618000Y-93763000D01*
X113618000Y-91477000D01*
X112424845Y-91477000D01*
X112303524Y-91706890D01*
X110360000Y-91706890D01*
X110360000Y-89166890D01*
X112303524Y-89166890D01*
X112348175Y-89314099D01*
X112473359Y-89576920D01*
X112647412Y-89810269D01*
X112863645Y-90005178D01*
X112989255Y-90080000D01*
X112863645Y-90154822D01*
X112647412Y-90349731D01*
X112473359Y-90583080D01*
X112348175Y-90845901D01*
X112303524Y-90993110D01*
X112424845Y-91223000D01*
X113618000Y-91223000D01*
X113618000Y-88937000D01*
X112424845Y-88937000D01*
X112303524Y-89166890D01*
X110360000Y-89166890D01*
X110360000Y-86626890D01*
X112303524Y-86626890D01*
X112348175Y-86774099D01*
X112473359Y-87036920D01*
X112647412Y-87270269D01*
X112863645Y-87465178D01*
X112989255Y-87540000D01*
X112863645Y-87614822D01*
X112647412Y-87809731D01*
X112473359Y-88043080D01*
X112348175Y-88305901D01*
X112303524Y-88453110D01*
X112424845Y-88683000D01*
X113618000Y-88683000D01*
X113618000Y-86397000D01*
X112424845Y-86397000D01*
X112303524Y-86626890D01*
X110360000Y-86626890D01*
X110360000Y-84086890D01*
X112303524Y-84086890D01*
X112348175Y-84234099D01*
X112473359Y-84496920D01*
X112647412Y-84730269D01*
X112863645Y-84925178D01*
X112989255Y-85000000D01*
X112863645Y-85074822D01*
X112647412Y-85269731D01*
X112473359Y-85503080D01*
X112348175Y-85765901D01*
X112303524Y-85913110D01*
X112424845Y-86143000D01*
X113618000Y-86143000D01*
X113618000Y-83857000D01*
X112424845Y-83857000D01*
X112303524Y-84086890D01*
X110360000Y-84086890D01*
X110360000Y-83373110D01*
X112303524Y-83373110D01*
X112424845Y-83603000D01*
X113618000Y-83603000D01*
X113618000Y-82409186D01*
X113872000Y-82409186D01*
X113872000Y-83603000D01*
X113892000Y-83603000D01*
X113892000Y-83857000D01*
X113872000Y-83857000D01*
X113872000Y-86143000D01*
X113892000Y-86143000D01*
X113892000Y-86397000D01*
X113872000Y-86397000D01*
X113872000Y-88683000D01*
X113892000Y-88683000D01*
X113892000Y-88937000D01*
X113872000Y-88937000D01*
X113872000Y-91223000D01*
X113892000Y-91223000D01*
X113892000Y-91477000D01*
X113872000Y-91477000D01*
X113872000Y-93763000D01*
X113892000Y-93763000D01*
X113892000Y-94017000D01*
X113872000Y-94017000D01*
X113872000Y-96303000D01*
X113892000Y-96303000D01*
X113892000Y-96557000D01*
X113872000Y-96557000D01*
X113872000Y-98843000D01*
X113892000Y-98843000D01*
X113892000Y-99097000D01*
X113872000Y-99097000D01*
X113872000Y-101383000D01*
X113892000Y-101383000D01*
X113892000Y-101637000D01*
X113872000Y-101637000D01*
X113872000Y-103923000D01*
X113892000Y-103923000D01*
X113892000Y-104177000D01*
X113872000Y-104177000D01*
X113872000Y-106463000D01*
X113892000Y-106463000D01*
X113892000Y-106717000D01*
X113872000Y-106717000D01*
X113872000Y-109003000D01*
X113892000Y-109003000D01*
X113892000Y-109257000D01*
X113872000Y-109257000D01*
X113872000Y-111543000D01*
X113892000Y-111543000D01*
X113892000Y-111797000D01*
X113872000Y-111797000D01*
X113872000Y-112990814D01*
X114101891Y-113111481D01*
X114376252Y-113014157D01*
X114626355Y-112865178D01*
X114822502Y-112688374D01*
X114845498Y-112764180D01*
X114904463Y-112874494D01*
X114983815Y-112971185D01*
X115080506Y-113050537D01*
X115190820Y-113109502D01*
X115310518Y-113145812D01*
X115435000Y-113158072D01*
X117135000Y-113158072D01*
X117259482Y-113145812D01*
X117379180Y-113109502D01*
X117489494Y-113050537D01*
X117586185Y-112971185D01*
X117665537Y-112874494D01*
X117724502Y-112764180D01*
X117760812Y-112644482D01*
X117773072Y-112520000D01*
X117773072Y-110820000D01*
X117760812Y-110695518D01*
X117724502Y-110575820D01*
X117665537Y-110465506D01*
X117586185Y-110368815D01*
X117489494Y-110289463D01*
X117379180Y-110230498D01*
X117306620Y-110208487D01*
X117438475Y-110076632D01*
X117579883Y-109865000D01*
X119331613Y-109865000D01*
X119409744Y-109917205D01*
X119598102Y-109995226D01*
X119798061Y-110035000D01*
X120001939Y-110035000D01*
X120201898Y-109995226D01*
X120390256Y-109917205D01*
X120559774Y-109803937D01*
X120703937Y-109659774D01*
X120817205Y-109490256D01*
X120895226Y-109301898D01*
X120935000Y-109101939D01*
X120935000Y-108898061D01*
X120895226Y-108698102D01*
X120817205Y-108509744D01*
X120703937Y-108340226D01*
X120559774Y-108196063D01*
X120390256Y-108082795D01*
X120201898Y-108004774D01*
X120001939Y-107965000D01*
X119798061Y-107965000D01*
X119598102Y-108004774D01*
X119409744Y-108082795D01*
X119240226Y-108196063D01*
X119096063Y-108340226D01*
X119059464Y-108395000D01*
X117579883Y-108395000D01*
X117438475Y-108183368D01*
X117231632Y-107976525D01*
X117057240Y-107860000D01*
X117231632Y-107743475D01*
X117438475Y-107536632D01*
X117600990Y-107293411D01*
X117712932Y-107023158D01*
X117770000Y-106736260D01*
X117770000Y-106443740D01*
X117712932Y-106156842D01*
X117600990Y-105886589D01*
X117438475Y-105643368D01*
X117231632Y-105436525D01*
X117057240Y-105320000D01*
X117231632Y-105203475D01*
X117438475Y-104996632D01*
X117600990Y-104753411D01*
X117712932Y-104483158D01*
X117770000Y-104196260D01*
X117770000Y-103903740D01*
X117712932Y-103616842D01*
X117600990Y-103346589D01*
X117438475Y-103103368D01*
X117231632Y-102896525D01*
X117057240Y-102780000D01*
X117231632Y-102663475D01*
X117438475Y-102456632D01*
X117600990Y-102213411D01*
X117712932Y-101943158D01*
X117770000Y-101656260D01*
X117770000Y-101363740D01*
X117712932Y-101076842D01*
X117600990Y-100806589D01*
X117438475Y-100563368D01*
X117231632Y-100356525D01*
X117057240Y-100240000D01*
X117231632Y-100123475D01*
X117438475Y-99916632D01*
X117600990Y-99673411D01*
X117712932Y-99403158D01*
X117770000Y-99116260D01*
X117770000Y-98823740D01*
X117752354Y-98735030D01*
X122995584Y-98735030D01*
X123682093Y-99421540D01*
X123603972Y-99473738D01*
X123473738Y-99603972D01*
X123371414Y-99757111D01*
X123357345Y-99791076D01*
X122804958Y-100343464D01*
X122804953Y-100343468D01*
X121804951Y-101343471D01*
X121771184Y-101371183D01*
X121743471Y-101404951D01*
X121743468Y-101404954D01*
X121660590Y-101505941D01*
X121578412Y-101659687D01*
X121527805Y-101826510D01*
X121510719Y-102000000D01*
X121515001Y-102043479D01*
X121515000Y-105556531D01*
X121510719Y-105600000D01*
X121515000Y-105643469D01*
X121515000Y-105643476D01*
X121526212Y-105757314D01*
X121527805Y-105773490D01*
X121543157Y-105824096D01*
X121578411Y-105940312D01*
X121660589Y-106094058D01*
X121771183Y-106228817D01*
X121804956Y-106256534D01*
X125343470Y-109795049D01*
X125371183Y-109828817D01*
X125404951Y-109856530D01*
X125404953Y-109856532D01*
X125454166Y-109896920D01*
X125505941Y-109939411D01*
X125659687Y-110021589D01*
X125826510Y-110072195D01*
X125956523Y-110085000D01*
X125956531Y-110085000D01*
X126000000Y-110089281D01*
X126043469Y-110085000D01*
X130093308Y-110085000D01*
X130127271Y-110099068D01*
X130307911Y-110135000D01*
X130492089Y-110135000D01*
X130672729Y-110099068D01*
X130706692Y-110085000D01*
X131865000Y-110085000D01*
X131865000Y-110092089D01*
X131900932Y-110272729D01*
X131971414Y-110442889D01*
X132073738Y-110596028D01*
X132203972Y-110726262D01*
X132357111Y-110828586D01*
X132527271Y-110899068D01*
X132707911Y-110935000D01*
X132892089Y-110935000D01*
X133072729Y-110899068D01*
X133106692Y-110885000D01*
X142856531Y-110885000D01*
X142900000Y-110889281D01*
X142943469Y-110885000D01*
X142943477Y-110885000D01*
X143073490Y-110872195D01*
X143240313Y-110821589D01*
X143394059Y-110739411D01*
X143528817Y-110628817D01*
X143556534Y-110595044D01*
X145665000Y-108486578D01*
X145665000Y-108492089D01*
X145700932Y-108672729D01*
X145771414Y-108842889D01*
X145873738Y-108996028D01*
X146003972Y-109126262D01*
X146157111Y-109228586D01*
X146327271Y-109299068D01*
X146507911Y-109335000D01*
X146692089Y-109335000D01*
X146872729Y-109299068D01*
X147042889Y-109228586D01*
X147196028Y-109126262D01*
X147326262Y-108996028D01*
X147428586Y-108842889D01*
X147499068Y-108672729D01*
X147535000Y-108492089D01*
X147535000Y-108307911D01*
X147499068Y-108127271D01*
X147428586Y-107957111D01*
X147335000Y-107817049D01*
X147335000Y-107704446D01*
X148994193Y-106045254D01*
X149022238Y-106022238D01*
X149114087Y-105910320D01*
X149182337Y-105782633D01*
X149224365Y-105644085D01*
X149235000Y-105536105D01*
X149238556Y-105500000D01*
X149235000Y-105463895D01*
X149235000Y-95382951D01*
X149328586Y-95242889D01*
X149399068Y-95072729D01*
X149435000Y-94892089D01*
X149435000Y-94707911D01*
X149399068Y-94527271D01*
X149328586Y-94357111D01*
X149226262Y-94203972D01*
X149096028Y-94073738D01*
X148942889Y-93971414D01*
X148772729Y-93900932D01*
X148592089Y-93865000D01*
X148585000Y-93865000D01*
X148585000Y-89443469D01*
X148589281Y-89400000D01*
X148585000Y-89356531D01*
X148585000Y-89356523D01*
X148572195Y-89226510D01*
X148521589Y-89059687D01*
X148439411Y-88905941D01*
X148328817Y-88771183D01*
X148295045Y-88743467D01*
X147856534Y-88304956D01*
X147828817Y-88271183D01*
X147694059Y-88160589D01*
X147540313Y-88078411D01*
X147373490Y-88027805D01*
X147243477Y-88015000D01*
X147243469Y-88015000D01*
X147200000Y-88010719D01*
X147156531Y-88015000D01*
X144185000Y-88015000D01*
X144185000Y-87206692D01*
X144199068Y-87172729D01*
X144235000Y-86992089D01*
X144235000Y-86807911D01*
X144199068Y-86627271D01*
X144185000Y-86593308D01*
X144185000Y-86106692D01*
X144199068Y-86072729D01*
X144235000Y-85892089D01*
X144235000Y-85707911D01*
X144199068Y-85527271D01*
X144185000Y-85493308D01*
X144185000Y-85006692D01*
X144199068Y-84972729D01*
X144235000Y-84792089D01*
X144235000Y-84607911D01*
X144199068Y-84427271D01*
X144128586Y-84257111D01*
X144026262Y-84103972D01*
X143896028Y-83973738D01*
X143742889Y-83871414D01*
X143572729Y-83800932D01*
X143392089Y-83765000D01*
X143207911Y-83765000D01*
X143027271Y-83800932D01*
X142857111Y-83871414D01*
X142703972Y-83973738D01*
X142573738Y-84103972D01*
X142471414Y-84257111D01*
X142400932Y-84427271D01*
X142365000Y-84607911D01*
X142365000Y-84792089D01*
X142400932Y-84972729D01*
X142415000Y-85006693D01*
X142415001Y-85493306D01*
X142400932Y-85527271D01*
X142365000Y-85707911D01*
X142365000Y-85892089D01*
X142400932Y-86072729D01*
X142415000Y-86106693D01*
X142415001Y-86593306D01*
X142400932Y-86627271D01*
X142365000Y-86807911D01*
X142365000Y-86992089D01*
X142400932Y-87172729D01*
X142415000Y-87206693D01*
X142415001Y-88015000D01*
X134706692Y-88015000D01*
X134672729Y-88000932D01*
X134492089Y-87965000D01*
X134307911Y-87965000D01*
X134127271Y-88000932D01*
X134093308Y-88015000D01*
X133766579Y-88015000D01*
X133156534Y-87404956D01*
X133128817Y-87371183D01*
X132994059Y-87260589D01*
X132840313Y-87178411D01*
X132673490Y-87127805D01*
X132543477Y-87115000D01*
X132543469Y-87115000D01*
X132500000Y-87110719D01*
X132456531Y-87115000D01*
X131535000Y-87115000D01*
X131535000Y-87107911D01*
X131499068Y-86927271D01*
X131428586Y-86757111D01*
X131326262Y-86603972D01*
X131196028Y-86473738D01*
X131042889Y-86371414D01*
X130872729Y-86300932D01*
X130692089Y-86265000D01*
X130507911Y-86265000D01*
X130327271Y-86300932D01*
X130157111Y-86371414D01*
X130003972Y-86473738D01*
X129873738Y-86603972D01*
X129771414Y-86757111D01*
X129700932Y-86927271D01*
X129665000Y-87107911D01*
X129665000Y-87115000D01*
X127006692Y-87115000D01*
X126972729Y-87100932D01*
X126792089Y-87065000D01*
X126607911Y-87065000D01*
X126435000Y-87099395D01*
X126435000Y-87007911D01*
X126399068Y-86827271D01*
X126328586Y-86657111D01*
X126226262Y-86503972D01*
X126096028Y-86373738D01*
X125942889Y-86271414D01*
X125772729Y-86200932D01*
X125592089Y-86165000D01*
X125407911Y-86165000D01*
X125227271Y-86200932D01*
X125057111Y-86271414D01*
X124903972Y-86373738D01*
X124773738Y-86503972D01*
X124671414Y-86657111D01*
X124600932Y-86827271D01*
X124565000Y-87007911D01*
X124565000Y-87192089D01*
X124600932Y-87372729D01*
X124671414Y-87542889D01*
X124765000Y-87682951D01*
X124765001Y-90063885D01*
X124761444Y-90100000D01*
X124775635Y-90244085D01*
X124799343Y-90322238D01*
X124817664Y-90382633D01*
X124885914Y-90510320D01*
X124977763Y-90622238D01*
X125005808Y-90645254D01*
X125068068Y-90707515D01*
X125100932Y-90872729D01*
X125171414Y-91042889D01*
X125273738Y-91196028D01*
X125403972Y-91326262D01*
X125557111Y-91428586D01*
X125727271Y-91499068D01*
X125907911Y-91535000D01*
X126092089Y-91535000D01*
X126272729Y-91499068D01*
X126442889Y-91428586D01*
X126596028Y-91326262D01*
X126726262Y-91196028D01*
X126828586Y-91042889D01*
X126899068Y-90872729D01*
X126932000Y-90707170D01*
X126972729Y-90699068D01*
X127142889Y-90628586D01*
X127282951Y-90535000D01*
X131117049Y-90535000D01*
X131257111Y-90628586D01*
X131427271Y-90699068D01*
X131607911Y-90735000D01*
X131792089Y-90735000D01*
X131972729Y-90699068D01*
X132142889Y-90628586D01*
X132296028Y-90526262D01*
X132426262Y-90396028D01*
X132528586Y-90242889D01*
X132599068Y-90072729D01*
X132635000Y-89892089D01*
X132635000Y-89707911D01*
X132599068Y-89527271D01*
X132588788Y-89502452D01*
X132628586Y-89442889D01*
X132646957Y-89398536D01*
X132743470Y-89495049D01*
X132771183Y-89528817D01*
X132804951Y-89556530D01*
X132804953Y-89556532D01*
X132825919Y-89573738D01*
X132905941Y-89639411D01*
X133059687Y-89721589D01*
X133226510Y-89772195D01*
X133356523Y-89785000D01*
X133356533Y-89785000D01*
X133399999Y-89789281D01*
X133443465Y-89785000D01*
X134093308Y-89785000D01*
X134127271Y-89799068D01*
X134307911Y-89835000D01*
X134492089Y-89835000D01*
X134672729Y-89799068D01*
X134706692Y-89785000D01*
X139336778Y-89785000D01*
X139203972Y-89873738D01*
X139073738Y-90003972D01*
X138971414Y-90157111D01*
X138900932Y-90327271D01*
X138865000Y-90507911D01*
X138865000Y-90692089D01*
X138900932Y-90872729D01*
X138971414Y-91042889D01*
X139073738Y-91196028D01*
X139203972Y-91326262D01*
X139357111Y-91428586D01*
X139527271Y-91499068D01*
X139707911Y-91535000D01*
X139892089Y-91535000D01*
X140072729Y-91499068D01*
X140242889Y-91428586D01*
X140382951Y-91335000D01*
X140917049Y-91335000D01*
X141057111Y-91428586D01*
X141227271Y-91499068D01*
X141407911Y-91535000D01*
X141592089Y-91535000D01*
X141772729Y-91499068D01*
X141942889Y-91428586D01*
X142096028Y-91326262D01*
X142226262Y-91196028D01*
X142328586Y-91042889D01*
X142399068Y-90872729D01*
X142435000Y-90692089D01*
X142435000Y-90507911D01*
X142399068Y-90327271D01*
X142328586Y-90157111D01*
X142226262Y-90003972D01*
X142096028Y-89873738D01*
X141963222Y-89785000D01*
X143256524Y-89785000D01*
X143300000Y-89789282D01*
X143343477Y-89785000D01*
X145019597Y-89785000D01*
X144971414Y-89857111D01*
X144900932Y-90027271D01*
X144865000Y-90207911D01*
X144865000Y-90392089D01*
X144900932Y-90572729D01*
X144915000Y-90606693D01*
X144915001Y-94856521D01*
X144910719Y-94900000D01*
X144927805Y-95073490D01*
X144978412Y-95240313D01*
X145060590Y-95394059D01*
X145143468Y-95495046D01*
X145143471Y-95495049D01*
X145171184Y-95528817D01*
X145204951Y-95556529D01*
X146015000Y-96366579D01*
X146015001Y-102093305D01*
X146000932Y-102127271D01*
X145965000Y-102307911D01*
X145965000Y-102492089D01*
X146000932Y-102672729D01*
X146015000Y-102706693D01*
X146015001Y-104533420D01*
X143976247Y-106572175D01*
X143928586Y-106457111D01*
X143826262Y-106303972D01*
X143696028Y-106173738D01*
X143542889Y-106071414D01*
X143372729Y-106000932D01*
X143192089Y-105965000D01*
X143007911Y-105965000D01*
X142827271Y-106000932D01*
X142657111Y-106071414D01*
X142503972Y-106173738D01*
X142373738Y-106303972D01*
X142271414Y-106457111D01*
X142257345Y-106491076D01*
X141233422Y-107515000D01*
X140306692Y-107515000D01*
X140272729Y-107500932D01*
X140092089Y-107465000D01*
X139907911Y-107465000D01*
X139727271Y-107500932D01*
X139693308Y-107515000D01*
X127006692Y-107515000D01*
X126972729Y-107500932D01*
X126792089Y-107465000D01*
X126616579Y-107465000D01*
X123985000Y-104833422D01*
X123985000Y-103466578D01*
X124608924Y-102842655D01*
X124642889Y-102828586D01*
X124796028Y-102726262D01*
X124926262Y-102596028D01*
X125028586Y-102442889D01*
X125099068Y-102272729D01*
X125111961Y-102207911D01*
X139465000Y-102207911D01*
X139465000Y-102392089D01*
X139500932Y-102572729D01*
X139571414Y-102742889D01*
X139673738Y-102896028D01*
X139803972Y-103026262D01*
X139957111Y-103128586D01*
X140127271Y-103199068D01*
X140307911Y-103235000D01*
X140492089Y-103235000D01*
X140672729Y-103199068D01*
X140842889Y-103128586D01*
X140982951Y-103035000D01*
X142617049Y-103035000D01*
X142757111Y-103128586D01*
X142927271Y-103199068D01*
X143107911Y-103235000D01*
X143292089Y-103235000D01*
X143472729Y-103199068D01*
X143642889Y-103128586D01*
X143796028Y-103026262D01*
X143926262Y-102896028D01*
X144028586Y-102742889D01*
X144099068Y-102572729D01*
X144135000Y-102392089D01*
X144135000Y-102207911D01*
X144099068Y-102027271D01*
X144028586Y-101857111D01*
X143926262Y-101703972D01*
X143796028Y-101573738D01*
X143642889Y-101471414D01*
X143472729Y-101400932D01*
X143292089Y-101365000D01*
X143107911Y-101365000D01*
X142927271Y-101400932D01*
X142757111Y-101471414D01*
X142617049Y-101565000D01*
X140982951Y-101565000D01*
X140842889Y-101471414D01*
X140672729Y-101400932D01*
X140492089Y-101365000D01*
X140307911Y-101365000D01*
X140127271Y-101400932D01*
X139957111Y-101471414D01*
X139803972Y-101573738D01*
X139673738Y-101703972D01*
X139571414Y-101857111D01*
X139500932Y-102027271D01*
X139465000Y-102207911D01*
X125111961Y-102207911D01*
X125135000Y-102092089D01*
X125135000Y-101907911D01*
X125099068Y-101727271D01*
X125028586Y-101557111D01*
X124926262Y-101403972D01*
X124796028Y-101273738D01*
X124642889Y-101171414D01*
X124527825Y-101123753D01*
X124608924Y-101042655D01*
X124642889Y-101028586D01*
X124796028Y-100926262D01*
X124926262Y-100796028D01*
X125028586Y-100642889D01*
X125099068Y-100472729D01*
X125135000Y-100292089D01*
X125135000Y-100107911D01*
X125099068Y-99927271D01*
X125028586Y-99757111D01*
X124980403Y-99685000D01*
X126667049Y-99685000D01*
X126807111Y-99778586D01*
X126977271Y-99849068D01*
X127157911Y-99885000D01*
X127342089Y-99885000D01*
X127522729Y-99849068D01*
X127692889Y-99778586D01*
X127846028Y-99676262D01*
X127976262Y-99546028D01*
X128078586Y-99392889D01*
X128149068Y-99222729D01*
X128185000Y-99042089D01*
X128185000Y-98857911D01*
X128149068Y-98677271D01*
X128078586Y-98507111D01*
X127976262Y-98353972D01*
X127846028Y-98223738D01*
X127692889Y-98121414D01*
X127522729Y-98050932D01*
X127342089Y-98015000D01*
X127157911Y-98015000D01*
X126977271Y-98050932D01*
X126807111Y-98121414D01*
X126667049Y-98215000D01*
X126507290Y-98215000D01*
X126626262Y-98096028D01*
X126728586Y-97942889D01*
X126799068Y-97772729D01*
X126835000Y-97592089D01*
X126835000Y-97407911D01*
X126799068Y-97227271D01*
X126728586Y-97057111D01*
X126626262Y-96903972D01*
X126496028Y-96773738D01*
X126342889Y-96671414D01*
X126172729Y-96600932D01*
X126007515Y-96568068D01*
X125745258Y-96305812D01*
X125722238Y-96277762D01*
X125610320Y-96185913D01*
X125482633Y-96117663D01*
X125344085Y-96075635D01*
X125236105Y-96065000D01*
X125200000Y-96061444D01*
X125163895Y-96065000D01*
X121004447Y-96065000D01*
X119935000Y-94995554D01*
X119935000Y-93136105D01*
X119938556Y-93100000D01*
X119924365Y-92955915D01*
X119882337Y-92817366D01*
X119814087Y-92689680D01*
X119745253Y-92605806D01*
X119722238Y-92577762D01*
X119694193Y-92554746D01*
X117995258Y-90855812D01*
X117972238Y-90827762D01*
X117860320Y-90735913D01*
X117732633Y-90667663D01*
X117594085Y-90625635D01*
X117586489Y-90624887D01*
X117438475Y-90403368D01*
X117231632Y-90196525D01*
X117057240Y-90080000D01*
X117231632Y-89963475D01*
X117438475Y-89756632D01*
X117600990Y-89513411D01*
X117712932Y-89243158D01*
X117770000Y-88956260D01*
X117770000Y-88663740D01*
X117712932Y-88376842D01*
X117600990Y-88106589D01*
X117438475Y-87863368D01*
X117231632Y-87656525D01*
X117057240Y-87540000D01*
X117231632Y-87423475D01*
X117438475Y-87216632D01*
X117600990Y-86973411D01*
X117712932Y-86703158D01*
X117770000Y-86416260D01*
X117770000Y-86123740D01*
X117712932Y-85836842D01*
X117600990Y-85566589D01*
X117438475Y-85323368D01*
X117231632Y-85116525D01*
X117057240Y-85000000D01*
X117231632Y-84883475D01*
X117438475Y-84676632D01*
X117600990Y-84433411D01*
X117712932Y-84163158D01*
X117770000Y-83876260D01*
X117770000Y-83583740D01*
X117712932Y-83296842D01*
X117600990Y-83026589D01*
X117438475Y-82783368D01*
X117231632Y-82576525D01*
X117128944Y-82507911D01*
X132565000Y-82507911D01*
X132565000Y-82692089D01*
X132600932Y-82872729D01*
X132671414Y-83042889D01*
X132773738Y-83196028D01*
X132903972Y-83326262D01*
X133057111Y-83428586D01*
X133227271Y-83499068D01*
X133407911Y-83535000D01*
X133592089Y-83535000D01*
X133772729Y-83499068D01*
X133942889Y-83428586D01*
X134082951Y-83335000D01*
X137217049Y-83335000D01*
X137357111Y-83428586D01*
X137527271Y-83499068D01*
X137707911Y-83535000D01*
X137892089Y-83535000D01*
X138072729Y-83499068D01*
X138242889Y-83428586D01*
X138396028Y-83326262D01*
X138526262Y-83196028D01*
X138628586Y-83042889D01*
X138699068Y-82872729D01*
X138735000Y-82692089D01*
X138735000Y-82507911D01*
X138699068Y-82327271D01*
X138628586Y-82157111D01*
X138526262Y-82003972D01*
X138396028Y-81873738D01*
X138242889Y-81771414D01*
X138072729Y-81700932D01*
X137892089Y-81665000D01*
X137707911Y-81665000D01*
X137527271Y-81700932D01*
X137357111Y-81771414D01*
X137217049Y-81865000D01*
X134082951Y-81865000D01*
X133942889Y-81771414D01*
X133772729Y-81700932D01*
X133592089Y-81665000D01*
X133407911Y-81665000D01*
X133227271Y-81700932D01*
X133057111Y-81771414D01*
X132903972Y-81873738D01*
X132773738Y-82003972D01*
X132671414Y-82157111D01*
X132600932Y-82327271D01*
X132565000Y-82507911D01*
X117128944Y-82507911D01*
X116988411Y-82414010D01*
X116718158Y-82302068D01*
X116431260Y-82245000D01*
X116138740Y-82245000D01*
X115851842Y-82302068D01*
X115581589Y-82414010D01*
X115338368Y-82576525D01*
X115131525Y-82783368D01*
X115013900Y-82959406D01*
X114842588Y-82729731D01*
X114626355Y-82534822D01*
X114376252Y-82385843D01*
X114101891Y-82288519D01*
X113872000Y-82409186D01*
X113618000Y-82409186D01*
X113388109Y-82288519D01*
X113113748Y-82385843D01*
X112863645Y-82534822D01*
X112647412Y-82729731D01*
X112473359Y-82963080D01*
X112348175Y-83225901D01*
X112303524Y-83373110D01*
X110360000Y-83373110D01*
X110360000Y-77300000D01*
X112411928Y-77300000D01*
X112411928Y-79100000D01*
X112424188Y-79224482D01*
X112460498Y-79344180D01*
X112519463Y-79454494D01*
X112598815Y-79551185D01*
X112695506Y-79630537D01*
X112805820Y-79689502D01*
X112925518Y-79725812D01*
X113050000Y-79738072D01*
X114850000Y-79738072D01*
X114974482Y-79725812D01*
X115094180Y-79689502D01*
X115204494Y-79630537D01*
X115301185Y-79551185D01*
X115380537Y-79454494D01*
X115439502Y-79344180D01*
X115475812Y-79224482D01*
X115488072Y-79100000D01*
X115488072Y-78435000D01*
X119241928Y-78435000D01*
X119241928Y-80135000D01*
X119254188Y-80259482D01*
X119290498Y-80379180D01*
X119349463Y-80489494D01*
X119428815Y-80586185D01*
X119525506Y-80665537D01*
X119635820Y-80724502D01*
X119755518Y-80760812D01*
X119880000Y-80773072D01*
X121580000Y-80773072D01*
X121704482Y-80760812D01*
X121824180Y-80724502D01*
X121934494Y-80665537D01*
X122031185Y-80586185D01*
X122110537Y-80489494D01*
X122169502Y-80379180D01*
X122191513Y-80306620D01*
X122323368Y-80438475D01*
X122566589Y-80600990D01*
X122836842Y-80712932D01*
X123123740Y-80770000D01*
X123416260Y-80770000D01*
X123703158Y-80712932D01*
X123973411Y-80600990D01*
X124216632Y-80438475D01*
X124423475Y-80231632D01*
X124540000Y-80057240D01*
X124656525Y-80231632D01*
X124863368Y-80438475D01*
X125106589Y-80600990D01*
X125376842Y-80712932D01*
X125663740Y-80770000D01*
X125956260Y-80770000D01*
X126243158Y-80712932D01*
X126513411Y-80600990D01*
X126756632Y-80438475D01*
X126963475Y-80231632D01*
X127080000Y-80057240D01*
X127196525Y-80231632D01*
X127403368Y-80438475D01*
X127646589Y-80600990D01*
X127916842Y-80712932D01*
X128203740Y-80770000D01*
X128496260Y-80770000D01*
X128783158Y-80712932D01*
X129053411Y-80600990D01*
X129296632Y-80438475D01*
X129503475Y-80231632D01*
X129620000Y-80057240D01*
X129736525Y-80231632D01*
X129943368Y-80438475D01*
X130186589Y-80600990D01*
X130456842Y-80712932D01*
X130743740Y-80770000D01*
X131036260Y-80770000D01*
X131323158Y-80712932D01*
X131593411Y-80600990D01*
X131836632Y-80438475D01*
X132043475Y-80231632D01*
X132160000Y-80057240D01*
X132276525Y-80231632D01*
X132483368Y-80438475D01*
X132726589Y-80600990D01*
X132996842Y-80712932D01*
X133283740Y-80770000D01*
X133576260Y-80770000D01*
X133863158Y-80712932D01*
X134133411Y-80600990D01*
X134376632Y-80438475D01*
X134583475Y-80231632D01*
X134745990Y-79988411D01*
X134857932Y-79718158D01*
X134915000Y-79431260D01*
X134915000Y-79138740D01*
X134857932Y-78851842D01*
X134745990Y-78581589D01*
X134648043Y-78435000D01*
X139561928Y-78435000D01*
X139561928Y-80135000D01*
X139574188Y-80259482D01*
X139610498Y-80379180D01*
X139669463Y-80489494D01*
X139748815Y-80586185D01*
X139845506Y-80665537D01*
X139955820Y-80724502D01*
X140075518Y-80760812D01*
X140200000Y-80773072D01*
X141900000Y-80773072D01*
X142024482Y-80760812D01*
X142144180Y-80724502D01*
X142254494Y-80665537D01*
X142351185Y-80586185D01*
X142430537Y-80489494D01*
X142489502Y-80379180D01*
X142511513Y-80306620D01*
X142643368Y-80438475D01*
X142886589Y-80600990D01*
X143156842Y-80712932D01*
X143443740Y-80770000D01*
X143736260Y-80770000D01*
X144023158Y-80712932D01*
X144293411Y-80600990D01*
X144536632Y-80438475D01*
X144743475Y-80231632D01*
X144860000Y-80057240D01*
X144976525Y-80231632D01*
X145183368Y-80438475D01*
X145426589Y-80600990D01*
X145696842Y-80712932D01*
X145983740Y-80770000D01*
X146276260Y-80770000D01*
X146563158Y-80712932D01*
X146833411Y-80600990D01*
X147076632Y-80438475D01*
X147283475Y-80231632D01*
X147400000Y-80057240D01*
X147516525Y-80231632D01*
X147723368Y-80438475D01*
X147966589Y-80600990D01*
X148236842Y-80712932D01*
X148523740Y-80770000D01*
X148816260Y-80770000D01*
X149103158Y-80712932D01*
X149373411Y-80600990D01*
X149616632Y-80438475D01*
X149823475Y-80231632D01*
X149985990Y-79988411D01*
X150097932Y-79718158D01*
X150155000Y-79431260D01*
X150155000Y-79138740D01*
X150097932Y-78851842D01*
X149985990Y-78581589D01*
X149823475Y-78338368D01*
X149616632Y-78131525D01*
X149442240Y-78015000D01*
X149616632Y-77898475D01*
X149823475Y-77691632D01*
X149864656Y-77630000D01*
X150678422Y-77630000D01*
X152230000Y-79181579D01*
X152230001Y-82245375D01*
X152140518Y-82254188D01*
X152020820Y-82290498D01*
X151910506Y-82349463D01*
X151813815Y-82428815D01*
X151734463Y-82525506D01*
X151675498Y-82635820D01*
X151639188Y-82755518D01*
X151626928Y-82880000D01*
X151626928Y-84580000D01*
X151639188Y-84704482D01*
X151675498Y-84824180D01*
X151734463Y-84934494D01*
X151813815Y-85031185D01*
X151910506Y-85110537D01*
X152020820Y-85169502D01*
X152093380Y-85191513D01*
X151961525Y-85323368D01*
X151799010Y-85566589D01*
X151687068Y-85836842D01*
X151630000Y-86123740D01*
X151630000Y-86416260D01*
X151687068Y-86703158D01*
X151799010Y-86973411D01*
X151961525Y-87216632D01*
X152168368Y-87423475D01*
X152342760Y-87540000D01*
X152168368Y-87656525D01*
X151961525Y-87863368D01*
X151799010Y-88106589D01*
X151687068Y-88376842D01*
X151630000Y-88663740D01*
X151630000Y-88956260D01*
X151687068Y-89243158D01*
X151799010Y-89513411D01*
X151961525Y-89756632D01*
X152168368Y-89963475D01*
X152342760Y-90080000D01*
X152168368Y-90196525D01*
X151961525Y-90403368D01*
X151799010Y-90646589D01*
X151687068Y-90916842D01*
X151630000Y-91203740D01*
X151630000Y-91496260D01*
X151687068Y-91783158D01*
X151799010Y-92053411D01*
X151961525Y-92296632D01*
X152168368Y-92503475D01*
X152342760Y-92620000D01*
X152168368Y-92736525D01*
X151961525Y-92943368D01*
X151799010Y-93186589D01*
X151687068Y-93456842D01*
X151630000Y-93743740D01*
X151630000Y-94036260D01*
X151687068Y-94323158D01*
X151799010Y-94593411D01*
X151961525Y-94836632D01*
X152168368Y-95043475D01*
X152342760Y-95160000D01*
X152168368Y-95276525D01*
X151961525Y-95483368D01*
X151799010Y-95726589D01*
X151687068Y-95996842D01*
X151630000Y-96283740D01*
X151630000Y-96576260D01*
X151687068Y-96863158D01*
X151799010Y-97133411D01*
X151961525Y-97376632D01*
X152168368Y-97583475D01*
X152342760Y-97700000D01*
X152168368Y-97816525D01*
X151961525Y-98023368D01*
X151799010Y-98266589D01*
X151687068Y-98536842D01*
X151630000Y-98823740D01*
X151630000Y-99116260D01*
X151687068Y-99403158D01*
X151799010Y-99673411D01*
X151961525Y-99916632D01*
X152168368Y-100123475D01*
X152342760Y-100240000D01*
X152168368Y-100356525D01*
X151961525Y-100563368D01*
X151799010Y-100806589D01*
X151687068Y-101076842D01*
X151630000Y-101363740D01*
X151630000Y-101656260D01*
X151687068Y-101943158D01*
X151799010Y-102213411D01*
X151961525Y-102456632D01*
X152168368Y-102663475D01*
X152342760Y-102780000D01*
X152168368Y-102896525D01*
X151961525Y-103103368D01*
X151799010Y-103346589D01*
X151687068Y-103616842D01*
X151630000Y-103903740D01*
X151630000Y-104196260D01*
X151687068Y-104483158D01*
X151799010Y-104753411D01*
X151961525Y-104996632D01*
X152168368Y-105203475D01*
X152342760Y-105320000D01*
X152168368Y-105436525D01*
X151961525Y-105643368D01*
X151799010Y-105886589D01*
X151687068Y-106156842D01*
X151630000Y-106443740D01*
X151630000Y-106736260D01*
X151687068Y-107023158D01*
X151799010Y-107293411D01*
X151961525Y-107536632D01*
X152168368Y-107743475D01*
X152342760Y-107860000D01*
X152168368Y-107976525D01*
X151961525Y-108183368D01*
X151799010Y-108426589D01*
X151687068Y-108696842D01*
X151630000Y-108983740D01*
X151630000Y-109276260D01*
X151687068Y-109563158D01*
X151799010Y-109833411D01*
X151961525Y-110076632D01*
X152168368Y-110283475D01*
X152342760Y-110400000D01*
X152168368Y-110516525D01*
X151961525Y-110723368D01*
X151799010Y-110966589D01*
X151687068Y-111236842D01*
X151630000Y-111523740D01*
X151630000Y-111816260D01*
X151687068Y-112103158D01*
X151799010Y-112373411D01*
X151961525Y-112616632D01*
X152168368Y-112823475D01*
X152411589Y-112985990D01*
X152681842Y-113097932D01*
X152968740Y-113155000D01*
X153261260Y-113155000D01*
X153548158Y-113097932D01*
X153818411Y-112985990D01*
X154061632Y-112823475D01*
X154268475Y-112616632D01*
X154386100Y-112440594D01*
X154557412Y-112670269D01*
X154773645Y-112865178D01*
X155023748Y-113014157D01*
X155298109Y-113111481D01*
X155528000Y-112990814D01*
X155528000Y-111797000D01*
X155782000Y-111797000D01*
X155782000Y-112990814D01*
X156011891Y-113111481D01*
X156286252Y-113014157D01*
X156536355Y-112865178D01*
X156752588Y-112670269D01*
X156926641Y-112436920D01*
X157051825Y-112174099D01*
X157096476Y-112026890D01*
X156975155Y-111797000D01*
X155782000Y-111797000D01*
X155528000Y-111797000D01*
X155508000Y-111797000D01*
X155508000Y-111543000D01*
X155528000Y-111543000D01*
X155528000Y-109257000D01*
X155782000Y-109257000D01*
X155782000Y-111543000D01*
X156975155Y-111543000D01*
X157096476Y-111313110D01*
X157051825Y-111165901D01*
X156926641Y-110903080D01*
X156752588Y-110669731D01*
X156536355Y-110474822D01*
X156410745Y-110400000D01*
X156536355Y-110325178D01*
X156752588Y-110130269D01*
X156926641Y-109896920D01*
X157051825Y-109634099D01*
X157096476Y-109486890D01*
X156975155Y-109257000D01*
X155782000Y-109257000D01*
X155528000Y-109257000D01*
X155508000Y-109257000D01*
X155508000Y-109003000D01*
X155528000Y-109003000D01*
X155528000Y-106717000D01*
X155782000Y-106717000D01*
X155782000Y-109003000D01*
X156975155Y-109003000D01*
X157096476Y-108773110D01*
X157051825Y-108625901D01*
X156926641Y-108363080D01*
X156752588Y-108129731D01*
X156536355Y-107934822D01*
X156410745Y-107860000D01*
X156536355Y-107785178D01*
X156752588Y-107590269D01*
X156926641Y-107356920D01*
X157051825Y-107094099D01*
X157096476Y-106946890D01*
X156975155Y-106717000D01*
X155782000Y-106717000D01*
X155528000Y-106717000D01*
X155508000Y-106717000D01*
X155508000Y-106463000D01*
X155528000Y-106463000D01*
X155528000Y-104177000D01*
X155782000Y-104177000D01*
X155782000Y-106463000D01*
X156975155Y-106463000D01*
X157096476Y-106233110D01*
X157051825Y-106085901D01*
X156926641Y-105823080D01*
X156752588Y-105589731D01*
X156536355Y-105394822D01*
X156410745Y-105320000D01*
X156536355Y-105245178D01*
X156752588Y-105050269D01*
X156926641Y-104816920D01*
X157051825Y-104554099D01*
X157096476Y-104406890D01*
X156975155Y-104177000D01*
X155782000Y-104177000D01*
X155528000Y-104177000D01*
X155508000Y-104177000D01*
X155508000Y-103923000D01*
X155528000Y-103923000D01*
X155528000Y-101637000D01*
X155782000Y-101637000D01*
X155782000Y-103923000D01*
X156975155Y-103923000D01*
X157096476Y-103693110D01*
X157051825Y-103545901D01*
X156926641Y-103283080D01*
X156752588Y-103049731D01*
X156536355Y-102854822D01*
X156410745Y-102780000D01*
X156536355Y-102705178D01*
X156752588Y-102510269D01*
X156926641Y-102276920D01*
X157051825Y-102014099D01*
X157096476Y-101866890D01*
X156975155Y-101637000D01*
X155782000Y-101637000D01*
X155528000Y-101637000D01*
X155508000Y-101637000D01*
X155508000Y-101383000D01*
X155528000Y-101383000D01*
X155528000Y-99097000D01*
X155782000Y-99097000D01*
X155782000Y-101383000D01*
X156975155Y-101383000D01*
X157096476Y-101153110D01*
X157051825Y-101005901D01*
X156926641Y-100743080D01*
X156752588Y-100509731D01*
X156536355Y-100314822D01*
X156410745Y-100240000D01*
X156536355Y-100165178D01*
X156752588Y-99970269D01*
X156926641Y-99736920D01*
X157051825Y-99474099D01*
X157096476Y-99326890D01*
X156975155Y-99097000D01*
X155782000Y-99097000D01*
X155528000Y-99097000D01*
X155508000Y-99097000D01*
X155508000Y-98843000D01*
X155528000Y-98843000D01*
X155528000Y-96557000D01*
X155782000Y-96557000D01*
X155782000Y-98843000D01*
X156975155Y-98843000D01*
X157096476Y-98613110D01*
X157051825Y-98465901D01*
X156926641Y-98203080D01*
X156752588Y-97969731D01*
X156536355Y-97774822D01*
X156410745Y-97700000D01*
X156536355Y-97625178D01*
X156752588Y-97430269D01*
X156926641Y-97196920D01*
X157051825Y-96934099D01*
X157096476Y-96786890D01*
X156975155Y-96557000D01*
X155782000Y-96557000D01*
X155528000Y-96557000D01*
X155508000Y-96557000D01*
X155508000Y-96303000D01*
X155528000Y-96303000D01*
X155528000Y-94017000D01*
X155782000Y-94017000D01*
X155782000Y-96303000D01*
X156975155Y-96303000D01*
X157096476Y-96073110D01*
X157051825Y-95925901D01*
X156926641Y-95663080D01*
X156752588Y-95429731D01*
X156536355Y-95234822D01*
X156410745Y-95160000D01*
X156536355Y-95085178D01*
X156752588Y-94890269D01*
X156926641Y-94656920D01*
X157051825Y-94394099D01*
X157096476Y-94246890D01*
X156975155Y-94017000D01*
X155782000Y-94017000D01*
X155528000Y-94017000D01*
X155508000Y-94017000D01*
X155508000Y-93763000D01*
X155528000Y-93763000D01*
X155528000Y-91477000D01*
X155782000Y-91477000D01*
X155782000Y-93763000D01*
X156975155Y-93763000D01*
X157096476Y-93533110D01*
X157051825Y-93385901D01*
X156926641Y-93123080D01*
X156752588Y-92889731D01*
X156536355Y-92694822D01*
X156410745Y-92620000D01*
X156536355Y-92545178D01*
X156752588Y-92350269D01*
X156926641Y-92116920D01*
X157051825Y-91854099D01*
X157096476Y-91706890D01*
X156975155Y-91477000D01*
X155782000Y-91477000D01*
X155528000Y-91477000D01*
X155508000Y-91477000D01*
X155508000Y-91223000D01*
X155528000Y-91223000D01*
X155528000Y-88937000D01*
X155782000Y-88937000D01*
X155782000Y-91223000D01*
X156975155Y-91223000D01*
X157096476Y-90993110D01*
X157051825Y-90845901D01*
X156926641Y-90583080D01*
X156752588Y-90349731D01*
X156536355Y-90154822D01*
X156410745Y-90080000D01*
X156536355Y-90005178D01*
X156752588Y-89810269D01*
X156926641Y-89576920D01*
X157051825Y-89314099D01*
X157096476Y-89166890D01*
X156975155Y-88937000D01*
X155782000Y-88937000D01*
X155528000Y-88937000D01*
X155508000Y-88937000D01*
X155508000Y-88683000D01*
X155528000Y-88683000D01*
X155528000Y-86397000D01*
X155782000Y-86397000D01*
X155782000Y-88683000D01*
X156975155Y-88683000D01*
X157096476Y-88453110D01*
X157051825Y-88305901D01*
X156926641Y-88043080D01*
X156752588Y-87809731D01*
X156536355Y-87614822D01*
X156410745Y-87540000D01*
X156536355Y-87465178D01*
X156752588Y-87270269D01*
X156926641Y-87036920D01*
X157051825Y-86774099D01*
X157096476Y-86626890D01*
X156975155Y-86397000D01*
X155782000Y-86397000D01*
X155528000Y-86397000D01*
X155508000Y-86397000D01*
X155508000Y-86143000D01*
X155528000Y-86143000D01*
X155528000Y-83857000D01*
X155782000Y-83857000D01*
X155782000Y-86143000D01*
X156975155Y-86143000D01*
X157096476Y-85913110D01*
X157051825Y-85765901D01*
X156926641Y-85503080D01*
X156752588Y-85269731D01*
X156536355Y-85074822D01*
X156410745Y-85000000D01*
X156536355Y-84925178D01*
X156752588Y-84730269D01*
X156926641Y-84496920D01*
X157051825Y-84234099D01*
X157096476Y-84086890D01*
X156975155Y-83857000D01*
X155782000Y-83857000D01*
X155528000Y-83857000D01*
X155508000Y-83857000D01*
X155508000Y-83603000D01*
X155528000Y-83603000D01*
X155528000Y-82409186D01*
X155782000Y-82409186D01*
X155782000Y-83603000D01*
X156975155Y-83603000D01*
X157096476Y-83373110D01*
X157051825Y-83225901D01*
X156926641Y-82963080D01*
X156752588Y-82729731D01*
X156536355Y-82534822D01*
X156286252Y-82385843D01*
X156011891Y-82288519D01*
X155782000Y-82409186D01*
X155528000Y-82409186D01*
X155298109Y-82288519D01*
X155023748Y-82385843D01*
X154773645Y-82534822D01*
X154577498Y-82711626D01*
X154554502Y-82635820D01*
X154495537Y-82525506D01*
X154416185Y-82428815D01*
X154319494Y-82349463D01*
X154209180Y-82290498D01*
X154089482Y-82254188D01*
X154000000Y-82245375D01*
X154000000Y-79418082D01*
X154019463Y-79454494D01*
X154098815Y-79551185D01*
X154195506Y-79630537D01*
X154305820Y-79689502D01*
X154425518Y-79725812D01*
X154550000Y-79738072D01*
X155164250Y-79735000D01*
X155323000Y-79576250D01*
X155323000Y-78327000D01*
X155577000Y-78327000D01*
X155577000Y-79576250D01*
X155735750Y-79735000D01*
X156350000Y-79738072D01*
X156474482Y-79725812D01*
X156594180Y-79689502D01*
X156704494Y-79630537D01*
X156801185Y-79551185D01*
X156880537Y-79454494D01*
X156939502Y-79344180D01*
X156975812Y-79224482D01*
X156988072Y-79100000D01*
X156985000Y-78485750D01*
X156826250Y-78327000D01*
X155577000Y-78327000D01*
X155323000Y-78327000D01*
X154073750Y-78327000D01*
X153932923Y-78467827D01*
X153854411Y-78320941D01*
X153743817Y-78186183D01*
X153710050Y-78158471D01*
X152851579Y-77300000D01*
X153911928Y-77300000D01*
X153915000Y-77914250D01*
X154073750Y-78073000D01*
X155323000Y-78073000D01*
X155323000Y-78053000D01*
X155577000Y-78053000D01*
X155577000Y-78073000D01*
X156826250Y-78073000D01*
X156985000Y-77914250D01*
X156988072Y-77300000D01*
X156975812Y-77175518D01*
X156939502Y-77055820D01*
X156880537Y-76945506D01*
X156801185Y-76848815D01*
X156704494Y-76769463D01*
X156594180Y-76710498D01*
X156575873Y-76704944D01*
X156642312Y-76638505D01*
X156810299Y-76387095D01*
X156926011Y-76107743D01*
X156985000Y-75811184D01*
X156985000Y-75508816D01*
X156926011Y-75212257D01*
X156810299Y-74932905D01*
X156642312Y-74681495D01*
X156428505Y-74467688D01*
X156177095Y-74299701D01*
X155897743Y-74183989D01*
X155601184Y-74125000D01*
X155298816Y-74125000D01*
X155002257Y-74183989D01*
X154722905Y-74299701D01*
X154471495Y-74467688D01*
X154257688Y-74681495D01*
X154089701Y-74932905D01*
X153973989Y-75212257D01*
X153915000Y-75508816D01*
X153915000Y-75811184D01*
X153973989Y-76107743D01*
X154089701Y-76387095D01*
X154257688Y-76638505D01*
X154324127Y-76704944D01*
X154305820Y-76710498D01*
X154195506Y-76769463D01*
X154098815Y-76848815D01*
X154019463Y-76945506D01*
X153960498Y-77055820D01*
X153924188Y-77175518D01*
X153911928Y-77300000D01*
X152851579Y-77300000D01*
X151701534Y-76149956D01*
X151673817Y-76116183D01*
X151539059Y-76005589D01*
X151385313Y-75923411D01*
X151218490Y-75872805D01*
X151088477Y-75860000D01*
X151088469Y-75860000D01*
X151045000Y-75855719D01*
X151001531Y-75860000D01*
X149864656Y-75860000D01*
X149823475Y-75798368D01*
X149616632Y-75591525D01*
X149373411Y-75429010D01*
X149103158Y-75317068D01*
X148816260Y-75260000D01*
X148523740Y-75260000D01*
X148236842Y-75317068D01*
X147966589Y-75429010D01*
X147723368Y-75591525D01*
X147516525Y-75798368D01*
X147394805Y-75980534D01*
X147325178Y-75863645D01*
X147130269Y-75647412D01*
X146896920Y-75473359D01*
X146634099Y-75348175D01*
X146486890Y-75303524D01*
X146257000Y-75424845D01*
X146257000Y-76618000D01*
X146277000Y-76618000D01*
X146277000Y-76872000D01*
X146257000Y-76872000D01*
X146257000Y-76892000D01*
X146003000Y-76892000D01*
X146003000Y-76872000D01*
X143717000Y-76872000D01*
X143717000Y-76892000D01*
X143463000Y-76892000D01*
X143463000Y-76872000D01*
X141177000Y-76872000D01*
X141177000Y-76892000D01*
X140923000Y-76892000D01*
X140923000Y-76872000D01*
X139729186Y-76872000D01*
X139608519Y-77101891D01*
X139705843Y-77376252D01*
X139854822Y-77626355D01*
X140031626Y-77822502D01*
X139955820Y-77845498D01*
X139845506Y-77904463D01*
X139748815Y-77983815D01*
X139669463Y-78080506D01*
X139610498Y-78190820D01*
X139574188Y-78310518D01*
X139561928Y-78435000D01*
X134648043Y-78435000D01*
X134583475Y-78338368D01*
X134376632Y-78131525D01*
X134200594Y-78013900D01*
X134430269Y-77842588D01*
X134625178Y-77626355D01*
X134774157Y-77376252D01*
X134871481Y-77101891D01*
X134750814Y-76872000D01*
X133557000Y-76872000D01*
X133557000Y-76892000D01*
X133303000Y-76892000D01*
X133303000Y-76872000D01*
X131017000Y-76872000D01*
X131017000Y-76892000D01*
X130763000Y-76892000D01*
X130763000Y-76872000D01*
X128477000Y-76872000D01*
X128477000Y-76892000D01*
X128223000Y-76892000D01*
X128223000Y-76872000D01*
X125937000Y-76872000D01*
X125937000Y-76892000D01*
X125683000Y-76892000D01*
X125683000Y-76872000D01*
X123397000Y-76872000D01*
X123397000Y-76892000D01*
X123143000Y-76892000D01*
X123143000Y-76872000D01*
X120857000Y-76872000D01*
X120857000Y-76892000D01*
X120603000Y-76892000D01*
X120603000Y-76872000D01*
X119409186Y-76872000D01*
X119288519Y-77101891D01*
X119385843Y-77376252D01*
X119534822Y-77626355D01*
X119711626Y-77822502D01*
X119635820Y-77845498D01*
X119525506Y-77904463D01*
X119428815Y-77983815D01*
X119349463Y-78080506D01*
X119290498Y-78190820D01*
X119254188Y-78310518D01*
X119241928Y-78435000D01*
X115488072Y-78435000D01*
X115488072Y-77300000D01*
X115475812Y-77175518D01*
X115439502Y-77055820D01*
X115380537Y-76945506D01*
X115301185Y-76848815D01*
X115204494Y-76769463D01*
X115094180Y-76710498D01*
X115075873Y-76704944D01*
X115142312Y-76638505D01*
X115309621Y-76388109D01*
X119288519Y-76388109D01*
X119409186Y-76618000D01*
X120603000Y-76618000D01*
X120603000Y-75424845D01*
X120857000Y-75424845D01*
X120857000Y-76618000D01*
X123143000Y-76618000D01*
X123143000Y-75424845D01*
X123397000Y-75424845D01*
X123397000Y-76618000D01*
X125683000Y-76618000D01*
X125683000Y-75424845D01*
X125937000Y-75424845D01*
X125937000Y-76618000D01*
X128223000Y-76618000D01*
X128223000Y-75424845D01*
X128477000Y-75424845D01*
X128477000Y-76618000D01*
X130763000Y-76618000D01*
X130763000Y-75424845D01*
X131017000Y-75424845D01*
X131017000Y-76618000D01*
X133303000Y-76618000D01*
X133303000Y-75424845D01*
X133557000Y-75424845D01*
X133557000Y-76618000D01*
X134750814Y-76618000D01*
X134871481Y-76388109D01*
X139608519Y-76388109D01*
X139729186Y-76618000D01*
X140923000Y-76618000D01*
X140923000Y-75424845D01*
X141177000Y-75424845D01*
X141177000Y-76618000D01*
X143463000Y-76618000D01*
X143463000Y-75424845D01*
X143717000Y-75424845D01*
X143717000Y-76618000D01*
X146003000Y-76618000D01*
X146003000Y-75424845D01*
X145773110Y-75303524D01*
X145625901Y-75348175D01*
X145363080Y-75473359D01*
X145129731Y-75647412D01*
X144934822Y-75863645D01*
X144860000Y-75989255D01*
X144785178Y-75863645D01*
X144590269Y-75647412D01*
X144356920Y-75473359D01*
X144094099Y-75348175D01*
X143946890Y-75303524D01*
X143717000Y-75424845D01*
X143463000Y-75424845D01*
X143233110Y-75303524D01*
X143085901Y-75348175D01*
X142823080Y-75473359D01*
X142589731Y-75647412D01*
X142394822Y-75863645D01*
X142320000Y-75989255D01*
X142245178Y-75863645D01*
X142050269Y-75647412D01*
X141816920Y-75473359D01*
X141554099Y-75348175D01*
X141406890Y-75303524D01*
X141177000Y-75424845D01*
X140923000Y-75424845D01*
X140693110Y-75303524D01*
X140545901Y-75348175D01*
X140283080Y-75473359D01*
X140049731Y-75647412D01*
X139854822Y-75863645D01*
X139705843Y-76113748D01*
X139608519Y-76388109D01*
X134871481Y-76388109D01*
X134774157Y-76113748D01*
X134625178Y-75863645D01*
X134430269Y-75647412D01*
X134196920Y-75473359D01*
X133934099Y-75348175D01*
X133786890Y-75303524D01*
X133557000Y-75424845D01*
X133303000Y-75424845D01*
X133073110Y-75303524D01*
X132925901Y-75348175D01*
X132663080Y-75473359D01*
X132429731Y-75647412D01*
X132234822Y-75863645D01*
X132160000Y-75989255D01*
X132085178Y-75863645D01*
X131890269Y-75647412D01*
X131656920Y-75473359D01*
X131394099Y-75348175D01*
X131246890Y-75303524D01*
X131017000Y-75424845D01*
X130763000Y-75424845D01*
X130533110Y-75303524D01*
X130385901Y-75348175D01*
X130123080Y-75473359D01*
X129889731Y-75647412D01*
X129694822Y-75863645D01*
X129620000Y-75989255D01*
X129545178Y-75863645D01*
X129350269Y-75647412D01*
X129116920Y-75473359D01*
X128854099Y-75348175D01*
X128706890Y-75303524D01*
X128477000Y-75424845D01*
X128223000Y-75424845D01*
X127993110Y-75303524D01*
X127845901Y-75348175D01*
X127583080Y-75473359D01*
X127349731Y-75647412D01*
X127154822Y-75863645D01*
X127080000Y-75989255D01*
X127005178Y-75863645D01*
X126810269Y-75647412D01*
X126576920Y-75473359D01*
X126314099Y-75348175D01*
X126166890Y-75303524D01*
X125937000Y-75424845D01*
X125683000Y-75424845D01*
X125453110Y-75303524D01*
X125305901Y-75348175D01*
X125043080Y-75473359D01*
X124809731Y-75647412D01*
X124614822Y-75863645D01*
X124540000Y-75989255D01*
X124465178Y-75863645D01*
X124270269Y-75647412D01*
X124036920Y-75473359D01*
X123774099Y-75348175D01*
X123626890Y-75303524D01*
X123397000Y-75424845D01*
X123143000Y-75424845D01*
X122913110Y-75303524D01*
X122765901Y-75348175D01*
X122503080Y-75473359D01*
X122269731Y-75647412D01*
X122074822Y-75863645D01*
X122000000Y-75989255D01*
X121925178Y-75863645D01*
X121730269Y-75647412D01*
X121496920Y-75473359D01*
X121234099Y-75348175D01*
X121086890Y-75303524D01*
X120857000Y-75424845D01*
X120603000Y-75424845D01*
X120373110Y-75303524D01*
X120225901Y-75348175D01*
X119963080Y-75473359D01*
X119729731Y-75647412D01*
X119534822Y-75863645D01*
X119385843Y-76113748D01*
X119288519Y-76388109D01*
X115309621Y-76388109D01*
X115310299Y-76387095D01*
X115426011Y-76107743D01*
X115485000Y-75811184D01*
X115485000Y-75508816D01*
X115426011Y-75212257D01*
X115310299Y-74932905D01*
X115142312Y-74681495D01*
X114928505Y-74467688D01*
X114677095Y-74299701D01*
X114397743Y-74183989D01*
X114101184Y-74125000D01*
X113798816Y-74125000D01*
X113502257Y-74183989D01*
X113222905Y-74299701D01*
X112971495Y-74467688D01*
X112757688Y-74681495D01*
X112589701Y-74932905D01*
X112473989Y-75212257D01*
X112415000Y-75508816D01*
X112415000Y-75811184D01*
X112473989Y-76107743D01*
X112589701Y-76387095D01*
X112757688Y-76638505D01*
X112824127Y-76704944D01*
X112805820Y-76710498D01*
X112695506Y-76769463D01*
X112598815Y-76848815D01*
X112519463Y-76945506D01*
X112460498Y-77055820D01*
X112424188Y-77175518D01*
X112411928Y-77300000D01*
X110360000Y-77300000D01*
X110360000Y-73360000D01*
X159040000Y-73360000D01*
X159040001Y-115262531D01*
G37*
X159040001Y-115262531D02*
X158969987Y-115157748D01*
X158742252Y-114930013D01*
X158474463Y-114751082D01*
X158176912Y-114627832D01*
X157861033Y-114565000D01*
X157538967Y-114565000D01*
X157223088Y-114627832D01*
X156925537Y-114751082D01*
X156657748Y-114930013D01*
X156430013Y-115157748D01*
X156251082Y-115425537D01*
X156127832Y-115723088D01*
X156065000Y-116038967D01*
X156065000Y-116361033D01*
X156127832Y-116676912D01*
X156251082Y-116974463D01*
X156430013Y-117242252D01*
X156657748Y-117469987D01*
X156925537Y-117648918D01*
X157223088Y-117772168D01*
X157538967Y-117835000D01*
X157861033Y-117835000D01*
X158176912Y-117772168D01*
X158474463Y-117648918D01*
X158742252Y-117469987D01*
X158969987Y-117242252D01*
X159040001Y-117137469D01*
X159040001Y-119818292D01*
X158835413Y-119744192D01*
X157879605Y-120700000D01*
X158835413Y-121655808D01*
X159040001Y-121581708D01*
X159040001Y-122040000D01*
X158581708Y-122040000D01*
X158655808Y-121835413D01*
X157700000Y-120879605D01*
X156744192Y-121835413D01*
X156818292Y-122040000D01*
X152081708Y-122040000D01*
X152155808Y-121835413D01*
X151200000Y-120879605D01*
X150244192Y-121835413D01*
X150318292Y-122040000D01*
X119081708Y-122040000D01*
X119155808Y-121835413D01*
X118200000Y-120879605D01*
X117244192Y-121835413D01*
X117318292Y-122040000D01*
X112581708Y-122040000D01*
X112655808Y-121835413D01*
X111700000Y-120879605D01*
X110744192Y-121835413D01*
X110818292Y-122040000D01*
X110360000Y-122040000D01*
X110360000Y-121581708D01*
X110564587Y-121655808D01*
X111520395Y-120700000D01*
X111879605Y-120700000D01*
X112835413Y-121655808D01*
X113099814Y-121560044D01*
X113240704Y-121270429D01*
X113322384Y-120958892D01*
X113334189Y-120762595D01*
X116558282Y-120762595D01*
X116602039Y-121081675D01*
X116707205Y-121386088D01*
X116800186Y-121560044D01*
X117064587Y-121655808D01*
X118020395Y-120700000D01*
X118379605Y-120700000D01*
X119335413Y-121655808D01*
X119599814Y-121560044D01*
X119740704Y-121270429D01*
X119822384Y-120958892D01*
X119834189Y-120762595D01*
X149558282Y-120762595D01*
X149602039Y-121081675D01*
X149707205Y-121386088D01*
X149800186Y-121560044D01*
X150064587Y-121655808D01*
X151020395Y-120700000D01*
X151379605Y-120700000D01*
X152335413Y-121655808D01*
X152599814Y-121560044D01*
X152740704Y-121270429D01*
X152822384Y-120958892D01*
X152834189Y-120762595D01*
X156058282Y-120762595D01*
X156102039Y-121081675D01*
X156207205Y-121386088D01*
X156300186Y-121560044D01*
X156564587Y-121655808D01*
X157520395Y-120700000D01*
X156564587Y-119744192D01*
X156300186Y-119839956D01*
X156159296Y-120129571D01*
X156077616Y-120441108D01*
X156058282Y-120762595D01*
X152834189Y-120762595D01*
X152841718Y-120637405D01*
X152797961Y-120318325D01*
X152692795Y-120013912D01*
X152599814Y-119839956D01*
X152335413Y-119744192D01*
X151379605Y-120700000D01*
X151020395Y-120700000D01*
X150064587Y-119744192D01*
X149800186Y-119839956D01*
X149659296Y-120129571D01*
X149577616Y-120441108D01*
X149558282Y-120762595D01*
X119834189Y-120762595D01*
X119841718Y-120637405D01*
X119797961Y-120318325D01*
X119692795Y-120013912D01*
X119599814Y-119839956D01*
X119335413Y-119744192D01*
X118379605Y-120700000D01*
X118020395Y-120700000D01*
X117064587Y-119744192D01*
X116800186Y-119839956D01*
X116659296Y-120129571D01*
X116577616Y-120441108D01*
X116558282Y-120762595D01*
X113334189Y-120762595D01*
X113341718Y-120637405D01*
X113297961Y-120318325D01*
X113192795Y-120013912D01*
X113099814Y-119839956D01*
X112835413Y-119744192D01*
X111879605Y-120700000D01*
X111520395Y-120700000D01*
X110564587Y-119744192D01*
X110360000Y-119818292D01*
X110360000Y-119564587D01*
X110744192Y-119564587D01*
X111700000Y-120520395D01*
X112655808Y-119564587D01*
X117244192Y-119564587D01*
X118200000Y-120520395D01*
X119155808Y-119564587D01*
X119060044Y-119300186D01*
X118770429Y-119159296D01*
X118458892Y-119077616D01*
X118137405Y-119058282D01*
X117818325Y-119102039D01*
X117513912Y-119207205D01*
X117339956Y-119300186D01*
X117244192Y-119564587D01*
X112655808Y-119564587D01*
X112560044Y-119300186D01*
X112270429Y-119159296D01*
X111958892Y-119077616D01*
X111637405Y-119058282D01*
X111318325Y-119102039D01*
X111013912Y-119207205D01*
X110839956Y-119300186D01*
X110744192Y-119564587D01*
X110360000Y-119564587D01*
X110360000Y-119011891D01*
X119288519Y-119011891D01*
X119385843Y-119286252D01*
X119534822Y-119536355D01*
X119729731Y-119752588D01*
X119963080Y-119926641D01*
X120225901Y-120051825D01*
X120373110Y-120096476D01*
X120603000Y-119975155D01*
X120603000Y-118782000D01*
X120857000Y-118782000D01*
X120857000Y-119975155D01*
X121086890Y-120096476D01*
X121234099Y-120051825D01*
X121496920Y-119926641D01*
X121730269Y-119752588D01*
X121925178Y-119536355D01*
X122000000Y-119410745D01*
X122074822Y-119536355D01*
X122269731Y-119752588D01*
X122503080Y-119926641D01*
X122765901Y-120051825D01*
X122913110Y-120096476D01*
X123143000Y-119975155D01*
X123143000Y-118782000D01*
X123397000Y-118782000D01*
X123397000Y-119975155D01*
X123626890Y-120096476D01*
X123774099Y-120051825D01*
X124036920Y-119926641D01*
X124270269Y-119752588D01*
X124465178Y-119536355D01*
X124540000Y-119410745D01*
X124614822Y-119536355D01*
X124809731Y-119752588D01*
X125043080Y-119926641D01*
X125305901Y-120051825D01*
X125453110Y-120096476D01*
X125683000Y-119975155D01*
X125683000Y-118782000D01*
X125937000Y-118782000D01*
X125937000Y-119975155D01*
X126166890Y-120096476D01*
X126314099Y-120051825D01*
X126576920Y-119926641D01*
X126810269Y-119752588D01*
X127005178Y-119536355D01*
X127080000Y-119410745D01*
X127154822Y-119536355D01*
X127349731Y-119752588D01*
X127583080Y-119926641D01*
X127845901Y-120051825D01*
X127993110Y-120096476D01*
X128223000Y-119975155D01*
X128223000Y-118782000D01*
X128477000Y-118782000D01*
X128477000Y-119975155D01*
X128706890Y-120096476D01*
X128854099Y-120051825D01*
X129116920Y-119926641D01*
X129350269Y-119752588D01*
X129545178Y-119536355D01*
X129620000Y-119410745D01*
X129694822Y-119536355D01*
X129889731Y-119752588D01*
X130123080Y-119926641D01*
X130385901Y-120051825D01*
X130533110Y-120096476D01*
X130763000Y-119975155D01*
X130763000Y-118782000D01*
X131017000Y-118782000D01*
X131017000Y-119975155D01*
X131246890Y-120096476D01*
X131394099Y-120051825D01*
X131656920Y-119926641D01*
X131890269Y-119752588D01*
X132085178Y-119536355D01*
X132160000Y-119410745D01*
X132234822Y-119536355D01*
X132429731Y-119752588D01*
X132663080Y-119926641D01*
X132925901Y-120051825D01*
X133073110Y-120096476D01*
X133303000Y-119975155D01*
X133303000Y-118782000D01*
X133557000Y-118782000D01*
X133557000Y-119975155D01*
X133786890Y-120096476D01*
X133934099Y-120051825D01*
X134196920Y-119926641D01*
X134430269Y-119752588D01*
X134625178Y-119536355D01*
X134700000Y-119410745D01*
X134774822Y-119536355D01*
X134969731Y-119752588D01*
X135203080Y-119926641D01*
X135465901Y-120051825D01*
X135613110Y-120096476D01*
X135843000Y-119975155D01*
X135843000Y-118782000D01*
X136097000Y-118782000D01*
X136097000Y-119975155D01*
X136326890Y-120096476D01*
X136474099Y-120051825D01*
X136736920Y-119926641D01*
X136970269Y-119752588D01*
X137165178Y-119536355D01*
X137240000Y-119410745D01*
X137314822Y-119536355D01*
X137509731Y-119752588D01*
X137743080Y-119926641D01*
X138005901Y-120051825D01*
X138153110Y-120096476D01*
X138383000Y-119975155D01*
X138383000Y-118782000D01*
X138637000Y-118782000D01*
X138637000Y-119975155D01*
X138866890Y-120096476D01*
X139014099Y-120051825D01*
X139276920Y-119926641D01*
X139510269Y-119752588D01*
X139705178Y-119536355D01*
X139780000Y-119410745D01*
X139854822Y-119536355D01*
X140049731Y-119752588D01*
X140283080Y-119926641D01*
X140545901Y-120051825D01*
X140693110Y-120096476D01*
X140923000Y-119975155D01*
X140923000Y-118782000D01*
X141177000Y-118782000D01*
X141177000Y-119975155D01*
X141406890Y-120096476D01*
X141554099Y-120051825D01*
X141816920Y-119926641D01*
X142050269Y-119752588D01*
X142245178Y-119536355D01*
X142320000Y-119410745D01*
X142394822Y-119536355D01*
X142589731Y-119752588D01*
X142823080Y-119926641D01*
X143085901Y-120051825D01*
X143233110Y-120096476D01*
X143463000Y-119975155D01*
X143463000Y-118782000D01*
X143717000Y-118782000D01*
X143717000Y-119975155D01*
X143946890Y-120096476D01*
X144094099Y-120051825D01*
X144356920Y-119926641D01*
X144590269Y-119752588D01*
X144785178Y-119536355D01*
X144860000Y-119410745D01*
X144934822Y-119536355D01*
X145129731Y-119752588D01*
X145363080Y-119926641D01*
X145625901Y-120051825D01*
X145773110Y-120096476D01*
X146003000Y-119975155D01*
X146003000Y-118782000D01*
X146257000Y-118782000D01*
X146257000Y-119975155D01*
X146486890Y-120096476D01*
X146634099Y-120051825D01*
X146896920Y-119926641D01*
X147130269Y-119752588D01*
X147325178Y-119536355D01*
X147400000Y-119410745D01*
X147474822Y-119536355D01*
X147669731Y-119752588D01*
X147903080Y-119926641D01*
X148165901Y-120051825D01*
X148313110Y-120096476D01*
X148543000Y-119975155D01*
X148543000Y-118782000D01*
X148797000Y-118782000D01*
X148797000Y-119975155D01*
X149026890Y-120096476D01*
X149174099Y-120051825D01*
X149436920Y-119926641D01*
X149670269Y-119752588D01*
X149839730Y-119564587D01*
X150244192Y-119564587D01*
X151200000Y-120520395D01*
X152155808Y-119564587D01*
X156744192Y-119564587D01*
X157700000Y-120520395D01*
X158655808Y-119564587D01*
X158560044Y-119300186D01*
X158270429Y-119159296D01*
X157958892Y-119077616D01*
X157637405Y-119058282D01*
X157318325Y-119102039D01*
X157013912Y-119207205D01*
X156839956Y-119300186D01*
X156744192Y-119564587D01*
X152155808Y-119564587D01*
X152060044Y-119300186D01*
X151770429Y-119159296D01*
X151458892Y-119077616D01*
X151137405Y-119058282D01*
X150818325Y-119102039D01*
X150513912Y-119207205D01*
X150339956Y-119300186D01*
X150244192Y-119564587D01*
X149839730Y-119564587D01*
X149865178Y-119536355D01*
X150014157Y-119286252D01*
X150111481Y-119011891D01*
X149990814Y-118782000D01*
X148797000Y-118782000D01*
X148543000Y-118782000D01*
X146257000Y-118782000D01*
X146003000Y-118782000D01*
X143717000Y-118782000D01*
X143463000Y-118782000D01*
X141177000Y-118782000D01*
X140923000Y-118782000D01*
X138637000Y-118782000D01*
X138383000Y-118782000D01*
X136097000Y-118782000D01*
X135843000Y-118782000D01*
X133557000Y-118782000D01*
X133303000Y-118782000D01*
X131017000Y-118782000D01*
X130763000Y-118782000D01*
X128477000Y-118782000D01*
X128223000Y-118782000D01*
X125937000Y-118782000D01*
X125683000Y-118782000D01*
X123397000Y-118782000D01*
X123143000Y-118782000D01*
X120857000Y-118782000D01*
X120603000Y-118782000D01*
X119409186Y-118782000D01*
X119288519Y-119011891D01*
X110360000Y-119011891D01*
X110360000Y-117137470D01*
X110430013Y-117242252D01*
X110657748Y-117469987D01*
X110925537Y-117648918D01*
X111223088Y-117772168D01*
X111538967Y-117835000D01*
X111861033Y-117835000D01*
X112176912Y-117772168D01*
X112474463Y-117648918D01*
X112742252Y-117469987D01*
X112969987Y-117242252D01*
X113148918Y-116974463D01*
X113272168Y-116676912D01*
X113335000Y-116361033D01*
X113335000Y-116038967D01*
X116565000Y-116038967D01*
X116565000Y-116361033D01*
X116627832Y-116676912D01*
X116751082Y-116974463D01*
X116930013Y-117242252D01*
X117157748Y-117469987D01*
X117425537Y-117648918D01*
X117723088Y-117772168D01*
X118038967Y-117835000D01*
X118361033Y-117835000D01*
X118676912Y-117772168D01*
X118974463Y-117648918D01*
X119242252Y-117469987D01*
X119469987Y-117242252D01*
X119585006Y-117070113D01*
X119783368Y-117268475D01*
X119959406Y-117386100D01*
X119729731Y-117557412D01*
X119534822Y-117773645D01*
X119385843Y-118023748D01*
X119288519Y-118298109D01*
X119409186Y-118528000D01*
X120603000Y-118528000D01*
X120603000Y-118508000D01*
X120857000Y-118508000D01*
X120857000Y-118528000D01*
X123143000Y-118528000D01*
X123143000Y-118508000D01*
X123397000Y-118508000D01*
X123397000Y-118528000D01*
X125683000Y-118528000D01*
X125683000Y-118508000D01*
X125937000Y-118508000D01*
X125937000Y-118528000D01*
X128223000Y-118528000D01*
X128223000Y-118508000D01*
X128477000Y-118508000D01*
X128477000Y-118528000D01*
X130763000Y-118528000D01*
X130763000Y-118508000D01*
X131017000Y-118508000D01*
X131017000Y-118528000D01*
X133303000Y-118528000D01*
X133303000Y-118508000D01*
X133557000Y-118508000D01*
X133557000Y-118528000D01*
X135843000Y-118528000D01*
X135843000Y-118508000D01*
X136097000Y-118508000D01*
X136097000Y-118528000D01*
X138383000Y-118528000D01*
X138383000Y-118508000D01*
X138637000Y-118508000D01*
X138637000Y-118528000D01*
X140923000Y-118528000D01*
X140923000Y-118508000D01*
X141177000Y-118508000D01*
X141177000Y-118528000D01*
X143463000Y-118528000D01*
X143463000Y-118508000D01*
X143717000Y-118508000D01*
X143717000Y-118528000D01*
X146003000Y-118528000D01*
X146003000Y-118508000D01*
X146257000Y-118508000D01*
X146257000Y-118528000D01*
X148543000Y-118528000D01*
X148543000Y-118508000D01*
X148797000Y-118508000D01*
X148797000Y-118528000D01*
X149990814Y-118528000D01*
X150111481Y-118298109D01*
X150014157Y-118023748D01*
X149865178Y-117773645D01*
X149688374Y-117577498D01*
X149764180Y-117554502D01*
X149874494Y-117495537D01*
X149971185Y-117416185D01*
X150031027Y-117343266D01*
X150157748Y-117469987D01*
X150425537Y-117648918D01*
X150723088Y-117772168D01*
X151038967Y-117835000D01*
X151361033Y-117835000D01*
X151676912Y-117772168D01*
X151974463Y-117648918D01*
X152242252Y-117469987D01*
X152469987Y-117242252D01*
X152648918Y-116974463D01*
X152772168Y-116676912D01*
X152835000Y-116361033D01*
X152835000Y-116038967D01*
X152772168Y-115723088D01*
X152648918Y-115425537D01*
X152469987Y-115157748D01*
X152305834Y-114993595D01*
X152490256Y-114917205D01*
X152659774Y-114803937D01*
X152803937Y-114659774D01*
X152917205Y-114490256D01*
X152995226Y-114301898D01*
X153035000Y-114101939D01*
X153035000Y-113898061D01*
X152995226Y-113698102D01*
X152917205Y-113509744D01*
X152803937Y-113340226D01*
X152659774Y-113196063D01*
X152490256Y-113082795D01*
X152301898Y-113004774D01*
X152101939Y-112965000D01*
X151898061Y-112965000D01*
X151698102Y-113004774D01*
X151509744Y-113082795D01*
X151461546Y-113115000D01*
X149443469Y-113115000D01*
X149400000Y-113110719D01*
X149356531Y-113115000D01*
X149356523Y-113115000D01*
X149226510Y-113127805D01*
X149059687Y-113178411D01*
X148905941Y-113260589D01*
X148804953Y-113343468D01*
X148804951Y-113343470D01*
X148771183Y-113371183D01*
X148743470Y-113404951D01*
X148074956Y-114073466D01*
X148041183Y-114101183D01*
X147930589Y-114235942D01*
X147848411Y-114389688D01*
X147797805Y-114556511D01*
X147790584Y-114629825D01*
X147695518Y-114639188D01*
X147575820Y-114675498D01*
X147465506Y-114734463D01*
X147368815Y-114813815D01*
X147289463Y-114910506D01*
X147230498Y-115020820D01*
X147208487Y-115093380D01*
X147076632Y-114961525D01*
X146833411Y-114799010D01*
X146563158Y-114687068D01*
X146276260Y-114630000D01*
X145983740Y-114630000D01*
X145696842Y-114687068D01*
X145426589Y-114799010D01*
X145183368Y-114961525D01*
X144976525Y-115168368D01*
X144860000Y-115342760D01*
X144743475Y-115168368D01*
X144536632Y-114961525D01*
X144293411Y-114799010D01*
X144023158Y-114687068D01*
X143736260Y-114630000D01*
X143443740Y-114630000D01*
X143156842Y-114687068D01*
X142886589Y-114799010D01*
X142643368Y-114961525D01*
X142436525Y-115168368D01*
X142320000Y-115342760D01*
X142203475Y-115168368D01*
X141996632Y-114961525D01*
X141753411Y-114799010D01*
X141483158Y-114687068D01*
X141196260Y-114630000D01*
X140903740Y-114630000D01*
X140616842Y-114687068D01*
X140346589Y-114799010D01*
X140103368Y-114961525D01*
X139896525Y-115168368D01*
X139780000Y-115342760D01*
X139663475Y-115168368D01*
X139456632Y-114961525D01*
X139213411Y-114799010D01*
X138943158Y-114687068D01*
X138656260Y-114630000D01*
X138363740Y-114630000D01*
X138076842Y-114687068D01*
X137806589Y-114799010D01*
X137563368Y-114961525D01*
X137356525Y-115168368D01*
X137240000Y-115342760D01*
X137123475Y-115168368D01*
X136916632Y-114961525D01*
X136673411Y-114799010D01*
X136403158Y-114687068D01*
X136116260Y-114630000D01*
X135823740Y-114630000D01*
X135536842Y-114687068D01*
X135266589Y-114799010D01*
X135023368Y-114961525D01*
X134816525Y-115168368D01*
X134700000Y-115342760D01*
X134583475Y-115168368D01*
X134376632Y-114961525D01*
X134133411Y-114799010D01*
X133863158Y-114687068D01*
X133576260Y-114630000D01*
X133283740Y-114630000D01*
X132996842Y-114687068D01*
X132726589Y-114799010D01*
X132483368Y-114961525D01*
X132276525Y-115168368D01*
X132160000Y-115342760D01*
X132043475Y-115168368D01*
X131836632Y-114961525D01*
X131593411Y-114799010D01*
X131323158Y-114687068D01*
X131036260Y-114630000D01*
X130743740Y-114630000D01*
X130456842Y-114687068D01*
X130186589Y-114799010D01*
X129943368Y-114961525D01*
X129736525Y-115168368D01*
X129620000Y-115342760D01*
X129503475Y-115168368D01*
X129296632Y-114961525D01*
X129053411Y-114799010D01*
X128783158Y-114687068D01*
X128496260Y-114630000D01*
X128203740Y-114630000D01*
X127916842Y-114687068D01*
X127646589Y-114799010D01*
X127403368Y-114961525D01*
X127196525Y-115168368D01*
X127080000Y-115342760D01*
X126963475Y-115168368D01*
X126756632Y-114961525D01*
X126513411Y-114799010D01*
X126243158Y-114687068D01*
X125956260Y-114630000D01*
X125663740Y-114630000D01*
X125376842Y-114687068D01*
X125106589Y-114799010D01*
X124863368Y-114961525D01*
X124656525Y-115168368D01*
X124540000Y-115342760D01*
X124423475Y-115168368D01*
X124216632Y-114961525D01*
X123973411Y-114799010D01*
X123703158Y-114687068D01*
X123416260Y-114630000D01*
X123123740Y-114630000D01*
X122836842Y-114687068D01*
X122566589Y-114799010D01*
X122323368Y-114961525D01*
X122116525Y-115168368D01*
X122000000Y-115342760D01*
X121883475Y-115168368D01*
X121676632Y-114961525D01*
X121433411Y-114799010D01*
X121163158Y-114687068D01*
X120876260Y-114630000D01*
X120583740Y-114630000D01*
X120296842Y-114687068D01*
X120026589Y-114799010D01*
X119783368Y-114961525D01*
X119576525Y-115168368D01*
X119526804Y-115242781D01*
X119469987Y-115157748D01*
X119242252Y-114930013D01*
X118974463Y-114751082D01*
X118676912Y-114627832D01*
X118361033Y-114565000D01*
X118038967Y-114565000D01*
X117723088Y-114627832D01*
X117425537Y-114751082D01*
X117157748Y-114930013D01*
X116930013Y-115157748D01*
X116751082Y-115425537D01*
X116627832Y-115723088D01*
X116565000Y-116038967D01*
X113335000Y-116038967D01*
X113272168Y-115723088D01*
X113148918Y-115425537D01*
X112969987Y-115157748D01*
X112742252Y-114930013D01*
X112474463Y-114751082D01*
X112176912Y-114627832D01*
X111861033Y-114565000D01*
X111538967Y-114565000D01*
X111223088Y-114627832D01*
X110925537Y-114751082D01*
X110657748Y-114930013D01*
X110430013Y-115157748D01*
X110360000Y-115262530D01*
X110360000Y-112026890D01*
X112303524Y-112026890D01*
X112348175Y-112174099D01*
X112473359Y-112436920D01*
X112647412Y-112670269D01*
X112863645Y-112865178D01*
X113113748Y-113014157D01*
X113388109Y-113111481D01*
X113618000Y-112990814D01*
X113618000Y-111797000D01*
X112424845Y-111797000D01*
X112303524Y-112026890D01*
X110360000Y-112026890D01*
X110360000Y-109486890D01*
X112303524Y-109486890D01*
X112348175Y-109634099D01*
X112473359Y-109896920D01*
X112647412Y-110130269D01*
X112863645Y-110325178D01*
X112989255Y-110400000D01*
X112863645Y-110474822D01*
X112647412Y-110669731D01*
X112473359Y-110903080D01*
X112348175Y-111165901D01*
X112303524Y-111313110D01*
X112424845Y-111543000D01*
X113618000Y-111543000D01*
X113618000Y-109257000D01*
X112424845Y-109257000D01*
X112303524Y-109486890D01*
X110360000Y-109486890D01*
X110360000Y-106946890D01*
X112303524Y-106946890D01*
X112348175Y-107094099D01*
X112473359Y-107356920D01*
X112647412Y-107590269D01*
X112863645Y-107785178D01*
X112989255Y-107860000D01*
X112863645Y-107934822D01*
X112647412Y-108129731D01*
X112473359Y-108363080D01*
X112348175Y-108625901D01*
X112303524Y-108773110D01*
X112424845Y-109003000D01*
X113618000Y-109003000D01*
X113618000Y-106717000D01*
X112424845Y-106717000D01*
X112303524Y-106946890D01*
X110360000Y-106946890D01*
X110360000Y-104406890D01*
X112303524Y-104406890D01*
X112348175Y-104554099D01*
X112473359Y-104816920D01*
X112647412Y-105050269D01*
X112863645Y-105245178D01*
X112989255Y-105320000D01*
X112863645Y-105394822D01*
X112647412Y-105589731D01*
X112473359Y-105823080D01*
X112348175Y-106085901D01*
X112303524Y-106233110D01*
X112424845Y-106463000D01*
X113618000Y-106463000D01*
X113618000Y-104177000D01*
X112424845Y-104177000D01*
X112303524Y-104406890D01*
X110360000Y-104406890D01*
X110360000Y-101866890D01*
X112303524Y-101866890D01*
X112348175Y-102014099D01*
X112473359Y-102276920D01*
X112647412Y-102510269D01*
X112863645Y-102705178D01*
X112989255Y-102780000D01*
X112863645Y-102854822D01*
X112647412Y-103049731D01*
X112473359Y-103283080D01*
X112348175Y-103545901D01*
X112303524Y-103693110D01*
X112424845Y-103923000D01*
X113618000Y-103923000D01*
X113618000Y-101637000D01*
X112424845Y-101637000D01*
X112303524Y-101866890D01*
X110360000Y-101866890D01*
X110360000Y-99326890D01*
X112303524Y-99326890D01*
X112348175Y-99474099D01*
X112473359Y-99736920D01*
X112647412Y-99970269D01*
X112863645Y-100165178D01*
X112989255Y-100240000D01*
X112863645Y-100314822D01*
X112647412Y-100509731D01*
X112473359Y-100743080D01*
X112348175Y-101005901D01*
X112303524Y-101153110D01*
X112424845Y-101383000D01*
X113618000Y-101383000D01*
X113618000Y-99097000D01*
X112424845Y-99097000D01*
X112303524Y-99326890D01*
X110360000Y-99326890D01*
X110360000Y-96786890D01*
X112303524Y-96786890D01*
X112348175Y-96934099D01*
X112473359Y-97196920D01*
X112647412Y-97430269D01*
X112863645Y-97625178D01*
X112989255Y-97700000D01*
X112863645Y-97774822D01*
X112647412Y-97969731D01*
X112473359Y-98203080D01*
X112348175Y-98465901D01*
X112303524Y-98613110D01*
X112424845Y-98843000D01*
X113618000Y-98843000D01*
X113618000Y-96557000D01*
X112424845Y-96557000D01*
X112303524Y-96786890D01*
X110360000Y-96786890D01*
X110360000Y-94246890D01*
X112303524Y-94246890D01*
X112348175Y-94394099D01*
X112473359Y-94656920D01*
X112647412Y-94890269D01*
X112863645Y-95085178D01*
X112989255Y-95160000D01*
X112863645Y-95234822D01*
X112647412Y-95429731D01*
X112473359Y-95663080D01*
X112348175Y-95925901D01*
X112303524Y-96073110D01*
X112424845Y-96303000D01*
X113618000Y-96303000D01*
X113618000Y-94017000D01*
X112424845Y-94017000D01*
X112303524Y-94246890D01*
X110360000Y-94246890D01*
X110360000Y-91706890D01*
X112303524Y-91706890D01*
X112348175Y-91854099D01*
X112473359Y-92116920D01*
X112647412Y-92350269D01*
X112863645Y-92545178D01*
X112989255Y-92620000D01*
X112863645Y-92694822D01*
X112647412Y-92889731D01*
X112473359Y-93123080D01*
X112348175Y-93385901D01*
X112303524Y-93533110D01*
X112424845Y-93763000D01*
X113618000Y-93763000D01*
X113618000Y-91477000D01*
X112424845Y-91477000D01*
X112303524Y-91706890D01*
X110360000Y-91706890D01*
X110360000Y-89166890D01*
X112303524Y-89166890D01*
X112348175Y-89314099D01*
X112473359Y-89576920D01*
X112647412Y-89810269D01*
X112863645Y-90005178D01*
X112989255Y-90080000D01*
X112863645Y-90154822D01*
X112647412Y-90349731D01*
X112473359Y-90583080D01*
X112348175Y-90845901D01*
X112303524Y-90993110D01*
X112424845Y-91223000D01*
X113618000Y-91223000D01*
X113618000Y-88937000D01*
X112424845Y-88937000D01*
X112303524Y-89166890D01*
X110360000Y-89166890D01*
X110360000Y-86626890D01*
X112303524Y-86626890D01*
X112348175Y-86774099D01*
X112473359Y-87036920D01*
X112647412Y-87270269D01*
X112863645Y-87465178D01*
X112989255Y-87540000D01*
X112863645Y-87614822D01*
X112647412Y-87809731D01*
X112473359Y-88043080D01*
X112348175Y-88305901D01*
X112303524Y-88453110D01*
X112424845Y-88683000D01*
X113618000Y-88683000D01*
X113618000Y-86397000D01*
X112424845Y-86397000D01*
X112303524Y-86626890D01*
X110360000Y-86626890D01*
X110360000Y-84086890D01*
X112303524Y-84086890D01*
X112348175Y-84234099D01*
X112473359Y-84496920D01*
X112647412Y-84730269D01*
X112863645Y-84925178D01*
X112989255Y-85000000D01*
X112863645Y-85074822D01*
X112647412Y-85269731D01*
X112473359Y-85503080D01*
X112348175Y-85765901D01*
X112303524Y-85913110D01*
X112424845Y-86143000D01*
X113618000Y-86143000D01*
X113618000Y-83857000D01*
X112424845Y-83857000D01*
X112303524Y-84086890D01*
X110360000Y-84086890D01*
X110360000Y-83373110D01*
X112303524Y-83373110D01*
X112424845Y-83603000D01*
X113618000Y-83603000D01*
X113618000Y-82409186D01*
X113872000Y-82409186D01*
X113872000Y-83603000D01*
X113892000Y-83603000D01*
X113892000Y-83857000D01*
X113872000Y-83857000D01*
X113872000Y-86143000D01*
X113892000Y-86143000D01*
X113892000Y-86397000D01*
X113872000Y-86397000D01*
X113872000Y-88683000D01*
X113892000Y-88683000D01*
X113892000Y-88937000D01*
X113872000Y-88937000D01*
X113872000Y-91223000D01*
X113892000Y-91223000D01*
X113892000Y-91477000D01*
X113872000Y-91477000D01*
X113872000Y-93763000D01*
X113892000Y-93763000D01*
X113892000Y-94017000D01*
X113872000Y-94017000D01*
X113872000Y-96303000D01*
X113892000Y-96303000D01*
X113892000Y-96557000D01*
X113872000Y-96557000D01*
X113872000Y-98843000D01*
X113892000Y-98843000D01*
X113892000Y-99097000D01*
X113872000Y-99097000D01*
X113872000Y-101383000D01*
X113892000Y-101383000D01*
X113892000Y-101637000D01*
X113872000Y-101637000D01*
X113872000Y-103923000D01*
X113892000Y-103923000D01*
X113892000Y-104177000D01*
X113872000Y-104177000D01*
X113872000Y-106463000D01*
X113892000Y-106463000D01*
X113892000Y-106717000D01*
X113872000Y-106717000D01*
X113872000Y-109003000D01*
X113892000Y-109003000D01*
X113892000Y-109257000D01*
X113872000Y-109257000D01*
X113872000Y-111543000D01*
X113892000Y-111543000D01*
X113892000Y-111797000D01*
X113872000Y-111797000D01*
X113872000Y-112990814D01*
X114101891Y-113111481D01*
X114376252Y-113014157D01*
X114626355Y-112865178D01*
X114822502Y-112688374D01*
X114845498Y-112764180D01*
X114904463Y-112874494D01*
X114983815Y-112971185D01*
X115080506Y-113050537D01*
X115190820Y-113109502D01*
X115310518Y-113145812D01*
X115435000Y-113158072D01*
X117135000Y-113158072D01*
X117259482Y-113145812D01*
X117379180Y-113109502D01*
X117489494Y-113050537D01*
X117586185Y-112971185D01*
X117665537Y-112874494D01*
X117724502Y-112764180D01*
X117760812Y-112644482D01*
X117773072Y-112520000D01*
X117773072Y-110820000D01*
X117760812Y-110695518D01*
X117724502Y-110575820D01*
X117665537Y-110465506D01*
X117586185Y-110368815D01*
X117489494Y-110289463D01*
X117379180Y-110230498D01*
X117306620Y-110208487D01*
X117438475Y-110076632D01*
X117579883Y-109865000D01*
X119331613Y-109865000D01*
X119409744Y-109917205D01*
X119598102Y-109995226D01*
X119798061Y-110035000D01*
X120001939Y-110035000D01*
X120201898Y-109995226D01*
X120390256Y-109917205D01*
X120559774Y-109803937D01*
X120703937Y-109659774D01*
X120817205Y-109490256D01*
X120895226Y-109301898D01*
X120935000Y-109101939D01*
X120935000Y-108898061D01*
X120895226Y-108698102D01*
X120817205Y-108509744D01*
X120703937Y-108340226D01*
X120559774Y-108196063D01*
X120390256Y-108082795D01*
X120201898Y-108004774D01*
X120001939Y-107965000D01*
X119798061Y-107965000D01*
X119598102Y-108004774D01*
X119409744Y-108082795D01*
X119240226Y-108196063D01*
X119096063Y-108340226D01*
X119059464Y-108395000D01*
X117579883Y-108395000D01*
X117438475Y-108183368D01*
X117231632Y-107976525D01*
X117057240Y-107860000D01*
X117231632Y-107743475D01*
X117438475Y-107536632D01*
X117600990Y-107293411D01*
X117712932Y-107023158D01*
X117770000Y-106736260D01*
X117770000Y-106443740D01*
X117712932Y-106156842D01*
X117600990Y-105886589D01*
X117438475Y-105643368D01*
X117231632Y-105436525D01*
X117057240Y-105320000D01*
X117231632Y-105203475D01*
X117438475Y-104996632D01*
X117600990Y-104753411D01*
X117712932Y-104483158D01*
X117770000Y-104196260D01*
X117770000Y-103903740D01*
X117712932Y-103616842D01*
X117600990Y-103346589D01*
X117438475Y-103103368D01*
X117231632Y-102896525D01*
X117057240Y-102780000D01*
X117231632Y-102663475D01*
X117438475Y-102456632D01*
X117600990Y-102213411D01*
X117712932Y-101943158D01*
X117770000Y-101656260D01*
X117770000Y-101363740D01*
X117712932Y-101076842D01*
X117600990Y-100806589D01*
X117438475Y-100563368D01*
X117231632Y-100356525D01*
X117057240Y-100240000D01*
X117231632Y-100123475D01*
X117438475Y-99916632D01*
X117600990Y-99673411D01*
X117712932Y-99403158D01*
X117770000Y-99116260D01*
X117770000Y-98823740D01*
X117752354Y-98735030D01*
X122995584Y-98735030D01*
X123682093Y-99421540D01*
X123603972Y-99473738D01*
X123473738Y-99603972D01*
X123371414Y-99757111D01*
X123357345Y-99791076D01*
X122804958Y-100343464D01*
X122804953Y-100343468D01*
X121804951Y-101343471D01*
X121771184Y-101371183D01*
X121743471Y-101404951D01*
X121743468Y-101404954D01*
X121660590Y-101505941D01*
X121578412Y-101659687D01*
X121527805Y-101826510D01*
X121510719Y-102000000D01*
X121515001Y-102043479D01*
X121515000Y-105556531D01*
X121510719Y-105600000D01*
X121515000Y-105643469D01*
X121515000Y-105643476D01*
X121526212Y-105757314D01*
X121527805Y-105773490D01*
X121543157Y-105824096D01*
X121578411Y-105940312D01*
X121660589Y-106094058D01*
X121771183Y-106228817D01*
X121804956Y-106256534D01*
X125343470Y-109795049D01*
X125371183Y-109828817D01*
X125404951Y-109856530D01*
X125404953Y-109856532D01*
X125454166Y-109896920D01*
X125505941Y-109939411D01*
X125659687Y-110021589D01*
X125826510Y-110072195D01*
X125956523Y-110085000D01*
X125956531Y-110085000D01*
X126000000Y-110089281D01*
X126043469Y-110085000D01*
X130093308Y-110085000D01*
X130127271Y-110099068D01*
X130307911Y-110135000D01*
X130492089Y-110135000D01*
X130672729Y-110099068D01*
X130706692Y-110085000D01*
X131865000Y-110085000D01*
X131865000Y-110092089D01*
X131900932Y-110272729D01*
X131971414Y-110442889D01*
X132073738Y-110596028D01*
X132203972Y-110726262D01*
X132357111Y-110828586D01*
X132527271Y-110899068D01*
X132707911Y-110935000D01*
X132892089Y-110935000D01*
X133072729Y-110899068D01*
X133106692Y-110885000D01*
X142856531Y-110885000D01*
X142900000Y-110889281D01*
X142943469Y-110885000D01*
X142943477Y-110885000D01*
X143073490Y-110872195D01*
X143240313Y-110821589D01*
X143394059Y-110739411D01*
X143528817Y-110628817D01*
X143556534Y-110595044D01*
X145665000Y-108486578D01*
X145665000Y-108492089D01*
X145700932Y-108672729D01*
X145771414Y-108842889D01*
X145873738Y-108996028D01*
X146003972Y-109126262D01*
X146157111Y-109228586D01*
X146327271Y-109299068D01*
X146507911Y-109335000D01*
X146692089Y-109335000D01*
X146872729Y-109299068D01*
X147042889Y-109228586D01*
X147196028Y-109126262D01*
X147326262Y-108996028D01*
X147428586Y-108842889D01*
X147499068Y-108672729D01*
X147535000Y-108492089D01*
X147535000Y-108307911D01*
X147499068Y-108127271D01*
X147428586Y-107957111D01*
X147335000Y-107817049D01*
X147335000Y-107704446D01*
X148994193Y-106045254D01*
X149022238Y-106022238D01*
X149114087Y-105910320D01*
X149182337Y-105782633D01*
X149224365Y-105644085D01*
X149235000Y-105536105D01*
X149238556Y-105500000D01*
X149235000Y-105463895D01*
X149235000Y-95382951D01*
X149328586Y-95242889D01*
X149399068Y-95072729D01*
X149435000Y-94892089D01*
X149435000Y-94707911D01*
X149399068Y-94527271D01*
X149328586Y-94357111D01*
X149226262Y-94203972D01*
X149096028Y-94073738D01*
X148942889Y-93971414D01*
X148772729Y-93900932D01*
X148592089Y-93865000D01*
X148585000Y-93865000D01*
X148585000Y-89443469D01*
X148589281Y-89400000D01*
X148585000Y-89356531D01*
X148585000Y-89356523D01*
X148572195Y-89226510D01*
X148521589Y-89059687D01*
X148439411Y-88905941D01*
X148328817Y-88771183D01*
X148295045Y-88743467D01*
X147856534Y-88304956D01*
X147828817Y-88271183D01*
X147694059Y-88160589D01*
X147540313Y-88078411D01*
X147373490Y-88027805D01*
X147243477Y-88015000D01*
X147243469Y-88015000D01*
X147200000Y-88010719D01*
X147156531Y-88015000D01*
X144185000Y-88015000D01*
X144185000Y-87206692D01*
X144199068Y-87172729D01*
X144235000Y-86992089D01*
X144235000Y-86807911D01*
X144199068Y-86627271D01*
X144185000Y-86593308D01*
X144185000Y-86106692D01*
X144199068Y-86072729D01*
X144235000Y-85892089D01*
X144235000Y-85707911D01*
X144199068Y-85527271D01*
X144185000Y-85493308D01*
X144185000Y-85006692D01*
X144199068Y-84972729D01*
X144235000Y-84792089D01*
X144235000Y-84607911D01*
X144199068Y-84427271D01*
X144128586Y-84257111D01*
X144026262Y-84103972D01*
X143896028Y-83973738D01*
X143742889Y-83871414D01*
X143572729Y-83800932D01*
X143392089Y-83765000D01*
X143207911Y-83765000D01*
X143027271Y-83800932D01*
X142857111Y-83871414D01*
X142703972Y-83973738D01*
X142573738Y-84103972D01*
X142471414Y-84257111D01*
X142400932Y-84427271D01*
X142365000Y-84607911D01*
X142365000Y-84792089D01*
X142400932Y-84972729D01*
X142415000Y-85006693D01*
X142415001Y-85493306D01*
X142400932Y-85527271D01*
X142365000Y-85707911D01*
X142365000Y-85892089D01*
X142400932Y-86072729D01*
X142415000Y-86106693D01*
X142415001Y-86593306D01*
X142400932Y-86627271D01*
X142365000Y-86807911D01*
X142365000Y-86992089D01*
X142400932Y-87172729D01*
X142415000Y-87206693D01*
X142415001Y-88015000D01*
X134706692Y-88015000D01*
X134672729Y-88000932D01*
X134492089Y-87965000D01*
X134307911Y-87965000D01*
X134127271Y-88000932D01*
X134093308Y-88015000D01*
X133766579Y-88015000D01*
X133156534Y-87404956D01*
X133128817Y-87371183D01*
X132994059Y-87260589D01*
X132840313Y-87178411D01*
X132673490Y-87127805D01*
X132543477Y-87115000D01*
X132543469Y-87115000D01*
X132500000Y-87110719D01*
X132456531Y-87115000D01*
X131535000Y-87115000D01*
X131535000Y-87107911D01*
X131499068Y-86927271D01*
X131428586Y-86757111D01*
X131326262Y-86603972D01*
X131196028Y-86473738D01*
X131042889Y-86371414D01*
X130872729Y-86300932D01*
X130692089Y-86265000D01*
X130507911Y-86265000D01*
X130327271Y-86300932D01*
X130157111Y-86371414D01*
X130003972Y-86473738D01*
X129873738Y-86603972D01*
X129771414Y-86757111D01*
X129700932Y-86927271D01*
X129665000Y-87107911D01*
X129665000Y-87115000D01*
X127006692Y-87115000D01*
X126972729Y-87100932D01*
X126792089Y-87065000D01*
X126607911Y-87065000D01*
X126435000Y-87099395D01*
X126435000Y-87007911D01*
X126399068Y-86827271D01*
X126328586Y-86657111D01*
X126226262Y-86503972D01*
X126096028Y-86373738D01*
X125942889Y-86271414D01*
X125772729Y-86200932D01*
X125592089Y-86165000D01*
X125407911Y-86165000D01*
X125227271Y-86200932D01*
X125057111Y-86271414D01*
X124903972Y-86373738D01*
X124773738Y-86503972D01*
X124671414Y-86657111D01*
X124600932Y-86827271D01*
X124565000Y-87007911D01*
X124565000Y-87192089D01*
X124600932Y-87372729D01*
X124671414Y-87542889D01*
X124765000Y-87682951D01*
X124765001Y-90063885D01*
X124761444Y-90100000D01*
X124775635Y-90244085D01*
X124799343Y-90322238D01*
X124817664Y-90382633D01*
X124885914Y-90510320D01*
X124977763Y-90622238D01*
X125005808Y-90645254D01*
X125068068Y-90707515D01*
X125100932Y-90872729D01*
X125171414Y-91042889D01*
X125273738Y-91196028D01*
X125403972Y-91326262D01*
X125557111Y-91428586D01*
X125727271Y-91499068D01*
X125907911Y-91535000D01*
X126092089Y-91535000D01*
X126272729Y-91499068D01*
X126442889Y-91428586D01*
X126596028Y-91326262D01*
X126726262Y-91196028D01*
X126828586Y-91042889D01*
X126899068Y-90872729D01*
X126932000Y-90707170D01*
X126972729Y-90699068D01*
X127142889Y-90628586D01*
X127282951Y-90535000D01*
X131117049Y-90535000D01*
X131257111Y-90628586D01*
X131427271Y-90699068D01*
X131607911Y-90735000D01*
X131792089Y-90735000D01*
X131972729Y-90699068D01*
X132142889Y-90628586D01*
X132296028Y-90526262D01*
X132426262Y-90396028D01*
X132528586Y-90242889D01*
X132599068Y-90072729D01*
X132635000Y-89892089D01*
X132635000Y-89707911D01*
X132599068Y-89527271D01*
X132588788Y-89502452D01*
X132628586Y-89442889D01*
X132646957Y-89398536D01*
X132743470Y-89495049D01*
X132771183Y-89528817D01*
X132804951Y-89556530D01*
X132804953Y-89556532D01*
X132825919Y-89573738D01*
X132905941Y-89639411D01*
X133059687Y-89721589D01*
X133226510Y-89772195D01*
X133356523Y-89785000D01*
X133356533Y-89785000D01*
X133399999Y-89789281D01*
X133443465Y-89785000D01*
X134093308Y-89785000D01*
X134127271Y-89799068D01*
X134307911Y-89835000D01*
X134492089Y-89835000D01*
X134672729Y-89799068D01*
X134706692Y-89785000D01*
X139336778Y-89785000D01*
X139203972Y-89873738D01*
X139073738Y-90003972D01*
X138971414Y-90157111D01*
X138900932Y-90327271D01*
X138865000Y-90507911D01*
X138865000Y-90692089D01*
X138900932Y-90872729D01*
X138971414Y-91042889D01*
X139073738Y-91196028D01*
X139203972Y-91326262D01*
X139357111Y-91428586D01*
X139527271Y-91499068D01*
X139707911Y-91535000D01*
X139892089Y-91535000D01*
X140072729Y-91499068D01*
X140242889Y-91428586D01*
X140382951Y-91335000D01*
X140917049Y-91335000D01*
X141057111Y-91428586D01*
X141227271Y-91499068D01*
X141407911Y-91535000D01*
X141592089Y-91535000D01*
X141772729Y-91499068D01*
X141942889Y-91428586D01*
X142096028Y-91326262D01*
X142226262Y-91196028D01*
X142328586Y-91042889D01*
X142399068Y-90872729D01*
X142435000Y-90692089D01*
X142435000Y-90507911D01*
X142399068Y-90327271D01*
X142328586Y-90157111D01*
X142226262Y-90003972D01*
X142096028Y-89873738D01*
X141963222Y-89785000D01*
X143256524Y-89785000D01*
X143300000Y-89789282D01*
X143343477Y-89785000D01*
X145019597Y-89785000D01*
X144971414Y-89857111D01*
X144900932Y-90027271D01*
X144865000Y-90207911D01*
X144865000Y-90392089D01*
X144900932Y-90572729D01*
X144915000Y-90606693D01*
X144915001Y-94856521D01*
X144910719Y-94900000D01*
X144927805Y-95073490D01*
X144978412Y-95240313D01*
X145060590Y-95394059D01*
X145143468Y-95495046D01*
X145143471Y-95495049D01*
X145171184Y-95528817D01*
X145204951Y-95556529D01*
X146015000Y-96366579D01*
X146015001Y-102093305D01*
X146000932Y-102127271D01*
X145965000Y-102307911D01*
X145965000Y-102492089D01*
X146000932Y-102672729D01*
X146015000Y-102706693D01*
X146015001Y-104533420D01*
X143976247Y-106572175D01*
X143928586Y-106457111D01*
X143826262Y-106303972D01*
X143696028Y-106173738D01*
X143542889Y-106071414D01*
X143372729Y-106000932D01*
X143192089Y-105965000D01*
X143007911Y-105965000D01*
X142827271Y-106000932D01*
X142657111Y-106071414D01*
X142503972Y-106173738D01*
X142373738Y-106303972D01*
X142271414Y-106457111D01*
X142257345Y-106491076D01*
X141233422Y-107515000D01*
X140306692Y-107515000D01*
X140272729Y-107500932D01*
X140092089Y-107465000D01*
X139907911Y-107465000D01*
X139727271Y-107500932D01*
X139693308Y-107515000D01*
X127006692Y-107515000D01*
X126972729Y-107500932D01*
X126792089Y-107465000D01*
X126616579Y-107465000D01*
X123985000Y-104833422D01*
X123985000Y-103466578D01*
X124608924Y-102842655D01*
X124642889Y-102828586D01*
X124796028Y-102726262D01*
X124926262Y-102596028D01*
X125028586Y-102442889D01*
X125099068Y-102272729D01*
X125111961Y-102207911D01*
X139465000Y-102207911D01*
X139465000Y-102392089D01*
X139500932Y-102572729D01*
X139571414Y-102742889D01*
X139673738Y-102896028D01*
X139803972Y-103026262D01*
X139957111Y-103128586D01*
X140127271Y-103199068D01*
X140307911Y-103235000D01*
X140492089Y-103235000D01*
X140672729Y-103199068D01*
X140842889Y-103128586D01*
X140982951Y-103035000D01*
X142617049Y-103035000D01*
X142757111Y-103128586D01*
X142927271Y-103199068D01*
X143107911Y-103235000D01*
X143292089Y-103235000D01*
X143472729Y-103199068D01*
X143642889Y-103128586D01*
X143796028Y-103026262D01*
X143926262Y-102896028D01*
X144028586Y-102742889D01*
X144099068Y-102572729D01*
X144135000Y-102392089D01*
X144135000Y-102207911D01*
X144099068Y-102027271D01*
X144028586Y-101857111D01*
X143926262Y-101703972D01*
X143796028Y-101573738D01*
X143642889Y-101471414D01*
X143472729Y-101400932D01*
X143292089Y-101365000D01*
X143107911Y-101365000D01*
X142927271Y-101400932D01*
X142757111Y-101471414D01*
X142617049Y-101565000D01*
X140982951Y-101565000D01*
X140842889Y-101471414D01*
X140672729Y-101400932D01*
X140492089Y-101365000D01*
X140307911Y-101365000D01*
X140127271Y-101400932D01*
X139957111Y-101471414D01*
X139803972Y-101573738D01*
X139673738Y-101703972D01*
X139571414Y-101857111D01*
X139500932Y-102027271D01*
X139465000Y-102207911D01*
X125111961Y-102207911D01*
X125135000Y-102092089D01*
X125135000Y-101907911D01*
X125099068Y-101727271D01*
X125028586Y-101557111D01*
X124926262Y-101403972D01*
X124796028Y-101273738D01*
X124642889Y-101171414D01*
X124527825Y-101123753D01*
X124608924Y-101042655D01*
X124642889Y-101028586D01*
X124796028Y-100926262D01*
X124926262Y-100796028D01*
X125028586Y-100642889D01*
X125099068Y-100472729D01*
X125135000Y-100292089D01*
X125135000Y-100107911D01*
X125099068Y-99927271D01*
X125028586Y-99757111D01*
X124980403Y-99685000D01*
X126667049Y-99685000D01*
X126807111Y-99778586D01*
X126977271Y-99849068D01*
X127157911Y-99885000D01*
X127342089Y-99885000D01*
X127522729Y-99849068D01*
X127692889Y-99778586D01*
X127846028Y-99676262D01*
X127976262Y-99546028D01*
X128078586Y-99392889D01*
X128149068Y-99222729D01*
X128185000Y-99042089D01*
X128185000Y-98857911D01*
X128149068Y-98677271D01*
X128078586Y-98507111D01*
X127976262Y-98353972D01*
X127846028Y-98223738D01*
X127692889Y-98121414D01*
X127522729Y-98050932D01*
X127342089Y-98015000D01*
X127157911Y-98015000D01*
X126977271Y-98050932D01*
X126807111Y-98121414D01*
X126667049Y-98215000D01*
X126507290Y-98215000D01*
X126626262Y-98096028D01*
X126728586Y-97942889D01*
X126799068Y-97772729D01*
X126835000Y-97592089D01*
X126835000Y-97407911D01*
X126799068Y-97227271D01*
X126728586Y-97057111D01*
X126626262Y-96903972D01*
X126496028Y-96773738D01*
X126342889Y-96671414D01*
X126172729Y-96600932D01*
X126007515Y-96568068D01*
X125745258Y-96305812D01*
X125722238Y-96277762D01*
X125610320Y-96185913D01*
X125482633Y-96117663D01*
X125344085Y-96075635D01*
X125236105Y-96065000D01*
X125200000Y-96061444D01*
X125163895Y-96065000D01*
X121004447Y-96065000D01*
X119935000Y-94995554D01*
X119935000Y-93136105D01*
X119938556Y-93100000D01*
X119924365Y-92955915D01*
X119882337Y-92817366D01*
X119814087Y-92689680D01*
X119745253Y-92605806D01*
X119722238Y-92577762D01*
X119694193Y-92554746D01*
X117995258Y-90855812D01*
X117972238Y-90827762D01*
X117860320Y-90735913D01*
X117732633Y-90667663D01*
X117594085Y-90625635D01*
X117586489Y-90624887D01*
X117438475Y-90403368D01*
X117231632Y-90196525D01*
X117057240Y-90080000D01*
X117231632Y-89963475D01*
X117438475Y-89756632D01*
X117600990Y-89513411D01*
X117712932Y-89243158D01*
X117770000Y-88956260D01*
X117770000Y-88663740D01*
X117712932Y-88376842D01*
X117600990Y-88106589D01*
X117438475Y-87863368D01*
X117231632Y-87656525D01*
X117057240Y-87540000D01*
X117231632Y-87423475D01*
X117438475Y-87216632D01*
X117600990Y-86973411D01*
X117712932Y-86703158D01*
X117770000Y-86416260D01*
X117770000Y-86123740D01*
X117712932Y-85836842D01*
X117600990Y-85566589D01*
X117438475Y-85323368D01*
X117231632Y-85116525D01*
X117057240Y-85000000D01*
X117231632Y-84883475D01*
X117438475Y-84676632D01*
X117600990Y-84433411D01*
X117712932Y-84163158D01*
X117770000Y-83876260D01*
X117770000Y-83583740D01*
X117712932Y-83296842D01*
X117600990Y-83026589D01*
X117438475Y-82783368D01*
X117231632Y-82576525D01*
X117128944Y-82507911D01*
X132565000Y-82507911D01*
X132565000Y-82692089D01*
X132600932Y-82872729D01*
X132671414Y-83042889D01*
X132773738Y-83196028D01*
X132903972Y-83326262D01*
X133057111Y-83428586D01*
X133227271Y-83499068D01*
X133407911Y-83535000D01*
X133592089Y-83535000D01*
X133772729Y-83499068D01*
X133942889Y-83428586D01*
X134082951Y-83335000D01*
X137217049Y-83335000D01*
X137357111Y-83428586D01*
X137527271Y-83499068D01*
X137707911Y-83535000D01*
X137892089Y-83535000D01*
X138072729Y-83499068D01*
X138242889Y-83428586D01*
X138396028Y-83326262D01*
X138526262Y-83196028D01*
X138628586Y-83042889D01*
X138699068Y-82872729D01*
X138735000Y-82692089D01*
X138735000Y-82507911D01*
X138699068Y-82327271D01*
X138628586Y-82157111D01*
X138526262Y-82003972D01*
X138396028Y-81873738D01*
X138242889Y-81771414D01*
X138072729Y-81700932D01*
X137892089Y-81665000D01*
X137707911Y-81665000D01*
X137527271Y-81700932D01*
X137357111Y-81771414D01*
X137217049Y-81865000D01*
X134082951Y-81865000D01*
X133942889Y-81771414D01*
X133772729Y-81700932D01*
X133592089Y-81665000D01*
X133407911Y-81665000D01*
X133227271Y-81700932D01*
X133057111Y-81771414D01*
X132903972Y-81873738D01*
X132773738Y-82003972D01*
X132671414Y-82157111D01*
X132600932Y-82327271D01*
X132565000Y-82507911D01*
X117128944Y-82507911D01*
X116988411Y-82414010D01*
X116718158Y-82302068D01*
X116431260Y-82245000D01*
X116138740Y-82245000D01*
X115851842Y-82302068D01*
X115581589Y-82414010D01*
X115338368Y-82576525D01*
X115131525Y-82783368D01*
X115013900Y-82959406D01*
X114842588Y-82729731D01*
X114626355Y-82534822D01*
X114376252Y-82385843D01*
X114101891Y-82288519D01*
X113872000Y-82409186D01*
X113618000Y-82409186D01*
X113388109Y-82288519D01*
X113113748Y-82385843D01*
X112863645Y-82534822D01*
X112647412Y-82729731D01*
X112473359Y-82963080D01*
X112348175Y-83225901D01*
X112303524Y-83373110D01*
X110360000Y-83373110D01*
X110360000Y-77300000D01*
X112411928Y-77300000D01*
X112411928Y-79100000D01*
X112424188Y-79224482D01*
X112460498Y-79344180D01*
X112519463Y-79454494D01*
X112598815Y-79551185D01*
X112695506Y-79630537D01*
X112805820Y-79689502D01*
X112925518Y-79725812D01*
X113050000Y-79738072D01*
X114850000Y-79738072D01*
X114974482Y-79725812D01*
X115094180Y-79689502D01*
X115204494Y-79630537D01*
X115301185Y-79551185D01*
X115380537Y-79454494D01*
X115439502Y-79344180D01*
X115475812Y-79224482D01*
X115488072Y-79100000D01*
X115488072Y-78435000D01*
X119241928Y-78435000D01*
X119241928Y-80135000D01*
X119254188Y-80259482D01*
X119290498Y-80379180D01*
X119349463Y-80489494D01*
X119428815Y-80586185D01*
X119525506Y-80665537D01*
X119635820Y-80724502D01*
X119755518Y-80760812D01*
X119880000Y-80773072D01*
X121580000Y-80773072D01*
X121704482Y-80760812D01*
X121824180Y-80724502D01*
X121934494Y-80665537D01*
X122031185Y-80586185D01*
X122110537Y-80489494D01*
X122169502Y-80379180D01*
X122191513Y-80306620D01*
X122323368Y-80438475D01*
X122566589Y-80600990D01*
X122836842Y-80712932D01*
X123123740Y-80770000D01*
X123416260Y-80770000D01*
X123703158Y-80712932D01*
X123973411Y-80600990D01*
X124216632Y-80438475D01*
X124423475Y-80231632D01*
X124540000Y-80057240D01*
X124656525Y-80231632D01*
X124863368Y-80438475D01*
X125106589Y-80600990D01*
X125376842Y-80712932D01*
X125663740Y-80770000D01*
X125956260Y-80770000D01*
X126243158Y-80712932D01*
X126513411Y-80600990D01*
X126756632Y-80438475D01*
X126963475Y-80231632D01*
X127080000Y-80057240D01*
X127196525Y-80231632D01*
X127403368Y-80438475D01*
X127646589Y-80600990D01*
X127916842Y-80712932D01*
X128203740Y-80770000D01*
X128496260Y-80770000D01*
X128783158Y-80712932D01*
X129053411Y-80600990D01*
X129296632Y-80438475D01*
X129503475Y-80231632D01*
X129620000Y-80057240D01*
X129736525Y-80231632D01*
X129943368Y-80438475D01*
X130186589Y-80600990D01*
X130456842Y-80712932D01*
X130743740Y-80770000D01*
X131036260Y-80770000D01*
X131323158Y-80712932D01*
X131593411Y-80600990D01*
X131836632Y-80438475D01*
X132043475Y-80231632D01*
X132160000Y-80057240D01*
X132276525Y-80231632D01*
X132483368Y-80438475D01*
X132726589Y-80600990D01*
X132996842Y-80712932D01*
X133283740Y-80770000D01*
X133576260Y-80770000D01*
X133863158Y-80712932D01*
X134133411Y-80600990D01*
X134376632Y-80438475D01*
X134583475Y-80231632D01*
X134745990Y-79988411D01*
X134857932Y-79718158D01*
X134915000Y-79431260D01*
X134915000Y-79138740D01*
X134857932Y-78851842D01*
X134745990Y-78581589D01*
X134648043Y-78435000D01*
X139561928Y-78435000D01*
X139561928Y-80135000D01*
X139574188Y-80259482D01*
X139610498Y-80379180D01*
X139669463Y-80489494D01*
X139748815Y-80586185D01*
X139845506Y-80665537D01*
X139955820Y-80724502D01*
X140075518Y-80760812D01*
X140200000Y-80773072D01*
X141900000Y-80773072D01*
X142024482Y-80760812D01*
X142144180Y-80724502D01*
X142254494Y-80665537D01*
X142351185Y-80586185D01*
X142430537Y-80489494D01*
X142489502Y-80379180D01*
X142511513Y-80306620D01*
X142643368Y-80438475D01*
X142886589Y-80600990D01*
X143156842Y-80712932D01*
X143443740Y-80770000D01*
X143736260Y-80770000D01*
X144023158Y-80712932D01*
X144293411Y-80600990D01*
X144536632Y-80438475D01*
X144743475Y-80231632D01*
X144860000Y-80057240D01*
X144976525Y-80231632D01*
X145183368Y-80438475D01*
X145426589Y-80600990D01*
X145696842Y-80712932D01*
X145983740Y-80770000D01*
X146276260Y-80770000D01*
X146563158Y-80712932D01*
X146833411Y-80600990D01*
X147076632Y-80438475D01*
X147283475Y-80231632D01*
X147400000Y-80057240D01*
X147516525Y-80231632D01*
X147723368Y-80438475D01*
X147966589Y-80600990D01*
X148236842Y-80712932D01*
X148523740Y-80770000D01*
X148816260Y-80770000D01*
X149103158Y-80712932D01*
X149373411Y-80600990D01*
X149616632Y-80438475D01*
X149823475Y-80231632D01*
X149985990Y-79988411D01*
X150097932Y-79718158D01*
X150155000Y-79431260D01*
X150155000Y-79138740D01*
X150097932Y-78851842D01*
X149985990Y-78581589D01*
X149823475Y-78338368D01*
X149616632Y-78131525D01*
X149442240Y-78015000D01*
X149616632Y-77898475D01*
X149823475Y-77691632D01*
X149864656Y-77630000D01*
X150678422Y-77630000D01*
X152230000Y-79181579D01*
X152230001Y-82245375D01*
X152140518Y-82254188D01*
X152020820Y-82290498D01*
X151910506Y-82349463D01*
X151813815Y-82428815D01*
X151734463Y-82525506D01*
X151675498Y-82635820D01*
X151639188Y-82755518D01*
X151626928Y-82880000D01*
X151626928Y-84580000D01*
X151639188Y-84704482D01*
X151675498Y-84824180D01*
X151734463Y-84934494D01*
X151813815Y-85031185D01*
X151910506Y-85110537D01*
X152020820Y-85169502D01*
X152093380Y-85191513D01*
X151961525Y-85323368D01*
X151799010Y-85566589D01*
X151687068Y-85836842D01*
X151630000Y-86123740D01*
X151630000Y-86416260D01*
X151687068Y-86703158D01*
X151799010Y-86973411D01*
X151961525Y-87216632D01*
X152168368Y-87423475D01*
X152342760Y-87540000D01*
X152168368Y-87656525D01*
X151961525Y-87863368D01*
X151799010Y-88106589D01*
X151687068Y-88376842D01*
X151630000Y-88663740D01*
X151630000Y-88956260D01*
X151687068Y-89243158D01*
X151799010Y-89513411D01*
X151961525Y-89756632D01*
X152168368Y-89963475D01*
X152342760Y-90080000D01*
X152168368Y-90196525D01*
X151961525Y-90403368D01*
X151799010Y-90646589D01*
X151687068Y-90916842D01*
X151630000Y-91203740D01*
X151630000Y-91496260D01*
X151687068Y-91783158D01*
X151799010Y-92053411D01*
X151961525Y-92296632D01*
X152168368Y-92503475D01*
X152342760Y-92620000D01*
X152168368Y-92736525D01*
X151961525Y-92943368D01*
X151799010Y-93186589D01*
X151687068Y-93456842D01*
X151630000Y-93743740D01*
X151630000Y-94036260D01*
X151687068Y-94323158D01*
X151799010Y-94593411D01*
X151961525Y-94836632D01*
X152168368Y-95043475D01*
X152342760Y-95160000D01*
X152168368Y-95276525D01*
X151961525Y-95483368D01*
X151799010Y-95726589D01*
X151687068Y-95996842D01*
X151630000Y-96283740D01*
X151630000Y-96576260D01*
X151687068Y-96863158D01*
X151799010Y-97133411D01*
X151961525Y-97376632D01*
X152168368Y-97583475D01*
X152342760Y-97700000D01*
X152168368Y-97816525D01*
X151961525Y-98023368D01*
X151799010Y-98266589D01*
X151687068Y-98536842D01*
X151630000Y-98823740D01*
X151630000Y-99116260D01*
X151687068Y-99403158D01*
X151799010Y-99673411D01*
X151961525Y-99916632D01*
X152168368Y-100123475D01*
X152342760Y-100240000D01*
X152168368Y-100356525D01*
X151961525Y-100563368D01*
X151799010Y-100806589D01*
X151687068Y-101076842D01*
X151630000Y-101363740D01*
X151630000Y-101656260D01*
X151687068Y-101943158D01*
X151799010Y-102213411D01*
X151961525Y-102456632D01*
X152168368Y-102663475D01*
X152342760Y-102780000D01*
X152168368Y-102896525D01*
X151961525Y-103103368D01*
X151799010Y-103346589D01*
X151687068Y-103616842D01*
X151630000Y-103903740D01*
X151630000Y-104196260D01*
X151687068Y-104483158D01*
X151799010Y-104753411D01*
X151961525Y-104996632D01*
X152168368Y-105203475D01*
X152342760Y-105320000D01*
X152168368Y-105436525D01*
X151961525Y-105643368D01*
X151799010Y-105886589D01*
X151687068Y-106156842D01*
X151630000Y-106443740D01*
X151630000Y-106736260D01*
X151687068Y-107023158D01*
X151799010Y-107293411D01*
X151961525Y-107536632D01*
X152168368Y-107743475D01*
X152342760Y-107860000D01*
X152168368Y-107976525D01*
X151961525Y-108183368D01*
X151799010Y-108426589D01*
X151687068Y-108696842D01*
X151630000Y-108983740D01*
X151630000Y-109276260D01*
X151687068Y-109563158D01*
X151799010Y-109833411D01*
X151961525Y-110076632D01*
X152168368Y-110283475D01*
X152342760Y-110400000D01*
X152168368Y-110516525D01*
X151961525Y-110723368D01*
X151799010Y-110966589D01*
X151687068Y-111236842D01*
X151630000Y-111523740D01*
X151630000Y-111816260D01*
X151687068Y-112103158D01*
X151799010Y-112373411D01*
X151961525Y-112616632D01*
X152168368Y-112823475D01*
X152411589Y-112985990D01*
X152681842Y-113097932D01*
X152968740Y-113155000D01*
X153261260Y-113155000D01*
X153548158Y-113097932D01*
X153818411Y-112985990D01*
X154061632Y-112823475D01*
X154268475Y-112616632D01*
X154386100Y-112440594D01*
X154557412Y-112670269D01*
X154773645Y-112865178D01*
X155023748Y-113014157D01*
X155298109Y-113111481D01*
X155528000Y-112990814D01*
X155528000Y-111797000D01*
X155782000Y-111797000D01*
X155782000Y-112990814D01*
X156011891Y-113111481D01*
X156286252Y-113014157D01*
X156536355Y-112865178D01*
X156752588Y-112670269D01*
X156926641Y-112436920D01*
X157051825Y-112174099D01*
X157096476Y-112026890D01*
X156975155Y-111797000D01*
X155782000Y-111797000D01*
X155528000Y-111797000D01*
X155508000Y-111797000D01*
X155508000Y-111543000D01*
X155528000Y-111543000D01*
X155528000Y-109257000D01*
X155782000Y-109257000D01*
X155782000Y-111543000D01*
X156975155Y-111543000D01*
X157096476Y-111313110D01*
X157051825Y-111165901D01*
X156926641Y-110903080D01*
X156752588Y-110669731D01*
X156536355Y-110474822D01*
X156410745Y-110400000D01*
X156536355Y-110325178D01*
X156752588Y-110130269D01*
X156926641Y-109896920D01*
X157051825Y-109634099D01*
X157096476Y-109486890D01*
X156975155Y-109257000D01*
X155782000Y-109257000D01*
X155528000Y-109257000D01*
X155508000Y-109257000D01*
X155508000Y-109003000D01*
X155528000Y-109003000D01*
X155528000Y-106717000D01*
X155782000Y-106717000D01*
X155782000Y-109003000D01*
X156975155Y-109003000D01*
X157096476Y-108773110D01*
X157051825Y-108625901D01*
X156926641Y-108363080D01*
X156752588Y-108129731D01*
X156536355Y-107934822D01*
X156410745Y-107860000D01*
X156536355Y-107785178D01*
X156752588Y-107590269D01*
X156926641Y-107356920D01*
X157051825Y-107094099D01*
X157096476Y-106946890D01*
X156975155Y-106717000D01*
X155782000Y-106717000D01*
X155528000Y-106717000D01*
X155508000Y-106717000D01*
X155508000Y-106463000D01*
X155528000Y-106463000D01*
X155528000Y-104177000D01*
X155782000Y-104177000D01*
X155782000Y-106463000D01*
X156975155Y-106463000D01*
X157096476Y-106233110D01*
X157051825Y-106085901D01*
X156926641Y-105823080D01*
X156752588Y-105589731D01*
X156536355Y-105394822D01*
X156410745Y-105320000D01*
X156536355Y-105245178D01*
X156752588Y-105050269D01*
X156926641Y-104816920D01*
X157051825Y-104554099D01*
X157096476Y-104406890D01*
X156975155Y-104177000D01*
X155782000Y-104177000D01*
X155528000Y-104177000D01*
X155508000Y-104177000D01*
X155508000Y-103923000D01*
X155528000Y-103923000D01*
X155528000Y-101637000D01*
X155782000Y-101637000D01*
X155782000Y-103923000D01*
X156975155Y-103923000D01*
X157096476Y-103693110D01*
X157051825Y-103545901D01*
X156926641Y-103283080D01*
X156752588Y-103049731D01*
X156536355Y-102854822D01*
X156410745Y-102780000D01*
X156536355Y-102705178D01*
X156752588Y-102510269D01*
X156926641Y-102276920D01*
X157051825Y-102014099D01*
X157096476Y-101866890D01*
X156975155Y-101637000D01*
X155782000Y-101637000D01*
X155528000Y-101637000D01*
X155508000Y-101637000D01*
X155508000Y-101383000D01*
X155528000Y-101383000D01*
X155528000Y-99097000D01*
X155782000Y-99097000D01*
X155782000Y-101383000D01*
X156975155Y-101383000D01*
X157096476Y-101153110D01*
X157051825Y-101005901D01*
X156926641Y-100743080D01*
X156752588Y-100509731D01*
X156536355Y-100314822D01*
X156410745Y-100240000D01*
X156536355Y-100165178D01*
X156752588Y-99970269D01*
X156926641Y-99736920D01*
X157051825Y-99474099D01*
X157096476Y-99326890D01*
X156975155Y-99097000D01*
X155782000Y-99097000D01*
X155528000Y-99097000D01*
X155508000Y-99097000D01*
X155508000Y-98843000D01*
X155528000Y-98843000D01*
X155528000Y-96557000D01*
X155782000Y-96557000D01*
X155782000Y-98843000D01*
X156975155Y-98843000D01*
X157096476Y-98613110D01*
X157051825Y-98465901D01*
X156926641Y-98203080D01*
X156752588Y-97969731D01*
X156536355Y-97774822D01*
X156410745Y-97700000D01*
X156536355Y-97625178D01*
X156752588Y-97430269D01*
X156926641Y-97196920D01*
X157051825Y-96934099D01*
X157096476Y-96786890D01*
X156975155Y-96557000D01*
X155782000Y-96557000D01*
X155528000Y-96557000D01*
X155508000Y-96557000D01*
X155508000Y-96303000D01*
X155528000Y-96303000D01*
X155528000Y-94017000D01*
X155782000Y-94017000D01*
X155782000Y-96303000D01*
X156975155Y-96303000D01*
X157096476Y-96073110D01*
X157051825Y-95925901D01*
X156926641Y-95663080D01*
X156752588Y-95429731D01*
X156536355Y-95234822D01*
X156410745Y-95160000D01*
X156536355Y-95085178D01*
X156752588Y-94890269D01*
X156926641Y-94656920D01*
X157051825Y-94394099D01*
X157096476Y-94246890D01*
X156975155Y-94017000D01*
X155782000Y-94017000D01*
X155528000Y-94017000D01*
X155508000Y-94017000D01*
X155508000Y-93763000D01*
X155528000Y-93763000D01*
X155528000Y-91477000D01*
X155782000Y-91477000D01*
X155782000Y-93763000D01*
X156975155Y-93763000D01*
X157096476Y-93533110D01*
X157051825Y-93385901D01*
X156926641Y-93123080D01*
X156752588Y-92889731D01*
X156536355Y-92694822D01*
X156410745Y-92620000D01*
X156536355Y-92545178D01*
X156752588Y-92350269D01*
X156926641Y-92116920D01*
X157051825Y-91854099D01*
X157096476Y-91706890D01*
X156975155Y-91477000D01*
X155782000Y-91477000D01*
X155528000Y-91477000D01*
X155508000Y-91477000D01*
X155508000Y-91223000D01*
X155528000Y-91223000D01*
X155528000Y-88937000D01*
X155782000Y-88937000D01*
X155782000Y-91223000D01*
X156975155Y-91223000D01*
X157096476Y-90993110D01*
X157051825Y-90845901D01*
X156926641Y-90583080D01*
X156752588Y-90349731D01*
X156536355Y-90154822D01*
X156410745Y-90080000D01*
X156536355Y-90005178D01*
X156752588Y-89810269D01*
X156926641Y-89576920D01*
X157051825Y-89314099D01*
X157096476Y-89166890D01*
X156975155Y-88937000D01*
X155782000Y-88937000D01*
X155528000Y-88937000D01*
X155508000Y-88937000D01*
X155508000Y-88683000D01*
X155528000Y-88683000D01*
X155528000Y-86397000D01*
X155782000Y-86397000D01*
X155782000Y-88683000D01*
X156975155Y-88683000D01*
X157096476Y-88453110D01*
X157051825Y-88305901D01*
X156926641Y-88043080D01*
X156752588Y-87809731D01*
X156536355Y-87614822D01*
X156410745Y-87540000D01*
X156536355Y-87465178D01*
X156752588Y-87270269D01*
X156926641Y-87036920D01*
X157051825Y-86774099D01*
X157096476Y-86626890D01*
X156975155Y-86397000D01*
X155782000Y-86397000D01*
X155528000Y-86397000D01*
X155508000Y-86397000D01*
X155508000Y-86143000D01*
X155528000Y-86143000D01*
X155528000Y-83857000D01*
X155782000Y-83857000D01*
X155782000Y-86143000D01*
X156975155Y-86143000D01*
X157096476Y-85913110D01*
X157051825Y-85765901D01*
X156926641Y-85503080D01*
X156752588Y-85269731D01*
X156536355Y-85074822D01*
X156410745Y-85000000D01*
X156536355Y-84925178D01*
X156752588Y-84730269D01*
X156926641Y-84496920D01*
X157051825Y-84234099D01*
X157096476Y-84086890D01*
X156975155Y-83857000D01*
X155782000Y-83857000D01*
X155528000Y-83857000D01*
X155508000Y-83857000D01*
X155508000Y-83603000D01*
X155528000Y-83603000D01*
X155528000Y-82409186D01*
X155782000Y-82409186D01*
X155782000Y-83603000D01*
X156975155Y-83603000D01*
X157096476Y-83373110D01*
X157051825Y-83225901D01*
X156926641Y-82963080D01*
X156752588Y-82729731D01*
X156536355Y-82534822D01*
X156286252Y-82385843D01*
X156011891Y-82288519D01*
X155782000Y-82409186D01*
X155528000Y-82409186D01*
X155298109Y-82288519D01*
X155023748Y-82385843D01*
X154773645Y-82534822D01*
X154577498Y-82711626D01*
X154554502Y-82635820D01*
X154495537Y-82525506D01*
X154416185Y-82428815D01*
X154319494Y-82349463D01*
X154209180Y-82290498D01*
X154089482Y-82254188D01*
X154000000Y-82245375D01*
X154000000Y-79418082D01*
X154019463Y-79454494D01*
X154098815Y-79551185D01*
X154195506Y-79630537D01*
X154305820Y-79689502D01*
X154425518Y-79725812D01*
X154550000Y-79738072D01*
X155164250Y-79735000D01*
X155323000Y-79576250D01*
X155323000Y-78327000D01*
X155577000Y-78327000D01*
X155577000Y-79576250D01*
X155735750Y-79735000D01*
X156350000Y-79738072D01*
X156474482Y-79725812D01*
X156594180Y-79689502D01*
X156704494Y-79630537D01*
X156801185Y-79551185D01*
X156880537Y-79454494D01*
X156939502Y-79344180D01*
X156975812Y-79224482D01*
X156988072Y-79100000D01*
X156985000Y-78485750D01*
X156826250Y-78327000D01*
X155577000Y-78327000D01*
X155323000Y-78327000D01*
X154073750Y-78327000D01*
X153932923Y-78467827D01*
X153854411Y-78320941D01*
X153743817Y-78186183D01*
X153710050Y-78158471D01*
X152851579Y-77300000D01*
X153911928Y-77300000D01*
X153915000Y-77914250D01*
X154073750Y-78073000D01*
X155323000Y-78073000D01*
X155323000Y-78053000D01*
X155577000Y-78053000D01*
X155577000Y-78073000D01*
X156826250Y-78073000D01*
X156985000Y-77914250D01*
X156988072Y-77300000D01*
X156975812Y-77175518D01*
X156939502Y-77055820D01*
X156880537Y-76945506D01*
X156801185Y-76848815D01*
X156704494Y-76769463D01*
X156594180Y-76710498D01*
X156575873Y-76704944D01*
X156642312Y-76638505D01*
X156810299Y-76387095D01*
X156926011Y-76107743D01*
X156985000Y-75811184D01*
X156985000Y-75508816D01*
X156926011Y-75212257D01*
X156810299Y-74932905D01*
X156642312Y-74681495D01*
X156428505Y-74467688D01*
X156177095Y-74299701D01*
X155897743Y-74183989D01*
X155601184Y-74125000D01*
X155298816Y-74125000D01*
X155002257Y-74183989D01*
X154722905Y-74299701D01*
X154471495Y-74467688D01*
X154257688Y-74681495D01*
X154089701Y-74932905D01*
X153973989Y-75212257D01*
X153915000Y-75508816D01*
X153915000Y-75811184D01*
X153973989Y-76107743D01*
X154089701Y-76387095D01*
X154257688Y-76638505D01*
X154324127Y-76704944D01*
X154305820Y-76710498D01*
X154195506Y-76769463D01*
X154098815Y-76848815D01*
X154019463Y-76945506D01*
X153960498Y-77055820D01*
X153924188Y-77175518D01*
X153911928Y-77300000D01*
X152851579Y-77300000D01*
X151701534Y-76149956D01*
X151673817Y-76116183D01*
X151539059Y-76005589D01*
X151385313Y-75923411D01*
X151218490Y-75872805D01*
X151088477Y-75860000D01*
X151088469Y-75860000D01*
X151045000Y-75855719D01*
X151001531Y-75860000D01*
X149864656Y-75860000D01*
X149823475Y-75798368D01*
X149616632Y-75591525D01*
X149373411Y-75429010D01*
X149103158Y-75317068D01*
X148816260Y-75260000D01*
X148523740Y-75260000D01*
X148236842Y-75317068D01*
X147966589Y-75429010D01*
X147723368Y-75591525D01*
X147516525Y-75798368D01*
X147394805Y-75980534D01*
X147325178Y-75863645D01*
X147130269Y-75647412D01*
X146896920Y-75473359D01*
X146634099Y-75348175D01*
X146486890Y-75303524D01*
X146257000Y-75424845D01*
X146257000Y-76618000D01*
X146277000Y-76618000D01*
X146277000Y-76872000D01*
X146257000Y-76872000D01*
X146257000Y-76892000D01*
X146003000Y-76892000D01*
X146003000Y-76872000D01*
X143717000Y-76872000D01*
X143717000Y-76892000D01*
X143463000Y-76892000D01*
X143463000Y-76872000D01*
X141177000Y-76872000D01*
X141177000Y-76892000D01*
X140923000Y-76892000D01*
X140923000Y-76872000D01*
X139729186Y-76872000D01*
X139608519Y-77101891D01*
X139705843Y-77376252D01*
X139854822Y-77626355D01*
X140031626Y-77822502D01*
X139955820Y-77845498D01*
X139845506Y-77904463D01*
X139748815Y-77983815D01*
X139669463Y-78080506D01*
X139610498Y-78190820D01*
X139574188Y-78310518D01*
X139561928Y-78435000D01*
X134648043Y-78435000D01*
X134583475Y-78338368D01*
X134376632Y-78131525D01*
X134200594Y-78013900D01*
X134430269Y-77842588D01*
X134625178Y-77626355D01*
X134774157Y-77376252D01*
X134871481Y-77101891D01*
X134750814Y-76872000D01*
X133557000Y-76872000D01*
X133557000Y-76892000D01*
X133303000Y-76892000D01*
X133303000Y-76872000D01*
X131017000Y-76872000D01*
X131017000Y-76892000D01*
X130763000Y-76892000D01*
X130763000Y-76872000D01*
X128477000Y-76872000D01*
X128477000Y-76892000D01*
X128223000Y-76892000D01*
X128223000Y-76872000D01*
X125937000Y-76872000D01*
X125937000Y-76892000D01*
X125683000Y-76892000D01*
X125683000Y-76872000D01*
X123397000Y-76872000D01*
X123397000Y-76892000D01*
X123143000Y-76892000D01*
X123143000Y-76872000D01*
X120857000Y-76872000D01*
X120857000Y-76892000D01*
X120603000Y-76892000D01*
X120603000Y-76872000D01*
X119409186Y-76872000D01*
X119288519Y-77101891D01*
X119385843Y-77376252D01*
X119534822Y-77626355D01*
X119711626Y-77822502D01*
X119635820Y-77845498D01*
X119525506Y-77904463D01*
X119428815Y-77983815D01*
X119349463Y-78080506D01*
X119290498Y-78190820D01*
X119254188Y-78310518D01*
X119241928Y-78435000D01*
X115488072Y-78435000D01*
X115488072Y-77300000D01*
X115475812Y-77175518D01*
X115439502Y-77055820D01*
X115380537Y-76945506D01*
X115301185Y-76848815D01*
X115204494Y-76769463D01*
X115094180Y-76710498D01*
X115075873Y-76704944D01*
X115142312Y-76638505D01*
X115309621Y-76388109D01*
X119288519Y-76388109D01*
X119409186Y-76618000D01*
X120603000Y-76618000D01*
X120603000Y-75424845D01*
X120857000Y-75424845D01*
X120857000Y-76618000D01*
X123143000Y-76618000D01*
X123143000Y-75424845D01*
X123397000Y-75424845D01*
X123397000Y-76618000D01*
X125683000Y-76618000D01*
X125683000Y-75424845D01*
X125937000Y-75424845D01*
X125937000Y-76618000D01*
X128223000Y-76618000D01*
X128223000Y-75424845D01*
X128477000Y-75424845D01*
X128477000Y-76618000D01*
X130763000Y-76618000D01*
X130763000Y-75424845D01*
X131017000Y-75424845D01*
X131017000Y-76618000D01*
X133303000Y-76618000D01*
X133303000Y-75424845D01*
X133557000Y-75424845D01*
X133557000Y-76618000D01*
X134750814Y-76618000D01*
X134871481Y-76388109D01*
X139608519Y-76388109D01*
X139729186Y-76618000D01*
X140923000Y-76618000D01*
X140923000Y-75424845D01*
X141177000Y-75424845D01*
X141177000Y-76618000D01*
X143463000Y-76618000D01*
X143463000Y-75424845D01*
X143717000Y-75424845D01*
X143717000Y-76618000D01*
X146003000Y-76618000D01*
X146003000Y-75424845D01*
X145773110Y-75303524D01*
X145625901Y-75348175D01*
X145363080Y-75473359D01*
X145129731Y-75647412D01*
X144934822Y-75863645D01*
X144860000Y-75989255D01*
X144785178Y-75863645D01*
X144590269Y-75647412D01*
X144356920Y-75473359D01*
X144094099Y-75348175D01*
X143946890Y-75303524D01*
X143717000Y-75424845D01*
X143463000Y-75424845D01*
X143233110Y-75303524D01*
X143085901Y-75348175D01*
X142823080Y-75473359D01*
X142589731Y-75647412D01*
X142394822Y-75863645D01*
X142320000Y-75989255D01*
X142245178Y-75863645D01*
X142050269Y-75647412D01*
X141816920Y-75473359D01*
X141554099Y-75348175D01*
X141406890Y-75303524D01*
X141177000Y-75424845D01*
X140923000Y-75424845D01*
X140693110Y-75303524D01*
X140545901Y-75348175D01*
X140283080Y-75473359D01*
X140049731Y-75647412D01*
X139854822Y-75863645D01*
X139705843Y-76113748D01*
X139608519Y-76388109D01*
X134871481Y-76388109D01*
X134774157Y-76113748D01*
X134625178Y-75863645D01*
X134430269Y-75647412D01*
X134196920Y-75473359D01*
X133934099Y-75348175D01*
X133786890Y-75303524D01*
X133557000Y-75424845D01*
X133303000Y-75424845D01*
X133073110Y-75303524D01*
X132925901Y-75348175D01*
X132663080Y-75473359D01*
X132429731Y-75647412D01*
X132234822Y-75863645D01*
X132160000Y-75989255D01*
X132085178Y-75863645D01*
X131890269Y-75647412D01*
X131656920Y-75473359D01*
X131394099Y-75348175D01*
X131246890Y-75303524D01*
X131017000Y-75424845D01*
X130763000Y-75424845D01*
X130533110Y-75303524D01*
X130385901Y-75348175D01*
X130123080Y-75473359D01*
X129889731Y-75647412D01*
X129694822Y-75863645D01*
X129620000Y-75989255D01*
X129545178Y-75863645D01*
X129350269Y-75647412D01*
X129116920Y-75473359D01*
X128854099Y-75348175D01*
X128706890Y-75303524D01*
X128477000Y-75424845D01*
X128223000Y-75424845D01*
X127993110Y-75303524D01*
X127845901Y-75348175D01*
X127583080Y-75473359D01*
X127349731Y-75647412D01*
X127154822Y-75863645D01*
X127080000Y-75989255D01*
X127005178Y-75863645D01*
X126810269Y-75647412D01*
X126576920Y-75473359D01*
X126314099Y-75348175D01*
X126166890Y-75303524D01*
X125937000Y-75424845D01*
X125683000Y-75424845D01*
X125453110Y-75303524D01*
X125305901Y-75348175D01*
X125043080Y-75473359D01*
X124809731Y-75647412D01*
X124614822Y-75863645D01*
X124540000Y-75989255D01*
X124465178Y-75863645D01*
X124270269Y-75647412D01*
X124036920Y-75473359D01*
X123774099Y-75348175D01*
X123626890Y-75303524D01*
X123397000Y-75424845D01*
X123143000Y-75424845D01*
X122913110Y-75303524D01*
X122765901Y-75348175D01*
X122503080Y-75473359D01*
X122269731Y-75647412D01*
X122074822Y-75863645D01*
X122000000Y-75989255D01*
X121925178Y-75863645D01*
X121730269Y-75647412D01*
X121496920Y-75473359D01*
X121234099Y-75348175D01*
X121086890Y-75303524D01*
X120857000Y-75424845D01*
X120603000Y-75424845D01*
X120373110Y-75303524D01*
X120225901Y-75348175D01*
X119963080Y-75473359D01*
X119729731Y-75647412D01*
X119534822Y-75863645D01*
X119385843Y-76113748D01*
X119288519Y-76388109D01*
X115309621Y-76388109D01*
X115310299Y-76387095D01*
X115426011Y-76107743D01*
X115485000Y-75811184D01*
X115485000Y-75508816D01*
X115426011Y-75212257D01*
X115310299Y-74932905D01*
X115142312Y-74681495D01*
X114928505Y-74467688D01*
X114677095Y-74299701D01*
X114397743Y-74183989D01*
X114101184Y-74125000D01*
X113798816Y-74125000D01*
X113502257Y-74183989D01*
X113222905Y-74299701D01*
X112971495Y-74467688D01*
X112757688Y-74681495D01*
X112589701Y-74932905D01*
X112473989Y-75212257D01*
X112415000Y-75508816D01*
X112415000Y-75811184D01*
X112473989Y-76107743D01*
X112589701Y-76387095D01*
X112757688Y-76638505D01*
X112824127Y-76704944D01*
X112805820Y-76710498D01*
X112695506Y-76769463D01*
X112598815Y-76848815D01*
X112519463Y-76945506D01*
X112460498Y-77055820D01*
X112424188Y-77175518D01*
X112411928Y-77300000D01*
X110360000Y-77300000D01*
X110360000Y-73360000D01*
X159040000Y-73360000D01*
X159040001Y-115262531D01*
%TD*%
M02*
