%TF.GenerationSoftware,KiCad,Pcbnew,(5.1.6)-1*%
%TF.CreationDate,2020-11-19T20:50:07+01:00*%
%TF.ProjectId,F373RCT6_MSDB,46333733-5243-4543-965f-4d5344422e6b,rev?*%
%TF.SameCoordinates,Original*%
%TF.FileFunction,Legend,Top*%
%TF.FilePolarity,Positive*%
%FSLAX46Y46*%
G04 Gerber Fmt 4.6, Leading zero omitted, Abs format (unit mm)*
G04 Created by KiCad (PCBNEW (5.1.6)-1) date 2020-11-19 20:50:07*
%MOMM*%
%LPD*%
G01*
G04 APERTURE LIST*
%ADD10C,0.150000*%
%ADD11C,0.120000*%
G04 APERTURE END LIST*
D10*
X123337976Y-110654761D02*
X123480833Y-110702380D01*
X123718928Y-110702380D01*
X123814166Y-110654761D01*
X123861785Y-110607142D01*
X123909404Y-110511904D01*
X123909404Y-110416666D01*
X123861785Y-110321428D01*
X123814166Y-110273809D01*
X123718928Y-110226190D01*
X123528452Y-110178571D01*
X123433214Y-110130952D01*
X123385595Y-110083333D01*
X123337976Y-109988095D01*
X123337976Y-109892857D01*
X123385595Y-109797619D01*
X123433214Y-109750000D01*
X123528452Y-109702380D01*
X123766547Y-109702380D01*
X123909404Y-109750000D01*
X124195119Y-109702380D02*
X124766547Y-109702380D01*
X124480833Y-110702380D02*
X124480833Y-109702380D01*
X125099880Y-110702380D02*
X125099880Y-109702380D01*
X125433214Y-110416666D01*
X125766547Y-109702380D01*
X125766547Y-110702380D01*
X126147500Y-109702380D02*
X126766547Y-109702380D01*
X126433214Y-110083333D01*
X126576071Y-110083333D01*
X126671309Y-110130952D01*
X126718928Y-110178571D01*
X126766547Y-110273809D01*
X126766547Y-110511904D01*
X126718928Y-110607142D01*
X126671309Y-110654761D01*
X126576071Y-110702380D01*
X126290357Y-110702380D01*
X126195119Y-110654761D01*
X126147500Y-110607142D01*
X127147500Y-109797619D02*
X127195119Y-109750000D01*
X127290357Y-109702380D01*
X127528452Y-109702380D01*
X127623690Y-109750000D01*
X127671309Y-109797619D01*
X127718928Y-109892857D01*
X127718928Y-109988095D01*
X127671309Y-110130952D01*
X127099880Y-110702380D01*
X127718928Y-110702380D01*
X129242738Y-110178571D02*
X128909404Y-110178571D01*
X128909404Y-110702380D02*
X128909404Y-109702380D01*
X129385595Y-109702380D01*
X129671309Y-109702380D02*
X130290357Y-109702380D01*
X129957023Y-110083333D01*
X130099880Y-110083333D01*
X130195119Y-110130952D01*
X130242738Y-110178571D01*
X130290357Y-110273809D01*
X130290357Y-110511904D01*
X130242738Y-110607142D01*
X130195119Y-110654761D01*
X130099880Y-110702380D01*
X129814166Y-110702380D01*
X129718928Y-110654761D01*
X129671309Y-110607142D01*
X130623690Y-109702380D02*
X131290357Y-109702380D01*
X130861785Y-110702380D01*
X131576071Y-109702380D02*
X132195119Y-109702380D01*
X131861785Y-110083333D01*
X132004642Y-110083333D01*
X132099880Y-110130952D01*
X132147500Y-110178571D01*
X132195119Y-110273809D01*
X132195119Y-110511904D01*
X132147500Y-110607142D01*
X132099880Y-110654761D01*
X132004642Y-110702380D01*
X131718928Y-110702380D01*
X131623690Y-110654761D01*
X131576071Y-110607142D01*
X133957023Y-110702380D02*
X133623690Y-110226190D01*
X133385595Y-110702380D02*
X133385595Y-109702380D01*
X133766547Y-109702380D01*
X133861785Y-109750000D01*
X133909404Y-109797619D01*
X133957023Y-109892857D01*
X133957023Y-110035714D01*
X133909404Y-110130952D01*
X133861785Y-110178571D01*
X133766547Y-110226190D01*
X133385595Y-110226190D01*
X134957023Y-110607142D02*
X134909404Y-110654761D01*
X134766547Y-110702380D01*
X134671309Y-110702380D01*
X134528452Y-110654761D01*
X134433214Y-110559523D01*
X134385595Y-110464285D01*
X134337976Y-110273809D01*
X134337976Y-110130952D01*
X134385595Y-109940476D01*
X134433214Y-109845238D01*
X134528452Y-109750000D01*
X134671309Y-109702380D01*
X134766547Y-109702380D01*
X134909404Y-109750000D01*
X134957023Y-109797619D01*
X135242738Y-109702380D02*
X135814166Y-109702380D01*
X135528452Y-110702380D02*
X135528452Y-109702380D01*
X136576071Y-109702380D02*
X136385595Y-109702380D01*
X136290357Y-109750000D01*
X136242738Y-109797619D01*
X136147500Y-109940476D01*
X136099880Y-110130952D01*
X136099880Y-110511904D01*
X136147500Y-110607142D01*
X136195119Y-110654761D01*
X136290357Y-110702380D01*
X136480833Y-110702380D01*
X136576071Y-110654761D01*
X136623690Y-110607142D01*
X136671309Y-110511904D01*
X136671309Y-110273809D01*
X136623690Y-110178571D01*
X136576071Y-110130952D01*
X136480833Y-110083333D01*
X136290357Y-110083333D01*
X136195119Y-110130952D01*
X136147500Y-110178571D01*
X136099880Y-110273809D01*
X123385595Y-112352380D02*
X123385595Y-111352380D01*
X123718928Y-112066666D01*
X124052261Y-111352380D01*
X124052261Y-112352380D01*
X124528452Y-112352380D02*
X124528452Y-111685714D01*
X124528452Y-111352380D02*
X124480833Y-111400000D01*
X124528452Y-111447619D01*
X124576071Y-111400000D01*
X124528452Y-111352380D01*
X124528452Y-111447619D01*
X125004642Y-111685714D02*
X125004642Y-112352380D01*
X125004642Y-111780952D02*
X125052261Y-111733333D01*
X125147500Y-111685714D01*
X125290357Y-111685714D01*
X125385595Y-111733333D01*
X125433214Y-111828571D01*
X125433214Y-112352380D01*
X125909404Y-112352380D02*
X125909404Y-111685714D01*
X125909404Y-111352380D02*
X125861785Y-111400000D01*
X125909404Y-111447619D01*
X125957023Y-111400000D01*
X125909404Y-111352380D01*
X125909404Y-111447619D01*
X126385595Y-112352380D02*
X126385595Y-111685714D01*
X126385595Y-111780952D02*
X126433214Y-111733333D01*
X126528452Y-111685714D01*
X126671309Y-111685714D01*
X126766547Y-111733333D01*
X126814166Y-111828571D01*
X126814166Y-112352380D01*
X126814166Y-111828571D02*
X126861785Y-111733333D01*
X126957023Y-111685714D01*
X127099880Y-111685714D01*
X127195119Y-111733333D01*
X127242738Y-111828571D01*
X127242738Y-112352380D01*
X128147500Y-111685714D02*
X128147500Y-112352380D01*
X127718928Y-111685714D02*
X127718928Y-112209523D01*
X127766547Y-112304761D01*
X127861785Y-112352380D01*
X128004642Y-112352380D01*
X128099880Y-112304761D01*
X128147500Y-112257142D01*
X128623690Y-112352380D02*
X128623690Y-111685714D01*
X128623690Y-111780952D02*
X128671309Y-111733333D01*
X128766547Y-111685714D01*
X128909404Y-111685714D01*
X129004642Y-111733333D01*
X129052261Y-111828571D01*
X129052261Y-112352380D01*
X129052261Y-111828571D02*
X129099880Y-111733333D01*
X129195119Y-111685714D01*
X129337976Y-111685714D01*
X129433214Y-111733333D01*
X129480833Y-111828571D01*
X129480833Y-112352380D01*
X130671309Y-112304761D02*
X130766547Y-112352380D01*
X130957023Y-112352380D01*
X131052261Y-112304761D01*
X131099880Y-112209523D01*
X131099880Y-112161904D01*
X131052261Y-112066666D01*
X130957023Y-112019047D01*
X130814166Y-112019047D01*
X130718928Y-111971428D01*
X130671309Y-111876190D01*
X130671309Y-111828571D01*
X130718928Y-111733333D01*
X130814166Y-111685714D01*
X130957023Y-111685714D01*
X131052261Y-111733333D01*
X131433214Y-111685714D02*
X131671309Y-112352380D01*
X131909404Y-111685714D02*
X131671309Y-112352380D01*
X131576071Y-112590476D01*
X131528452Y-112638095D01*
X131433214Y-112685714D01*
X132242738Y-112304761D02*
X132337976Y-112352380D01*
X132528452Y-112352380D01*
X132623690Y-112304761D01*
X132671309Y-112209523D01*
X132671309Y-112161904D01*
X132623690Y-112066666D01*
X132528452Y-112019047D01*
X132385595Y-112019047D01*
X132290357Y-111971428D01*
X132242738Y-111876190D01*
X132242738Y-111828571D01*
X132290357Y-111733333D01*
X132385595Y-111685714D01*
X132528452Y-111685714D01*
X132623690Y-111733333D01*
X132957023Y-111685714D02*
X133337976Y-111685714D01*
X133099880Y-111352380D02*
X133099880Y-112209523D01*
X133147500Y-112304761D01*
X133242738Y-112352380D01*
X133337976Y-112352380D01*
X134052261Y-112304761D02*
X133957023Y-112352380D01*
X133766547Y-112352380D01*
X133671309Y-112304761D01*
X133623690Y-112209523D01*
X133623690Y-111828571D01*
X133671309Y-111733333D01*
X133766547Y-111685714D01*
X133957023Y-111685714D01*
X134052261Y-111733333D01*
X134099880Y-111828571D01*
X134099880Y-111923809D01*
X133623690Y-112019047D01*
X134528452Y-112352380D02*
X134528452Y-111685714D01*
X134528452Y-111780952D02*
X134576071Y-111733333D01*
X134671309Y-111685714D01*
X134814166Y-111685714D01*
X134909404Y-111733333D01*
X134957023Y-111828571D01*
X134957023Y-112352380D01*
X134957023Y-111828571D02*
X135004642Y-111733333D01*
X135099880Y-111685714D01*
X135242738Y-111685714D01*
X135337976Y-111733333D01*
X135385595Y-111828571D01*
X135385595Y-112352380D01*
X123814166Y-114002380D02*
X123814166Y-113002380D01*
X123814166Y-113954761D02*
X123718928Y-114002380D01*
X123528452Y-114002380D01*
X123433214Y-113954761D01*
X123385595Y-113907142D01*
X123337976Y-113811904D01*
X123337976Y-113526190D01*
X123385595Y-113430952D01*
X123433214Y-113383333D01*
X123528452Y-113335714D01*
X123718928Y-113335714D01*
X123814166Y-113383333D01*
X124671309Y-113954761D02*
X124576071Y-114002380D01*
X124385595Y-114002380D01*
X124290357Y-113954761D01*
X124242738Y-113859523D01*
X124242738Y-113478571D01*
X124290357Y-113383333D01*
X124385595Y-113335714D01*
X124576071Y-113335714D01*
X124671309Y-113383333D01*
X124718928Y-113478571D01*
X124718928Y-113573809D01*
X124242738Y-113669047D01*
X125052261Y-113335714D02*
X125290357Y-114002380D01*
X125528452Y-113335714D01*
X126290357Y-113954761D02*
X126195119Y-114002380D01*
X126004642Y-114002380D01*
X125909404Y-113954761D01*
X125861785Y-113859523D01*
X125861785Y-113478571D01*
X125909404Y-113383333D01*
X126004642Y-113335714D01*
X126195119Y-113335714D01*
X126290357Y-113383333D01*
X126337976Y-113478571D01*
X126337976Y-113573809D01*
X125861785Y-113669047D01*
X126909404Y-114002380D02*
X126814166Y-113954761D01*
X126766547Y-113859523D01*
X126766547Y-113002380D01*
X127433214Y-114002380D02*
X127337976Y-113954761D01*
X127290357Y-113907142D01*
X127242738Y-113811904D01*
X127242738Y-113526190D01*
X127290357Y-113430952D01*
X127337976Y-113383333D01*
X127433214Y-113335714D01*
X127576071Y-113335714D01*
X127671309Y-113383333D01*
X127718928Y-113430952D01*
X127766547Y-113526190D01*
X127766547Y-113811904D01*
X127718928Y-113907142D01*
X127671309Y-113954761D01*
X127576071Y-114002380D01*
X127433214Y-114002380D01*
X128195119Y-113335714D02*
X128195119Y-114335714D01*
X128195119Y-113383333D02*
X128290357Y-113335714D01*
X128480833Y-113335714D01*
X128576071Y-113383333D01*
X128623690Y-113430952D01*
X128671309Y-113526190D01*
X128671309Y-113811904D01*
X128623690Y-113907142D01*
X128576071Y-113954761D01*
X128480833Y-114002380D01*
X128290357Y-114002380D01*
X128195119Y-113954761D01*
X129099880Y-114002380D02*
X129099880Y-113335714D01*
X129099880Y-113430952D02*
X129147500Y-113383333D01*
X129242738Y-113335714D01*
X129385595Y-113335714D01*
X129480833Y-113383333D01*
X129528452Y-113478571D01*
X129528452Y-114002380D01*
X129528452Y-113478571D02*
X129576071Y-113383333D01*
X129671309Y-113335714D01*
X129814166Y-113335714D01*
X129909404Y-113383333D01*
X129957023Y-113478571D01*
X129957023Y-114002380D01*
X130814166Y-113954761D02*
X130718928Y-114002380D01*
X130528452Y-114002380D01*
X130433214Y-113954761D01*
X130385595Y-113859523D01*
X130385595Y-113478571D01*
X130433214Y-113383333D01*
X130528452Y-113335714D01*
X130718928Y-113335714D01*
X130814166Y-113383333D01*
X130861785Y-113478571D01*
X130861785Y-113573809D01*
X130385595Y-113669047D01*
X131290357Y-113335714D02*
X131290357Y-114002380D01*
X131290357Y-113430952D02*
X131337976Y-113383333D01*
X131433214Y-113335714D01*
X131576071Y-113335714D01*
X131671309Y-113383333D01*
X131718928Y-113478571D01*
X131718928Y-114002380D01*
X132052261Y-113335714D02*
X132433214Y-113335714D01*
X132195119Y-113002380D02*
X132195119Y-113859523D01*
X132242738Y-113954761D01*
X132337976Y-114002380D01*
X132433214Y-114002380D01*
X133528452Y-114002380D02*
X133528452Y-113002380D01*
X133528452Y-113383333D02*
X133623690Y-113335714D01*
X133814166Y-113335714D01*
X133909404Y-113383333D01*
X133957023Y-113430952D01*
X134004642Y-113526190D01*
X134004642Y-113811904D01*
X133957023Y-113907142D01*
X133909404Y-113954761D01*
X133814166Y-114002380D01*
X133623690Y-114002380D01*
X133528452Y-113954761D01*
X134576071Y-114002380D02*
X134480833Y-113954761D01*
X134433214Y-113907142D01*
X134385595Y-113811904D01*
X134385595Y-113526190D01*
X134433214Y-113430952D01*
X134480833Y-113383333D01*
X134576071Y-113335714D01*
X134718928Y-113335714D01*
X134814166Y-113383333D01*
X134861785Y-113430952D01*
X134909404Y-113526190D01*
X134909404Y-113811904D01*
X134861785Y-113907142D01*
X134814166Y-113954761D01*
X134718928Y-114002380D01*
X134576071Y-114002380D01*
X135766547Y-114002380D02*
X135766547Y-113478571D01*
X135718928Y-113383333D01*
X135623690Y-113335714D01*
X135433214Y-113335714D01*
X135337976Y-113383333D01*
X135766547Y-113954761D02*
X135671309Y-114002380D01*
X135433214Y-114002380D01*
X135337976Y-113954761D01*
X135290357Y-113859523D01*
X135290357Y-113764285D01*
X135337976Y-113669047D01*
X135433214Y-113621428D01*
X135671309Y-113621428D01*
X135766547Y-113573809D01*
X136242738Y-114002380D02*
X136242738Y-113335714D01*
X136242738Y-113526190D02*
X136290357Y-113430952D01*
X136337976Y-113383333D01*
X136433214Y-113335714D01*
X136528452Y-113335714D01*
X137290357Y-114002380D02*
X137290357Y-113002380D01*
X137290357Y-113954761D02*
X137195119Y-114002380D01*
X137004642Y-114002380D01*
X136909404Y-113954761D01*
X136861785Y-113907142D01*
X136814166Y-113811904D01*
X136814166Y-113526190D01*
X136861785Y-113430952D01*
X136909404Y-113383333D01*
X137004642Y-113335714D01*
X137195119Y-113335714D01*
X137290357Y-113383333D01*
D11*
%TO.C,SW2*%
X157950000Y-119200000D02*
X157950000Y-117700000D01*
X156700000Y-115200000D02*
X152200000Y-115200000D01*
X150950000Y-117700000D02*
X150950000Y-119200000D01*
X152200000Y-121700000D02*
X156700000Y-121700000D01*
%TO.C,SW1*%
X118450000Y-119200000D02*
X118450000Y-117700000D01*
X117200000Y-115200000D02*
X112700000Y-115200000D01*
X111450000Y-117700000D02*
X111450000Y-119200000D01*
X112700000Y-121700000D02*
X117200000Y-121700000D01*
%TO.C,C19*%
X148937221Y-113910000D02*
X149262779Y-113910000D01*
X148937221Y-112890000D02*
X149262779Y-112890000D01*
%TO.C,C7*%
X118790000Y-112437221D02*
X118790000Y-112762779D01*
X119810000Y-112437221D02*
X119810000Y-112762779D01*
%TO.C,R5*%
X152410000Y-77062779D02*
X152410000Y-76737221D01*
X151390000Y-77062779D02*
X151390000Y-76737221D01*
%TO.C,R4*%
X114862779Y-80190000D02*
X114537221Y-80190000D01*
X114862779Y-81210000D02*
X114537221Y-81210000D01*
%TO.C,D2*%
X156530000Y-78490000D02*
X156686000Y-78490000D01*
X154214000Y-78490000D02*
X154370000Y-78490000D01*
X156529837Y-75888870D02*
G75*
G02*
X156530000Y-77970961I-1079837J-1041130D01*
G01*
X154370163Y-75888870D02*
G75*
G03*
X154370000Y-77970961I1079837J-1041130D01*
G01*
X156528608Y-75257665D02*
G75*
G02*
X156685516Y-78490000I-1078608J-1672335D01*
G01*
X154371392Y-75257665D02*
G75*
G03*
X154214484Y-78490000I1078608J-1672335D01*
G01*
%TO.C,D1*%
X115030000Y-78490000D02*
X115186000Y-78490000D01*
X112714000Y-78490000D02*
X112870000Y-78490000D01*
X115029837Y-75888870D02*
G75*
G02*
X115030000Y-77970961I-1079837J-1041130D01*
G01*
X112870163Y-75888870D02*
G75*
G03*
X112870000Y-77970961I1079837J-1041130D01*
G01*
X115028608Y-75257665D02*
G75*
G02*
X115185516Y-78490000I-1078608J-1672335D01*
G01*
X112871392Y-75257665D02*
G75*
G03*
X112714484Y-78490000I1078608J-1672335D01*
G01*
%TO.C,C9*%
X139362779Y-105390000D02*
X139037221Y-105390000D01*
X139362779Y-106410000D02*
X139037221Y-106410000D01*
%TO.C,C8*%
X139362779Y-106990000D02*
X139037221Y-106990000D01*
X139362779Y-108010000D02*
X139037221Y-108010000D01*
%TO.C,J5*%
X151845000Y-82460000D02*
X153115000Y-82460000D01*
X151845000Y-83730000D02*
X151845000Y-82460000D01*
X154157929Y-112050000D02*
X154612071Y-112050000D01*
X154157929Y-111290000D02*
X154612071Y-111290000D01*
X156697929Y-112050000D02*
X157095000Y-112050000D01*
X156697929Y-111290000D02*
X157095000Y-111290000D01*
X165755000Y-112050000D02*
X159755000Y-112050000D01*
X165755000Y-111290000D02*
X165755000Y-112050000D01*
X159755000Y-111290000D02*
X165755000Y-111290000D01*
X157095000Y-110400000D02*
X159755000Y-110400000D01*
X154157929Y-109510000D02*
X154612071Y-109510000D01*
X154157929Y-108750000D02*
X154612071Y-108750000D01*
X156697929Y-109510000D02*
X157095000Y-109510000D01*
X156697929Y-108750000D02*
X157095000Y-108750000D01*
X165755000Y-109510000D02*
X159755000Y-109510000D01*
X165755000Y-108750000D02*
X165755000Y-109510000D01*
X159755000Y-108750000D02*
X165755000Y-108750000D01*
X157095000Y-107860000D02*
X159755000Y-107860000D01*
X154157929Y-106970000D02*
X154612071Y-106970000D01*
X154157929Y-106210000D02*
X154612071Y-106210000D01*
X156697929Y-106970000D02*
X157095000Y-106970000D01*
X156697929Y-106210000D02*
X157095000Y-106210000D01*
X165755000Y-106970000D02*
X159755000Y-106970000D01*
X165755000Y-106210000D02*
X165755000Y-106970000D01*
X159755000Y-106210000D02*
X165755000Y-106210000D01*
X157095000Y-105320000D02*
X159755000Y-105320000D01*
X154157929Y-104430000D02*
X154612071Y-104430000D01*
X154157929Y-103670000D02*
X154612071Y-103670000D01*
X156697929Y-104430000D02*
X157095000Y-104430000D01*
X156697929Y-103670000D02*
X157095000Y-103670000D01*
X165755000Y-104430000D02*
X159755000Y-104430000D01*
X165755000Y-103670000D02*
X165755000Y-104430000D01*
X159755000Y-103670000D02*
X165755000Y-103670000D01*
X157095000Y-102780000D02*
X159755000Y-102780000D01*
X154157929Y-101890000D02*
X154612071Y-101890000D01*
X154157929Y-101130000D02*
X154612071Y-101130000D01*
X156697929Y-101890000D02*
X157095000Y-101890000D01*
X156697929Y-101130000D02*
X157095000Y-101130000D01*
X165755000Y-101890000D02*
X159755000Y-101890000D01*
X165755000Y-101130000D02*
X165755000Y-101890000D01*
X159755000Y-101130000D02*
X165755000Y-101130000D01*
X157095000Y-100240000D02*
X159755000Y-100240000D01*
X154157929Y-99350000D02*
X154612071Y-99350000D01*
X154157929Y-98590000D02*
X154612071Y-98590000D01*
X156697929Y-99350000D02*
X157095000Y-99350000D01*
X156697929Y-98590000D02*
X157095000Y-98590000D01*
X165755000Y-99350000D02*
X159755000Y-99350000D01*
X165755000Y-98590000D02*
X165755000Y-99350000D01*
X159755000Y-98590000D02*
X165755000Y-98590000D01*
X157095000Y-97700000D02*
X159755000Y-97700000D01*
X154157929Y-96810000D02*
X154612071Y-96810000D01*
X154157929Y-96050000D02*
X154612071Y-96050000D01*
X156697929Y-96810000D02*
X157095000Y-96810000D01*
X156697929Y-96050000D02*
X157095000Y-96050000D01*
X165755000Y-96810000D02*
X159755000Y-96810000D01*
X165755000Y-96050000D02*
X165755000Y-96810000D01*
X159755000Y-96050000D02*
X165755000Y-96050000D01*
X157095000Y-95160000D02*
X159755000Y-95160000D01*
X154157929Y-94270000D02*
X154612071Y-94270000D01*
X154157929Y-93510000D02*
X154612071Y-93510000D01*
X156697929Y-94270000D02*
X157095000Y-94270000D01*
X156697929Y-93510000D02*
X157095000Y-93510000D01*
X165755000Y-94270000D02*
X159755000Y-94270000D01*
X165755000Y-93510000D02*
X165755000Y-94270000D01*
X159755000Y-93510000D02*
X165755000Y-93510000D01*
X157095000Y-92620000D02*
X159755000Y-92620000D01*
X154157929Y-91730000D02*
X154612071Y-91730000D01*
X154157929Y-90970000D02*
X154612071Y-90970000D01*
X156697929Y-91730000D02*
X157095000Y-91730000D01*
X156697929Y-90970000D02*
X157095000Y-90970000D01*
X165755000Y-91730000D02*
X159755000Y-91730000D01*
X165755000Y-90970000D02*
X165755000Y-91730000D01*
X159755000Y-90970000D02*
X165755000Y-90970000D01*
X157095000Y-90080000D02*
X159755000Y-90080000D01*
X154157929Y-89190000D02*
X154612071Y-89190000D01*
X154157929Y-88430000D02*
X154612071Y-88430000D01*
X156697929Y-89190000D02*
X157095000Y-89190000D01*
X156697929Y-88430000D02*
X157095000Y-88430000D01*
X165755000Y-89190000D02*
X159755000Y-89190000D01*
X165755000Y-88430000D02*
X165755000Y-89190000D01*
X159755000Y-88430000D02*
X165755000Y-88430000D01*
X157095000Y-87540000D02*
X159755000Y-87540000D01*
X154157929Y-86650000D02*
X154612071Y-86650000D01*
X154157929Y-85890000D02*
X154612071Y-85890000D01*
X156697929Y-86650000D02*
X157095000Y-86650000D01*
X156697929Y-85890000D02*
X157095000Y-85890000D01*
X165755000Y-86650000D02*
X159755000Y-86650000D01*
X165755000Y-85890000D02*
X165755000Y-86650000D01*
X159755000Y-85890000D02*
X165755000Y-85890000D01*
X157095000Y-85000000D02*
X159755000Y-85000000D01*
X154225000Y-84110000D02*
X154612071Y-84110000D01*
X154225000Y-83350000D02*
X154612071Y-83350000D01*
X156697929Y-84110000D02*
X157095000Y-84110000D01*
X156697929Y-83350000D02*
X157095000Y-83350000D01*
X159755000Y-84010000D02*
X165755000Y-84010000D01*
X159755000Y-83890000D02*
X165755000Y-83890000D01*
X159755000Y-83770000D02*
X165755000Y-83770000D01*
X159755000Y-83650000D02*
X165755000Y-83650000D01*
X159755000Y-83530000D02*
X165755000Y-83530000D01*
X159755000Y-83410000D02*
X165755000Y-83410000D01*
X165755000Y-84110000D02*
X159755000Y-84110000D01*
X165755000Y-83350000D02*
X165755000Y-84110000D01*
X159755000Y-83350000D02*
X165755000Y-83350000D01*
X159755000Y-82400000D02*
X157095000Y-82400000D01*
X159755000Y-113000000D02*
X159755000Y-82400000D01*
X157095000Y-113000000D02*
X159755000Y-113000000D01*
X157095000Y-82400000D02*
X157095000Y-113000000D01*
%TO.C,J4*%
X149940000Y-114845000D02*
X149940000Y-116115000D01*
X148670000Y-114845000D02*
X149940000Y-114845000D01*
X120350000Y-117157929D02*
X120350000Y-117612071D01*
X121110000Y-117157929D02*
X121110000Y-117612071D01*
X120350000Y-119697929D02*
X120350000Y-120095000D01*
X121110000Y-119697929D02*
X121110000Y-120095000D01*
X120350000Y-128755000D02*
X120350000Y-122755000D01*
X121110000Y-128755000D02*
X120350000Y-128755000D01*
X121110000Y-122755000D02*
X121110000Y-128755000D01*
X122000000Y-120095000D02*
X122000000Y-122755000D01*
X122890000Y-117157929D02*
X122890000Y-117612071D01*
X123650000Y-117157929D02*
X123650000Y-117612071D01*
X122890000Y-119697929D02*
X122890000Y-120095000D01*
X123650000Y-119697929D02*
X123650000Y-120095000D01*
X122890000Y-128755000D02*
X122890000Y-122755000D01*
X123650000Y-128755000D02*
X122890000Y-128755000D01*
X123650000Y-122755000D02*
X123650000Y-128755000D01*
X124540000Y-120095000D02*
X124540000Y-122755000D01*
X125430000Y-117157929D02*
X125430000Y-117612071D01*
X126190000Y-117157929D02*
X126190000Y-117612071D01*
X125430000Y-119697929D02*
X125430000Y-120095000D01*
X126190000Y-119697929D02*
X126190000Y-120095000D01*
X125430000Y-128755000D02*
X125430000Y-122755000D01*
X126190000Y-128755000D02*
X125430000Y-128755000D01*
X126190000Y-122755000D02*
X126190000Y-128755000D01*
X127080000Y-120095000D02*
X127080000Y-122755000D01*
X127970000Y-117157929D02*
X127970000Y-117612071D01*
X128730000Y-117157929D02*
X128730000Y-117612071D01*
X127970000Y-119697929D02*
X127970000Y-120095000D01*
X128730000Y-119697929D02*
X128730000Y-120095000D01*
X127970000Y-128755000D02*
X127970000Y-122755000D01*
X128730000Y-128755000D02*
X127970000Y-128755000D01*
X128730000Y-122755000D02*
X128730000Y-128755000D01*
X129620000Y-120095000D02*
X129620000Y-122755000D01*
X130510000Y-117157929D02*
X130510000Y-117612071D01*
X131270000Y-117157929D02*
X131270000Y-117612071D01*
X130510000Y-119697929D02*
X130510000Y-120095000D01*
X131270000Y-119697929D02*
X131270000Y-120095000D01*
X130510000Y-128755000D02*
X130510000Y-122755000D01*
X131270000Y-128755000D02*
X130510000Y-128755000D01*
X131270000Y-122755000D02*
X131270000Y-128755000D01*
X132160000Y-120095000D02*
X132160000Y-122755000D01*
X133050000Y-117157929D02*
X133050000Y-117612071D01*
X133810000Y-117157929D02*
X133810000Y-117612071D01*
X133050000Y-119697929D02*
X133050000Y-120095000D01*
X133810000Y-119697929D02*
X133810000Y-120095000D01*
X133050000Y-128755000D02*
X133050000Y-122755000D01*
X133810000Y-128755000D02*
X133050000Y-128755000D01*
X133810000Y-122755000D02*
X133810000Y-128755000D01*
X134700000Y-120095000D02*
X134700000Y-122755000D01*
X135590000Y-117157929D02*
X135590000Y-117612071D01*
X136350000Y-117157929D02*
X136350000Y-117612071D01*
X135590000Y-119697929D02*
X135590000Y-120095000D01*
X136350000Y-119697929D02*
X136350000Y-120095000D01*
X135590000Y-128755000D02*
X135590000Y-122755000D01*
X136350000Y-128755000D02*
X135590000Y-128755000D01*
X136350000Y-122755000D02*
X136350000Y-128755000D01*
X137240000Y-120095000D02*
X137240000Y-122755000D01*
X138130000Y-117157929D02*
X138130000Y-117612071D01*
X138890000Y-117157929D02*
X138890000Y-117612071D01*
X138130000Y-119697929D02*
X138130000Y-120095000D01*
X138890000Y-119697929D02*
X138890000Y-120095000D01*
X138130000Y-128755000D02*
X138130000Y-122755000D01*
X138890000Y-128755000D02*
X138130000Y-128755000D01*
X138890000Y-122755000D02*
X138890000Y-128755000D01*
X139780000Y-120095000D02*
X139780000Y-122755000D01*
X140670000Y-117157929D02*
X140670000Y-117612071D01*
X141430000Y-117157929D02*
X141430000Y-117612071D01*
X140670000Y-119697929D02*
X140670000Y-120095000D01*
X141430000Y-119697929D02*
X141430000Y-120095000D01*
X140670000Y-128755000D02*
X140670000Y-122755000D01*
X141430000Y-128755000D02*
X140670000Y-128755000D01*
X141430000Y-122755000D02*
X141430000Y-128755000D01*
X142320000Y-120095000D02*
X142320000Y-122755000D01*
X143210000Y-117157929D02*
X143210000Y-117612071D01*
X143970000Y-117157929D02*
X143970000Y-117612071D01*
X143210000Y-119697929D02*
X143210000Y-120095000D01*
X143970000Y-119697929D02*
X143970000Y-120095000D01*
X143210000Y-128755000D02*
X143210000Y-122755000D01*
X143970000Y-128755000D02*
X143210000Y-128755000D01*
X143970000Y-122755000D02*
X143970000Y-128755000D01*
X144860000Y-120095000D02*
X144860000Y-122755000D01*
X145750000Y-117157929D02*
X145750000Y-117612071D01*
X146510000Y-117157929D02*
X146510000Y-117612071D01*
X145750000Y-119697929D02*
X145750000Y-120095000D01*
X146510000Y-119697929D02*
X146510000Y-120095000D01*
X145750000Y-128755000D02*
X145750000Y-122755000D01*
X146510000Y-128755000D02*
X145750000Y-128755000D01*
X146510000Y-122755000D02*
X146510000Y-128755000D01*
X147400000Y-120095000D02*
X147400000Y-122755000D01*
X148290000Y-117225000D02*
X148290000Y-117612071D01*
X149050000Y-117225000D02*
X149050000Y-117612071D01*
X148290000Y-119697929D02*
X148290000Y-120095000D01*
X149050000Y-119697929D02*
X149050000Y-120095000D01*
X148390000Y-122755000D02*
X148390000Y-128755000D01*
X148510000Y-122755000D02*
X148510000Y-128755000D01*
X148630000Y-122755000D02*
X148630000Y-128755000D01*
X148750000Y-122755000D02*
X148750000Y-128755000D01*
X148870000Y-122755000D02*
X148870000Y-128755000D01*
X148990000Y-122755000D02*
X148990000Y-128755000D01*
X148290000Y-128755000D02*
X148290000Y-122755000D01*
X149050000Y-128755000D02*
X148290000Y-128755000D01*
X149050000Y-122755000D02*
X149050000Y-128755000D01*
X150000000Y-122755000D02*
X150000000Y-120095000D01*
X119400000Y-122755000D02*
X150000000Y-122755000D01*
X119400000Y-120095000D02*
X119400000Y-122755000D01*
X150000000Y-120095000D02*
X119400000Y-120095000D01*
%TO.C,J3*%
X112305000Y-113000000D02*
X112305000Y-82400000D01*
X112305000Y-82400000D02*
X109645000Y-82400000D01*
X109645000Y-82400000D02*
X109645000Y-113000000D01*
X109645000Y-113000000D02*
X112305000Y-113000000D01*
X109645000Y-112050000D02*
X103645000Y-112050000D01*
X103645000Y-112050000D02*
X103645000Y-111290000D01*
X103645000Y-111290000D02*
X109645000Y-111290000D01*
X109645000Y-111990000D02*
X103645000Y-111990000D01*
X109645000Y-111870000D02*
X103645000Y-111870000D01*
X109645000Y-111750000D02*
X103645000Y-111750000D01*
X109645000Y-111630000D02*
X103645000Y-111630000D01*
X109645000Y-111510000D02*
X103645000Y-111510000D01*
X109645000Y-111390000D02*
X103645000Y-111390000D01*
X112702071Y-112050000D02*
X112305000Y-112050000D01*
X112702071Y-111290000D02*
X112305000Y-111290000D01*
X115175000Y-112050000D02*
X114787929Y-112050000D01*
X115175000Y-111290000D02*
X114787929Y-111290000D01*
X112305000Y-110400000D02*
X109645000Y-110400000D01*
X109645000Y-109510000D02*
X103645000Y-109510000D01*
X103645000Y-109510000D02*
X103645000Y-108750000D01*
X103645000Y-108750000D02*
X109645000Y-108750000D01*
X112702071Y-109510000D02*
X112305000Y-109510000D01*
X112702071Y-108750000D02*
X112305000Y-108750000D01*
X115242071Y-109510000D02*
X114787929Y-109510000D01*
X115242071Y-108750000D02*
X114787929Y-108750000D01*
X112305000Y-107860000D02*
X109645000Y-107860000D01*
X109645000Y-106970000D02*
X103645000Y-106970000D01*
X103645000Y-106970000D02*
X103645000Y-106210000D01*
X103645000Y-106210000D02*
X109645000Y-106210000D01*
X112702071Y-106970000D02*
X112305000Y-106970000D01*
X112702071Y-106210000D02*
X112305000Y-106210000D01*
X115242071Y-106970000D02*
X114787929Y-106970000D01*
X115242071Y-106210000D02*
X114787929Y-106210000D01*
X112305000Y-105320000D02*
X109645000Y-105320000D01*
X109645000Y-104430000D02*
X103645000Y-104430000D01*
X103645000Y-104430000D02*
X103645000Y-103670000D01*
X103645000Y-103670000D02*
X109645000Y-103670000D01*
X112702071Y-104430000D02*
X112305000Y-104430000D01*
X112702071Y-103670000D02*
X112305000Y-103670000D01*
X115242071Y-104430000D02*
X114787929Y-104430000D01*
X115242071Y-103670000D02*
X114787929Y-103670000D01*
X112305000Y-102780000D02*
X109645000Y-102780000D01*
X109645000Y-101890000D02*
X103645000Y-101890000D01*
X103645000Y-101890000D02*
X103645000Y-101130000D01*
X103645000Y-101130000D02*
X109645000Y-101130000D01*
X112702071Y-101890000D02*
X112305000Y-101890000D01*
X112702071Y-101130000D02*
X112305000Y-101130000D01*
X115242071Y-101890000D02*
X114787929Y-101890000D01*
X115242071Y-101130000D02*
X114787929Y-101130000D01*
X112305000Y-100240000D02*
X109645000Y-100240000D01*
X109645000Y-99350000D02*
X103645000Y-99350000D01*
X103645000Y-99350000D02*
X103645000Y-98590000D01*
X103645000Y-98590000D02*
X109645000Y-98590000D01*
X112702071Y-99350000D02*
X112305000Y-99350000D01*
X112702071Y-98590000D02*
X112305000Y-98590000D01*
X115242071Y-99350000D02*
X114787929Y-99350000D01*
X115242071Y-98590000D02*
X114787929Y-98590000D01*
X112305000Y-97700000D02*
X109645000Y-97700000D01*
X109645000Y-96810000D02*
X103645000Y-96810000D01*
X103645000Y-96810000D02*
X103645000Y-96050000D01*
X103645000Y-96050000D02*
X109645000Y-96050000D01*
X112702071Y-96810000D02*
X112305000Y-96810000D01*
X112702071Y-96050000D02*
X112305000Y-96050000D01*
X115242071Y-96810000D02*
X114787929Y-96810000D01*
X115242071Y-96050000D02*
X114787929Y-96050000D01*
X112305000Y-95160000D02*
X109645000Y-95160000D01*
X109645000Y-94270000D02*
X103645000Y-94270000D01*
X103645000Y-94270000D02*
X103645000Y-93510000D01*
X103645000Y-93510000D02*
X109645000Y-93510000D01*
X112702071Y-94270000D02*
X112305000Y-94270000D01*
X112702071Y-93510000D02*
X112305000Y-93510000D01*
X115242071Y-94270000D02*
X114787929Y-94270000D01*
X115242071Y-93510000D02*
X114787929Y-93510000D01*
X112305000Y-92620000D02*
X109645000Y-92620000D01*
X109645000Y-91730000D02*
X103645000Y-91730000D01*
X103645000Y-91730000D02*
X103645000Y-90970000D01*
X103645000Y-90970000D02*
X109645000Y-90970000D01*
X112702071Y-91730000D02*
X112305000Y-91730000D01*
X112702071Y-90970000D02*
X112305000Y-90970000D01*
X115242071Y-91730000D02*
X114787929Y-91730000D01*
X115242071Y-90970000D02*
X114787929Y-90970000D01*
X112305000Y-90080000D02*
X109645000Y-90080000D01*
X109645000Y-89190000D02*
X103645000Y-89190000D01*
X103645000Y-89190000D02*
X103645000Y-88430000D01*
X103645000Y-88430000D02*
X109645000Y-88430000D01*
X112702071Y-89190000D02*
X112305000Y-89190000D01*
X112702071Y-88430000D02*
X112305000Y-88430000D01*
X115242071Y-89190000D02*
X114787929Y-89190000D01*
X115242071Y-88430000D02*
X114787929Y-88430000D01*
X112305000Y-87540000D02*
X109645000Y-87540000D01*
X109645000Y-86650000D02*
X103645000Y-86650000D01*
X103645000Y-86650000D02*
X103645000Y-85890000D01*
X103645000Y-85890000D02*
X109645000Y-85890000D01*
X112702071Y-86650000D02*
X112305000Y-86650000D01*
X112702071Y-85890000D02*
X112305000Y-85890000D01*
X115242071Y-86650000D02*
X114787929Y-86650000D01*
X115242071Y-85890000D02*
X114787929Y-85890000D01*
X112305000Y-85000000D02*
X109645000Y-85000000D01*
X109645000Y-84110000D02*
X103645000Y-84110000D01*
X103645000Y-84110000D02*
X103645000Y-83350000D01*
X103645000Y-83350000D02*
X109645000Y-83350000D01*
X112702071Y-84110000D02*
X112305000Y-84110000D01*
X112702071Y-83350000D02*
X112305000Y-83350000D01*
X115242071Y-84110000D02*
X114787929Y-84110000D01*
X115242071Y-83350000D02*
X114787929Y-83350000D01*
X117555000Y-111670000D02*
X117555000Y-112940000D01*
X117555000Y-112940000D02*
X116285000Y-112940000D01*
%TO.C,J2*%
X119460000Y-80555000D02*
X119460000Y-79285000D01*
X120730000Y-80555000D02*
X119460000Y-80555000D01*
X133810000Y-78242071D02*
X133810000Y-77787929D01*
X133050000Y-78242071D02*
X133050000Y-77787929D01*
X133810000Y-75702071D02*
X133810000Y-75305000D01*
X133050000Y-75702071D02*
X133050000Y-75305000D01*
X133810000Y-66645000D02*
X133810000Y-72645000D01*
X133050000Y-66645000D02*
X133810000Y-66645000D01*
X133050000Y-72645000D02*
X133050000Y-66645000D01*
X132160000Y-75305000D02*
X132160000Y-72645000D01*
X131270000Y-78242071D02*
X131270000Y-77787929D01*
X130510000Y-78242071D02*
X130510000Y-77787929D01*
X131270000Y-75702071D02*
X131270000Y-75305000D01*
X130510000Y-75702071D02*
X130510000Y-75305000D01*
X131270000Y-66645000D02*
X131270000Y-72645000D01*
X130510000Y-66645000D02*
X131270000Y-66645000D01*
X130510000Y-72645000D02*
X130510000Y-66645000D01*
X129620000Y-75305000D02*
X129620000Y-72645000D01*
X128730000Y-78242071D02*
X128730000Y-77787929D01*
X127970000Y-78242071D02*
X127970000Y-77787929D01*
X128730000Y-75702071D02*
X128730000Y-75305000D01*
X127970000Y-75702071D02*
X127970000Y-75305000D01*
X128730000Y-66645000D02*
X128730000Y-72645000D01*
X127970000Y-66645000D02*
X128730000Y-66645000D01*
X127970000Y-72645000D02*
X127970000Y-66645000D01*
X127080000Y-75305000D02*
X127080000Y-72645000D01*
X126190000Y-78242071D02*
X126190000Y-77787929D01*
X125430000Y-78242071D02*
X125430000Y-77787929D01*
X126190000Y-75702071D02*
X126190000Y-75305000D01*
X125430000Y-75702071D02*
X125430000Y-75305000D01*
X126190000Y-66645000D02*
X126190000Y-72645000D01*
X125430000Y-66645000D02*
X126190000Y-66645000D01*
X125430000Y-72645000D02*
X125430000Y-66645000D01*
X124540000Y-75305000D02*
X124540000Y-72645000D01*
X123650000Y-78242071D02*
X123650000Y-77787929D01*
X122890000Y-78242071D02*
X122890000Y-77787929D01*
X123650000Y-75702071D02*
X123650000Y-75305000D01*
X122890000Y-75702071D02*
X122890000Y-75305000D01*
X123650000Y-66645000D02*
X123650000Y-72645000D01*
X122890000Y-66645000D02*
X123650000Y-66645000D01*
X122890000Y-72645000D02*
X122890000Y-66645000D01*
X122000000Y-75305000D02*
X122000000Y-72645000D01*
X121110000Y-78175000D02*
X121110000Y-77787929D01*
X120350000Y-78175000D02*
X120350000Y-77787929D01*
X121110000Y-75702071D02*
X121110000Y-75305000D01*
X120350000Y-75702071D02*
X120350000Y-75305000D01*
X121010000Y-72645000D02*
X121010000Y-66645000D01*
X120890000Y-72645000D02*
X120890000Y-66645000D01*
X120770000Y-72645000D02*
X120770000Y-66645000D01*
X120650000Y-72645000D02*
X120650000Y-66645000D01*
X120530000Y-72645000D02*
X120530000Y-66645000D01*
X120410000Y-72645000D02*
X120410000Y-66645000D01*
X121110000Y-66645000D02*
X121110000Y-72645000D01*
X120350000Y-66645000D02*
X121110000Y-66645000D01*
X120350000Y-72645000D02*
X120350000Y-66645000D01*
X119400000Y-72645000D02*
X119400000Y-75305000D01*
X134760000Y-72645000D02*
X119400000Y-72645000D01*
X134760000Y-75305000D02*
X134760000Y-72645000D01*
X119400000Y-75305000D02*
X134760000Y-75305000D01*
%TO.C,L1*%
X144741422Y-107610000D02*
X145258578Y-107610000D01*
X144741422Y-106190000D02*
X145258578Y-106190000D01*
%TO.C,C18*%
X149090000Y-87637221D02*
X149090000Y-87962779D01*
X150110000Y-87637221D02*
X150110000Y-87962779D01*
%TO.C,C17*%
X149090000Y-83637221D02*
X149090000Y-83962779D01*
X150110000Y-83637221D02*
X150110000Y-83962779D01*
%TO.C,U2*%
X142390000Y-82390000D02*
X142390000Y-83650000D01*
X142390000Y-89210000D02*
X142390000Y-87950000D01*
X146150000Y-82390000D02*
X142390000Y-82390000D01*
X148400000Y-89210000D02*
X142390000Y-89210000D01*
%TO.C,R3*%
X147662779Y-90810000D02*
X147337221Y-90810000D01*
X147662779Y-89790000D02*
X147337221Y-89790000D01*
%TO.C,J1*%
X139720000Y-75305000D02*
X150000000Y-75305000D01*
X150000000Y-75305000D02*
X150000000Y-72645000D01*
X150000000Y-72645000D02*
X139720000Y-72645000D01*
X139720000Y-72645000D02*
X139720000Y-75305000D01*
X140670000Y-72645000D02*
X140670000Y-66645000D01*
X140670000Y-66645000D02*
X141430000Y-66645000D01*
X141430000Y-66645000D02*
X141430000Y-72645000D01*
X140730000Y-72645000D02*
X140730000Y-66645000D01*
X140850000Y-72645000D02*
X140850000Y-66645000D01*
X140970000Y-72645000D02*
X140970000Y-66645000D01*
X141090000Y-72645000D02*
X141090000Y-66645000D01*
X141210000Y-72645000D02*
X141210000Y-66645000D01*
X141330000Y-72645000D02*
X141330000Y-66645000D01*
X140670000Y-75702071D02*
X140670000Y-75305000D01*
X141430000Y-75702071D02*
X141430000Y-75305000D01*
X140670000Y-78175000D02*
X140670000Y-77787929D01*
X141430000Y-78175000D02*
X141430000Y-77787929D01*
X142320000Y-75305000D02*
X142320000Y-72645000D01*
X143210000Y-72645000D02*
X143210000Y-66645000D01*
X143210000Y-66645000D02*
X143970000Y-66645000D01*
X143970000Y-66645000D02*
X143970000Y-72645000D01*
X143210000Y-75702071D02*
X143210000Y-75305000D01*
X143970000Y-75702071D02*
X143970000Y-75305000D01*
X143210000Y-78242071D02*
X143210000Y-77787929D01*
X143970000Y-78242071D02*
X143970000Y-77787929D01*
X144860000Y-75305000D02*
X144860000Y-72645000D01*
X145750000Y-72645000D02*
X145750000Y-66645000D01*
X145750000Y-66645000D02*
X146510000Y-66645000D01*
X146510000Y-66645000D02*
X146510000Y-72645000D01*
X145750000Y-75702071D02*
X145750000Y-75305000D01*
X146510000Y-75702071D02*
X146510000Y-75305000D01*
X145750000Y-78242071D02*
X145750000Y-77787929D01*
X146510000Y-78242071D02*
X146510000Y-77787929D01*
X147400000Y-75305000D02*
X147400000Y-72645000D01*
X148290000Y-72645000D02*
X148290000Y-66645000D01*
X148290000Y-66645000D02*
X149050000Y-66645000D01*
X149050000Y-66645000D02*
X149050000Y-72645000D01*
X148290000Y-75702071D02*
X148290000Y-75305000D01*
X149050000Y-75702071D02*
X149050000Y-75305000D01*
X148290000Y-78242071D02*
X148290000Y-77787929D01*
X149050000Y-78242071D02*
X149050000Y-77787929D01*
X141050000Y-80555000D02*
X139780000Y-80555000D01*
X139780000Y-80555000D02*
X139780000Y-79285000D01*
%TO.C,Y2*%
X121625000Y-93875000D02*
X121625000Y-92525000D01*
X123375000Y-93875000D02*
X123375000Y-92525000D01*
%TO.C,Y1*%
X120000000Y-95650000D02*
X120000000Y-101400000D01*
X123600000Y-95650000D02*
X120000000Y-95650000D01*
X123600000Y-101400000D02*
X123600000Y-95650000D01*
%TO.C,U1*%
X129590000Y-93540000D02*
X128250000Y-93540000D01*
X129590000Y-92590000D02*
X129590000Y-93540000D01*
X130540000Y-92590000D02*
X129590000Y-92590000D01*
X139810000Y-92590000D02*
X139810000Y-93540000D01*
X138860000Y-92590000D02*
X139810000Y-92590000D01*
X129590000Y-102810000D02*
X129590000Y-101860000D01*
X130540000Y-102810000D02*
X129590000Y-102810000D01*
X139810000Y-102810000D02*
X139810000Y-101860000D01*
X138860000Y-102810000D02*
X139810000Y-102810000D01*
%TO.C,R2*%
X128740000Y-86237221D02*
X128740000Y-86562779D01*
X129760000Y-86237221D02*
X129760000Y-86562779D01*
%TO.C,R1*%
X132590000Y-88037221D02*
X132590000Y-88362779D01*
X133610000Y-88037221D02*
X133610000Y-88362779D01*
%TO.C,JP3*%
X131700000Y-84300000D02*
X134500000Y-84300000D01*
X135150000Y-85000000D02*
X135150000Y-85600000D01*
X134500000Y-86300000D02*
X131700000Y-86300000D01*
X131050000Y-85600000D02*
X131050000Y-85000000D01*
X131900000Y-86500000D02*
X131600000Y-86800000D01*
X131600000Y-86800000D02*
X132200000Y-86800000D01*
X131900000Y-86500000D02*
X132200000Y-86800000D01*
X131050000Y-85000000D02*
G75*
G02*
X131750000Y-84300000I700000J0D01*
G01*
X131750000Y-86300000D02*
G75*
G02*
X131050000Y-85600000I0J700000D01*
G01*
X135150000Y-85600000D02*
G75*
G02*
X134450000Y-86300000I-700000J0D01*
G01*
X134450000Y-84300000D02*
G75*
G02*
X135150000Y-85000000I0J-700000D01*
G01*
%TO.C,JP2*%
X129300000Y-105800000D02*
X129300000Y-108600000D01*
X128600000Y-109250000D02*
X128000000Y-109250000D01*
X127300000Y-108600000D02*
X127300000Y-105800000D01*
X128000000Y-105150000D02*
X128600000Y-105150000D01*
X127100000Y-106000000D02*
X126800000Y-105700000D01*
X126800000Y-105700000D02*
X126800000Y-106300000D01*
X127100000Y-106000000D02*
X126800000Y-106300000D01*
X128600000Y-105150000D02*
G75*
G02*
X129300000Y-105850000I0J-700000D01*
G01*
X127300000Y-105850000D02*
G75*
G02*
X128000000Y-105150000I700000J0D01*
G01*
X128000000Y-109250000D02*
G75*
G02*
X127300000Y-108550000I0J700000D01*
G01*
X129300000Y-108550000D02*
G75*
G02*
X128600000Y-109250000I-700000J0D01*
G01*
%TO.C,JP1*%
X143600000Y-103500000D02*
X146400000Y-103500000D01*
X147050000Y-104200000D02*
X147050000Y-104800000D01*
X146400000Y-105500000D02*
X143600000Y-105500000D01*
X142950000Y-104800000D02*
X142950000Y-104200000D01*
X143800000Y-105700000D02*
X143500000Y-106000000D01*
X143500000Y-106000000D02*
X144100000Y-106000000D01*
X143800000Y-105700000D02*
X144100000Y-106000000D01*
X142950000Y-104200000D02*
G75*
G02*
X143650000Y-103500000I700000J0D01*
G01*
X143650000Y-105500000D02*
G75*
G02*
X142950000Y-104800000I0J700000D01*
G01*
X147050000Y-104800000D02*
G75*
G02*
X146350000Y-105500000I-700000J0D01*
G01*
X146350000Y-103500000D02*
G75*
G02*
X147050000Y-104200000I0J-700000D01*
G01*
%TO.C,C16*%
X148241422Y-107610000D02*
X148758578Y-107610000D01*
X148241422Y-106190000D02*
X148758578Y-106190000D01*
%TO.C,C15*%
X129837221Y-89410000D02*
X130162779Y-89410000D01*
X129837221Y-88390000D02*
X130162779Y-88390000D01*
%TO.C,C14*%
X134110000Y-107362779D02*
X134110000Y-107037221D01*
X133090000Y-107362779D02*
X133090000Y-107037221D01*
%TO.C,C13*%
X131490000Y-107037221D02*
X131490000Y-107362779D01*
X132510000Y-107037221D02*
X132510000Y-107362779D01*
%TO.C,C12*%
X129890000Y-107037221D02*
X129890000Y-107362779D01*
X130910000Y-107037221D02*
X130910000Y-107362779D01*
%TO.C,C11*%
X144837221Y-101310000D02*
X145162779Y-101310000D01*
X144837221Y-100290000D02*
X145162779Y-100290000D01*
%TO.C,C10*%
X144837221Y-102910000D02*
X145162779Y-102910000D01*
X144837221Y-101890000D02*
X145162779Y-101890000D01*
%TO.C,C6*%
X125110000Y-100512779D02*
X125110000Y-100187221D01*
X124090000Y-100512779D02*
X124090000Y-100187221D01*
%TO.C,C5*%
X119862779Y-93990000D02*
X119537221Y-93990000D01*
X119862779Y-95010000D02*
X119537221Y-95010000D01*
%TO.C,C4*%
X119862779Y-91490000D02*
X119537221Y-91490000D01*
X119862779Y-92510000D02*
X119537221Y-92510000D01*
%TO.C,C3*%
X119410000Y-100462779D02*
X119410000Y-100137221D01*
X118390000Y-100462779D02*
X118390000Y-100137221D01*
%TO.C,C2*%
X118390000Y-96937221D02*
X118390000Y-97262779D01*
X119410000Y-96937221D02*
X119410000Y-97262779D01*
%TO.C,C1*%
X126710000Y-100512779D02*
X126710000Y-100187221D01*
X125690000Y-100512779D02*
X125690000Y-100187221D01*
%TD*%
M02*
