%TF.GenerationSoftware,KiCad,Pcbnew,(5.1.6)-1*%
%TF.CreationDate,2020-11-19T20:50:07+01:00*%
%TF.ProjectId,F373RCT6_MSDB,46333733-5243-4543-965f-4d5344422e6b,rev?*%
%TF.SameCoordinates,Original*%
%TF.FileFunction,Soldermask,Bot*%
%TF.FilePolarity,Negative*%
%FSLAX46Y46*%
G04 Gerber Fmt 4.6, Leading zero omitted, Abs format (unit mm)*
G04 Created by KiCad (PCBNEW (5.1.6)-1) date 2020-11-19 20:50:07*
%MOMM*%
%LPD*%
G01*
G04 APERTURE LIST*
%ADD10C,2.100000*%
%ADD11C,1.900000*%
%ADD12R,1.900000X1.900000*%
%ADD13O,1.800000X1.800000*%
%ADD14R,1.800000X1.800000*%
G04 APERTURE END LIST*
D10*
%TO.C,SW2*%
X157700000Y-116200000D03*
X157700000Y-120700000D03*
X151200000Y-116200000D03*
X151200000Y-120700000D03*
%TD*%
%TO.C,SW1*%
X118200000Y-116200000D03*
X118200000Y-120700000D03*
X111700000Y-116200000D03*
X111700000Y-120700000D03*
%TD*%
D11*
%TO.C,D2*%
X155450000Y-75660000D03*
D12*
X155450000Y-78200000D03*
%TD*%
D11*
%TO.C,D1*%
X113950000Y-75660000D03*
D12*
X113950000Y-78200000D03*
%TD*%
D13*
%TO.C,J5*%
X155655000Y-111670000D03*
X153115000Y-111670000D03*
X155655000Y-109130000D03*
X153115000Y-109130000D03*
X155655000Y-106590000D03*
X153115000Y-106590000D03*
X155655000Y-104050000D03*
X153115000Y-104050000D03*
X155655000Y-101510000D03*
X153115000Y-101510000D03*
X155655000Y-98970000D03*
X153115000Y-98970000D03*
X155655000Y-96430000D03*
X153115000Y-96430000D03*
X155655000Y-93890000D03*
X153115000Y-93890000D03*
X155655000Y-91350000D03*
X153115000Y-91350000D03*
X155655000Y-88810000D03*
X153115000Y-88810000D03*
X155655000Y-86270000D03*
X153115000Y-86270000D03*
X155655000Y-83730000D03*
D14*
X153115000Y-83730000D03*
%TD*%
D13*
%TO.C,J4*%
X120730000Y-118655000D03*
X120730000Y-116115000D03*
X123270000Y-118655000D03*
X123270000Y-116115000D03*
X125810000Y-118655000D03*
X125810000Y-116115000D03*
X128350000Y-118655000D03*
X128350000Y-116115000D03*
X130890000Y-118655000D03*
X130890000Y-116115000D03*
X133430000Y-118655000D03*
X133430000Y-116115000D03*
X135970000Y-118655000D03*
X135970000Y-116115000D03*
X138510000Y-118655000D03*
X138510000Y-116115000D03*
X141050000Y-118655000D03*
X141050000Y-116115000D03*
X143590000Y-118655000D03*
X143590000Y-116115000D03*
X146130000Y-118655000D03*
X146130000Y-116115000D03*
X148670000Y-118655000D03*
D14*
X148670000Y-116115000D03*
%TD*%
%TO.C,J3*%
X116285000Y-111670000D03*
D13*
X113745000Y-111670000D03*
X116285000Y-109130000D03*
X113745000Y-109130000D03*
X116285000Y-106590000D03*
X113745000Y-106590000D03*
X116285000Y-104050000D03*
X113745000Y-104050000D03*
X116285000Y-101510000D03*
X113745000Y-101510000D03*
X116285000Y-98970000D03*
X113745000Y-98970000D03*
X116285000Y-96430000D03*
X113745000Y-96430000D03*
X116285000Y-93890000D03*
X113745000Y-93890000D03*
X116285000Y-91350000D03*
X113745000Y-91350000D03*
X116285000Y-88810000D03*
X113745000Y-88810000D03*
X116285000Y-86270000D03*
X113745000Y-86270000D03*
X116285000Y-83730000D03*
X113745000Y-83730000D03*
%TD*%
%TO.C,J2*%
X133430000Y-76745000D03*
X133430000Y-79285000D03*
X130890000Y-76745000D03*
X130890000Y-79285000D03*
X128350000Y-76745000D03*
X128350000Y-79285000D03*
X125810000Y-76745000D03*
X125810000Y-79285000D03*
X123270000Y-76745000D03*
X123270000Y-79285000D03*
X120730000Y-76745000D03*
D14*
X120730000Y-79285000D03*
%TD*%
D13*
%TO.C,J1*%
X148670000Y-76745000D03*
X148670000Y-79285000D03*
X146130000Y-76745000D03*
X146130000Y-79285000D03*
X143590000Y-76745000D03*
X143590000Y-79285000D03*
X141050000Y-76745000D03*
D14*
X141050000Y-79285000D03*
%TD*%
M02*
