M48
; DRILL file {KiCad (5.1.6)-1} date 11/06/20 14:41:22
; FORMAT={-:-/ absolute / inch / decimal}
; #@! TF.CreationDate,2020-11-06T14:41:22+01:00
; #@! TF.GenerationSoftware,Kicad,Pcbnew,(5.1.6)-1
; #@! TF.FileFunction,Plated,1,2,PTH
FMAT,2
INCH
T1C0.0157
T2C0.0300
T3C0.0394
T4C0.0472
T5C0.0512
%
G90
G05
T1
X3.9843Y-4.6063
X4.6949Y-4.6063
X5.4016Y-4.6063
X6.1102Y-4.6063
X6.6693Y-4.4843
X6.9882Y-4.3898
X7.378Y-4.4843
X7.6969Y-4.3898
X8.0866Y-4.4843
X8.4055Y-4.3898
T2
X5.9449Y-3.5689
X5.9449Y-4.0689
X3.8189Y-3.5689
X3.8189Y-4.0689
X5.2362Y-3.5689
X5.2362Y-4.0689
X4.5276Y-3.5689
X4.5276Y-4.0689
T3
X6.7323Y-5.0394
X6.7323Y-5.1394
X5.7087Y-4.2913
X5.4724Y-4.2913
X4.0551Y-5.0394
X4.0551Y-5.1394
X4.2933Y-5.0394
X4.2933Y-5.1394
X7.5984Y-5.0394
X7.5984Y-5.1394
X4.7638Y-4.2913
X6.1811Y-4.2913
X5.4724Y-5.0394
X5.4724Y-5.1394
X5.1583Y-5.0394
X5.1583Y-5.1394
X5.315Y-5.0394
X5.315Y-5.1394
X7.9134Y-3.5039
X4.6063Y-5.0394
X4.6063Y-5.1394
X7.126Y-5.0394
X7.126Y-5.1394
X8.3071Y-5.0394
X8.3071Y-5.1394
X8.1496Y-5.0394
X8.1496Y-5.1394
X7.8346Y-5.0394
X7.8346Y-5.1394
X5.0Y-4.2913
X7.2047Y-3.5039
X8.2283Y-3.5039
X6.8898Y-5.0394
X6.8898Y-5.1394
X6.5748Y-5.0394
X6.5748Y-5.1394
X3.8976Y-5.0394
X3.8976Y-5.1394
X7.5197Y-3.5039
X7.4409Y-5.0394
X7.4409Y-5.1394
X6.4173Y-5.0394
X6.4173Y-5.1394
X3.7402Y-5.0394
X3.7402Y-5.1394
X3.5827Y-4.2913
X4.0551Y-4.2913
X4.2913Y-4.2913
X6.1811Y-5.0394
X6.1811Y-5.1394
X6.4961Y-3.5039
X6.811Y-3.5039
X4.7638Y-5.0394
X4.7638Y-5.1394
X3.5827Y-5.0394
X3.5827Y-5.1394
X5.8661Y-5.0394
X5.8661Y-5.1394
X7.9921Y-5.0394
X7.9921Y-5.1394
X7.2835Y-5.0394
X7.2835Y-5.1394
X4.4488Y-5.0394
X4.4488Y-5.1394
X5.0Y-5.0394
X5.0Y-5.1394
X5.7087Y-5.0394
X5.7087Y-5.1394
X6.0236Y-5.0394
X6.0236Y-5.1394
T4
X4.252Y-3.8189
X4.8031Y-3.8189
X5.6693Y-3.8189
X6.2205Y-3.8189
X3.5433Y-3.8189
X4.0945Y-3.8189
X4.9606Y-3.8189
X5.5118Y-3.8189
T5
X5.1378Y-3.1299
X5.3346Y-3.1299
X4.4291Y-3.1299
X4.626Y-3.1299
X7.9724Y-3.1299
X8.1693Y-3.1299
X7.2638Y-3.1299
X7.4606Y-3.1299
X6.5551Y-3.1299
X6.752Y-3.1299
X5.8465Y-3.1299
X6.0433Y-3.1299
X3.7205Y-3.1299
X3.9173Y-3.1299
T0
M30
