%TF.GenerationSoftware,KiCad,Pcbnew,(5.1.6)-1*%
%TF.CreationDate,2020-11-06T14:41:16+01:00*%
%TF.ProjectId,3V_4I_ac_afe,33565f34-495f-4616-935f-6166652e6b69,rev?*%
%TF.SameCoordinates,Original*%
%TF.FileFunction,Legend,Top*%
%TF.FilePolarity,Positive*%
%FSLAX46Y46*%
G04 Gerber Fmt 4.6, Leading zero omitted, Abs format (unit mm)*
G04 Created by KiCad (PCBNEW (5.1.6)-1) date 2020-11-06 14:41:16*
%MOMM*%
%LPD*%
G01*
G04 APERTURE LIST*
%ADD10C,0.500000*%
%ADD11C,0.120000*%
%ADD12C,0.300000*%
%ADD13C,3.300000*%
%ADD14C,2.600000*%
%ADD15C,1.624000*%
%ADD16C,2.700000*%
%ADD17R,2.700000X2.700000*%
%ADD18R,1.800000X1.800000*%
%ADD19O,1.800000X1.800000*%
%ADD20R,1.160000X0.750000*%
%ADD21R,2.200000X2.700000*%
%ADD22R,1.600000X1.100000*%
%ADD23C,0.100000*%
G04 APERTURE END LIST*
D10*
X197428571Y-89904761D02*
X197428571Y-87904761D01*
X198571428Y-89904761D01*
X198571428Y-87904761D01*
X179428571Y-89904761D02*
X179428571Y-87904761D01*
X180571428Y-89904761D01*
X180571428Y-87904761D01*
X161428571Y-89904761D02*
X161428571Y-87904761D01*
X162571428Y-89904761D01*
X162571428Y-87904761D01*
X176619047Y-89904761D02*
X175666666Y-89904761D01*
X175666666Y-87904761D01*
X212619047Y-89904761D02*
X211666666Y-89904761D01*
X211666666Y-87904761D01*
X194619047Y-89904761D02*
X193666666Y-89904761D01*
X193666666Y-87904761D01*
X201904761Y-84404761D02*
X201904761Y-86023809D01*
X202000000Y-86214285D01*
X202095238Y-86309523D01*
X202285714Y-86404761D01*
X202666666Y-86404761D01*
X202857142Y-86309523D01*
X202952380Y-86214285D01*
X203047619Y-86023809D01*
X203047619Y-84404761D01*
X206476190Y-86404761D02*
X205523809Y-86404761D01*
X205523809Y-84404761D01*
X206952380Y-84404761D02*
X208190476Y-84404761D01*
X207523809Y-85166666D01*
X207809523Y-85166666D01*
X208000000Y-85261904D01*
X208095238Y-85357142D01*
X208190476Y-85547619D01*
X208190476Y-86023809D01*
X208095238Y-86214285D01*
X208000000Y-86309523D01*
X207809523Y-86404761D01*
X207238095Y-86404761D01*
X207047619Y-86309523D01*
X206952380Y-86214285D01*
X183904761Y-84404761D02*
X183904761Y-86023809D01*
X184000000Y-86214285D01*
X184095238Y-86309523D01*
X184285714Y-86404761D01*
X184666666Y-86404761D01*
X184857142Y-86309523D01*
X184952380Y-86214285D01*
X185047619Y-86023809D01*
X185047619Y-84404761D01*
X188476190Y-86404761D02*
X187523809Y-86404761D01*
X187523809Y-84404761D01*
X189047619Y-84595238D02*
X189142857Y-84500000D01*
X189333333Y-84404761D01*
X189809523Y-84404761D01*
X190000000Y-84500000D01*
X190095238Y-84595238D01*
X190190476Y-84785714D01*
X190190476Y-84976190D01*
X190095238Y-85261904D01*
X188952380Y-86404761D01*
X190190476Y-86404761D01*
X165904761Y-84404761D02*
X165904761Y-86023809D01*
X166000000Y-86214285D01*
X166095238Y-86309523D01*
X166285714Y-86404761D01*
X166666666Y-86404761D01*
X166857142Y-86309523D01*
X166952380Y-86214285D01*
X167047619Y-86023809D01*
X167047619Y-84404761D01*
X170476190Y-86404761D02*
X169523809Y-86404761D01*
X169523809Y-84404761D01*
X172190476Y-86404761D02*
X171047619Y-86404761D01*
X171619047Y-86404761D02*
X171619047Y-84404761D01*
X171428571Y-84690476D01*
X171238095Y-84880952D01*
X171047619Y-84976190D01*
X112476190Y-86404761D02*
X112476190Y-84404761D01*
X115904761Y-86404761D02*
X114952380Y-86404761D01*
X114952380Y-84404761D01*
X117619047Y-86404761D02*
X116476190Y-86404761D01*
X117047619Y-86404761D02*
X117047619Y-84404761D01*
X116857142Y-84690476D01*
X116666666Y-84880952D01*
X116476190Y-84976190D01*
X148476190Y-86404761D02*
X148476190Y-84404761D01*
X151904761Y-86404761D02*
X150952380Y-86404761D01*
X150952380Y-84404761D01*
X152380952Y-84404761D02*
X153619047Y-84404761D01*
X152952380Y-85166666D01*
X153238095Y-85166666D01*
X153428571Y-85261904D01*
X153523809Y-85357142D01*
X153619047Y-85547619D01*
X153619047Y-86023809D01*
X153523809Y-86214285D01*
X153428571Y-86309523D01*
X153238095Y-86404761D01*
X152666666Y-86404761D01*
X152476190Y-86309523D01*
X152380952Y-86214285D01*
X130476190Y-86404761D02*
X130476190Y-84404761D01*
X133904761Y-86404761D02*
X132952380Y-86404761D01*
X132952380Y-84404761D01*
X134476190Y-84595238D02*
X134571428Y-84500000D01*
X134761904Y-84404761D01*
X135238095Y-84404761D01*
X135428571Y-84500000D01*
X135523809Y-84595238D01*
X135619047Y-84785714D01*
X135619047Y-84976190D01*
X135523809Y-85261904D01*
X134380952Y-86404761D01*
X135619047Y-86404761D01*
X95190476Y-86404761D02*
X95190476Y-84404761D01*
X97666666Y-86404761D02*
X97666666Y-84404761D01*
X98809523Y-86404761D01*
X98809523Y-84404761D01*
D11*
X214000000Y-132000000D02*
X214000000Y-84000000D01*
X196000000Y-132000000D02*
X196000000Y-84000000D01*
X178000000Y-132000000D02*
X178000000Y-84000000D01*
X160000000Y-132000000D02*
X160000000Y-84000000D01*
X142000000Y-132000000D02*
X142000000Y-84000000D01*
X124000000Y-132000000D02*
X124000000Y-84000000D01*
X88000000Y-132000000D02*
X88000000Y-84000000D01*
X106000000Y-132000000D02*
X106000000Y-84000000D01*
D12*
X206178571Y-125571428D02*
X207678571Y-125071428D01*
X206178571Y-124571428D01*
X207678571Y-123214285D02*
X206964285Y-123714285D01*
X207678571Y-124071428D02*
X206178571Y-124071428D01*
X206178571Y-123500000D01*
X206250000Y-123357142D01*
X206321428Y-123285714D01*
X206464285Y-123214285D01*
X206678571Y-123214285D01*
X206821428Y-123285714D01*
X206892857Y-123357142D01*
X206964285Y-123500000D01*
X206964285Y-124071428D01*
X206892857Y-122571428D02*
X206892857Y-122071428D01*
X207678571Y-121857142D02*
X207678571Y-122571428D01*
X206178571Y-122571428D01*
X206178571Y-121857142D01*
X206892857Y-120714285D02*
X206892857Y-121214285D01*
X207678571Y-121214285D02*
X206178571Y-121214285D01*
X206178571Y-120500000D01*
X198178571Y-125642857D02*
X199678571Y-125142857D01*
X198178571Y-124642857D01*
X199678571Y-124142857D02*
X198178571Y-124142857D01*
X198178571Y-123785714D01*
X198250000Y-123571428D01*
X198392857Y-123428571D01*
X198535714Y-123357142D01*
X198821428Y-123285714D01*
X199035714Y-123285714D01*
X199321428Y-123357142D01*
X199464285Y-123428571D01*
X199607142Y-123571428D01*
X199678571Y-123785714D01*
X199678571Y-124142857D01*
X199678571Y-122642857D02*
X198178571Y-122642857D01*
X198178571Y-122285714D01*
X198250000Y-122071428D01*
X198392857Y-121928571D01*
X198535714Y-121857142D01*
X198821428Y-121785714D01*
X199035714Y-121785714D01*
X199321428Y-121857142D01*
X199464285Y-121928571D01*
X199607142Y-122071428D01*
X199678571Y-122285714D01*
X199678571Y-122642857D01*
X199250000Y-121214285D02*
X199250000Y-120500000D01*
X199678571Y-121357142D02*
X198178571Y-120857142D01*
X199678571Y-120357142D01*
X203607142Y-124535714D02*
X203678571Y-124321428D01*
X203678571Y-123964285D01*
X203607142Y-123821428D01*
X203535714Y-123750000D01*
X203392857Y-123678571D01*
X203250000Y-123678571D01*
X203107142Y-123750000D01*
X203035714Y-123821428D01*
X202964285Y-123964285D01*
X202892857Y-124250000D01*
X202821428Y-124392857D01*
X202750000Y-124464285D01*
X202607142Y-124535714D01*
X202464285Y-124535714D01*
X202321428Y-124464285D01*
X202250000Y-124392857D01*
X202178571Y-124250000D01*
X202178571Y-123892857D01*
X202250000Y-123678571D01*
X203678571Y-123035714D02*
X202178571Y-123035714D01*
X202250000Y-121535714D02*
X202178571Y-121678571D01*
X202178571Y-121892857D01*
X202250000Y-122107142D01*
X202392857Y-122250000D01*
X202535714Y-122321428D01*
X202821428Y-122392857D01*
X203035714Y-122392857D01*
X203321428Y-122321428D01*
X203464285Y-122250000D01*
X203607142Y-122107142D01*
X203678571Y-121892857D01*
X203678571Y-121750000D01*
X203607142Y-121535714D01*
X203535714Y-121464285D01*
X203035714Y-121464285D01*
X203035714Y-121750000D01*
X210250000Y-124785714D02*
X210178571Y-124928571D01*
X210178571Y-125142857D01*
X210250000Y-125357142D01*
X210392857Y-125500000D01*
X210535714Y-125571428D01*
X210821428Y-125642857D01*
X211035714Y-125642857D01*
X211321428Y-125571428D01*
X211464285Y-125500000D01*
X211607142Y-125357142D01*
X211678571Y-125142857D01*
X211678571Y-125000000D01*
X211607142Y-124785714D01*
X211535714Y-124714285D01*
X211035714Y-124714285D01*
X211035714Y-125000000D01*
X211678571Y-124071428D02*
X210178571Y-124071428D01*
X211678571Y-123214285D01*
X210178571Y-123214285D01*
X211678571Y-122500000D02*
X210178571Y-122500000D01*
X210178571Y-122142857D01*
X210250000Y-121928571D01*
X210392857Y-121785714D01*
X210535714Y-121714285D01*
X210821428Y-121642857D01*
X211035714Y-121642857D01*
X211321428Y-121714285D01*
X211464285Y-121785714D01*
X211607142Y-121928571D01*
X211678571Y-122142857D01*
X211678571Y-122500000D01*
X211250000Y-121071428D02*
X211250000Y-120357142D01*
X211678571Y-121214285D02*
X210178571Y-120714285D01*
X211678571Y-120214285D01*
X188178571Y-125571428D02*
X189678571Y-125071428D01*
X188178571Y-124571428D01*
X189678571Y-123214285D02*
X188964285Y-123714285D01*
X189678571Y-124071428D02*
X188178571Y-124071428D01*
X188178571Y-123500000D01*
X188250000Y-123357142D01*
X188321428Y-123285714D01*
X188464285Y-123214285D01*
X188678571Y-123214285D01*
X188821428Y-123285714D01*
X188892857Y-123357142D01*
X188964285Y-123500000D01*
X188964285Y-124071428D01*
X188892857Y-122571428D02*
X188892857Y-122071428D01*
X189678571Y-121857142D02*
X189678571Y-122571428D01*
X188178571Y-122571428D01*
X188178571Y-121857142D01*
X188892857Y-120714285D02*
X188892857Y-121214285D01*
X189678571Y-121214285D02*
X188178571Y-121214285D01*
X188178571Y-120500000D01*
X180178571Y-125642857D02*
X181678571Y-125142857D01*
X180178571Y-124642857D01*
X181678571Y-124142857D02*
X180178571Y-124142857D01*
X180178571Y-123785714D01*
X180250000Y-123571428D01*
X180392857Y-123428571D01*
X180535714Y-123357142D01*
X180821428Y-123285714D01*
X181035714Y-123285714D01*
X181321428Y-123357142D01*
X181464285Y-123428571D01*
X181607142Y-123571428D01*
X181678571Y-123785714D01*
X181678571Y-124142857D01*
X181678571Y-122642857D02*
X180178571Y-122642857D01*
X180178571Y-122285714D01*
X180250000Y-122071428D01*
X180392857Y-121928571D01*
X180535714Y-121857142D01*
X180821428Y-121785714D01*
X181035714Y-121785714D01*
X181321428Y-121857142D01*
X181464285Y-121928571D01*
X181607142Y-122071428D01*
X181678571Y-122285714D01*
X181678571Y-122642857D01*
X181250000Y-121214285D02*
X181250000Y-120500000D01*
X181678571Y-121357142D02*
X180178571Y-120857142D01*
X181678571Y-120357142D01*
X185607142Y-124535714D02*
X185678571Y-124321428D01*
X185678571Y-123964285D01*
X185607142Y-123821428D01*
X185535714Y-123750000D01*
X185392857Y-123678571D01*
X185250000Y-123678571D01*
X185107142Y-123750000D01*
X185035714Y-123821428D01*
X184964285Y-123964285D01*
X184892857Y-124250000D01*
X184821428Y-124392857D01*
X184750000Y-124464285D01*
X184607142Y-124535714D01*
X184464285Y-124535714D01*
X184321428Y-124464285D01*
X184250000Y-124392857D01*
X184178571Y-124250000D01*
X184178571Y-123892857D01*
X184250000Y-123678571D01*
X185678571Y-123035714D02*
X184178571Y-123035714D01*
X184250000Y-121535714D02*
X184178571Y-121678571D01*
X184178571Y-121892857D01*
X184250000Y-122107142D01*
X184392857Y-122250000D01*
X184535714Y-122321428D01*
X184821428Y-122392857D01*
X185035714Y-122392857D01*
X185321428Y-122321428D01*
X185464285Y-122250000D01*
X185607142Y-122107142D01*
X185678571Y-121892857D01*
X185678571Y-121750000D01*
X185607142Y-121535714D01*
X185535714Y-121464285D01*
X185035714Y-121464285D01*
X185035714Y-121750000D01*
X192250000Y-124785714D02*
X192178571Y-124928571D01*
X192178571Y-125142857D01*
X192250000Y-125357142D01*
X192392857Y-125500000D01*
X192535714Y-125571428D01*
X192821428Y-125642857D01*
X193035714Y-125642857D01*
X193321428Y-125571428D01*
X193464285Y-125500000D01*
X193607142Y-125357142D01*
X193678571Y-125142857D01*
X193678571Y-125000000D01*
X193607142Y-124785714D01*
X193535714Y-124714285D01*
X193035714Y-124714285D01*
X193035714Y-125000000D01*
X193678571Y-124071428D02*
X192178571Y-124071428D01*
X193678571Y-123214285D01*
X192178571Y-123214285D01*
X193678571Y-122500000D02*
X192178571Y-122500000D01*
X192178571Y-122142857D01*
X192250000Y-121928571D01*
X192392857Y-121785714D01*
X192535714Y-121714285D01*
X192821428Y-121642857D01*
X193035714Y-121642857D01*
X193321428Y-121714285D01*
X193464285Y-121785714D01*
X193607142Y-121928571D01*
X193678571Y-122142857D01*
X193678571Y-122500000D01*
X193250000Y-121071428D02*
X193250000Y-120357142D01*
X193678571Y-121214285D02*
X192178571Y-120714285D01*
X193678571Y-120214285D01*
X170178571Y-125571428D02*
X171678571Y-125071428D01*
X170178571Y-124571428D01*
X171678571Y-123214285D02*
X170964285Y-123714285D01*
X171678571Y-124071428D02*
X170178571Y-124071428D01*
X170178571Y-123500000D01*
X170250000Y-123357142D01*
X170321428Y-123285714D01*
X170464285Y-123214285D01*
X170678571Y-123214285D01*
X170821428Y-123285714D01*
X170892857Y-123357142D01*
X170964285Y-123500000D01*
X170964285Y-124071428D01*
X170892857Y-122571428D02*
X170892857Y-122071428D01*
X171678571Y-121857142D02*
X171678571Y-122571428D01*
X170178571Y-122571428D01*
X170178571Y-121857142D01*
X170892857Y-120714285D02*
X170892857Y-121214285D01*
X171678571Y-121214285D02*
X170178571Y-121214285D01*
X170178571Y-120500000D01*
X162178571Y-125642857D02*
X163678571Y-125142857D01*
X162178571Y-124642857D01*
X163678571Y-124142857D02*
X162178571Y-124142857D01*
X162178571Y-123785714D01*
X162250000Y-123571428D01*
X162392857Y-123428571D01*
X162535714Y-123357142D01*
X162821428Y-123285714D01*
X163035714Y-123285714D01*
X163321428Y-123357142D01*
X163464285Y-123428571D01*
X163607142Y-123571428D01*
X163678571Y-123785714D01*
X163678571Y-124142857D01*
X163678571Y-122642857D02*
X162178571Y-122642857D01*
X162178571Y-122285714D01*
X162250000Y-122071428D01*
X162392857Y-121928571D01*
X162535714Y-121857142D01*
X162821428Y-121785714D01*
X163035714Y-121785714D01*
X163321428Y-121857142D01*
X163464285Y-121928571D01*
X163607142Y-122071428D01*
X163678571Y-122285714D01*
X163678571Y-122642857D01*
X163250000Y-121214285D02*
X163250000Y-120500000D01*
X163678571Y-121357142D02*
X162178571Y-120857142D01*
X163678571Y-120357142D01*
X167607142Y-124535714D02*
X167678571Y-124321428D01*
X167678571Y-123964285D01*
X167607142Y-123821428D01*
X167535714Y-123750000D01*
X167392857Y-123678571D01*
X167250000Y-123678571D01*
X167107142Y-123750000D01*
X167035714Y-123821428D01*
X166964285Y-123964285D01*
X166892857Y-124250000D01*
X166821428Y-124392857D01*
X166750000Y-124464285D01*
X166607142Y-124535714D01*
X166464285Y-124535714D01*
X166321428Y-124464285D01*
X166250000Y-124392857D01*
X166178571Y-124250000D01*
X166178571Y-123892857D01*
X166250000Y-123678571D01*
X167678571Y-123035714D02*
X166178571Y-123035714D01*
X166250000Y-121535714D02*
X166178571Y-121678571D01*
X166178571Y-121892857D01*
X166250000Y-122107142D01*
X166392857Y-122250000D01*
X166535714Y-122321428D01*
X166821428Y-122392857D01*
X167035714Y-122392857D01*
X167321428Y-122321428D01*
X167464285Y-122250000D01*
X167607142Y-122107142D01*
X167678571Y-121892857D01*
X167678571Y-121750000D01*
X167607142Y-121535714D01*
X167535714Y-121464285D01*
X167035714Y-121464285D01*
X167035714Y-121750000D01*
X174250000Y-124785714D02*
X174178571Y-124928571D01*
X174178571Y-125142857D01*
X174250000Y-125357142D01*
X174392857Y-125500000D01*
X174535714Y-125571428D01*
X174821428Y-125642857D01*
X175035714Y-125642857D01*
X175321428Y-125571428D01*
X175464285Y-125500000D01*
X175607142Y-125357142D01*
X175678571Y-125142857D01*
X175678571Y-125000000D01*
X175607142Y-124785714D01*
X175535714Y-124714285D01*
X175035714Y-124714285D01*
X175035714Y-125000000D01*
X175678571Y-124071428D02*
X174178571Y-124071428D01*
X175678571Y-123214285D01*
X174178571Y-123214285D01*
X175678571Y-122500000D02*
X174178571Y-122500000D01*
X174178571Y-122142857D01*
X174250000Y-121928571D01*
X174392857Y-121785714D01*
X174535714Y-121714285D01*
X174821428Y-121642857D01*
X175035714Y-121642857D01*
X175321428Y-121714285D01*
X175464285Y-121785714D01*
X175607142Y-121928571D01*
X175678571Y-122142857D01*
X175678571Y-122500000D01*
X175250000Y-121071428D02*
X175250000Y-120357142D01*
X175678571Y-121214285D02*
X174178571Y-120714285D01*
X175678571Y-120214285D01*
X152178571Y-125571428D02*
X153678571Y-125071428D01*
X152178571Y-124571428D01*
X153678571Y-123214285D02*
X152964285Y-123714285D01*
X153678571Y-124071428D02*
X152178571Y-124071428D01*
X152178571Y-123500000D01*
X152250000Y-123357142D01*
X152321428Y-123285714D01*
X152464285Y-123214285D01*
X152678571Y-123214285D01*
X152821428Y-123285714D01*
X152892857Y-123357142D01*
X152964285Y-123500000D01*
X152964285Y-124071428D01*
X152892857Y-122571428D02*
X152892857Y-122071428D01*
X153678571Y-121857142D02*
X153678571Y-122571428D01*
X152178571Y-122571428D01*
X152178571Y-121857142D01*
X152892857Y-120714285D02*
X152892857Y-121214285D01*
X153678571Y-121214285D02*
X152178571Y-121214285D01*
X152178571Y-120500000D01*
X144178571Y-125642857D02*
X145678571Y-125142857D01*
X144178571Y-124642857D01*
X145678571Y-124142857D02*
X144178571Y-124142857D01*
X144178571Y-123785714D01*
X144250000Y-123571428D01*
X144392857Y-123428571D01*
X144535714Y-123357142D01*
X144821428Y-123285714D01*
X145035714Y-123285714D01*
X145321428Y-123357142D01*
X145464285Y-123428571D01*
X145607142Y-123571428D01*
X145678571Y-123785714D01*
X145678571Y-124142857D01*
X145678571Y-122642857D02*
X144178571Y-122642857D01*
X144178571Y-122285714D01*
X144250000Y-122071428D01*
X144392857Y-121928571D01*
X144535714Y-121857142D01*
X144821428Y-121785714D01*
X145035714Y-121785714D01*
X145321428Y-121857142D01*
X145464285Y-121928571D01*
X145607142Y-122071428D01*
X145678571Y-122285714D01*
X145678571Y-122642857D01*
X145250000Y-121214285D02*
X145250000Y-120500000D01*
X145678571Y-121357142D02*
X144178571Y-120857142D01*
X145678571Y-120357142D01*
X149607142Y-124535714D02*
X149678571Y-124321428D01*
X149678571Y-123964285D01*
X149607142Y-123821428D01*
X149535714Y-123750000D01*
X149392857Y-123678571D01*
X149250000Y-123678571D01*
X149107142Y-123750000D01*
X149035714Y-123821428D01*
X148964285Y-123964285D01*
X148892857Y-124250000D01*
X148821428Y-124392857D01*
X148750000Y-124464285D01*
X148607142Y-124535714D01*
X148464285Y-124535714D01*
X148321428Y-124464285D01*
X148250000Y-124392857D01*
X148178571Y-124250000D01*
X148178571Y-123892857D01*
X148250000Y-123678571D01*
X149678571Y-123035714D02*
X148178571Y-123035714D01*
X148250000Y-121535714D02*
X148178571Y-121678571D01*
X148178571Y-121892857D01*
X148250000Y-122107142D01*
X148392857Y-122250000D01*
X148535714Y-122321428D01*
X148821428Y-122392857D01*
X149035714Y-122392857D01*
X149321428Y-122321428D01*
X149464285Y-122250000D01*
X149607142Y-122107142D01*
X149678571Y-121892857D01*
X149678571Y-121750000D01*
X149607142Y-121535714D01*
X149535714Y-121464285D01*
X149035714Y-121464285D01*
X149035714Y-121750000D01*
X156250000Y-124785714D02*
X156178571Y-124928571D01*
X156178571Y-125142857D01*
X156250000Y-125357142D01*
X156392857Y-125500000D01*
X156535714Y-125571428D01*
X156821428Y-125642857D01*
X157035714Y-125642857D01*
X157321428Y-125571428D01*
X157464285Y-125500000D01*
X157607142Y-125357142D01*
X157678571Y-125142857D01*
X157678571Y-125000000D01*
X157607142Y-124785714D01*
X157535714Y-124714285D01*
X157035714Y-124714285D01*
X157035714Y-125000000D01*
X157678571Y-124071428D02*
X156178571Y-124071428D01*
X157678571Y-123214285D01*
X156178571Y-123214285D01*
X157678571Y-122500000D02*
X156178571Y-122500000D01*
X156178571Y-122142857D01*
X156250000Y-121928571D01*
X156392857Y-121785714D01*
X156535714Y-121714285D01*
X156821428Y-121642857D01*
X157035714Y-121642857D01*
X157321428Y-121714285D01*
X157464285Y-121785714D01*
X157607142Y-121928571D01*
X157678571Y-122142857D01*
X157678571Y-122500000D01*
X157250000Y-121071428D02*
X157250000Y-120357142D01*
X157678571Y-121214285D02*
X156178571Y-120714285D01*
X157678571Y-120214285D01*
X134178571Y-125571428D02*
X135678571Y-125071428D01*
X134178571Y-124571428D01*
X135678571Y-123214285D02*
X134964285Y-123714285D01*
X135678571Y-124071428D02*
X134178571Y-124071428D01*
X134178571Y-123500000D01*
X134250000Y-123357142D01*
X134321428Y-123285714D01*
X134464285Y-123214285D01*
X134678571Y-123214285D01*
X134821428Y-123285714D01*
X134892857Y-123357142D01*
X134964285Y-123500000D01*
X134964285Y-124071428D01*
X134892857Y-122571428D02*
X134892857Y-122071428D01*
X135678571Y-121857142D02*
X135678571Y-122571428D01*
X134178571Y-122571428D01*
X134178571Y-121857142D01*
X134892857Y-120714285D02*
X134892857Y-121214285D01*
X135678571Y-121214285D02*
X134178571Y-121214285D01*
X134178571Y-120500000D01*
X126178571Y-125642857D02*
X127678571Y-125142857D01*
X126178571Y-124642857D01*
X127678571Y-124142857D02*
X126178571Y-124142857D01*
X126178571Y-123785714D01*
X126250000Y-123571428D01*
X126392857Y-123428571D01*
X126535714Y-123357142D01*
X126821428Y-123285714D01*
X127035714Y-123285714D01*
X127321428Y-123357142D01*
X127464285Y-123428571D01*
X127607142Y-123571428D01*
X127678571Y-123785714D01*
X127678571Y-124142857D01*
X127678571Y-122642857D02*
X126178571Y-122642857D01*
X126178571Y-122285714D01*
X126250000Y-122071428D01*
X126392857Y-121928571D01*
X126535714Y-121857142D01*
X126821428Y-121785714D01*
X127035714Y-121785714D01*
X127321428Y-121857142D01*
X127464285Y-121928571D01*
X127607142Y-122071428D01*
X127678571Y-122285714D01*
X127678571Y-122642857D01*
X127250000Y-121214285D02*
X127250000Y-120500000D01*
X127678571Y-121357142D02*
X126178571Y-120857142D01*
X127678571Y-120357142D01*
X131607142Y-124535714D02*
X131678571Y-124321428D01*
X131678571Y-123964285D01*
X131607142Y-123821428D01*
X131535714Y-123750000D01*
X131392857Y-123678571D01*
X131250000Y-123678571D01*
X131107142Y-123750000D01*
X131035714Y-123821428D01*
X130964285Y-123964285D01*
X130892857Y-124250000D01*
X130821428Y-124392857D01*
X130750000Y-124464285D01*
X130607142Y-124535714D01*
X130464285Y-124535714D01*
X130321428Y-124464285D01*
X130250000Y-124392857D01*
X130178571Y-124250000D01*
X130178571Y-123892857D01*
X130250000Y-123678571D01*
X131678571Y-123035714D02*
X130178571Y-123035714D01*
X130250000Y-121535714D02*
X130178571Y-121678571D01*
X130178571Y-121892857D01*
X130250000Y-122107142D01*
X130392857Y-122250000D01*
X130535714Y-122321428D01*
X130821428Y-122392857D01*
X131035714Y-122392857D01*
X131321428Y-122321428D01*
X131464285Y-122250000D01*
X131607142Y-122107142D01*
X131678571Y-121892857D01*
X131678571Y-121750000D01*
X131607142Y-121535714D01*
X131535714Y-121464285D01*
X131035714Y-121464285D01*
X131035714Y-121750000D01*
X138250000Y-124785714D02*
X138178571Y-124928571D01*
X138178571Y-125142857D01*
X138250000Y-125357142D01*
X138392857Y-125500000D01*
X138535714Y-125571428D01*
X138821428Y-125642857D01*
X139035714Y-125642857D01*
X139321428Y-125571428D01*
X139464285Y-125500000D01*
X139607142Y-125357142D01*
X139678571Y-125142857D01*
X139678571Y-125000000D01*
X139607142Y-124785714D01*
X139535714Y-124714285D01*
X139035714Y-124714285D01*
X139035714Y-125000000D01*
X139678571Y-124071428D02*
X138178571Y-124071428D01*
X139678571Y-123214285D01*
X138178571Y-123214285D01*
X139678571Y-122500000D02*
X138178571Y-122500000D01*
X138178571Y-122142857D01*
X138250000Y-121928571D01*
X138392857Y-121785714D01*
X138535714Y-121714285D01*
X138821428Y-121642857D01*
X139035714Y-121642857D01*
X139321428Y-121714285D01*
X139464285Y-121785714D01*
X139607142Y-121928571D01*
X139678571Y-122142857D01*
X139678571Y-122500000D01*
X139250000Y-121071428D02*
X139250000Y-120357142D01*
X139678571Y-121214285D02*
X138178571Y-120714285D01*
X139678571Y-120214285D01*
X116178571Y-125571428D02*
X117678571Y-125071428D01*
X116178571Y-124571428D01*
X117678571Y-123214285D02*
X116964285Y-123714285D01*
X117678571Y-124071428D02*
X116178571Y-124071428D01*
X116178571Y-123500000D01*
X116250000Y-123357142D01*
X116321428Y-123285714D01*
X116464285Y-123214285D01*
X116678571Y-123214285D01*
X116821428Y-123285714D01*
X116892857Y-123357142D01*
X116964285Y-123500000D01*
X116964285Y-124071428D01*
X116892857Y-122571428D02*
X116892857Y-122071428D01*
X117678571Y-121857142D02*
X117678571Y-122571428D01*
X116178571Y-122571428D01*
X116178571Y-121857142D01*
X116892857Y-120714285D02*
X116892857Y-121214285D01*
X117678571Y-121214285D02*
X116178571Y-121214285D01*
X116178571Y-120500000D01*
X108178571Y-125642857D02*
X109678571Y-125142857D01*
X108178571Y-124642857D01*
X109678571Y-124142857D02*
X108178571Y-124142857D01*
X108178571Y-123785714D01*
X108250000Y-123571428D01*
X108392857Y-123428571D01*
X108535714Y-123357142D01*
X108821428Y-123285714D01*
X109035714Y-123285714D01*
X109321428Y-123357142D01*
X109464285Y-123428571D01*
X109607142Y-123571428D01*
X109678571Y-123785714D01*
X109678571Y-124142857D01*
X109678571Y-122642857D02*
X108178571Y-122642857D01*
X108178571Y-122285714D01*
X108250000Y-122071428D01*
X108392857Y-121928571D01*
X108535714Y-121857142D01*
X108821428Y-121785714D01*
X109035714Y-121785714D01*
X109321428Y-121857142D01*
X109464285Y-121928571D01*
X109607142Y-122071428D01*
X109678571Y-122285714D01*
X109678571Y-122642857D01*
X109250000Y-121214285D02*
X109250000Y-120500000D01*
X109678571Y-121357142D02*
X108178571Y-120857142D01*
X109678571Y-120357142D01*
X113607142Y-124535714D02*
X113678571Y-124321428D01*
X113678571Y-123964285D01*
X113607142Y-123821428D01*
X113535714Y-123750000D01*
X113392857Y-123678571D01*
X113250000Y-123678571D01*
X113107142Y-123750000D01*
X113035714Y-123821428D01*
X112964285Y-123964285D01*
X112892857Y-124250000D01*
X112821428Y-124392857D01*
X112750000Y-124464285D01*
X112607142Y-124535714D01*
X112464285Y-124535714D01*
X112321428Y-124464285D01*
X112250000Y-124392857D01*
X112178571Y-124250000D01*
X112178571Y-123892857D01*
X112250000Y-123678571D01*
X113678571Y-123035714D02*
X112178571Y-123035714D01*
X112250000Y-121535714D02*
X112178571Y-121678571D01*
X112178571Y-121892857D01*
X112250000Y-122107142D01*
X112392857Y-122250000D01*
X112535714Y-122321428D01*
X112821428Y-122392857D01*
X113035714Y-122392857D01*
X113321428Y-122321428D01*
X113464285Y-122250000D01*
X113607142Y-122107142D01*
X113678571Y-121892857D01*
X113678571Y-121750000D01*
X113607142Y-121535714D01*
X113535714Y-121464285D01*
X113035714Y-121464285D01*
X113035714Y-121750000D01*
X120250000Y-124785714D02*
X120178571Y-124928571D01*
X120178571Y-125142857D01*
X120250000Y-125357142D01*
X120392857Y-125500000D01*
X120535714Y-125571428D01*
X120821428Y-125642857D01*
X121035714Y-125642857D01*
X121321428Y-125571428D01*
X121464285Y-125500000D01*
X121607142Y-125357142D01*
X121678571Y-125142857D01*
X121678571Y-125000000D01*
X121607142Y-124785714D01*
X121535714Y-124714285D01*
X121035714Y-124714285D01*
X121035714Y-125000000D01*
X121678571Y-124071428D02*
X120178571Y-124071428D01*
X121678571Y-123214285D01*
X120178571Y-123214285D01*
X121678571Y-122500000D02*
X120178571Y-122500000D01*
X120178571Y-122142857D01*
X120250000Y-121928571D01*
X120392857Y-121785714D01*
X120535714Y-121714285D01*
X120821428Y-121642857D01*
X121035714Y-121642857D01*
X121321428Y-121714285D01*
X121464285Y-121785714D01*
X121607142Y-121928571D01*
X121678571Y-122142857D01*
X121678571Y-122500000D01*
X121250000Y-121071428D02*
X121250000Y-120357142D01*
X121678571Y-121214285D02*
X120178571Y-120714285D01*
X121678571Y-120214285D01*
X102250000Y-124785714D02*
X102178571Y-124928571D01*
X102178571Y-125142857D01*
X102250000Y-125357142D01*
X102392857Y-125500000D01*
X102535714Y-125571428D01*
X102821428Y-125642857D01*
X103035714Y-125642857D01*
X103321428Y-125571428D01*
X103464285Y-125500000D01*
X103607142Y-125357142D01*
X103678571Y-125142857D01*
X103678571Y-125000000D01*
X103607142Y-124785714D01*
X103535714Y-124714285D01*
X103035714Y-124714285D01*
X103035714Y-125000000D01*
X103678571Y-124071428D02*
X102178571Y-124071428D01*
X103678571Y-123214285D01*
X102178571Y-123214285D01*
X103678571Y-122500000D02*
X102178571Y-122500000D01*
X102178571Y-122142857D01*
X102250000Y-121928571D01*
X102392857Y-121785714D01*
X102535714Y-121714285D01*
X102821428Y-121642857D01*
X103035714Y-121642857D01*
X103321428Y-121714285D01*
X103464285Y-121785714D01*
X103607142Y-121928571D01*
X103678571Y-122142857D01*
X103678571Y-122500000D01*
X103250000Y-121071428D02*
X103250000Y-120357142D01*
X103678571Y-121214285D02*
X102178571Y-120714285D01*
X103678571Y-120214285D01*
X95607142Y-124535714D02*
X95678571Y-124321428D01*
X95678571Y-123964285D01*
X95607142Y-123821428D01*
X95535714Y-123750000D01*
X95392857Y-123678571D01*
X95250000Y-123678571D01*
X95107142Y-123750000D01*
X95035714Y-123821428D01*
X94964285Y-123964285D01*
X94892857Y-124250000D01*
X94821428Y-124392857D01*
X94750000Y-124464285D01*
X94607142Y-124535714D01*
X94464285Y-124535714D01*
X94321428Y-124464285D01*
X94250000Y-124392857D01*
X94178571Y-124250000D01*
X94178571Y-123892857D01*
X94250000Y-123678571D01*
X95678571Y-123035714D02*
X94178571Y-123035714D01*
X94250000Y-121535714D02*
X94178571Y-121678571D01*
X94178571Y-121892857D01*
X94250000Y-122107142D01*
X94392857Y-122250000D01*
X94535714Y-122321428D01*
X94821428Y-122392857D01*
X95035714Y-122392857D01*
X95321428Y-122321428D01*
X95464285Y-122250000D01*
X95607142Y-122107142D01*
X95678571Y-121892857D01*
X95678571Y-121750000D01*
X95607142Y-121535714D01*
X95535714Y-121464285D01*
X95035714Y-121464285D01*
X95035714Y-121750000D01*
X98178571Y-125571428D02*
X99678571Y-125071428D01*
X98178571Y-124571428D01*
X99678571Y-123214285D02*
X98964285Y-123714285D01*
X99678571Y-124071428D02*
X98178571Y-124071428D01*
X98178571Y-123500000D01*
X98250000Y-123357142D01*
X98321428Y-123285714D01*
X98464285Y-123214285D01*
X98678571Y-123214285D01*
X98821428Y-123285714D01*
X98892857Y-123357142D01*
X98964285Y-123500000D01*
X98964285Y-124071428D01*
X98892857Y-122571428D02*
X98892857Y-122071428D01*
X99678571Y-121857142D02*
X99678571Y-122571428D01*
X98178571Y-122571428D01*
X98178571Y-121857142D01*
X98892857Y-120714285D02*
X98892857Y-121214285D01*
X99678571Y-121214285D02*
X98178571Y-121214285D01*
X98178571Y-120500000D01*
X90178571Y-125642857D02*
X91678571Y-125142857D01*
X90178571Y-124642857D01*
X91678571Y-124142857D02*
X90178571Y-124142857D01*
X90178571Y-123785714D01*
X90250000Y-123571428D01*
X90392857Y-123428571D01*
X90535714Y-123357142D01*
X90821428Y-123285714D01*
X91035714Y-123285714D01*
X91321428Y-123357142D01*
X91464285Y-123428571D01*
X91607142Y-123571428D01*
X91678571Y-123785714D01*
X91678571Y-124142857D01*
X91678571Y-122642857D02*
X90178571Y-122642857D01*
X90178571Y-122285714D01*
X90250000Y-122071428D01*
X90392857Y-121928571D01*
X90535714Y-121857142D01*
X90821428Y-121785714D01*
X91035714Y-121785714D01*
X91321428Y-121857142D01*
X91464285Y-121928571D01*
X91607142Y-122071428D01*
X91678571Y-122285714D01*
X91678571Y-122642857D01*
X91250000Y-121214285D02*
X91250000Y-120500000D01*
X91678571Y-121357142D02*
X90178571Y-120857142D01*
X91678571Y-120357142D01*
D11*
%TO.C,CT3*%
X145500000Y-87500000D02*
X145500000Y-97000000D01*
X156500000Y-87500000D02*
X145500000Y-87500000D01*
X156500000Y-106500000D02*
X156500000Y-87500000D01*
X145500000Y-106500000D02*
X156500000Y-106500000D01*
X145500000Y-97000000D02*
X145500000Y-106500000D01*
%TO.C,J43*%
X101680000Y-79500000D02*
G75*
G03*
X101680000Y-79500000I-2180000J0D01*
G01*
X96680000Y-79500000D02*
G75*
G03*
X96680000Y-79500000I-2180000J0D01*
G01*
X102060000Y-74900000D02*
X91940000Y-74900000D01*
X102060000Y-76000000D02*
X91940000Y-76000000D01*
X102060000Y-83560000D02*
X91940000Y-83560000D01*
X102060000Y-74440000D02*
X91940000Y-74440000D01*
X102060000Y-83560000D02*
X102060000Y-74440000D01*
X91940000Y-83560000D02*
X91940000Y-74440000D01*
X97846000Y-80888000D02*
X97953000Y-80781000D01*
X100782000Y-77953000D02*
X100888000Y-77846000D01*
X98112000Y-81154000D02*
X98219000Y-81047000D01*
X101048000Y-78219000D02*
X101154000Y-78112000D01*
X92846000Y-80888000D02*
X93241000Y-80492000D01*
X95507000Y-78226000D02*
X95887000Y-77846000D01*
X93112000Y-81154000D02*
X93492000Y-80774000D01*
X95758000Y-78508000D02*
X96153000Y-78112000D01*
X102300000Y-74840000D02*
X102300000Y-74200000D01*
X102300000Y-74200000D02*
X101900000Y-74200000D01*
%TO.C,J36*%
X155680000Y-79500000D02*
G75*
G03*
X155680000Y-79500000I-2180000J0D01*
G01*
X150680000Y-79500000D02*
G75*
G03*
X150680000Y-79500000I-2180000J0D01*
G01*
X156060000Y-74900000D02*
X145940000Y-74900000D01*
X156060000Y-76000000D02*
X145940000Y-76000000D01*
X156060000Y-83560000D02*
X145940000Y-83560000D01*
X156060000Y-74440000D02*
X145940000Y-74440000D01*
X156060000Y-83560000D02*
X156060000Y-74440000D01*
X145940000Y-83560000D02*
X145940000Y-74440000D01*
X151846000Y-80888000D02*
X151953000Y-80781000D01*
X154782000Y-77953000D02*
X154888000Y-77846000D01*
X152112000Y-81154000D02*
X152219000Y-81047000D01*
X155048000Y-78219000D02*
X155154000Y-78112000D01*
X146846000Y-80888000D02*
X147241000Y-80492000D01*
X149507000Y-78226000D02*
X149887000Y-77846000D01*
X147112000Y-81154000D02*
X147492000Y-80774000D01*
X149758000Y-78508000D02*
X150153000Y-78112000D01*
X156300000Y-74840000D02*
X156300000Y-74200000D01*
X156300000Y-74200000D02*
X155900000Y-74200000D01*
%TO.C,J29*%
X137680000Y-79500000D02*
G75*
G03*
X137680000Y-79500000I-2180000J0D01*
G01*
X132680000Y-79500000D02*
G75*
G03*
X132680000Y-79500000I-2180000J0D01*
G01*
X138060000Y-74900000D02*
X127940000Y-74900000D01*
X138060000Y-76000000D02*
X127940000Y-76000000D01*
X138060000Y-83560000D02*
X127940000Y-83560000D01*
X138060000Y-74440000D02*
X127940000Y-74440000D01*
X138060000Y-83560000D02*
X138060000Y-74440000D01*
X127940000Y-83560000D02*
X127940000Y-74440000D01*
X133846000Y-80888000D02*
X133953000Y-80781000D01*
X136782000Y-77953000D02*
X136888000Y-77846000D01*
X134112000Y-81154000D02*
X134219000Y-81047000D01*
X137048000Y-78219000D02*
X137154000Y-78112000D01*
X128846000Y-80888000D02*
X129241000Y-80492000D01*
X131507000Y-78226000D02*
X131887000Y-77846000D01*
X129112000Y-81154000D02*
X129492000Y-80774000D01*
X131758000Y-78508000D02*
X132153000Y-78112000D01*
X138300000Y-74840000D02*
X138300000Y-74200000D01*
X138300000Y-74200000D02*
X137900000Y-74200000D01*
%TO.C,J1*%
X119680000Y-79500000D02*
G75*
G03*
X119680000Y-79500000I-2180000J0D01*
G01*
X114680000Y-79500000D02*
G75*
G03*
X114680000Y-79500000I-2180000J0D01*
G01*
X120060000Y-74900000D02*
X109940000Y-74900000D01*
X120060000Y-76000000D02*
X109940000Y-76000000D01*
X120060000Y-83560000D02*
X109940000Y-83560000D01*
X120060000Y-74440000D02*
X109940000Y-74440000D01*
X120060000Y-83560000D02*
X120060000Y-74440000D01*
X109940000Y-83560000D02*
X109940000Y-74440000D01*
X115846000Y-80888000D02*
X115953000Y-80781000D01*
X118782000Y-77953000D02*
X118888000Y-77846000D01*
X116112000Y-81154000D02*
X116219000Y-81047000D01*
X119048000Y-78219000D02*
X119154000Y-78112000D01*
X110846000Y-80888000D02*
X111241000Y-80492000D01*
X113507000Y-78226000D02*
X113887000Y-77846000D01*
X111112000Y-81154000D02*
X111492000Y-80774000D01*
X113758000Y-78508000D02*
X114153000Y-78112000D01*
X120300000Y-74840000D02*
X120300000Y-74200000D01*
X120300000Y-74200000D02*
X119900000Y-74200000D01*
%TO.C,CT4*%
X91500000Y-87500000D02*
X91500000Y-97000000D01*
X102500000Y-87500000D02*
X91500000Y-87500000D01*
X102500000Y-106500000D02*
X102500000Y-87500000D01*
X91500000Y-106500000D02*
X102500000Y-106500000D01*
X91500000Y-97000000D02*
X91500000Y-106500000D01*
%TO.C,CT2*%
X127500000Y-87500000D02*
X127500000Y-97000000D01*
X138500000Y-87500000D02*
X127500000Y-87500000D01*
X138500000Y-106500000D02*
X138500000Y-87500000D01*
X127500000Y-106500000D02*
X138500000Y-106500000D01*
X127500000Y-97000000D02*
X127500000Y-106500000D01*
%TO.C,CT1*%
X109500000Y-87500000D02*
X109500000Y-97000000D01*
X120500000Y-87500000D02*
X109500000Y-87500000D01*
X120500000Y-106500000D02*
X120500000Y-87500000D01*
X109500000Y-106500000D02*
X120500000Y-106500000D01*
X109500000Y-97000000D02*
X109500000Y-106500000D01*
%TO.C,J24*%
X209680000Y-79500000D02*
G75*
G03*
X209680000Y-79500000I-2180000J0D01*
G01*
X204680000Y-79500000D02*
G75*
G03*
X204680000Y-79500000I-2180000J0D01*
G01*
X210060000Y-74900000D02*
X199940000Y-74900000D01*
X210060000Y-76000000D02*
X199940000Y-76000000D01*
X210060000Y-83560000D02*
X199940000Y-83560000D01*
X210060000Y-74440000D02*
X199940000Y-74440000D01*
X210060000Y-83560000D02*
X210060000Y-74440000D01*
X199940000Y-83560000D02*
X199940000Y-74440000D01*
X205846000Y-80888000D02*
X205953000Y-80781000D01*
X208782000Y-77953000D02*
X208888000Y-77846000D01*
X206112000Y-81154000D02*
X206219000Y-81047000D01*
X209048000Y-78219000D02*
X209154000Y-78112000D01*
X200846000Y-80888000D02*
X201241000Y-80492000D01*
X203507000Y-78226000D02*
X203887000Y-77846000D01*
X201112000Y-81154000D02*
X201492000Y-80774000D01*
X203758000Y-78508000D02*
X204153000Y-78112000D01*
X210300000Y-74840000D02*
X210300000Y-74200000D01*
X210300000Y-74200000D02*
X209900000Y-74200000D01*
%TO.C,J17*%
X191680000Y-79500000D02*
G75*
G03*
X191680000Y-79500000I-2180000J0D01*
G01*
X186680000Y-79500000D02*
G75*
G03*
X186680000Y-79500000I-2180000J0D01*
G01*
X192060000Y-74900000D02*
X181940000Y-74900000D01*
X192060000Y-76000000D02*
X181940000Y-76000000D01*
X192060000Y-83560000D02*
X181940000Y-83560000D01*
X192060000Y-74440000D02*
X181940000Y-74440000D01*
X192060000Y-83560000D02*
X192060000Y-74440000D01*
X181940000Y-83560000D02*
X181940000Y-74440000D01*
X187846000Y-80888000D02*
X187953000Y-80781000D01*
X190782000Y-77953000D02*
X190888000Y-77846000D01*
X188112000Y-81154000D02*
X188219000Y-81047000D01*
X191048000Y-78219000D02*
X191154000Y-78112000D01*
X182846000Y-80888000D02*
X183241000Y-80492000D01*
X185507000Y-78226000D02*
X185887000Y-77846000D01*
X183112000Y-81154000D02*
X183492000Y-80774000D01*
X185758000Y-78508000D02*
X186153000Y-78112000D01*
X192300000Y-74840000D02*
X192300000Y-74200000D01*
X192300000Y-74200000D02*
X191900000Y-74200000D01*
%TO.C,J10*%
X173680000Y-79500000D02*
G75*
G03*
X173680000Y-79500000I-2180000J0D01*
G01*
X168680000Y-79500000D02*
G75*
G03*
X168680000Y-79500000I-2180000J0D01*
G01*
X174060000Y-74900000D02*
X163940000Y-74900000D01*
X174060000Y-76000000D02*
X163940000Y-76000000D01*
X174060000Y-83560000D02*
X163940000Y-83560000D01*
X174060000Y-74440000D02*
X163940000Y-74440000D01*
X174060000Y-83560000D02*
X174060000Y-74440000D01*
X163940000Y-83560000D02*
X163940000Y-74440000D01*
X169846000Y-80888000D02*
X169953000Y-80781000D01*
X172782000Y-77953000D02*
X172888000Y-77846000D01*
X170112000Y-81154000D02*
X170219000Y-81047000D01*
X173048000Y-78219000D02*
X173154000Y-78112000D01*
X164846000Y-80888000D02*
X165241000Y-80492000D01*
X167507000Y-78226000D02*
X167887000Y-77846000D01*
X165112000Y-81154000D02*
X165492000Y-80774000D01*
X167758000Y-78508000D02*
X168153000Y-78112000D01*
X174300000Y-74840000D02*
X174300000Y-74200000D01*
X174300000Y-74200000D02*
X173900000Y-74200000D01*
%TO.C,J45*%
X101670000Y-110330000D02*
X104330000Y-110330000D01*
X101670000Y-110270000D02*
X101670000Y-110330000D01*
X104330000Y-110270000D02*
X104330000Y-110330000D01*
X101670000Y-110270000D02*
X104330000Y-110270000D01*
X101670000Y-109000000D02*
X101670000Y-107670000D01*
X101670000Y-107670000D02*
X103000000Y-107670000D01*
%TO.C,J44*%
X89670000Y-110330000D02*
X92330000Y-110330000D01*
X89670000Y-110270000D02*
X89670000Y-110330000D01*
X92330000Y-110270000D02*
X92330000Y-110330000D01*
X89670000Y-110270000D02*
X92330000Y-110270000D01*
X89670000Y-109000000D02*
X89670000Y-107670000D01*
X89670000Y-107670000D02*
X91000000Y-107670000D01*
%TO.C,J38*%
X155670000Y-110330000D02*
X158330000Y-110330000D01*
X155670000Y-110270000D02*
X155670000Y-110330000D01*
X158330000Y-110270000D02*
X158330000Y-110330000D01*
X155670000Y-110270000D02*
X158330000Y-110270000D01*
X155670000Y-109000000D02*
X155670000Y-107670000D01*
X155670000Y-107670000D02*
X157000000Y-107670000D01*
%TO.C,J37*%
X143670000Y-110330000D02*
X146330000Y-110330000D01*
X143670000Y-110270000D02*
X143670000Y-110330000D01*
X146330000Y-110270000D02*
X146330000Y-110330000D01*
X143670000Y-110270000D02*
X146330000Y-110270000D01*
X143670000Y-109000000D02*
X143670000Y-107670000D01*
X143670000Y-107670000D02*
X145000000Y-107670000D01*
%TO.C,J31*%
X137670000Y-110330000D02*
X140330000Y-110330000D01*
X137670000Y-110270000D02*
X137670000Y-110330000D01*
X140330000Y-110270000D02*
X140330000Y-110330000D01*
X137670000Y-110270000D02*
X140330000Y-110270000D01*
X137670000Y-109000000D02*
X137670000Y-107670000D01*
X137670000Y-107670000D02*
X139000000Y-107670000D01*
%TO.C,J30*%
X125670000Y-110330000D02*
X128330000Y-110330000D01*
X125670000Y-110270000D02*
X125670000Y-110330000D01*
X128330000Y-110270000D02*
X128330000Y-110330000D01*
X125670000Y-110270000D02*
X128330000Y-110270000D01*
X125670000Y-109000000D02*
X125670000Y-107670000D01*
X125670000Y-107670000D02*
X127000000Y-107670000D01*
%TO.C,J3*%
X119670000Y-110330000D02*
X122330000Y-110330000D01*
X119670000Y-110270000D02*
X119670000Y-110330000D01*
X122330000Y-110270000D02*
X122330000Y-110330000D01*
X119670000Y-110270000D02*
X122330000Y-110270000D01*
X119670000Y-109000000D02*
X119670000Y-107670000D01*
X119670000Y-107670000D02*
X121000000Y-107670000D01*
%TO.C,J2*%
X107670000Y-110330000D02*
X110330000Y-110330000D01*
X107670000Y-110270000D02*
X107670000Y-110330000D01*
X110330000Y-110270000D02*
X110330000Y-110330000D01*
X107670000Y-110270000D02*
X110330000Y-110270000D01*
X107670000Y-109000000D02*
X107670000Y-107670000D01*
X107670000Y-107670000D02*
X109000000Y-107670000D01*
%TO.C,J49*%
X101670000Y-131870000D02*
X104330000Y-131870000D01*
X101670000Y-129270000D02*
X101670000Y-131870000D01*
X104330000Y-129270000D02*
X104330000Y-131870000D01*
X101670000Y-129270000D02*
X104330000Y-129270000D01*
X101670000Y-128000000D02*
X101670000Y-126670000D01*
X101670000Y-126670000D02*
X103000000Y-126670000D01*
%TO.C,J48*%
X93670000Y-131870000D02*
X96330000Y-131870000D01*
X93670000Y-129270000D02*
X93670000Y-131870000D01*
X96330000Y-129270000D02*
X96330000Y-131870000D01*
X93670000Y-129270000D02*
X96330000Y-129270000D01*
X93670000Y-128000000D02*
X93670000Y-126670000D01*
X93670000Y-126670000D02*
X95000000Y-126670000D01*
%TO.C,J47*%
X89670000Y-131870000D02*
X92330000Y-131870000D01*
X89670000Y-129270000D02*
X89670000Y-131870000D01*
X92330000Y-129270000D02*
X92330000Y-131870000D01*
X89670000Y-129270000D02*
X92330000Y-129270000D01*
X89670000Y-128000000D02*
X89670000Y-126670000D01*
X89670000Y-126670000D02*
X91000000Y-126670000D01*
%TO.C,J46*%
X97670000Y-131870000D02*
X100330000Y-131870000D01*
X97670000Y-129270000D02*
X97670000Y-131870000D01*
X100330000Y-129270000D02*
X100330000Y-131870000D01*
X97670000Y-129270000D02*
X100330000Y-129270000D01*
X97670000Y-128000000D02*
X97670000Y-126670000D01*
X97670000Y-126670000D02*
X99000000Y-126670000D01*
%TO.C,J42*%
X155670000Y-131870000D02*
X158330000Y-131870000D01*
X155670000Y-129270000D02*
X155670000Y-131870000D01*
X158330000Y-129270000D02*
X158330000Y-131870000D01*
X155670000Y-129270000D02*
X158330000Y-129270000D01*
X155670000Y-128000000D02*
X155670000Y-126670000D01*
X155670000Y-126670000D02*
X157000000Y-126670000D01*
%TO.C,J41*%
X147670000Y-131870000D02*
X150330000Y-131870000D01*
X147670000Y-129270000D02*
X147670000Y-131870000D01*
X150330000Y-129270000D02*
X150330000Y-131870000D01*
X147670000Y-129270000D02*
X150330000Y-129270000D01*
X147670000Y-128000000D02*
X147670000Y-126670000D01*
X147670000Y-126670000D02*
X149000000Y-126670000D01*
%TO.C,J40*%
X143670000Y-131870000D02*
X146330000Y-131870000D01*
X143670000Y-129270000D02*
X143670000Y-131870000D01*
X146330000Y-129270000D02*
X146330000Y-131870000D01*
X143670000Y-129270000D02*
X146330000Y-129270000D01*
X143670000Y-128000000D02*
X143670000Y-126670000D01*
X143670000Y-126670000D02*
X145000000Y-126670000D01*
%TO.C,J39*%
X151670000Y-131870000D02*
X154330000Y-131870000D01*
X151670000Y-129270000D02*
X151670000Y-131870000D01*
X154330000Y-129270000D02*
X154330000Y-131870000D01*
X151670000Y-129270000D02*
X154330000Y-129270000D01*
X151670000Y-128000000D02*
X151670000Y-126670000D01*
X151670000Y-126670000D02*
X153000000Y-126670000D01*
%TO.C,J35*%
X137670000Y-131870000D02*
X140330000Y-131870000D01*
X137670000Y-129270000D02*
X137670000Y-131870000D01*
X140330000Y-129270000D02*
X140330000Y-131870000D01*
X137670000Y-129270000D02*
X140330000Y-129270000D01*
X137670000Y-128000000D02*
X137670000Y-126670000D01*
X137670000Y-126670000D02*
X139000000Y-126670000D01*
%TO.C,J34*%
X129690000Y-131870000D02*
X132350000Y-131870000D01*
X129690000Y-129270000D02*
X129690000Y-131870000D01*
X132350000Y-129270000D02*
X132350000Y-131870000D01*
X129690000Y-129270000D02*
X132350000Y-129270000D01*
X129690000Y-128000000D02*
X129690000Y-126670000D01*
X129690000Y-126670000D02*
X131020000Y-126670000D01*
%TO.C,J33*%
X125670000Y-131870000D02*
X128330000Y-131870000D01*
X125670000Y-129270000D02*
X125670000Y-131870000D01*
X128330000Y-129270000D02*
X128330000Y-131870000D01*
X125670000Y-129270000D02*
X128330000Y-129270000D01*
X125670000Y-128000000D02*
X125670000Y-126670000D01*
X125670000Y-126670000D02*
X127000000Y-126670000D01*
%TO.C,J32*%
X133670000Y-131870000D02*
X136330000Y-131870000D01*
X133670000Y-129270000D02*
X133670000Y-131870000D01*
X136330000Y-129270000D02*
X136330000Y-131870000D01*
X133670000Y-129270000D02*
X136330000Y-129270000D01*
X133670000Y-128000000D02*
X133670000Y-126670000D01*
X133670000Y-126670000D02*
X135000000Y-126670000D01*
%TO.C,J28*%
X209670000Y-131870000D02*
X212330000Y-131870000D01*
X209670000Y-129270000D02*
X209670000Y-131870000D01*
X212330000Y-129270000D02*
X212330000Y-131870000D01*
X209670000Y-129270000D02*
X212330000Y-129270000D01*
X209670000Y-128000000D02*
X209670000Y-126670000D01*
X209670000Y-126670000D02*
X211000000Y-126670000D01*
%TO.C,J27*%
X201670000Y-131870000D02*
X204330000Y-131870000D01*
X201670000Y-129270000D02*
X201670000Y-131870000D01*
X204330000Y-129270000D02*
X204330000Y-131870000D01*
X201670000Y-129270000D02*
X204330000Y-129270000D01*
X201670000Y-128000000D02*
X201670000Y-126670000D01*
X201670000Y-126670000D02*
X203000000Y-126670000D01*
%TO.C,J26*%
X197670000Y-131870000D02*
X200330000Y-131870000D01*
X197670000Y-129270000D02*
X197670000Y-131870000D01*
X200330000Y-129270000D02*
X200330000Y-131870000D01*
X197670000Y-129270000D02*
X200330000Y-129270000D01*
X197670000Y-128000000D02*
X197670000Y-126670000D01*
X197670000Y-126670000D02*
X199000000Y-126670000D01*
%TO.C,J25*%
X205670000Y-131870000D02*
X208330000Y-131870000D01*
X205670000Y-129270000D02*
X205670000Y-131870000D01*
X208330000Y-129270000D02*
X208330000Y-131870000D01*
X205670000Y-129270000D02*
X208330000Y-129270000D01*
X205670000Y-128000000D02*
X205670000Y-126670000D01*
X205670000Y-126670000D02*
X207000000Y-126670000D01*
%TO.C,J21*%
X191670000Y-131870000D02*
X194330000Y-131870000D01*
X191670000Y-129270000D02*
X191670000Y-131870000D01*
X194330000Y-129270000D02*
X194330000Y-131870000D01*
X191670000Y-129270000D02*
X194330000Y-129270000D01*
X191670000Y-128000000D02*
X191670000Y-126670000D01*
X191670000Y-126670000D02*
X193000000Y-126670000D01*
%TO.C,J20*%
X183670000Y-131870000D02*
X186330000Y-131870000D01*
X183670000Y-129270000D02*
X183670000Y-131870000D01*
X186330000Y-129270000D02*
X186330000Y-131870000D01*
X183670000Y-129270000D02*
X186330000Y-129270000D01*
X183670000Y-128000000D02*
X183670000Y-126670000D01*
X183670000Y-126670000D02*
X185000000Y-126670000D01*
%TO.C,J19*%
X179670000Y-131870000D02*
X182330000Y-131870000D01*
X179670000Y-129270000D02*
X179670000Y-131870000D01*
X182330000Y-129270000D02*
X182330000Y-131870000D01*
X179670000Y-129270000D02*
X182330000Y-129270000D01*
X179670000Y-128000000D02*
X179670000Y-126670000D01*
X179670000Y-126670000D02*
X181000000Y-126670000D01*
%TO.C,J18*%
X187670000Y-131870000D02*
X190330000Y-131870000D01*
X187670000Y-129270000D02*
X187670000Y-131870000D01*
X190330000Y-129270000D02*
X190330000Y-131870000D01*
X187670000Y-129270000D02*
X190330000Y-129270000D01*
X187670000Y-128000000D02*
X187670000Y-126670000D01*
X187670000Y-126670000D02*
X189000000Y-126670000D01*
%TO.C,J14*%
X173670000Y-131870000D02*
X176330000Y-131870000D01*
X173670000Y-129270000D02*
X173670000Y-131870000D01*
X176330000Y-129270000D02*
X176330000Y-131870000D01*
X173670000Y-129270000D02*
X176330000Y-129270000D01*
X173670000Y-128000000D02*
X173670000Y-126670000D01*
X173670000Y-126670000D02*
X175000000Y-126670000D01*
%TO.C,J13*%
X165670000Y-131870000D02*
X168330000Y-131870000D01*
X165670000Y-129270000D02*
X165670000Y-131870000D01*
X168330000Y-129270000D02*
X168330000Y-131870000D01*
X165670000Y-129270000D02*
X168330000Y-129270000D01*
X165670000Y-128000000D02*
X165670000Y-126670000D01*
X165670000Y-126670000D02*
X167000000Y-126670000D01*
%TO.C,J12*%
X161670000Y-131870000D02*
X164330000Y-131870000D01*
X161670000Y-129270000D02*
X161670000Y-131870000D01*
X164330000Y-129270000D02*
X164330000Y-131870000D01*
X161670000Y-129270000D02*
X164330000Y-129270000D01*
X161670000Y-128000000D02*
X161670000Y-126670000D01*
X161670000Y-126670000D02*
X163000000Y-126670000D01*
%TO.C,J11*%
X169670000Y-131870000D02*
X172330000Y-131870000D01*
X169670000Y-129270000D02*
X169670000Y-131870000D01*
X172330000Y-129270000D02*
X172330000Y-131870000D01*
X169670000Y-129270000D02*
X172330000Y-129270000D01*
X169670000Y-128000000D02*
X169670000Y-126670000D01*
X169670000Y-126670000D02*
X171000000Y-126670000D01*
%TO.C,J7*%
X119670000Y-131870000D02*
X122330000Y-131870000D01*
X119670000Y-129270000D02*
X119670000Y-131870000D01*
X122330000Y-129270000D02*
X122330000Y-131870000D01*
X119670000Y-129270000D02*
X122330000Y-129270000D01*
X119670000Y-128000000D02*
X119670000Y-126670000D01*
X119670000Y-126670000D02*
X121000000Y-126670000D01*
%TO.C,J6*%
X111670000Y-131870000D02*
X114330000Y-131870000D01*
X111670000Y-129270000D02*
X111670000Y-131870000D01*
X114330000Y-129270000D02*
X114330000Y-131870000D01*
X111670000Y-129270000D02*
X114330000Y-129270000D01*
X111670000Y-128000000D02*
X111670000Y-126670000D01*
X111670000Y-126670000D02*
X113000000Y-126670000D01*
%TO.C,J5*%
X107720000Y-131870000D02*
X110380000Y-131870000D01*
X107720000Y-129270000D02*
X107720000Y-131870000D01*
X110380000Y-129270000D02*
X110380000Y-131870000D01*
X107720000Y-129270000D02*
X110380000Y-129270000D01*
X107720000Y-128000000D02*
X107720000Y-126670000D01*
X107720000Y-126670000D02*
X109050000Y-126670000D01*
%TO.C,J4*%
X115670000Y-131870000D02*
X118330000Y-131870000D01*
X115670000Y-129270000D02*
X115670000Y-131870000D01*
X118330000Y-129270000D02*
X118330000Y-131870000D01*
X115670000Y-129270000D02*
X118330000Y-129270000D01*
X115670000Y-128000000D02*
X115670000Y-126670000D01*
X115670000Y-126670000D02*
X117000000Y-126670000D01*
%TO.C,U7*%
X99900000Y-115390000D02*
X98100000Y-115390000D01*
X98100000Y-118610000D02*
X100550000Y-118610000D01*
%TO.C,R45*%
X95490000Y-117162779D02*
X95490000Y-116837221D01*
X96510000Y-117162779D02*
X96510000Y-116837221D01*
%TO.C,R44*%
X93490000Y-113162779D02*
X93490000Y-112837221D01*
X94510000Y-113162779D02*
X94510000Y-112837221D01*
%TO.C,R43*%
X95800000Y-110200000D02*
X98200000Y-110200000D01*
X95800000Y-107800000D02*
X98200000Y-107800000D01*
%TO.C,C4*%
X93490000Y-117162779D02*
X93490000Y-116837221D01*
X94510000Y-117162779D02*
X94510000Y-116837221D01*
%TO.C,U6*%
X153900000Y-115390000D02*
X152100000Y-115390000D01*
X152100000Y-118610000D02*
X154550000Y-118610000D01*
%TO.C,U5*%
X135900000Y-115390000D02*
X134100000Y-115390000D01*
X134100000Y-118610000D02*
X136550000Y-118610000D01*
%TO.C,U4*%
X203900000Y-111390000D02*
X202100000Y-111390000D01*
X202100000Y-114610000D02*
X204550000Y-114610000D01*
%TO.C,U3*%
X185900000Y-111390000D02*
X184100000Y-111390000D01*
X184100000Y-114610000D02*
X186550000Y-114610000D01*
%TO.C,U2*%
X167900000Y-111390000D02*
X166100000Y-111390000D01*
X166100000Y-114610000D02*
X168550000Y-114610000D01*
%TO.C,U1*%
X117900000Y-115390000D02*
X116100000Y-115390000D01*
X116100000Y-118610000D02*
X118550000Y-118610000D01*
%TO.C,R42*%
X149490000Y-117162779D02*
X149490000Y-116837221D01*
X150510000Y-117162779D02*
X150510000Y-116837221D01*
%TO.C,R41*%
X147490000Y-113162779D02*
X147490000Y-112837221D01*
X148510000Y-113162779D02*
X148510000Y-112837221D01*
%TO.C,R40*%
X149800000Y-110200000D02*
X152200000Y-110200000D01*
X149800000Y-107800000D02*
X152200000Y-107800000D01*
%TO.C,R39*%
X131490000Y-117162779D02*
X131490000Y-116837221D01*
X132510000Y-117162779D02*
X132510000Y-116837221D01*
%TO.C,R38*%
X129490000Y-113162779D02*
X129490000Y-112837221D01*
X130510000Y-113162779D02*
X130510000Y-112837221D01*
%TO.C,R37*%
X131800000Y-110200000D02*
X134200000Y-110200000D01*
X131800000Y-107800000D02*
X134200000Y-107800000D01*
%TO.C,R36*%
X199710000Y-112741422D02*
X199710000Y-113258578D01*
X198290000Y-112741422D02*
X198290000Y-113258578D01*
%TO.C,R35*%
X211602064Y-112410000D02*
X210397936Y-112410000D01*
X211602064Y-110590000D02*
X210397936Y-110590000D01*
%TO.C,R34*%
X210397936Y-113590000D02*
X211602064Y-113590000D01*
X210397936Y-115410000D02*
X211602064Y-115410000D01*
%TO.C,R33*%
X201710000Y-105741422D02*
X201710000Y-106258578D01*
X200290000Y-105741422D02*
X200290000Y-106258578D01*
%TO.C,R32*%
X209710000Y-105741422D02*
X209710000Y-106258578D01*
X208290000Y-105741422D02*
X208290000Y-106258578D01*
%TO.C,R31*%
X201710000Y-101741422D02*
X201710000Y-102258578D01*
X200290000Y-101741422D02*
X200290000Y-102258578D01*
%TO.C,R30*%
X209710000Y-101741422D02*
X209710000Y-102258578D01*
X208290000Y-101741422D02*
X208290000Y-102258578D01*
%TO.C,R29*%
X201710000Y-97741422D02*
X201710000Y-98258578D01*
X200290000Y-97741422D02*
X200290000Y-98258578D01*
%TO.C,R28*%
X209710000Y-97741422D02*
X209710000Y-98258578D01*
X208290000Y-97741422D02*
X208290000Y-98258578D01*
%TO.C,R27*%
X201710000Y-93741422D02*
X201710000Y-94258578D01*
X200290000Y-93741422D02*
X200290000Y-94258578D01*
%TO.C,R26*%
X209710000Y-93741422D02*
X209710000Y-94258578D01*
X208290000Y-93741422D02*
X208290000Y-94258578D01*
%TO.C,R25*%
X181710000Y-112741422D02*
X181710000Y-113258578D01*
X180290000Y-112741422D02*
X180290000Y-113258578D01*
%TO.C,R24*%
X193602064Y-112410000D02*
X192397936Y-112410000D01*
X193602064Y-110590000D02*
X192397936Y-110590000D01*
%TO.C,R23*%
X192397936Y-113590000D02*
X193602064Y-113590000D01*
X192397936Y-115410000D02*
X193602064Y-115410000D01*
%TO.C,R22*%
X183710000Y-105741422D02*
X183710000Y-106258578D01*
X182290000Y-105741422D02*
X182290000Y-106258578D01*
%TO.C,R21*%
X191710000Y-105741422D02*
X191710000Y-106258578D01*
X190290000Y-105741422D02*
X190290000Y-106258578D01*
%TO.C,R20*%
X183710000Y-101741422D02*
X183710000Y-102258578D01*
X182290000Y-101741422D02*
X182290000Y-102258578D01*
%TO.C,R19*%
X191710000Y-101741422D02*
X191710000Y-102258578D01*
X190290000Y-101741422D02*
X190290000Y-102258578D01*
%TO.C,R18*%
X183710000Y-97741422D02*
X183710000Y-98258578D01*
X182290000Y-97741422D02*
X182290000Y-98258578D01*
%TO.C,R17*%
X191710000Y-97741422D02*
X191710000Y-98258578D01*
X190290000Y-97741422D02*
X190290000Y-98258578D01*
%TO.C,R16*%
X183710000Y-93741422D02*
X183710000Y-94258578D01*
X182290000Y-93741422D02*
X182290000Y-94258578D01*
%TO.C,R15*%
X191710000Y-93741422D02*
X191710000Y-94258578D01*
X190290000Y-93741422D02*
X190290000Y-94258578D01*
%TO.C,R14*%
X163710000Y-112741422D02*
X163710000Y-113258578D01*
X162290000Y-112741422D02*
X162290000Y-113258578D01*
%TO.C,R13*%
X175602064Y-112410000D02*
X174397936Y-112410000D01*
X175602064Y-110590000D02*
X174397936Y-110590000D01*
%TO.C,R12*%
X174397936Y-113590000D02*
X175602064Y-113590000D01*
X174397936Y-115410000D02*
X175602064Y-115410000D01*
%TO.C,R11*%
X165710000Y-105741422D02*
X165710000Y-106258578D01*
X164290000Y-105741422D02*
X164290000Y-106258578D01*
%TO.C,R10*%
X173710000Y-105741422D02*
X173710000Y-106258578D01*
X172290000Y-105741422D02*
X172290000Y-106258578D01*
%TO.C,R9*%
X165710000Y-101741422D02*
X165710000Y-102258578D01*
X164290000Y-101741422D02*
X164290000Y-102258578D01*
%TO.C,R8*%
X173710000Y-101741422D02*
X173710000Y-102258578D01*
X172290000Y-101741422D02*
X172290000Y-102258578D01*
%TO.C,R7*%
X165710000Y-97741422D02*
X165710000Y-98258578D01*
X164290000Y-97741422D02*
X164290000Y-98258578D01*
%TO.C,R6*%
X173710000Y-97741422D02*
X173710000Y-98258578D01*
X172290000Y-97741422D02*
X172290000Y-98258578D01*
%TO.C,R5*%
X165710000Y-93741422D02*
X165710000Y-94258578D01*
X164290000Y-93741422D02*
X164290000Y-94258578D01*
%TO.C,R4*%
X173710000Y-93741422D02*
X173710000Y-94258578D01*
X172290000Y-93741422D02*
X172290000Y-94258578D01*
%TO.C,R3*%
X113490000Y-117162779D02*
X113490000Y-116837221D01*
X114510000Y-117162779D02*
X114510000Y-116837221D01*
%TO.C,R2*%
X111490000Y-113162779D02*
X111490000Y-112837221D01*
X112510000Y-113162779D02*
X112510000Y-112837221D01*
%TO.C,R1*%
X113800000Y-110200000D02*
X116200000Y-110200000D01*
X113800000Y-107800000D02*
X116200000Y-107800000D01*
%TO.C,JP3*%
X207300000Y-110950000D02*
G75*
G02*
X208000000Y-111650000I0J-700000D01*
G01*
X206000000Y-111650000D02*
G75*
G02*
X206700000Y-110950000I700000J0D01*
G01*
X206700000Y-115050000D02*
G75*
G02*
X206000000Y-114350000I0J700000D01*
G01*
X208000000Y-114350000D02*
G75*
G02*
X207300000Y-115050000I-700000J0D01*
G01*
X205800000Y-111800000D02*
X205500000Y-112100000D01*
X205500000Y-111500000D02*
X205500000Y-112100000D01*
X205800000Y-111800000D02*
X205500000Y-111500000D01*
X206700000Y-110950000D02*
X207300000Y-110950000D01*
X206000000Y-114400000D02*
X206000000Y-111600000D01*
X207300000Y-115050000D02*
X206700000Y-115050000D01*
X208000000Y-111600000D02*
X208000000Y-114400000D01*
%TO.C,JP2*%
X189300000Y-110950000D02*
G75*
G02*
X190000000Y-111650000I0J-700000D01*
G01*
X188000000Y-111650000D02*
G75*
G02*
X188700000Y-110950000I700000J0D01*
G01*
X188700000Y-115050000D02*
G75*
G02*
X188000000Y-114350000I0J700000D01*
G01*
X190000000Y-114350000D02*
G75*
G02*
X189300000Y-115050000I-700000J0D01*
G01*
X187800000Y-111800000D02*
X187500000Y-112100000D01*
X187500000Y-111500000D02*
X187500000Y-112100000D01*
X187800000Y-111800000D02*
X187500000Y-111500000D01*
X188700000Y-110950000D02*
X189300000Y-110950000D01*
X188000000Y-114400000D02*
X188000000Y-111600000D01*
X189300000Y-115050000D02*
X188700000Y-115050000D01*
X190000000Y-111600000D02*
X190000000Y-114400000D01*
%TO.C,JP1*%
X171300000Y-110950000D02*
G75*
G02*
X172000000Y-111650000I0J-700000D01*
G01*
X170000000Y-111650000D02*
G75*
G02*
X170700000Y-110950000I700000J0D01*
G01*
X170700000Y-115050000D02*
G75*
G02*
X170000000Y-114350000I0J700000D01*
G01*
X172000000Y-114350000D02*
G75*
G02*
X171300000Y-115050000I-700000J0D01*
G01*
X169800000Y-111800000D02*
X169500000Y-112100000D01*
X169500000Y-111500000D02*
X169500000Y-112100000D01*
X169800000Y-111800000D02*
X169500000Y-111500000D01*
X170700000Y-110950000D02*
X171300000Y-110950000D01*
X170000000Y-114400000D02*
X170000000Y-111600000D01*
X171300000Y-115050000D02*
X170700000Y-115050000D01*
X172000000Y-111600000D02*
X172000000Y-114400000D01*
%TO.C,J23*%
X199670000Y-90330000D02*
X202330000Y-90330000D01*
X199670000Y-90270000D02*
X199670000Y-90330000D01*
X202330000Y-90270000D02*
X202330000Y-90330000D01*
X199670000Y-90270000D02*
X202330000Y-90270000D01*
X199670000Y-89000000D02*
X199670000Y-87670000D01*
X199670000Y-87670000D02*
X201000000Y-87670000D01*
%TO.C,J22*%
X207670000Y-90330000D02*
X210330000Y-90330000D01*
X207670000Y-90270000D02*
X207670000Y-90330000D01*
X210330000Y-90270000D02*
X210330000Y-90330000D01*
X207670000Y-90270000D02*
X210330000Y-90270000D01*
X207670000Y-89000000D02*
X207670000Y-87670000D01*
X207670000Y-87670000D02*
X209000000Y-87670000D01*
%TO.C,J16*%
X181670000Y-90330000D02*
X184330000Y-90330000D01*
X181670000Y-90270000D02*
X181670000Y-90330000D01*
X184330000Y-90270000D02*
X184330000Y-90330000D01*
X181670000Y-90270000D02*
X184330000Y-90270000D01*
X181670000Y-89000000D02*
X181670000Y-87670000D01*
X181670000Y-87670000D02*
X183000000Y-87670000D01*
%TO.C,J15*%
X189670000Y-90330000D02*
X192330000Y-90330000D01*
X189670000Y-90270000D02*
X189670000Y-90330000D01*
X192330000Y-90270000D02*
X192330000Y-90330000D01*
X189670000Y-90270000D02*
X192330000Y-90270000D01*
X189670000Y-89000000D02*
X189670000Y-87670000D01*
X189670000Y-87670000D02*
X191000000Y-87670000D01*
%TO.C,J9*%
X163670000Y-90330000D02*
X166330000Y-90330000D01*
X163670000Y-90270000D02*
X163670000Y-90330000D01*
X166330000Y-90270000D02*
X166330000Y-90330000D01*
X163670000Y-90270000D02*
X166330000Y-90270000D01*
X163670000Y-89000000D02*
X163670000Y-87670000D01*
X163670000Y-87670000D02*
X165000000Y-87670000D01*
%TO.C,J8*%
X171670000Y-90330000D02*
X174330000Y-90330000D01*
X171670000Y-90270000D02*
X171670000Y-90330000D01*
X174330000Y-90270000D02*
X174330000Y-90330000D01*
X171670000Y-90270000D02*
X174330000Y-90270000D01*
X171670000Y-89000000D02*
X171670000Y-87670000D01*
X171670000Y-87670000D02*
X173000000Y-87670000D01*
%TO.C,C3*%
X147490000Y-117162779D02*
X147490000Y-116837221D01*
X148510000Y-117162779D02*
X148510000Y-116837221D01*
%TO.C,C2*%
X129490000Y-117162779D02*
X129490000Y-116837221D01*
X130510000Y-117162779D02*
X130510000Y-116837221D01*
%TO.C,C1*%
X111490000Y-117162779D02*
X111490000Y-116837221D01*
X112510000Y-117162779D02*
X112510000Y-116837221D01*
%TD*%
%LPC*%
D13*
%TO.C,H4*%
X217000000Y-130000000D03*
%TD*%
%TO.C,H3*%
X85000000Y-130000000D03*
%TD*%
%TO.C,H2*%
X217000000Y-78000000D03*
%TD*%
%TO.C,H1*%
X85000000Y-78000000D03*
%TD*%
D14*
%TO.C,CT3*%
X158000000Y-97000000D03*
X144000000Y-97000000D03*
D15*
X151000000Y-90650000D03*
X151000000Y-103350000D03*
%TD*%
D16*
%TO.C,J43*%
X94500000Y-79500000D03*
D17*
X99500000Y-79500000D03*
%TD*%
D16*
%TO.C,J36*%
X148500000Y-79500000D03*
D17*
X153500000Y-79500000D03*
%TD*%
D16*
%TO.C,J29*%
X130500000Y-79500000D03*
D17*
X135500000Y-79500000D03*
%TD*%
D16*
%TO.C,J1*%
X112500000Y-79500000D03*
D17*
X117500000Y-79500000D03*
%TD*%
D14*
%TO.C,CT4*%
X104000000Y-97000000D03*
X90000000Y-97000000D03*
D15*
X97000000Y-90650000D03*
X97000000Y-103350000D03*
%TD*%
D14*
%TO.C,CT2*%
X140000000Y-97000000D03*
X126000000Y-97000000D03*
D15*
X133000000Y-90650000D03*
X133000000Y-103350000D03*
%TD*%
D14*
%TO.C,CT1*%
X122000000Y-97000000D03*
X108000000Y-97000000D03*
D15*
X115000000Y-90650000D03*
X115000000Y-103350000D03*
%TD*%
D16*
%TO.C,J24*%
X202500000Y-79500000D03*
D17*
X207500000Y-79500000D03*
%TD*%
D16*
%TO.C,J17*%
X184500000Y-79500000D03*
D17*
X189500000Y-79500000D03*
%TD*%
D16*
%TO.C,J10*%
X166500000Y-79500000D03*
D17*
X171500000Y-79500000D03*
%TD*%
D18*
%TO.C,J45*%
X103000000Y-109000000D03*
%TD*%
%TO.C,J44*%
X91000000Y-109000000D03*
%TD*%
%TO.C,J38*%
X157000000Y-109000000D03*
%TD*%
%TO.C,J37*%
X145000000Y-109000000D03*
%TD*%
%TO.C,J31*%
X139000000Y-109000000D03*
%TD*%
%TO.C,J30*%
X127000000Y-109000000D03*
%TD*%
%TO.C,J3*%
X121000000Y-109000000D03*
%TD*%
%TO.C,J2*%
X109000000Y-109000000D03*
%TD*%
D19*
%TO.C,J49*%
X103000000Y-130540000D03*
D18*
X103000000Y-128000000D03*
%TD*%
D19*
%TO.C,J48*%
X95000000Y-130540000D03*
D18*
X95000000Y-128000000D03*
%TD*%
D19*
%TO.C,J47*%
X91000000Y-130540000D03*
D18*
X91000000Y-128000000D03*
%TD*%
D19*
%TO.C,J46*%
X99000000Y-130540000D03*
D18*
X99000000Y-128000000D03*
%TD*%
D19*
%TO.C,J42*%
X157000000Y-130540000D03*
D18*
X157000000Y-128000000D03*
%TD*%
D19*
%TO.C,J41*%
X149000000Y-130540000D03*
D18*
X149000000Y-128000000D03*
%TD*%
D19*
%TO.C,J40*%
X145000000Y-130540000D03*
D18*
X145000000Y-128000000D03*
%TD*%
D19*
%TO.C,J39*%
X153000000Y-130540000D03*
D18*
X153000000Y-128000000D03*
%TD*%
D19*
%TO.C,J35*%
X139000000Y-130540000D03*
D18*
X139000000Y-128000000D03*
%TD*%
D19*
%TO.C,J34*%
X131020000Y-130540000D03*
D18*
X131020000Y-128000000D03*
%TD*%
D19*
%TO.C,J33*%
X127000000Y-130540000D03*
D18*
X127000000Y-128000000D03*
%TD*%
D19*
%TO.C,J32*%
X135000000Y-130540000D03*
D18*
X135000000Y-128000000D03*
%TD*%
D19*
%TO.C,J28*%
X211000000Y-130540000D03*
D18*
X211000000Y-128000000D03*
%TD*%
D19*
%TO.C,J27*%
X203000000Y-130540000D03*
D18*
X203000000Y-128000000D03*
%TD*%
D19*
%TO.C,J26*%
X199000000Y-130540000D03*
D18*
X199000000Y-128000000D03*
%TD*%
D19*
%TO.C,J25*%
X207000000Y-130540000D03*
D18*
X207000000Y-128000000D03*
%TD*%
D19*
%TO.C,J21*%
X193000000Y-130540000D03*
D18*
X193000000Y-128000000D03*
%TD*%
D19*
%TO.C,J20*%
X185000000Y-130540000D03*
D18*
X185000000Y-128000000D03*
%TD*%
D19*
%TO.C,J19*%
X181000000Y-130540000D03*
D18*
X181000000Y-128000000D03*
%TD*%
D19*
%TO.C,J18*%
X189000000Y-130540000D03*
D18*
X189000000Y-128000000D03*
%TD*%
D19*
%TO.C,J14*%
X175000000Y-130540000D03*
D18*
X175000000Y-128000000D03*
%TD*%
D19*
%TO.C,J13*%
X167000000Y-130540000D03*
D18*
X167000000Y-128000000D03*
%TD*%
D19*
%TO.C,J12*%
X163000000Y-130540000D03*
D18*
X163000000Y-128000000D03*
%TD*%
D19*
%TO.C,J11*%
X171000000Y-130540000D03*
D18*
X171000000Y-128000000D03*
%TD*%
D19*
%TO.C,J7*%
X121000000Y-130540000D03*
D18*
X121000000Y-128000000D03*
%TD*%
D19*
%TO.C,J6*%
X113000000Y-130540000D03*
D18*
X113000000Y-128000000D03*
%TD*%
D19*
%TO.C,J5*%
X109050000Y-130540000D03*
D18*
X109050000Y-128000000D03*
%TD*%
D19*
%TO.C,J4*%
X117000000Y-130540000D03*
D18*
X117000000Y-128000000D03*
%TD*%
D20*
%TO.C,U7*%
X97900000Y-117950000D03*
X97900000Y-116050000D03*
X100100000Y-116050000D03*
X100100000Y-117000000D03*
X100100000Y-117950000D03*
%TD*%
%TO.C,R45*%
G36*
G01*
X96281250Y-116700000D02*
X95718750Y-116700000D01*
G75*
G02*
X95475000Y-116456250I0J243750D01*
G01*
X95475000Y-115968750D01*
G75*
G02*
X95718750Y-115725000I243750J0D01*
G01*
X96281250Y-115725000D01*
G75*
G02*
X96525000Y-115968750I0J-243750D01*
G01*
X96525000Y-116456250D01*
G75*
G02*
X96281250Y-116700000I-243750J0D01*
G01*
G37*
G36*
G01*
X96281250Y-118275000D02*
X95718750Y-118275000D01*
G75*
G02*
X95475000Y-118031250I0J243750D01*
G01*
X95475000Y-117543750D01*
G75*
G02*
X95718750Y-117300000I243750J0D01*
G01*
X96281250Y-117300000D01*
G75*
G02*
X96525000Y-117543750I0J-243750D01*
G01*
X96525000Y-118031250D01*
G75*
G02*
X96281250Y-118275000I-243750J0D01*
G01*
G37*
%TD*%
%TO.C,R44*%
G36*
G01*
X94281250Y-112700000D02*
X93718750Y-112700000D01*
G75*
G02*
X93475000Y-112456250I0J243750D01*
G01*
X93475000Y-111968750D01*
G75*
G02*
X93718750Y-111725000I243750J0D01*
G01*
X94281250Y-111725000D01*
G75*
G02*
X94525000Y-111968750I0J-243750D01*
G01*
X94525000Y-112456250D01*
G75*
G02*
X94281250Y-112700000I-243750J0D01*
G01*
G37*
G36*
G01*
X94281250Y-114275000D02*
X93718750Y-114275000D01*
G75*
G02*
X93475000Y-114031250I0J243750D01*
G01*
X93475000Y-113543750D01*
G75*
G02*
X93718750Y-113300000I243750J0D01*
G01*
X94281250Y-113300000D01*
G75*
G02*
X94525000Y-113543750I0J-243750D01*
G01*
X94525000Y-114031250D01*
G75*
G02*
X94281250Y-114275000I-243750J0D01*
G01*
G37*
%TD*%
D21*
%TO.C,R43*%
X94550000Y-109000000D03*
X99450000Y-109000000D03*
%TD*%
%TO.C,C4*%
G36*
G01*
X94281250Y-116700000D02*
X93718750Y-116700000D01*
G75*
G02*
X93475000Y-116456250I0J243750D01*
G01*
X93475000Y-115968750D01*
G75*
G02*
X93718750Y-115725000I243750J0D01*
G01*
X94281250Y-115725000D01*
G75*
G02*
X94525000Y-115968750I0J-243750D01*
G01*
X94525000Y-116456250D01*
G75*
G02*
X94281250Y-116700000I-243750J0D01*
G01*
G37*
G36*
G01*
X94281250Y-118275000D02*
X93718750Y-118275000D01*
G75*
G02*
X93475000Y-118031250I0J243750D01*
G01*
X93475000Y-117543750D01*
G75*
G02*
X93718750Y-117300000I243750J0D01*
G01*
X94281250Y-117300000D01*
G75*
G02*
X94525000Y-117543750I0J-243750D01*
G01*
X94525000Y-118031250D01*
G75*
G02*
X94281250Y-118275000I-243750J0D01*
G01*
G37*
%TD*%
D20*
%TO.C,U6*%
X151900000Y-117950000D03*
X151900000Y-116050000D03*
X154100000Y-116050000D03*
X154100000Y-117000000D03*
X154100000Y-117950000D03*
%TD*%
%TO.C,U5*%
X133900000Y-117950000D03*
X133900000Y-116050000D03*
X136100000Y-116050000D03*
X136100000Y-117000000D03*
X136100000Y-117950000D03*
%TD*%
%TO.C,U4*%
X201900000Y-113950000D03*
X201900000Y-112050000D03*
X204100000Y-112050000D03*
X204100000Y-113000000D03*
X204100000Y-113950000D03*
%TD*%
%TO.C,U3*%
X183900000Y-113950000D03*
X183900000Y-112050000D03*
X186100000Y-112050000D03*
X186100000Y-113000000D03*
X186100000Y-113950000D03*
%TD*%
%TO.C,U2*%
X165900000Y-113950000D03*
X165900000Y-112050000D03*
X168100000Y-112050000D03*
X168100000Y-113000000D03*
X168100000Y-113950000D03*
%TD*%
%TO.C,U1*%
X115900000Y-117950000D03*
X115900000Y-116050000D03*
X118100000Y-116050000D03*
X118100000Y-117000000D03*
X118100000Y-117950000D03*
%TD*%
%TO.C,R42*%
G36*
G01*
X150281250Y-116700000D02*
X149718750Y-116700000D01*
G75*
G02*
X149475000Y-116456250I0J243750D01*
G01*
X149475000Y-115968750D01*
G75*
G02*
X149718750Y-115725000I243750J0D01*
G01*
X150281250Y-115725000D01*
G75*
G02*
X150525000Y-115968750I0J-243750D01*
G01*
X150525000Y-116456250D01*
G75*
G02*
X150281250Y-116700000I-243750J0D01*
G01*
G37*
G36*
G01*
X150281250Y-118275000D02*
X149718750Y-118275000D01*
G75*
G02*
X149475000Y-118031250I0J243750D01*
G01*
X149475000Y-117543750D01*
G75*
G02*
X149718750Y-117300000I243750J0D01*
G01*
X150281250Y-117300000D01*
G75*
G02*
X150525000Y-117543750I0J-243750D01*
G01*
X150525000Y-118031250D01*
G75*
G02*
X150281250Y-118275000I-243750J0D01*
G01*
G37*
%TD*%
%TO.C,R41*%
G36*
G01*
X148281250Y-112700000D02*
X147718750Y-112700000D01*
G75*
G02*
X147475000Y-112456250I0J243750D01*
G01*
X147475000Y-111968750D01*
G75*
G02*
X147718750Y-111725000I243750J0D01*
G01*
X148281250Y-111725000D01*
G75*
G02*
X148525000Y-111968750I0J-243750D01*
G01*
X148525000Y-112456250D01*
G75*
G02*
X148281250Y-112700000I-243750J0D01*
G01*
G37*
G36*
G01*
X148281250Y-114275000D02*
X147718750Y-114275000D01*
G75*
G02*
X147475000Y-114031250I0J243750D01*
G01*
X147475000Y-113543750D01*
G75*
G02*
X147718750Y-113300000I243750J0D01*
G01*
X148281250Y-113300000D01*
G75*
G02*
X148525000Y-113543750I0J-243750D01*
G01*
X148525000Y-114031250D01*
G75*
G02*
X148281250Y-114275000I-243750J0D01*
G01*
G37*
%TD*%
D21*
%TO.C,R40*%
X148550000Y-109000000D03*
X153450000Y-109000000D03*
%TD*%
%TO.C,R39*%
G36*
G01*
X132281250Y-116700000D02*
X131718750Y-116700000D01*
G75*
G02*
X131475000Y-116456250I0J243750D01*
G01*
X131475000Y-115968750D01*
G75*
G02*
X131718750Y-115725000I243750J0D01*
G01*
X132281250Y-115725000D01*
G75*
G02*
X132525000Y-115968750I0J-243750D01*
G01*
X132525000Y-116456250D01*
G75*
G02*
X132281250Y-116700000I-243750J0D01*
G01*
G37*
G36*
G01*
X132281250Y-118275000D02*
X131718750Y-118275000D01*
G75*
G02*
X131475000Y-118031250I0J243750D01*
G01*
X131475000Y-117543750D01*
G75*
G02*
X131718750Y-117300000I243750J0D01*
G01*
X132281250Y-117300000D01*
G75*
G02*
X132525000Y-117543750I0J-243750D01*
G01*
X132525000Y-118031250D01*
G75*
G02*
X132281250Y-118275000I-243750J0D01*
G01*
G37*
%TD*%
%TO.C,R38*%
G36*
G01*
X130281250Y-112700000D02*
X129718750Y-112700000D01*
G75*
G02*
X129475000Y-112456250I0J243750D01*
G01*
X129475000Y-111968750D01*
G75*
G02*
X129718750Y-111725000I243750J0D01*
G01*
X130281250Y-111725000D01*
G75*
G02*
X130525000Y-111968750I0J-243750D01*
G01*
X130525000Y-112456250D01*
G75*
G02*
X130281250Y-112700000I-243750J0D01*
G01*
G37*
G36*
G01*
X130281250Y-114275000D02*
X129718750Y-114275000D01*
G75*
G02*
X129475000Y-114031250I0J243750D01*
G01*
X129475000Y-113543750D01*
G75*
G02*
X129718750Y-113300000I243750J0D01*
G01*
X130281250Y-113300000D01*
G75*
G02*
X130525000Y-113543750I0J-243750D01*
G01*
X130525000Y-114031250D01*
G75*
G02*
X130281250Y-114275000I-243750J0D01*
G01*
G37*
%TD*%
%TO.C,R37*%
X130550000Y-109000000D03*
X135450000Y-109000000D03*
%TD*%
%TO.C,R36*%
G36*
G01*
X198518750Y-113400000D02*
X199481250Y-113400000D01*
G75*
G02*
X199750000Y-113668750I0J-268750D01*
G01*
X199750000Y-114206250D01*
G75*
G02*
X199481250Y-114475000I-268750J0D01*
G01*
X198518750Y-114475000D01*
G75*
G02*
X198250000Y-114206250I0J268750D01*
G01*
X198250000Y-113668750D01*
G75*
G02*
X198518750Y-113400000I268750J0D01*
G01*
G37*
G36*
G01*
X198518750Y-111525000D02*
X199481250Y-111525000D01*
G75*
G02*
X199750000Y-111793750I0J-268750D01*
G01*
X199750000Y-112331250D01*
G75*
G02*
X199481250Y-112600000I-268750J0D01*
G01*
X198518750Y-112600000D01*
G75*
G02*
X198250000Y-112331250I0J268750D01*
G01*
X198250000Y-111793750D01*
G75*
G02*
X198518750Y-111525000I268750J0D01*
G01*
G37*
%TD*%
%TO.C,R35*%
G36*
G01*
X210275000Y-110845000D02*
X210275000Y-112155000D01*
G75*
G02*
X210005000Y-112425000I-270000J0D01*
G01*
X209195000Y-112425000D01*
G75*
G02*
X208925000Y-112155000I0J270000D01*
G01*
X208925000Y-110845000D01*
G75*
G02*
X209195000Y-110575000I270000J0D01*
G01*
X210005000Y-110575000D01*
G75*
G02*
X210275000Y-110845000I0J-270000D01*
G01*
G37*
G36*
G01*
X213075000Y-110845000D02*
X213075000Y-112155000D01*
G75*
G02*
X212805000Y-112425000I-270000J0D01*
G01*
X211995000Y-112425000D01*
G75*
G02*
X211725000Y-112155000I0J270000D01*
G01*
X211725000Y-110845000D01*
G75*
G02*
X211995000Y-110575000I270000J0D01*
G01*
X212805000Y-110575000D01*
G75*
G02*
X213075000Y-110845000I0J-270000D01*
G01*
G37*
%TD*%
%TO.C,R34*%
G36*
G01*
X211725000Y-115155000D02*
X211725000Y-113845000D01*
G75*
G02*
X211995000Y-113575000I270000J0D01*
G01*
X212805000Y-113575000D01*
G75*
G02*
X213075000Y-113845000I0J-270000D01*
G01*
X213075000Y-115155000D01*
G75*
G02*
X212805000Y-115425000I-270000J0D01*
G01*
X211995000Y-115425000D01*
G75*
G02*
X211725000Y-115155000I0J270000D01*
G01*
G37*
G36*
G01*
X208925000Y-115155000D02*
X208925000Y-113845000D01*
G75*
G02*
X209195000Y-113575000I270000J0D01*
G01*
X210005000Y-113575000D01*
G75*
G02*
X210275000Y-113845000I0J-270000D01*
G01*
X210275000Y-115155000D01*
G75*
G02*
X210005000Y-115425000I-270000J0D01*
G01*
X209195000Y-115425000D01*
G75*
G02*
X208925000Y-115155000I0J270000D01*
G01*
G37*
%TD*%
%TO.C,R33*%
G36*
G01*
X200518750Y-106400000D02*
X201481250Y-106400000D01*
G75*
G02*
X201750000Y-106668750I0J-268750D01*
G01*
X201750000Y-107206250D01*
G75*
G02*
X201481250Y-107475000I-268750J0D01*
G01*
X200518750Y-107475000D01*
G75*
G02*
X200250000Y-107206250I0J268750D01*
G01*
X200250000Y-106668750D01*
G75*
G02*
X200518750Y-106400000I268750J0D01*
G01*
G37*
G36*
G01*
X200518750Y-104525000D02*
X201481250Y-104525000D01*
G75*
G02*
X201750000Y-104793750I0J-268750D01*
G01*
X201750000Y-105331250D01*
G75*
G02*
X201481250Y-105600000I-268750J0D01*
G01*
X200518750Y-105600000D01*
G75*
G02*
X200250000Y-105331250I0J268750D01*
G01*
X200250000Y-104793750D01*
G75*
G02*
X200518750Y-104525000I268750J0D01*
G01*
G37*
%TD*%
%TO.C,R32*%
G36*
G01*
X208518750Y-106400000D02*
X209481250Y-106400000D01*
G75*
G02*
X209750000Y-106668750I0J-268750D01*
G01*
X209750000Y-107206250D01*
G75*
G02*
X209481250Y-107475000I-268750J0D01*
G01*
X208518750Y-107475000D01*
G75*
G02*
X208250000Y-107206250I0J268750D01*
G01*
X208250000Y-106668750D01*
G75*
G02*
X208518750Y-106400000I268750J0D01*
G01*
G37*
G36*
G01*
X208518750Y-104525000D02*
X209481250Y-104525000D01*
G75*
G02*
X209750000Y-104793750I0J-268750D01*
G01*
X209750000Y-105331250D01*
G75*
G02*
X209481250Y-105600000I-268750J0D01*
G01*
X208518750Y-105600000D01*
G75*
G02*
X208250000Y-105331250I0J268750D01*
G01*
X208250000Y-104793750D01*
G75*
G02*
X208518750Y-104525000I268750J0D01*
G01*
G37*
%TD*%
%TO.C,R31*%
G36*
G01*
X200518750Y-102400000D02*
X201481250Y-102400000D01*
G75*
G02*
X201750000Y-102668750I0J-268750D01*
G01*
X201750000Y-103206250D01*
G75*
G02*
X201481250Y-103475000I-268750J0D01*
G01*
X200518750Y-103475000D01*
G75*
G02*
X200250000Y-103206250I0J268750D01*
G01*
X200250000Y-102668750D01*
G75*
G02*
X200518750Y-102400000I268750J0D01*
G01*
G37*
G36*
G01*
X200518750Y-100525000D02*
X201481250Y-100525000D01*
G75*
G02*
X201750000Y-100793750I0J-268750D01*
G01*
X201750000Y-101331250D01*
G75*
G02*
X201481250Y-101600000I-268750J0D01*
G01*
X200518750Y-101600000D01*
G75*
G02*
X200250000Y-101331250I0J268750D01*
G01*
X200250000Y-100793750D01*
G75*
G02*
X200518750Y-100525000I268750J0D01*
G01*
G37*
%TD*%
%TO.C,R30*%
G36*
G01*
X208518750Y-102400000D02*
X209481250Y-102400000D01*
G75*
G02*
X209750000Y-102668750I0J-268750D01*
G01*
X209750000Y-103206250D01*
G75*
G02*
X209481250Y-103475000I-268750J0D01*
G01*
X208518750Y-103475000D01*
G75*
G02*
X208250000Y-103206250I0J268750D01*
G01*
X208250000Y-102668750D01*
G75*
G02*
X208518750Y-102400000I268750J0D01*
G01*
G37*
G36*
G01*
X208518750Y-100525000D02*
X209481250Y-100525000D01*
G75*
G02*
X209750000Y-100793750I0J-268750D01*
G01*
X209750000Y-101331250D01*
G75*
G02*
X209481250Y-101600000I-268750J0D01*
G01*
X208518750Y-101600000D01*
G75*
G02*
X208250000Y-101331250I0J268750D01*
G01*
X208250000Y-100793750D01*
G75*
G02*
X208518750Y-100525000I268750J0D01*
G01*
G37*
%TD*%
%TO.C,R29*%
G36*
G01*
X200518750Y-98400000D02*
X201481250Y-98400000D01*
G75*
G02*
X201750000Y-98668750I0J-268750D01*
G01*
X201750000Y-99206250D01*
G75*
G02*
X201481250Y-99475000I-268750J0D01*
G01*
X200518750Y-99475000D01*
G75*
G02*
X200250000Y-99206250I0J268750D01*
G01*
X200250000Y-98668750D01*
G75*
G02*
X200518750Y-98400000I268750J0D01*
G01*
G37*
G36*
G01*
X200518750Y-96525000D02*
X201481250Y-96525000D01*
G75*
G02*
X201750000Y-96793750I0J-268750D01*
G01*
X201750000Y-97331250D01*
G75*
G02*
X201481250Y-97600000I-268750J0D01*
G01*
X200518750Y-97600000D01*
G75*
G02*
X200250000Y-97331250I0J268750D01*
G01*
X200250000Y-96793750D01*
G75*
G02*
X200518750Y-96525000I268750J0D01*
G01*
G37*
%TD*%
%TO.C,R28*%
G36*
G01*
X208518750Y-98400000D02*
X209481250Y-98400000D01*
G75*
G02*
X209750000Y-98668750I0J-268750D01*
G01*
X209750000Y-99206250D01*
G75*
G02*
X209481250Y-99475000I-268750J0D01*
G01*
X208518750Y-99475000D01*
G75*
G02*
X208250000Y-99206250I0J268750D01*
G01*
X208250000Y-98668750D01*
G75*
G02*
X208518750Y-98400000I268750J0D01*
G01*
G37*
G36*
G01*
X208518750Y-96525000D02*
X209481250Y-96525000D01*
G75*
G02*
X209750000Y-96793750I0J-268750D01*
G01*
X209750000Y-97331250D01*
G75*
G02*
X209481250Y-97600000I-268750J0D01*
G01*
X208518750Y-97600000D01*
G75*
G02*
X208250000Y-97331250I0J268750D01*
G01*
X208250000Y-96793750D01*
G75*
G02*
X208518750Y-96525000I268750J0D01*
G01*
G37*
%TD*%
%TO.C,R27*%
G36*
G01*
X200518750Y-94400000D02*
X201481250Y-94400000D01*
G75*
G02*
X201750000Y-94668750I0J-268750D01*
G01*
X201750000Y-95206250D01*
G75*
G02*
X201481250Y-95475000I-268750J0D01*
G01*
X200518750Y-95475000D01*
G75*
G02*
X200250000Y-95206250I0J268750D01*
G01*
X200250000Y-94668750D01*
G75*
G02*
X200518750Y-94400000I268750J0D01*
G01*
G37*
G36*
G01*
X200518750Y-92525000D02*
X201481250Y-92525000D01*
G75*
G02*
X201750000Y-92793750I0J-268750D01*
G01*
X201750000Y-93331250D01*
G75*
G02*
X201481250Y-93600000I-268750J0D01*
G01*
X200518750Y-93600000D01*
G75*
G02*
X200250000Y-93331250I0J268750D01*
G01*
X200250000Y-92793750D01*
G75*
G02*
X200518750Y-92525000I268750J0D01*
G01*
G37*
%TD*%
%TO.C,R26*%
G36*
G01*
X208518750Y-94400000D02*
X209481250Y-94400000D01*
G75*
G02*
X209750000Y-94668750I0J-268750D01*
G01*
X209750000Y-95206250D01*
G75*
G02*
X209481250Y-95475000I-268750J0D01*
G01*
X208518750Y-95475000D01*
G75*
G02*
X208250000Y-95206250I0J268750D01*
G01*
X208250000Y-94668750D01*
G75*
G02*
X208518750Y-94400000I268750J0D01*
G01*
G37*
G36*
G01*
X208518750Y-92525000D02*
X209481250Y-92525000D01*
G75*
G02*
X209750000Y-92793750I0J-268750D01*
G01*
X209750000Y-93331250D01*
G75*
G02*
X209481250Y-93600000I-268750J0D01*
G01*
X208518750Y-93600000D01*
G75*
G02*
X208250000Y-93331250I0J268750D01*
G01*
X208250000Y-92793750D01*
G75*
G02*
X208518750Y-92525000I268750J0D01*
G01*
G37*
%TD*%
%TO.C,R25*%
G36*
G01*
X180518750Y-113400000D02*
X181481250Y-113400000D01*
G75*
G02*
X181750000Y-113668750I0J-268750D01*
G01*
X181750000Y-114206250D01*
G75*
G02*
X181481250Y-114475000I-268750J0D01*
G01*
X180518750Y-114475000D01*
G75*
G02*
X180250000Y-114206250I0J268750D01*
G01*
X180250000Y-113668750D01*
G75*
G02*
X180518750Y-113400000I268750J0D01*
G01*
G37*
G36*
G01*
X180518750Y-111525000D02*
X181481250Y-111525000D01*
G75*
G02*
X181750000Y-111793750I0J-268750D01*
G01*
X181750000Y-112331250D01*
G75*
G02*
X181481250Y-112600000I-268750J0D01*
G01*
X180518750Y-112600000D01*
G75*
G02*
X180250000Y-112331250I0J268750D01*
G01*
X180250000Y-111793750D01*
G75*
G02*
X180518750Y-111525000I268750J0D01*
G01*
G37*
%TD*%
%TO.C,R24*%
G36*
G01*
X192275000Y-110845000D02*
X192275000Y-112155000D01*
G75*
G02*
X192005000Y-112425000I-270000J0D01*
G01*
X191195000Y-112425000D01*
G75*
G02*
X190925000Y-112155000I0J270000D01*
G01*
X190925000Y-110845000D01*
G75*
G02*
X191195000Y-110575000I270000J0D01*
G01*
X192005000Y-110575000D01*
G75*
G02*
X192275000Y-110845000I0J-270000D01*
G01*
G37*
G36*
G01*
X195075000Y-110845000D02*
X195075000Y-112155000D01*
G75*
G02*
X194805000Y-112425000I-270000J0D01*
G01*
X193995000Y-112425000D01*
G75*
G02*
X193725000Y-112155000I0J270000D01*
G01*
X193725000Y-110845000D01*
G75*
G02*
X193995000Y-110575000I270000J0D01*
G01*
X194805000Y-110575000D01*
G75*
G02*
X195075000Y-110845000I0J-270000D01*
G01*
G37*
%TD*%
%TO.C,R23*%
G36*
G01*
X193725000Y-115155000D02*
X193725000Y-113845000D01*
G75*
G02*
X193995000Y-113575000I270000J0D01*
G01*
X194805000Y-113575000D01*
G75*
G02*
X195075000Y-113845000I0J-270000D01*
G01*
X195075000Y-115155000D01*
G75*
G02*
X194805000Y-115425000I-270000J0D01*
G01*
X193995000Y-115425000D01*
G75*
G02*
X193725000Y-115155000I0J270000D01*
G01*
G37*
G36*
G01*
X190925000Y-115155000D02*
X190925000Y-113845000D01*
G75*
G02*
X191195000Y-113575000I270000J0D01*
G01*
X192005000Y-113575000D01*
G75*
G02*
X192275000Y-113845000I0J-270000D01*
G01*
X192275000Y-115155000D01*
G75*
G02*
X192005000Y-115425000I-270000J0D01*
G01*
X191195000Y-115425000D01*
G75*
G02*
X190925000Y-115155000I0J270000D01*
G01*
G37*
%TD*%
%TO.C,R22*%
G36*
G01*
X182518750Y-106400000D02*
X183481250Y-106400000D01*
G75*
G02*
X183750000Y-106668750I0J-268750D01*
G01*
X183750000Y-107206250D01*
G75*
G02*
X183481250Y-107475000I-268750J0D01*
G01*
X182518750Y-107475000D01*
G75*
G02*
X182250000Y-107206250I0J268750D01*
G01*
X182250000Y-106668750D01*
G75*
G02*
X182518750Y-106400000I268750J0D01*
G01*
G37*
G36*
G01*
X182518750Y-104525000D02*
X183481250Y-104525000D01*
G75*
G02*
X183750000Y-104793750I0J-268750D01*
G01*
X183750000Y-105331250D01*
G75*
G02*
X183481250Y-105600000I-268750J0D01*
G01*
X182518750Y-105600000D01*
G75*
G02*
X182250000Y-105331250I0J268750D01*
G01*
X182250000Y-104793750D01*
G75*
G02*
X182518750Y-104525000I268750J0D01*
G01*
G37*
%TD*%
%TO.C,R21*%
G36*
G01*
X190518750Y-106400000D02*
X191481250Y-106400000D01*
G75*
G02*
X191750000Y-106668750I0J-268750D01*
G01*
X191750000Y-107206250D01*
G75*
G02*
X191481250Y-107475000I-268750J0D01*
G01*
X190518750Y-107475000D01*
G75*
G02*
X190250000Y-107206250I0J268750D01*
G01*
X190250000Y-106668750D01*
G75*
G02*
X190518750Y-106400000I268750J0D01*
G01*
G37*
G36*
G01*
X190518750Y-104525000D02*
X191481250Y-104525000D01*
G75*
G02*
X191750000Y-104793750I0J-268750D01*
G01*
X191750000Y-105331250D01*
G75*
G02*
X191481250Y-105600000I-268750J0D01*
G01*
X190518750Y-105600000D01*
G75*
G02*
X190250000Y-105331250I0J268750D01*
G01*
X190250000Y-104793750D01*
G75*
G02*
X190518750Y-104525000I268750J0D01*
G01*
G37*
%TD*%
%TO.C,R20*%
G36*
G01*
X182518750Y-102400000D02*
X183481250Y-102400000D01*
G75*
G02*
X183750000Y-102668750I0J-268750D01*
G01*
X183750000Y-103206250D01*
G75*
G02*
X183481250Y-103475000I-268750J0D01*
G01*
X182518750Y-103475000D01*
G75*
G02*
X182250000Y-103206250I0J268750D01*
G01*
X182250000Y-102668750D01*
G75*
G02*
X182518750Y-102400000I268750J0D01*
G01*
G37*
G36*
G01*
X182518750Y-100525000D02*
X183481250Y-100525000D01*
G75*
G02*
X183750000Y-100793750I0J-268750D01*
G01*
X183750000Y-101331250D01*
G75*
G02*
X183481250Y-101600000I-268750J0D01*
G01*
X182518750Y-101600000D01*
G75*
G02*
X182250000Y-101331250I0J268750D01*
G01*
X182250000Y-100793750D01*
G75*
G02*
X182518750Y-100525000I268750J0D01*
G01*
G37*
%TD*%
%TO.C,R19*%
G36*
G01*
X190518750Y-102400000D02*
X191481250Y-102400000D01*
G75*
G02*
X191750000Y-102668750I0J-268750D01*
G01*
X191750000Y-103206250D01*
G75*
G02*
X191481250Y-103475000I-268750J0D01*
G01*
X190518750Y-103475000D01*
G75*
G02*
X190250000Y-103206250I0J268750D01*
G01*
X190250000Y-102668750D01*
G75*
G02*
X190518750Y-102400000I268750J0D01*
G01*
G37*
G36*
G01*
X190518750Y-100525000D02*
X191481250Y-100525000D01*
G75*
G02*
X191750000Y-100793750I0J-268750D01*
G01*
X191750000Y-101331250D01*
G75*
G02*
X191481250Y-101600000I-268750J0D01*
G01*
X190518750Y-101600000D01*
G75*
G02*
X190250000Y-101331250I0J268750D01*
G01*
X190250000Y-100793750D01*
G75*
G02*
X190518750Y-100525000I268750J0D01*
G01*
G37*
%TD*%
%TO.C,R18*%
G36*
G01*
X182518750Y-98400000D02*
X183481250Y-98400000D01*
G75*
G02*
X183750000Y-98668750I0J-268750D01*
G01*
X183750000Y-99206250D01*
G75*
G02*
X183481250Y-99475000I-268750J0D01*
G01*
X182518750Y-99475000D01*
G75*
G02*
X182250000Y-99206250I0J268750D01*
G01*
X182250000Y-98668750D01*
G75*
G02*
X182518750Y-98400000I268750J0D01*
G01*
G37*
G36*
G01*
X182518750Y-96525000D02*
X183481250Y-96525000D01*
G75*
G02*
X183750000Y-96793750I0J-268750D01*
G01*
X183750000Y-97331250D01*
G75*
G02*
X183481250Y-97600000I-268750J0D01*
G01*
X182518750Y-97600000D01*
G75*
G02*
X182250000Y-97331250I0J268750D01*
G01*
X182250000Y-96793750D01*
G75*
G02*
X182518750Y-96525000I268750J0D01*
G01*
G37*
%TD*%
%TO.C,R17*%
G36*
G01*
X190518750Y-98400000D02*
X191481250Y-98400000D01*
G75*
G02*
X191750000Y-98668750I0J-268750D01*
G01*
X191750000Y-99206250D01*
G75*
G02*
X191481250Y-99475000I-268750J0D01*
G01*
X190518750Y-99475000D01*
G75*
G02*
X190250000Y-99206250I0J268750D01*
G01*
X190250000Y-98668750D01*
G75*
G02*
X190518750Y-98400000I268750J0D01*
G01*
G37*
G36*
G01*
X190518750Y-96525000D02*
X191481250Y-96525000D01*
G75*
G02*
X191750000Y-96793750I0J-268750D01*
G01*
X191750000Y-97331250D01*
G75*
G02*
X191481250Y-97600000I-268750J0D01*
G01*
X190518750Y-97600000D01*
G75*
G02*
X190250000Y-97331250I0J268750D01*
G01*
X190250000Y-96793750D01*
G75*
G02*
X190518750Y-96525000I268750J0D01*
G01*
G37*
%TD*%
%TO.C,R16*%
G36*
G01*
X182518750Y-94400000D02*
X183481250Y-94400000D01*
G75*
G02*
X183750000Y-94668750I0J-268750D01*
G01*
X183750000Y-95206250D01*
G75*
G02*
X183481250Y-95475000I-268750J0D01*
G01*
X182518750Y-95475000D01*
G75*
G02*
X182250000Y-95206250I0J268750D01*
G01*
X182250000Y-94668750D01*
G75*
G02*
X182518750Y-94400000I268750J0D01*
G01*
G37*
G36*
G01*
X182518750Y-92525000D02*
X183481250Y-92525000D01*
G75*
G02*
X183750000Y-92793750I0J-268750D01*
G01*
X183750000Y-93331250D01*
G75*
G02*
X183481250Y-93600000I-268750J0D01*
G01*
X182518750Y-93600000D01*
G75*
G02*
X182250000Y-93331250I0J268750D01*
G01*
X182250000Y-92793750D01*
G75*
G02*
X182518750Y-92525000I268750J0D01*
G01*
G37*
%TD*%
%TO.C,R15*%
G36*
G01*
X190518750Y-94400000D02*
X191481250Y-94400000D01*
G75*
G02*
X191750000Y-94668750I0J-268750D01*
G01*
X191750000Y-95206250D01*
G75*
G02*
X191481250Y-95475000I-268750J0D01*
G01*
X190518750Y-95475000D01*
G75*
G02*
X190250000Y-95206250I0J268750D01*
G01*
X190250000Y-94668750D01*
G75*
G02*
X190518750Y-94400000I268750J0D01*
G01*
G37*
G36*
G01*
X190518750Y-92525000D02*
X191481250Y-92525000D01*
G75*
G02*
X191750000Y-92793750I0J-268750D01*
G01*
X191750000Y-93331250D01*
G75*
G02*
X191481250Y-93600000I-268750J0D01*
G01*
X190518750Y-93600000D01*
G75*
G02*
X190250000Y-93331250I0J268750D01*
G01*
X190250000Y-92793750D01*
G75*
G02*
X190518750Y-92525000I268750J0D01*
G01*
G37*
%TD*%
%TO.C,R14*%
G36*
G01*
X162518750Y-113400000D02*
X163481250Y-113400000D01*
G75*
G02*
X163750000Y-113668750I0J-268750D01*
G01*
X163750000Y-114206250D01*
G75*
G02*
X163481250Y-114475000I-268750J0D01*
G01*
X162518750Y-114475000D01*
G75*
G02*
X162250000Y-114206250I0J268750D01*
G01*
X162250000Y-113668750D01*
G75*
G02*
X162518750Y-113400000I268750J0D01*
G01*
G37*
G36*
G01*
X162518750Y-111525000D02*
X163481250Y-111525000D01*
G75*
G02*
X163750000Y-111793750I0J-268750D01*
G01*
X163750000Y-112331250D01*
G75*
G02*
X163481250Y-112600000I-268750J0D01*
G01*
X162518750Y-112600000D01*
G75*
G02*
X162250000Y-112331250I0J268750D01*
G01*
X162250000Y-111793750D01*
G75*
G02*
X162518750Y-111525000I268750J0D01*
G01*
G37*
%TD*%
%TO.C,R13*%
G36*
G01*
X174275000Y-110845000D02*
X174275000Y-112155000D01*
G75*
G02*
X174005000Y-112425000I-270000J0D01*
G01*
X173195000Y-112425000D01*
G75*
G02*
X172925000Y-112155000I0J270000D01*
G01*
X172925000Y-110845000D01*
G75*
G02*
X173195000Y-110575000I270000J0D01*
G01*
X174005000Y-110575000D01*
G75*
G02*
X174275000Y-110845000I0J-270000D01*
G01*
G37*
G36*
G01*
X177075000Y-110845000D02*
X177075000Y-112155000D01*
G75*
G02*
X176805000Y-112425000I-270000J0D01*
G01*
X175995000Y-112425000D01*
G75*
G02*
X175725000Y-112155000I0J270000D01*
G01*
X175725000Y-110845000D01*
G75*
G02*
X175995000Y-110575000I270000J0D01*
G01*
X176805000Y-110575000D01*
G75*
G02*
X177075000Y-110845000I0J-270000D01*
G01*
G37*
%TD*%
%TO.C,R12*%
G36*
G01*
X175725000Y-115155000D02*
X175725000Y-113845000D01*
G75*
G02*
X175995000Y-113575000I270000J0D01*
G01*
X176805000Y-113575000D01*
G75*
G02*
X177075000Y-113845000I0J-270000D01*
G01*
X177075000Y-115155000D01*
G75*
G02*
X176805000Y-115425000I-270000J0D01*
G01*
X175995000Y-115425000D01*
G75*
G02*
X175725000Y-115155000I0J270000D01*
G01*
G37*
G36*
G01*
X172925000Y-115155000D02*
X172925000Y-113845000D01*
G75*
G02*
X173195000Y-113575000I270000J0D01*
G01*
X174005000Y-113575000D01*
G75*
G02*
X174275000Y-113845000I0J-270000D01*
G01*
X174275000Y-115155000D01*
G75*
G02*
X174005000Y-115425000I-270000J0D01*
G01*
X173195000Y-115425000D01*
G75*
G02*
X172925000Y-115155000I0J270000D01*
G01*
G37*
%TD*%
%TO.C,R11*%
G36*
G01*
X164518750Y-106400000D02*
X165481250Y-106400000D01*
G75*
G02*
X165750000Y-106668750I0J-268750D01*
G01*
X165750000Y-107206250D01*
G75*
G02*
X165481250Y-107475000I-268750J0D01*
G01*
X164518750Y-107475000D01*
G75*
G02*
X164250000Y-107206250I0J268750D01*
G01*
X164250000Y-106668750D01*
G75*
G02*
X164518750Y-106400000I268750J0D01*
G01*
G37*
G36*
G01*
X164518750Y-104525000D02*
X165481250Y-104525000D01*
G75*
G02*
X165750000Y-104793750I0J-268750D01*
G01*
X165750000Y-105331250D01*
G75*
G02*
X165481250Y-105600000I-268750J0D01*
G01*
X164518750Y-105600000D01*
G75*
G02*
X164250000Y-105331250I0J268750D01*
G01*
X164250000Y-104793750D01*
G75*
G02*
X164518750Y-104525000I268750J0D01*
G01*
G37*
%TD*%
%TO.C,R10*%
G36*
G01*
X172518750Y-106400000D02*
X173481250Y-106400000D01*
G75*
G02*
X173750000Y-106668750I0J-268750D01*
G01*
X173750000Y-107206250D01*
G75*
G02*
X173481250Y-107475000I-268750J0D01*
G01*
X172518750Y-107475000D01*
G75*
G02*
X172250000Y-107206250I0J268750D01*
G01*
X172250000Y-106668750D01*
G75*
G02*
X172518750Y-106400000I268750J0D01*
G01*
G37*
G36*
G01*
X172518750Y-104525000D02*
X173481250Y-104525000D01*
G75*
G02*
X173750000Y-104793750I0J-268750D01*
G01*
X173750000Y-105331250D01*
G75*
G02*
X173481250Y-105600000I-268750J0D01*
G01*
X172518750Y-105600000D01*
G75*
G02*
X172250000Y-105331250I0J268750D01*
G01*
X172250000Y-104793750D01*
G75*
G02*
X172518750Y-104525000I268750J0D01*
G01*
G37*
%TD*%
%TO.C,R9*%
G36*
G01*
X164518750Y-102400000D02*
X165481250Y-102400000D01*
G75*
G02*
X165750000Y-102668750I0J-268750D01*
G01*
X165750000Y-103206250D01*
G75*
G02*
X165481250Y-103475000I-268750J0D01*
G01*
X164518750Y-103475000D01*
G75*
G02*
X164250000Y-103206250I0J268750D01*
G01*
X164250000Y-102668750D01*
G75*
G02*
X164518750Y-102400000I268750J0D01*
G01*
G37*
G36*
G01*
X164518750Y-100525000D02*
X165481250Y-100525000D01*
G75*
G02*
X165750000Y-100793750I0J-268750D01*
G01*
X165750000Y-101331250D01*
G75*
G02*
X165481250Y-101600000I-268750J0D01*
G01*
X164518750Y-101600000D01*
G75*
G02*
X164250000Y-101331250I0J268750D01*
G01*
X164250000Y-100793750D01*
G75*
G02*
X164518750Y-100525000I268750J0D01*
G01*
G37*
%TD*%
%TO.C,R8*%
G36*
G01*
X172518750Y-102400000D02*
X173481250Y-102400000D01*
G75*
G02*
X173750000Y-102668750I0J-268750D01*
G01*
X173750000Y-103206250D01*
G75*
G02*
X173481250Y-103475000I-268750J0D01*
G01*
X172518750Y-103475000D01*
G75*
G02*
X172250000Y-103206250I0J268750D01*
G01*
X172250000Y-102668750D01*
G75*
G02*
X172518750Y-102400000I268750J0D01*
G01*
G37*
G36*
G01*
X172518750Y-100525000D02*
X173481250Y-100525000D01*
G75*
G02*
X173750000Y-100793750I0J-268750D01*
G01*
X173750000Y-101331250D01*
G75*
G02*
X173481250Y-101600000I-268750J0D01*
G01*
X172518750Y-101600000D01*
G75*
G02*
X172250000Y-101331250I0J268750D01*
G01*
X172250000Y-100793750D01*
G75*
G02*
X172518750Y-100525000I268750J0D01*
G01*
G37*
%TD*%
%TO.C,R7*%
G36*
G01*
X164518750Y-98400000D02*
X165481250Y-98400000D01*
G75*
G02*
X165750000Y-98668750I0J-268750D01*
G01*
X165750000Y-99206250D01*
G75*
G02*
X165481250Y-99475000I-268750J0D01*
G01*
X164518750Y-99475000D01*
G75*
G02*
X164250000Y-99206250I0J268750D01*
G01*
X164250000Y-98668750D01*
G75*
G02*
X164518750Y-98400000I268750J0D01*
G01*
G37*
G36*
G01*
X164518750Y-96525000D02*
X165481250Y-96525000D01*
G75*
G02*
X165750000Y-96793750I0J-268750D01*
G01*
X165750000Y-97331250D01*
G75*
G02*
X165481250Y-97600000I-268750J0D01*
G01*
X164518750Y-97600000D01*
G75*
G02*
X164250000Y-97331250I0J268750D01*
G01*
X164250000Y-96793750D01*
G75*
G02*
X164518750Y-96525000I268750J0D01*
G01*
G37*
%TD*%
%TO.C,R6*%
G36*
G01*
X172518750Y-98400000D02*
X173481250Y-98400000D01*
G75*
G02*
X173750000Y-98668750I0J-268750D01*
G01*
X173750000Y-99206250D01*
G75*
G02*
X173481250Y-99475000I-268750J0D01*
G01*
X172518750Y-99475000D01*
G75*
G02*
X172250000Y-99206250I0J268750D01*
G01*
X172250000Y-98668750D01*
G75*
G02*
X172518750Y-98400000I268750J0D01*
G01*
G37*
G36*
G01*
X172518750Y-96525000D02*
X173481250Y-96525000D01*
G75*
G02*
X173750000Y-96793750I0J-268750D01*
G01*
X173750000Y-97331250D01*
G75*
G02*
X173481250Y-97600000I-268750J0D01*
G01*
X172518750Y-97600000D01*
G75*
G02*
X172250000Y-97331250I0J268750D01*
G01*
X172250000Y-96793750D01*
G75*
G02*
X172518750Y-96525000I268750J0D01*
G01*
G37*
%TD*%
%TO.C,R5*%
G36*
G01*
X164518750Y-94400000D02*
X165481250Y-94400000D01*
G75*
G02*
X165750000Y-94668750I0J-268750D01*
G01*
X165750000Y-95206250D01*
G75*
G02*
X165481250Y-95475000I-268750J0D01*
G01*
X164518750Y-95475000D01*
G75*
G02*
X164250000Y-95206250I0J268750D01*
G01*
X164250000Y-94668750D01*
G75*
G02*
X164518750Y-94400000I268750J0D01*
G01*
G37*
G36*
G01*
X164518750Y-92525000D02*
X165481250Y-92525000D01*
G75*
G02*
X165750000Y-92793750I0J-268750D01*
G01*
X165750000Y-93331250D01*
G75*
G02*
X165481250Y-93600000I-268750J0D01*
G01*
X164518750Y-93600000D01*
G75*
G02*
X164250000Y-93331250I0J268750D01*
G01*
X164250000Y-92793750D01*
G75*
G02*
X164518750Y-92525000I268750J0D01*
G01*
G37*
%TD*%
%TO.C,R4*%
G36*
G01*
X172518750Y-94400000D02*
X173481250Y-94400000D01*
G75*
G02*
X173750000Y-94668750I0J-268750D01*
G01*
X173750000Y-95206250D01*
G75*
G02*
X173481250Y-95475000I-268750J0D01*
G01*
X172518750Y-95475000D01*
G75*
G02*
X172250000Y-95206250I0J268750D01*
G01*
X172250000Y-94668750D01*
G75*
G02*
X172518750Y-94400000I268750J0D01*
G01*
G37*
G36*
G01*
X172518750Y-92525000D02*
X173481250Y-92525000D01*
G75*
G02*
X173750000Y-92793750I0J-268750D01*
G01*
X173750000Y-93331250D01*
G75*
G02*
X173481250Y-93600000I-268750J0D01*
G01*
X172518750Y-93600000D01*
G75*
G02*
X172250000Y-93331250I0J268750D01*
G01*
X172250000Y-92793750D01*
G75*
G02*
X172518750Y-92525000I268750J0D01*
G01*
G37*
%TD*%
%TO.C,R3*%
G36*
G01*
X114281250Y-116700000D02*
X113718750Y-116700000D01*
G75*
G02*
X113475000Y-116456250I0J243750D01*
G01*
X113475000Y-115968750D01*
G75*
G02*
X113718750Y-115725000I243750J0D01*
G01*
X114281250Y-115725000D01*
G75*
G02*
X114525000Y-115968750I0J-243750D01*
G01*
X114525000Y-116456250D01*
G75*
G02*
X114281250Y-116700000I-243750J0D01*
G01*
G37*
G36*
G01*
X114281250Y-118275000D02*
X113718750Y-118275000D01*
G75*
G02*
X113475000Y-118031250I0J243750D01*
G01*
X113475000Y-117543750D01*
G75*
G02*
X113718750Y-117300000I243750J0D01*
G01*
X114281250Y-117300000D01*
G75*
G02*
X114525000Y-117543750I0J-243750D01*
G01*
X114525000Y-118031250D01*
G75*
G02*
X114281250Y-118275000I-243750J0D01*
G01*
G37*
%TD*%
%TO.C,R2*%
G36*
G01*
X112281250Y-112700000D02*
X111718750Y-112700000D01*
G75*
G02*
X111475000Y-112456250I0J243750D01*
G01*
X111475000Y-111968750D01*
G75*
G02*
X111718750Y-111725000I243750J0D01*
G01*
X112281250Y-111725000D01*
G75*
G02*
X112525000Y-111968750I0J-243750D01*
G01*
X112525000Y-112456250D01*
G75*
G02*
X112281250Y-112700000I-243750J0D01*
G01*
G37*
G36*
G01*
X112281250Y-114275000D02*
X111718750Y-114275000D01*
G75*
G02*
X111475000Y-114031250I0J243750D01*
G01*
X111475000Y-113543750D01*
G75*
G02*
X111718750Y-113300000I243750J0D01*
G01*
X112281250Y-113300000D01*
G75*
G02*
X112525000Y-113543750I0J-243750D01*
G01*
X112525000Y-114031250D01*
G75*
G02*
X112281250Y-114275000I-243750J0D01*
G01*
G37*
%TD*%
%TO.C,R1*%
X112550000Y-109000000D03*
X117450000Y-109000000D03*
%TD*%
D22*
%TO.C,JP3*%
X207000000Y-113000000D03*
D23*
G36*
X207799398Y-114306111D02*
G01*
X207799398Y-114324534D01*
X207799157Y-114329435D01*
X207794347Y-114378266D01*
X207793627Y-114383119D01*
X207784055Y-114431244D01*
X207782863Y-114436005D01*
X207768619Y-114482960D01*
X207766966Y-114487579D01*
X207748189Y-114532912D01*
X207746091Y-114537349D01*
X207722960Y-114580622D01*
X207720438Y-114584829D01*
X207693178Y-114625628D01*
X207690254Y-114629570D01*
X207659126Y-114667499D01*
X207655831Y-114671134D01*
X207621134Y-114705831D01*
X207617499Y-114709126D01*
X207579570Y-114740254D01*
X207575628Y-114743178D01*
X207534829Y-114770438D01*
X207530622Y-114772960D01*
X207487349Y-114796091D01*
X207482912Y-114798189D01*
X207437579Y-114816966D01*
X207432960Y-114818619D01*
X207386005Y-114832863D01*
X207381244Y-114834055D01*
X207333119Y-114843627D01*
X207328266Y-114844347D01*
X207279435Y-114849157D01*
X207274534Y-114849398D01*
X207256111Y-114849398D01*
X207250000Y-114850000D01*
X206750000Y-114850000D01*
X206743889Y-114849398D01*
X206725466Y-114849398D01*
X206720565Y-114849157D01*
X206671734Y-114844347D01*
X206666881Y-114843627D01*
X206618756Y-114834055D01*
X206613995Y-114832863D01*
X206567040Y-114818619D01*
X206562421Y-114816966D01*
X206517088Y-114798189D01*
X206512651Y-114796091D01*
X206469378Y-114772960D01*
X206465171Y-114770438D01*
X206424372Y-114743178D01*
X206420430Y-114740254D01*
X206382501Y-114709126D01*
X206378866Y-114705831D01*
X206344169Y-114671134D01*
X206340874Y-114667499D01*
X206309746Y-114629570D01*
X206306822Y-114625628D01*
X206279562Y-114584829D01*
X206277040Y-114580622D01*
X206253909Y-114537349D01*
X206251811Y-114532912D01*
X206233034Y-114487579D01*
X206231381Y-114482960D01*
X206217137Y-114436005D01*
X206215945Y-114431244D01*
X206206373Y-114383119D01*
X206205653Y-114378266D01*
X206200843Y-114329435D01*
X206200602Y-114324534D01*
X206200602Y-114306111D01*
X206200000Y-114300000D01*
X206200000Y-113750000D01*
X206200961Y-113740245D01*
X206203806Y-113730866D01*
X206208427Y-113722221D01*
X206214645Y-113714645D01*
X206222221Y-113708427D01*
X206230866Y-113703806D01*
X206240245Y-113700961D01*
X206250000Y-113700000D01*
X207750000Y-113700000D01*
X207759755Y-113700961D01*
X207769134Y-113703806D01*
X207777779Y-113708427D01*
X207785355Y-113714645D01*
X207791573Y-113722221D01*
X207796194Y-113730866D01*
X207799039Y-113740245D01*
X207800000Y-113750000D01*
X207800000Y-114300000D01*
X207799398Y-114306111D01*
G37*
G36*
X207799039Y-112259755D02*
G01*
X207796194Y-112269134D01*
X207791573Y-112277779D01*
X207785355Y-112285355D01*
X207777779Y-112291573D01*
X207769134Y-112296194D01*
X207759755Y-112299039D01*
X207750000Y-112300000D01*
X206250000Y-112300000D01*
X206240245Y-112299039D01*
X206230866Y-112296194D01*
X206222221Y-112291573D01*
X206214645Y-112285355D01*
X206208427Y-112277779D01*
X206203806Y-112269134D01*
X206200961Y-112259755D01*
X206200000Y-112250000D01*
X206200000Y-111700000D01*
X206200602Y-111693889D01*
X206200602Y-111675466D01*
X206200843Y-111670565D01*
X206205653Y-111621734D01*
X206206373Y-111616881D01*
X206215945Y-111568756D01*
X206217137Y-111563995D01*
X206231381Y-111517040D01*
X206233034Y-111512421D01*
X206251811Y-111467088D01*
X206253909Y-111462651D01*
X206277040Y-111419378D01*
X206279562Y-111415171D01*
X206306822Y-111374372D01*
X206309746Y-111370430D01*
X206340874Y-111332501D01*
X206344169Y-111328866D01*
X206378866Y-111294169D01*
X206382501Y-111290874D01*
X206420430Y-111259746D01*
X206424372Y-111256822D01*
X206465171Y-111229562D01*
X206469378Y-111227040D01*
X206512651Y-111203909D01*
X206517088Y-111201811D01*
X206562421Y-111183034D01*
X206567040Y-111181381D01*
X206613995Y-111167137D01*
X206618756Y-111165945D01*
X206666881Y-111156373D01*
X206671734Y-111155653D01*
X206720565Y-111150843D01*
X206725466Y-111150602D01*
X206743889Y-111150602D01*
X206750000Y-111150000D01*
X207250000Y-111150000D01*
X207256111Y-111150602D01*
X207274534Y-111150602D01*
X207279435Y-111150843D01*
X207328266Y-111155653D01*
X207333119Y-111156373D01*
X207381244Y-111165945D01*
X207386005Y-111167137D01*
X207432960Y-111181381D01*
X207437579Y-111183034D01*
X207482912Y-111201811D01*
X207487349Y-111203909D01*
X207530622Y-111227040D01*
X207534829Y-111229562D01*
X207575628Y-111256822D01*
X207579570Y-111259746D01*
X207617499Y-111290874D01*
X207621134Y-111294169D01*
X207655831Y-111328866D01*
X207659126Y-111332501D01*
X207690254Y-111370430D01*
X207693178Y-111374372D01*
X207720438Y-111415171D01*
X207722960Y-111419378D01*
X207746091Y-111462651D01*
X207748189Y-111467088D01*
X207766966Y-111512421D01*
X207768619Y-111517040D01*
X207782863Y-111563995D01*
X207784055Y-111568756D01*
X207793627Y-111616881D01*
X207794347Y-111621734D01*
X207799157Y-111670565D01*
X207799398Y-111675466D01*
X207799398Y-111693889D01*
X207800000Y-111700000D01*
X207800000Y-112250000D01*
X207799039Y-112259755D01*
G37*
%TD*%
D22*
%TO.C,JP2*%
X189000000Y-113000000D03*
D23*
G36*
X189799398Y-114306111D02*
G01*
X189799398Y-114324534D01*
X189799157Y-114329435D01*
X189794347Y-114378266D01*
X189793627Y-114383119D01*
X189784055Y-114431244D01*
X189782863Y-114436005D01*
X189768619Y-114482960D01*
X189766966Y-114487579D01*
X189748189Y-114532912D01*
X189746091Y-114537349D01*
X189722960Y-114580622D01*
X189720438Y-114584829D01*
X189693178Y-114625628D01*
X189690254Y-114629570D01*
X189659126Y-114667499D01*
X189655831Y-114671134D01*
X189621134Y-114705831D01*
X189617499Y-114709126D01*
X189579570Y-114740254D01*
X189575628Y-114743178D01*
X189534829Y-114770438D01*
X189530622Y-114772960D01*
X189487349Y-114796091D01*
X189482912Y-114798189D01*
X189437579Y-114816966D01*
X189432960Y-114818619D01*
X189386005Y-114832863D01*
X189381244Y-114834055D01*
X189333119Y-114843627D01*
X189328266Y-114844347D01*
X189279435Y-114849157D01*
X189274534Y-114849398D01*
X189256111Y-114849398D01*
X189250000Y-114850000D01*
X188750000Y-114850000D01*
X188743889Y-114849398D01*
X188725466Y-114849398D01*
X188720565Y-114849157D01*
X188671734Y-114844347D01*
X188666881Y-114843627D01*
X188618756Y-114834055D01*
X188613995Y-114832863D01*
X188567040Y-114818619D01*
X188562421Y-114816966D01*
X188517088Y-114798189D01*
X188512651Y-114796091D01*
X188469378Y-114772960D01*
X188465171Y-114770438D01*
X188424372Y-114743178D01*
X188420430Y-114740254D01*
X188382501Y-114709126D01*
X188378866Y-114705831D01*
X188344169Y-114671134D01*
X188340874Y-114667499D01*
X188309746Y-114629570D01*
X188306822Y-114625628D01*
X188279562Y-114584829D01*
X188277040Y-114580622D01*
X188253909Y-114537349D01*
X188251811Y-114532912D01*
X188233034Y-114487579D01*
X188231381Y-114482960D01*
X188217137Y-114436005D01*
X188215945Y-114431244D01*
X188206373Y-114383119D01*
X188205653Y-114378266D01*
X188200843Y-114329435D01*
X188200602Y-114324534D01*
X188200602Y-114306111D01*
X188200000Y-114300000D01*
X188200000Y-113750000D01*
X188200961Y-113740245D01*
X188203806Y-113730866D01*
X188208427Y-113722221D01*
X188214645Y-113714645D01*
X188222221Y-113708427D01*
X188230866Y-113703806D01*
X188240245Y-113700961D01*
X188250000Y-113700000D01*
X189750000Y-113700000D01*
X189759755Y-113700961D01*
X189769134Y-113703806D01*
X189777779Y-113708427D01*
X189785355Y-113714645D01*
X189791573Y-113722221D01*
X189796194Y-113730866D01*
X189799039Y-113740245D01*
X189800000Y-113750000D01*
X189800000Y-114300000D01*
X189799398Y-114306111D01*
G37*
G36*
X189799039Y-112259755D02*
G01*
X189796194Y-112269134D01*
X189791573Y-112277779D01*
X189785355Y-112285355D01*
X189777779Y-112291573D01*
X189769134Y-112296194D01*
X189759755Y-112299039D01*
X189750000Y-112300000D01*
X188250000Y-112300000D01*
X188240245Y-112299039D01*
X188230866Y-112296194D01*
X188222221Y-112291573D01*
X188214645Y-112285355D01*
X188208427Y-112277779D01*
X188203806Y-112269134D01*
X188200961Y-112259755D01*
X188200000Y-112250000D01*
X188200000Y-111700000D01*
X188200602Y-111693889D01*
X188200602Y-111675466D01*
X188200843Y-111670565D01*
X188205653Y-111621734D01*
X188206373Y-111616881D01*
X188215945Y-111568756D01*
X188217137Y-111563995D01*
X188231381Y-111517040D01*
X188233034Y-111512421D01*
X188251811Y-111467088D01*
X188253909Y-111462651D01*
X188277040Y-111419378D01*
X188279562Y-111415171D01*
X188306822Y-111374372D01*
X188309746Y-111370430D01*
X188340874Y-111332501D01*
X188344169Y-111328866D01*
X188378866Y-111294169D01*
X188382501Y-111290874D01*
X188420430Y-111259746D01*
X188424372Y-111256822D01*
X188465171Y-111229562D01*
X188469378Y-111227040D01*
X188512651Y-111203909D01*
X188517088Y-111201811D01*
X188562421Y-111183034D01*
X188567040Y-111181381D01*
X188613995Y-111167137D01*
X188618756Y-111165945D01*
X188666881Y-111156373D01*
X188671734Y-111155653D01*
X188720565Y-111150843D01*
X188725466Y-111150602D01*
X188743889Y-111150602D01*
X188750000Y-111150000D01*
X189250000Y-111150000D01*
X189256111Y-111150602D01*
X189274534Y-111150602D01*
X189279435Y-111150843D01*
X189328266Y-111155653D01*
X189333119Y-111156373D01*
X189381244Y-111165945D01*
X189386005Y-111167137D01*
X189432960Y-111181381D01*
X189437579Y-111183034D01*
X189482912Y-111201811D01*
X189487349Y-111203909D01*
X189530622Y-111227040D01*
X189534829Y-111229562D01*
X189575628Y-111256822D01*
X189579570Y-111259746D01*
X189617499Y-111290874D01*
X189621134Y-111294169D01*
X189655831Y-111328866D01*
X189659126Y-111332501D01*
X189690254Y-111370430D01*
X189693178Y-111374372D01*
X189720438Y-111415171D01*
X189722960Y-111419378D01*
X189746091Y-111462651D01*
X189748189Y-111467088D01*
X189766966Y-111512421D01*
X189768619Y-111517040D01*
X189782863Y-111563995D01*
X189784055Y-111568756D01*
X189793627Y-111616881D01*
X189794347Y-111621734D01*
X189799157Y-111670565D01*
X189799398Y-111675466D01*
X189799398Y-111693889D01*
X189800000Y-111700000D01*
X189800000Y-112250000D01*
X189799039Y-112259755D01*
G37*
%TD*%
D22*
%TO.C,JP1*%
X171000000Y-113000000D03*
D23*
G36*
X171799398Y-114306111D02*
G01*
X171799398Y-114324534D01*
X171799157Y-114329435D01*
X171794347Y-114378266D01*
X171793627Y-114383119D01*
X171784055Y-114431244D01*
X171782863Y-114436005D01*
X171768619Y-114482960D01*
X171766966Y-114487579D01*
X171748189Y-114532912D01*
X171746091Y-114537349D01*
X171722960Y-114580622D01*
X171720438Y-114584829D01*
X171693178Y-114625628D01*
X171690254Y-114629570D01*
X171659126Y-114667499D01*
X171655831Y-114671134D01*
X171621134Y-114705831D01*
X171617499Y-114709126D01*
X171579570Y-114740254D01*
X171575628Y-114743178D01*
X171534829Y-114770438D01*
X171530622Y-114772960D01*
X171487349Y-114796091D01*
X171482912Y-114798189D01*
X171437579Y-114816966D01*
X171432960Y-114818619D01*
X171386005Y-114832863D01*
X171381244Y-114834055D01*
X171333119Y-114843627D01*
X171328266Y-114844347D01*
X171279435Y-114849157D01*
X171274534Y-114849398D01*
X171256111Y-114849398D01*
X171250000Y-114850000D01*
X170750000Y-114850000D01*
X170743889Y-114849398D01*
X170725466Y-114849398D01*
X170720565Y-114849157D01*
X170671734Y-114844347D01*
X170666881Y-114843627D01*
X170618756Y-114834055D01*
X170613995Y-114832863D01*
X170567040Y-114818619D01*
X170562421Y-114816966D01*
X170517088Y-114798189D01*
X170512651Y-114796091D01*
X170469378Y-114772960D01*
X170465171Y-114770438D01*
X170424372Y-114743178D01*
X170420430Y-114740254D01*
X170382501Y-114709126D01*
X170378866Y-114705831D01*
X170344169Y-114671134D01*
X170340874Y-114667499D01*
X170309746Y-114629570D01*
X170306822Y-114625628D01*
X170279562Y-114584829D01*
X170277040Y-114580622D01*
X170253909Y-114537349D01*
X170251811Y-114532912D01*
X170233034Y-114487579D01*
X170231381Y-114482960D01*
X170217137Y-114436005D01*
X170215945Y-114431244D01*
X170206373Y-114383119D01*
X170205653Y-114378266D01*
X170200843Y-114329435D01*
X170200602Y-114324534D01*
X170200602Y-114306111D01*
X170200000Y-114300000D01*
X170200000Y-113750000D01*
X170200961Y-113740245D01*
X170203806Y-113730866D01*
X170208427Y-113722221D01*
X170214645Y-113714645D01*
X170222221Y-113708427D01*
X170230866Y-113703806D01*
X170240245Y-113700961D01*
X170250000Y-113700000D01*
X171750000Y-113700000D01*
X171759755Y-113700961D01*
X171769134Y-113703806D01*
X171777779Y-113708427D01*
X171785355Y-113714645D01*
X171791573Y-113722221D01*
X171796194Y-113730866D01*
X171799039Y-113740245D01*
X171800000Y-113750000D01*
X171800000Y-114300000D01*
X171799398Y-114306111D01*
G37*
G36*
X171799039Y-112259755D02*
G01*
X171796194Y-112269134D01*
X171791573Y-112277779D01*
X171785355Y-112285355D01*
X171777779Y-112291573D01*
X171769134Y-112296194D01*
X171759755Y-112299039D01*
X171750000Y-112300000D01*
X170250000Y-112300000D01*
X170240245Y-112299039D01*
X170230866Y-112296194D01*
X170222221Y-112291573D01*
X170214645Y-112285355D01*
X170208427Y-112277779D01*
X170203806Y-112269134D01*
X170200961Y-112259755D01*
X170200000Y-112250000D01*
X170200000Y-111700000D01*
X170200602Y-111693889D01*
X170200602Y-111675466D01*
X170200843Y-111670565D01*
X170205653Y-111621734D01*
X170206373Y-111616881D01*
X170215945Y-111568756D01*
X170217137Y-111563995D01*
X170231381Y-111517040D01*
X170233034Y-111512421D01*
X170251811Y-111467088D01*
X170253909Y-111462651D01*
X170277040Y-111419378D01*
X170279562Y-111415171D01*
X170306822Y-111374372D01*
X170309746Y-111370430D01*
X170340874Y-111332501D01*
X170344169Y-111328866D01*
X170378866Y-111294169D01*
X170382501Y-111290874D01*
X170420430Y-111259746D01*
X170424372Y-111256822D01*
X170465171Y-111229562D01*
X170469378Y-111227040D01*
X170512651Y-111203909D01*
X170517088Y-111201811D01*
X170562421Y-111183034D01*
X170567040Y-111181381D01*
X170613995Y-111167137D01*
X170618756Y-111165945D01*
X170666881Y-111156373D01*
X170671734Y-111155653D01*
X170720565Y-111150843D01*
X170725466Y-111150602D01*
X170743889Y-111150602D01*
X170750000Y-111150000D01*
X171250000Y-111150000D01*
X171256111Y-111150602D01*
X171274534Y-111150602D01*
X171279435Y-111150843D01*
X171328266Y-111155653D01*
X171333119Y-111156373D01*
X171381244Y-111165945D01*
X171386005Y-111167137D01*
X171432960Y-111181381D01*
X171437579Y-111183034D01*
X171482912Y-111201811D01*
X171487349Y-111203909D01*
X171530622Y-111227040D01*
X171534829Y-111229562D01*
X171575628Y-111256822D01*
X171579570Y-111259746D01*
X171617499Y-111290874D01*
X171621134Y-111294169D01*
X171655831Y-111328866D01*
X171659126Y-111332501D01*
X171690254Y-111370430D01*
X171693178Y-111374372D01*
X171720438Y-111415171D01*
X171722960Y-111419378D01*
X171746091Y-111462651D01*
X171748189Y-111467088D01*
X171766966Y-111512421D01*
X171768619Y-111517040D01*
X171782863Y-111563995D01*
X171784055Y-111568756D01*
X171793627Y-111616881D01*
X171794347Y-111621734D01*
X171799157Y-111670565D01*
X171799398Y-111675466D01*
X171799398Y-111693889D01*
X171800000Y-111700000D01*
X171800000Y-112250000D01*
X171799039Y-112259755D01*
G37*
%TD*%
D18*
%TO.C,J23*%
X201000000Y-89000000D03*
%TD*%
%TO.C,J22*%
X209000000Y-89000000D03*
%TD*%
%TO.C,J16*%
X183000000Y-89000000D03*
%TD*%
%TO.C,J15*%
X191000000Y-89000000D03*
%TD*%
%TO.C,J9*%
X165000000Y-89000000D03*
%TD*%
%TO.C,J8*%
X173000000Y-89000000D03*
%TD*%
%TO.C,C3*%
G36*
G01*
X148281250Y-116700000D02*
X147718750Y-116700000D01*
G75*
G02*
X147475000Y-116456250I0J243750D01*
G01*
X147475000Y-115968750D01*
G75*
G02*
X147718750Y-115725000I243750J0D01*
G01*
X148281250Y-115725000D01*
G75*
G02*
X148525000Y-115968750I0J-243750D01*
G01*
X148525000Y-116456250D01*
G75*
G02*
X148281250Y-116700000I-243750J0D01*
G01*
G37*
G36*
G01*
X148281250Y-118275000D02*
X147718750Y-118275000D01*
G75*
G02*
X147475000Y-118031250I0J243750D01*
G01*
X147475000Y-117543750D01*
G75*
G02*
X147718750Y-117300000I243750J0D01*
G01*
X148281250Y-117300000D01*
G75*
G02*
X148525000Y-117543750I0J-243750D01*
G01*
X148525000Y-118031250D01*
G75*
G02*
X148281250Y-118275000I-243750J0D01*
G01*
G37*
%TD*%
%TO.C,C2*%
G36*
G01*
X130281250Y-116700000D02*
X129718750Y-116700000D01*
G75*
G02*
X129475000Y-116456250I0J243750D01*
G01*
X129475000Y-115968750D01*
G75*
G02*
X129718750Y-115725000I243750J0D01*
G01*
X130281250Y-115725000D01*
G75*
G02*
X130525000Y-115968750I0J-243750D01*
G01*
X130525000Y-116456250D01*
G75*
G02*
X130281250Y-116700000I-243750J0D01*
G01*
G37*
G36*
G01*
X130281250Y-118275000D02*
X129718750Y-118275000D01*
G75*
G02*
X129475000Y-118031250I0J243750D01*
G01*
X129475000Y-117543750D01*
G75*
G02*
X129718750Y-117300000I243750J0D01*
G01*
X130281250Y-117300000D01*
G75*
G02*
X130525000Y-117543750I0J-243750D01*
G01*
X130525000Y-118031250D01*
G75*
G02*
X130281250Y-118275000I-243750J0D01*
G01*
G37*
%TD*%
%TO.C,C1*%
G36*
G01*
X112281250Y-116700000D02*
X111718750Y-116700000D01*
G75*
G02*
X111475000Y-116456250I0J243750D01*
G01*
X111475000Y-115968750D01*
G75*
G02*
X111718750Y-115725000I243750J0D01*
G01*
X112281250Y-115725000D01*
G75*
G02*
X112525000Y-115968750I0J-243750D01*
G01*
X112525000Y-116456250D01*
G75*
G02*
X112281250Y-116700000I-243750J0D01*
G01*
G37*
G36*
G01*
X112281250Y-118275000D02*
X111718750Y-118275000D01*
G75*
G02*
X111475000Y-118031250I0J243750D01*
G01*
X111475000Y-117543750D01*
G75*
G02*
X111718750Y-117300000I243750J0D01*
G01*
X112281250Y-117300000D01*
G75*
G02*
X112525000Y-117543750I0J-243750D01*
G01*
X112525000Y-118031250D01*
G75*
G02*
X112281250Y-118275000I-243750J0D01*
G01*
G37*
%TD*%
M02*
