%TF.GenerationSoftware,KiCad,Pcbnew,(5.1.6)-1*%
%TF.CreationDate,2020-11-06T14:41:16+01:00*%
%TF.ProjectId,3V_4I_ac_afe,33565f34-495f-4616-935f-6166652e6b69,rev?*%
%TF.SameCoordinates,Original*%
%TF.FileFunction,Soldermask,Bot*%
%TF.FilePolarity,Negative*%
%FSLAX46Y46*%
G04 Gerber Fmt 4.6, Leading zero omitted, Abs format (unit mm)*
G04 Created by KiCad (PCBNEW (5.1.6)-1) date 2020-11-06 14:41:16*
%MOMM*%
%LPD*%
G01*
G04 APERTURE LIST*
%ADD10C,3.300000*%
%ADD11C,2.600000*%
%ADD12C,1.624000*%
%ADD13C,2.700000*%
%ADD14R,2.700000X2.700000*%
%ADD15R,1.800000X1.800000*%
%ADD16O,1.800000X1.800000*%
G04 APERTURE END LIST*
D10*
%TO.C,H4*%
X217000000Y-130000000D03*
%TD*%
%TO.C,H3*%
X85000000Y-130000000D03*
%TD*%
%TO.C,H2*%
X217000000Y-78000000D03*
%TD*%
%TO.C,H1*%
X85000000Y-78000000D03*
%TD*%
D11*
%TO.C,CT3*%
X158000000Y-97000000D03*
X144000000Y-97000000D03*
D12*
X151000000Y-90650000D03*
X151000000Y-103350000D03*
%TD*%
D13*
%TO.C,J43*%
X94500000Y-79500000D03*
D14*
X99500000Y-79500000D03*
%TD*%
D13*
%TO.C,J36*%
X148500000Y-79500000D03*
D14*
X153500000Y-79500000D03*
%TD*%
D13*
%TO.C,J29*%
X130500000Y-79500000D03*
D14*
X135500000Y-79500000D03*
%TD*%
D13*
%TO.C,J1*%
X112500000Y-79500000D03*
D14*
X117500000Y-79500000D03*
%TD*%
D11*
%TO.C,CT4*%
X104000000Y-97000000D03*
X90000000Y-97000000D03*
D12*
X97000000Y-90650000D03*
X97000000Y-103350000D03*
%TD*%
D11*
%TO.C,CT2*%
X140000000Y-97000000D03*
X126000000Y-97000000D03*
D12*
X133000000Y-90650000D03*
X133000000Y-103350000D03*
%TD*%
D11*
%TO.C,CT1*%
X122000000Y-97000000D03*
X108000000Y-97000000D03*
D12*
X115000000Y-90650000D03*
X115000000Y-103350000D03*
%TD*%
D13*
%TO.C,J24*%
X202500000Y-79500000D03*
D14*
X207500000Y-79500000D03*
%TD*%
D13*
%TO.C,J17*%
X184500000Y-79500000D03*
D14*
X189500000Y-79500000D03*
%TD*%
D13*
%TO.C,J10*%
X166500000Y-79500000D03*
D14*
X171500000Y-79500000D03*
%TD*%
D15*
%TO.C,J45*%
X103000000Y-109000000D03*
%TD*%
%TO.C,J44*%
X91000000Y-109000000D03*
%TD*%
%TO.C,J38*%
X157000000Y-109000000D03*
%TD*%
%TO.C,J37*%
X145000000Y-109000000D03*
%TD*%
%TO.C,J31*%
X139000000Y-109000000D03*
%TD*%
%TO.C,J30*%
X127000000Y-109000000D03*
%TD*%
%TO.C,J3*%
X121000000Y-109000000D03*
%TD*%
%TO.C,J2*%
X109000000Y-109000000D03*
%TD*%
D16*
%TO.C,J49*%
X103000000Y-130540000D03*
D15*
X103000000Y-128000000D03*
%TD*%
D16*
%TO.C,J48*%
X95000000Y-130540000D03*
D15*
X95000000Y-128000000D03*
%TD*%
D16*
%TO.C,J47*%
X91000000Y-130540000D03*
D15*
X91000000Y-128000000D03*
%TD*%
D16*
%TO.C,J46*%
X99000000Y-130540000D03*
D15*
X99000000Y-128000000D03*
%TD*%
D16*
%TO.C,J42*%
X157000000Y-130540000D03*
D15*
X157000000Y-128000000D03*
%TD*%
D16*
%TO.C,J41*%
X149000000Y-130540000D03*
D15*
X149000000Y-128000000D03*
%TD*%
D16*
%TO.C,J40*%
X145000000Y-130540000D03*
D15*
X145000000Y-128000000D03*
%TD*%
D16*
%TO.C,J39*%
X153000000Y-130540000D03*
D15*
X153000000Y-128000000D03*
%TD*%
D16*
%TO.C,J35*%
X139000000Y-130540000D03*
D15*
X139000000Y-128000000D03*
%TD*%
D16*
%TO.C,J34*%
X131020000Y-130540000D03*
D15*
X131020000Y-128000000D03*
%TD*%
D16*
%TO.C,J33*%
X127000000Y-130540000D03*
D15*
X127000000Y-128000000D03*
%TD*%
D16*
%TO.C,J32*%
X135000000Y-130540000D03*
D15*
X135000000Y-128000000D03*
%TD*%
D16*
%TO.C,J28*%
X211000000Y-130540000D03*
D15*
X211000000Y-128000000D03*
%TD*%
D16*
%TO.C,J27*%
X203000000Y-130540000D03*
D15*
X203000000Y-128000000D03*
%TD*%
D16*
%TO.C,J26*%
X199000000Y-130540000D03*
D15*
X199000000Y-128000000D03*
%TD*%
D16*
%TO.C,J25*%
X207000000Y-130540000D03*
D15*
X207000000Y-128000000D03*
%TD*%
D16*
%TO.C,J21*%
X193000000Y-130540000D03*
D15*
X193000000Y-128000000D03*
%TD*%
D16*
%TO.C,J20*%
X185000000Y-130540000D03*
D15*
X185000000Y-128000000D03*
%TD*%
D16*
%TO.C,J19*%
X181000000Y-130540000D03*
D15*
X181000000Y-128000000D03*
%TD*%
D16*
%TO.C,J18*%
X189000000Y-130540000D03*
D15*
X189000000Y-128000000D03*
%TD*%
D16*
%TO.C,J14*%
X175000000Y-130540000D03*
D15*
X175000000Y-128000000D03*
%TD*%
D16*
%TO.C,J13*%
X167000000Y-130540000D03*
D15*
X167000000Y-128000000D03*
%TD*%
D16*
%TO.C,J12*%
X163000000Y-130540000D03*
D15*
X163000000Y-128000000D03*
%TD*%
D16*
%TO.C,J11*%
X171000000Y-130540000D03*
D15*
X171000000Y-128000000D03*
%TD*%
D16*
%TO.C,J7*%
X121000000Y-130540000D03*
D15*
X121000000Y-128000000D03*
%TD*%
D16*
%TO.C,J6*%
X113000000Y-130540000D03*
D15*
X113000000Y-128000000D03*
%TD*%
D16*
%TO.C,J5*%
X109050000Y-130540000D03*
D15*
X109050000Y-128000000D03*
%TD*%
D16*
%TO.C,J4*%
X117000000Y-130540000D03*
D15*
X117000000Y-128000000D03*
%TD*%
%TO.C,J23*%
X201000000Y-89000000D03*
%TD*%
%TO.C,J22*%
X209000000Y-89000000D03*
%TD*%
%TO.C,J16*%
X183000000Y-89000000D03*
%TD*%
%TO.C,J15*%
X191000000Y-89000000D03*
%TD*%
%TO.C,J9*%
X165000000Y-89000000D03*
%TD*%
%TO.C,J8*%
X173000000Y-89000000D03*
%TD*%
M02*
