%TF.GenerationSoftware,KiCad,Pcbnew,(5.1.6)-1*%
%TF.CreationDate,2020-11-06T14:41:16+01:00*%
%TF.ProjectId,3V_4I_ac_afe,33565f34-495f-4616-935f-6166652e6b69,rev?*%
%TF.SameCoordinates,Original*%
%TF.FileFunction,Copper,L1,Top*%
%TF.FilePolarity,Positive*%
%FSLAX46Y46*%
G04 Gerber Fmt 4.6, Leading zero omitted, Abs format (unit mm)*
G04 Created by KiCad (PCBNEW (5.1.6)-1) date 2020-11-06 14:41:16*
%MOMM*%
%LPD*%
G01*
G04 APERTURE LIST*
%TA.AperFunction,ComponentPad*%
%ADD10C,2.500000*%
%TD*%
%TA.AperFunction,ComponentPad*%
%ADD11C,1.524000*%
%TD*%
%TA.AperFunction,ComponentPad*%
%ADD12C,2.600000*%
%TD*%
%TA.AperFunction,ComponentPad*%
%ADD13R,2.600000X2.600000*%
%TD*%
%TA.AperFunction,ComponentPad*%
%ADD14R,1.700000X1.700000*%
%TD*%
%TA.AperFunction,ComponentPad*%
%ADD15O,1.700000X1.700000*%
%TD*%
%TA.AperFunction,SMDPad,CuDef*%
%ADD16R,1.060000X0.650000*%
%TD*%
%TA.AperFunction,SMDPad,CuDef*%
%ADD17R,2.100000X2.600000*%
%TD*%
%TA.AperFunction,SMDPad,CuDef*%
%ADD18R,1.500000X1.000000*%
%TD*%
%TA.AperFunction,SMDPad,CuDef*%
%ADD19C,0.100000*%
%TD*%
%TA.AperFunction,ViaPad*%
%ADD20C,0.800000*%
%TD*%
%TA.AperFunction,Conductor*%
%ADD21C,0.250000*%
%TD*%
%TA.AperFunction,Conductor*%
%ADD22C,0.500000*%
%TD*%
G04 APERTURE END LIST*
D10*
%TO.P,CT3,2*%
%TO.N,Net-(CT3-Pad2)*%
X158000000Y-97000000D03*
%TO.P,CT3,1*%
%TO.N,Net-(CT3-Pad1)*%
X144000000Y-97000000D03*
D11*
%TO.P,CT3,4*%
%TO.N,/ac_i_afe_3/CT_coil*%
X151000000Y-90650000D03*
%TO.P,CT3,3*%
%TO.N,/ac_i_afe_3/ext_ref*%
X151000000Y-103350000D03*
%TD*%
D12*
%TO.P,J43,2*%
%TO.N,Net-(CT4-Pad1)*%
X94500000Y-79500000D03*
D13*
%TO.P,J43,1*%
%TO.N,Net-(CT4-Pad2)*%
X99500000Y-79500000D03*
%TD*%
D12*
%TO.P,J36,2*%
%TO.N,Net-(CT3-Pad1)*%
X148500000Y-79500000D03*
D13*
%TO.P,J36,1*%
%TO.N,Net-(CT3-Pad2)*%
X153500000Y-79500000D03*
%TD*%
D12*
%TO.P,J29,2*%
%TO.N,Net-(CT2-Pad1)*%
X130500000Y-79500000D03*
D13*
%TO.P,J29,1*%
%TO.N,Net-(CT2-Pad2)*%
X135500000Y-79500000D03*
%TD*%
D12*
%TO.P,J1,2*%
%TO.N,Net-(CT1-Pad1)*%
X112500000Y-79500000D03*
D13*
%TO.P,J1,1*%
%TO.N,Net-(CT1-Pad2)*%
X117500000Y-79500000D03*
%TD*%
D10*
%TO.P,CT4,2*%
%TO.N,Net-(CT4-Pad2)*%
X104000000Y-97000000D03*
%TO.P,CT4,1*%
%TO.N,Net-(CT4-Pad1)*%
X90000000Y-97000000D03*
D11*
%TO.P,CT4,4*%
%TO.N,/ac_i_afe_4/CT_coil*%
X97000000Y-90650000D03*
%TO.P,CT4,3*%
%TO.N,/ac_i_afe_4/ext_ref*%
X97000000Y-103350000D03*
%TD*%
D10*
%TO.P,CT2,2*%
%TO.N,Net-(CT2-Pad2)*%
X140000000Y-97000000D03*
%TO.P,CT2,1*%
%TO.N,Net-(CT2-Pad1)*%
X126000000Y-97000000D03*
D11*
%TO.P,CT2,4*%
%TO.N,/ac_i_afe_2/CT_coil*%
X133000000Y-90650000D03*
%TO.P,CT2,3*%
%TO.N,/ac_i_afe_2/ext_ref*%
X133000000Y-103350000D03*
%TD*%
D10*
%TO.P,CT1,2*%
%TO.N,Net-(CT1-Pad2)*%
X122000000Y-97000000D03*
%TO.P,CT1,1*%
%TO.N,Net-(CT1-Pad1)*%
X108000000Y-97000000D03*
D11*
%TO.P,CT1,4*%
%TO.N,/ac_i_afe_1/CT_coil*%
X115000000Y-90650000D03*
%TO.P,CT1,3*%
%TO.N,/ac_i_afe_1/ext_ref*%
X115000000Y-103350000D03*
%TD*%
D12*
%TO.P,J24,2*%
%TO.N,/ac_v_afe_3/AC_V_N*%
X202500000Y-79500000D03*
D13*
%TO.P,J24,1*%
%TO.N,/ac_v_afe_3/AC_V_L*%
X207500000Y-79500000D03*
%TD*%
D12*
%TO.P,J17,2*%
%TO.N,/ac_v_afe_2/AC_V_N*%
X184500000Y-79500000D03*
D13*
%TO.P,J17,1*%
%TO.N,/ac_v_afe_2/AC_V_L*%
X189500000Y-79500000D03*
%TD*%
D12*
%TO.P,J10,2*%
%TO.N,/ac_v_afe_1/AC_V_N*%
X166500000Y-79500000D03*
D13*
%TO.P,J10,1*%
%TO.N,/ac_v_afe_1/AC_V_L*%
X171500000Y-79500000D03*
%TD*%
D14*
%TO.P,J45,1*%
%TO.N,/ac_i_afe_4/ext_ref*%
X103000000Y-109000000D03*
%TD*%
%TO.P,J44,1*%
%TO.N,/ac_i_afe_4/CT_coil*%
X91000000Y-109000000D03*
%TD*%
%TO.P,J38,1*%
%TO.N,/ac_i_afe_3/ext_ref*%
X157000000Y-109000000D03*
%TD*%
%TO.P,J37,1*%
%TO.N,/ac_i_afe_3/CT_coil*%
X145000000Y-109000000D03*
%TD*%
%TO.P,J31,1*%
%TO.N,/ac_i_afe_2/ext_ref*%
X139000000Y-109000000D03*
%TD*%
%TO.P,J30,1*%
%TO.N,/ac_i_afe_2/CT_coil*%
X127000000Y-109000000D03*
%TD*%
%TO.P,J3,1*%
%TO.N,/ac_i_afe_1/ext_ref*%
X121000000Y-109000000D03*
%TD*%
%TO.P,J2,1*%
%TO.N,/ac_i_afe_1/CT_coil*%
X109000000Y-109000000D03*
%TD*%
D15*
%TO.P,J49,2*%
%TO.N,GNDA*%
X103000000Y-130540000D03*
D14*
%TO.P,J49,1*%
X103000000Y-128000000D03*
%TD*%
D15*
%TO.P,J48,2*%
%TO.N,/signal_IN*%
X95000000Y-130540000D03*
D14*
%TO.P,J48,1*%
X95000000Y-128000000D03*
%TD*%
D15*
%TO.P,J47,2*%
%TO.N,VDDA*%
X91000000Y-130540000D03*
D14*
%TO.P,J47,1*%
X91000000Y-128000000D03*
%TD*%
D15*
%TO.P,J46,2*%
%TO.N,/ac_i_afe_4/ext_ref*%
X99000000Y-130540000D03*
D14*
%TO.P,J46,1*%
X99000000Y-128000000D03*
%TD*%
D15*
%TO.P,J42,2*%
%TO.N,GNDA*%
X157000000Y-130540000D03*
D14*
%TO.P,J42,1*%
X157000000Y-128000000D03*
%TD*%
D15*
%TO.P,J41,2*%
%TO.N,/signal_I3*%
X149000000Y-130540000D03*
D14*
%TO.P,J41,1*%
X149000000Y-128000000D03*
%TD*%
D15*
%TO.P,J40,2*%
%TO.N,VDDA*%
X145000000Y-130540000D03*
D14*
%TO.P,J40,1*%
X145000000Y-128000000D03*
%TD*%
D15*
%TO.P,J39,2*%
%TO.N,/ac_i_afe_3/ext_ref*%
X153000000Y-130540000D03*
D14*
%TO.P,J39,1*%
X153000000Y-128000000D03*
%TD*%
D15*
%TO.P,J35,2*%
%TO.N,GNDA*%
X139000000Y-130540000D03*
D14*
%TO.P,J35,1*%
X139000000Y-128000000D03*
%TD*%
D15*
%TO.P,J34,2*%
%TO.N,/signal_I2*%
X131020000Y-130540000D03*
D14*
%TO.P,J34,1*%
X131020000Y-128000000D03*
%TD*%
D15*
%TO.P,J33,2*%
%TO.N,VDDA*%
X127000000Y-130540000D03*
D14*
%TO.P,J33,1*%
X127000000Y-128000000D03*
%TD*%
D15*
%TO.P,J32,2*%
%TO.N,/ac_i_afe_2/ext_ref*%
X135000000Y-130540000D03*
D14*
%TO.P,J32,1*%
X135000000Y-128000000D03*
%TD*%
D15*
%TO.P,J28,2*%
%TO.N,GNDA*%
X211000000Y-130540000D03*
D14*
%TO.P,J28,1*%
X211000000Y-128000000D03*
%TD*%
D15*
%TO.P,J27,2*%
%TO.N,/signal_U3*%
X203000000Y-130540000D03*
D14*
%TO.P,J27,1*%
X203000000Y-128000000D03*
%TD*%
D15*
%TO.P,J26,2*%
%TO.N,VDDA*%
X199000000Y-130540000D03*
D14*
%TO.P,J26,1*%
X199000000Y-128000000D03*
%TD*%
D15*
%TO.P,J25,2*%
%TO.N,/ac_v_afe_3/ext_ref*%
X207000000Y-130540000D03*
D14*
%TO.P,J25,1*%
X207000000Y-128000000D03*
%TD*%
D15*
%TO.P,J21,2*%
%TO.N,GNDA*%
X193000000Y-130540000D03*
D14*
%TO.P,J21,1*%
X193000000Y-128000000D03*
%TD*%
D15*
%TO.P,J20,2*%
%TO.N,/signal_U2*%
X185000000Y-130540000D03*
D14*
%TO.P,J20,1*%
X185000000Y-128000000D03*
%TD*%
D15*
%TO.P,J19,2*%
%TO.N,VDDA*%
X181000000Y-130540000D03*
D14*
%TO.P,J19,1*%
X181000000Y-128000000D03*
%TD*%
D15*
%TO.P,J18,2*%
%TO.N,/ac_v_afe_2/ext_ref*%
X189000000Y-130540000D03*
D14*
%TO.P,J18,1*%
X189000000Y-128000000D03*
%TD*%
D15*
%TO.P,J14,2*%
%TO.N,GNDA*%
X175000000Y-130540000D03*
D14*
%TO.P,J14,1*%
X175000000Y-128000000D03*
%TD*%
D15*
%TO.P,J13,2*%
%TO.N,/signal_U1*%
X167000000Y-130540000D03*
D14*
%TO.P,J13,1*%
X167000000Y-128000000D03*
%TD*%
D15*
%TO.P,J12,2*%
%TO.N,VDDA*%
X163000000Y-130540000D03*
D14*
%TO.P,J12,1*%
X163000000Y-128000000D03*
%TD*%
D15*
%TO.P,J11,2*%
%TO.N,/ac_v_afe_1/ext_ref*%
X171000000Y-130540000D03*
D14*
%TO.P,J11,1*%
X171000000Y-128000000D03*
%TD*%
D15*
%TO.P,J7,2*%
%TO.N,GNDA*%
X121000000Y-130540000D03*
D14*
%TO.P,J7,1*%
X121000000Y-128000000D03*
%TD*%
D15*
%TO.P,J6,2*%
%TO.N,/signal_I1*%
X113000000Y-130540000D03*
D14*
%TO.P,J6,1*%
X113000000Y-128000000D03*
%TD*%
D15*
%TO.P,J5,2*%
%TO.N,VDDA*%
X109050000Y-130540000D03*
D14*
%TO.P,J5,1*%
X109050000Y-128000000D03*
%TD*%
D15*
%TO.P,J4,2*%
%TO.N,/ac_i_afe_1/ext_ref*%
X117000000Y-130540000D03*
D14*
%TO.P,J4,1*%
X117000000Y-128000000D03*
%TD*%
D16*
%TO.P,U7,5*%
%TO.N,VDDA*%
X97900000Y-117950000D03*
%TO.P,U7,4*%
%TO.N,Net-(C4-Pad2)*%
X97900000Y-116050000D03*
%TO.P,U7,3*%
%TO.N,/ac_i_afe_4/ext_ref*%
X100100000Y-116050000D03*
%TO.P,U7,2*%
%TO.N,GNDA*%
X100100000Y-117000000D03*
%TO.P,U7,1*%
%TO.N,/signal_IN*%
X100100000Y-117950000D03*
%TD*%
%TO.P,R45,2*%
%TO.N,Net-(C4-Pad2)*%
%TA.AperFunction,SMDPad,CuDef*%
G36*
G01*
X96256250Y-116650000D02*
X95743750Y-116650000D01*
G75*
G02*
X95525000Y-116431250I0J218750D01*
G01*
X95525000Y-115993750D01*
G75*
G02*
X95743750Y-115775000I218750J0D01*
G01*
X96256250Y-115775000D01*
G75*
G02*
X96475000Y-115993750I0J-218750D01*
G01*
X96475000Y-116431250D01*
G75*
G02*
X96256250Y-116650000I-218750J0D01*
G01*
G37*
%TD.AperFunction*%
%TO.P,R45,1*%
%TO.N,/signal_IN*%
%TA.AperFunction,SMDPad,CuDef*%
G36*
G01*
X96256250Y-118225000D02*
X95743750Y-118225000D01*
G75*
G02*
X95525000Y-118006250I0J218750D01*
G01*
X95525000Y-117568750D01*
G75*
G02*
X95743750Y-117350000I218750J0D01*
G01*
X96256250Y-117350000D01*
G75*
G02*
X96475000Y-117568750I0J-218750D01*
G01*
X96475000Y-118006250D01*
G75*
G02*
X96256250Y-118225000I-218750J0D01*
G01*
G37*
%TD.AperFunction*%
%TD*%
%TO.P,R44,2*%
%TO.N,/ac_i_afe_4/CT_coil*%
%TA.AperFunction,SMDPad,CuDef*%
G36*
G01*
X94256250Y-112650000D02*
X93743750Y-112650000D01*
G75*
G02*
X93525000Y-112431250I0J218750D01*
G01*
X93525000Y-111993750D01*
G75*
G02*
X93743750Y-111775000I218750J0D01*
G01*
X94256250Y-111775000D01*
G75*
G02*
X94475000Y-111993750I0J-218750D01*
G01*
X94475000Y-112431250D01*
G75*
G02*
X94256250Y-112650000I-218750J0D01*
G01*
G37*
%TD.AperFunction*%
%TO.P,R44,1*%
%TO.N,Net-(C4-Pad2)*%
%TA.AperFunction,SMDPad,CuDef*%
G36*
G01*
X94256250Y-114225000D02*
X93743750Y-114225000D01*
G75*
G02*
X93525000Y-114006250I0J218750D01*
G01*
X93525000Y-113568750D01*
G75*
G02*
X93743750Y-113350000I218750J0D01*
G01*
X94256250Y-113350000D01*
G75*
G02*
X94475000Y-113568750I0J-218750D01*
G01*
X94475000Y-114006250D01*
G75*
G02*
X94256250Y-114225000I-218750J0D01*
G01*
G37*
%TD.AperFunction*%
%TD*%
D17*
%TO.P,R43,2*%
%TO.N,/ac_i_afe_4/CT_coil*%
X94550000Y-109000000D03*
%TO.P,R43,1*%
%TO.N,/ac_i_afe_4/ext_ref*%
X99450000Y-109000000D03*
%TD*%
%TO.P,C4,2*%
%TO.N,Net-(C4-Pad2)*%
%TA.AperFunction,SMDPad,CuDef*%
G36*
G01*
X94256250Y-116650000D02*
X93743750Y-116650000D01*
G75*
G02*
X93525000Y-116431250I0J218750D01*
G01*
X93525000Y-115993750D01*
G75*
G02*
X93743750Y-115775000I218750J0D01*
G01*
X94256250Y-115775000D01*
G75*
G02*
X94475000Y-115993750I0J-218750D01*
G01*
X94475000Y-116431250D01*
G75*
G02*
X94256250Y-116650000I-218750J0D01*
G01*
G37*
%TD.AperFunction*%
%TO.P,C4,1*%
%TO.N,/signal_IN*%
%TA.AperFunction,SMDPad,CuDef*%
G36*
G01*
X94256250Y-118225000D02*
X93743750Y-118225000D01*
G75*
G02*
X93525000Y-118006250I0J218750D01*
G01*
X93525000Y-117568750D01*
G75*
G02*
X93743750Y-117350000I218750J0D01*
G01*
X94256250Y-117350000D01*
G75*
G02*
X94475000Y-117568750I0J-218750D01*
G01*
X94475000Y-118006250D01*
G75*
G02*
X94256250Y-118225000I-218750J0D01*
G01*
G37*
%TD.AperFunction*%
%TD*%
D16*
%TO.P,U6,5*%
%TO.N,VDDA*%
X151900000Y-117950000D03*
%TO.P,U6,4*%
%TO.N,Net-(C3-Pad2)*%
X151900000Y-116050000D03*
%TO.P,U6,3*%
%TO.N,/ac_i_afe_3/ext_ref*%
X154100000Y-116050000D03*
%TO.P,U6,2*%
%TO.N,GNDA*%
X154100000Y-117000000D03*
%TO.P,U6,1*%
%TO.N,/signal_I3*%
X154100000Y-117950000D03*
%TD*%
%TO.P,U5,5*%
%TO.N,VDDA*%
X133900000Y-117950000D03*
%TO.P,U5,4*%
%TO.N,Net-(C2-Pad2)*%
X133900000Y-116050000D03*
%TO.P,U5,3*%
%TO.N,/ac_i_afe_2/ext_ref*%
X136100000Y-116050000D03*
%TO.P,U5,2*%
%TO.N,GNDA*%
X136100000Y-117000000D03*
%TO.P,U5,1*%
%TO.N,/signal_I2*%
X136100000Y-117950000D03*
%TD*%
%TO.P,U4,5*%
%TO.N,VDDA*%
X201900000Y-113950000D03*
%TO.P,U4,4*%
%TO.N,Net-(R33-Pad2)*%
X201900000Y-112050000D03*
%TO.P,U4,3*%
%TO.N,/ac_v_afe_3/Reference_voltage*%
X204100000Y-112050000D03*
%TO.P,U4,2*%
%TO.N,GNDA*%
X204100000Y-113000000D03*
%TO.P,U4,1*%
%TO.N,/signal_U3*%
X204100000Y-113950000D03*
%TD*%
%TO.P,U3,5*%
%TO.N,VDDA*%
X183900000Y-113950000D03*
%TO.P,U3,4*%
%TO.N,Net-(R22-Pad2)*%
X183900000Y-112050000D03*
%TO.P,U3,3*%
%TO.N,/ac_v_afe_2/Reference_voltage*%
X186100000Y-112050000D03*
%TO.P,U3,2*%
%TO.N,GNDA*%
X186100000Y-113000000D03*
%TO.P,U3,1*%
%TO.N,/signal_U2*%
X186100000Y-113950000D03*
%TD*%
%TO.P,U2,5*%
%TO.N,VDDA*%
X165900000Y-113950000D03*
%TO.P,U2,4*%
%TO.N,Net-(R11-Pad2)*%
X165900000Y-112050000D03*
%TO.P,U2,3*%
%TO.N,/ac_v_afe_1/Reference_voltage*%
X168100000Y-112050000D03*
%TO.P,U2,2*%
%TO.N,GNDA*%
X168100000Y-113000000D03*
%TO.P,U2,1*%
%TO.N,/signal_U1*%
X168100000Y-113950000D03*
%TD*%
%TO.P,U1,5*%
%TO.N,VDDA*%
X115900000Y-117950000D03*
%TO.P,U1,4*%
%TO.N,Net-(C1-Pad2)*%
X115900000Y-116050000D03*
%TO.P,U1,3*%
%TO.N,/ac_i_afe_1/ext_ref*%
X118100000Y-116050000D03*
%TO.P,U1,2*%
%TO.N,GNDA*%
X118100000Y-117000000D03*
%TO.P,U1,1*%
%TO.N,/signal_I1*%
X118100000Y-117950000D03*
%TD*%
%TO.P,R42,2*%
%TO.N,Net-(C3-Pad2)*%
%TA.AperFunction,SMDPad,CuDef*%
G36*
G01*
X150256250Y-116650000D02*
X149743750Y-116650000D01*
G75*
G02*
X149525000Y-116431250I0J218750D01*
G01*
X149525000Y-115993750D01*
G75*
G02*
X149743750Y-115775000I218750J0D01*
G01*
X150256250Y-115775000D01*
G75*
G02*
X150475000Y-115993750I0J-218750D01*
G01*
X150475000Y-116431250D01*
G75*
G02*
X150256250Y-116650000I-218750J0D01*
G01*
G37*
%TD.AperFunction*%
%TO.P,R42,1*%
%TO.N,/signal_I3*%
%TA.AperFunction,SMDPad,CuDef*%
G36*
G01*
X150256250Y-118225000D02*
X149743750Y-118225000D01*
G75*
G02*
X149525000Y-118006250I0J218750D01*
G01*
X149525000Y-117568750D01*
G75*
G02*
X149743750Y-117350000I218750J0D01*
G01*
X150256250Y-117350000D01*
G75*
G02*
X150475000Y-117568750I0J-218750D01*
G01*
X150475000Y-118006250D01*
G75*
G02*
X150256250Y-118225000I-218750J0D01*
G01*
G37*
%TD.AperFunction*%
%TD*%
%TO.P,R41,2*%
%TO.N,/ac_i_afe_3/CT_coil*%
%TA.AperFunction,SMDPad,CuDef*%
G36*
G01*
X148256250Y-112650000D02*
X147743750Y-112650000D01*
G75*
G02*
X147525000Y-112431250I0J218750D01*
G01*
X147525000Y-111993750D01*
G75*
G02*
X147743750Y-111775000I218750J0D01*
G01*
X148256250Y-111775000D01*
G75*
G02*
X148475000Y-111993750I0J-218750D01*
G01*
X148475000Y-112431250D01*
G75*
G02*
X148256250Y-112650000I-218750J0D01*
G01*
G37*
%TD.AperFunction*%
%TO.P,R41,1*%
%TO.N,Net-(C3-Pad2)*%
%TA.AperFunction,SMDPad,CuDef*%
G36*
G01*
X148256250Y-114225000D02*
X147743750Y-114225000D01*
G75*
G02*
X147525000Y-114006250I0J218750D01*
G01*
X147525000Y-113568750D01*
G75*
G02*
X147743750Y-113350000I218750J0D01*
G01*
X148256250Y-113350000D01*
G75*
G02*
X148475000Y-113568750I0J-218750D01*
G01*
X148475000Y-114006250D01*
G75*
G02*
X148256250Y-114225000I-218750J0D01*
G01*
G37*
%TD.AperFunction*%
%TD*%
D17*
%TO.P,R40,2*%
%TO.N,/ac_i_afe_3/CT_coil*%
X148550000Y-109000000D03*
%TO.P,R40,1*%
%TO.N,/ac_i_afe_3/ext_ref*%
X153450000Y-109000000D03*
%TD*%
%TO.P,R39,2*%
%TO.N,Net-(C2-Pad2)*%
%TA.AperFunction,SMDPad,CuDef*%
G36*
G01*
X132256250Y-116650000D02*
X131743750Y-116650000D01*
G75*
G02*
X131525000Y-116431250I0J218750D01*
G01*
X131525000Y-115993750D01*
G75*
G02*
X131743750Y-115775000I218750J0D01*
G01*
X132256250Y-115775000D01*
G75*
G02*
X132475000Y-115993750I0J-218750D01*
G01*
X132475000Y-116431250D01*
G75*
G02*
X132256250Y-116650000I-218750J0D01*
G01*
G37*
%TD.AperFunction*%
%TO.P,R39,1*%
%TO.N,/signal_I2*%
%TA.AperFunction,SMDPad,CuDef*%
G36*
G01*
X132256250Y-118225000D02*
X131743750Y-118225000D01*
G75*
G02*
X131525000Y-118006250I0J218750D01*
G01*
X131525000Y-117568750D01*
G75*
G02*
X131743750Y-117350000I218750J0D01*
G01*
X132256250Y-117350000D01*
G75*
G02*
X132475000Y-117568750I0J-218750D01*
G01*
X132475000Y-118006250D01*
G75*
G02*
X132256250Y-118225000I-218750J0D01*
G01*
G37*
%TD.AperFunction*%
%TD*%
%TO.P,R38,2*%
%TO.N,/ac_i_afe_2/CT_coil*%
%TA.AperFunction,SMDPad,CuDef*%
G36*
G01*
X130256250Y-112650000D02*
X129743750Y-112650000D01*
G75*
G02*
X129525000Y-112431250I0J218750D01*
G01*
X129525000Y-111993750D01*
G75*
G02*
X129743750Y-111775000I218750J0D01*
G01*
X130256250Y-111775000D01*
G75*
G02*
X130475000Y-111993750I0J-218750D01*
G01*
X130475000Y-112431250D01*
G75*
G02*
X130256250Y-112650000I-218750J0D01*
G01*
G37*
%TD.AperFunction*%
%TO.P,R38,1*%
%TO.N,Net-(C2-Pad2)*%
%TA.AperFunction,SMDPad,CuDef*%
G36*
G01*
X130256250Y-114225000D02*
X129743750Y-114225000D01*
G75*
G02*
X129525000Y-114006250I0J218750D01*
G01*
X129525000Y-113568750D01*
G75*
G02*
X129743750Y-113350000I218750J0D01*
G01*
X130256250Y-113350000D01*
G75*
G02*
X130475000Y-113568750I0J-218750D01*
G01*
X130475000Y-114006250D01*
G75*
G02*
X130256250Y-114225000I-218750J0D01*
G01*
G37*
%TD.AperFunction*%
%TD*%
%TO.P,R37,2*%
%TO.N,/ac_i_afe_2/CT_coil*%
X130550000Y-109000000D03*
%TO.P,R37,1*%
%TO.N,/ac_i_afe_2/ext_ref*%
X135450000Y-109000000D03*
%TD*%
%TO.P,R36,2*%
%TO.N,/signal_U3*%
%TA.AperFunction,SMDPad,CuDef*%
G36*
G01*
X198543750Y-113450000D02*
X199456250Y-113450000D01*
G75*
G02*
X199700000Y-113693750I0J-243750D01*
G01*
X199700000Y-114181250D01*
G75*
G02*
X199456250Y-114425000I-243750J0D01*
G01*
X198543750Y-114425000D01*
G75*
G02*
X198300000Y-114181250I0J243750D01*
G01*
X198300000Y-113693750D01*
G75*
G02*
X198543750Y-113450000I243750J0D01*
G01*
G37*
%TD.AperFunction*%
%TO.P,R36,1*%
%TO.N,Net-(R33-Pad2)*%
%TA.AperFunction,SMDPad,CuDef*%
G36*
G01*
X198543750Y-111575000D02*
X199456250Y-111575000D01*
G75*
G02*
X199700000Y-111818750I0J-243750D01*
G01*
X199700000Y-112306250D01*
G75*
G02*
X199456250Y-112550000I-243750J0D01*
G01*
X198543750Y-112550000D01*
G75*
G02*
X198300000Y-112306250I0J243750D01*
G01*
X198300000Y-111818750D01*
G75*
G02*
X198543750Y-111575000I243750J0D01*
G01*
G37*
%TD.AperFunction*%
%TD*%
%TO.P,R35,2*%
%TO.N,/ac_v_afe_3/V_div*%
%TA.AperFunction,SMDPad,CuDef*%
G36*
G01*
X210225000Y-110875000D02*
X210225000Y-112125000D01*
G75*
G02*
X209975000Y-112375000I-250000J0D01*
G01*
X209225000Y-112375000D01*
G75*
G02*
X208975000Y-112125000I0J250000D01*
G01*
X208975000Y-110875000D01*
G75*
G02*
X209225000Y-110625000I250000J0D01*
G01*
X209975000Y-110625000D01*
G75*
G02*
X210225000Y-110875000I0J-250000D01*
G01*
G37*
%TD.AperFunction*%
%TO.P,R35,1*%
%TO.N,GNDA*%
%TA.AperFunction,SMDPad,CuDef*%
G36*
G01*
X213025000Y-110875000D02*
X213025000Y-112125000D01*
G75*
G02*
X212775000Y-112375000I-250000J0D01*
G01*
X212025000Y-112375000D01*
G75*
G02*
X211775000Y-112125000I0J250000D01*
G01*
X211775000Y-110875000D01*
G75*
G02*
X212025000Y-110625000I250000J0D01*
G01*
X212775000Y-110625000D01*
G75*
G02*
X213025000Y-110875000I0J-250000D01*
G01*
G37*
%TD.AperFunction*%
%TD*%
%TO.P,R34,2*%
%TO.N,VDDA*%
%TA.AperFunction,SMDPad,CuDef*%
G36*
G01*
X211775000Y-115125000D02*
X211775000Y-113875000D01*
G75*
G02*
X212025000Y-113625000I250000J0D01*
G01*
X212775000Y-113625000D01*
G75*
G02*
X213025000Y-113875000I0J-250000D01*
G01*
X213025000Y-115125000D01*
G75*
G02*
X212775000Y-115375000I-250000J0D01*
G01*
X212025000Y-115375000D01*
G75*
G02*
X211775000Y-115125000I0J250000D01*
G01*
G37*
%TD.AperFunction*%
%TO.P,R34,1*%
%TO.N,/ac_v_afe_3/V_div*%
%TA.AperFunction,SMDPad,CuDef*%
G36*
G01*
X208975000Y-115125000D02*
X208975000Y-113875000D01*
G75*
G02*
X209225000Y-113625000I250000J0D01*
G01*
X209975000Y-113625000D01*
G75*
G02*
X210225000Y-113875000I0J-250000D01*
G01*
X210225000Y-115125000D01*
G75*
G02*
X209975000Y-115375000I-250000J0D01*
G01*
X209225000Y-115375000D01*
G75*
G02*
X208975000Y-115125000I0J250000D01*
G01*
G37*
%TD.AperFunction*%
%TD*%
%TO.P,R33,2*%
%TO.N,Net-(R33-Pad2)*%
%TA.AperFunction,SMDPad,CuDef*%
G36*
G01*
X200543750Y-106450000D02*
X201456250Y-106450000D01*
G75*
G02*
X201700000Y-106693750I0J-243750D01*
G01*
X201700000Y-107181250D01*
G75*
G02*
X201456250Y-107425000I-243750J0D01*
G01*
X200543750Y-107425000D01*
G75*
G02*
X200300000Y-107181250I0J243750D01*
G01*
X200300000Y-106693750D01*
G75*
G02*
X200543750Y-106450000I243750J0D01*
G01*
G37*
%TD.AperFunction*%
%TO.P,R33,1*%
%TO.N,Net-(R31-Pad2)*%
%TA.AperFunction,SMDPad,CuDef*%
G36*
G01*
X200543750Y-104575000D02*
X201456250Y-104575000D01*
G75*
G02*
X201700000Y-104818750I0J-243750D01*
G01*
X201700000Y-105306250D01*
G75*
G02*
X201456250Y-105550000I-243750J0D01*
G01*
X200543750Y-105550000D01*
G75*
G02*
X200300000Y-105306250I0J243750D01*
G01*
X200300000Y-104818750D01*
G75*
G02*
X200543750Y-104575000I243750J0D01*
G01*
G37*
%TD.AperFunction*%
%TD*%
%TO.P,R32,2*%
%TO.N,/ac_v_afe_3/Reference_voltage*%
%TA.AperFunction,SMDPad,CuDef*%
G36*
G01*
X208543750Y-106450000D02*
X209456250Y-106450000D01*
G75*
G02*
X209700000Y-106693750I0J-243750D01*
G01*
X209700000Y-107181250D01*
G75*
G02*
X209456250Y-107425000I-243750J0D01*
G01*
X208543750Y-107425000D01*
G75*
G02*
X208300000Y-107181250I0J243750D01*
G01*
X208300000Y-106693750D01*
G75*
G02*
X208543750Y-106450000I243750J0D01*
G01*
G37*
%TD.AperFunction*%
%TO.P,R32,1*%
%TO.N,Net-(R30-Pad2)*%
%TA.AperFunction,SMDPad,CuDef*%
G36*
G01*
X208543750Y-104575000D02*
X209456250Y-104575000D01*
G75*
G02*
X209700000Y-104818750I0J-243750D01*
G01*
X209700000Y-105306250D01*
G75*
G02*
X209456250Y-105550000I-243750J0D01*
G01*
X208543750Y-105550000D01*
G75*
G02*
X208300000Y-105306250I0J243750D01*
G01*
X208300000Y-104818750D01*
G75*
G02*
X208543750Y-104575000I243750J0D01*
G01*
G37*
%TD.AperFunction*%
%TD*%
%TO.P,R31,2*%
%TO.N,Net-(R31-Pad2)*%
%TA.AperFunction,SMDPad,CuDef*%
G36*
G01*
X200543750Y-102450000D02*
X201456250Y-102450000D01*
G75*
G02*
X201700000Y-102693750I0J-243750D01*
G01*
X201700000Y-103181250D01*
G75*
G02*
X201456250Y-103425000I-243750J0D01*
G01*
X200543750Y-103425000D01*
G75*
G02*
X200300000Y-103181250I0J243750D01*
G01*
X200300000Y-102693750D01*
G75*
G02*
X200543750Y-102450000I243750J0D01*
G01*
G37*
%TD.AperFunction*%
%TO.P,R31,1*%
%TO.N,Net-(R29-Pad2)*%
%TA.AperFunction,SMDPad,CuDef*%
G36*
G01*
X200543750Y-100575000D02*
X201456250Y-100575000D01*
G75*
G02*
X201700000Y-100818750I0J-243750D01*
G01*
X201700000Y-101306250D01*
G75*
G02*
X201456250Y-101550000I-243750J0D01*
G01*
X200543750Y-101550000D01*
G75*
G02*
X200300000Y-101306250I0J243750D01*
G01*
X200300000Y-100818750D01*
G75*
G02*
X200543750Y-100575000I243750J0D01*
G01*
G37*
%TD.AperFunction*%
%TD*%
%TO.P,R30,2*%
%TO.N,Net-(R30-Pad2)*%
%TA.AperFunction,SMDPad,CuDef*%
G36*
G01*
X208543750Y-102450000D02*
X209456250Y-102450000D01*
G75*
G02*
X209700000Y-102693750I0J-243750D01*
G01*
X209700000Y-103181250D01*
G75*
G02*
X209456250Y-103425000I-243750J0D01*
G01*
X208543750Y-103425000D01*
G75*
G02*
X208300000Y-103181250I0J243750D01*
G01*
X208300000Y-102693750D01*
G75*
G02*
X208543750Y-102450000I243750J0D01*
G01*
G37*
%TD.AperFunction*%
%TO.P,R30,1*%
%TO.N,Net-(R28-Pad2)*%
%TA.AperFunction,SMDPad,CuDef*%
G36*
G01*
X208543750Y-100575000D02*
X209456250Y-100575000D01*
G75*
G02*
X209700000Y-100818750I0J-243750D01*
G01*
X209700000Y-101306250D01*
G75*
G02*
X209456250Y-101550000I-243750J0D01*
G01*
X208543750Y-101550000D01*
G75*
G02*
X208300000Y-101306250I0J243750D01*
G01*
X208300000Y-100818750D01*
G75*
G02*
X208543750Y-100575000I243750J0D01*
G01*
G37*
%TD.AperFunction*%
%TD*%
%TO.P,R29,2*%
%TO.N,Net-(R29-Pad2)*%
%TA.AperFunction,SMDPad,CuDef*%
G36*
G01*
X200543750Y-98450000D02*
X201456250Y-98450000D01*
G75*
G02*
X201700000Y-98693750I0J-243750D01*
G01*
X201700000Y-99181250D01*
G75*
G02*
X201456250Y-99425000I-243750J0D01*
G01*
X200543750Y-99425000D01*
G75*
G02*
X200300000Y-99181250I0J243750D01*
G01*
X200300000Y-98693750D01*
G75*
G02*
X200543750Y-98450000I243750J0D01*
G01*
G37*
%TD.AperFunction*%
%TO.P,R29,1*%
%TO.N,Net-(R27-Pad2)*%
%TA.AperFunction,SMDPad,CuDef*%
G36*
G01*
X200543750Y-96575000D02*
X201456250Y-96575000D01*
G75*
G02*
X201700000Y-96818750I0J-243750D01*
G01*
X201700000Y-97306250D01*
G75*
G02*
X201456250Y-97550000I-243750J0D01*
G01*
X200543750Y-97550000D01*
G75*
G02*
X200300000Y-97306250I0J243750D01*
G01*
X200300000Y-96818750D01*
G75*
G02*
X200543750Y-96575000I243750J0D01*
G01*
G37*
%TD.AperFunction*%
%TD*%
%TO.P,R28,2*%
%TO.N,Net-(R28-Pad2)*%
%TA.AperFunction,SMDPad,CuDef*%
G36*
G01*
X208543750Y-98450000D02*
X209456250Y-98450000D01*
G75*
G02*
X209700000Y-98693750I0J-243750D01*
G01*
X209700000Y-99181250D01*
G75*
G02*
X209456250Y-99425000I-243750J0D01*
G01*
X208543750Y-99425000D01*
G75*
G02*
X208300000Y-99181250I0J243750D01*
G01*
X208300000Y-98693750D01*
G75*
G02*
X208543750Y-98450000I243750J0D01*
G01*
G37*
%TD.AperFunction*%
%TO.P,R28,1*%
%TO.N,Net-(R26-Pad2)*%
%TA.AperFunction,SMDPad,CuDef*%
G36*
G01*
X208543750Y-96575000D02*
X209456250Y-96575000D01*
G75*
G02*
X209700000Y-96818750I0J-243750D01*
G01*
X209700000Y-97306250D01*
G75*
G02*
X209456250Y-97550000I-243750J0D01*
G01*
X208543750Y-97550000D01*
G75*
G02*
X208300000Y-97306250I0J243750D01*
G01*
X208300000Y-96818750D01*
G75*
G02*
X208543750Y-96575000I243750J0D01*
G01*
G37*
%TD.AperFunction*%
%TD*%
%TO.P,R27,2*%
%TO.N,Net-(R27-Pad2)*%
%TA.AperFunction,SMDPad,CuDef*%
G36*
G01*
X200543750Y-94450000D02*
X201456250Y-94450000D01*
G75*
G02*
X201700000Y-94693750I0J-243750D01*
G01*
X201700000Y-95181250D01*
G75*
G02*
X201456250Y-95425000I-243750J0D01*
G01*
X200543750Y-95425000D01*
G75*
G02*
X200300000Y-95181250I0J243750D01*
G01*
X200300000Y-94693750D01*
G75*
G02*
X200543750Y-94450000I243750J0D01*
G01*
G37*
%TD.AperFunction*%
%TO.P,R27,1*%
%TO.N,/ac_v_afe_3/AC_V_N*%
%TA.AperFunction,SMDPad,CuDef*%
G36*
G01*
X200543750Y-92575000D02*
X201456250Y-92575000D01*
G75*
G02*
X201700000Y-92818750I0J-243750D01*
G01*
X201700000Y-93306250D01*
G75*
G02*
X201456250Y-93550000I-243750J0D01*
G01*
X200543750Y-93550000D01*
G75*
G02*
X200300000Y-93306250I0J243750D01*
G01*
X200300000Y-92818750D01*
G75*
G02*
X200543750Y-92575000I243750J0D01*
G01*
G37*
%TD.AperFunction*%
%TD*%
%TO.P,R26,2*%
%TO.N,Net-(R26-Pad2)*%
%TA.AperFunction,SMDPad,CuDef*%
G36*
G01*
X208543750Y-94450000D02*
X209456250Y-94450000D01*
G75*
G02*
X209700000Y-94693750I0J-243750D01*
G01*
X209700000Y-95181250D01*
G75*
G02*
X209456250Y-95425000I-243750J0D01*
G01*
X208543750Y-95425000D01*
G75*
G02*
X208300000Y-95181250I0J243750D01*
G01*
X208300000Y-94693750D01*
G75*
G02*
X208543750Y-94450000I243750J0D01*
G01*
G37*
%TD.AperFunction*%
%TO.P,R26,1*%
%TO.N,/ac_v_afe_3/AC_V_L*%
%TA.AperFunction,SMDPad,CuDef*%
G36*
G01*
X208543750Y-92575000D02*
X209456250Y-92575000D01*
G75*
G02*
X209700000Y-92818750I0J-243750D01*
G01*
X209700000Y-93306250D01*
G75*
G02*
X209456250Y-93550000I-243750J0D01*
G01*
X208543750Y-93550000D01*
G75*
G02*
X208300000Y-93306250I0J243750D01*
G01*
X208300000Y-92818750D01*
G75*
G02*
X208543750Y-92575000I243750J0D01*
G01*
G37*
%TD.AperFunction*%
%TD*%
%TO.P,R25,2*%
%TO.N,/signal_U2*%
%TA.AperFunction,SMDPad,CuDef*%
G36*
G01*
X180543750Y-113450000D02*
X181456250Y-113450000D01*
G75*
G02*
X181700000Y-113693750I0J-243750D01*
G01*
X181700000Y-114181250D01*
G75*
G02*
X181456250Y-114425000I-243750J0D01*
G01*
X180543750Y-114425000D01*
G75*
G02*
X180300000Y-114181250I0J243750D01*
G01*
X180300000Y-113693750D01*
G75*
G02*
X180543750Y-113450000I243750J0D01*
G01*
G37*
%TD.AperFunction*%
%TO.P,R25,1*%
%TO.N,Net-(R22-Pad2)*%
%TA.AperFunction,SMDPad,CuDef*%
G36*
G01*
X180543750Y-111575000D02*
X181456250Y-111575000D01*
G75*
G02*
X181700000Y-111818750I0J-243750D01*
G01*
X181700000Y-112306250D01*
G75*
G02*
X181456250Y-112550000I-243750J0D01*
G01*
X180543750Y-112550000D01*
G75*
G02*
X180300000Y-112306250I0J243750D01*
G01*
X180300000Y-111818750D01*
G75*
G02*
X180543750Y-111575000I243750J0D01*
G01*
G37*
%TD.AperFunction*%
%TD*%
%TO.P,R24,2*%
%TO.N,/ac_v_afe_2/V_div*%
%TA.AperFunction,SMDPad,CuDef*%
G36*
G01*
X192225000Y-110875000D02*
X192225000Y-112125000D01*
G75*
G02*
X191975000Y-112375000I-250000J0D01*
G01*
X191225000Y-112375000D01*
G75*
G02*
X190975000Y-112125000I0J250000D01*
G01*
X190975000Y-110875000D01*
G75*
G02*
X191225000Y-110625000I250000J0D01*
G01*
X191975000Y-110625000D01*
G75*
G02*
X192225000Y-110875000I0J-250000D01*
G01*
G37*
%TD.AperFunction*%
%TO.P,R24,1*%
%TO.N,GNDA*%
%TA.AperFunction,SMDPad,CuDef*%
G36*
G01*
X195025000Y-110875000D02*
X195025000Y-112125000D01*
G75*
G02*
X194775000Y-112375000I-250000J0D01*
G01*
X194025000Y-112375000D01*
G75*
G02*
X193775000Y-112125000I0J250000D01*
G01*
X193775000Y-110875000D01*
G75*
G02*
X194025000Y-110625000I250000J0D01*
G01*
X194775000Y-110625000D01*
G75*
G02*
X195025000Y-110875000I0J-250000D01*
G01*
G37*
%TD.AperFunction*%
%TD*%
%TO.P,R23,2*%
%TO.N,VDDA*%
%TA.AperFunction,SMDPad,CuDef*%
G36*
G01*
X193775000Y-115125000D02*
X193775000Y-113875000D01*
G75*
G02*
X194025000Y-113625000I250000J0D01*
G01*
X194775000Y-113625000D01*
G75*
G02*
X195025000Y-113875000I0J-250000D01*
G01*
X195025000Y-115125000D01*
G75*
G02*
X194775000Y-115375000I-250000J0D01*
G01*
X194025000Y-115375000D01*
G75*
G02*
X193775000Y-115125000I0J250000D01*
G01*
G37*
%TD.AperFunction*%
%TO.P,R23,1*%
%TO.N,/ac_v_afe_2/V_div*%
%TA.AperFunction,SMDPad,CuDef*%
G36*
G01*
X190975000Y-115125000D02*
X190975000Y-113875000D01*
G75*
G02*
X191225000Y-113625000I250000J0D01*
G01*
X191975000Y-113625000D01*
G75*
G02*
X192225000Y-113875000I0J-250000D01*
G01*
X192225000Y-115125000D01*
G75*
G02*
X191975000Y-115375000I-250000J0D01*
G01*
X191225000Y-115375000D01*
G75*
G02*
X190975000Y-115125000I0J250000D01*
G01*
G37*
%TD.AperFunction*%
%TD*%
%TO.P,R22,2*%
%TO.N,Net-(R22-Pad2)*%
%TA.AperFunction,SMDPad,CuDef*%
G36*
G01*
X182543750Y-106450000D02*
X183456250Y-106450000D01*
G75*
G02*
X183700000Y-106693750I0J-243750D01*
G01*
X183700000Y-107181250D01*
G75*
G02*
X183456250Y-107425000I-243750J0D01*
G01*
X182543750Y-107425000D01*
G75*
G02*
X182300000Y-107181250I0J243750D01*
G01*
X182300000Y-106693750D01*
G75*
G02*
X182543750Y-106450000I243750J0D01*
G01*
G37*
%TD.AperFunction*%
%TO.P,R22,1*%
%TO.N,Net-(R20-Pad2)*%
%TA.AperFunction,SMDPad,CuDef*%
G36*
G01*
X182543750Y-104575000D02*
X183456250Y-104575000D01*
G75*
G02*
X183700000Y-104818750I0J-243750D01*
G01*
X183700000Y-105306250D01*
G75*
G02*
X183456250Y-105550000I-243750J0D01*
G01*
X182543750Y-105550000D01*
G75*
G02*
X182300000Y-105306250I0J243750D01*
G01*
X182300000Y-104818750D01*
G75*
G02*
X182543750Y-104575000I243750J0D01*
G01*
G37*
%TD.AperFunction*%
%TD*%
%TO.P,R21,2*%
%TO.N,/ac_v_afe_2/Reference_voltage*%
%TA.AperFunction,SMDPad,CuDef*%
G36*
G01*
X190543750Y-106450000D02*
X191456250Y-106450000D01*
G75*
G02*
X191700000Y-106693750I0J-243750D01*
G01*
X191700000Y-107181250D01*
G75*
G02*
X191456250Y-107425000I-243750J0D01*
G01*
X190543750Y-107425000D01*
G75*
G02*
X190300000Y-107181250I0J243750D01*
G01*
X190300000Y-106693750D01*
G75*
G02*
X190543750Y-106450000I243750J0D01*
G01*
G37*
%TD.AperFunction*%
%TO.P,R21,1*%
%TO.N,Net-(R19-Pad2)*%
%TA.AperFunction,SMDPad,CuDef*%
G36*
G01*
X190543750Y-104575000D02*
X191456250Y-104575000D01*
G75*
G02*
X191700000Y-104818750I0J-243750D01*
G01*
X191700000Y-105306250D01*
G75*
G02*
X191456250Y-105550000I-243750J0D01*
G01*
X190543750Y-105550000D01*
G75*
G02*
X190300000Y-105306250I0J243750D01*
G01*
X190300000Y-104818750D01*
G75*
G02*
X190543750Y-104575000I243750J0D01*
G01*
G37*
%TD.AperFunction*%
%TD*%
%TO.P,R20,2*%
%TO.N,Net-(R20-Pad2)*%
%TA.AperFunction,SMDPad,CuDef*%
G36*
G01*
X182543750Y-102450000D02*
X183456250Y-102450000D01*
G75*
G02*
X183700000Y-102693750I0J-243750D01*
G01*
X183700000Y-103181250D01*
G75*
G02*
X183456250Y-103425000I-243750J0D01*
G01*
X182543750Y-103425000D01*
G75*
G02*
X182300000Y-103181250I0J243750D01*
G01*
X182300000Y-102693750D01*
G75*
G02*
X182543750Y-102450000I243750J0D01*
G01*
G37*
%TD.AperFunction*%
%TO.P,R20,1*%
%TO.N,Net-(R18-Pad2)*%
%TA.AperFunction,SMDPad,CuDef*%
G36*
G01*
X182543750Y-100575000D02*
X183456250Y-100575000D01*
G75*
G02*
X183700000Y-100818750I0J-243750D01*
G01*
X183700000Y-101306250D01*
G75*
G02*
X183456250Y-101550000I-243750J0D01*
G01*
X182543750Y-101550000D01*
G75*
G02*
X182300000Y-101306250I0J243750D01*
G01*
X182300000Y-100818750D01*
G75*
G02*
X182543750Y-100575000I243750J0D01*
G01*
G37*
%TD.AperFunction*%
%TD*%
%TO.P,R19,2*%
%TO.N,Net-(R19-Pad2)*%
%TA.AperFunction,SMDPad,CuDef*%
G36*
G01*
X190543750Y-102450000D02*
X191456250Y-102450000D01*
G75*
G02*
X191700000Y-102693750I0J-243750D01*
G01*
X191700000Y-103181250D01*
G75*
G02*
X191456250Y-103425000I-243750J0D01*
G01*
X190543750Y-103425000D01*
G75*
G02*
X190300000Y-103181250I0J243750D01*
G01*
X190300000Y-102693750D01*
G75*
G02*
X190543750Y-102450000I243750J0D01*
G01*
G37*
%TD.AperFunction*%
%TO.P,R19,1*%
%TO.N,Net-(R17-Pad2)*%
%TA.AperFunction,SMDPad,CuDef*%
G36*
G01*
X190543750Y-100575000D02*
X191456250Y-100575000D01*
G75*
G02*
X191700000Y-100818750I0J-243750D01*
G01*
X191700000Y-101306250D01*
G75*
G02*
X191456250Y-101550000I-243750J0D01*
G01*
X190543750Y-101550000D01*
G75*
G02*
X190300000Y-101306250I0J243750D01*
G01*
X190300000Y-100818750D01*
G75*
G02*
X190543750Y-100575000I243750J0D01*
G01*
G37*
%TD.AperFunction*%
%TD*%
%TO.P,R18,2*%
%TO.N,Net-(R18-Pad2)*%
%TA.AperFunction,SMDPad,CuDef*%
G36*
G01*
X182543750Y-98450000D02*
X183456250Y-98450000D01*
G75*
G02*
X183700000Y-98693750I0J-243750D01*
G01*
X183700000Y-99181250D01*
G75*
G02*
X183456250Y-99425000I-243750J0D01*
G01*
X182543750Y-99425000D01*
G75*
G02*
X182300000Y-99181250I0J243750D01*
G01*
X182300000Y-98693750D01*
G75*
G02*
X182543750Y-98450000I243750J0D01*
G01*
G37*
%TD.AperFunction*%
%TO.P,R18,1*%
%TO.N,Net-(R16-Pad2)*%
%TA.AperFunction,SMDPad,CuDef*%
G36*
G01*
X182543750Y-96575000D02*
X183456250Y-96575000D01*
G75*
G02*
X183700000Y-96818750I0J-243750D01*
G01*
X183700000Y-97306250D01*
G75*
G02*
X183456250Y-97550000I-243750J0D01*
G01*
X182543750Y-97550000D01*
G75*
G02*
X182300000Y-97306250I0J243750D01*
G01*
X182300000Y-96818750D01*
G75*
G02*
X182543750Y-96575000I243750J0D01*
G01*
G37*
%TD.AperFunction*%
%TD*%
%TO.P,R17,2*%
%TO.N,Net-(R17-Pad2)*%
%TA.AperFunction,SMDPad,CuDef*%
G36*
G01*
X190543750Y-98450000D02*
X191456250Y-98450000D01*
G75*
G02*
X191700000Y-98693750I0J-243750D01*
G01*
X191700000Y-99181250D01*
G75*
G02*
X191456250Y-99425000I-243750J0D01*
G01*
X190543750Y-99425000D01*
G75*
G02*
X190300000Y-99181250I0J243750D01*
G01*
X190300000Y-98693750D01*
G75*
G02*
X190543750Y-98450000I243750J0D01*
G01*
G37*
%TD.AperFunction*%
%TO.P,R17,1*%
%TO.N,Net-(R15-Pad2)*%
%TA.AperFunction,SMDPad,CuDef*%
G36*
G01*
X190543750Y-96575000D02*
X191456250Y-96575000D01*
G75*
G02*
X191700000Y-96818750I0J-243750D01*
G01*
X191700000Y-97306250D01*
G75*
G02*
X191456250Y-97550000I-243750J0D01*
G01*
X190543750Y-97550000D01*
G75*
G02*
X190300000Y-97306250I0J243750D01*
G01*
X190300000Y-96818750D01*
G75*
G02*
X190543750Y-96575000I243750J0D01*
G01*
G37*
%TD.AperFunction*%
%TD*%
%TO.P,R16,2*%
%TO.N,Net-(R16-Pad2)*%
%TA.AperFunction,SMDPad,CuDef*%
G36*
G01*
X182543750Y-94450000D02*
X183456250Y-94450000D01*
G75*
G02*
X183700000Y-94693750I0J-243750D01*
G01*
X183700000Y-95181250D01*
G75*
G02*
X183456250Y-95425000I-243750J0D01*
G01*
X182543750Y-95425000D01*
G75*
G02*
X182300000Y-95181250I0J243750D01*
G01*
X182300000Y-94693750D01*
G75*
G02*
X182543750Y-94450000I243750J0D01*
G01*
G37*
%TD.AperFunction*%
%TO.P,R16,1*%
%TO.N,/ac_v_afe_2/AC_V_N*%
%TA.AperFunction,SMDPad,CuDef*%
G36*
G01*
X182543750Y-92575000D02*
X183456250Y-92575000D01*
G75*
G02*
X183700000Y-92818750I0J-243750D01*
G01*
X183700000Y-93306250D01*
G75*
G02*
X183456250Y-93550000I-243750J0D01*
G01*
X182543750Y-93550000D01*
G75*
G02*
X182300000Y-93306250I0J243750D01*
G01*
X182300000Y-92818750D01*
G75*
G02*
X182543750Y-92575000I243750J0D01*
G01*
G37*
%TD.AperFunction*%
%TD*%
%TO.P,R15,2*%
%TO.N,Net-(R15-Pad2)*%
%TA.AperFunction,SMDPad,CuDef*%
G36*
G01*
X190543750Y-94450000D02*
X191456250Y-94450000D01*
G75*
G02*
X191700000Y-94693750I0J-243750D01*
G01*
X191700000Y-95181250D01*
G75*
G02*
X191456250Y-95425000I-243750J0D01*
G01*
X190543750Y-95425000D01*
G75*
G02*
X190300000Y-95181250I0J243750D01*
G01*
X190300000Y-94693750D01*
G75*
G02*
X190543750Y-94450000I243750J0D01*
G01*
G37*
%TD.AperFunction*%
%TO.P,R15,1*%
%TO.N,/ac_v_afe_2/AC_V_L*%
%TA.AperFunction,SMDPad,CuDef*%
G36*
G01*
X190543750Y-92575000D02*
X191456250Y-92575000D01*
G75*
G02*
X191700000Y-92818750I0J-243750D01*
G01*
X191700000Y-93306250D01*
G75*
G02*
X191456250Y-93550000I-243750J0D01*
G01*
X190543750Y-93550000D01*
G75*
G02*
X190300000Y-93306250I0J243750D01*
G01*
X190300000Y-92818750D01*
G75*
G02*
X190543750Y-92575000I243750J0D01*
G01*
G37*
%TD.AperFunction*%
%TD*%
%TO.P,R14,2*%
%TO.N,/signal_U1*%
%TA.AperFunction,SMDPad,CuDef*%
G36*
G01*
X162543750Y-113450000D02*
X163456250Y-113450000D01*
G75*
G02*
X163700000Y-113693750I0J-243750D01*
G01*
X163700000Y-114181250D01*
G75*
G02*
X163456250Y-114425000I-243750J0D01*
G01*
X162543750Y-114425000D01*
G75*
G02*
X162300000Y-114181250I0J243750D01*
G01*
X162300000Y-113693750D01*
G75*
G02*
X162543750Y-113450000I243750J0D01*
G01*
G37*
%TD.AperFunction*%
%TO.P,R14,1*%
%TO.N,Net-(R11-Pad2)*%
%TA.AperFunction,SMDPad,CuDef*%
G36*
G01*
X162543750Y-111575000D02*
X163456250Y-111575000D01*
G75*
G02*
X163700000Y-111818750I0J-243750D01*
G01*
X163700000Y-112306250D01*
G75*
G02*
X163456250Y-112550000I-243750J0D01*
G01*
X162543750Y-112550000D01*
G75*
G02*
X162300000Y-112306250I0J243750D01*
G01*
X162300000Y-111818750D01*
G75*
G02*
X162543750Y-111575000I243750J0D01*
G01*
G37*
%TD.AperFunction*%
%TD*%
%TO.P,R13,2*%
%TO.N,/ac_v_afe_1/V_div*%
%TA.AperFunction,SMDPad,CuDef*%
G36*
G01*
X174225000Y-110875000D02*
X174225000Y-112125000D01*
G75*
G02*
X173975000Y-112375000I-250000J0D01*
G01*
X173225000Y-112375000D01*
G75*
G02*
X172975000Y-112125000I0J250000D01*
G01*
X172975000Y-110875000D01*
G75*
G02*
X173225000Y-110625000I250000J0D01*
G01*
X173975000Y-110625000D01*
G75*
G02*
X174225000Y-110875000I0J-250000D01*
G01*
G37*
%TD.AperFunction*%
%TO.P,R13,1*%
%TO.N,GNDA*%
%TA.AperFunction,SMDPad,CuDef*%
G36*
G01*
X177025000Y-110875000D02*
X177025000Y-112125000D01*
G75*
G02*
X176775000Y-112375000I-250000J0D01*
G01*
X176025000Y-112375000D01*
G75*
G02*
X175775000Y-112125000I0J250000D01*
G01*
X175775000Y-110875000D01*
G75*
G02*
X176025000Y-110625000I250000J0D01*
G01*
X176775000Y-110625000D01*
G75*
G02*
X177025000Y-110875000I0J-250000D01*
G01*
G37*
%TD.AperFunction*%
%TD*%
%TO.P,R12,2*%
%TO.N,VDDA*%
%TA.AperFunction,SMDPad,CuDef*%
G36*
G01*
X175775000Y-115125000D02*
X175775000Y-113875000D01*
G75*
G02*
X176025000Y-113625000I250000J0D01*
G01*
X176775000Y-113625000D01*
G75*
G02*
X177025000Y-113875000I0J-250000D01*
G01*
X177025000Y-115125000D01*
G75*
G02*
X176775000Y-115375000I-250000J0D01*
G01*
X176025000Y-115375000D01*
G75*
G02*
X175775000Y-115125000I0J250000D01*
G01*
G37*
%TD.AperFunction*%
%TO.P,R12,1*%
%TO.N,/ac_v_afe_1/V_div*%
%TA.AperFunction,SMDPad,CuDef*%
G36*
G01*
X172975000Y-115125000D02*
X172975000Y-113875000D01*
G75*
G02*
X173225000Y-113625000I250000J0D01*
G01*
X173975000Y-113625000D01*
G75*
G02*
X174225000Y-113875000I0J-250000D01*
G01*
X174225000Y-115125000D01*
G75*
G02*
X173975000Y-115375000I-250000J0D01*
G01*
X173225000Y-115375000D01*
G75*
G02*
X172975000Y-115125000I0J250000D01*
G01*
G37*
%TD.AperFunction*%
%TD*%
%TO.P,R11,2*%
%TO.N,Net-(R11-Pad2)*%
%TA.AperFunction,SMDPad,CuDef*%
G36*
G01*
X164543750Y-106450000D02*
X165456250Y-106450000D01*
G75*
G02*
X165700000Y-106693750I0J-243750D01*
G01*
X165700000Y-107181250D01*
G75*
G02*
X165456250Y-107425000I-243750J0D01*
G01*
X164543750Y-107425000D01*
G75*
G02*
X164300000Y-107181250I0J243750D01*
G01*
X164300000Y-106693750D01*
G75*
G02*
X164543750Y-106450000I243750J0D01*
G01*
G37*
%TD.AperFunction*%
%TO.P,R11,1*%
%TO.N,Net-(R11-Pad1)*%
%TA.AperFunction,SMDPad,CuDef*%
G36*
G01*
X164543750Y-104575000D02*
X165456250Y-104575000D01*
G75*
G02*
X165700000Y-104818750I0J-243750D01*
G01*
X165700000Y-105306250D01*
G75*
G02*
X165456250Y-105550000I-243750J0D01*
G01*
X164543750Y-105550000D01*
G75*
G02*
X164300000Y-105306250I0J243750D01*
G01*
X164300000Y-104818750D01*
G75*
G02*
X164543750Y-104575000I243750J0D01*
G01*
G37*
%TD.AperFunction*%
%TD*%
%TO.P,R10,2*%
%TO.N,/ac_v_afe_1/Reference_voltage*%
%TA.AperFunction,SMDPad,CuDef*%
G36*
G01*
X172543750Y-106450000D02*
X173456250Y-106450000D01*
G75*
G02*
X173700000Y-106693750I0J-243750D01*
G01*
X173700000Y-107181250D01*
G75*
G02*
X173456250Y-107425000I-243750J0D01*
G01*
X172543750Y-107425000D01*
G75*
G02*
X172300000Y-107181250I0J243750D01*
G01*
X172300000Y-106693750D01*
G75*
G02*
X172543750Y-106450000I243750J0D01*
G01*
G37*
%TD.AperFunction*%
%TO.P,R10,1*%
%TO.N,Net-(R10-Pad1)*%
%TA.AperFunction,SMDPad,CuDef*%
G36*
G01*
X172543750Y-104575000D02*
X173456250Y-104575000D01*
G75*
G02*
X173700000Y-104818750I0J-243750D01*
G01*
X173700000Y-105306250D01*
G75*
G02*
X173456250Y-105550000I-243750J0D01*
G01*
X172543750Y-105550000D01*
G75*
G02*
X172300000Y-105306250I0J243750D01*
G01*
X172300000Y-104818750D01*
G75*
G02*
X172543750Y-104575000I243750J0D01*
G01*
G37*
%TD.AperFunction*%
%TD*%
%TO.P,R9,2*%
%TO.N,Net-(R11-Pad1)*%
%TA.AperFunction,SMDPad,CuDef*%
G36*
G01*
X164543750Y-102450000D02*
X165456250Y-102450000D01*
G75*
G02*
X165700000Y-102693750I0J-243750D01*
G01*
X165700000Y-103181250D01*
G75*
G02*
X165456250Y-103425000I-243750J0D01*
G01*
X164543750Y-103425000D01*
G75*
G02*
X164300000Y-103181250I0J243750D01*
G01*
X164300000Y-102693750D01*
G75*
G02*
X164543750Y-102450000I243750J0D01*
G01*
G37*
%TD.AperFunction*%
%TO.P,R9,1*%
%TO.N,Net-(R7-Pad2)*%
%TA.AperFunction,SMDPad,CuDef*%
G36*
G01*
X164543750Y-100575000D02*
X165456250Y-100575000D01*
G75*
G02*
X165700000Y-100818750I0J-243750D01*
G01*
X165700000Y-101306250D01*
G75*
G02*
X165456250Y-101550000I-243750J0D01*
G01*
X164543750Y-101550000D01*
G75*
G02*
X164300000Y-101306250I0J243750D01*
G01*
X164300000Y-100818750D01*
G75*
G02*
X164543750Y-100575000I243750J0D01*
G01*
G37*
%TD.AperFunction*%
%TD*%
%TO.P,R8,2*%
%TO.N,Net-(R10-Pad1)*%
%TA.AperFunction,SMDPad,CuDef*%
G36*
G01*
X172543750Y-102450000D02*
X173456250Y-102450000D01*
G75*
G02*
X173700000Y-102693750I0J-243750D01*
G01*
X173700000Y-103181250D01*
G75*
G02*
X173456250Y-103425000I-243750J0D01*
G01*
X172543750Y-103425000D01*
G75*
G02*
X172300000Y-103181250I0J243750D01*
G01*
X172300000Y-102693750D01*
G75*
G02*
X172543750Y-102450000I243750J0D01*
G01*
G37*
%TD.AperFunction*%
%TO.P,R8,1*%
%TO.N,Net-(R6-Pad2)*%
%TA.AperFunction,SMDPad,CuDef*%
G36*
G01*
X172543750Y-100575000D02*
X173456250Y-100575000D01*
G75*
G02*
X173700000Y-100818750I0J-243750D01*
G01*
X173700000Y-101306250D01*
G75*
G02*
X173456250Y-101550000I-243750J0D01*
G01*
X172543750Y-101550000D01*
G75*
G02*
X172300000Y-101306250I0J243750D01*
G01*
X172300000Y-100818750D01*
G75*
G02*
X172543750Y-100575000I243750J0D01*
G01*
G37*
%TD.AperFunction*%
%TD*%
%TO.P,R7,2*%
%TO.N,Net-(R7-Pad2)*%
%TA.AperFunction,SMDPad,CuDef*%
G36*
G01*
X164543750Y-98450000D02*
X165456250Y-98450000D01*
G75*
G02*
X165700000Y-98693750I0J-243750D01*
G01*
X165700000Y-99181250D01*
G75*
G02*
X165456250Y-99425000I-243750J0D01*
G01*
X164543750Y-99425000D01*
G75*
G02*
X164300000Y-99181250I0J243750D01*
G01*
X164300000Y-98693750D01*
G75*
G02*
X164543750Y-98450000I243750J0D01*
G01*
G37*
%TD.AperFunction*%
%TO.P,R7,1*%
%TO.N,Net-(R5-Pad2)*%
%TA.AperFunction,SMDPad,CuDef*%
G36*
G01*
X164543750Y-96575000D02*
X165456250Y-96575000D01*
G75*
G02*
X165700000Y-96818750I0J-243750D01*
G01*
X165700000Y-97306250D01*
G75*
G02*
X165456250Y-97550000I-243750J0D01*
G01*
X164543750Y-97550000D01*
G75*
G02*
X164300000Y-97306250I0J243750D01*
G01*
X164300000Y-96818750D01*
G75*
G02*
X164543750Y-96575000I243750J0D01*
G01*
G37*
%TD.AperFunction*%
%TD*%
%TO.P,R6,2*%
%TO.N,Net-(R6-Pad2)*%
%TA.AperFunction,SMDPad,CuDef*%
G36*
G01*
X172543750Y-98450000D02*
X173456250Y-98450000D01*
G75*
G02*
X173700000Y-98693750I0J-243750D01*
G01*
X173700000Y-99181250D01*
G75*
G02*
X173456250Y-99425000I-243750J0D01*
G01*
X172543750Y-99425000D01*
G75*
G02*
X172300000Y-99181250I0J243750D01*
G01*
X172300000Y-98693750D01*
G75*
G02*
X172543750Y-98450000I243750J0D01*
G01*
G37*
%TD.AperFunction*%
%TO.P,R6,1*%
%TO.N,Net-(R4-Pad2)*%
%TA.AperFunction,SMDPad,CuDef*%
G36*
G01*
X172543750Y-96575000D02*
X173456250Y-96575000D01*
G75*
G02*
X173700000Y-96818750I0J-243750D01*
G01*
X173700000Y-97306250D01*
G75*
G02*
X173456250Y-97550000I-243750J0D01*
G01*
X172543750Y-97550000D01*
G75*
G02*
X172300000Y-97306250I0J243750D01*
G01*
X172300000Y-96818750D01*
G75*
G02*
X172543750Y-96575000I243750J0D01*
G01*
G37*
%TD.AperFunction*%
%TD*%
%TO.P,R5,2*%
%TO.N,Net-(R5-Pad2)*%
%TA.AperFunction,SMDPad,CuDef*%
G36*
G01*
X164543750Y-94450000D02*
X165456250Y-94450000D01*
G75*
G02*
X165700000Y-94693750I0J-243750D01*
G01*
X165700000Y-95181250D01*
G75*
G02*
X165456250Y-95425000I-243750J0D01*
G01*
X164543750Y-95425000D01*
G75*
G02*
X164300000Y-95181250I0J243750D01*
G01*
X164300000Y-94693750D01*
G75*
G02*
X164543750Y-94450000I243750J0D01*
G01*
G37*
%TD.AperFunction*%
%TO.P,R5,1*%
%TO.N,/ac_v_afe_1/AC_V_N*%
%TA.AperFunction,SMDPad,CuDef*%
G36*
G01*
X164543750Y-92575000D02*
X165456250Y-92575000D01*
G75*
G02*
X165700000Y-92818750I0J-243750D01*
G01*
X165700000Y-93306250D01*
G75*
G02*
X165456250Y-93550000I-243750J0D01*
G01*
X164543750Y-93550000D01*
G75*
G02*
X164300000Y-93306250I0J243750D01*
G01*
X164300000Y-92818750D01*
G75*
G02*
X164543750Y-92575000I243750J0D01*
G01*
G37*
%TD.AperFunction*%
%TD*%
%TO.P,R4,2*%
%TO.N,Net-(R4-Pad2)*%
%TA.AperFunction,SMDPad,CuDef*%
G36*
G01*
X172543750Y-94450000D02*
X173456250Y-94450000D01*
G75*
G02*
X173700000Y-94693750I0J-243750D01*
G01*
X173700000Y-95181250D01*
G75*
G02*
X173456250Y-95425000I-243750J0D01*
G01*
X172543750Y-95425000D01*
G75*
G02*
X172300000Y-95181250I0J243750D01*
G01*
X172300000Y-94693750D01*
G75*
G02*
X172543750Y-94450000I243750J0D01*
G01*
G37*
%TD.AperFunction*%
%TO.P,R4,1*%
%TO.N,/ac_v_afe_1/AC_V_L*%
%TA.AperFunction,SMDPad,CuDef*%
G36*
G01*
X172543750Y-92575000D02*
X173456250Y-92575000D01*
G75*
G02*
X173700000Y-92818750I0J-243750D01*
G01*
X173700000Y-93306250D01*
G75*
G02*
X173456250Y-93550000I-243750J0D01*
G01*
X172543750Y-93550000D01*
G75*
G02*
X172300000Y-93306250I0J243750D01*
G01*
X172300000Y-92818750D01*
G75*
G02*
X172543750Y-92575000I243750J0D01*
G01*
G37*
%TD.AperFunction*%
%TD*%
%TO.P,R3,2*%
%TO.N,Net-(C1-Pad2)*%
%TA.AperFunction,SMDPad,CuDef*%
G36*
G01*
X114256250Y-116650000D02*
X113743750Y-116650000D01*
G75*
G02*
X113525000Y-116431250I0J218750D01*
G01*
X113525000Y-115993750D01*
G75*
G02*
X113743750Y-115775000I218750J0D01*
G01*
X114256250Y-115775000D01*
G75*
G02*
X114475000Y-115993750I0J-218750D01*
G01*
X114475000Y-116431250D01*
G75*
G02*
X114256250Y-116650000I-218750J0D01*
G01*
G37*
%TD.AperFunction*%
%TO.P,R3,1*%
%TO.N,/signal_I1*%
%TA.AperFunction,SMDPad,CuDef*%
G36*
G01*
X114256250Y-118225000D02*
X113743750Y-118225000D01*
G75*
G02*
X113525000Y-118006250I0J218750D01*
G01*
X113525000Y-117568750D01*
G75*
G02*
X113743750Y-117350000I218750J0D01*
G01*
X114256250Y-117350000D01*
G75*
G02*
X114475000Y-117568750I0J-218750D01*
G01*
X114475000Y-118006250D01*
G75*
G02*
X114256250Y-118225000I-218750J0D01*
G01*
G37*
%TD.AperFunction*%
%TD*%
%TO.P,R2,2*%
%TO.N,/ac_i_afe_1/CT_coil*%
%TA.AperFunction,SMDPad,CuDef*%
G36*
G01*
X112256250Y-112650000D02*
X111743750Y-112650000D01*
G75*
G02*
X111525000Y-112431250I0J218750D01*
G01*
X111525000Y-111993750D01*
G75*
G02*
X111743750Y-111775000I218750J0D01*
G01*
X112256250Y-111775000D01*
G75*
G02*
X112475000Y-111993750I0J-218750D01*
G01*
X112475000Y-112431250D01*
G75*
G02*
X112256250Y-112650000I-218750J0D01*
G01*
G37*
%TD.AperFunction*%
%TO.P,R2,1*%
%TO.N,Net-(C1-Pad2)*%
%TA.AperFunction,SMDPad,CuDef*%
G36*
G01*
X112256250Y-114225000D02*
X111743750Y-114225000D01*
G75*
G02*
X111525000Y-114006250I0J218750D01*
G01*
X111525000Y-113568750D01*
G75*
G02*
X111743750Y-113350000I218750J0D01*
G01*
X112256250Y-113350000D01*
G75*
G02*
X112475000Y-113568750I0J-218750D01*
G01*
X112475000Y-114006250D01*
G75*
G02*
X112256250Y-114225000I-218750J0D01*
G01*
G37*
%TD.AperFunction*%
%TD*%
%TO.P,R1,2*%
%TO.N,/ac_i_afe_1/CT_coil*%
X112550000Y-109000000D03*
%TO.P,R1,1*%
%TO.N,/ac_i_afe_1/ext_ref*%
X117450000Y-109000000D03*
%TD*%
D18*
%TO.P,JP3,2*%
%TO.N,/ac_v_afe_3/Reference_voltage*%
X207000000Y-113000000D03*
%TA.AperFunction,SMDPad,CuDef*%
D19*
%TO.P,JP3,3*%
%TO.N,/ac_v_afe_3/ext_ref*%
G36*
X207749398Y-114300000D02*
G01*
X207749398Y-114324534D01*
X207744588Y-114373365D01*
X207735016Y-114421490D01*
X207720772Y-114468445D01*
X207701995Y-114513778D01*
X207678864Y-114557051D01*
X207651604Y-114597850D01*
X207620476Y-114635779D01*
X207585779Y-114670476D01*
X207547850Y-114701604D01*
X207507051Y-114728864D01*
X207463778Y-114751995D01*
X207418445Y-114770772D01*
X207371490Y-114785016D01*
X207323365Y-114794588D01*
X207274534Y-114799398D01*
X207250000Y-114799398D01*
X207250000Y-114800000D01*
X206750000Y-114800000D01*
X206750000Y-114799398D01*
X206725466Y-114799398D01*
X206676635Y-114794588D01*
X206628510Y-114785016D01*
X206581555Y-114770772D01*
X206536222Y-114751995D01*
X206492949Y-114728864D01*
X206452150Y-114701604D01*
X206414221Y-114670476D01*
X206379524Y-114635779D01*
X206348396Y-114597850D01*
X206321136Y-114557051D01*
X206298005Y-114513778D01*
X206279228Y-114468445D01*
X206264984Y-114421490D01*
X206255412Y-114373365D01*
X206250602Y-114324534D01*
X206250602Y-114300000D01*
X206250000Y-114300000D01*
X206250000Y-113750000D01*
X207750000Y-113750000D01*
X207750000Y-114300000D01*
X207749398Y-114300000D01*
G37*
%TD.AperFunction*%
%TA.AperFunction,SMDPad,CuDef*%
%TO.P,JP3,1*%
%TO.N,/ac_v_afe_3/V_div*%
G36*
X206250000Y-112250000D02*
G01*
X206250000Y-111700000D01*
X206250602Y-111700000D01*
X206250602Y-111675466D01*
X206255412Y-111626635D01*
X206264984Y-111578510D01*
X206279228Y-111531555D01*
X206298005Y-111486222D01*
X206321136Y-111442949D01*
X206348396Y-111402150D01*
X206379524Y-111364221D01*
X206414221Y-111329524D01*
X206452150Y-111298396D01*
X206492949Y-111271136D01*
X206536222Y-111248005D01*
X206581555Y-111229228D01*
X206628510Y-111214984D01*
X206676635Y-111205412D01*
X206725466Y-111200602D01*
X206750000Y-111200602D01*
X206750000Y-111200000D01*
X207250000Y-111200000D01*
X207250000Y-111200602D01*
X207274534Y-111200602D01*
X207323365Y-111205412D01*
X207371490Y-111214984D01*
X207418445Y-111229228D01*
X207463778Y-111248005D01*
X207507051Y-111271136D01*
X207547850Y-111298396D01*
X207585779Y-111329524D01*
X207620476Y-111364221D01*
X207651604Y-111402150D01*
X207678864Y-111442949D01*
X207701995Y-111486222D01*
X207720772Y-111531555D01*
X207735016Y-111578510D01*
X207744588Y-111626635D01*
X207749398Y-111675466D01*
X207749398Y-111700000D01*
X207750000Y-111700000D01*
X207750000Y-112250000D01*
X206250000Y-112250000D01*
G37*
%TD.AperFunction*%
%TD*%
D18*
%TO.P,JP2,2*%
%TO.N,/ac_v_afe_2/Reference_voltage*%
X189000000Y-113000000D03*
%TA.AperFunction,SMDPad,CuDef*%
D19*
%TO.P,JP2,3*%
%TO.N,/ac_v_afe_2/ext_ref*%
G36*
X189749398Y-114300000D02*
G01*
X189749398Y-114324534D01*
X189744588Y-114373365D01*
X189735016Y-114421490D01*
X189720772Y-114468445D01*
X189701995Y-114513778D01*
X189678864Y-114557051D01*
X189651604Y-114597850D01*
X189620476Y-114635779D01*
X189585779Y-114670476D01*
X189547850Y-114701604D01*
X189507051Y-114728864D01*
X189463778Y-114751995D01*
X189418445Y-114770772D01*
X189371490Y-114785016D01*
X189323365Y-114794588D01*
X189274534Y-114799398D01*
X189250000Y-114799398D01*
X189250000Y-114800000D01*
X188750000Y-114800000D01*
X188750000Y-114799398D01*
X188725466Y-114799398D01*
X188676635Y-114794588D01*
X188628510Y-114785016D01*
X188581555Y-114770772D01*
X188536222Y-114751995D01*
X188492949Y-114728864D01*
X188452150Y-114701604D01*
X188414221Y-114670476D01*
X188379524Y-114635779D01*
X188348396Y-114597850D01*
X188321136Y-114557051D01*
X188298005Y-114513778D01*
X188279228Y-114468445D01*
X188264984Y-114421490D01*
X188255412Y-114373365D01*
X188250602Y-114324534D01*
X188250602Y-114300000D01*
X188250000Y-114300000D01*
X188250000Y-113750000D01*
X189750000Y-113750000D01*
X189750000Y-114300000D01*
X189749398Y-114300000D01*
G37*
%TD.AperFunction*%
%TA.AperFunction,SMDPad,CuDef*%
%TO.P,JP2,1*%
%TO.N,/ac_v_afe_2/V_div*%
G36*
X188250000Y-112250000D02*
G01*
X188250000Y-111700000D01*
X188250602Y-111700000D01*
X188250602Y-111675466D01*
X188255412Y-111626635D01*
X188264984Y-111578510D01*
X188279228Y-111531555D01*
X188298005Y-111486222D01*
X188321136Y-111442949D01*
X188348396Y-111402150D01*
X188379524Y-111364221D01*
X188414221Y-111329524D01*
X188452150Y-111298396D01*
X188492949Y-111271136D01*
X188536222Y-111248005D01*
X188581555Y-111229228D01*
X188628510Y-111214984D01*
X188676635Y-111205412D01*
X188725466Y-111200602D01*
X188750000Y-111200602D01*
X188750000Y-111200000D01*
X189250000Y-111200000D01*
X189250000Y-111200602D01*
X189274534Y-111200602D01*
X189323365Y-111205412D01*
X189371490Y-111214984D01*
X189418445Y-111229228D01*
X189463778Y-111248005D01*
X189507051Y-111271136D01*
X189547850Y-111298396D01*
X189585779Y-111329524D01*
X189620476Y-111364221D01*
X189651604Y-111402150D01*
X189678864Y-111442949D01*
X189701995Y-111486222D01*
X189720772Y-111531555D01*
X189735016Y-111578510D01*
X189744588Y-111626635D01*
X189749398Y-111675466D01*
X189749398Y-111700000D01*
X189750000Y-111700000D01*
X189750000Y-112250000D01*
X188250000Y-112250000D01*
G37*
%TD.AperFunction*%
%TD*%
D18*
%TO.P,JP1,2*%
%TO.N,/ac_v_afe_1/Reference_voltage*%
X171000000Y-113000000D03*
%TA.AperFunction,SMDPad,CuDef*%
D19*
%TO.P,JP1,3*%
%TO.N,/ac_v_afe_1/ext_ref*%
G36*
X171749398Y-114300000D02*
G01*
X171749398Y-114324534D01*
X171744588Y-114373365D01*
X171735016Y-114421490D01*
X171720772Y-114468445D01*
X171701995Y-114513778D01*
X171678864Y-114557051D01*
X171651604Y-114597850D01*
X171620476Y-114635779D01*
X171585779Y-114670476D01*
X171547850Y-114701604D01*
X171507051Y-114728864D01*
X171463778Y-114751995D01*
X171418445Y-114770772D01*
X171371490Y-114785016D01*
X171323365Y-114794588D01*
X171274534Y-114799398D01*
X171250000Y-114799398D01*
X171250000Y-114800000D01*
X170750000Y-114800000D01*
X170750000Y-114799398D01*
X170725466Y-114799398D01*
X170676635Y-114794588D01*
X170628510Y-114785016D01*
X170581555Y-114770772D01*
X170536222Y-114751995D01*
X170492949Y-114728864D01*
X170452150Y-114701604D01*
X170414221Y-114670476D01*
X170379524Y-114635779D01*
X170348396Y-114597850D01*
X170321136Y-114557051D01*
X170298005Y-114513778D01*
X170279228Y-114468445D01*
X170264984Y-114421490D01*
X170255412Y-114373365D01*
X170250602Y-114324534D01*
X170250602Y-114300000D01*
X170250000Y-114300000D01*
X170250000Y-113750000D01*
X171750000Y-113750000D01*
X171750000Y-114300000D01*
X171749398Y-114300000D01*
G37*
%TD.AperFunction*%
%TA.AperFunction,SMDPad,CuDef*%
%TO.P,JP1,1*%
%TO.N,/ac_v_afe_1/V_div*%
G36*
X170250000Y-112250000D02*
G01*
X170250000Y-111700000D01*
X170250602Y-111700000D01*
X170250602Y-111675466D01*
X170255412Y-111626635D01*
X170264984Y-111578510D01*
X170279228Y-111531555D01*
X170298005Y-111486222D01*
X170321136Y-111442949D01*
X170348396Y-111402150D01*
X170379524Y-111364221D01*
X170414221Y-111329524D01*
X170452150Y-111298396D01*
X170492949Y-111271136D01*
X170536222Y-111248005D01*
X170581555Y-111229228D01*
X170628510Y-111214984D01*
X170676635Y-111205412D01*
X170725466Y-111200602D01*
X170750000Y-111200602D01*
X170750000Y-111200000D01*
X171250000Y-111200000D01*
X171250000Y-111200602D01*
X171274534Y-111200602D01*
X171323365Y-111205412D01*
X171371490Y-111214984D01*
X171418445Y-111229228D01*
X171463778Y-111248005D01*
X171507051Y-111271136D01*
X171547850Y-111298396D01*
X171585779Y-111329524D01*
X171620476Y-111364221D01*
X171651604Y-111402150D01*
X171678864Y-111442949D01*
X171701995Y-111486222D01*
X171720772Y-111531555D01*
X171735016Y-111578510D01*
X171744588Y-111626635D01*
X171749398Y-111675466D01*
X171749398Y-111700000D01*
X171750000Y-111700000D01*
X171750000Y-112250000D01*
X170250000Y-112250000D01*
G37*
%TD.AperFunction*%
%TD*%
D14*
%TO.P,J23,1*%
%TO.N,/ac_v_afe_3/AC_V_N*%
X201000000Y-89000000D03*
%TD*%
%TO.P,J22,1*%
%TO.N,/ac_v_afe_3/AC_V_L*%
X209000000Y-89000000D03*
%TD*%
%TO.P,J16,1*%
%TO.N,/ac_v_afe_2/AC_V_N*%
X183000000Y-89000000D03*
%TD*%
%TO.P,J15,1*%
%TO.N,/ac_v_afe_2/AC_V_L*%
X191000000Y-89000000D03*
%TD*%
%TO.P,J9,1*%
%TO.N,/ac_v_afe_1/AC_V_N*%
X165000000Y-89000000D03*
%TD*%
%TO.P,J8,1*%
%TO.N,/ac_v_afe_1/AC_V_L*%
X173000000Y-89000000D03*
%TD*%
%TO.P,C3,2*%
%TO.N,Net-(C3-Pad2)*%
%TA.AperFunction,SMDPad,CuDef*%
G36*
G01*
X148256250Y-116650000D02*
X147743750Y-116650000D01*
G75*
G02*
X147525000Y-116431250I0J218750D01*
G01*
X147525000Y-115993750D01*
G75*
G02*
X147743750Y-115775000I218750J0D01*
G01*
X148256250Y-115775000D01*
G75*
G02*
X148475000Y-115993750I0J-218750D01*
G01*
X148475000Y-116431250D01*
G75*
G02*
X148256250Y-116650000I-218750J0D01*
G01*
G37*
%TD.AperFunction*%
%TO.P,C3,1*%
%TO.N,/signal_I3*%
%TA.AperFunction,SMDPad,CuDef*%
G36*
G01*
X148256250Y-118225000D02*
X147743750Y-118225000D01*
G75*
G02*
X147525000Y-118006250I0J218750D01*
G01*
X147525000Y-117568750D01*
G75*
G02*
X147743750Y-117350000I218750J0D01*
G01*
X148256250Y-117350000D01*
G75*
G02*
X148475000Y-117568750I0J-218750D01*
G01*
X148475000Y-118006250D01*
G75*
G02*
X148256250Y-118225000I-218750J0D01*
G01*
G37*
%TD.AperFunction*%
%TD*%
%TO.P,C2,2*%
%TO.N,Net-(C2-Pad2)*%
%TA.AperFunction,SMDPad,CuDef*%
G36*
G01*
X130256250Y-116650000D02*
X129743750Y-116650000D01*
G75*
G02*
X129525000Y-116431250I0J218750D01*
G01*
X129525000Y-115993750D01*
G75*
G02*
X129743750Y-115775000I218750J0D01*
G01*
X130256250Y-115775000D01*
G75*
G02*
X130475000Y-115993750I0J-218750D01*
G01*
X130475000Y-116431250D01*
G75*
G02*
X130256250Y-116650000I-218750J0D01*
G01*
G37*
%TD.AperFunction*%
%TO.P,C2,1*%
%TO.N,/signal_I2*%
%TA.AperFunction,SMDPad,CuDef*%
G36*
G01*
X130256250Y-118225000D02*
X129743750Y-118225000D01*
G75*
G02*
X129525000Y-118006250I0J218750D01*
G01*
X129525000Y-117568750D01*
G75*
G02*
X129743750Y-117350000I218750J0D01*
G01*
X130256250Y-117350000D01*
G75*
G02*
X130475000Y-117568750I0J-218750D01*
G01*
X130475000Y-118006250D01*
G75*
G02*
X130256250Y-118225000I-218750J0D01*
G01*
G37*
%TD.AperFunction*%
%TD*%
%TO.P,C1,2*%
%TO.N,Net-(C1-Pad2)*%
%TA.AperFunction,SMDPad,CuDef*%
G36*
G01*
X112256250Y-116650000D02*
X111743750Y-116650000D01*
G75*
G02*
X111525000Y-116431250I0J218750D01*
G01*
X111525000Y-115993750D01*
G75*
G02*
X111743750Y-115775000I218750J0D01*
G01*
X112256250Y-115775000D01*
G75*
G02*
X112475000Y-115993750I0J-218750D01*
G01*
X112475000Y-116431250D01*
G75*
G02*
X112256250Y-116650000I-218750J0D01*
G01*
G37*
%TD.AperFunction*%
%TO.P,C1,1*%
%TO.N,/signal_I1*%
%TA.AperFunction,SMDPad,CuDef*%
G36*
G01*
X112256250Y-118225000D02*
X111743750Y-118225000D01*
G75*
G02*
X111525000Y-118006250I0J218750D01*
G01*
X111525000Y-117568750D01*
G75*
G02*
X111743750Y-117350000I218750J0D01*
G01*
X112256250Y-117350000D01*
G75*
G02*
X112475000Y-117568750I0J-218750D01*
G01*
X112475000Y-118006250D01*
G75*
G02*
X112256250Y-118225000I-218750J0D01*
G01*
G37*
%TD.AperFunction*%
%TD*%
D20*
%TO.N,GNDA*%
X155200000Y-117000000D03*
X137200000Y-117000000D03*
X119250000Y-117000000D03*
X177500000Y-111500000D03*
X169400000Y-113900000D03*
X195500000Y-111500000D03*
X187400000Y-113900000D03*
X213500000Y-111500000D03*
X205400000Y-113900000D03*
X101200000Y-117000000D03*
%TD*%
D21*
%TO.N,/ac_v_afe_3/AC_V_L*%
X207500000Y-83000000D02*
X209000000Y-84500000D01*
X209000000Y-84500000D02*
X209000000Y-89000000D01*
X207500000Y-79500000D02*
X207500000Y-83000000D01*
%TO.N,/ac_v_afe_3/AC_V_N*%
X201000000Y-84500000D02*
X201000000Y-89000000D01*
X202500000Y-83000000D02*
X201000000Y-84500000D01*
X202500000Y-79500000D02*
X202500000Y-83000000D01*
%TO.N,/ac_v_afe_2/AC_V_L*%
X189500000Y-83000000D02*
X191000000Y-84500000D01*
X191000000Y-84500000D02*
X191000000Y-89000000D01*
X189500000Y-79500000D02*
X189500000Y-83000000D01*
%TO.N,/ac_v_afe_2/AC_V_N*%
X183000000Y-84500000D02*
X183000000Y-89000000D01*
X184500000Y-83000000D02*
X183000000Y-84500000D01*
X184500000Y-79500000D02*
X184500000Y-83000000D01*
%TO.N,/ac_i_afe_3/ext_ref*%
X153450000Y-109000000D02*
X157000000Y-109000000D01*
%TO.N,/ac_i_afe_3/CT_coil*%
X145000000Y-109000000D02*
X148550000Y-109000000D01*
%TO.N,/ac_i_afe_2/ext_ref*%
X135450000Y-109000000D02*
X139000000Y-109000000D01*
%TO.N,/ac_i_afe_2/CT_coil*%
X127000000Y-109000000D02*
X130550000Y-109000000D01*
%TO.N,/ac_i_afe_1/ext_ref*%
X117450000Y-109000000D02*
X121000000Y-109000000D01*
%TO.N,/ac_i_afe_1/CT_coil*%
X109000000Y-109000000D02*
X112550000Y-109000000D01*
%TO.N,Net-(C3-Pad2)*%
X148000000Y-116212500D02*
X150000000Y-116212500D01*
X150987500Y-116212500D02*
X151150000Y-116050000D01*
X148000000Y-113787500D02*
X148000000Y-116212500D01*
X150000000Y-116212500D02*
X150987500Y-116212500D01*
X151150000Y-116050000D02*
X151900000Y-116050000D01*
D22*
%TO.N,/ac_i_afe_3/ext_ref*%
X154100000Y-112900000D02*
X154100000Y-116050000D01*
X153450000Y-105800000D02*
X153450000Y-109000000D01*
X151000000Y-103350000D02*
X153450000Y-105800000D01*
X153450000Y-112250000D02*
X154100000Y-112900000D01*
X153450000Y-109000000D02*
X153450000Y-112250000D01*
D21*
X154100000Y-116050000D02*
X155650000Y-116050000D01*
X156200000Y-116600000D02*
X156200000Y-121800000D01*
X153000000Y-128000000D02*
X153000000Y-130540000D01*
X153000000Y-123600000D02*
X153000000Y-128000000D01*
X156200000Y-121800000D02*
X155000000Y-123000000D01*
X155000000Y-123000000D02*
X153600000Y-123000000D01*
X153600000Y-123000000D02*
X153000000Y-123600000D01*
X155650000Y-116050000D02*
X156200000Y-116600000D01*
%TO.N,/signal_I3*%
X153000000Y-117200000D02*
X153000000Y-117800000D01*
X148000000Y-117787500D02*
X150000000Y-117787500D01*
X150000000Y-117787500D02*
X150787500Y-117000000D01*
X150787500Y-117000000D02*
X152800000Y-117000000D01*
X152800000Y-117000000D02*
X153000000Y-117200000D01*
X153000000Y-117800000D02*
X153000000Y-118000000D01*
X153050000Y-117950000D02*
X153000000Y-118000000D01*
X154100000Y-117950000D02*
X153050000Y-117950000D01*
X150200000Y-122200000D02*
X149000000Y-123400000D01*
X149000000Y-123400000D02*
X149000000Y-128000000D01*
X149000000Y-128000000D02*
X149000000Y-130540000D01*
X153050000Y-117950000D02*
X153050000Y-120550000D01*
X153050000Y-120550000D02*
X151400000Y-122200000D01*
X151400000Y-122200000D02*
X150200000Y-122200000D01*
D22*
%TO.N,VDDA*%
X145000000Y-128000000D02*
X145000000Y-121500000D01*
X145000000Y-121500000D02*
X146000000Y-120500000D01*
X150800000Y-120500000D02*
X151900000Y-119400000D01*
X146000000Y-120500000D02*
X150800000Y-120500000D01*
X151900000Y-119400000D02*
X151900000Y-117950000D01*
D21*
%TO.N,GNDA*%
X154100000Y-117000000D02*
X155200000Y-117000000D01*
D22*
%TO.N,/ac_i_afe_3/CT_coil*%
X148550000Y-110650000D02*
X148000000Y-111200000D01*
X148000000Y-111200000D02*
X148000000Y-112212500D01*
X151000000Y-90650000D02*
X148550000Y-93100000D01*
X148550000Y-109000000D02*
X148550000Y-110650000D01*
X148550000Y-93100000D02*
X148550000Y-109000000D01*
D21*
%TO.N,Net-(C2-Pad2)*%
X130000000Y-116212500D02*
X132000000Y-116212500D01*
X132987500Y-116212500D02*
X133150000Y-116050000D01*
X130000000Y-113787500D02*
X130000000Y-116212500D01*
X132000000Y-116212500D02*
X132987500Y-116212500D01*
X133150000Y-116050000D02*
X133900000Y-116050000D01*
D22*
%TO.N,/ac_i_afe_2/ext_ref*%
X136100000Y-112900000D02*
X136100000Y-116050000D01*
X135450000Y-105800000D02*
X135450000Y-109000000D01*
X133000000Y-103350000D02*
X135450000Y-105800000D01*
X135450000Y-112250000D02*
X136100000Y-112900000D01*
X135450000Y-109000000D02*
X135450000Y-112250000D01*
D21*
X136100000Y-116050000D02*
X137650000Y-116050000D01*
X138200000Y-116600000D02*
X138200000Y-121800000D01*
X135000000Y-128000000D02*
X135000000Y-130540000D01*
X135000000Y-123600000D02*
X135000000Y-128000000D01*
X138200000Y-121800000D02*
X137000000Y-123000000D01*
X137000000Y-123000000D02*
X135600000Y-123000000D01*
X135600000Y-123000000D02*
X135000000Y-123600000D01*
X137650000Y-116050000D02*
X138200000Y-116600000D01*
%TO.N,/signal_I2*%
X135000000Y-117200000D02*
X135000000Y-117800000D01*
X130000000Y-117787500D02*
X132000000Y-117787500D01*
X132000000Y-117787500D02*
X132787500Y-117000000D01*
X132787500Y-117000000D02*
X134800000Y-117000000D01*
X134800000Y-117000000D02*
X135000000Y-117200000D01*
X135000000Y-117800000D02*
X135000000Y-118000000D01*
X135050000Y-117950000D02*
X135000000Y-118000000D01*
X136100000Y-117950000D02*
X135050000Y-117950000D01*
X132200000Y-122200000D02*
X131000000Y-123400000D01*
X131000000Y-123400000D02*
X131000000Y-128000000D01*
X131000000Y-128000000D02*
X131000000Y-130540000D01*
X135050000Y-117950000D02*
X135050000Y-120550000D01*
X135050000Y-120550000D02*
X133400000Y-122200000D01*
X133400000Y-122200000D02*
X132200000Y-122200000D01*
D22*
%TO.N,VDDA*%
X127000000Y-128000000D02*
X127000000Y-121500000D01*
X127000000Y-121500000D02*
X128000000Y-120500000D01*
X132800000Y-120500000D02*
X133900000Y-119400000D01*
X128000000Y-120500000D02*
X132800000Y-120500000D01*
X133900000Y-119400000D02*
X133900000Y-117950000D01*
D21*
%TO.N,GNDA*%
X136100000Y-117000000D02*
X137200000Y-117000000D01*
D22*
%TO.N,/ac_i_afe_2/CT_coil*%
X130550000Y-110650000D02*
X130000000Y-111200000D01*
X130000000Y-111200000D02*
X130000000Y-112212500D01*
X133000000Y-90650000D02*
X130550000Y-93100000D01*
X130550000Y-109000000D02*
X130550000Y-110650000D01*
X130550000Y-93100000D02*
X130550000Y-109000000D01*
D21*
%TO.N,Net-(C1-Pad2)*%
X112050000Y-116212500D02*
X114050000Y-116212500D01*
X115037500Y-116212500D02*
X115200000Y-116050000D01*
X112050000Y-113787500D02*
X112050000Y-116212500D01*
X114050000Y-116212500D02*
X115037500Y-116212500D01*
X115200000Y-116050000D02*
X115950000Y-116050000D01*
D22*
%TO.N,/ac_i_afe_1/ext_ref*%
X118150000Y-112900000D02*
X118150000Y-116050000D01*
X117500000Y-105800000D02*
X117500000Y-109000000D01*
X115050000Y-103350000D02*
X117500000Y-105800000D01*
X117500000Y-112250000D02*
X118150000Y-112900000D01*
X117500000Y-109000000D02*
X117500000Y-112250000D01*
D21*
X118150000Y-116050000D02*
X119700000Y-116050000D01*
X120250000Y-116600000D02*
X120250000Y-121800000D01*
X117050000Y-128000000D02*
X117050000Y-130540000D01*
X117050000Y-123600000D02*
X117050000Y-128000000D01*
X120250000Y-121800000D02*
X119050000Y-123000000D01*
X119050000Y-123000000D02*
X117650000Y-123000000D01*
X117650000Y-123000000D02*
X117050000Y-123600000D01*
X119700000Y-116050000D02*
X120250000Y-116600000D01*
%TO.N,/signal_I1*%
X117050000Y-117200000D02*
X117050000Y-117800000D01*
X112050000Y-117787500D02*
X114050000Y-117787500D01*
X114050000Y-117787500D02*
X114837500Y-117000000D01*
X114837500Y-117000000D02*
X116850000Y-117000000D01*
X116850000Y-117000000D02*
X117050000Y-117200000D01*
X117050000Y-117800000D02*
X117050000Y-118000000D01*
X117100000Y-117950000D02*
X117050000Y-118000000D01*
X118150000Y-117950000D02*
X117100000Y-117950000D01*
X114250000Y-122200000D02*
X113050000Y-123400000D01*
X113050000Y-123400000D02*
X113050000Y-128000000D01*
X113050000Y-128000000D02*
X113050000Y-130540000D01*
X117100000Y-117950000D02*
X117100000Y-120550000D01*
X117100000Y-120550000D02*
X115450000Y-122200000D01*
X115450000Y-122200000D02*
X114250000Y-122200000D01*
D22*
%TO.N,VDDA*%
X109050000Y-128000000D02*
X109050000Y-121500000D01*
X109050000Y-121500000D02*
X110050000Y-120500000D01*
X114850000Y-120500000D02*
X115950000Y-119400000D01*
X110050000Y-120500000D02*
X114850000Y-120500000D01*
X115950000Y-119400000D02*
X115950000Y-117950000D01*
D21*
%TO.N,GNDA*%
X118150000Y-117000000D02*
X119250000Y-117000000D01*
D22*
%TO.N,/ac_i_afe_1/CT_coil*%
X112600000Y-110650000D02*
X112050000Y-111200000D01*
X112050000Y-111200000D02*
X112050000Y-112212500D01*
X115050000Y-90650000D02*
X112600000Y-93100000D01*
X112600000Y-109000000D02*
X112600000Y-110650000D01*
X112600000Y-93100000D02*
X112600000Y-109000000D01*
D21*
%TO.N,/ac_v_afe_1/ext_ref*%
X171000000Y-114300000D02*
X171000000Y-128000000D01*
X171000000Y-130540000D02*
X171000000Y-128000000D01*
%TO.N,/signal_U1*%
X164600000Y-113200000D02*
X164800000Y-113000000D01*
X163000000Y-113937500D02*
X164462500Y-113937500D01*
X164800000Y-113000000D02*
X166800000Y-113000000D01*
X164600000Y-113800000D02*
X164600000Y-113200000D01*
X164462500Y-113937500D02*
X164600000Y-113800000D01*
X167000000Y-128000000D02*
X167000000Y-130540000D01*
X167000000Y-113200000D02*
X167000000Y-114000000D01*
X166800000Y-113000000D02*
X167000000Y-113200000D01*
X168100000Y-113950000D02*
X167050000Y-113950000D01*
X167000000Y-114000000D02*
X167000000Y-128000000D01*
%TO.N,/ac_v_afe_2/ext_ref*%
X189000000Y-114300000D02*
X189000000Y-128000000D01*
X189000000Y-130540000D02*
X189000000Y-128000000D01*
%TO.N,/signal_U2*%
X182600000Y-113200000D02*
X182800000Y-113000000D01*
X181000000Y-113937500D02*
X182462500Y-113937500D01*
X182800000Y-113000000D02*
X184800000Y-113000000D01*
X182600000Y-113800000D02*
X182600000Y-113200000D01*
X182462500Y-113937500D02*
X182600000Y-113800000D01*
X185000000Y-128000000D02*
X185000000Y-130540000D01*
X185000000Y-113200000D02*
X185000000Y-114000000D01*
X184800000Y-113000000D02*
X185000000Y-113200000D01*
X186100000Y-113950000D02*
X185050000Y-113950000D01*
X185000000Y-114000000D02*
X185000000Y-128000000D01*
%TO.N,/ac_v_afe_1/AC_V_L*%
X173000000Y-89000000D02*
X173000000Y-93062500D01*
X171500000Y-79500000D02*
X171500000Y-83000000D01*
X173000000Y-84500000D02*
X173000000Y-89000000D01*
X171500000Y-83000000D02*
X173000000Y-84500000D01*
%TO.N,/ac_v_afe_1/AC_V_N*%
X165000000Y-89000000D02*
X165000000Y-93062500D01*
X166500000Y-79500000D02*
X166500000Y-83000000D01*
X165000000Y-84500000D02*
X165000000Y-89000000D01*
X166500000Y-83000000D02*
X165000000Y-84500000D01*
%TO.N,/ac_v_afe_1/Reference_voltage*%
X172400000Y-109200000D02*
X169800000Y-109200000D01*
X169400000Y-112600000D02*
X169800000Y-113000000D01*
X173000000Y-108600000D02*
X172400000Y-109200000D01*
X169800000Y-109200000D02*
X169400000Y-109600000D01*
X173000000Y-106937500D02*
X173000000Y-108600000D01*
X169800000Y-113000000D02*
X171000000Y-113000000D01*
X169400000Y-112000000D02*
X169400000Y-112600000D01*
X169400000Y-109600000D02*
X169400000Y-112000000D01*
X168100000Y-112050000D02*
X169350000Y-112050000D01*
X169350000Y-112050000D02*
X169400000Y-112000000D01*
%TO.N,/ac_v_afe_1/V_div*%
X172700000Y-111500000D02*
X173600000Y-111500000D01*
X171000000Y-111700000D02*
X172500000Y-111700000D01*
X172500000Y-111700000D02*
X172700000Y-111500000D01*
X173600000Y-111500000D02*
X173600000Y-111600000D01*
X173600000Y-111500000D02*
X173600000Y-114500000D01*
%TO.N,Net-(R4-Pad2)*%
X173000000Y-94937500D02*
X173000000Y-97062500D01*
%TO.N,Net-(R5-Pad2)*%
X165000000Y-94937500D02*
X165000000Y-97062500D01*
%TO.N,Net-(R6-Pad2)*%
X173000000Y-98937500D02*
X173000000Y-101062500D01*
%TO.N,Net-(R7-Pad2)*%
X165000000Y-98937500D02*
X165000000Y-101062500D01*
%TO.N,Net-(R10-Pad1)*%
X173000000Y-102937500D02*
X173000000Y-105062500D01*
%TO.N,Net-(R11-Pad1)*%
X165000000Y-102937500D02*
X165000000Y-105062500D01*
%TO.N,Net-(R11-Pad2)*%
X165000000Y-109000000D02*
X165900000Y-109900000D01*
X165000000Y-106937500D02*
X165000000Y-109000000D01*
X165887500Y-112062500D02*
X165900000Y-112050000D01*
X165900000Y-109900000D02*
X165900000Y-112050000D01*
X163000000Y-112062500D02*
X165887500Y-112062500D01*
%TO.N,/ac_v_afe_2/AC_V_L*%
X191000000Y-89000000D02*
X191000000Y-93062500D01*
%TO.N,/ac_v_afe_2/AC_V_N*%
X183000000Y-89000000D02*
X183000000Y-93062500D01*
%TO.N,/ac_v_afe_3/AC_V_L*%
X209000000Y-89000000D02*
X209000000Y-93062500D01*
%TO.N,/ac_v_afe_3/AC_V_N*%
X201000000Y-89000000D02*
X201000000Y-93062500D01*
%TO.N,/ac_v_afe_3/ext_ref*%
X207000000Y-114300000D02*
X207000000Y-128000000D01*
X207000000Y-130540000D02*
X207000000Y-128000000D01*
%TO.N,/ac_v_afe_2/Reference_voltage*%
X190400000Y-109200000D02*
X187800000Y-109200000D01*
X187400000Y-112600000D02*
X187800000Y-113000000D01*
X191000000Y-108600000D02*
X190400000Y-109200000D01*
X187800000Y-109200000D02*
X187400000Y-109600000D01*
X191000000Y-106937500D02*
X191000000Y-108600000D01*
X187800000Y-113000000D02*
X189000000Y-113000000D01*
X187400000Y-112000000D02*
X187400000Y-112600000D01*
X187400000Y-109600000D02*
X187400000Y-112000000D01*
X186100000Y-112050000D02*
X187350000Y-112050000D01*
X187350000Y-112050000D02*
X187400000Y-112000000D01*
%TO.N,/ac_v_afe_2/V_div*%
X190700000Y-111500000D02*
X191600000Y-111500000D01*
X189000000Y-111700000D02*
X190500000Y-111700000D01*
X190500000Y-111700000D02*
X190700000Y-111500000D01*
X191600000Y-111500000D02*
X191600000Y-111600000D01*
X191600000Y-111500000D02*
X191600000Y-114500000D01*
%TO.N,/ac_v_afe_3/Reference_voltage*%
X209000000Y-106937500D02*
X209000000Y-108600000D01*
X209000000Y-108600000D02*
X208400000Y-109200000D01*
X208400000Y-109200000D02*
X205800000Y-109200000D01*
X205800000Y-109200000D02*
X205400000Y-109600000D01*
X205800000Y-113000000D02*
X207000000Y-113000000D01*
X205400000Y-112600000D02*
X205800000Y-113000000D01*
X205350000Y-112050000D02*
X205400000Y-112000000D01*
X204100000Y-112050000D02*
X205350000Y-112050000D01*
X205400000Y-109600000D02*
X205400000Y-112000000D01*
X205400000Y-112000000D02*
X205400000Y-112600000D01*
%TO.N,/ac_v_afe_3/V_div*%
X207000000Y-111700000D02*
X208500000Y-111700000D01*
X208700000Y-111500000D02*
X209600000Y-111500000D01*
X208500000Y-111700000D02*
X208700000Y-111500000D01*
X209600000Y-111500000D02*
X209600000Y-111600000D01*
X209600000Y-111500000D02*
X209600000Y-114500000D01*
%TO.N,Net-(R15-Pad2)*%
X191000000Y-94937500D02*
X191000000Y-97062500D01*
%TO.N,Net-(R16-Pad2)*%
X183000000Y-94937500D02*
X183000000Y-97062500D01*
%TO.N,Net-(R17-Pad2)*%
X191000000Y-98937500D02*
X191000000Y-101062500D01*
%TO.N,Net-(R18-Pad2)*%
X183000000Y-98937500D02*
X183000000Y-101062500D01*
%TO.N,Net-(R19-Pad2)*%
X191000000Y-102937500D02*
X191000000Y-105062500D01*
%TO.N,Net-(R20-Pad2)*%
X183000000Y-102937500D02*
X183000000Y-105062500D01*
%TO.N,Net-(R22-Pad2)*%
X183000000Y-109000000D02*
X183900000Y-109900000D01*
X183000000Y-106937500D02*
X183000000Y-109000000D01*
X183887500Y-112062500D02*
X183900000Y-112050000D01*
X183900000Y-109900000D02*
X183900000Y-112050000D01*
X181000000Y-112062500D02*
X183887500Y-112062500D01*
%TO.N,Net-(R26-Pad2)*%
X209000000Y-94937500D02*
X209000000Y-97062500D01*
%TO.N,Net-(R27-Pad2)*%
X201000000Y-94937500D02*
X201000000Y-97062500D01*
%TO.N,Net-(R28-Pad2)*%
X209000000Y-98937500D02*
X209000000Y-101062500D01*
%TO.N,Net-(R29-Pad2)*%
X201000000Y-98937500D02*
X201000000Y-101062500D01*
%TO.N,Net-(R30-Pad2)*%
X209000000Y-102937500D02*
X209000000Y-105062500D01*
%TO.N,Net-(R31-Pad2)*%
X201000000Y-102937500D02*
X201000000Y-105062500D01*
%TO.N,Net-(R33-Pad2)*%
X201000000Y-106937500D02*
X201000000Y-109000000D01*
X201000000Y-109000000D02*
X201900000Y-109900000D01*
X201900000Y-109900000D02*
X201900000Y-112050000D01*
X199000000Y-112062500D02*
X201887500Y-112062500D01*
X201887500Y-112062500D02*
X201900000Y-112050000D01*
%TO.N,Net-(C4-Pad2)*%
X94000000Y-113787500D02*
X94000000Y-116212500D01*
X94000000Y-116212500D02*
X96000000Y-116212500D01*
X96000000Y-116212500D02*
X96987500Y-116212500D01*
X97150000Y-116050000D02*
X97900000Y-116050000D01*
X96987500Y-116212500D02*
X97150000Y-116050000D01*
D22*
%TO.N,/ac_i_afe_4/ext_ref*%
X99450000Y-105800000D02*
X99450000Y-109000000D01*
X97000000Y-103350000D02*
X99450000Y-105800000D01*
X99450000Y-109000000D02*
X99450000Y-112250000D01*
X100100000Y-112900000D02*
X100100000Y-116050000D01*
X99450000Y-112250000D02*
X100100000Y-112900000D01*
D21*
X100100000Y-116050000D02*
X101650000Y-116050000D01*
X101650000Y-116050000D02*
X102200000Y-116600000D01*
X102200000Y-116600000D02*
X102200000Y-121800000D01*
X102200000Y-121800000D02*
X101000000Y-123000000D01*
X101000000Y-123000000D02*
X99600000Y-123000000D01*
X99000000Y-123600000D02*
X99000000Y-128000000D01*
X99600000Y-123000000D02*
X99000000Y-123600000D01*
X99000000Y-128000000D02*
X99000000Y-130540000D01*
X99450000Y-109000000D02*
X103000000Y-109000000D01*
%TO.N,/signal_IN*%
X94000000Y-117787500D02*
X96000000Y-117787500D01*
X96000000Y-117787500D02*
X96787500Y-117000000D01*
X96787500Y-117000000D02*
X98800000Y-117000000D01*
X98800000Y-117000000D02*
X99000000Y-117200000D01*
X99000000Y-117200000D02*
X99000000Y-117800000D01*
X99000000Y-117800000D02*
X99000000Y-118000000D01*
X99050000Y-117950000D02*
X99000000Y-118000000D01*
X100100000Y-117950000D02*
X99050000Y-117950000D01*
X99050000Y-117950000D02*
X99050000Y-120550000D01*
X99050000Y-120550000D02*
X97400000Y-122200000D01*
X97400000Y-122200000D02*
X96200000Y-122200000D01*
X95000000Y-123400000D02*
X95000000Y-128000000D01*
X96200000Y-122200000D02*
X95000000Y-123400000D01*
X95000000Y-128000000D02*
X95000000Y-130540000D01*
D22*
%TO.N,VDDA*%
X165900000Y-119500000D02*
X163000000Y-122400000D01*
X163000000Y-122400000D02*
X163000000Y-128000000D01*
X165900000Y-113950000D02*
X165900000Y-119500000D01*
X163000000Y-128000000D02*
X163000000Y-130540000D01*
X183900000Y-119500000D02*
X181000000Y-122400000D01*
X181000000Y-122400000D02*
X181000000Y-128000000D01*
X183900000Y-113950000D02*
X183900000Y-119500000D01*
X181000000Y-128000000D02*
X181000000Y-130540000D01*
X91000000Y-130540000D02*
X91000000Y-132200000D01*
X91000000Y-132200000D02*
X91800000Y-133000000D01*
X199000000Y-132200000D02*
X199000000Y-130540000D01*
X181000000Y-130540000D02*
X181000000Y-133000000D01*
X163000000Y-130540000D02*
X163000000Y-133000000D01*
X145000000Y-130540000D02*
X145000000Y-133000000D01*
X145000000Y-133000000D02*
X163000000Y-133000000D01*
X127000000Y-130540000D02*
X127000000Y-133000000D01*
X127000000Y-133000000D02*
X145000000Y-133000000D01*
X109050000Y-132950000D02*
X109000000Y-133000000D01*
X109050000Y-130540000D02*
X109050000Y-132950000D01*
X91800000Y-133000000D02*
X109000000Y-133000000D01*
X109000000Y-133000000D02*
X127000000Y-133000000D01*
X109050000Y-128000000D02*
X109050000Y-130540000D01*
X91000000Y-128000000D02*
X91000000Y-130540000D01*
X127000000Y-128000000D02*
X127000000Y-130540000D01*
X145000000Y-128000000D02*
X145000000Y-130540000D01*
X199000000Y-128000000D02*
X199000000Y-130540000D01*
X196000000Y-116100000D02*
X196000000Y-133000000D01*
X194400000Y-114500000D02*
X196000000Y-116100000D01*
X181000000Y-133000000D02*
X196000000Y-133000000D01*
X196000000Y-133000000D02*
X198200000Y-133000000D01*
X163000000Y-133000000D02*
X178000000Y-133000000D01*
X178000000Y-116100000D02*
X178000000Y-133000000D01*
X176400000Y-114500000D02*
X178000000Y-116100000D01*
X178000000Y-133000000D02*
X181000000Y-133000000D01*
X212400000Y-114500000D02*
X214000000Y-116100000D01*
X214000000Y-116100000D02*
X214000000Y-132400000D01*
X214000000Y-132400000D02*
X213400000Y-133000000D01*
X199000000Y-132200000D02*
X199000000Y-133000000D01*
X213400000Y-133000000D02*
X199000000Y-133000000D01*
X199000000Y-133000000D02*
X198200000Y-133000000D01*
X201900000Y-113950000D02*
X201900000Y-119500000D01*
X199000000Y-122400000D02*
X199000000Y-128000000D01*
X201900000Y-119500000D02*
X199000000Y-122400000D01*
X91000000Y-128000000D02*
X91000000Y-121500000D01*
X91000000Y-121500000D02*
X92000000Y-120500000D01*
X92000000Y-120500000D02*
X96800000Y-120500000D01*
X97900000Y-119400000D02*
X97900000Y-117950000D01*
X96800000Y-120500000D02*
X97900000Y-119400000D01*
D21*
%TO.N,GNDA*%
X169400000Y-113400000D02*
X169400000Y-113900000D01*
D22*
X176400000Y-111500000D02*
X177500000Y-111500000D01*
D21*
X168100000Y-113000000D02*
X169000000Y-113000000D01*
X169000000Y-113000000D02*
X169400000Y-113400000D01*
X187400000Y-113400000D02*
X187400000Y-113900000D01*
D22*
X194400000Y-111500000D02*
X195500000Y-111500000D01*
D21*
X186100000Y-113000000D02*
X187000000Y-113000000D01*
X187000000Y-113000000D02*
X187400000Y-113400000D01*
D22*
X212400000Y-111500000D02*
X213500000Y-111500000D01*
D21*
X204100000Y-113000000D02*
X205000000Y-113000000D01*
X205000000Y-113000000D02*
X205400000Y-113400000D01*
X205400000Y-113400000D02*
X205400000Y-113900000D01*
X100100000Y-117000000D02*
X101200000Y-117000000D01*
%TO.N,/signal_U3*%
X203000000Y-128000000D02*
X203000000Y-130540000D01*
X203050000Y-113950000D02*
X203000000Y-114000000D01*
X204100000Y-113950000D02*
X203050000Y-113950000D01*
X203000000Y-114000000D02*
X203000000Y-128000000D01*
X199000000Y-113937500D02*
X200462500Y-113937500D01*
X200462500Y-113937500D02*
X200600000Y-113800000D01*
X200600000Y-113800000D02*
X200600000Y-113200000D01*
X200600000Y-113200000D02*
X200800000Y-113000000D01*
X200800000Y-113000000D02*
X202800000Y-113000000D01*
X203000000Y-113200000D02*
X203000000Y-114000000D01*
X202800000Y-113000000D02*
X203000000Y-113200000D01*
D22*
%TO.N,/ac_i_afe_4/CT_coil*%
X94550000Y-93100000D02*
X94550000Y-109000000D01*
X97000000Y-90650000D02*
X94550000Y-93100000D01*
X94550000Y-109000000D02*
X94550000Y-110650000D01*
X94000000Y-111200000D02*
X94000000Y-112212500D01*
X94550000Y-110650000D02*
X94000000Y-111200000D01*
D21*
X91000000Y-109000000D02*
X94550000Y-109000000D01*
%TD*%
M02*
